<?xml version="1.0" encoding="utf-8" standalone="no"?>
<!DOCTYPE svg PUBLIC "-//W3C//DTD SVG 1.1//EN"
  "http://www.w3.org/Graphics/SVG/1.1/DTD/svg11.dtd">
<svg xmlns:xlink="http://www.w3.org/1999/xlink" width="576pt" height="432pt" viewBox="0 0 576 432" xmlns="http://www.w3.org/2000/svg" version="1.1">
 <metadata>
  <rdf:RDF xmlns:dc="http://purl.org/dc/elements/1.1/" xmlns:cc="http://creativecommons.org/ns#" xmlns:rdf="http://www.w3.org/1999/02/22-rdf-syntax-ns#">
   <cc:Work>
    <dc:type rdf:resource="http://purl.org/dc/dcmitype/StillImage"/>
    <dc:date>2023-09-30T00:28:34.385000</dc:date>
    <dc:format>image/svg+xml</dc:format>
    <dc:creator>
     <cc:Agent>
      <dc:title>Matplotlib v3.7.1, https://matplotlib.org/</dc:title>
     </cc:Agent>
    </dc:creator>
   </cc:Work>
  </rdf:RDF>
 </metadata>
 <defs>
  <style type="text/css">*{stroke-linejoin: round; stroke-linecap: butt}</style>
 </defs>
 <g id="figure_1">
  <g id="patch_1">
   <path d="M 0 432 
L 576 432 
L 576 0 
L 0 0 
z
" style="fill: #ffffff"/>
  </g>
  <g id="axes_1">
   <g id="patch_2">
    <path d="M 51.42 384.9 
L 468.662484 384.9 
L 468.662484 10.8 
L 51.42 10.8 
z
" style="fill: #ffffff"/>
   </g>
   <g id="matplotlib.axis_1">
    <g id="xtick_1">
     <g id="line2d_1">
      <path d="M 51.42 384.9 
L 51.42 10.8 
" clip-path="url(#pc751feac86)" style="fill: none; stroke: #cccccc; stroke-linecap: round"/>
     </g>
     <g id="text_1">
      <!-- 0 -->
      <g style="fill: #262626" transform="translate(47.67 398.815625) scale(0.15 -0.15)">
       <defs>
        <path id="TimesNewRomanPSMT-30" d="M 231 2094 
Q 231 2819 450 3342 
Q 669 3866 1031 4122 
Q 1313 4325 1613 4325 
Q 2100 4325 2488 3828 
Q 2972 3213 2972 2159 
Q 2972 1422 2759 906 
Q 2547 391 2217 158 
Q 1888 -75 1581 -75 
Q 975 -75 572 641 
Q 231 1244 231 2094 
z
M 844 2016 
Q 844 1141 1059 588 
Q 1238 122 1591 122 
Q 1759 122 1940 273 
Q 2122 425 2216 781 
Q 2359 1319 2359 2297 
Q 2359 3022 2209 3506 
Q 2097 3866 1919 4016 
Q 1791 4119 1609 4119 
Q 1397 4119 1231 3928 
Q 1006 3669 925 3112 
Q 844 2556 844 2016 
z
" transform="scale(0.015625)"/>
       </defs>
       <use xlink:href="#TimesNewRomanPSMT-30"/>
      </g>
     </g>
    </g>
    <g id="xtick_2">
     <g id="line2d_2">
      <path d="M 93.144248 384.9 
L 93.144248 10.8 
" clip-path="url(#pc751feac86)" style="fill: none; stroke: #cccccc; stroke-linecap: round"/>
     </g>
     <g id="text_2">
      <!-- 5 -->
      <g style="fill: #262626" transform="translate(89.394248 398.815625) scale(0.15 -0.15)">
       <defs>
        <path id="TimesNewRomanPSMT-35" d="M 2778 4238 
L 2534 3706 
L 1259 3706 
L 981 3138 
Q 1809 3016 2294 2522 
Q 2709 2097 2709 1522 
Q 2709 1188 2573 903 
Q 2438 619 2231 419 
Q 2025 219 1772 97 
Q 1413 -75 1034 -75 
Q 653 -75 479 54 
Q 306 184 306 341 
Q 306 428 378 495 
Q 450 563 559 563 
Q 641 563 702 538 
Q 763 513 909 409 
Q 1144 247 1384 247 
Q 1750 247 2026 523 
Q 2303 800 2303 1197 
Q 2303 1581 2056 1914 
Q 1809 2247 1375 2428 
Q 1034 2569 447 2591 
L 1259 4238 
L 2778 4238 
z
" transform="scale(0.015625)"/>
       </defs>
       <use xlink:href="#TimesNewRomanPSMT-35"/>
      </g>
     </g>
    </g>
    <g id="xtick_3">
     <g id="line2d_3">
      <path d="M 134.868497 384.9 
L 134.868497 10.8 
" clip-path="url(#pc751feac86)" style="fill: none; stroke: #cccccc; stroke-linecap: round"/>
     </g>
     <g id="text_3">
      <!-- 10 -->
      <g style="fill: #262626" transform="translate(127.368497 398.815625) scale(0.15 -0.15)">
       <defs>
        <path id="TimesNewRomanPSMT-31" d="M 750 3822 
L 1781 4325 
L 1884 4325 
L 1884 747 
Q 1884 391 1914 303 
Q 1944 216 2037 169 
Q 2131 122 2419 116 
L 2419 0 
L 825 0 
L 825 116 
Q 1125 122 1212 167 
Q 1300 213 1334 289 
Q 1369 366 1369 747 
L 1369 3034 
Q 1369 3497 1338 3628 
Q 1316 3728 1258 3775 
Q 1200 3822 1119 3822 
Q 1003 3822 797 3725 
L 750 3822 
z
" transform="scale(0.015625)"/>
       </defs>
       <use xlink:href="#TimesNewRomanPSMT-31"/>
       <use xlink:href="#TimesNewRomanPSMT-30" x="50"/>
      </g>
     </g>
    </g>
    <g id="xtick_4">
     <g id="line2d_4">
      <path d="M 176.592745 384.9 
L 176.592745 10.8 
" clip-path="url(#pc751feac86)" style="fill: none; stroke: #cccccc; stroke-linecap: round"/>
     </g>
     <g id="text_4">
      <!-- 15 -->
      <g style="fill: #262626" transform="translate(169.092745 398.815625) scale(0.15 -0.15)">
       <use xlink:href="#TimesNewRomanPSMT-31"/>
       <use xlink:href="#TimesNewRomanPSMT-35" x="50"/>
      </g>
     </g>
    </g>
    <g id="xtick_5">
     <g id="line2d_5">
      <path d="M 218.316994 384.9 
L 218.316994 10.8 
" clip-path="url(#pc751feac86)" style="fill: none; stroke: #cccccc; stroke-linecap: round"/>
     </g>
     <g id="text_5">
      <!-- 20 -->
      <g style="fill: #262626" transform="translate(210.816994 398.815625) scale(0.15 -0.15)">
       <defs>
        <path id="TimesNewRomanPSMT-32" d="M 2934 816 
L 2638 0 
L 138 0 
L 138 116 
Q 1241 1122 1691 1759 
Q 2141 2397 2141 2925 
Q 2141 3328 1894 3587 
Q 1647 3847 1303 3847 
Q 991 3847 742 3664 
Q 494 3481 375 3128 
L 259 3128 
Q 338 3706 661 4015 
Q 984 4325 1469 4325 
Q 1984 4325 2329 3994 
Q 2675 3663 2675 3213 
Q 2675 2891 2525 2569 
Q 2294 2063 1775 1497 
Q 997 647 803 472 
L 1909 472 
Q 2247 472 2383 497 
Q 2519 522 2628 598 
Q 2738 675 2819 816 
L 2934 816 
z
" transform="scale(0.015625)"/>
       </defs>
       <use xlink:href="#TimesNewRomanPSMT-32"/>
       <use xlink:href="#TimesNewRomanPSMT-30" x="50"/>
      </g>
     </g>
    </g>
    <g id="xtick_6">
     <g id="line2d_6">
      <path d="M 260.041242 384.9 
L 260.041242 10.8 
" clip-path="url(#pc751feac86)" style="fill: none; stroke: #cccccc; stroke-linecap: round"/>
     </g>
     <g id="text_6">
      <!-- 25 -->
      <g style="fill: #262626" transform="translate(252.541242 398.815625) scale(0.15 -0.15)">
       <use xlink:href="#TimesNewRomanPSMT-32"/>
       <use xlink:href="#TimesNewRomanPSMT-35" x="50"/>
      </g>
     </g>
    </g>
    <g id="xtick_7">
     <g id="line2d_7">
      <path d="M 301.76549 384.9 
L 301.76549 10.8 
" clip-path="url(#pc751feac86)" style="fill: none; stroke: #cccccc; stroke-linecap: round"/>
     </g>
     <g id="text_7">
      <!-- 30 -->
      <g style="fill: #262626" transform="translate(294.26549 398.815625) scale(0.15 -0.15)">
       <defs>
        <path id="TimesNewRomanPSMT-33" d="M 325 3431 
Q 506 3859 782 4092 
Q 1059 4325 1472 4325 
Q 1981 4325 2253 3994 
Q 2459 3747 2459 3466 
Q 2459 3003 1878 2509 
Q 2269 2356 2469 2072 
Q 2669 1788 2669 1403 
Q 2669 853 2319 450 
Q 1863 -75 997 -75 
Q 569 -75 414 31 
Q 259 138 259 259 
Q 259 350 332 419 
Q 406 488 509 488 
Q 588 488 669 463 
Q 722 447 909 348 
Q 1097 250 1169 231 
Q 1284 197 1416 197 
Q 1734 197 1970 444 
Q 2206 691 2206 1028 
Q 2206 1275 2097 1509 
Q 2016 1684 1919 1775 
Q 1784 1900 1550 2001 
Q 1316 2103 1072 2103 
L 972 2103 
L 972 2197 
Q 1219 2228 1467 2375 
Q 1716 2522 1828 2728 
Q 1941 2934 1941 3181 
Q 1941 3503 1739 3701 
Q 1538 3900 1238 3900 
Q 753 3900 428 3381 
L 325 3431 
z
" transform="scale(0.015625)"/>
       </defs>
       <use xlink:href="#TimesNewRomanPSMT-33"/>
       <use xlink:href="#TimesNewRomanPSMT-30" x="50"/>
      </g>
     </g>
    </g>
    <g id="xtick_8">
     <g id="line2d_8">
      <path d="M 343.489739 384.9 
L 343.489739 10.8 
" clip-path="url(#pc751feac86)" style="fill: none; stroke: #cccccc; stroke-linecap: round"/>
     </g>
     <g id="text_8">
      <!-- 35 -->
      <g style="fill: #262626" transform="translate(335.989739 398.815625) scale(0.15 -0.15)">
       <use xlink:href="#TimesNewRomanPSMT-33"/>
       <use xlink:href="#TimesNewRomanPSMT-35" x="50"/>
      </g>
     </g>
    </g>
    <g id="xtick_9">
     <g id="line2d_9">
      <path d="M 385.213987 384.9 
L 385.213987 10.8 
" clip-path="url(#pc751feac86)" style="fill: none; stroke: #cccccc; stroke-linecap: round"/>
     </g>
     <g id="text_9">
      <!-- 40 -->
      <g style="fill: #262626" transform="translate(377.713987 398.815625) scale(0.15 -0.15)">
       <defs>
        <path id="TimesNewRomanPSMT-34" d="M 2978 1563 
L 2978 1119 
L 2409 1119 
L 2409 0 
L 1894 0 
L 1894 1119 
L 100 1119 
L 100 1519 
L 2066 4325 
L 2409 4325 
L 2409 1563 
L 2978 1563 
z
M 1894 1563 
L 1894 3666 
L 406 1563 
L 1894 1563 
z
" transform="scale(0.015625)"/>
       </defs>
       <use xlink:href="#TimesNewRomanPSMT-34"/>
       <use xlink:href="#TimesNewRomanPSMT-30" x="50"/>
      </g>
     </g>
    </g>
    <g id="xtick_10">
     <g id="line2d_10">
      <path d="M 426.938236 384.9 
L 426.938236 10.8 
" clip-path="url(#pc751feac86)" style="fill: none; stroke: #cccccc; stroke-linecap: round"/>
     </g>
     <g id="text_10">
      <!-- 45 -->
      <g style="fill: #262626" transform="translate(419.438236 398.815625) scale(0.15 -0.15)">
       <use xlink:href="#TimesNewRomanPSMT-34"/>
       <use xlink:href="#TimesNewRomanPSMT-35" x="50"/>
      </g>
     </g>
    </g>
    <g id="xtick_11">
     <g id="line2d_11">
      <path d="M 468.662484 384.9 
L 468.662484 10.8 
" clip-path="url(#pc751feac86)" style="fill: none; stroke: #cccccc; stroke-linecap: round"/>
     </g>
     <g id="text_11">
      <!-- 50 -->
      <g style="fill: #262626" transform="translate(461.162484 398.815625) scale(0.15 -0.15)">
       <use xlink:href="#TimesNewRomanPSMT-35"/>
       <use xlink:href="#TimesNewRomanPSMT-30" x="50"/>
      </g>
     </g>
    </g>
    <g id="text_12">
     <!-- Number of variables -->
     <g style="fill: #262626" transform="translate(198.39593 416.439844) scale(0.15 -0.15)">
      <defs>
       <path id="TimesNewRomanPSMT-4e" d="M -84 4238 
L 1066 4238 
L 3656 1059 
L 3656 3503 
Q 3656 3894 3569 3991 
Q 3453 4122 3203 4122 
L 3056 4122 
L 3056 4238 
L 4531 4238 
L 4531 4122 
L 4381 4122 
Q 4113 4122 4000 3959 
Q 3931 3859 3931 3503 
L 3931 -69 
L 3819 -69 
L 1025 3344 
L 1025 734 
Q 1025 344 1109 247 
Q 1228 116 1475 116 
L 1625 116 
L 1625 0 
L 150 0 
L 150 116 
L 297 116 
Q 569 116 681 278 
Q 750 378 750 734 
L 750 3681 
Q 566 3897 470 3965 
Q 375 4034 191 4094 
Q 100 4122 -84 4122 
L -84 4238 
z
" transform="scale(0.015625)"/>
       <path id="TimesNewRomanPSMT-75" d="M 2709 2863 
L 2709 1128 
Q 2709 631 2732 520 
Q 2756 409 2807 365 
Q 2859 322 2928 322 
Q 3025 322 3147 375 
L 3191 266 
L 2334 -88 
L 2194 -88 
L 2194 519 
Q 1825 119 1631 15 
Q 1438 -88 1222 -88 
Q 981 -88 804 51 
Q 628 191 559 409 
Q 491 628 491 1028 
L 491 2306 
Q 491 2509 447 2587 
Q 403 2666 317 2708 
Q 231 2750 6 2747 
L 6 2863 
L 1009 2863 
L 1009 947 
Q 1009 547 1148 422 
Q 1288 297 1484 297 
Q 1619 297 1789 381 
Q 1959 466 2194 703 
L 2194 2325 
Q 2194 2569 2105 2655 
Q 2016 2741 1734 2747 
L 1734 2863 
L 2709 2863 
z
" transform="scale(0.015625)"/>
       <path id="TimesNewRomanPSMT-6d" d="M 1050 2338 
Q 1363 2650 1419 2697 
Q 1559 2816 1721 2881 
Q 1884 2947 2044 2947 
Q 2313 2947 2506 2790 
Q 2700 2634 2766 2338 
Q 3088 2713 3309 2830 
Q 3531 2947 3766 2947 
Q 3994 2947 4170 2830 
Q 4347 2713 4450 2447 
Q 4519 2266 4519 1878 
L 4519 647 
Q 4519 378 4559 278 
Q 4591 209 4675 161 
Q 4759 113 4950 113 
L 4950 0 
L 3538 0 
L 3538 113 
L 3597 113 
Q 3781 113 3884 184 
Q 3956 234 3988 344 
Q 4000 397 4000 647 
L 4000 1878 
Q 4000 2228 3916 2372 
Q 3794 2572 3525 2572 
Q 3359 2572 3192 2489 
Q 3025 2406 2788 2181 
L 2781 2147 
L 2788 2013 
L 2788 647 
Q 2788 353 2820 281 
Q 2853 209 2943 161 
Q 3034 113 3253 113 
L 3253 0 
L 1806 0 
L 1806 113 
Q 2044 113 2133 169 
Q 2222 225 2256 338 
Q 2272 391 2272 647 
L 2272 1878 
Q 2272 2228 2169 2381 
Q 2031 2581 1784 2581 
Q 1616 2581 1450 2491 
Q 1191 2353 1050 2181 
L 1050 647 
Q 1050 366 1089 281 
Q 1128 197 1204 155 
Q 1281 113 1516 113 
L 1516 0 
L 100 0 
L 100 113 
Q 297 113 375 155 
Q 453 197 493 289 
Q 534 381 534 647 
L 534 1741 
Q 534 2213 506 2350 
Q 484 2453 437 2492 
Q 391 2531 309 2531 
Q 222 2531 100 2484 
L 53 2597 
L 916 2947 
L 1050 2947 
L 1050 2338 
z
" transform="scale(0.015625)"/>
       <path id="TimesNewRomanPSMT-62" d="M 984 2369 
Q 1400 2947 1881 2947 
Q 2322 2947 2650 2570 
Q 2978 2194 2978 1541 
Q 2978 778 2472 313 
Q 2038 -88 1503 -88 
Q 1253 -88 995 3 
Q 738 94 469 275 
L 469 3241 
Q 469 3728 445 3840 
Q 422 3953 372 3993 
Q 322 4034 247 4034 
Q 159 4034 28 3984 
L -16 4094 
L 844 4444 
L 984 4444 
L 984 2369 
z
M 984 2169 
L 984 456 
Q 1144 300 1314 220 
Q 1484 141 1663 141 
Q 1947 141 2192 453 
Q 2438 766 2438 1363 
Q 2438 1913 2192 2208 
Q 1947 2503 1634 2503 
Q 1469 2503 1303 2419 
Q 1178 2356 984 2169 
z
" transform="scale(0.015625)"/>
       <path id="TimesNewRomanPSMT-65" d="M 681 1784 
Q 678 1147 991 784 
Q 1303 422 1725 422 
Q 2006 422 2214 576 
Q 2422 731 2563 1106 
L 2659 1044 
Q 2594 616 2278 264 
Q 1963 -88 1488 -88 
Q 972 -88 605 314 
Q 238 716 238 1394 
Q 238 2128 614 2539 
Q 991 2950 1559 2950 
Q 2041 2950 2350 2633 
Q 2659 2316 2659 1784 
L 681 1784 
z
M 681 1966 
L 2006 1966 
Q 1991 2241 1941 2353 
Q 1863 2528 1708 2628 
Q 1553 2728 1384 2728 
Q 1125 2728 920 2526 
Q 716 2325 681 1966 
z
" transform="scale(0.015625)"/>
       <path id="TimesNewRomanPSMT-72" d="M 1038 2947 
L 1038 2303 
Q 1397 2947 1775 2947 
Q 1947 2947 2059 2842 
Q 2172 2738 2172 2600 
Q 2172 2478 2090 2393 
Q 2009 2309 1897 2309 
Q 1788 2309 1652 2417 
Q 1516 2525 1450 2525 
Q 1394 2525 1328 2463 
Q 1188 2334 1038 2041 
L 1038 669 
Q 1038 431 1097 309 
Q 1138 225 1241 169 
Q 1344 113 1538 113 
L 1538 0 
L 72 0 
L 72 113 
Q 291 113 397 181 
Q 475 231 506 341 
Q 522 394 522 644 
L 522 1753 
Q 522 2253 501 2348 
Q 481 2444 426 2487 
Q 372 2531 291 2531 
Q 194 2531 72 2484 
L 41 2597 
L 906 2947 
L 1038 2947 
z
" transform="scale(0.015625)"/>
       <path id="TimesNewRomanPSMT-20" transform="scale(0.015625)"/>
       <path id="TimesNewRomanPSMT-6f" d="M 1600 2947 
Q 2250 2947 2644 2453 
Q 2978 2031 2978 1484 
Q 2978 1100 2793 706 
Q 2609 313 2286 112 
Q 1963 -88 1566 -88 
Q 919 -88 538 428 
Q 216 863 216 1403 
Q 216 1797 411 2186 
Q 606 2575 925 2761 
Q 1244 2947 1600 2947 
z
M 1503 2744 
Q 1338 2744 1170 2645 
Q 1003 2547 900 2300 
Q 797 2053 797 1666 
Q 797 1041 1045 587 
Q 1294 134 1700 134 
Q 2003 134 2200 384 
Q 2397 634 2397 1244 
Q 2397 2006 2069 2444 
Q 1847 2744 1503 2744 
z
" transform="scale(0.015625)"/>
       <path id="TimesNewRomanPSMT-66" d="M 1319 2638 
L 1319 756 
Q 1319 356 1406 250 
Q 1522 113 1716 113 
L 1975 113 
L 1975 0 
L 266 0 
L 266 113 
L 394 113 
Q 519 113 622 175 
Q 725 238 764 344 
Q 803 450 803 756 
L 803 2638 
L 247 2638 
L 247 2863 
L 803 2863 
L 803 3050 
Q 803 3478 940 3775 
Q 1078 4072 1361 4255 
Q 1644 4438 1997 4438 
Q 2325 4438 2600 4225 
Q 2781 4084 2781 3909 
Q 2781 3816 2700 3733 
Q 2619 3650 2525 3650 
Q 2453 3650 2373 3701 
Q 2294 3753 2178 3923 
Q 2063 4094 1966 4153 
Q 1869 4213 1750 4213 
Q 1606 4213 1506 4136 
Q 1406 4059 1362 3898 
Q 1319 3738 1319 3069 
L 1319 2863 
L 2056 2863 
L 2056 2638 
L 1319 2638 
z
" transform="scale(0.015625)"/>
       <path id="TimesNewRomanPSMT-76" d="M 53 2863 
L 1400 2863 
L 1400 2747 
L 1313 2747 
Q 1191 2747 1127 2687 
Q 1063 2628 1063 2528 
Q 1063 2419 1128 2269 
L 1794 688 
L 2463 2328 
Q 2534 2503 2534 2594 
Q 2534 2638 2509 2666 
Q 2475 2713 2422 2730 
Q 2369 2747 2206 2747 
L 2206 2863 
L 3141 2863 
L 3141 2747 
Q 2978 2734 2916 2681 
Q 2806 2588 2719 2369 
L 1703 -88 
L 1575 -88 
L 553 2328 
Q 484 2497 421 2570 
Q 359 2644 263 2694 
Q 209 2722 53 2747 
L 53 2863 
z
" transform="scale(0.015625)"/>
       <path id="TimesNewRomanPSMT-61" d="M 1822 413 
Q 1381 72 1269 19 
Q 1100 -59 909 -59 
Q 613 -59 420 144 
Q 228 347 228 678 
Q 228 888 322 1041 
Q 450 1253 767 1440 
Q 1084 1628 1822 1897 
L 1822 2009 
Q 1822 2438 1686 2597 
Q 1550 2756 1291 2756 
Q 1094 2756 978 2650 
Q 859 2544 859 2406 
L 866 2225 
Q 866 2081 792 2003 
Q 719 1925 600 1925 
Q 484 1925 411 2006 
Q 338 2088 338 2228 
Q 338 2497 613 2722 
Q 888 2947 1384 2947 
Q 1766 2947 2009 2819 
Q 2194 2722 2281 2516 
Q 2338 2381 2338 1966 
L 2338 994 
Q 2338 584 2353 492 
Q 2369 400 2405 369 
Q 2441 338 2488 338 
Q 2538 338 2575 359 
Q 2641 400 2828 588 
L 2828 413 
Q 2478 -56 2159 -56 
Q 2006 -56 1915 50 
Q 1825 156 1822 413 
z
M 1822 616 
L 1822 1706 
Q 1350 1519 1213 1441 
Q 966 1303 859 1153 
Q 753 1003 753 825 
Q 753 600 887 451 
Q 1022 303 1197 303 
Q 1434 303 1822 616 
z
" transform="scale(0.015625)"/>
       <path id="TimesNewRomanPSMT-69" d="M 928 4444 
Q 1059 4444 1151 4351 
Q 1244 4259 1244 4128 
Q 1244 3997 1151 3903 
Q 1059 3809 928 3809 
Q 797 3809 703 3903 
Q 609 3997 609 4128 
Q 609 4259 701 4351 
Q 794 4444 928 4444 
z
M 1188 2947 
L 1188 647 
Q 1188 378 1227 289 
Q 1266 200 1342 156 
Q 1419 113 1622 113 
L 1622 0 
L 231 0 
L 231 113 
Q 441 113 512 153 
Q 584 194 626 287 
Q 669 381 669 647 
L 669 1750 
Q 669 2216 641 2353 
Q 619 2453 572 2492 
Q 525 2531 444 2531 
Q 356 2531 231 2484 
L 188 2597 
L 1050 2947 
L 1188 2947 
z
" transform="scale(0.015625)"/>
       <path id="TimesNewRomanPSMT-6c" d="M 1184 4444 
L 1184 647 
Q 1184 378 1223 290 
Q 1263 203 1344 158 
Q 1425 113 1647 113 
L 1647 0 
L 244 0 
L 244 113 
Q 441 113 512 153 
Q 584 194 625 287 
Q 666 381 666 647 
L 666 3247 
Q 666 3731 644 3842 
Q 622 3953 573 3993 
Q 525 4034 450 4034 
Q 369 4034 244 3984 
L 191 4094 
L 1044 4444 
L 1184 4444 
z
" transform="scale(0.015625)"/>
       <path id="TimesNewRomanPSMT-73" d="M 2050 2947 
L 2050 1972 
L 1947 1972 
Q 1828 2431 1642 2597 
Q 1456 2763 1169 2763 
Q 950 2763 815 2647 
Q 681 2531 681 2391 
Q 681 2216 781 2091 
Q 878 1963 1175 1819 
L 1631 1597 
Q 2266 1288 2266 781 
Q 2266 391 1970 151 
Q 1675 -88 1309 -88 
Q 1047 -88 709 6 
Q 606 38 541 38 
Q 469 38 428 -44 
L 325 -44 
L 325 978 
L 428 978 
Q 516 541 762 319 
Q 1009 97 1316 97 
Q 1531 97 1667 223 
Q 1803 350 1803 528 
Q 1803 744 1651 891 
Q 1500 1038 1047 1263 
Q 594 1488 453 1669 
Q 313 1847 313 2119 
Q 313 2472 555 2709 
Q 797 2947 1181 2947 
Q 1350 2947 1591 2875 
Q 1750 2828 1803 2828 
Q 1853 2828 1881 2850 
Q 1909 2872 1947 2947 
L 2050 2947 
z
" transform="scale(0.015625)"/>
      </defs>
      <use xlink:href="#TimesNewRomanPSMT-4e"/>
      <use xlink:href="#TimesNewRomanPSMT-75" x="72.216797"/>
      <use xlink:href="#TimesNewRomanPSMT-6d" x="122.216797"/>
      <use xlink:href="#TimesNewRomanPSMT-62" x="200"/>
      <use xlink:href="#TimesNewRomanPSMT-65" x="250"/>
      <use xlink:href="#TimesNewRomanPSMT-72" x="294.384766"/>
      <use xlink:href="#TimesNewRomanPSMT-20" x="327.685547"/>
      <use xlink:href="#TimesNewRomanPSMT-6f" x="352.685547"/>
      <use xlink:href="#TimesNewRomanPSMT-66" x="402.685547"/>
      <use xlink:href="#TimesNewRomanPSMT-20" x="435.986328"/>
      <use xlink:href="#TimesNewRomanPSMT-76" x="460.986328"/>
      <use xlink:href="#TimesNewRomanPSMT-61" x="510.986328"/>
      <use xlink:href="#TimesNewRomanPSMT-72" x="555.371094"/>
      <use xlink:href="#TimesNewRomanPSMT-69" x="588.671875"/>
      <use xlink:href="#TimesNewRomanPSMT-61" x="616.455078"/>
      <use xlink:href="#TimesNewRomanPSMT-62" x="660.839844"/>
      <use xlink:href="#TimesNewRomanPSMT-6c" x="710.839844"/>
      <use xlink:href="#TimesNewRomanPSMT-65" x="738.623047"/>
      <use xlink:href="#TimesNewRomanPSMT-73" x="783.007812"/>
     </g>
    </g>
   </g>
   <g id="matplotlib.axis_2">
    <g id="ytick_1">
     <g id="line2d_12">
      <path d="M 51.42 384.9 
L 468.662484 384.9 
" clip-path="url(#pc751feac86)" style="fill: none; stroke: #cccccc; stroke-linecap: round"/>
     </g>
     <g id="line2d_13">
      <defs>
       <path id="mc5931cc81b" d="M 0 0 
L 6 0 
" style="stroke: #262626; stroke-width: 1.25"/>
      </defs>
      <g>
       <use xlink:href="#mc5931cc81b" x="51.42" y="384.9" style="fill: #262626; stroke: #262626; stroke-width: 1.25"/>
      </g>
     </g>
     <g id="text_13">
      <!-- 0.0 -->
      <g style="fill: #262626" transform="translate(29.17 390.107812) scale(0.15 -0.15)">
       <defs>
        <path id="TimesNewRomanPSMT-2e" d="M 800 606 
Q 947 606 1047 504 
Q 1147 403 1147 259 
Q 1147 116 1045 14 
Q 944 -88 800 -88 
Q 656 -88 554 14 
Q 453 116 453 259 
Q 453 406 554 506 
Q 656 606 800 606 
z
" transform="scale(0.015625)"/>
       </defs>
       <use xlink:href="#TimesNewRomanPSMT-30"/>
       <use xlink:href="#TimesNewRomanPSMT-2e" x="50"/>
       <use xlink:href="#TimesNewRomanPSMT-30" x="75"/>
      </g>
     </g>
    </g>
    <g id="ytick_2">
     <g id="line2d_14">
      <path d="M 51.42 313.642857 
L 468.662484 313.642857 
" clip-path="url(#pc751feac86)" style="fill: none; stroke: #cccccc; stroke-linecap: round"/>
     </g>
     <g id="line2d_15">
      <g>
       <use xlink:href="#mc5931cc81b" x="51.42" y="313.642857" style="fill: #262626; stroke: #262626; stroke-width: 1.25"/>
      </g>
     </g>
     <g id="text_14">
      <!-- 0.2 -->
      <g style="fill: #262626" transform="translate(29.17 318.85067) scale(0.15 -0.15)">
       <use xlink:href="#TimesNewRomanPSMT-30"/>
       <use xlink:href="#TimesNewRomanPSMT-2e" x="50"/>
       <use xlink:href="#TimesNewRomanPSMT-32" x="75"/>
      </g>
     </g>
    </g>
    <g id="ytick_3">
     <g id="line2d_16">
      <path d="M 51.42 242.385714 
L 468.662484 242.385714 
" clip-path="url(#pc751feac86)" style="fill: none; stroke: #cccccc; stroke-linecap: round"/>
     </g>
     <g id="line2d_17">
      <g>
       <use xlink:href="#mc5931cc81b" x="51.42" y="242.385714" style="fill: #262626; stroke: #262626; stroke-width: 1.25"/>
      </g>
     </g>
     <g id="text_15">
      <!-- 0.4 -->
      <g style="fill: #262626" transform="translate(29.17 247.593527) scale(0.15 -0.15)">
       <use xlink:href="#TimesNewRomanPSMT-30"/>
       <use xlink:href="#TimesNewRomanPSMT-2e" x="50"/>
       <use xlink:href="#TimesNewRomanPSMT-34" x="75"/>
      </g>
     </g>
    </g>
    <g id="ytick_4">
     <g id="line2d_18">
      <path d="M 51.42 171.128571 
L 468.662484 171.128571 
" clip-path="url(#pc751feac86)" style="fill: none; stroke: #cccccc; stroke-linecap: round"/>
     </g>
     <g id="line2d_19">
      <g>
       <use xlink:href="#mc5931cc81b" x="51.42" y="171.128571" style="fill: #262626; stroke: #262626; stroke-width: 1.25"/>
      </g>
     </g>
     <g id="text_16">
      <!-- 0.6 -->
      <g style="fill: #262626" transform="translate(29.17 176.336384) scale(0.15 -0.15)">
       <defs>
        <path id="TimesNewRomanPSMT-36" d="M 2869 4325 
L 2869 4209 
Q 2456 4169 2195 4045 
Q 1934 3922 1679 3669 
Q 1425 3416 1258 3105 
Q 1091 2794 978 2366 
Q 1428 2675 1881 2675 
Q 2316 2675 2634 2325 
Q 2953 1975 2953 1425 
Q 2953 894 2631 456 
Q 2244 -75 1606 -75 
Q 1172 -75 869 213 
Q 275 772 275 1663 
Q 275 2231 503 2743 
Q 731 3256 1154 3653 
Q 1578 4050 1965 4187 
Q 2353 4325 2688 4325 
L 2869 4325 
z
M 925 2138 
Q 869 1716 869 1456 
Q 869 1156 980 804 
Q 1091 453 1309 247 
Q 1469 100 1697 100 
Q 1969 100 2183 356 
Q 2397 613 2397 1088 
Q 2397 1622 2184 2012 
Q 1972 2403 1581 2403 
Q 1463 2403 1327 2353 
Q 1191 2303 925 2138 
z
" transform="scale(0.015625)"/>
       </defs>
       <use xlink:href="#TimesNewRomanPSMT-30"/>
       <use xlink:href="#TimesNewRomanPSMT-2e" x="50"/>
       <use xlink:href="#TimesNewRomanPSMT-36" x="75"/>
      </g>
     </g>
    </g>
    <g id="ytick_5">
     <g id="line2d_20">
      <path d="M 51.42 99.871429 
L 468.662484 99.871429 
" clip-path="url(#pc751feac86)" style="fill: none; stroke: #cccccc; stroke-linecap: round"/>
     </g>
     <g id="line2d_21">
      <g>
       <use xlink:href="#mc5931cc81b" x="51.42" y="99.871429" style="fill: #262626; stroke: #262626; stroke-width: 1.25"/>
      </g>
     </g>
     <g id="text_17">
      <!-- 0.8 -->
      <g style="fill: #262626" transform="translate(29.17 105.079241) scale(0.15 -0.15)">
       <defs>
        <path id="TimesNewRomanPSMT-38" d="M 1228 2134 
Q 725 2547 579 2797 
Q 434 3047 434 3316 
Q 434 3728 753 4026 
Q 1072 4325 1600 4325 
Q 2113 4325 2425 4047 
Q 2738 3769 2738 3413 
Q 2738 3175 2569 2928 
Q 2400 2681 1866 2347 
Q 2416 1922 2594 1678 
Q 2831 1359 2831 1006 
Q 2831 559 2490 242 
Q 2150 -75 1597 -75 
Q 994 -75 656 303 
Q 388 606 388 966 
Q 388 1247 577 1523 
Q 766 1800 1228 2134 
z
M 1719 2469 
Q 2094 2806 2194 3001 
Q 2294 3197 2294 3444 
Q 2294 3772 2109 3958 
Q 1925 4144 1606 4144 
Q 1288 4144 1088 3959 
Q 888 3775 888 3528 
Q 888 3366 970 3203 
Q 1053 3041 1206 2894 
L 1719 2469 
z
M 1375 2016 
Q 1116 1797 991 1539 
Q 866 1281 866 981 
Q 866 578 1086 336 
Q 1306 94 1647 94 
Q 1984 94 2187 284 
Q 2391 475 2391 747 
Q 2391 972 2272 1150 
Q 2050 1481 1375 2016 
z
" transform="scale(0.015625)"/>
       </defs>
       <use xlink:href="#TimesNewRomanPSMT-30"/>
       <use xlink:href="#TimesNewRomanPSMT-2e" x="50"/>
       <use xlink:href="#TimesNewRomanPSMT-38" x="75"/>
      </g>
     </g>
    </g>
    <g id="ytick_6">
     <g id="line2d_22">
      <path d="M 51.42 28.614286 
L 468.662484 28.614286 
" clip-path="url(#pc751feac86)" style="fill: none; stroke: #cccccc; stroke-linecap: round"/>
     </g>
     <g id="line2d_23">
      <g>
       <use xlink:href="#mc5931cc81b" x="51.42" y="28.614286" style="fill: #262626; stroke: #262626; stroke-width: 1.25"/>
      </g>
     </g>
     <g id="text_18">
      <!-- 1.0 -->
      <g style="fill: #262626" transform="translate(29.17 33.822098) scale(0.15 -0.15)">
       <use xlink:href="#TimesNewRomanPSMT-31"/>
       <use xlink:href="#TimesNewRomanPSMT-2e" x="50"/>
       <use xlink:href="#TimesNewRomanPSMT-30" x="75"/>
      </g>
     </g>
    </g>
    <g id="text_19">
     <!-- Accuracy -->
     <g style="fill: #262626" transform="translate(21.933281 226.580859) rotate(-90) scale(0.15 -0.15)">
      <defs>
       <path id="TimesNewRomanPSMT-41" d="M 2928 1419 
L 1288 1419 
L 1000 750 
Q 894 503 894 381 
Q 894 284 986 211 
Q 1078 138 1384 116 
L 1384 0 
L 50 0 
L 50 116 
Q 316 163 394 238 
Q 553 388 747 847 
L 2238 4334 
L 2347 4334 
L 3822 809 
Q 4000 384 4145 257 
Q 4291 131 4550 116 
L 4550 0 
L 2878 0 
L 2878 116 
Q 3131 128 3220 200 
Q 3309 272 3309 375 
Q 3309 513 3184 809 
L 2928 1419 
z
M 2841 1650 
L 2122 3363 
L 1384 1650 
L 2841 1650 
z
" transform="scale(0.015625)"/>
       <path id="TimesNewRomanPSMT-63" d="M 2631 1088 
Q 2516 522 2178 217 
Q 1841 -88 1431 -88 
Q 944 -88 581 321 
Q 219 731 219 1428 
Q 219 2103 620 2525 
Q 1022 2947 1584 2947 
Q 2006 2947 2278 2723 
Q 2550 2500 2550 2259 
Q 2550 2141 2473 2067 
Q 2397 1994 2259 1994 
Q 2075 1994 1981 2113 
Q 1928 2178 1911 2362 
Q 1894 2547 1784 2644 
Q 1675 2738 1481 2738 
Q 1169 2738 978 2506 
Q 725 2200 725 1697 
Q 725 1184 976 792 
Q 1228 400 1656 400 
Q 1963 400 2206 609 
Q 2378 753 2541 1131 
L 2631 1088 
z
" transform="scale(0.015625)"/>
       <path id="TimesNewRomanPSMT-79" d="M 38 2863 
L 1372 2863 
L 1372 2747 
L 1306 2747 
Q 1166 2747 1095 2686 
Q 1025 2625 1025 2534 
Q 1025 2413 1128 2197 
L 1825 753 
L 2466 2334 
Q 2519 2463 2519 2588 
Q 2519 2644 2497 2672 
Q 2472 2706 2419 2726 
Q 2366 2747 2231 2747 
L 2231 2863 
L 3163 2863 
L 3163 2747 
Q 3047 2734 2984 2696 
Q 2922 2659 2847 2556 
Q 2819 2513 2741 2316 
L 1575 -541 
Q 1406 -956 1132 -1168 
Q 859 -1381 606 -1381 
Q 422 -1381 303 -1275 
Q 184 -1169 184 -1031 
Q 184 -900 270 -820 
Q 356 -741 506 -741 
Q 609 -741 788 -809 
Q 913 -856 944 -856 
Q 1038 -856 1148 -759 
Q 1259 -663 1372 -384 
L 1575 113 
L 547 2272 
Q 500 2369 397 2513 
Q 319 2622 269 2659 
Q 197 2709 38 2747 
L 38 2863 
z
" transform="scale(0.015625)"/>
      </defs>
      <use xlink:href="#TimesNewRomanPSMT-41"/>
      <use xlink:href="#TimesNewRomanPSMT-63" x="72.216797"/>
      <use xlink:href="#TimesNewRomanPSMT-63" x="116.601562"/>
      <use xlink:href="#TimesNewRomanPSMT-75" x="160.986328"/>
      <use xlink:href="#TimesNewRomanPSMT-72" x="210.986328"/>
      <use xlink:href="#TimesNewRomanPSMT-61" x="244.287109"/>
      <use xlink:href="#TimesNewRomanPSMT-63" x="288.671875"/>
      <use xlink:href="#TimesNewRomanPSMT-79" x="333.056641"/>
     </g>
    </g>
   </g>
   <g id="line2d_24">
    <path d="M 68.109699 28.614286 
L 76.454549 55.00582 
L 84.799399 58.304762 
L 93.144248 47.61619 
L 101.489098 41.810053 
L 109.833948 43.15656 
L 118.178797 58.304762 
L 126.523647 43.276249 
L 134.868497 41.678095 
L 143.213347 40.392326 
L 151.558196 32.737963 
L 159.903046 39.858016 
L 168.247896 32.249854 
L 176.592745 39.170899 
L 184.937595 36.500818 
L 193.282445 56.969204 
L 201.627294 56.838566 
L 209.972144 46.708205 
L 218.316994 41.678095 
L 226.661843 52.043505 
L 235.006693 40.14695 
L 243.351543 46.799001 
L 251.696392 46.139914 
L 260.041242 42.675695 
L 268.386092 39.155283 
L 276.730941 33.664518 
L 285.075791 37.703207 
L 293.420641 37.369622 
L 301.76549 42.601799 
L 310.11034 39.365884 
L 318.45519 36.500818 
L 326.80004 38.538375 
L 335.144889 35.086604 
L 343.489739 34.334247 
L 351.834589 33.654336 
L 360.179438 35.20735 
L 368.524288 33.384501 
L 376.869138 33.689581 
L 385.213987 34.923512 
L 393.558837 41.613804 
L 401.903687 34.000313 
L 410.248536 34.651938 
L 418.593386 34.56465 
L 426.938236 36.942281 
L 435.283085 34.226852 
L 443.627935 35.818494 
L 451.972785 36.294635 
L 460.317634 31.582097 
L 468.662484 31.417067 
" clip-path="url(#pc751feac86)" style="fill: none; stroke: #d65f5f; stroke-width: 1.5; stroke-linecap: round"/>
    <defs>
     <path id="m1513d04134" d="M 0 2.5 
C 0.663008 2.5 1.29895 2.236584 1.767767 1.767767 
C 2.236584 1.29895 2.5 0.663008 2.5 0 
C 2.5 -0.663008 2.236584 -1.29895 1.767767 -1.767767 
C 1.29895 -2.236584 0.663008 -2.5 0 -2.5 
C -0.663008 -2.5 -1.29895 -2.236584 -1.767767 -1.767767 
C -2.236584 -1.29895 -2.5 -0.663008 -2.5 0 
C -2.5 0.663008 -2.236584 1.29895 -1.767767 1.767767 
C -1.29895 2.236584 -0.663008 2.5 0 2.5 
z
" style="stroke: #d65f5f"/>
    </defs>
    <g clip-path="url(#pc751feac86)">
     <use xlink:href="#m1513d04134" x="68.109699" y="28.614286" style="fill: #ffffff; stroke: #d65f5f"/>
     <use xlink:href="#m1513d04134" x="76.454549" y="55.00582" style="fill: #ffffff; stroke: #d65f5f"/>
     <use xlink:href="#m1513d04134" x="84.799399" y="58.304762" style="fill: #ffffff; stroke: #d65f5f"/>
     <use xlink:href="#m1513d04134" x="93.144248" y="47.61619" style="fill: #ffffff; stroke: #d65f5f"/>
     <use xlink:href="#m1513d04134" x="101.489098" y="41.810053" style="fill: #ffffff; stroke: #d65f5f"/>
     <use xlink:href="#m1513d04134" x="109.833948" y="43.15656" style="fill: #ffffff; stroke: #d65f5f"/>
     <use xlink:href="#m1513d04134" x="118.178797" y="58.304762" style="fill: #ffffff; stroke: #d65f5f"/>
     <use xlink:href="#m1513d04134" x="126.523647" y="43.276249" style="fill: #ffffff; stroke: #d65f5f"/>
     <use xlink:href="#m1513d04134" x="134.868497" y="41.678095" style="fill: #ffffff; stroke: #d65f5f"/>
     <use xlink:href="#m1513d04134" x="143.213347" y="40.392326" style="fill: #ffffff; stroke: #d65f5f"/>
     <use xlink:href="#m1513d04134" x="151.558196" y="32.737963" style="fill: #ffffff; stroke: #d65f5f"/>
     <use xlink:href="#m1513d04134" x="159.903046" y="39.858016" style="fill: #ffffff; stroke: #d65f5f"/>
     <use xlink:href="#m1513d04134" x="168.247896" y="32.249854" style="fill: #ffffff; stroke: #d65f5f"/>
     <use xlink:href="#m1513d04134" x="176.592745" y="39.170899" style="fill: #ffffff; stroke: #d65f5f"/>
     <use xlink:href="#m1513d04134" x="184.937595" y="36.500818" style="fill: #ffffff; stroke: #d65f5f"/>
     <use xlink:href="#m1513d04134" x="193.282445" y="56.969204" style="fill: #ffffff; stroke: #d65f5f"/>
     <use xlink:href="#m1513d04134" x="201.627294" y="56.838566" style="fill: #ffffff; stroke: #d65f5f"/>
     <use xlink:href="#m1513d04134" x="209.972144" y="46.708205" style="fill: #ffffff; stroke: #d65f5f"/>
     <use xlink:href="#m1513d04134" x="218.316994" y="41.678095" style="fill: #ffffff; stroke: #d65f5f"/>
     <use xlink:href="#m1513d04134" x="226.661843" y="52.043505" style="fill: #ffffff; stroke: #d65f5f"/>
     <use xlink:href="#m1513d04134" x="235.006693" y="40.14695" style="fill: #ffffff; stroke: #d65f5f"/>
     <use xlink:href="#m1513d04134" x="243.351543" y="46.799001" style="fill: #ffffff; stroke: #d65f5f"/>
     <use xlink:href="#m1513d04134" x="251.696392" y="46.139914" style="fill: #ffffff; stroke: #d65f5f"/>
     <use xlink:href="#m1513d04134" x="260.041242" y="42.675695" style="fill: #ffffff; stroke: #d65f5f"/>
     <use xlink:href="#m1513d04134" x="268.386092" y="39.155283" style="fill: #ffffff; stroke: #d65f5f"/>
     <use xlink:href="#m1513d04134" x="276.730941" y="33.664518" style="fill: #ffffff; stroke: #d65f5f"/>
     <use xlink:href="#m1513d04134" x="285.075791" y="37.703207" style="fill: #ffffff; stroke: #d65f5f"/>
     <use xlink:href="#m1513d04134" x="293.420641" y="37.369622" style="fill: #ffffff; stroke: #d65f5f"/>
     <use xlink:href="#m1513d04134" x="301.76549" y="42.601799" style="fill: #ffffff; stroke: #d65f5f"/>
     <use xlink:href="#m1513d04134" x="310.11034" y="39.365884" style="fill: #ffffff; stroke: #d65f5f"/>
     <use xlink:href="#m1513d04134" x="318.45519" y="36.500818" style="fill: #ffffff; stroke: #d65f5f"/>
     <use xlink:href="#m1513d04134" x="326.80004" y="38.538375" style="fill: #ffffff; stroke: #d65f5f"/>
     <use xlink:href="#m1513d04134" x="335.144889" y="35.086604" style="fill: #ffffff; stroke: #d65f5f"/>
     <use xlink:href="#m1513d04134" x="343.489739" y="34.334247" style="fill: #ffffff; stroke: #d65f5f"/>
     <use xlink:href="#m1513d04134" x="351.834589" y="33.654336" style="fill: #ffffff; stroke: #d65f5f"/>
     <use xlink:href="#m1513d04134" x="360.179438" y="35.20735" style="fill: #ffffff; stroke: #d65f5f"/>
     <use xlink:href="#m1513d04134" x="368.524288" y="33.384501" style="fill: #ffffff; stroke: #d65f5f"/>
     <use xlink:href="#m1513d04134" x="376.869138" y="33.689581" style="fill: #ffffff; stroke: #d65f5f"/>
     <use xlink:href="#m1513d04134" x="385.213987" y="34.923512" style="fill: #ffffff; stroke: #d65f5f"/>
     <use xlink:href="#m1513d04134" x="393.558837" y="41.613804" style="fill: #ffffff; stroke: #d65f5f"/>
     <use xlink:href="#m1513d04134" x="401.903687" y="34.000313" style="fill: #ffffff; stroke: #d65f5f"/>
     <use xlink:href="#m1513d04134" x="410.248536" y="34.651938" style="fill: #ffffff; stroke: #d65f5f"/>
     <use xlink:href="#m1513d04134" x="418.593386" y="34.56465" style="fill: #ffffff; stroke: #d65f5f"/>
     <use xlink:href="#m1513d04134" x="426.938236" y="36.942281" style="fill: #ffffff; stroke: #d65f5f"/>
     <use xlink:href="#m1513d04134" x="435.283085" y="34.226852" style="fill: #ffffff; stroke: #d65f5f"/>
     <use xlink:href="#m1513d04134" x="443.627935" y="35.818494" style="fill: #ffffff; stroke: #d65f5f"/>
     <use xlink:href="#m1513d04134" x="451.972785" y="36.294635" style="fill: #ffffff; stroke: #d65f5f"/>
     <use xlink:href="#m1513d04134" x="460.317634" y="31.582097" style="fill: #ffffff; stroke: #d65f5f"/>
     <use xlink:href="#m1513d04134" x="468.662484" y="31.417067" style="fill: #ffffff; stroke: #d65f5f"/>
    </g>
   </g>
   <g id="patch_3">
    <path d="M 51.42 384.9 
L 51.42 10.8 
" style="fill: none; stroke: #cccccc; stroke-width: 1.25; stroke-linejoin: miter; stroke-linecap: square"/>
   </g>
   <g id="patch_4">
    <path d="M 468.662484 384.9 
L 468.662484 10.8 
" style="fill: none; stroke: #cccccc; stroke-width: 1.25; stroke-linejoin: miter; stroke-linecap: square"/>
   </g>
   <g id="patch_5">
    <path d="M 51.42 384.9 
L 468.662484 384.9 
" style="fill: none; stroke: #cccccc; stroke-width: 1.25; stroke-linejoin: miter; stroke-linecap: square"/>
   </g>
   <g id="patch_6">
    <path d="M 51.42 10.8 
L 468.662484 10.8 
" style="fill: none; stroke: #cccccc; stroke-width: 1.25; stroke-linejoin: miter; stroke-linecap: square"/>
   </g>
   <g id="legend_1">
    <g id="patch_7">
     <path d="M 58.42 213.498437 
L 135.602813 213.498437 
Q 137.602813 213.498437 137.602813 211.498437 
L 137.602813 184.201562 
Q 137.602813 182.201562 135.602813 182.201562 
L 58.42 182.201562 
Q 56.42 182.201562 56.42 184.201562 
L 56.42 211.498437 
Q 56.42 213.498437 58.42 213.498437 
z
" style="fill: #ffffff; opacity: 0.8; stroke: #cccccc; stroke-linejoin: miter"/>
    </g>
    <g id="line2d_25">
     <path d="M 60.42 189.701562 
L 70.42 189.701562 
L 80.42 189.701562 
" style="fill: none; stroke: #d65f5f; stroke-width: 1.5; stroke-linecap: round"/>
     <g>
      <use xlink:href="#m1513d04134" x="70.42" y="189.701562" style="fill: #ffffff; stroke: #d65f5f"/>
     </g>
    </g>
    <g id="text_20">
     <!-- Accuracy -->
     <g style="fill: #262626" transform="translate(88.42 193.201562) scale(0.1 -0.1)">
      <use xlink:href="#TimesNewRomanPSMT-41"/>
      <use xlink:href="#TimesNewRomanPSMT-63" x="72.216797"/>
      <use xlink:href="#TimesNewRomanPSMT-63" x="116.601562"/>
      <use xlink:href="#TimesNewRomanPSMT-75" x="160.986328"/>
      <use xlink:href="#TimesNewRomanPSMT-72" x="210.986328"/>
      <use xlink:href="#TimesNewRomanPSMT-61" x="244.287109"/>
      <use xlink:href="#TimesNewRomanPSMT-63" x="288.671875"/>
      <use xlink:href="#TimesNewRomanPSMT-79" x="333.056641"/>
     </g>
    </g>
    <g id="line2d_26">
     <path d="M 60.42 203.859375 
L 70.42 203.859375 
L 80.42 203.859375 
" style="fill: none; stroke: #4878d0; stroke-width: 1.5; stroke-linecap: round"/>
     <defs>
      <path id="m427d41fcf5" d="M 0 4.242641 
L 4.242641 0 
L 0 -4.242641 
L -4.242641 0 
z
" style="stroke: #4878d0; stroke-linejoin: miter"/>
     </defs>
     <g>
      <use xlink:href="#m427d41fcf5" x="70.42" y="203.859375" style="fill: #ffffff; stroke: #4878d0; stroke-linejoin: miter"/>
     </g>
    </g>
    <g id="text_21">
     <!-- Time (sec.) -->
     <g style="fill: #262626" transform="translate(88.42 207.359375) scale(0.1 -0.1)">
      <defs>
       <path id="TimesNewRomanPSMT-54" d="M 3703 4238 
L 3750 3244 
L 3631 3244 
Q 3597 3506 3538 3619 
Q 3441 3800 3280 3886 
Q 3119 3972 2856 3972 
L 2259 3972 
L 2259 734 
Q 2259 344 2344 247 
Q 2463 116 2709 116 
L 2856 116 
L 2856 0 
L 1059 0 
L 1059 116 
L 1209 116 
Q 1478 116 1591 278 
Q 1659 378 1659 734 
L 1659 3972 
L 1150 3972 
Q 853 3972 728 3928 
Q 566 3869 450 3700 
Q 334 3531 313 3244 
L 194 3244 
L 244 4238 
L 3703 4238 
z
" transform="scale(0.015625)"/>
       <path id="TimesNewRomanPSMT-28" d="M 1988 -1253 
L 1988 -1369 
Q 1516 -1131 1200 -813 
Q 750 -359 506 256 
Q 263 872 263 1534 
Q 263 2503 741 3301 
Q 1219 4100 1988 4444 
L 1988 4313 
Q 1603 4100 1356 3731 
Q 1109 3363 987 2797 
Q 866 2231 866 1616 
Q 866 947 969 400 
Q 1050 -31 1165 -292 
Q 1281 -553 1476 -793 
Q 1672 -1034 1988 -1253 
z
" transform="scale(0.015625)"/>
       <path id="TimesNewRomanPSMT-29" d="M 144 4313 
L 144 4444 
Q 619 4209 934 3891 
Q 1381 3434 1625 2820 
Q 1869 2206 1869 1541 
Q 1869 572 1392 -226 
Q 916 -1025 144 -1369 
L 144 -1253 
Q 528 -1038 776 -670 
Q 1025 -303 1145 264 
Q 1266 831 1266 1447 
Q 1266 2113 1163 2663 
Q 1084 3094 967 3353 
Q 850 3613 656 3853 
Q 463 4094 144 4313 
z
" transform="scale(0.015625)"/>
      </defs>
      <use xlink:href="#TimesNewRomanPSMT-54"/>
      <use xlink:href="#TimesNewRomanPSMT-69" x="57.583984"/>
      <use xlink:href="#TimesNewRomanPSMT-6d" x="85.367188"/>
      <use xlink:href="#TimesNewRomanPSMT-65" x="163.150391"/>
      <use xlink:href="#TimesNewRomanPSMT-20" x="207.535156"/>
      <use xlink:href="#TimesNewRomanPSMT-28" x="232.535156"/>
      <use xlink:href="#TimesNewRomanPSMT-73" x="265.835938"/>
      <use xlink:href="#TimesNewRomanPSMT-65" x="304.751953"/>
      <use xlink:href="#TimesNewRomanPSMT-63" x="349.136719"/>
      <use xlink:href="#TimesNewRomanPSMT-2e" x="393.521484"/>
      <use xlink:href="#TimesNewRomanPSMT-29" x="418.521484"/>
     </g>
    </g>
   </g>
  </g>
  <g id="axes_2">
   <g id="matplotlib.axis_3">
    <g id="ytick_7">
     <g id="line2d_27">
      <defs>
       <path id="m91b3d193cf" d="M 0 0 
L -6 0 
" style="stroke: #262626; stroke-width: 1.25"/>
      </defs>
      <g>
       <use xlink:href="#m91b3d193cf" x="468.662484" y="384.9" style="fill: #262626; stroke: #262626; stroke-width: 1.25"/>
      </g>
     </g>
     <g id="text_22">
      <!-- 0 -->
      <g style="fill: #262626" transform="translate(472.162484 390.107812) scale(0.15 -0.15)">
       <use xlink:href="#TimesNewRomanPSMT-30"/>
      </g>
     </g>
    </g>
    <g id="ytick_8">
     <g id="line2d_28">
      <g>
       <use xlink:href="#m91b3d193cf" x="468.662484" y="329.885294" style="fill: #262626; stroke: #262626; stroke-width: 1.25"/>
      </g>
     </g>
     <g id="text_23">
      <!-- 5 -->
      <g style="fill: #262626" transform="translate(472.162484 335.093107) scale(0.15 -0.15)">
       <use xlink:href="#TimesNewRomanPSMT-35"/>
      </g>
     </g>
    </g>
    <g id="ytick_9">
     <g id="line2d_29">
      <g>
       <use xlink:href="#m91b3d193cf" x="468.662484" y="274.870588" style="fill: #262626; stroke: #262626; stroke-width: 1.25"/>
      </g>
     </g>
     <g id="text_24">
      <!-- 10 -->
      <g style="fill: #262626" transform="translate(472.162484 280.078401) scale(0.15 -0.15)">
       <use xlink:href="#TimesNewRomanPSMT-31"/>
       <use xlink:href="#TimesNewRomanPSMT-30" x="50"/>
      </g>
     </g>
    </g>
    <g id="ytick_10">
     <g id="line2d_30">
      <g>
       <use xlink:href="#m91b3d193cf" x="468.662484" y="219.855882" style="fill: #262626; stroke: #262626; stroke-width: 1.25"/>
      </g>
     </g>
     <g id="text_25">
      <!-- 15 -->
      <g style="fill: #262626" transform="translate(472.162484 225.063695) scale(0.15 -0.15)">
       <use xlink:href="#TimesNewRomanPSMT-31"/>
       <use xlink:href="#TimesNewRomanPSMT-35" x="50"/>
      </g>
     </g>
    </g>
    <g id="ytick_11">
     <g id="line2d_31">
      <g>
       <use xlink:href="#m91b3d193cf" x="468.662484" y="164.841176" style="fill: #262626; stroke: #262626; stroke-width: 1.25"/>
      </g>
     </g>
     <g id="text_26">
      <!-- 20 -->
      <g style="fill: #262626" transform="translate(472.162484 170.048989) scale(0.15 -0.15)">
       <use xlink:href="#TimesNewRomanPSMT-32"/>
       <use xlink:href="#TimesNewRomanPSMT-30" x="50"/>
      </g>
     </g>
    </g>
    <g id="ytick_12">
     <g id="line2d_32">
      <g>
       <use xlink:href="#m91b3d193cf" x="468.662484" y="109.826471" style="fill: #262626; stroke: #262626; stroke-width: 1.25"/>
      </g>
     </g>
     <g id="text_27">
      <!-- 25 -->
      <g style="fill: #262626" transform="translate(472.162484 115.034283) scale(0.15 -0.15)">
       <use xlink:href="#TimesNewRomanPSMT-32"/>
       <use xlink:href="#TimesNewRomanPSMT-35" x="50"/>
      </g>
     </g>
    </g>
    <g id="ytick_13">
     <g id="line2d_33">
      <g>
       <use xlink:href="#m91b3d193cf" x="468.662484" y="54.811765" style="fill: #262626; stroke: #262626; stroke-width: 1.25"/>
      </g>
     </g>
     <g id="text_28">
      <!-- 30 -->
      <g style="fill: #262626" transform="translate(472.162484 60.019577) scale(0.15 -0.15)">
       <use xlink:href="#TimesNewRomanPSMT-33"/>
       <use xlink:href="#TimesNewRomanPSMT-30" x="50"/>
      </g>
     </g>
    </g>
    <g id="text_29">
     <!-- $X(t)$ -->
     <g style="fill: #262626" transform="translate(477.212484 208.265625) scale(0.15 -0.15)">
      <defs>
       <path id="DejaVuSans-Oblique-58" d="M 878 4666 
L 1516 4666 
L 2316 2981 
L 3763 4666 
L 4500 4666 
L 2578 2438 
L 3738 0 
L 3103 0 
L 2163 1966 
L 459 0 
L -275 0 
L 1906 2509 
L 878 4666 
z
" transform="scale(0.015625)"/>
       <path id="DejaVuSans-28" d="M 1984 4856 
Q 1566 4138 1362 3434 
Q 1159 2731 1159 2009 
Q 1159 1288 1364 580 
Q 1569 -128 1984 -844 
L 1484 -844 
Q 1016 -109 783 600 
Q 550 1309 550 2009 
Q 550 2706 781 3412 
Q 1013 4119 1484 4856 
L 1984 4856 
z
" transform="scale(0.015625)"/>
       <path id="DejaVuSans-Oblique-74" d="M 2706 3500 
L 2619 3053 
L 1472 3053 
L 1100 1153 
Q 1081 1047 1072 975 
Q 1063 903 1063 863 
Q 1063 663 1183 572 
Q 1303 481 1569 481 
L 2150 481 
L 2053 0 
L 1503 0 
Q 991 0 739 200 
Q 488 400 488 806 
Q 488 878 497 964 
Q 506 1050 525 1153 
L 897 3053 
L 409 3053 
L 500 3500 
L 978 3500 
L 1172 4494 
L 1747 4494 
L 1556 3500 
L 2706 3500 
z
" transform="scale(0.015625)"/>
       <path id="DejaVuSans-29" d="M 513 4856 
L 1013 4856 
Q 1481 4119 1714 3412 
Q 1947 2706 1947 2009 
Q 1947 1309 1714 600 
Q 1481 -109 1013 -844 
L 513 -844 
Q 928 -128 1133 580 
Q 1338 1288 1338 2009 
Q 1338 2731 1133 3434 
Q 928 4138 513 4856 
z
" transform="scale(0.015625)"/>
      </defs>
      <use xlink:href="#DejaVuSans-Oblique-58" transform="translate(0 0.125)"/>
      <use xlink:href="#DejaVuSans-28" transform="translate(68.505859 0.125)"/>
      <use xlink:href="#DejaVuSans-Oblique-74" transform="translate(107.519531 0.125)"/>
      <use xlink:href="#DejaVuSans-29" transform="translate(146.728516 0.125)"/>
     </g>
    </g>
   </g>
   <g id="line2d_34">
    <path d="M 68.109699 378.671406 
L 76.454549 375.30583 
L 84.799399 371.695805 
L 93.144248 368.145383 
L 101.489098 364.760425 
L 109.833948 361.146857 
L 118.178797 356.572896 
L 126.523647 352.325077 
L 134.868497 348.383383 
L 143.213347 343.515494 
L 151.558196 340.036161 
L 159.903046 334.890111 
L 168.247896 330.821132 
L 176.592745 325.241378 
L 184.937595 320.984817 
L 193.282445 315.608923 
L 201.627294 310.252193 
L 209.972144 304.490598 
L 218.316994 302.03314 
L 226.661843 295.786496 
L 235.006693 288.836213 
L 243.351543 282.853277 
L 251.696392 278.46604 
L 260.041242 270.660811 
L 268.386092 259.993323 
L 276.730941 243.672087 
L 285.075791 235.505787 
L 293.420641 228.981251 
L 301.76549 216.166236 
L 310.11034 207.55879 
L 318.45519 205.241507 
L 326.80004 192.106768 
L 335.144889 184.476868 
L 343.489739 169.164536 
L 351.834589 169.207083 
L 360.179438 156.692508 
L 368.524288 146.231896 
L 376.869138 137.435808 
L 385.213987 123.277643 
L 393.558837 119.09413 
L 401.903687 108.771055 
L 410.248536 90.459733 
L 418.593386 99.765496 
L 426.938236 84.904441 
L 435.283085 65.375781 
L 443.627935 62.769408 
L 451.972785 59.173656 
L 460.317634 26.716086 
L 468.662484 21.624801 
" clip-path="url(#pc751feac86)" style="fill: none; stroke: #4878d0; stroke-width: 1.5; stroke-linecap: round"/>
    <g clip-path="url(#pc751feac86)">
     <use xlink:href="#m427d41fcf5" x="68.109699" y="378.671406" style="fill: #ffffff; stroke: #4878d0; stroke-linejoin: miter"/>
     <use xlink:href="#m427d41fcf5" x="76.454549" y="375.30583" style="fill: #ffffff; stroke: #4878d0; stroke-linejoin: miter"/>
     <use xlink:href="#m427d41fcf5" x="84.799399" y="371.695805" style="fill: #ffffff; stroke: #4878d0; stroke-linejoin: miter"/>
     <use xlink:href="#m427d41fcf5" x="93.144248" y="368.145383" style="fill: #ffffff; stroke: #4878d0; stroke-linejoin: miter"/>
     <use xlink:href="#m427d41fcf5" x="101.489098" y="364.760425" style="fill: #ffffff; stroke: #4878d0; stroke-linejoin: miter"/>
     <use xlink:href="#m427d41fcf5" x="109.833948" y="361.146857" style="fill: #ffffff; stroke: #4878d0; stroke-linejoin: miter"/>
     <use xlink:href="#m427d41fcf5" x="118.178797" y="356.572896" style="fill: #ffffff; stroke: #4878d0; stroke-linejoin: miter"/>
     <use xlink:href="#m427d41fcf5" x="126.523647" y="352.325077" style="fill: #ffffff; stroke: #4878d0; stroke-linejoin: miter"/>
     <use xlink:href="#m427d41fcf5" x="134.868497" y="348.383383" style="fill: #ffffff; stroke: #4878d0; stroke-linejoin: miter"/>
     <use xlink:href="#m427d41fcf5" x="143.213347" y="343.515494" style="fill: #ffffff; stroke: #4878d0; stroke-linejoin: miter"/>
     <use xlink:href="#m427d41fcf5" x="151.558196" y="340.036161" style="fill: #ffffff; stroke: #4878d0; stroke-linejoin: miter"/>
     <use xlink:href="#m427d41fcf5" x="159.903046" y="334.890111" style="fill: #ffffff; stroke: #4878d0; stroke-linejoin: miter"/>
     <use xlink:href="#m427d41fcf5" x="168.247896" y="330.821132" style="fill: #ffffff; stroke: #4878d0; stroke-linejoin: miter"/>
     <use xlink:href="#m427d41fcf5" x="176.592745" y="325.241378" style="fill: #ffffff; stroke: #4878d0; stroke-linejoin: miter"/>
     <use xlink:href="#m427d41fcf5" x="184.937595" y="320.984817" style="fill: #ffffff; stroke: #4878d0; stroke-linejoin: miter"/>
     <use xlink:href="#m427d41fcf5" x="193.282445" y="315.608923" style="fill: #ffffff; stroke: #4878d0; stroke-linejoin: miter"/>
     <use xlink:href="#m427d41fcf5" x="201.627294" y="310.252193" style="fill: #ffffff; stroke: #4878d0; stroke-linejoin: miter"/>
     <use xlink:href="#m427d41fcf5" x="209.972144" y="304.490598" style="fill: #ffffff; stroke: #4878d0; stroke-linejoin: miter"/>
     <use xlink:href="#m427d41fcf5" x="218.316994" y="302.03314" style="fill: #ffffff; stroke: #4878d0; stroke-linejoin: miter"/>
     <use xlink:href="#m427d41fcf5" x="226.661843" y="295.786496" style="fill: #ffffff; stroke: #4878d0; stroke-linejoin: miter"/>
     <use xlink:href="#m427d41fcf5" x="235.006693" y="288.836213" style="fill: #ffffff; stroke: #4878d0; stroke-linejoin: miter"/>
     <use xlink:href="#m427d41fcf5" x="243.351543" y="282.853277" style="fill: #ffffff; stroke: #4878d0; stroke-linejoin: miter"/>
     <use xlink:href="#m427d41fcf5" x="251.696392" y="278.46604" style="fill: #ffffff; stroke: #4878d0; stroke-linejoin: miter"/>
     <use xlink:href="#m427d41fcf5" x="260.041242" y="270.660811" style="fill: #ffffff; stroke: #4878d0; stroke-linejoin: miter"/>
     <use xlink:href="#m427d41fcf5" x="268.386092" y="259.993323" style="fill: #ffffff; stroke: #4878d0; stroke-linejoin: miter"/>
     <use xlink:href="#m427d41fcf5" x="276.730941" y="243.672087" style="fill: #ffffff; stroke: #4878d0; stroke-linejoin: miter"/>
     <use xlink:href="#m427d41fcf5" x="285.075791" y="235.505787" style="fill: #ffffff; stroke: #4878d0; stroke-linejoin: miter"/>
     <use xlink:href="#m427d41fcf5" x="293.420641" y="228.981251" style="fill: #ffffff; stroke: #4878d0; stroke-linejoin: miter"/>
     <use xlink:href="#m427d41fcf5" x="301.76549" y="216.166236" style="fill: #ffffff; stroke: #4878d0; stroke-linejoin: miter"/>
     <use xlink:href="#m427d41fcf5" x="310.11034" y="207.55879" style="fill: #ffffff; stroke: #4878d0; stroke-linejoin: miter"/>
     <use xlink:href="#m427d41fcf5" x="318.45519" y="205.241507" style="fill: #ffffff; stroke: #4878d0; stroke-linejoin: miter"/>
     <use xlink:href="#m427d41fcf5" x="326.80004" y="192.106768" style="fill: #ffffff; stroke: #4878d0; stroke-linejoin: miter"/>
     <use xlink:href="#m427d41fcf5" x="335.144889" y="184.476868" style="fill: #ffffff; stroke: #4878d0; stroke-linejoin: miter"/>
     <use xlink:href="#m427d41fcf5" x="343.489739" y="169.164536" style="fill: #ffffff; stroke: #4878d0; stroke-linejoin: miter"/>
     <use xlink:href="#m427d41fcf5" x="351.834589" y="169.207083" style="fill: #ffffff; stroke: #4878d0; stroke-linejoin: miter"/>
     <use xlink:href="#m427d41fcf5" x="360.179438" y="156.692508" style="fill: #ffffff; stroke: #4878d0; stroke-linejoin: miter"/>
     <use xlink:href="#m427d41fcf5" x="368.524288" y="146.231896" style="fill: #ffffff; stroke: #4878d0; stroke-linejoin: miter"/>
     <use xlink:href="#m427d41fcf5" x="376.869138" y="137.435808" style="fill: #ffffff; stroke: #4878d0; stroke-linejoin: miter"/>
     <use xlink:href="#m427d41fcf5" x="385.213987" y="123.277643" style="fill: #ffffff; stroke: #4878d0; stroke-linejoin: miter"/>
     <use xlink:href="#m427d41fcf5" x="393.558837" y="119.09413" style="fill: #ffffff; stroke: #4878d0; stroke-linejoin: miter"/>
     <use xlink:href="#m427d41fcf5" x="401.903687" y="108.771055" style="fill: #ffffff; stroke: #4878d0; stroke-linejoin: miter"/>
     <use xlink:href="#m427d41fcf5" x="410.248536" y="90.459733" style="fill: #ffffff; stroke: #4878d0; stroke-linejoin: miter"/>
     <use xlink:href="#m427d41fcf5" x="418.593386" y="99.765496" style="fill: #ffffff; stroke: #4878d0; stroke-linejoin: miter"/>
     <use xlink:href="#m427d41fcf5" x="426.938236" y="84.904441" style="fill: #ffffff; stroke: #4878d0; stroke-linejoin: miter"/>
     <use xlink:href="#m427d41fcf5" x="435.283085" y="65.375781" style="fill: #ffffff; stroke: #4878d0; stroke-linejoin: miter"/>
     <use xlink:href="#m427d41fcf5" x="443.627935" y="62.769408" style="fill: #ffffff; stroke: #4878d0; stroke-linejoin: miter"/>
     <use xlink:href="#m427d41fcf5" x="451.972785" y="59.173656" style="fill: #ffffff; stroke: #4878d0; stroke-linejoin: miter"/>
     <use xlink:href="#m427d41fcf5" x="460.317634" y="26.716086" style="fill: #ffffff; stroke: #4878d0; stroke-linejoin: miter"/>
     <use xlink:href="#m427d41fcf5" x="468.662484" y="21.624801" style="fill: #ffffff; stroke: #4878d0; stroke-linejoin: miter"/>
    </g>
   </g>
   <g id="line2d_35">
    <path d="M 51.42 392.539844 
L 59.76485 386.71847 
L 68.109699 386.21465 
L 76.454549 379.040939 
L 84.799399 390.220426 
L 93.144248 389.828667 
L 101.489098 392.623098 
L 109.833948 358.249288 
L 118.178797 391.880882 
L 126.523647 385.297416 
L 134.868497 361.895021 
L 143.213347 385.746144 
L 151.558196 364.395754 
L 159.903046 385.981193 
L 168.247896 383.525655 
L 176.592745 379.920673 
L 184.937595 376.778081 
L 193.282445 387.810632 
L 201.627294 392.858872 
L 209.972144 390.652718 
L 218.316994 371.620302 
L 226.661843 387.421274 
L 235.006693 385.649217 
L 243.351543 382.373216 
L 251.696392 391.900712 
L 260.041242 358.116249 
L 268.386092 385.732355 
L 276.730941 391.567011 
L 285.075791 392.166386 
L 293.420641 377.847554 
L 301.76549 392.856624 
L 310.11034 392.179537 
L 318.45519 392.810154 
L 326.80004 389.24963 
L 335.144889 389.285782 
L 343.489739 388.316121 
L 351.834589 378.547718 
L 360.179438 390.037697 
L 368.524288 388.726291 
L 376.869138 392.832018 
L 385.213987 382.40608 
L 393.558837 389.925813 
L 401.903687 379.631051 
L 410.248536 388.140409 
L 418.593386 368.403858 
L 426.938236 388.166152 
L 435.283085 343.316094 
L 443.627935 378.391254 
L 451.972785 383.928616 
L 460.317634 391.686997 
L 468.662484 367.163214 
L 477.007334 391.82105 
L 485.352183 386.856406 
L 493.697033 392.484401 
L 502.041883 375.046205 
L 510.386733 386.132039 
L 518.731582 386.422648 
L 527.076432 390.287633 
L 535.421282 361.443401 
L 543.766131 369.369573 
L 552.110981 384.921303 
L 560.455831 388.773506 
L 568.80068 391.569075 
L 577 392.446956 
L 577 392.446956 
" clip-path="url(#pc751feac86)" style="fill: none; stroke: #4878d0; stroke-width: 1.5; stroke-linecap: round"/>
   </g>
   <g id="line2d_36">
    <path d="M 51.42 392.539843 
L 59.76485 386.718461 
L 68.109699 386.214634 
L 76.454549 379.040936 
L 84.799399 390.220412 
L 93.144248 389.828659 
L 101.489098 392.623055 
L 109.833948 358.249332 
L 118.178797 391.8809 
L 126.523647 385.297388 
L 134.868497 361.895066 
L 143.213347 385.746152 
L 151.558196 364.39579 
L 159.903046 385.981229 
L 168.247896 383.525642 
L 176.592745 379.920672 
L 184.937595 376.778091 
L 193.282445 387.810628 
L 201.627294 392.858836 
L 209.972144 390.652728 
L 218.316994 371.620314 
L 226.661843 387.421271 
L 235.006693 385.649196 
L 243.351543 382.373208 
L 251.696392 391.90069 
L 260.041242 358.116291 
L 268.386092 385.732408 
L 276.730941 391.567016 
L 285.075791 392.166364 
L 293.420641 377.847555 
L 301.76549 392.856596 
L 310.11034 392.179497 
L 318.45519 392.81012 
L 326.80004 389.249593 
L 335.144889 389.28578 
L 343.489739 388.316098 
L 351.834589 378.547747 
L 360.179438 390.037687 
L 368.524288 388.726274 
L 376.869138 392.832003 
L 385.213987 382.406066 
L 393.558837 389.925802 
L 401.903687 379.631051 
L 410.248536 388.140404 
L 418.593386 368.403881 
L 426.938236 388.166155 
L 435.283085 343.316196 
L 443.627935 378.391303 
L 451.972785 383.928659 
L 460.317634 391.686961 
L 468.662484 367.163247 
L 477.007334 391.821037 
L 485.352183 386.8564 
L 493.697033 392.48445 
L 502.041883 375.046197 
L 510.386733 386.132032 
L 518.731582 386.422668 
L 527.076432 390.287615 
L 535.421282 361.443435 
L 543.766131 369.369632 
L 552.110981 384.921363 
L 560.455831 388.773507 
L 568.80068 391.569035 
L 577 392.446921 
L 577 392.446921 
" clip-path="url(#pc751feac86)" style="fill: none; stroke: #ee854a; stroke-width: 0.7; stroke-linecap: round"/>
   </g>
   <g id="line2d_37">
    <path d="M 51.42 377.67217 
L 59.76485 385.825616 
L 68.109699 390.19179 
L 76.454549 392.6568 
L 84.799399 386.15928 
L 93.144248 383.200834 
L 101.489098 394.767489 
L 109.833948 395.664437 
L 118.178797 371.052669 
L 126.523647 395.439209 
L 134.868497 390.537536 
L 143.213347 381.14113 
L 151.558196 391.037962 
L 159.903046 368.980814 
L 168.247896 390.430766 
L 176.592745 390.995321 
L 184.937595 389.847528 
L 193.282445 383.490001 
L 201.627294 391.734764 
L 209.972144 374.828749 
L 218.316994 393.456613 
L 226.661843 384.234825 
L 235.006693 392.965144 
L 243.351543 391.402914 
L 251.696392 386.994601 
L 260.041242 395.548765 
L 268.386092 361.956839 
L 276.730941 373.459617 
L 285.075791 385.584261 
L 293.420641 392.304597 
L 301.76549 388.594125 
L 310.11034 394.2553 
L 318.45519 391.465015 
L 326.80004 396.219814 
L 335.144889 381.647306 
L 343.489739 390.684681 
L 351.834589 379.486303 
L 360.179438 383.336462 
L 368.524288 387.845175 
L 376.869138 383.094152 
L 385.213987 393.226718 
L 393.558837 385.106359 
L 401.903687 390.506374 
L 410.248536 383.82774 
L 418.593386 392.78301 
L 426.938236 380.987039 
L 435.283085 385.111125 
L 443.627935 371.024349 
L 451.972785 366.848078 
L 460.317634 391.810916 
L 468.662484 390.190627 
L 477.007334 383.529681 
L 485.352183 384.950136 
L 493.697033 355.870185 
L 502.041883 395.903827 
L 510.386733 387.558599 
L 518.731582 375.08813 
L 527.076432 386.309938 
L 535.421282 394.987733 
L 543.766131 377.61008 
L 552.110981 358.973034 
L 560.455831 377.944544 
L 568.80068 394.027593 
L 577 392.194183 
L 577 392.194183 
" clip-path="url(#pc751feac86)" style="fill: none; stroke: #6acc64; stroke-width: 1.5; stroke-linecap: round"/>
   </g>
   <g id="line2d_38">
    <path d="M 51.42 377.672263 
L 59.76485 385.825576 
L 68.109699 390.191705 
L 76.454549 392.656686 
L 84.799399 386.159278 
L 93.144248 383.200842 
L 101.489098 394.767323 
L 109.833948 395.664275 
L 118.178797 371.052955 
L 126.523647 395.439026 
L 134.868497 390.537473 
L 143.213347 381.141255 
L 151.558196 391.037879 
L 159.903046 368.981113 
L 168.247896 390.430674 
L 176.592745 390.99524 
L 184.937595 389.847477 
L 193.282445 383.490046 
L 201.627294 391.734647 
L 209.972144 374.828875 
L 218.316994 393.456473 
L 226.661843 384.234877 
L 235.006693 392.965016 
L 243.351543 391.40282 
L 251.696392 386.994576 
L 260.041242 395.548603 
L 268.386092 361.957264 
L 276.730941 373.459772 
L 285.075791 385.584221 
L 293.420641 392.304471 
L 301.76549 388.594089 
L 310.11034 394.255135 
L 318.45519 391.464896 
L 326.80004 396.219623 
L 335.144889 381.647344 
L 343.489739 390.684578 
L 351.834589 379.486379 
L 360.179438 383.336497 
L 368.524288 387.845113 
L 376.869138 383.094163 
L 385.213987 393.226571 
L 393.558837 385.106365 
L 401.903687 390.506279 
L 410.248536 383.827771 
L 418.593386 392.782894 
L 426.938236 380.987148 
L 435.283085 385.111138 
L 443.627935 371.024682 
L 451.972785 366.84836 
L 460.317634 391.810803 
L 468.662484 390.190542 
L 477.007334 383.529752 
L 485.352183 384.950114 
L 493.697033 355.870608 
L 502.041883 395.903632 
L 510.386733 387.558593 
L 518.731582 375.088272 
L 527.076432 386.309904 
L 535.421282 394.987584 
L 543.766131 377.610272 
L 552.110981 358.973464 
L 560.455831 377.944632 
L 568.80068 394.027438 
L 577 392.194054 
L 577 392.194054 
" clip-path="url(#pc751feac86)" style="fill: none; stroke: #d65f5f; stroke-width: 0.7; stroke-linecap: round"/>
   </g>
   <g id="patch_8">
    <path d="M 51.42 384.9 
L 51.42 10.8 
" style="fill: none; stroke: #cccccc; stroke-width: 1.25; stroke-linejoin: miter; stroke-linecap: square"/>
   </g>
   <g id="patch_9">
    <path d="M 468.662484 384.9 
L 468.662484 10.8 
" style="fill: none; stroke: #cccccc; stroke-width: 1.25; stroke-linejoin: miter; stroke-linecap: square"/>
   </g>
   <g id="patch_10">
    <path d="M 51.42 384.9 
L 468.662484 384.9 
" style="fill: none; stroke: #cccccc; stroke-width: 1.25; stroke-linejoin: miter; stroke-linecap: square"/>
   </g>
   <g id="patch_11">
    <path d="M 51.42 10.8 
L 468.662484 10.8 
" style="fill: none; stroke: #cccccc; stroke-width: 1.25; stroke-linejoin: miter; stroke-linecap: square"/>
   </g>
   <g id="legend_2">
    <g id="patch_12">
     <path d="M 476.362484 100.272969 
L 562.492484 100.272969 
Q 564.692484 100.272969 564.692484 98.072969 
L 564.692484 18.5 
Q 564.692484 16.3 562.492484 16.3 
L 476.362484 16.3 
Q 474.162484 16.3 474.162484 18.5 
L 474.162484 98.072969 
Q 474.162484 100.272969 476.362484 100.272969 
z
" style="fill: #ffffff; opacity: 0.8; stroke: #cccccc; stroke-linejoin: miter"/>
    </g>
    <g id="line2d_39">
     <path d="M 478.562484 24.55 
L 489.562484 24.55 
L 500.562484 24.55 
" style="fill: none; stroke: #4878d0; stroke-width: 1.5; stroke-linecap: round"/>
     <g>
      <use xlink:href="#m427d41fcf5" x="489.562484" y="24.55" style="fill: #ffffff; stroke: #4878d0; stroke-linejoin: miter"/>
     </g>
    </g>
    <g id="text_30">
     <!-- Time (sec.) -->
     <g style="fill: #262626" transform="translate(509.362484 28.4) scale(0.11 -0.11)">
      <use xlink:href="#TimesNewRomanPSMT-54"/>
      <use xlink:href="#TimesNewRomanPSMT-69" x="57.583984"/>
      <use xlink:href="#TimesNewRomanPSMT-6d" x="85.367188"/>
      <use xlink:href="#TimesNewRomanPSMT-65" x="163.150391"/>
      <use xlink:href="#TimesNewRomanPSMT-20" x="207.535156"/>
      <use xlink:href="#TimesNewRomanPSMT-28" x="232.535156"/>
      <use xlink:href="#TimesNewRomanPSMT-73" x="265.835938"/>
      <use xlink:href="#TimesNewRomanPSMT-65" x="304.751953"/>
      <use xlink:href="#TimesNewRomanPSMT-63" x="349.136719"/>
      <use xlink:href="#TimesNewRomanPSMT-2e" x="393.521484"/>
      <use xlink:href="#TimesNewRomanPSMT-29" x="418.521484"/>
     </g>
    </g>
    <g id="line2d_40">
     <path d="M 478.562484 40.762969 
L 489.562484 40.762969 
L 500.562484 40.762969 
" style="fill: none; stroke: #4878d0; stroke-width: 1.5; stroke-linecap: round"/>
    </g>
    <g id="text_31">
     <!-- pred_$x_{0}(t)$ -->
     <g style="fill: #262626" transform="translate(509.362484 44.612969) scale(0.11 -0.11)">
      <defs>
       <path id="TimesNewRomanPSMT-70" d="M -6 2578 
L 875 2934 
L 994 2934 
L 994 2266 
Q 1216 2644 1439 2795 
Q 1663 2947 1909 2947 
Q 2341 2947 2628 2609 
Q 2981 2197 2981 1534 
Q 2981 794 2556 309 
Q 2206 -88 1675 -88 
Q 1444 -88 1275 -22 
Q 1150 25 994 166 
L 994 -706 
Q 994 -1000 1030 -1079 
Q 1066 -1159 1155 -1206 
Q 1244 -1253 1478 -1253 
L 1478 -1369 
L -22 -1369 
L -22 -1253 
L 56 -1253 
Q 228 -1256 350 -1188 
Q 409 -1153 442 -1076 
Q 475 -1000 475 -688 
L 475 2019 
Q 475 2297 450 2372 
Q 425 2447 370 2484 
Q 316 2522 222 2522 
Q 147 2522 31 2478 
L -6 2578 
z
M 994 2081 
L 994 1013 
Q 994 666 1022 556 
Q 1066 375 1236 237 
Q 1406 100 1666 100 
Q 1978 100 2172 344 
Q 2425 663 2425 1241 
Q 2425 1897 2138 2250 
Q 1938 2494 1663 2494 
Q 1513 2494 1366 2419 
Q 1253 2363 994 2081 
z
" transform="scale(0.015625)"/>
       <path id="TimesNewRomanPSMT-64" d="M 2222 322 
Q 2013 103 1813 7 
Q 1613 -88 1381 -88 
Q 913 -88 563 304 
Q 213 697 213 1313 
Q 213 1928 600 2439 
Q 988 2950 1597 2950 
Q 1975 2950 2222 2709 
L 2222 3238 
Q 2222 3728 2198 3840 
Q 2175 3953 2125 3993 
Q 2075 4034 2000 4034 
Q 1919 4034 1784 3984 
L 1744 4094 
L 2597 4444 
L 2738 4444 
L 2738 1134 
Q 2738 631 2761 520 
Q 2784 409 2836 365 
Q 2888 322 2956 322 
Q 3041 322 3181 375 
L 3216 266 
L 2366 -88 
L 2222 -88 
L 2222 322 
z
M 2222 541 
L 2222 2016 
Q 2203 2228 2109 2403 
Q 2016 2578 1861 2667 
Q 1706 2756 1559 2756 
Q 1284 2756 1069 2509 
Q 784 2184 784 1559 
Q 784 928 1059 592 
Q 1334 256 1672 256 
Q 1956 256 2222 541 
z
" transform="scale(0.015625)"/>
       <path id="TimesNewRomanPSMT-5f" d="M 3256 -1381 
L -53 -1381 
L -53 -1119 
L 3256 -1119 
L 3256 -1381 
z
" transform="scale(0.015625)"/>
       <path id="DejaVuSans-Oblique-78" d="M 3841 3500 
L 2234 1784 
L 3219 0 
L 2559 0 
L 1819 1388 
L 531 0 
L -166 0 
L 1556 1844 
L 641 3500 
L 1300 3500 
L 1972 2234 
L 3144 3500 
L 3841 3500 
z
" transform="scale(0.015625)"/>
       <path id="DejaVuSans-30" d="M 2034 4250 
Q 1547 4250 1301 3770 
Q 1056 3291 1056 2328 
Q 1056 1369 1301 889 
Q 1547 409 2034 409 
Q 2525 409 2770 889 
Q 3016 1369 3016 2328 
Q 3016 3291 2770 3770 
Q 2525 4250 2034 4250 
z
M 2034 4750 
Q 2819 4750 3233 4129 
Q 3647 3509 3647 2328 
Q 3647 1150 3233 529 
Q 2819 -91 2034 -91 
Q 1250 -91 836 529 
Q 422 1150 422 2328 
Q 422 3509 836 4129 
Q 1250 4750 2034 4750 
z
" transform="scale(0.015625)"/>
      </defs>
      <use xlink:href="#TimesNewRomanPSMT-70" transform="translate(0 0.125)"/>
      <use xlink:href="#TimesNewRomanPSMT-72" transform="translate(50 0.125)"/>
      <use xlink:href="#TimesNewRomanPSMT-65" transform="translate(83.300781 0.125)"/>
      <use xlink:href="#TimesNewRomanPSMT-64" transform="translate(127.685547 0.125)"/>
      <use xlink:href="#TimesNewRomanPSMT-5f" transform="translate(177.685547 0.125)"/>
      <use xlink:href="#DejaVuSans-Oblique-78" transform="translate(227.685547 0.125)"/>
      <use xlink:href="#DejaVuSans-30" transform="translate(286.865234 -16.28125) scale(0.7)"/>
      <use xlink:href="#DejaVuSans-28" transform="translate(334.135742 0.125)"/>
      <use xlink:href="#DejaVuSans-Oblique-74" transform="translate(373.149414 0.125)"/>
      <use xlink:href="#DejaVuSans-29" transform="translate(412.358398 0.125)"/>
     </g>
    </g>
    <g id="line2d_41">
     <path d="M 478.562484 57.042969 
L 489.562484 57.042969 
L 500.562484 57.042969 
" style="fill: none; stroke: #ee854a; stroke-width: 0.7; stroke-linecap: round"/>
    </g>
    <g id="text_32">
     <!-- truth_$x_{0}(t)$ -->
     <g style="fill: #262626" transform="translate(509.362484 60.892969) scale(0.11 -0.11)">
      <defs>
       <path id="TimesNewRomanPSMT-74" d="M 1031 3803 
L 1031 2863 
L 1700 2863 
L 1700 2644 
L 1031 2644 
L 1031 788 
Q 1031 509 1111 412 
Q 1191 316 1316 316 
Q 1419 316 1516 380 
Q 1613 444 1666 569 
L 1788 569 
Q 1678 263 1478 108 
Q 1278 -47 1066 -47 
Q 922 -47 784 33 
Q 647 113 581 261 
Q 516 409 516 719 
L 516 2644 
L 63 2644 
L 63 2747 
Q 234 2816 414 2980 
Q 594 3144 734 3369 
Q 806 3488 934 3803 
L 1031 3803 
z
" transform="scale(0.015625)"/>
       <path id="TimesNewRomanPSMT-68" d="M 1041 4444 
L 1041 2350 
Q 1388 2731 1591 2839 
Q 1794 2947 1997 2947 
Q 2241 2947 2416 2812 
Q 2591 2678 2675 2391 
Q 2734 2191 2734 1659 
L 2734 647 
Q 2734 375 2778 275 
Q 2809 200 2884 156 
Q 2959 113 3159 113 
L 3159 0 
L 1753 0 
L 1753 113 
L 1819 113 
Q 2019 113 2097 173 
Q 2175 234 2206 353 
Q 2216 403 2216 647 
L 2216 1659 
Q 2216 2128 2167 2275 
Q 2119 2422 2012 2495 
Q 1906 2569 1756 2569 
Q 1603 2569 1437 2487 
Q 1272 2406 1041 2159 
L 1041 647 
Q 1041 353 1073 281 
Q 1106 209 1195 161 
Q 1284 113 1503 113 
L 1503 0 
L 84 0 
L 84 113 
Q 275 113 384 172 
Q 447 203 484 290 
Q 522 378 522 647 
L 522 3238 
Q 522 3728 498 3840 
Q 475 3953 426 3993 
Q 378 4034 297 4034 
Q 231 4034 84 3984 
L 41 4094 
L 897 4444 
L 1041 4444 
z
" transform="scale(0.015625)"/>
      </defs>
      <use xlink:href="#TimesNewRomanPSMT-74" transform="translate(0 0.125)"/>
      <use xlink:href="#TimesNewRomanPSMT-72" transform="translate(27.783203 0.125)"/>
      <use xlink:href="#TimesNewRomanPSMT-75" transform="translate(61.083984 0.125)"/>
      <use xlink:href="#TimesNewRomanPSMT-74" transform="translate(111.083984 0.125)"/>
      <use xlink:href="#TimesNewRomanPSMT-68" transform="translate(138.867188 0.125)"/>
      <use xlink:href="#TimesNewRomanPSMT-5f" transform="translate(188.867188 0.125)"/>
      <use xlink:href="#DejaVuSans-Oblique-78" transform="translate(238.867188 0.125)"/>
      <use xlink:href="#DejaVuSans-30" transform="translate(298.046875 -16.28125) scale(0.7)"/>
      <use xlink:href="#DejaVuSans-28" transform="translate(345.317383 0.125)"/>
      <use xlink:href="#DejaVuSans-Oblique-74" transform="translate(384.331055 0.125)"/>
      <use xlink:href="#DejaVuSans-29" transform="translate(423.540039 0.125)"/>
     </g>
    </g>
    <g id="line2d_42">
     <path d="M 478.562484 73.322969 
L 489.562484 73.322969 
L 500.562484 73.322969 
" style="fill: none; stroke: #6acc64; stroke-width: 1.5; stroke-linecap: round"/>
    </g>
    <g id="text_33">
     <!-- pred_$x_{1}(t)$ -->
     <g style="fill: #262626" transform="translate(509.362484 77.172969) scale(0.11 -0.11)">
      <defs>
       <path id="DejaVuSans-31" d="M 794 531 
L 1825 531 
L 1825 4091 
L 703 3866 
L 703 4441 
L 1819 4666 
L 2450 4666 
L 2450 531 
L 3481 531 
L 3481 0 
L 794 0 
L 794 531 
z
" transform="scale(0.015625)"/>
      </defs>
      <use xlink:href="#TimesNewRomanPSMT-70" transform="translate(0 0.125)"/>
      <use xlink:href="#TimesNewRomanPSMT-72" transform="translate(50 0.125)"/>
      <use xlink:href="#TimesNewRomanPSMT-65" transform="translate(83.300781 0.125)"/>
      <use xlink:href="#TimesNewRomanPSMT-64" transform="translate(127.685547 0.125)"/>
      <use xlink:href="#TimesNewRomanPSMT-5f" transform="translate(177.685547 0.125)"/>
      <use xlink:href="#DejaVuSans-Oblique-78" transform="translate(227.685547 0.125)"/>
      <use xlink:href="#DejaVuSans-31" transform="translate(286.865234 -16.28125) scale(0.7)"/>
      <use xlink:href="#DejaVuSans-28" transform="translate(334.135742 0.125)"/>
      <use xlink:href="#DejaVuSans-Oblique-74" transform="translate(373.149414 0.125)"/>
      <use xlink:href="#DejaVuSans-29" transform="translate(412.358398 0.125)"/>
     </g>
    </g>
    <g id="line2d_43">
     <path d="M 478.562484 89.602969 
L 489.562484 89.602969 
L 500.562484 89.602969 
" style="fill: none; stroke: #d65f5f; stroke-width: 0.7; stroke-linecap: round"/>
    </g>
    <g id="text_34">
     <!-- truth_$x_{1}(t)$ -->
     <g style="fill: #262626" transform="translate(509.362484 93.452969) scale(0.11 -0.11)">
      <use xlink:href="#TimesNewRomanPSMT-74" transform="translate(0 0.125)"/>
      <use xlink:href="#TimesNewRomanPSMT-72" transform="translate(27.783203 0.125)"/>
      <use xlink:href="#TimesNewRomanPSMT-75" transform="translate(61.083984 0.125)"/>
      <use xlink:href="#TimesNewRomanPSMT-74" transform="translate(111.083984 0.125)"/>
      <use xlink:href="#TimesNewRomanPSMT-68" transform="translate(138.867188 0.125)"/>
      <use xlink:href="#TimesNewRomanPSMT-5f" transform="translate(188.867188 0.125)"/>
      <use xlink:href="#DejaVuSans-Oblique-78" transform="translate(238.867188 0.125)"/>
      <use xlink:href="#DejaVuSans-31" transform="translate(298.046875 -16.28125) scale(0.7)"/>
      <use xlink:href="#DejaVuSans-28" transform="translate(345.317383 0.125)"/>
      <use xlink:href="#DejaVuSans-Oblique-74" transform="translate(384.331055 0.125)"/>
      <use xlink:href="#DejaVuSans-29" transform="translate(423.540039 0.125)"/>
     </g>
    </g>
   </g>
  </g>
 </g>
 <defs>
  <clipPath id="pc751feac86">
   <rect x="51.42" y="10.8" width="417.242484" height="374.1"/>
  </clipPath>
 </defs>
</svg>
