<?xml version="1.0" encoding="utf-8" standalone="no"?>
<!DOCTYPE svg PUBLIC "-//W3C//DTD SVG 1.1//EN"
  "http://www.w3.org/Graphics/SVG/1.1/DTD/svg11.dtd">
<svg xmlns:xlink="http://www.w3.org/1999/xlink" width="460.8pt" height="345.6pt" viewBox="0 0 460.8 345.6" xmlns="http://www.w3.org/2000/svg" version="1.1">
 <metadata>
  <rdf:RDF xmlns:dc="http://purl.org/dc/elements/1.1/" xmlns:cc="http://creativecommons.org/ns#" xmlns:rdf="http://www.w3.org/1999/02/22-rdf-syntax-ns#">
   <cc:Work>
    <dc:type rdf:resource="http://purl.org/dc/dcmitype/StillImage"/>
    <dc:date>2023-09-29T15:54:18.380121</dc:date>
    <dc:format>image/svg+xml</dc:format>
    <dc:creator>
     <cc:Agent>
      <dc:title>Matplotlib v3.7.1, https://matplotlib.org/</dc:title>
     </cc:Agent>
    </dc:creator>
   </cc:Work>
  </rdf:RDF>
 </metadata>
 <defs>
  <style type="text/css">*{stroke-linejoin: round; stroke-linecap: butt}</style>
 </defs>
 <g id="figure_1">
  <g id="patch_1">
   <path d="M 0 345.6 
L 460.8 345.6 
L 460.8 0 
L 0 0 
z
" style="fill: #ffffff"/>
  </g>
  <g id="axes_1">
   <g id="patch_2">
    <path d="M 45.840236 301.32375 
L 353.462484 301.32375 
L 353.462484 10.8 
L 45.840236 10.8 
z
" style="fill: #ffffff"/>
   </g>
   <g id="matplotlib.axis_1">
    <g id="xtick_1">
     <g id="line2d_1">
      <path d="M 59.823066 301.32375 
L 59.823066 10.8 
" clip-path="url(#pdcac270fb9)" style="fill: none; stroke: #cccccc; stroke-linecap: round"/>
     </g>
     <g id="text_1">
      <!-- 0 -->
      <g style="fill: #262626" transform="translate(56.073066 315.239375) scale(0.15 -0.15)">
       <defs>
        <path id="TimesNewRomanPSMT-30" d="M 231 2094 
Q 231 2819 450 3342 
Q 669 3866 1031 4122 
Q 1313 4325 1613 4325 
Q 2100 4325 2488 3828 
Q 2972 3213 2972 2159 
Q 2972 1422 2759 906 
Q 2547 391 2217 158 
Q 1888 -75 1581 -75 
Q 975 -75 572 641 
Q 231 1244 231 2094 
z
M 844 2016 
Q 844 1141 1059 588 
Q 1238 122 1591 122 
Q 1759 122 1940 273 
Q 2122 425 2216 781 
Q 2359 1319 2359 2297 
Q 2359 3022 2209 3506 
Q 2097 3866 1919 4016 
Q 1791 4119 1609 4119 
Q 1397 4119 1231 3928 
Q 1006 3669 925 3112 
Q 844 2556 844 2016 
z
" transform="scale(0.015625)"/>
       </defs>
       <use xlink:href="#TimesNewRomanPSMT-30"/>
      </g>
     </g>
    </g>
    <g id="xtick_2">
     <g id="line2d_2">
      <path d="M 115.86647 301.32375 
L 115.86647 10.8 
" clip-path="url(#pdcac270fb9)" style="fill: none; stroke: #cccccc; stroke-linecap: round"/>
     </g>
     <g id="text_2">
      <!-- 100 -->
      <g style="fill: #262626" transform="translate(104.61647 315.239375) scale(0.15 -0.15)">
       <defs>
        <path id="TimesNewRomanPSMT-31" d="M 750 3822 
L 1781 4325 
L 1884 4325 
L 1884 747 
Q 1884 391 1914 303 
Q 1944 216 2037 169 
Q 2131 122 2419 116 
L 2419 0 
L 825 0 
L 825 116 
Q 1125 122 1212 167 
Q 1300 213 1334 289 
Q 1369 366 1369 747 
L 1369 3034 
Q 1369 3497 1338 3628 
Q 1316 3728 1258 3775 
Q 1200 3822 1119 3822 
Q 1003 3822 797 3725 
L 750 3822 
z
" transform="scale(0.015625)"/>
       </defs>
       <use xlink:href="#TimesNewRomanPSMT-31"/>
       <use xlink:href="#TimesNewRomanPSMT-30" x="50"/>
       <use xlink:href="#TimesNewRomanPSMT-30" x="100"/>
      </g>
     </g>
    </g>
    <g id="xtick_3">
     <g id="line2d_3">
      <path d="M 171.909875 301.32375 
L 171.909875 10.8 
" clip-path="url(#pdcac270fb9)" style="fill: none; stroke: #cccccc; stroke-linecap: round"/>
     </g>
     <g id="text_3">
      <!-- 200 -->
      <g style="fill: #262626" transform="translate(160.659875 315.239375) scale(0.15 -0.15)">
       <defs>
        <path id="TimesNewRomanPSMT-32" d="M 2934 816 
L 2638 0 
L 138 0 
L 138 116 
Q 1241 1122 1691 1759 
Q 2141 2397 2141 2925 
Q 2141 3328 1894 3587 
Q 1647 3847 1303 3847 
Q 991 3847 742 3664 
Q 494 3481 375 3128 
L 259 3128 
Q 338 3706 661 4015 
Q 984 4325 1469 4325 
Q 1984 4325 2329 3994 
Q 2675 3663 2675 3213 
Q 2675 2891 2525 2569 
Q 2294 2063 1775 1497 
Q 997 647 803 472 
L 1909 472 
Q 2247 472 2383 497 
Q 2519 522 2628 598 
Q 2738 675 2819 816 
L 2934 816 
z
" transform="scale(0.015625)"/>
       </defs>
       <use xlink:href="#TimesNewRomanPSMT-32"/>
       <use xlink:href="#TimesNewRomanPSMT-30" x="50"/>
       <use xlink:href="#TimesNewRomanPSMT-30" x="100"/>
      </g>
     </g>
    </g>
    <g id="xtick_4">
     <g id="line2d_4">
      <path d="M 227.953279 301.32375 
L 227.953279 10.8 
" clip-path="url(#pdcac270fb9)" style="fill: none; stroke: #cccccc; stroke-linecap: round"/>
     </g>
     <g id="text_4">
      <!-- 300 -->
      <g style="fill: #262626" transform="translate(216.703279 315.239375) scale(0.15 -0.15)">
       <defs>
        <path id="TimesNewRomanPSMT-33" d="M 325 3431 
Q 506 3859 782 4092 
Q 1059 4325 1472 4325 
Q 1981 4325 2253 3994 
Q 2459 3747 2459 3466 
Q 2459 3003 1878 2509 
Q 2269 2356 2469 2072 
Q 2669 1788 2669 1403 
Q 2669 853 2319 450 
Q 1863 -75 997 -75 
Q 569 -75 414 31 
Q 259 138 259 259 
Q 259 350 332 419 
Q 406 488 509 488 
Q 588 488 669 463 
Q 722 447 909 348 
Q 1097 250 1169 231 
Q 1284 197 1416 197 
Q 1734 197 1970 444 
Q 2206 691 2206 1028 
Q 2206 1275 2097 1509 
Q 2016 1684 1919 1775 
Q 1784 1900 1550 2001 
Q 1316 2103 1072 2103 
L 972 2103 
L 972 2197 
Q 1219 2228 1467 2375 
Q 1716 2522 1828 2728 
Q 1941 2934 1941 3181 
Q 1941 3503 1739 3701 
Q 1538 3900 1238 3900 
Q 753 3900 428 3381 
L 325 3431 
z
" transform="scale(0.015625)"/>
       </defs>
       <use xlink:href="#TimesNewRomanPSMT-33"/>
       <use xlink:href="#TimesNewRomanPSMT-30" x="50"/>
       <use xlink:href="#TimesNewRomanPSMT-30" x="100"/>
      </g>
     </g>
    </g>
    <g id="xtick_5">
     <g id="line2d_5">
      <path d="M 283.996684 301.32375 
L 283.996684 10.8 
" clip-path="url(#pdcac270fb9)" style="fill: none; stroke: #cccccc; stroke-linecap: round"/>
     </g>
     <g id="text_5">
      <!-- 400 -->
      <g style="fill: #262626" transform="translate(272.746684 315.239375) scale(0.15 -0.15)">
       <defs>
        <path id="TimesNewRomanPSMT-34" d="M 2978 1563 
L 2978 1119 
L 2409 1119 
L 2409 0 
L 1894 0 
L 1894 1119 
L 100 1119 
L 100 1519 
L 2066 4325 
L 2409 4325 
L 2409 1563 
L 2978 1563 
z
M 1894 1563 
L 1894 3666 
L 406 1563 
L 1894 1563 
z
" transform="scale(0.015625)"/>
       </defs>
       <use xlink:href="#TimesNewRomanPSMT-34"/>
       <use xlink:href="#TimesNewRomanPSMT-30" x="50"/>
       <use xlink:href="#TimesNewRomanPSMT-30" x="100"/>
      </g>
     </g>
    </g>
    <g id="xtick_6">
     <g id="line2d_6">
      <path d="M 340.040089 301.32375 
L 340.040089 10.8 
" clip-path="url(#pdcac270fb9)" style="fill: none; stroke: #cccccc; stroke-linecap: round"/>
     </g>
     <g id="text_6">
      <!-- 500 -->
      <g style="fill: #262626" transform="translate(328.790089 315.239375) scale(0.15 -0.15)">
       <defs>
        <path id="TimesNewRomanPSMT-35" d="M 2778 4238 
L 2534 3706 
L 1259 3706 
L 981 3138 
Q 1809 3016 2294 2522 
Q 2709 2097 2709 1522 
Q 2709 1188 2573 903 
Q 2438 619 2231 419 
Q 2025 219 1772 97 
Q 1413 -75 1034 -75 
Q 653 -75 479 54 
Q 306 184 306 341 
Q 306 428 378 495 
Q 450 563 559 563 
Q 641 563 702 538 
Q 763 513 909 409 
Q 1144 247 1384 247 
Q 1750 247 2026 523 
Q 2303 800 2303 1197 
Q 2303 1581 2056 1914 
Q 1809 2247 1375 2428 
Q 1034 2569 447 2591 
L 1259 4238 
L 2778 4238 
z
" transform="scale(0.015625)"/>
       </defs>
       <use xlink:href="#TimesNewRomanPSMT-35"/>
       <use xlink:href="#TimesNewRomanPSMT-30" x="50"/>
       <use xlink:href="#TimesNewRomanPSMT-30" x="100"/>
      </g>
     </g>
    </g>
    <g id="text_7">
     <!-- Time (arbitrary unit) -->
     <g style="fill: #262626" transform="translate(150.216048 330.780469) scale(0.12 -0.12)">
      <defs>
       <path id="TimesNewRomanPSMT-54" d="M 3703 4238 
L 3750 3244 
L 3631 3244 
Q 3597 3506 3538 3619 
Q 3441 3800 3280 3886 
Q 3119 3972 2856 3972 
L 2259 3972 
L 2259 734 
Q 2259 344 2344 247 
Q 2463 116 2709 116 
L 2856 116 
L 2856 0 
L 1059 0 
L 1059 116 
L 1209 116 
Q 1478 116 1591 278 
Q 1659 378 1659 734 
L 1659 3972 
L 1150 3972 
Q 853 3972 728 3928 
Q 566 3869 450 3700 
Q 334 3531 313 3244 
L 194 3244 
L 244 4238 
L 3703 4238 
z
" transform="scale(0.015625)"/>
       <path id="TimesNewRomanPSMT-69" d="M 928 4444 
Q 1059 4444 1151 4351 
Q 1244 4259 1244 4128 
Q 1244 3997 1151 3903 
Q 1059 3809 928 3809 
Q 797 3809 703 3903 
Q 609 3997 609 4128 
Q 609 4259 701 4351 
Q 794 4444 928 4444 
z
M 1188 2947 
L 1188 647 
Q 1188 378 1227 289 
Q 1266 200 1342 156 
Q 1419 113 1622 113 
L 1622 0 
L 231 0 
L 231 113 
Q 441 113 512 153 
Q 584 194 626 287 
Q 669 381 669 647 
L 669 1750 
Q 669 2216 641 2353 
Q 619 2453 572 2492 
Q 525 2531 444 2531 
Q 356 2531 231 2484 
L 188 2597 
L 1050 2947 
L 1188 2947 
z
" transform="scale(0.015625)"/>
       <path id="TimesNewRomanPSMT-6d" d="M 1050 2338 
Q 1363 2650 1419 2697 
Q 1559 2816 1721 2881 
Q 1884 2947 2044 2947 
Q 2313 2947 2506 2790 
Q 2700 2634 2766 2338 
Q 3088 2713 3309 2830 
Q 3531 2947 3766 2947 
Q 3994 2947 4170 2830 
Q 4347 2713 4450 2447 
Q 4519 2266 4519 1878 
L 4519 647 
Q 4519 378 4559 278 
Q 4591 209 4675 161 
Q 4759 113 4950 113 
L 4950 0 
L 3538 0 
L 3538 113 
L 3597 113 
Q 3781 113 3884 184 
Q 3956 234 3988 344 
Q 4000 397 4000 647 
L 4000 1878 
Q 4000 2228 3916 2372 
Q 3794 2572 3525 2572 
Q 3359 2572 3192 2489 
Q 3025 2406 2788 2181 
L 2781 2147 
L 2788 2013 
L 2788 647 
Q 2788 353 2820 281 
Q 2853 209 2943 161 
Q 3034 113 3253 113 
L 3253 0 
L 1806 0 
L 1806 113 
Q 2044 113 2133 169 
Q 2222 225 2256 338 
Q 2272 391 2272 647 
L 2272 1878 
Q 2272 2228 2169 2381 
Q 2031 2581 1784 2581 
Q 1616 2581 1450 2491 
Q 1191 2353 1050 2181 
L 1050 647 
Q 1050 366 1089 281 
Q 1128 197 1204 155 
Q 1281 113 1516 113 
L 1516 0 
L 100 0 
L 100 113 
Q 297 113 375 155 
Q 453 197 493 289 
Q 534 381 534 647 
L 534 1741 
Q 534 2213 506 2350 
Q 484 2453 437 2492 
Q 391 2531 309 2531 
Q 222 2531 100 2484 
L 53 2597 
L 916 2947 
L 1050 2947 
L 1050 2338 
z
" transform="scale(0.015625)"/>
       <path id="TimesNewRomanPSMT-65" d="M 681 1784 
Q 678 1147 991 784 
Q 1303 422 1725 422 
Q 2006 422 2214 576 
Q 2422 731 2563 1106 
L 2659 1044 
Q 2594 616 2278 264 
Q 1963 -88 1488 -88 
Q 972 -88 605 314 
Q 238 716 238 1394 
Q 238 2128 614 2539 
Q 991 2950 1559 2950 
Q 2041 2950 2350 2633 
Q 2659 2316 2659 1784 
L 681 1784 
z
M 681 1966 
L 2006 1966 
Q 1991 2241 1941 2353 
Q 1863 2528 1708 2628 
Q 1553 2728 1384 2728 
Q 1125 2728 920 2526 
Q 716 2325 681 1966 
z
" transform="scale(0.015625)"/>
       <path id="TimesNewRomanPSMT-20" transform="scale(0.015625)"/>
       <path id="TimesNewRomanPSMT-28" d="M 1988 -1253 
L 1988 -1369 
Q 1516 -1131 1200 -813 
Q 750 -359 506 256 
Q 263 872 263 1534 
Q 263 2503 741 3301 
Q 1219 4100 1988 4444 
L 1988 4313 
Q 1603 4100 1356 3731 
Q 1109 3363 987 2797 
Q 866 2231 866 1616 
Q 866 947 969 400 
Q 1050 -31 1165 -292 
Q 1281 -553 1476 -793 
Q 1672 -1034 1988 -1253 
z
" transform="scale(0.015625)"/>
       <path id="TimesNewRomanPSMT-61" d="M 1822 413 
Q 1381 72 1269 19 
Q 1100 -59 909 -59 
Q 613 -59 420 144 
Q 228 347 228 678 
Q 228 888 322 1041 
Q 450 1253 767 1440 
Q 1084 1628 1822 1897 
L 1822 2009 
Q 1822 2438 1686 2597 
Q 1550 2756 1291 2756 
Q 1094 2756 978 2650 
Q 859 2544 859 2406 
L 866 2225 
Q 866 2081 792 2003 
Q 719 1925 600 1925 
Q 484 1925 411 2006 
Q 338 2088 338 2228 
Q 338 2497 613 2722 
Q 888 2947 1384 2947 
Q 1766 2947 2009 2819 
Q 2194 2722 2281 2516 
Q 2338 2381 2338 1966 
L 2338 994 
Q 2338 584 2353 492 
Q 2369 400 2405 369 
Q 2441 338 2488 338 
Q 2538 338 2575 359 
Q 2641 400 2828 588 
L 2828 413 
Q 2478 -56 2159 -56 
Q 2006 -56 1915 50 
Q 1825 156 1822 413 
z
M 1822 616 
L 1822 1706 
Q 1350 1519 1213 1441 
Q 966 1303 859 1153 
Q 753 1003 753 825 
Q 753 600 887 451 
Q 1022 303 1197 303 
Q 1434 303 1822 616 
z
" transform="scale(0.015625)"/>
       <path id="TimesNewRomanPSMT-72" d="M 1038 2947 
L 1038 2303 
Q 1397 2947 1775 2947 
Q 1947 2947 2059 2842 
Q 2172 2738 2172 2600 
Q 2172 2478 2090 2393 
Q 2009 2309 1897 2309 
Q 1788 2309 1652 2417 
Q 1516 2525 1450 2525 
Q 1394 2525 1328 2463 
Q 1188 2334 1038 2041 
L 1038 669 
Q 1038 431 1097 309 
Q 1138 225 1241 169 
Q 1344 113 1538 113 
L 1538 0 
L 72 0 
L 72 113 
Q 291 113 397 181 
Q 475 231 506 341 
Q 522 394 522 644 
L 522 1753 
Q 522 2253 501 2348 
Q 481 2444 426 2487 
Q 372 2531 291 2531 
Q 194 2531 72 2484 
L 41 2597 
L 906 2947 
L 1038 2947 
z
" transform="scale(0.015625)"/>
       <path id="TimesNewRomanPSMT-62" d="M 984 2369 
Q 1400 2947 1881 2947 
Q 2322 2947 2650 2570 
Q 2978 2194 2978 1541 
Q 2978 778 2472 313 
Q 2038 -88 1503 -88 
Q 1253 -88 995 3 
Q 738 94 469 275 
L 469 3241 
Q 469 3728 445 3840 
Q 422 3953 372 3993 
Q 322 4034 247 4034 
Q 159 4034 28 3984 
L -16 4094 
L 844 4444 
L 984 4444 
L 984 2369 
z
M 984 2169 
L 984 456 
Q 1144 300 1314 220 
Q 1484 141 1663 141 
Q 1947 141 2192 453 
Q 2438 766 2438 1363 
Q 2438 1913 2192 2208 
Q 1947 2503 1634 2503 
Q 1469 2503 1303 2419 
Q 1178 2356 984 2169 
z
" transform="scale(0.015625)"/>
       <path id="TimesNewRomanPSMT-74" d="M 1031 3803 
L 1031 2863 
L 1700 2863 
L 1700 2644 
L 1031 2644 
L 1031 788 
Q 1031 509 1111 412 
Q 1191 316 1316 316 
Q 1419 316 1516 380 
Q 1613 444 1666 569 
L 1788 569 
Q 1678 263 1478 108 
Q 1278 -47 1066 -47 
Q 922 -47 784 33 
Q 647 113 581 261 
Q 516 409 516 719 
L 516 2644 
L 63 2644 
L 63 2747 
Q 234 2816 414 2980 
Q 594 3144 734 3369 
Q 806 3488 934 3803 
L 1031 3803 
z
" transform="scale(0.015625)"/>
       <path id="TimesNewRomanPSMT-79" d="M 38 2863 
L 1372 2863 
L 1372 2747 
L 1306 2747 
Q 1166 2747 1095 2686 
Q 1025 2625 1025 2534 
Q 1025 2413 1128 2197 
L 1825 753 
L 2466 2334 
Q 2519 2463 2519 2588 
Q 2519 2644 2497 2672 
Q 2472 2706 2419 2726 
Q 2366 2747 2231 2747 
L 2231 2863 
L 3163 2863 
L 3163 2747 
Q 3047 2734 2984 2696 
Q 2922 2659 2847 2556 
Q 2819 2513 2741 2316 
L 1575 -541 
Q 1406 -956 1132 -1168 
Q 859 -1381 606 -1381 
Q 422 -1381 303 -1275 
Q 184 -1169 184 -1031 
Q 184 -900 270 -820 
Q 356 -741 506 -741 
Q 609 -741 788 -809 
Q 913 -856 944 -856 
Q 1038 -856 1148 -759 
Q 1259 -663 1372 -384 
L 1575 113 
L 547 2272 
Q 500 2369 397 2513 
Q 319 2622 269 2659 
Q 197 2709 38 2747 
L 38 2863 
z
" transform="scale(0.015625)"/>
       <path id="TimesNewRomanPSMT-75" d="M 2709 2863 
L 2709 1128 
Q 2709 631 2732 520 
Q 2756 409 2807 365 
Q 2859 322 2928 322 
Q 3025 322 3147 375 
L 3191 266 
L 2334 -88 
L 2194 -88 
L 2194 519 
Q 1825 119 1631 15 
Q 1438 -88 1222 -88 
Q 981 -88 804 51 
Q 628 191 559 409 
Q 491 628 491 1028 
L 491 2306 
Q 491 2509 447 2587 
Q 403 2666 317 2708 
Q 231 2750 6 2747 
L 6 2863 
L 1009 2863 
L 1009 947 
Q 1009 547 1148 422 
Q 1288 297 1484 297 
Q 1619 297 1789 381 
Q 1959 466 2194 703 
L 2194 2325 
Q 2194 2569 2105 2655 
Q 2016 2741 1734 2747 
L 1734 2863 
L 2709 2863 
z
" transform="scale(0.015625)"/>
       <path id="TimesNewRomanPSMT-6e" d="M 1034 2341 
Q 1538 2947 1994 2947 
Q 2228 2947 2397 2830 
Q 2566 2713 2666 2444 
Q 2734 2256 2734 1869 
L 2734 647 
Q 2734 375 2778 278 
Q 2813 200 2889 156 
Q 2966 113 3172 113 
L 3172 0 
L 1756 0 
L 1756 113 
L 1816 113 
Q 2016 113 2095 173 
Q 2175 234 2206 353 
Q 2219 400 2219 647 
L 2219 1819 
Q 2219 2209 2117 2386 
Q 2016 2563 1775 2563 
Q 1403 2563 1034 2156 
L 1034 647 
Q 1034 356 1069 288 
Q 1113 197 1189 155 
Q 1266 113 1500 113 
L 1500 0 
L 84 0 
L 84 113 
L 147 113 
Q 366 113 442 223 
Q 519 334 519 647 
L 519 1709 
Q 519 2225 495 2337 
Q 472 2450 423 2490 
Q 375 2531 294 2531 
Q 206 2531 84 2484 
L 38 2597 
L 900 2947 
L 1034 2947 
L 1034 2341 
z
" transform="scale(0.015625)"/>
       <path id="TimesNewRomanPSMT-29" d="M 144 4313 
L 144 4444 
Q 619 4209 934 3891 
Q 1381 3434 1625 2820 
Q 1869 2206 1869 1541 
Q 1869 572 1392 -226 
Q 916 -1025 144 -1369 
L 144 -1253 
Q 528 -1038 776 -670 
Q 1025 -303 1145 264 
Q 1266 831 1266 1447 
Q 1266 2113 1163 2663 
Q 1084 3094 967 3353 
Q 850 3613 656 3853 
Q 463 4094 144 4313 
z
" transform="scale(0.015625)"/>
      </defs>
      <use xlink:href="#TimesNewRomanPSMT-54"/>
      <use xlink:href="#TimesNewRomanPSMT-69" x="57.583984"/>
      <use xlink:href="#TimesNewRomanPSMT-6d" x="85.367188"/>
      <use xlink:href="#TimesNewRomanPSMT-65" x="163.150391"/>
      <use xlink:href="#TimesNewRomanPSMT-20" x="207.535156"/>
      <use xlink:href="#TimesNewRomanPSMT-28" x="232.535156"/>
      <use xlink:href="#TimesNewRomanPSMT-61" x="265.835938"/>
      <use xlink:href="#TimesNewRomanPSMT-72" x="310.220703"/>
      <use xlink:href="#TimesNewRomanPSMT-62" x="343.521484"/>
      <use xlink:href="#TimesNewRomanPSMT-69" x="393.521484"/>
      <use xlink:href="#TimesNewRomanPSMT-74" x="421.304688"/>
      <use xlink:href="#TimesNewRomanPSMT-72" x="449.087891"/>
      <use xlink:href="#TimesNewRomanPSMT-61" x="482.388672"/>
      <use xlink:href="#TimesNewRomanPSMT-72" x="526.773438"/>
      <use xlink:href="#TimesNewRomanPSMT-79" x="560.074219"/>
      <use xlink:href="#TimesNewRomanPSMT-20" x="610.074219"/>
      <use xlink:href="#TimesNewRomanPSMT-75" x="635.074219"/>
      <use xlink:href="#TimesNewRomanPSMT-6e" x="685.074219"/>
      <use xlink:href="#TimesNewRomanPSMT-69" x="735.074219"/>
      <use xlink:href="#TimesNewRomanPSMT-74" x="762.857422"/>
      <use xlink:href="#TimesNewRomanPSMT-29" x="790.640625"/>
     </g>
    </g>
   </g>
   <g id="matplotlib.axis_2">
    <g id="ytick_1">
     <g id="line2d_7">
      <path d="M 45.840236 286.87842 
L 353.462484 286.87842 
" clip-path="url(#pdcac270fb9)" style="fill: none; stroke: #cccccc; stroke-linecap: round"/>
     </g>
     <g id="text_8">
      <!-- −1 -->
      <g style="fill: #262626" transform="translate(26.381642 292.086232) scale(0.15 -0.15)">
       <defs>
        <path id="TimesNewRomanPSMT-2212" d="M 3484 2000 
L 116 2000 
L 116 2256 
L 3484 2256 
L 3484 2000 
z
" transform="scale(0.015625)"/>
       </defs>
       <use xlink:href="#TimesNewRomanPSMT-2212"/>
       <use xlink:href="#TimesNewRomanPSMT-31" x="56.396484"/>
      </g>
     </g>
    </g>
    <g id="ytick_2">
     <g id="line2d_8">
      <path d="M 45.840236 246.199984 
L 353.462484 246.199984 
" clip-path="url(#pdcac270fb9)" style="fill: none; stroke: #cccccc; stroke-linecap: round"/>
     </g>
     <g id="text_9">
      <!-- 0 -->
      <g style="fill: #262626" transform="translate(34.840236 251.407797) scale(0.15 -0.15)">
       <use xlink:href="#TimesNewRomanPSMT-30"/>
      </g>
     </g>
    </g>
    <g id="ytick_3">
     <g id="line2d_9">
      <path d="M 45.840236 205.521548 
L 353.462484 205.521548 
" clip-path="url(#pdcac270fb9)" style="fill: none; stroke: #cccccc; stroke-linecap: round"/>
     </g>
     <g id="text_10">
      <!-- 1 -->
      <g style="fill: #262626" transform="translate(34.840236 210.729361) scale(0.15 -0.15)">
       <use xlink:href="#TimesNewRomanPSMT-31"/>
      </g>
     </g>
    </g>
    <g id="ytick_4">
     <g id="line2d_10">
      <path d="M 45.840236 164.843113 
L 353.462484 164.843113 
" clip-path="url(#pdcac270fb9)" style="fill: none; stroke: #cccccc; stroke-linecap: round"/>
     </g>
     <g id="text_11">
      <!-- 2 -->
      <g style="fill: #262626" transform="translate(34.840236 170.050925) scale(0.15 -0.15)">
       <use xlink:href="#TimesNewRomanPSMT-32"/>
      </g>
     </g>
    </g>
    <g id="ytick_5">
     <g id="line2d_11">
      <path d="M 45.840236 124.164677 
L 353.462484 124.164677 
" clip-path="url(#pdcac270fb9)" style="fill: none; stroke: #cccccc; stroke-linecap: round"/>
     </g>
     <g id="text_12">
      <!-- 3 -->
      <g style="fill: #262626" transform="translate(34.840236 129.37249) scale(0.15 -0.15)">
       <use xlink:href="#TimesNewRomanPSMT-33"/>
      </g>
     </g>
    </g>
    <g id="ytick_6">
     <g id="line2d_12">
      <path d="M 45.840236 83.486242 
L 353.462484 83.486242 
" clip-path="url(#pdcac270fb9)" style="fill: none; stroke: #cccccc; stroke-linecap: round"/>
     </g>
     <g id="text_13">
      <!-- 4 -->
      <g style="fill: #262626" transform="translate(34.840236 88.694054) scale(0.15 -0.15)">
       <use xlink:href="#TimesNewRomanPSMT-34"/>
      </g>
     </g>
    </g>
    <g id="ytick_7">
     <g id="line2d_13">
      <path d="M 45.840236 42.807806 
L 353.462484 42.807806 
" clip-path="url(#pdcac270fb9)" style="fill: none; stroke: #cccccc; stroke-linecap: round"/>
     </g>
     <g id="text_14">
      <!-- 5 -->
      <g style="fill: #262626" transform="translate(34.840236 48.015618) scale(0.15 -0.15)">
       <use xlink:href="#TimesNewRomanPSMT-35"/>
      </g>
     </g>
    </g>
    <g id="text_15">
     <!-- $X(t)$ -->
     <g style="fill: #262626" transform="translate(11.221642 153.495) scale(0.12 -0.12)">
      <defs>
       <path id="DejaVuSans-Oblique-58" d="M 878 4666 
L 1516 4666 
L 2316 2981 
L 3763 4666 
L 4500 4666 
L 2578 2438 
L 3738 0 
L 3103 0 
L 2163 1966 
L 459 0 
L -275 0 
L 1906 2509 
L 878 4666 
z
" transform="scale(0.015625)"/>
       <path id="DejaVuSans-28" d="M 1984 4856 
Q 1566 4138 1362 3434 
Q 1159 2731 1159 2009 
Q 1159 1288 1364 580 
Q 1569 -128 1984 -844 
L 1484 -844 
Q 1016 -109 783 600 
Q 550 1309 550 2009 
Q 550 2706 781 3412 
Q 1013 4119 1484 4856 
L 1984 4856 
z
" transform="scale(0.015625)"/>
       <path id="DejaVuSans-Oblique-74" d="M 2706 3500 
L 2619 3053 
L 1472 3053 
L 1100 1153 
Q 1081 1047 1072 975 
Q 1063 903 1063 863 
Q 1063 663 1183 572 
Q 1303 481 1569 481 
L 2150 481 
L 2053 0 
L 1503 0 
Q 991 0 739 200 
Q 488 400 488 806 
Q 488 878 497 964 
Q 506 1050 525 1153 
L 897 3053 
L 409 3053 
L 500 3500 
L 978 3500 
L 1172 4494 
L 1747 4494 
L 1556 3500 
L 2706 3500 
z
" transform="scale(0.015625)"/>
       <path id="DejaVuSans-29" d="M 513 4856 
L 1013 4856 
Q 1481 4119 1714 3412 
Q 1947 2706 1947 2009 
Q 1947 1309 1714 600 
Q 1481 -109 1013 -844 
L 513 -844 
Q 928 -128 1133 580 
Q 1338 1288 1338 2009 
Q 1338 2731 1133 3434 
Q 928 4138 513 4856 
z
" transform="scale(0.015625)"/>
      </defs>
      <use xlink:href="#DejaVuSans-Oblique-58" transform="translate(0 0.125)"/>
      <use xlink:href="#DejaVuSans-28" transform="translate(68.505859 0.125)"/>
      <use xlink:href="#DejaVuSans-Oblique-74" transform="translate(107.519531 0.125)"/>
      <use xlink:href="#DejaVuSans-29" transform="translate(146.728516 0.125)"/>
     </g>
    </g>
   </g>
   <g id="line2d_14">
    <path d="M 59.823066 274.44186 
L 60.3835 252.929094 
L 60.943934 251.078981 
L 61.504368 224.543541 
L 62.064802 265.890011 
L 62.625236 264.428242 
L 63.18567 274.80262 
L 63.746104 147.621408 
L 64.306538 271.996564 
L 64.866972 247.701404 
L 65.427406 161.097961 
L 65.98784 249.327949 
L 66.548274 170.354336 
L 67.108708 250.160229 
L 67.669142 241.133869 
L 68.79001 216.165198 
L 69.350444 256.967402 
L 69.910878 275.666703 
L 70.471313 267.450133 
L 71.031747 197.090967 
L 71.592181 255.53052 
L 72.152615 248.99518 
L 72.713049 236.868739 
L 73.273483 272.108286 
L 73.833917 147.13049 
L 74.394351 249.220388 
L 74.954785 270.837049 
L 75.515219 273.08643 
L 76.075653 220.125411 
L 76.636087 275.651571 
L 77.196521 273.157751 
L 77.756955 275.481949 
L 78.317389 262.322672 
L 78.877823 262.4136 
L 79.438257 258.855429 
L 79.998691 222.678426 
L 80.559125 265.208029 
L 81.119559 260.363952 
L 81.679993 275.540433 
L 82.240428 236.994553 
L 82.800862 264.795336 
L 83.361296 226.71987 
L 83.92173 258.187272 
L 84.482164 185.187786 
L 85.042598 258.278274 
L 85.603032 92.342422 
L 86.163466 222.093805 
L 86.7239 242.557235 
L 87.284334 271.335605 
L 87.844768 180.586893 
L 88.405202 271.809691 
L 88.965636 253.436102 
L 89.52607 274.174359 
L 90.086504 209.776443 
L 90.646938 250.768509 
L 91.207372 251.803453 
L 91.767806 266.139172 
L 92.32824 159.439829 
L 92.888674 188.724657 
L 93.449108 246.209177 
L 94.009542 260.515512 
L 94.569977 270.901961 
L 95.130411 274.198161 
L 95.690845 196.659917 
L 96.251279 274.456282 
L 96.811713 24.005625 
L 97.372147 252.347805 
L 97.932581 273.09568 
L 98.493015 215.410936 
L 99.053449 196.53663 
L 99.613883 275.535642 
L 100.174317 275.430338 
L 100.734751 247.330216 
L 101.295185 266.854772 
L 101.855619 261.211591 
L 102.416053 240.112372 
L 102.976487 237.245149 
L 103.536921 274.962143 
L 104.097355 271.327991 
L 104.657789 237.039586 
L 105.218223 236.665057 
L 106.339091 270.372973 
L 106.899526 274.852078 
L 107.45996 259.189233 
L 108.020394 275.272549 
L 108.580828 274.174832 
L 109.701696 132.547901 
L 110.26213 274.024204 
L 110.822564 273.615573 
L 111.382998 252.111326 
L 111.943432 272.584591 
L 112.503866 244.827387 
L 113.0643 274.27226 
L 114.185168 265.389123 
L 114.745602 271.937086 
L 115.306036 265.348325 
L 115.86647 275.351574 
L 116.426904 248.842742 
L 116.987338 274.910979 
L 117.547772 275.481648 
L 118.108206 273.919306 
L 118.668641 275.415209 
L 119.229075 177.719615 
L 119.789509 223.447759 
L 120.910377 269.154564 
L 121.470811 273.62723 
L 122.031245 260.563547 
L 122.591679 275.685312 
L 123.152113 263.603252 
L 123.712547 200.485101 
L 124.272981 271.095637 
L 124.833415 275.484902 
L 125.393849 274.788126 
L 126.514717 240.616765 
L 127.075151 25.517388 
L 127.635585 235.913948 
L 128.196019 176.522132 
L 128.756453 264.779816 
L 129.316887 251.139443 
L 129.877321 252.924794 
L 130.437755 274.24679 
L 130.99819 225.477916 
L 131.558624 273.171183 
L 132.119058 266.275339 
L 132.679492 269.750672 
L 133.239926 259.44319 
L 133.80036 275.323475 
L 134.360794 265.456855 
L 134.921228 270.540922 
L 135.481662 219.687473 
L 136.042096 262.481039 
L 136.60253 275.596381 
L 137.162964 261.046715 
L 137.723398 206.424975 
L 138.283832 274.741609 
L 138.844266 218.701362 
L 139.965134 275.429344 
L 140.525568 273.297179 
L 141.086002 111.866287 
L 141.646436 275.275444 
L 142.20687 259.03087 
L 142.767304 275.643906 
L 143.327739 253.762754 
L 143.888173 270.183799 
L 144.448607 274.465224 
L 145.009041 260.846004 
L 145.569475 194.337981 
L 146.129909 275.103647 
L 146.690343 272.608399 
L 147.250777 275.686636 
L 147.811211 269.38042 
L 148.371645 268.223607 
L 148.932079 275.599504 
L 149.492513 275.396731 
L 150.052947 275.647175 
L 150.613381 260.171923 
L 151.173815 275.231461 
L 151.734249 191.570453 
L 152.294683 271.536827 
L 152.855117 271.124898 
L 153.415551 255.060659 
L 153.975985 202.961049 
L 154.536419 169.803946 
L 155.096854 242.257892 
L 155.657288 257.768046 
L 156.217722 264.460625 
L 156.778156 122.318685 
L 157.33859 251.906794 
L 157.899024 271.024283 
L 158.459458 273.470869 
L 159.019892 239.679968 
L 159.580326 275.598644 
L 160.14076 243.239816 
L 160.701194 248.471871 
L 161.261628 216.844214 
L 161.822062 89.805994 
L 162.382496 258.27413 
L 162.94293 245.276434 
L 163.503364 273.014414 
L 164.063798 275.647742 
L 164.624232 274.144376 
L 165.184666 250.493394 
L 165.7451 212.466769 
L 166.305534 274.75229 
L 166.865968 275.689497 
L 167.426403 231.53948 
L 167.986837 273.402708 
L 168.547271 221.779911 
L 169.107705 267.56675 
L 169.668139 256.973212 
L 170.228573 264.959282 
L 170.789007 198.299462 
L 171.349441 274.838153 
L 171.909875 274.950408 
L 172.470309 249.292138 
L 173.030743 141.15226 
L 174.151611 252.651336 
L 174.712045 267.658636 
L 175.272479 275.356637 
L 175.832913 270.608535 
L 176.393347 243.407426 
L 176.953781 258.566609 
L 177.514215 268.807922 
L 178.074649 275.045347 
L 178.635083 270.413142 
L 179.755952 249.876448 
L 180.316386 248.242244 
L 180.87682 273.83479 
L 181.437254 275.43268 
L 181.997688 275.617277 
L 182.558122 272.297465 
L 183.118556 267.567885 
L 183.67899 205.612001 
L 184.239424 275.630469 
L 184.799858 255.484865 
L 185.360292 267.638449 
L 185.920726 270.179513 
L 186.48116 270.057709 
L 187.041594 239.515187 
L 187.602028 275.64838 
L 188.162462 261.366244 
L 188.722896 273.439286 
L 189.28333 274.819074 
L 189.843764 256.291899 
L 190.404198 195.053473 
L 190.964632 271.114738 
L 191.525066 263.542144 
L 192.085501 242.035471 
L 192.645935 269.810262 
L 193.206369 238.45493 
L 193.766803 274.607516 
L 194.327237 264.980689 
L 194.887671 274.29664 
L 195.448105 275.525856 
L 196.008539 231.280244 
L 196.568973 263.76091 
L 197.129407 243.448482 
L 197.689841 65.273244 
L 198.250275 224.995447 
L 198.810709 239.029688 
L 199.931577 275.06526 
L 200.492011 255.264031 
L 201.612879 273.983059 
L 202.173313 273.301938 
L 202.733747 247.829105 
L 203.294181 190.761574 
L 203.854616 242.052985 
L 204.41505 254.687776 
L 204.975484 217.279271 
L 205.535918 272.071364 
L 206.096352 261.394257 
L 206.656786 226.96438 
L 207.21722 275.038972 
L 207.777654 247.349642 
L 208.338088 275.613536 
L 208.898522 271.509322 
L 209.458956 270.139426 
L 210.01939 268.392849 
L 210.579824 244.58326 
L 211.700692 269.163215 
L 212.261126 215.707768 
L 212.82156 261.081947 
L 213.381994 273.425431 
L 213.942428 244.25352 
L 214.502862 242.457374 
L 215.063296 251.340733 
L 216.184165 166.207958 
L 216.744599 247.189778 
L 217.305033 264.865154 
L 217.865467 195.719765 
L 218.425901 272.72118 
L 218.986335 250.814316 
L 219.546769 271.497366 
L 220.107203 261.78524 
L 220.667637 274.177247 
L 221.228071 275.141464 
L 221.788505 275.227259 
L 222.348939 255.065955 
L 222.909373 261.681822 
L 223.469807 256.668883 
L 224.030241 235.859768 
L 224.590675 273.493808 
L 225.151109 275.579651 
L 225.711543 268.03196 
L 226.271977 274.653326 
L 226.832411 275.557003 
L 227.392845 268.176718 
L 227.953279 208.060816 
L 228.513714 275.512259 
L 229.074148 275.569592 
L 229.634582 190.286324 
L 230.195016 272.616965 
L 230.75545 265.122211 
L 231.315884 255.198823 
L 231.876318 274.076259 
L 232.436752 243.484718 
L 232.997186 273.871075 
L 233.55762 219.136308 
L 234.118054 272.44585 
L 234.678488 267.250199 
L 235.238922 270.701229 
L 235.799356 267.811686 
L 236.35979 223.021716 
L 236.920224 271.324202 
L 237.480658 257.294775 
L 238.041092 275.658726 
L 238.601526 272.515914 
L 239.16196 272.174604 
L 239.722394 254.438033 
L 240.282829 171.082698 
L 240.843263 273.505725 
L 241.403697 275.571556 
L 241.964131 275.342249 
L 242.524565 250.826636 
L 243.645433 271.867189 
L 244.205867 272.090104 
L 244.766301 257.473764 
L 245.887169 275.084187 
L 246.447603 217.671098 
L 247.008037 244.391301 
L 247.568471 193.060496 
L 248.128905 209.542651 
L 248.689339 272.752574 
L 249.249773 272.292187 
L 249.810207 262.209993 
L 250.370641 275.097765 
L 250.931075 273.806493 
L 251.491509 236.982947 
L 252.051943 232.267439 
L 252.612378 268.391983 
L 253.172812 204.747783 
L 253.733246 275.634741 
L 254.29368 274.441375 
L 254.854114 270.852709 
L 255.414548 270.747692 
L 255.974982 228.402051 
L 256.535416 257.274273 
L 257.09585 236.647848 
L 257.656284 274.819956 
L 258.216718 266.625577 
L 258.777152 262.096209 
L 259.337586 273.56783 
L 259.89802 275.510736 
L 260.458454 245.483271 
L 261.018888 275.430717 
L 261.579322 270.014813 
L 262.139756 168.777608 
L 262.70019 171.672027 
L 263.260624 233.668697 
L 264.381492 267.985936 
L 264.941927 274.802884 
L 265.502361 211.238358 
L 266.062795 275.09705 
L 266.623229 274.045233 
L 267.183663 272.045236 
L 267.744097 191.587503 
L 268.304531 274.526305 
L 268.864965 275.681944 
L 269.425399 256.759225 
L 269.985833 233.043892 
L 270.546267 275.476925 
L 271.106701 239.990112 
L 271.667135 194.08196 
L 272.227569 266.327024 
L 273.348437 137.28292 
L 273.908871 260.144798 
L 274.469305 185.415972 
L 275.029739 266.347082 
L 275.590173 259.477852 
L 276.150607 233.688583 
L 276.711042 269.48432 
L 277.271476 231.331743 
L 277.83191 275.443412 
L 278.392344 275.163188 
L 278.952778 259.765808 
L 279.513212 226.944253 
L 280.073646 274.105175 
L 280.63408 241.859504 
L 281.194514 267.881129 
L 281.754948 184.199437 
L 282.315382 260.453173 
L 282.875816 271.364909 
L 283.43625 213.027492 
L 284.557118 264.996066 
L 285.117552 184.6574 
L 285.677986 269.295073 
L 286.23842 275.61099 
L 286.798854 256.949131 
L 287.359288 272.557164 
L 287.919722 270.189206 
L 288.480156 192.225295 
L 289.040591 273.059211 
L 289.601025 268.660769 
L 290.161459 255.03198 
L 290.721893 113.102807 
L 291.282327 227.861006 
L 291.842761 231.267105 
L 292.403195 183.253276 
L 292.963629 275.446338 
L 293.524063 201.514436 
L 294.084497 255.978047 
L 294.644931 269.837439 
L 295.205365 257.311306 
L 295.765799 260.098622 
L 296.326233 274.067009 
L 296.886667 205.578256 
L 297.447101 271.174108 
L 298.007535 262.602954 
L 299.128403 227.041716 
L 299.688837 187.632466 
L 300.249271 236.499763 
L 300.809705 259.148088 
L 301.37014 253.904238 
L 301.930574 275.460736 
L 302.491008 179.49411 
L 303.051442 271.607604 
L 303.611876 123.853472 
L 304.17231 255.006243 
L 304.732744 63.193848 
L 305.293178 275.120146 
L 306.414046 159.572863 
L 306.97448 208.10442 
L 307.534914 273.063518 
L 308.095348 155.603308 
L 308.655782 260.919353 
L 309.216216 261.569417 
L 309.77665 91.001615 
L 310.337084 245.481803 
L 310.897518 258.550673 
L 311.457952 189.930626 
L 312.018386 271.237844 
L 312.57882 249.313581 
L 313.139255 264.580962 
L 313.699689 273.23665 
L 314.260123 272.677224 
L 314.820557 205.34395 
L 315.380991 264.176481 
L 315.941425 275.577843 
L 316.501859 268.948233 
L 317.062293 193.75019 
L 317.622727 230.253399 
L 318.183161 223.904211 
L 318.743595 270.25665 
L 319.864463 238.231269 
L 320.424897 251.394306 
L 320.985331 117.692552 
L 321.545765 274.886185 
L 322.106199 275.450945 
L 322.666633 250.23493 
L 323.227067 275.533588 
L 323.787501 186.718839 
L 324.347935 43.574511 
L 324.908369 219.918925 
L 326.029238 274.058445 
L 326.589672 219.014832 
L 327.150106 275.413276 
L 327.71054 275.457703 
L 328.270974 240.871019 
L 328.831408 226.403134 
L 329.391842 270.0667 
L 329.952276 265.184378 
L 330.51271 253.196267 
L 331.073144 270.941114 
L 331.633578 275.132893 
L 332.194012 275.54657 
L 332.754446 238.255728 
L 333.31488 248.94606 
L 333.875314 241.192408 
L 334.435748 268.747668 
L 334.996182 275.273225 
L 335.556616 81.944065 
L 336.11705 267.494707 
L 336.677484 271.120419 
L 337.237918 261.9065 
L 337.798353 265.487577 
L 338.358787 275.655831 
L 338.919221 253.171401 
L 339.479655 203.340512 
L 339.479655 203.340512 
" clip-path="url(#pdcac270fb9)" style="fill: none; stroke: #4878d0; stroke-width: 1.5; stroke-linecap: round"/>
   </g>
   <g id="line2d_15">
    <path d="M 59.823066 274.444874 
L 60.3835 252.922929 
L 60.943934 251.060253 
L 61.504368 224.538726 
L 62.064802 265.869819 
L 62.625236 264.421488 
L 63.18567 274.752513 
L 63.746104 147.671103 
L 64.306538 272.008726 
L 64.866972 247.669146 
L 65.427406 161.149567 
L 65.98784 249.328252 
L 66.548274 170.394871 
L 67.108708 250.197345 
L 67.669142 241.118913 
L 68.79001 216.172872 
L 69.350444 256.960726 
L 69.910878 275.624206 
L 70.471313 267.468114 
L 71.031747 197.104307 
L 71.592181 255.521254 
L 72.152615 248.969799 
L 72.713049 236.858306 
L 73.273483 272.081894 
L 73.833917 147.179244 
L 74.394351 249.277441 
L 74.954785 270.848284 
L 75.515219 273.064104 
L 76.075653 220.126735 
L 76.636087 275.615926 
L 77.196521 273.112655 
L 77.756955 275.444103 
L 78.317389 262.280653 
L 78.877823 262.414438 
L 79.438257 258.829474 
L 79.998691 222.715382 
L 80.559125 265.194276 
L 81.119559 260.345915 
L 81.679993 275.525005 
L 82.240428 236.979785 
L 82.800862 264.780632 
L 83.361296 226.720412 
L 83.92173 258.179924 
L 84.482164 185.212988 
L 85.042598 258.275125 
L 85.603032 92.462538 
L 86.163466 222.137 
L 86.7239 242.608888 
L 87.284334 271.291724 
L 87.844768 180.626303 
L 88.405202 271.787411 
L 88.965636 253.432896 
L 89.52607 274.240083 
L 90.086504 209.769969 
L 90.646938 250.754869 
L 91.207372 251.829365 
L 91.767806 266.11827 
L 92.32824 159.479865 
L 92.888674 188.783421 
L 93.449108 246.278964 
L 94.009542 260.520539 
L 94.569977 270.855747 
L 95.130411 274.158943 
L 95.690845 196.679062 
L 96.251279 274.473604 
L 96.811713 24.167105 
L 97.372147 252.388198 
L 97.932581 273.10551 
L 98.493015 215.403156 
L 99.053449 196.579536 
L 99.613883 275.56128 
L 100.174317 275.384496 
L 100.734751 247.302565 
L 101.295185 266.821707 
L 101.855619 261.173335 
L 102.416053 240.109341 
L 102.976487 237.232149 
L 103.536921 274.927532 
L 104.097355 271.278599 
L 104.657789 237.021119 
L 105.218223 236.659332 
L 106.339091 270.383916 
L 106.899526 274.833309 
L 107.45996 259.149088 
L 108.020394 275.234274 
L 108.580828 274.126022 
L 109.701696 132.62996 
L 110.26213 274.024685 
L 110.822564 273.637751 
L 111.382998 252.075505 
L 111.943432 272.560382 
L 112.503866 244.799197 
L 113.0643 274.331077 
L 114.185168 265.3599 
L 114.745602 271.899361 
L 115.306036 265.32612 
L 115.86647 275.424483 
L 116.426904 248.804785 
L 116.987338 274.92518 
L 117.547772 275.426876 
L 118.108206 273.873514 
L 118.668641 275.364684 
L 119.229075 177.744565 
L 119.789509 223.491281 
L 120.910377 269.112787 
L 121.470811 273.666752 
L 122.031245 260.534616 
L 122.591679 275.63873 
L 123.152113 263.568688 
L 123.712547 200.497811 
L 124.272981 271.084343 
L 124.833415 275.432472 
L 125.393849 274.739607 
L 126.514717 240.5962 
L 127.075151 25.684221 
L 127.635585 235.969611 
L 128.196019 176.638597 
L 128.756453 264.764489 
L 129.316887 251.119382 
L 129.877321 252.898271 
L 130.437755 274.230969 
L 130.99819 225.467934 
L 131.558624 273.16011 
L 132.119058 266.230509 
L 132.679492 269.804903 
L 133.239926 259.40378 
L 133.80036 275.304151 
L 134.360794 265.441294 
L 134.921228 270.498809 
L 135.481662 219.699359 
L 136.042096 262.455862 
L 136.60253 275.570482 
L 137.162964 261.020141 
L 137.723398 206.453838 
L 138.283832 274.713569 
L 138.844266 218.742607 
L 139.965134 275.38743 
L 140.525568 273.246729 
L 141.086002 111.949675 
L 141.646436 275.313132 
L 142.20687 258.986029 
L 142.767304 275.628687 
L 143.327739 253.732176 
L 143.888173 270.161575 
L 144.448607 274.48578 
L 145.009041 260.842647 
L 145.569475 194.375519 
L 146.129909 275.081966 
L 146.690343 272.586276 
L 147.250777 275.634101 
L 147.811211 269.339577 
L 148.371645 268.204414 
L 148.932079 275.548677 
L 149.492513 275.403229 
L 150.052947 275.605549 
L 150.613381 260.246138 
L 151.173815 275.1809 
L 151.734249 191.643977 
L 152.294683 271.534727 
L 152.855117 271.075377 
L 153.415551 255.044899 
L 153.975985 203.022009 
L 154.536419 169.852225 
L 155.096854 242.265262 
L 155.657288 257.75214 
L 156.217722 264.458487 
L 156.778156 122.439373 
L 157.33859 251.936962 
L 157.899024 270.978067 
L 158.459458 273.5785 
L 159.019892 239.650135 
L 159.580326 275.560167 
L 160.14076 243.225274 
L 160.701194 248.45843 
L 161.261628 216.868436 
L 161.822062 89.926973 
L 162.382496 258.307455 
L 162.94293 245.248086 
L 163.503364 273.014215 
L 164.063798 275.608146 
L 164.624232 274.105825 
L 165.184666 250.58087 
L 165.7451 212.464985 
L 166.305534 274.734842 
L 166.865968 275.637367 
L 167.426403 231.614828 
L 167.986837 273.361147 
L 168.547271 221.7962 
L 169.107705 267.538477 
L 169.668139 256.942966 
L 170.228573 264.956586 
L 170.789007 198.320983 
L 171.349441 274.861415 
L 171.909875 274.89471 
L 172.470309 249.261225 
L 173.030743 141.268661 
L 174.151611 252.636831 
L 174.712045 267.627332 
L 175.272479 275.320915 
L 175.832913 270.569358 
L 176.393347 243.431802 
L 176.953781 258.546531 
L 177.514215 268.784154 
L 178.074649 274.995193 
L 178.635083 270.36569 
L 179.755952 249.968506 
L 180.316386 248.212181 
L 180.87682 273.927215 
L 181.437254 275.500243 
L 181.997688 275.559066 
L 182.558122 272.253783 
L 183.118556 267.523197 
L 183.67899 205.637913 
L 184.239424 275.617471 
L 184.799858 255.449016 
L 185.360292 267.635823 
L 185.920726 270.142336 
L 186.48116 270.017412 
L 187.041594 239.551528 
L 187.602028 275.622899 
L 188.162462 261.396083 
L 188.722896 273.39877 
L 189.28333 274.794309 
L 189.843764 256.262741 
L 190.404198 195.081453 
L 190.964632 271.104553 
L 191.525066 263.499058 
L 192.085501 242.013942 
L 192.645935 269.776213 
L 193.206369 238.550576 
L 193.766803 274.560907 
L 194.327237 264.955423 
L 194.887671 274.25032 
L 195.448105 275.483784 
L 196.008539 231.294089 
L 196.568973 263.796401 
L 197.129407 243.421171 
L 197.689841 65.398452 
L 198.250275 225.100472 
L 198.810709 239.012518 
L 199.931577 275.104372 
L 200.492011 255.226502 
L 201.612879 273.977271 
L 202.173313 273.259551 
L 202.733747 247.841089 
L 203.294181 190.781694 
L 203.854616 242.054901 
L 204.41505 254.712356 
L 204.975484 217.286635 
L 205.535918 272.037885 
L 206.096352 261.416036 
L 206.656786 226.951156 
L 207.21722 275.050026 
L 207.777654 247.318863 
L 208.338088 275.614881 
L 208.898522 271.488395 
L 209.458956 270.09396 
L 210.01939 268.361932 
L 210.579824 244.593018 
L 211.700692 269.121169 
L 212.261126 215.7493 
L 212.82156 261.065715 
L 213.381994 273.377865 
L 213.942428 244.233578 
L 214.502862 242.50879 
L 215.063296 251.354617 
L 216.184165 166.273093 
L 216.744599 247.189257 
L 217.305033 264.833334 
L 217.865467 195.736141 
L 218.425901 272.698558 
L 218.986335 250.782328 
L 219.546769 271.503486 
L 220.107203 261.744229 
L 220.667637 274.130628 
L 221.228071 275.098747 
L 221.788505 275.176238 
L 222.348939 255.038232 
L 222.909373 261.708178 
L 223.469807 256.704545 
L 224.030241 235.877317 
L 224.590675 273.454304 
L 225.151109 275.569024 
L 225.711543 267.999841 
L 226.271977 274.605971 
L 226.832411 275.505441 
L 227.392845 268.130902 
L 227.953279 208.064807 
L 228.513714 275.503142 
L 229.074148 275.549332 
L 229.634582 190.357719 
L 230.195016 272.588425 
L 230.75545 265.078765 
L 231.315884 255.235949 
L 231.876318 274.059044 
L 232.436752 243.457749 
L 232.997186 273.830676 
L 233.55762 219.2555 
L 234.118054 272.415515 
L 234.678488 267.215682 
L 235.238922 270.664733 
L 235.799356 267.766869 
L 236.35979 223.013662 
L 236.920224 271.426497 
L 237.480658 257.259669 
L 238.041092 275.62916 
L 238.601526 272.466158 
L 239.16196 272.154364 
L 239.722394 254.402918 
L 240.282829 171.183814 
L 240.843263 273.489429 
L 241.403697 275.61283 
L 241.964131 275.302757 
L 242.524565 250.81909 
L 243.645433 271.822013 
L 244.205867 272.060267 
L 244.766301 257.552419 
L 245.887169 275.073009 
L 246.447603 217.6744 
L 247.008037 244.385807 
L 247.568471 193.081158 
L 248.128905 209.573252 
L 248.689339 272.725775 
L 249.249773 272.245127 
L 249.810207 262.212825 
L 250.370641 275.081896 
L 250.931075 273.787842 
L 251.491509 236.975141 
L 252.051943 232.302336 
L 252.612378 268.379984 
L 253.172812 204.7511 
L 253.733246 275.613502 
L 254.29368 274.431978 
L 254.854114 270.802532 
L 255.414548 270.734674 
L 255.974982 228.397128 
L 256.535416 257.312881 
L 257.09585 236.636208 
L 257.656284 274.803525 
L 258.216718 266.593994 
L 258.777152 262.056766 
L 259.337586 273.523282 
L 259.89802 275.498538 
L 260.458454 245.461113 
L 261.018888 275.387759 
L 261.579322 270.005943 
L 262.139756 168.808677 
L 262.70019 171.734941 
L 263.260624 233.688703 
L 264.381492 267.959331 
L 264.941927 274.771466 
L 265.502361 211.240213 
L 266.062795 275.078344 
L 266.623229 274.002065 
L 267.183663 272.13005 
L 267.744097 191.604136 
L 268.304531 274.533194 
L 268.864965 275.63646 
L 269.425399 256.767745 
L 269.985833 233.03625 
L 270.546267 275.438238 
L 271.106701 240.02127 
L 271.667135 194.101915 
L 272.227569 266.324234 
L 273.348437 137.480138 
L 273.908871 260.140524 
L 274.469305 185.444471 
L 275.029739 266.32729 
L 275.590173 259.443984 
L 276.150607 233.684987 
L 276.711042 269.448268 
L 277.271476 231.327177 
L 277.83191 275.436191 
L 278.392344 275.173639 
L 278.952778 259.748169 
L 279.513212 226.980038 
L 280.073646 274.083307 
L 280.63408 241.832439 
L 281.194514 267.853062 
L 281.754948 184.24261 
L 282.315382 260.441932 
L 282.875816 271.338594 
L 283.43625 213.025633 
L 284.557118 264.963096 
L 285.117552 184.8129 
L 285.677986 269.268489 
L 286.23842 275.558928 
L 286.798854 256.915498 
L 287.359288 272.520247 
L 287.919722 270.145949 
L 288.480156 192.316689 
L 289.040591 273.02847 
L 289.601025 268.61806 
L 290.161459 255.020368 
L 290.721893 113.196737 
L 291.282327 227.896 
L 291.842761 231.274437 
L 292.403195 183.294189 
L 292.963629 275.419379 
L 293.524063 201.565576 
L 294.084497 255.980538 
L 294.644931 269.809117 
L 295.205365 257.2784 
L 295.765799 260.077271 
L 296.326233 274.020953 
L 296.886667 205.591077 
L 297.447101 271.145308 
L 298.007535 262.579282 
L 299.128403 227.044406 
L 299.688837 187.766747 
L 300.249271 236.503212 
L 300.809705 259.120181 
L 301.37014 253.916767 
L 301.930574 275.43094 
L 302.491008 179.520514 
L 303.051442 271.586398 
L 303.611876 123.964655 
L 304.17231 255.015483 
L 304.732744 63.365376 
L 305.293178 275.129573 
L 306.414046 159.636253 
L 306.97448 208.150987 
L 307.534914 273.066471 
L 308.095348 155.676357 
L 308.655782 261.025817 
L 309.216216 261.540908 
L 309.77665 91.098125 
L 310.337084 245.539658 
L 310.897518 258.517271 
L 311.457952 189.950397 
L 312.018386 271.215692 
L 312.57882 249.284536 
L 313.139255 264.545989 
L 313.699689 273.198261 
L 314.260123 272.630504 
L 314.820557 205.348818 
L 315.380991 264.218191 
L 315.941425 275.526433 
L 316.501859 268.901489 
L 317.062293 193.76434 
L 317.622727 230.288681 
L 318.183161 223.911158 
L 318.743595 270.22358 
L 319.864463 238.209853 
L 320.424897 251.379205 
L 320.985331 117.813967 
L 321.545765 274.878244 
L 322.106199 275.477134 
L 322.666633 250.201913 
L 323.227067 275.556705 
L 323.787501 186.741883 
L 324.347935 43.817187 
L 324.908369 219.969297 
L 326.029238 274.0282 
L 326.589672 219.009383 
L 327.150106 275.404926 
L 327.71054 275.426549 
L 328.270974 240.897213 
L 328.831408 226.426016 
L 329.391842 270.031305 
L 329.952276 265.154979 
L 330.51271 253.194892 
L 331.073144 270.907697 
L 331.633578 275.142785 
L 332.194012 275.491388 
L 332.754446 238.234109 
L 333.31488 248.933437 
L 333.875314 241.243186 
L 334.435748 268.707987 
L 334.996182 275.222902 
L 335.556616 82.081065 
L 336.11705 267.503286 
L 336.677484 271.128302 
L 337.237918 261.865785 
L 337.798353 265.449016 
L 338.358787 275.623246 
L 338.919221 253.177174 
L 339.479655 203.359861 
L 339.479655 203.359861 
" clip-path="url(#pdcac270fb9)" style="fill: none; stroke: #ee854a; stroke-width: 0.7; stroke-linecap: round"/>
   </g>
   <g id="line2d_16">
    <path d="M 59.823066 219.478713 
L 60.3835 249.622572 
L 60.943934 265.764764 
L 61.504368 274.877277 
L 62.064802 250.856309 
L 62.625236 239.918697 
L 63.18567 282.682783 
L 63.746104 285.994254 
L 64.306538 195.004598 
L 64.866972 285.165316 
L 65.427406 267.039654 
L 65.98784 232.302446 
L 66.548274 268.890192 
L 67.108708 187.34397 
L 67.669142 266.647961 
L 68.229576 268.734594 
L 68.79001 264.490512 
L 69.350444 240.987204 
L 69.910878 271.470314 
L 70.471313 208.965962 
L 71.031747 277.833443 
L 71.592181 243.740754 
L 72.152615 276.018222 
L 72.713049 270.241903 
L 73.273483 253.944929 
L 73.833917 285.566582 
L 74.394351 161.375067 
L 75.515219 248.730983 
L 76.075653 273.575113 
L 76.636087 259.858641 
L 77.196521 280.789132 
L 77.756955 270.473074 
L 78.317389 288.051831 
L 78.877823 234.174934 
L 79.438257 267.587415 
L 79.998691 226.1839 
L 81.119559 257.089391 
L 81.679993 239.524648 
L 82.240428 276.984983 
L 82.800862 246.963532 
L 83.361296 266.927001 
L 83.92173 242.235981 
L 84.482164 275.342501 
L 85.042598 231.733215 
L 85.603032 246.974934 
L 86.163466 194.89774 
L 86.7239 179.459016 
L 87.284334 271.751668 
L 87.844768 265.757945 
L 88.405202 241.134242 
L 88.965636 246.385771 
L 89.52607 138.873376 
L 90.086504 286.881732 
L 90.646938 256.029146 
L 91.207372 209.924217 
L 91.767806 251.413541 
L 92.32824 283.492794 
L 93.449108 150.343679 
L 94.569977 279.947121 
L 95.130411 273.048548 
L 95.690845 275.778749 
L 96.251279 192.393874 
L 96.811713 261.708804 
L 97.372147 160.610408 
L 97.932581 203.844955 
L 98.493015 286.742607 
L 99.053449 239.220982 
L 99.613883 178.891814 
L 100.174317 274.730313 
L 100.734751 285.000651 
L 101.295185 269.581232 
L 101.855619 283.230033 
L 102.416053 260.059499 
L 102.976487 270.891729 
L 103.536921 261.445608 
L 104.097355 287.871051 
L 104.657789 283.786831 
L 105.218223 263.427088 
L 105.778657 247.88153 
L 106.339091 210.615276 
L 106.899526 242.959106 
L 107.45996 287.050006 
L 108.020394 269.648222 
L 108.580828 284.930172 
L 109.141262 219.920659 
L 109.701696 247.083779 
L 110.26213 203.126001 
L 110.822564 193.561006 
L 111.382998 285.452775 
L 111.943432 253.781405 
L 112.503866 286.455633 
L 113.0643 148.504039 
L 113.624734 270.728387 
L 114.185168 268.53844 
L 114.745602 271.952477 
L 115.306036 260.219568 
L 115.86647 131.301092 
L 116.426904 287.818917 
L 116.987338 203.709331 
L 117.547772 287.103076 
L 118.108206 282.498206 
L 118.668641 286.423616 
L 119.229075 287.841461 
L 119.789509 207.344965 
L 120.349943 208.548497 
L 120.910377 273.666912 
L 121.470811 175.583556 
L 122.031245 267.709253 
L 122.591679 278.57846 
L 123.152113 278.097689 
L 123.712547 278.886499 
L 124.272981 231.74453 
L 124.833415 285.332169 
L 125.393849 284.932247 
L 125.954283 250.500314 
L 126.514717 278.951365 
L 127.075151 254.076722 
L 127.635585 157.351249 
L 128.196019 162.742923 
L 128.756453 232.687258 
L 129.316887 267.985136 
L 129.877321 274.461393 
L 130.437755 241.261239 
L 130.99819 282.111275 
L 131.558624 233.097744 
L 132.119058 285.189255 
L 132.679492 161.420504 
L 133.239926 280.385595 
L 133.80036 245.799984 
L 134.360794 250.819143 
L 134.921228 277.693882 
L 135.481662 262.290973 
L 136.042096 258.904941 
L 136.60253 252.821616 
L 137.162964 269.15275 
L 137.723398 252.285973 
L 138.283832 248.19065 
L 138.844266 225.759041 
L 139.4047 221.560371 
L 139.965134 268.297912 
L 140.525568 287.745436 
L 141.086002 278.92861 
L 141.646436 154.925141 
L 142.20687 287.878063 
L 142.767304 240.797535 
L 143.327739 280.437252 
L 143.888173 253.571025 
L 144.448607 197.195061 
L 145.009041 237.191366 
L 145.569475 251.314537 
L 146.129909 238.255215 
L 146.690343 251.554676 
L 147.250777 286.64126 
L 147.811211 280.763364 
L 148.371645 253.884203 
L 148.932079 284.150985 
L 149.492513 216.232651 
L 150.052947 271.489833 
L 150.613381 146.426389 
L 151.173815 276.730603 
L 151.734249 213.779657 
L 152.294683 214.880991 
L 152.855117 285.009762 
L 153.415551 262.838762 
L 153.975985 214.726574 
L 154.536419 252.429706 
L 155.096854 230.722833 
L 155.657288 253.229415 
L 156.217722 233.200111 
L 156.778156 218.265434 
L 157.33859 184.657017 
L 157.899024 276.535082 
L 158.459458 91.910344 
L 159.019892 284.037377 
L 159.580326 266.722014 
L 160.14076 272.285075 
L 160.701194 261.745604 
L 161.261628 245.79562 
L 161.822062 243.496744 
L 162.382496 171.615436 
L 162.94293 279.401457 
L 163.503364 222.363327 
L 164.063798 269.008696 
L 164.624232 272.281589 
L 165.184666 139.214326 
L 165.7451 275.245657 
L 166.305534 237.260847 
L 166.865968 285.58949 
L 167.426403 173.515032 
L 167.986837 265.019662 
L 168.547271 254.466147 
L 169.107705 257.651167 
L 169.668139 276.80743 
L 170.228573 234.688116 
L 170.789007 267.716168 
L 171.349441 184.427414 
L 171.909875 287.616165 
L 172.470309 287.835836 
L 173.030743 206.523752 
L 173.591177 171.522825 
L 174.151611 247.411719 
L 174.712045 265.143357 
L 175.272479 266.282105 
L 175.832913 276.270211 
L 176.393347 223.859661 
L 176.953781 257.374865 
L 177.514215 256.113211 
L 178.074649 284.062302 
L 178.635083 287.701395 
L 179.195517 278.370391 
L 179.755952 132.494695 
L 180.316386 275.200957 
L 180.87682 107.15825 
L 181.437254 129.98037 
L 181.997688 286.94981 
L 182.558122 281.465685 
L 183.118556 286.497807 
L 184.239424 228.988383 
L 184.799858 284.594873 
L 185.360292 232.269745 
L 185.920726 271.138834 
L 186.48116 277.76296 
L 187.041594 212.827546 
L 187.602028 246.373033 
L 188.162462 198.686956 
L 188.722896 269.284516 
L 189.28333 254.289579 
L 189.843764 276.922187 
L 190.404198 264.161504 
L 190.964632 228.741005 
L 191.525066 285.133423 
L 192.085501 281.51828 
L 192.645935 267.008435 
L 193.206369 139.822218 
L 193.766803 269.065061 
L 194.327237 264.557637 
L 194.887671 280.016584 
L 195.448105 275.765559 
L 196.008539 249.242534 
L 196.568973 183.445747 
L 197.129407 281.338986 
L 197.689841 267.697983 
L 198.250275 113.109208 
L 198.810709 263.576489 
L 199.371143 210.340141 
L 199.931577 169.44357 
L 200.492011 283.298851 
L 201.052445 272.516513 
L 201.612879 230.684622 
L 202.173313 275.35332 
L 202.733747 235.234012 
L 203.294181 274.408784 
L 204.41505 206.752428 
L 204.975484 263.841141 
L 205.535918 259.674516 
L 206.096352 208.923514 
L 206.656786 281.009208 
L 207.21722 204.063045 
L 207.777654 284.631322 
L 208.338088 218.534135 
L 209.458956 283.014765 
L 210.01939 268.46157 
L 210.579824 240.040357 
L 211.140258 270.748327 
L 211.700692 278.89972 
L 212.261126 229.343113 
L 212.82156 246.701887 
L 213.381994 280.807472 
L 213.942428 278.517929 
L 214.502862 187.833691 
L 215.063296 220.085473 
L 215.62373 230.167136 
L 216.184165 236.381279 
L 216.744599 234.282265 
L 217.305033 266.951907 
L 217.865467 278.468481 
L 218.425901 243.509081 
L 218.986335 284.78467 
L 219.546769 217.094045 
L 220.107203 283.628954 
L 220.667637 281.182794 
L 221.228071 276.988021 
L 221.788505 287.064641 
L 222.348939 278.318577 
L 222.909373 201.74238 
L 223.469807 191.466563 
L 224.590675 266.471669 
L 225.151109 235.909072 
L 225.711543 268.266017 
L 226.271977 281.588126 
L 226.832411 287.619947 
L 227.392845 288.118125 
L 227.953279 283.569376 
L 228.513714 226.10648 
L 229.074148 245.729362 
L 229.634582 215.873271 
L 230.195016 246.492321 
L 230.75545 285.302327 
L 231.315884 196.478085 
L 232.436752 285.568769 
L 232.997186 271.380727 
L 233.55762 130.167114 
L 234.118054 247.795434 
L 234.678488 272.259335 
L 235.238922 272.101017 
L 235.799356 285.649882 
L 236.35979 283.828995 
L 236.920224 94.411557 
L 237.480658 273.402065 
L 238.041092 257.436212 
L 238.601526 287.035167 
L 239.16196 252.166002 
L 239.722394 285.592511 
L 240.282829 197.103594 
L 240.843263 226.736557 
L 241.403697 169.370084 
L 241.964131 266.402941 
L 242.524565 256.249842 
L 243.645433 280.591754 
L 244.205867 263.65164 
L 244.766301 142.592506 
L 245.326735 262.979466 
L 245.887169 235.914015 
L 246.447603 273.014892 
L 247.008037 252.379029 
L 247.568471 272.056392 
L 248.128905 237.939992 
L 248.689339 248.157237 
L 249.249773 282.963472 
L 249.810207 232.979411 
L 250.931075 246.166692 
L 251.491509 268.536258 
L 252.051943 216.516861 
L 252.612378 235.927319 
L 253.172812 284.552813 
L 253.733246 240.589402 
L 254.29368 234.257094 
L 254.854114 287.628356 
L 255.414548 244.418123 
L 255.974982 272.735047 
L 256.535416 186.844434 
L 257.09585 267.829262 
L 257.656284 238.827743 
L 258.216718 269.027404 
L 258.777152 283.781094 
L 259.337586 279.262104 
L 259.89802 238.682687 
L 260.458454 277.875554 
L 261.018888 272.86367 
L 261.579322 239.751468 
L 262.139756 285.409784 
L 262.70019 231.98153 
L 263.260624 222.440321 
L 263.821058 253.649537 
L 264.381492 259.353677 
L 264.941927 261.202294 
L 265.502361 282.466979 
L 266.062795 238.743332 
L 266.623229 276.228561 
L 267.183663 121.902581 
L 267.744097 274.57007 
L 268.304531 204.462783 
L 268.864965 275.412854 
L 269.425399 231.22459 
L 269.985833 268.910629 
L 270.546267 265.294087 
L 271.106701 218.790661 
L 271.667135 269.359306 
L 272.227569 224.38892 
L 272.788003 275.172339 
L 273.348437 102.15983 
L 273.908871 214.517688 
L 274.469305 269.674459 
L 275.029739 244.228409 
L 275.590173 277.907508 
L 276.150607 266.408201 
L 276.711042 267.763569 
L 277.271476 270.66322 
L 277.83191 226.269668 
L 278.392344 208.132878 
L 278.952778 256.6434 
L 279.513212 222.992924 
L 280.073646 242.267206 
L 280.63408 287.460654 
L 281.194514 261.79743 
L 281.754948 256.549596 
L 282.315382 238.401856 
L 282.875816 255.934015 
L 283.43625 284.552265 
L 283.996684 251.109229 
L 284.557118 267.810466 
L 285.117552 117.115792 
L 285.677986 240.683352 
L 286.23842 285.031693 
L 286.798854 283.743318 
L 287.359288 270.090299 
L 287.919722 281.561472 
L 288.480156 190.634694 
L 289.040591 247.56866 
L 289.601025 281.100384 
L 290.161459 257.167185 
L 290.721893 260.367999 
L 291.282327 203.11993 
L 291.842761 246.465854 
L 292.403195 254.31547 
L 293.524063 229.917122 
L 294.084497 226.548426 
L 294.644931 258.576739 
L 295.205365 280.140342 
L 295.765799 262.702869 
L 296.326233 279.128859 
L 296.886667 275.325849 
L 297.447101 253.818831 
L 298.007535 263.507872 
L 298.567969 269.349484 
L 299.128403 262.703309 
L 299.688837 134.969324 
L 300.249271 236.661472 
L 300.809705 266.298974 
L 301.37014 226.210549 
L 302.491008 282.466936 
L 303.051442 240.835654 
L 303.611876 229.980026 
L 304.17231 208.452836 
L 304.732744 209.715871 
L 305.293178 179.253069 
L 305.853612 287.971382 
L 306.97448 213.638282 
L 307.534914 209.420794 
L 308.095348 244.831581 
L 308.655782 87.718141 
L 309.216216 259.285028 
L 309.77665 279.559087 
L 310.337084 155.912719 
L 310.897518 270.148206 
L 311.457952 279.173766 
L 312.018386 243.604664 
L 312.57882 282.396859 
L 313.139255 274.255778 
L 313.699689 271.744505 
L 314.260123 283.631732 
L 314.820557 285.465987 
L 315.380991 173.919973 
L 315.941425 279.61866 
L 316.501859 288.049843 
L 317.062293 284.928103 
L 317.622727 213.003673 
L 318.183161 254.964656 
L 318.743595 261.303433 
L 319.304029 54.783488 
L 319.864463 269.979859 
L 320.424897 260.148167 
L 320.985331 221.617583 
L 321.545765 209.165164 
L 322.106199 187.297989 
L 322.666633 283.678959 
L 323.227067 192.026151 
L 323.787501 275.961617 
L 324.347935 135.226499 
L 324.908369 174.817695 
L 325.468804 229.436009 
L 326.589672 283.571131 
L 327.150106 226.760922 
L 327.71054 259.34206 
L 328.270974 223.72845 
L 328.831408 234.9369 
L 329.391842 263.528702 
L 329.952276 268.522738 
L 330.51271 245.05511 
L 331.073144 264.521725 
L 331.633578 210.48935 
L 332.194012 287.979116 
L 332.754446 287.097974 
L 333.31488 260.463737 
L 333.875314 189.424021 
L 334.435748 269.455665 
L 334.996182 284.832241 
L 336.11705 192.131031 
L 336.677484 212.105032 
L 337.237918 282.798525 
L 337.798353 279.577449 
L 338.358787 262.668969 
L 338.919221 237.333932 
L 339.479655 264.068544 
L 339.479655 264.068544 
" clip-path="url(#pdcac270fb9)" style="fill: none; stroke: #6acc64; stroke-width: 1.5; stroke-linecap: round"/>
   </g>
   <g id="line2d_17">
    <path d="M 59.823066 219.478669 
L 60.3835 249.621886 
L 60.943934 265.763688 
L 61.504368 274.87685 
L 62.064802 250.8556 
L 62.625236 239.918108 
L 63.18567 282.67998 
L 63.746104 285.996058 
L 64.306538 195.006751 
L 64.866972 285.163302 
L 65.427406 267.042008 
L 65.98784 232.30371 
L 66.548274 268.892035 
L 67.108708 187.347044 
L 67.669142 266.647168 
L 68.229576 268.734398 
L 68.79001 264.49106 
L 69.350444 240.987313 
L 69.910878 271.468023 
L 70.471313 208.966522 
L 71.031747 277.8337 
L 71.592181 243.740992 
L 72.152615 276.01676 
L 72.713049 270.241243 
L 73.273483 253.943739 
L 73.833917 285.568415 
L 74.394351 161.379518 
L 75.515219 248.729585 
L 76.075653 273.574691 
L 76.636087 259.857219 
L 77.196521 280.786395 
L 77.756955 270.470739 
L 78.317389 288.049207 
L 78.877823 234.174749 
L 79.438257 267.585863 
L 79.998691 226.185552 
L 81.119559 257.088216 
L 81.679993 239.523713 
L 82.240428 276.983744 
L 82.800862 246.962924 
L 83.361296 266.926683 
L 83.92173 242.2359 
L 84.482164 275.343445 
L 85.042598 231.73397 
L 85.603032 246.980571 
L 86.163466 194.902225 
L 86.7239 179.462149 
L 87.284334 271.749575 
L 87.844768 265.75939 
L 88.405202 241.134109 
L 88.965636 246.385257 
L 89.52607 138.876838 
L 90.086504 286.880975 
L 90.646938 256.028936 
L 91.207372 209.925523 
L 91.767806 251.412472 
L 92.32824 283.494297 
L 93.449108 150.348257 
L 94.569977 279.94459 
L 95.130411 273.046169 
L 95.690845 275.779135 
L 96.251279 192.395591 
L 96.811713 261.716185 
L 97.372147 160.615849 
L 97.932581 203.845581 
L 98.493015 286.741739 
L 99.053449 239.223481 
L 99.613883 178.894016 
L 100.174317 274.727644 
L 100.734751 284.998728 
L 101.295185 269.579498 
L 101.855619 283.227737 
L 102.416053 260.059052 
L 102.976487 270.891086 
L 103.536921 261.443987 
L 104.097355 287.868083 
L 104.657789 283.785398 
L 105.218223 263.426842 
L 105.778657 247.881234 
L 106.339091 210.615807 
L 106.899526 242.957901 
L 107.45996 287.047518 
L 108.020394 269.646061 
L 108.580828 284.927233 
L 109.141262 219.923168 
L 109.701696 247.08837 
L 110.26213 203.127819 
L 110.822564 193.561922 
L 111.382998 285.450564 
L 111.943432 253.780088 
L 112.503866 286.453742 
L 113.0643 148.507211 
L 113.624734 270.726059 
L 114.185168 268.53658 
L 114.745602 271.950266 
L 115.306036 260.218049 
L 115.86647 131.304729 
L 116.426904 287.816628 
L 116.987338 203.710098 
L 117.547772 287.099909 
L 118.108206 282.495406 
L 118.668641 286.420597 
L 119.229075 287.842052 
L 119.789509 207.348148 
L 120.349943 208.550209 
L 120.910377 273.664812 
L 121.470811 175.585374 
L 122.031245 267.707456 
L 122.591679 278.575868 
L 123.152113 278.095451 
L 123.712547 278.886712 
L 124.272981 231.744665 
L 124.833415 285.329156 
L 125.393849 284.929308 
L 125.954283 250.499461 
L 126.514717 278.950072 
L 127.075151 254.084792 
L 127.635585 157.357427 
L 128.196019 162.749091 
L 128.756453 232.687653 
L 129.316887 267.983836 
L 129.877321 274.459919 
L 130.437755 241.26037 
L 130.99819 282.110264 
L 131.558624 233.09752 
L 132.119058 285.186571 
L 132.679492 161.423113 
L 133.239926 280.383314 
L 133.80036 245.798832 
L 134.360794 250.817961 
L 134.921228 277.691453 
L 135.481662 262.291107 
L 136.042096 258.904045 
L 136.60253 252.820098 
L 137.162964 269.150956 
L 137.723398 252.28711 
L 138.283832 248.189856 
L 138.844266 225.760695 
L 139.4047 221.561659 
L 139.965134 268.295837 
L 140.525568 287.74241 
L 141.086002 278.932084 
L 141.646436 154.929195 
L 142.20687 287.875425 
L 142.767304 240.796596 
L 143.327739 280.435234 
L 143.888173 253.569784 
L 144.448607 197.195885 
L 145.009041 237.190879 
L 145.569475 251.31613 
L 146.129909 238.254938 
L 146.690343 251.553181 
L 147.250777 286.638195 
L 147.811211 280.760803 
L 148.371645 253.882883 
L 148.932079 284.14807 
L 149.492513 216.232622 
L 150.052947 271.487342 
L 150.613381 146.42988 
L 151.173815 276.727953 
L 151.734249 213.782874 
L 152.294683 214.881828 
L 152.855117 285.006901 
L 153.415551 262.837543 
L 153.975985 214.729486 
L 154.536419 252.432664 
L 155.096854 230.724335 
L 155.657288 253.228695 
L 156.217722 233.199886 
L 156.778156 218.271115 
L 157.33859 184.660513 
L 157.899024 276.53272 
L 158.459458 91.915717 
L 159.019892 284.035561 
L 159.580326 266.720139 
L 160.14076 272.283836 
L 160.701194 261.744917 
L 161.261628 245.796745 
L 161.822062 243.503016 
L 162.382496 171.619572 
L 162.94293 279.399867 
L 163.503364 222.363385 
L 164.063798 269.006341 
L 164.624232 272.279188 
L 165.184666 139.218526 
L 165.7451 275.245509 
L 166.305534 237.260496 
L 166.865968 285.586427 
L 167.426403 173.51848 
L 167.986837 265.017874 
L 168.547271 254.466496 
L 169.107705 257.650106 
L 169.668139 276.805541 
L 170.228573 234.687844 
L 170.789007 267.716871 
L 171.349441 184.429437 
L 171.909875 287.612984 
L 172.470309 287.833746 
L 173.030743 206.529431 
L 173.591177 171.528571 
L 174.151611 247.411727 
L 174.712045 265.141685 
L 175.272479 266.279982 
L 175.832913 276.267772 
L 176.393347 223.860541 
L 176.953781 257.373919 
L 177.514215 256.111839 
L 178.074649 284.059409 
L 178.635083 287.6985 
L 179.195517 278.368349 
L 179.755952 132.499341 
L 180.316386 275.199466 
L 180.87682 107.163158 
L 181.437254 129.983794 
L 181.997688 286.946552 
L 182.558122 281.462984 
L 183.118556 286.495099 
L 184.239424 228.98839 
L 184.799858 284.592598 
L 185.360292 232.2695 
L 185.920726 271.136655 
L 186.48116 277.760533 
L 187.041594 212.829054 
L 187.602028 246.371934 
L 188.162462 198.688144 
L 188.722896 269.282305 
L 189.28333 254.287941 
L 189.843764 276.920253 
L 190.404198 264.162612 
L 190.964632 228.741299 
L 191.525066 285.130865 
L 192.085501 281.516828 
L 192.645935 267.00674 
L 193.206369 139.826873 
L 193.766803 269.062947 
L 194.327237 264.55592 
L 194.887671 280.013939 
L 195.448105 275.762982 
L 196.008539 249.242743 
L 196.568973 183.4479 
L 197.129407 281.33735 
L 197.689841 267.70395 
L 198.250275 113.117345 
L 198.810709 263.576035 
L 199.371143 210.341312 
L 199.931577 169.445592 
L 200.492011 283.296567 
L 201.052445 272.514641 
L 201.612879 230.684099 
L 202.173313 275.350784 
L 202.733747 235.234214 
L 203.294181 274.40964 
L 204.41505 206.753825 
L 204.975484 263.841351 
L 205.535918 259.67325 
L 206.096352 208.924321 
L 206.656786 281.008263 
L 207.21722 204.063976 
L 207.777654 284.629324 
L 208.338088 218.534244 
L 209.458956 283.012069 
L 210.01939 268.459618 
L 210.579824 240.040512 
L 211.140258 270.746894 
L 211.700692 278.897397 
L 212.261126 229.344821 
L 212.82156 246.701561 
L 213.381994 280.804837 
L 213.942428 278.516424 
L 214.502862 187.836387 
L 215.063296 220.086353 
L 215.62373 230.169255 
L 216.184165 236.385054 
L 216.744599 234.283447 
L 217.305033 266.950297 
L 217.865467 278.468867 
L 218.425901 243.508694 
L 218.986335 284.782604 
L 219.546769 217.094348 
L 220.107203 283.626505 
L 220.667637 281.180156 
L 221.228071 276.985412 
L 221.788505 287.061581 
L 222.348939 278.316666 
L 222.909373 201.743655 
L 223.469807 191.468303 
L 224.590675 266.469852 
L 225.151109 235.908185 
L 225.711543 268.263975 
L 226.271977 281.585374 
L 226.832411 287.616863 
L 227.392845 288.115298 
L 227.953279 283.569078 
L 228.513714 226.106624 
L 229.074148 245.72799 
L 229.634582 215.876406 
L 230.195016 246.491784 
L 230.75545 285.299706 
L 231.315884 196.479758 
L 232.436752 285.566931 
L 232.997186 271.378685 
L 233.55762 130.172875 
L 234.118054 247.79447 
L 234.678488 272.257199 
L 235.238922 272.098835 
L 235.799356 285.647196 
L 236.35979 283.828117 
L 236.920224 94.417357 
L 237.480658 273.400063 
L 238.041092 257.434559 
L 238.601526 287.032185 
L 239.16196 252.164589 
L 239.722394 285.590295 
L 240.282829 197.108502 
L 240.843263 226.736974 
L 241.403697 169.37199 
L 241.964131 266.400618 
L 242.524565 256.249003 
L 243.645433 280.589215 
L 244.205867 263.649733 
L 244.766301 142.596298 
L 245.326735 262.977746 
L 245.887169 235.913205 
L 246.447603 273.01455 
L 247.008037 252.379127 
L 247.568471 272.057316 
L 248.128905 237.942242 
L 248.689339 248.156475 
L 249.249773 282.960681 
L 249.810207 232.979186 
L 250.931075 246.165386 
L 251.491509 268.535407 
L 252.051943 216.518764 
L 252.612378 235.927011 
L 253.172812 284.552529 
L 253.733246 240.588956 
L 254.29368 234.256268 
L 254.854114 287.625388 
L 255.414548 244.417106 
L 255.974982 272.73436 
L 256.535416 186.846738 
L 257.09585 267.828522 
L 257.656284 238.827095 
L 258.216718 269.025394 
L 258.777152 283.778737 
L 259.337586 279.259568 
L 259.89802 238.681703 
L 260.458454 277.873956 
L 261.018888 272.861483 
L 261.579322 239.75062 
L 262.139756 285.410805 
L 262.70019 231.985694 
L 263.260624 222.442464 
L 263.821058 253.649066 
L 264.381492 259.352248 
L 264.941927 261.200399 
L 265.502361 282.466511 
L 266.062795 238.742926 
L 266.623229 276.225962 
L 267.183663 121.906693 
L 267.744097 274.570523 
L 268.304531 204.464025 
L 268.864965 275.410185 
L 269.425399 231.224607 
L 269.985833 268.910043 
L 270.546267 265.292317 
L 271.106701 218.791824 
L 271.667135 269.3603 
L 272.227569 224.389592 
L 272.788003 275.172797 
L 273.348437 102.170576 
L 273.908871 214.519315 
L 274.469305 269.675581 
L 275.029739 244.228317 
L 275.590173 277.905472 
L 276.150607 266.407733 
L 276.711042 267.761913 
L 277.271476 270.662553 
L 277.83191 226.269583 
L 278.392344 208.133123 
L 278.952778 256.642134 
L 279.513212 222.994531 
L 280.073646 242.266469 
L 280.63408 287.458802 
L 281.194514 261.796043 
L 281.754948 256.551316 
L 282.315382 238.402226 
L 282.875816 255.932513 
L 283.43625 284.551664 
L 283.996684 251.109724 
L 284.557118 267.808926 
L 285.117552 117.123492 
L 285.677986 240.683107 
L 286.23842 285.028711 
L 286.798854 283.741097 
L 287.359288 270.088238 
L 287.919722 281.558854 
L 288.480156 190.638932 
L 289.040591 247.568004 
L 289.601025 281.097811 
L 290.161459 257.166227 
L 290.721893 260.372344 
L 291.282327 203.123678 
L 291.842761 246.466518 
L 292.403195 254.317629 
L 293.524063 229.919235 
L 294.084497 226.549282 
L 294.644931 258.57521 
L 295.205365 280.138276 
L 295.765799 262.701588 
L 296.326233 279.126299 
L 296.886667 275.325929 
L 297.447101 253.817969 
L 298.007535 263.506302 
L 298.567969 269.348376 
L 299.128403 262.703358 
L 299.688837 134.976472 
L 300.249271 236.662627 
L 300.809705 266.297706 
L 301.37014 226.211023 
L 302.491008 282.467644 
L 303.051442 240.835576 
L 303.611876 229.985095 
L 304.17231 208.4552 
L 304.732744 209.724192 
L 305.293178 179.256434 
L 305.853612 287.970461 
L 306.97448 213.64189 
L 307.534914 209.421653 
L 308.095348 244.834763 
L 308.655782 87.725163 
L 309.216216 259.283553 
L 309.77665 279.563391 
L 310.337084 155.918034 
L 310.897518 270.14661 
L 311.457952 279.174399 
L 312.018386 243.604382 
L 312.57882 282.39497 
L 313.139255 274.253908 
L 313.699689 271.742267 
L 314.260123 283.628925 
L 314.820557 285.465662 
L 315.380991 173.92281 
L 315.941425 279.615869 
L 316.501859 288.046982 
L 317.062293 284.928278 
L 317.622727 213.006214 
L 318.183161 254.965222 
L 318.743595 261.302096 
L 319.304029 54.791227 
L 319.864463 269.978839 
L 320.424897 260.147478 
L 320.985331 221.623445 
L 321.545765 209.166788 
L 322.106199 187.299095 
L 322.666633 283.676867 
L 323.227067 192.027368 
L 323.787501 275.962252 
L 324.347935 135.239437 
L 324.908369 174.823407 
L 325.468804 229.436851 
L 326.589672 283.570324 
L 327.150106 226.760945 
L 327.71054 259.34011 
L 328.270974 223.729369 
L 328.831408 234.938148 
L 329.391842 263.527228 
L 329.952276 268.520881 
L 330.51271 245.054755 
L 331.073144 264.519947 
L 331.633578 210.489585 
L 332.194012 287.975921 
L 332.754446 287.096316 
L 333.31488 260.463152 
L 333.875314 189.42663 
L 334.435748 269.453796 
L 334.996182 284.829329 
L 336.11705 192.134018 
L 336.677484 212.105294 
L 337.237918 282.796105 
L 337.798353 279.575206 
L 338.358787 262.667027 
L 338.919221 237.333804 
L 339.479655 264.069323 
L 339.479655 264.069323 
" clip-path="url(#pdcac270fb9)" style="fill: none; stroke: #d65f5f; stroke-width: 0.7; stroke-linecap: round"/>
   </g>
   <g id="patch_3">
    <path d="M 45.840236 301.32375 
L 45.840236 10.8 
" style="fill: none; stroke: #cccccc; stroke-width: 1.25; stroke-linejoin: miter; stroke-linecap: square"/>
   </g>
   <g id="patch_4">
    <path d="M 353.462484 301.32375 
L 353.462484 10.8 
" style="fill: none; stroke: #cccccc; stroke-width: 1.25; stroke-linejoin: miter; stroke-linecap: square"/>
   </g>
   <g id="patch_5">
    <path d="M 45.840236 301.32375 
L 353.462484 301.32375 
" style="fill: none; stroke: #cccccc; stroke-width: 1.25; stroke-linejoin: miter; stroke-linecap: square"/>
   </g>
   <g id="patch_6">
    <path d="M 45.840236 10.8 
L 353.462484 10.8 
" style="fill: none; stroke: #cccccc; stroke-width: 1.25; stroke-linejoin: miter; stroke-linecap: square"/>
   </g>
   <g id="legend_1">
    <g id="patch_7">
     <path d="M 361.162484 84.72 
L 447.292484 84.72 
Q 449.492484 84.72 449.492484 82.52 
L 449.492484 18.5 
Q 449.492484 16.3 447.292484 16.3 
L 361.162484 16.3 
Q 358.962484 16.3 358.962484 18.5 
L 358.962484 82.52 
Q 358.962484 84.72 361.162484 84.72 
z
" style="fill: #ffffff; opacity: 0.8; stroke: #cccccc; stroke-linejoin: miter"/>
    </g>
    <g id="line2d_18">
     <path d="M 363.362484 25.21 
L 374.362484 25.21 
L 385.362484 25.21 
" style="fill: none; stroke: #4878d0; stroke-width: 1.5; stroke-linecap: round"/>
    </g>
    <g id="text_16">
     <!-- pred_$x_{0}(t)$ -->
     <g style="fill: #262626" transform="translate(394.162484 29.06) scale(0.11 -0.11)">
      <defs>
       <path id="TimesNewRomanPSMT-70" d="M -6 2578 
L 875 2934 
L 994 2934 
L 994 2266 
Q 1216 2644 1439 2795 
Q 1663 2947 1909 2947 
Q 2341 2947 2628 2609 
Q 2981 2197 2981 1534 
Q 2981 794 2556 309 
Q 2206 -88 1675 -88 
Q 1444 -88 1275 -22 
Q 1150 25 994 166 
L 994 -706 
Q 994 -1000 1030 -1079 
Q 1066 -1159 1155 -1206 
Q 1244 -1253 1478 -1253 
L 1478 -1369 
L -22 -1369 
L -22 -1253 
L 56 -1253 
Q 228 -1256 350 -1188 
Q 409 -1153 442 -1076 
Q 475 -1000 475 -688 
L 475 2019 
Q 475 2297 450 2372 
Q 425 2447 370 2484 
Q 316 2522 222 2522 
Q 147 2522 31 2478 
L -6 2578 
z
M 994 2081 
L 994 1013 
Q 994 666 1022 556 
Q 1066 375 1236 237 
Q 1406 100 1666 100 
Q 1978 100 2172 344 
Q 2425 663 2425 1241 
Q 2425 1897 2138 2250 
Q 1938 2494 1663 2494 
Q 1513 2494 1366 2419 
Q 1253 2363 994 2081 
z
" transform="scale(0.015625)"/>
       <path id="TimesNewRomanPSMT-64" d="M 2222 322 
Q 2013 103 1813 7 
Q 1613 -88 1381 -88 
Q 913 -88 563 304 
Q 213 697 213 1313 
Q 213 1928 600 2439 
Q 988 2950 1597 2950 
Q 1975 2950 2222 2709 
L 2222 3238 
Q 2222 3728 2198 3840 
Q 2175 3953 2125 3993 
Q 2075 4034 2000 4034 
Q 1919 4034 1784 3984 
L 1744 4094 
L 2597 4444 
L 2738 4444 
L 2738 1134 
Q 2738 631 2761 520 
Q 2784 409 2836 365 
Q 2888 322 2956 322 
Q 3041 322 3181 375 
L 3216 266 
L 2366 -88 
L 2222 -88 
L 2222 322 
z
M 2222 541 
L 2222 2016 
Q 2203 2228 2109 2403 
Q 2016 2578 1861 2667 
Q 1706 2756 1559 2756 
Q 1284 2756 1069 2509 
Q 784 2184 784 1559 
Q 784 928 1059 592 
Q 1334 256 1672 256 
Q 1956 256 2222 541 
z
" transform="scale(0.015625)"/>
       <path id="TimesNewRomanPSMT-5f" d="M 3256 -1381 
L -53 -1381 
L -53 -1119 
L 3256 -1119 
L 3256 -1381 
z
" transform="scale(0.015625)"/>
       <path id="DejaVuSans-Oblique-78" d="M 3841 3500 
L 2234 1784 
L 3219 0 
L 2559 0 
L 1819 1388 
L 531 0 
L -166 0 
L 1556 1844 
L 641 3500 
L 1300 3500 
L 1972 2234 
L 3144 3500 
L 3841 3500 
z
" transform="scale(0.015625)"/>
       <path id="DejaVuSans-30" d="M 2034 4250 
Q 1547 4250 1301 3770 
Q 1056 3291 1056 2328 
Q 1056 1369 1301 889 
Q 1547 409 2034 409 
Q 2525 409 2770 889 
Q 3016 1369 3016 2328 
Q 3016 3291 2770 3770 
Q 2525 4250 2034 4250 
z
M 2034 4750 
Q 2819 4750 3233 4129 
Q 3647 3509 3647 2328 
Q 3647 1150 3233 529 
Q 2819 -91 2034 -91 
Q 1250 -91 836 529 
Q 422 1150 422 2328 
Q 422 3509 836 4129 
Q 1250 4750 2034 4750 
z
" transform="scale(0.015625)"/>
      </defs>
      <use xlink:href="#TimesNewRomanPSMT-70" transform="translate(0 0.125)"/>
      <use xlink:href="#TimesNewRomanPSMT-72" transform="translate(50 0.125)"/>
      <use xlink:href="#TimesNewRomanPSMT-65" transform="translate(83.300781 0.125)"/>
      <use xlink:href="#TimesNewRomanPSMT-64" transform="translate(127.685547 0.125)"/>
      <use xlink:href="#TimesNewRomanPSMT-5f" transform="translate(177.685547 0.125)"/>
      <use xlink:href="#DejaVuSans-Oblique-78" transform="translate(227.685547 0.125)"/>
      <use xlink:href="#DejaVuSans-30" transform="translate(286.865234 -16.28125) scale(0.7)"/>
      <use xlink:href="#DejaVuSans-28" transform="translate(334.135742 0.125)"/>
      <use xlink:href="#DejaVuSans-Oblique-74" transform="translate(373.149414 0.125)"/>
      <use xlink:href="#DejaVuSans-29" transform="translate(412.358398 0.125)"/>
     </g>
    </g>
    <g id="line2d_19">
     <path d="M 363.362484 41.49 
L 374.362484 41.49 
L 385.362484 41.49 
" style="fill: none; stroke: #ee854a; stroke-width: 0.7; stroke-linecap: round"/>
    </g>
    <g id="text_17">
     <!-- truth_$x_{0}(t)$ -->
     <g style="fill: #262626" transform="translate(394.162484 45.34) scale(0.11 -0.11)">
      <defs>
       <path id="TimesNewRomanPSMT-68" d="M 1041 4444 
L 1041 2350 
Q 1388 2731 1591 2839 
Q 1794 2947 1997 2947 
Q 2241 2947 2416 2812 
Q 2591 2678 2675 2391 
Q 2734 2191 2734 1659 
L 2734 647 
Q 2734 375 2778 275 
Q 2809 200 2884 156 
Q 2959 113 3159 113 
L 3159 0 
L 1753 0 
L 1753 113 
L 1819 113 
Q 2019 113 2097 173 
Q 2175 234 2206 353 
Q 2216 403 2216 647 
L 2216 1659 
Q 2216 2128 2167 2275 
Q 2119 2422 2012 2495 
Q 1906 2569 1756 2569 
Q 1603 2569 1437 2487 
Q 1272 2406 1041 2159 
L 1041 647 
Q 1041 353 1073 281 
Q 1106 209 1195 161 
Q 1284 113 1503 113 
L 1503 0 
L 84 0 
L 84 113 
Q 275 113 384 172 
Q 447 203 484 290 
Q 522 378 522 647 
L 522 3238 
Q 522 3728 498 3840 
Q 475 3953 426 3993 
Q 378 4034 297 4034 
Q 231 4034 84 3984 
L 41 4094 
L 897 4444 
L 1041 4444 
z
" transform="scale(0.015625)"/>
      </defs>
      <use xlink:href="#TimesNewRomanPSMT-74" transform="translate(0 0.125)"/>
      <use xlink:href="#TimesNewRomanPSMT-72" transform="translate(27.783203 0.125)"/>
      <use xlink:href="#TimesNewRomanPSMT-75" transform="translate(61.083984 0.125)"/>
      <use xlink:href="#TimesNewRomanPSMT-74" transform="translate(111.083984 0.125)"/>
      <use xlink:href="#TimesNewRomanPSMT-68" transform="translate(138.867188 0.125)"/>
      <use xlink:href="#TimesNewRomanPSMT-5f" transform="translate(188.867188 0.125)"/>
      <use xlink:href="#DejaVuSans-Oblique-78" transform="translate(238.867188 0.125)"/>
      <use xlink:href="#DejaVuSans-30" transform="translate(298.046875 -16.28125) scale(0.7)"/>
      <use xlink:href="#DejaVuSans-28" transform="translate(345.317383 0.125)"/>
      <use xlink:href="#DejaVuSans-Oblique-74" transform="translate(384.331055 0.125)"/>
      <use xlink:href="#DejaVuSans-29" transform="translate(423.540039 0.125)"/>
     </g>
    </g>
    <g id="line2d_20">
     <path d="M 363.362484 57.77 
L 374.362484 57.77 
L 385.362484 57.77 
" style="fill: none; stroke: #6acc64; stroke-width: 1.5; stroke-linecap: round"/>
    </g>
    <g id="text_18">
     <!-- pred_$x_{1}(t)$ -->
     <g style="fill: #262626" transform="translate(394.162484 61.62) scale(0.11 -0.11)">
      <defs>
       <path id="DejaVuSans-31" d="M 794 531 
L 1825 531 
L 1825 4091 
L 703 3866 
L 703 4441 
L 1819 4666 
L 2450 4666 
L 2450 531 
L 3481 531 
L 3481 0 
L 794 0 
L 794 531 
z
" transform="scale(0.015625)"/>
      </defs>
      <use xlink:href="#TimesNewRomanPSMT-70" transform="translate(0 0.125)"/>
      <use xlink:href="#TimesNewRomanPSMT-72" transform="translate(50 0.125)"/>
      <use xlink:href="#TimesNewRomanPSMT-65" transform="translate(83.300781 0.125)"/>
      <use xlink:href="#TimesNewRomanPSMT-64" transform="translate(127.685547 0.125)"/>
      <use xlink:href="#TimesNewRomanPSMT-5f" transform="translate(177.685547 0.125)"/>
      <use xlink:href="#DejaVuSans-Oblique-78" transform="translate(227.685547 0.125)"/>
      <use xlink:href="#DejaVuSans-31" transform="translate(286.865234 -16.28125) scale(0.7)"/>
      <use xlink:href="#DejaVuSans-28" transform="translate(334.135742 0.125)"/>
      <use xlink:href="#DejaVuSans-Oblique-74" transform="translate(373.149414 0.125)"/>
      <use xlink:href="#DejaVuSans-29" transform="translate(412.358398 0.125)"/>
     </g>
    </g>
    <g id="line2d_21">
     <path d="M 363.362484 74.05 
L 374.362484 74.05 
L 385.362484 74.05 
" style="fill: none; stroke: #d65f5f; stroke-width: 0.7; stroke-linecap: round"/>
    </g>
    <g id="text_19">
     <!-- truth_$x_{1}(t)$ -->
     <g style="fill: #262626" transform="translate(394.162484 77.9) scale(0.11 -0.11)">
      <use xlink:href="#TimesNewRomanPSMT-74" transform="translate(0 0.125)"/>
      <use xlink:href="#TimesNewRomanPSMT-72" transform="translate(27.783203 0.125)"/>
      <use xlink:href="#TimesNewRomanPSMT-75" transform="translate(61.083984 0.125)"/>
      <use xlink:href="#TimesNewRomanPSMT-74" transform="translate(111.083984 0.125)"/>
      <use xlink:href="#TimesNewRomanPSMT-68" transform="translate(138.867188 0.125)"/>
      <use xlink:href="#TimesNewRomanPSMT-5f" transform="translate(188.867188 0.125)"/>
      <use xlink:href="#DejaVuSans-Oblique-78" transform="translate(238.867188 0.125)"/>
      <use xlink:href="#DejaVuSans-31" transform="translate(298.046875 -16.28125) scale(0.7)"/>
      <use xlink:href="#DejaVuSans-28" transform="translate(345.317383 0.125)"/>
      <use xlink:href="#DejaVuSans-Oblique-74" transform="translate(384.331055 0.125)"/>
      <use xlink:href="#DejaVuSans-29" transform="translate(423.540039 0.125)"/>
     </g>
    </g>
   </g>
  </g>
 </g>
 <defs>
  <clipPath id="pdcac270fb9">
   <rect x="45.840236" y="10.8" width="307.622248" height="290.52375"/>
  </clipPath>
 </defs>
</svg>
