<?xml version="1.0" encoding="utf-8" standalone="no"?>
<!DOCTYPE svg PUBLIC "-//W3C//DTD SVG 1.1//EN"
  "http://www.w3.org/Graphics/SVG/1.1/DTD/svg11.dtd">
<svg xmlns:xlink="http://www.w3.org/1999/xlink" width="460.8pt" height="345.6pt" viewBox="0 0 460.8 345.6" xmlns="http://www.w3.org/2000/svg" version="1.1">
 <metadata>
  <rdf:RDF xmlns:dc="http://purl.org/dc/elements/1.1/" xmlns:cc="http://creativecommons.org/ns#" xmlns:rdf="http://www.w3.org/1999/02/22-rdf-syntax-ns#">
   <cc:Work>
    <dc:type rdf:resource="http://purl.org/dc/dcmitype/StillImage"/>
    <dc:date>2023-09-22T23:15:51.955529</dc:date>
    <dc:format>image/svg+xml</dc:format>
    <dc:creator>
     <cc:Agent>
      <dc:title>Matplotlib v3.7.1, https://matplotlib.org/</dc:title>
     </cc:Agent>
    </dc:creator>
   </cc:Work>
  </rdf:RDF>
 </metadata>
 <defs>
  <style type="text/css">*{stroke-linejoin: round; stroke-linecap: butt}</style>
 </defs>
 <g id="figure_1">
  <g id="patch_1">
   <path d="M 0 345.6 
L 460.8 345.6 
L 460.8 0 
L 0 0 
z
" style="fill: #ffffff"/>
  </g>
  <g id="axes_1">
   <g id="patch_2">
    <path d="M 54.267552 302.64 
L 450 302.64 
L 450 10.8 
L 54.267552 10.8 
z
" style="fill: #ffffff"/>
   </g>
   <g id="matplotlib.axis_1">
    <g id="xtick_1">
     <g id="line2d_1">
      <defs>
       <path id="m337098556c" d="M 0 0 
L 0 -3.5 
" style="stroke: #000000; stroke-width: 0.8"/>
      </defs>
      <g>
       <use xlink:href="#m337098556c" x="72.25539" y="302.64" style="stroke: #000000; stroke-width: 0.8"/>
      </g>
     </g>
     <g id="text_1">
      <!-- 0 -->
      <g transform="translate(68.50539 316.555625) scale(0.15 -0.15)">
       <defs>
        <path id="TimesNewRomanPSMT-30" d="M 231 2094 
Q 231 2819 450 3342 
Q 669 3866 1031 4122 
Q 1313 4325 1613 4325 
Q 2100 4325 2488 3828 
Q 2972 3213 2972 2159 
Q 2972 1422 2759 906 
Q 2547 391 2217 158 
Q 1888 -75 1581 -75 
Q 975 -75 572 641 
Q 231 1244 231 2094 
z
M 844 2016 
Q 844 1141 1059 588 
Q 1238 122 1591 122 
Q 1759 122 1940 273 
Q 2122 425 2216 781 
Q 2359 1319 2359 2297 
Q 2359 3022 2209 3506 
Q 2097 3866 1919 4016 
Q 1791 4119 1609 4119 
Q 1397 4119 1231 3928 
Q 1006 3669 925 3112 
Q 844 2556 844 2016 
z
" transform="scale(0.015625)"/>
       </defs>
       <use xlink:href="#TimesNewRomanPSMT-30"/>
      </g>
     </g>
    </g>
    <g id="xtick_2">
     <g id="line2d_2">
      <g>
       <use xlink:href="#m337098556c" x="144.206745" y="302.64" style="stroke: #000000; stroke-width: 0.8"/>
      </g>
     </g>
     <g id="text_2">
      <!-- 100 -->
      <g transform="translate(132.956745 316.555625) scale(0.15 -0.15)">
       <defs>
        <path id="TimesNewRomanPSMT-31" d="M 750 3822 
L 1781 4325 
L 1884 4325 
L 1884 747 
Q 1884 391 1914 303 
Q 1944 216 2037 169 
Q 2131 122 2419 116 
L 2419 0 
L 825 0 
L 825 116 
Q 1125 122 1212 167 
Q 1300 213 1334 289 
Q 1369 366 1369 747 
L 1369 3034 
Q 1369 3497 1338 3628 
Q 1316 3728 1258 3775 
Q 1200 3822 1119 3822 
Q 1003 3822 797 3725 
L 750 3822 
z
" transform="scale(0.015625)"/>
       </defs>
       <use xlink:href="#TimesNewRomanPSMT-31"/>
       <use xlink:href="#TimesNewRomanPSMT-30" x="50"/>
       <use xlink:href="#TimesNewRomanPSMT-30" x="100"/>
      </g>
     </g>
    </g>
    <g id="xtick_3">
     <g id="line2d_3">
      <g>
       <use xlink:href="#m337098556c" x="216.158099" y="302.64" style="stroke: #000000; stroke-width: 0.8"/>
      </g>
     </g>
     <g id="text_3">
      <!-- 200 -->
      <g transform="translate(204.908099 316.555625) scale(0.15 -0.15)">
       <defs>
        <path id="TimesNewRomanPSMT-32" d="M 2934 816 
L 2638 0 
L 138 0 
L 138 116 
Q 1241 1122 1691 1759 
Q 2141 2397 2141 2925 
Q 2141 3328 1894 3587 
Q 1647 3847 1303 3847 
Q 991 3847 742 3664 
Q 494 3481 375 3128 
L 259 3128 
Q 338 3706 661 4015 
Q 984 4325 1469 4325 
Q 1984 4325 2329 3994 
Q 2675 3663 2675 3213 
Q 2675 2891 2525 2569 
Q 2294 2063 1775 1497 
Q 997 647 803 472 
L 1909 472 
Q 2247 472 2383 497 
Q 2519 522 2628 598 
Q 2738 675 2819 816 
L 2934 816 
z
" transform="scale(0.015625)"/>
       </defs>
       <use xlink:href="#TimesNewRomanPSMT-32"/>
       <use xlink:href="#TimesNewRomanPSMT-30" x="50"/>
       <use xlink:href="#TimesNewRomanPSMT-30" x="100"/>
      </g>
     </g>
    </g>
    <g id="xtick_4">
     <g id="line2d_4">
      <g>
       <use xlink:href="#m337098556c" x="288.109453" y="302.64" style="stroke: #000000; stroke-width: 0.8"/>
      </g>
     </g>
     <g id="text_4">
      <!-- 300 -->
      <g transform="translate(276.859453 316.555625) scale(0.15 -0.15)">
       <defs>
        <path id="TimesNewRomanPSMT-33" d="M 325 3431 
Q 506 3859 782 4092 
Q 1059 4325 1472 4325 
Q 1981 4325 2253 3994 
Q 2459 3747 2459 3466 
Q 2459 3003 1878 2509 
Q 2269 2356 2469 2072 
Q 2669 1788 2669 1403 
Q 2669 853 2319 450 
Q 1863 -75 997 -75 
Q 569 -75 414 31 
Q 259 138 259 259 
Q 259 350 332 419 
Q 406 488 509 488 
Q 588 488 669 463 
Q 722 447 909 348 
Q 1097 250 1169 231 
Q 1284 197 1416 197 
Q 1734 197 1970 444 
Q 2206 691 2206 1028 
Q 2206 1275 2097 1509 
Q 2016 1684 1919 1775 
Q 1784 1900 1550 2001 
Q 1316 2103 1072 2103 
L 972 2103 
L 972 2197 
Q 1219 2228 1467 2375 
Q 1716 2522 1828 2728 
Q 1941 2934 1941 3181 
Q 1941 3503 1739 3701 
Q 1538 3900 1238 3900 
Q 753 3900 428 3381 
L 325 3431 
z
" transform="scale(0.015625)"/>
       </defs>
       <use xlink:href="#TimesNewRomanPSMT-33"/>
       <use xlink:href="#TimesNewRomanPSMT-30" x="50"/>
       <use xlink:href="#TimesNewRomanPSMT-30" x="100"/>
      </g>
     </g>
    </g>
    <g id="xtick_5">
     <g id="line2d_5">
      <g>
       <use xlink:href="#m337098556c" x="360.060807" y="302.64" style="stroke: #000000; stroke-width: 0.8"/>
      </g>
     </g>
     <g id="text_5">
      <!-- 400 -->
      <g transform="translate(348.810807 316.555625) scale(0.15 -0.15)">
       <defs>
        <path id="TimesNewRomanPSMT-34" d="M 2978 1563 
L 2978 1119 
L 2409 1119 
L 2409 0 
L 1894 0 
L 1894 1119 
L 100 1119 
L 100 1519 
L 2066 4325 
L 2409 4325 
L 2409 1563 
L 2978 1563 
z
M 1894 1563 
L 1894 3666 
L 406 1563 
L 1894 1563 
z
" transform="scale(0.015625)"/>
       </defs>
       <use xlink:href="#TimesNewRomanPSMT-34"/>
       <use xlink:href="#TimesNewRomanPSMT-30" x="50"/>
       <use xlink:href="#TimesNewRomanPSMT-30" x="100"/>
      </g>
     </g>
    </g>
    <g id="xtick_6">
     <g id="line2d_6">
      <g>
       <use xlink:href="#m337098556c" x="432.012161" y="302.64" style="stroke: #000000; stroke-width: 0.8"/>
      </g>
     </g>
     <g id="text_6">
      <!-- 500 -->
      <g transform="translate(420.762161 316.555625) scale(0.15 -0.15)">
       <defs>
        <path id="TimesNewRomanPSMT-35" d="M 2778 4238 
L 2534 3706 
L 1259 3706 
L 981 3138 
Q 1809 3016 2294 2522 
Q 2709 2097 2709 1522 
Q 2709 1188 2573 903 
Q 2438 619 2231 419 
Q 2025 219 1772 97 
Q 1413 -75 1034 -75 
Q 653 -75 479 54 
Q 306 184 306 341 
Q 306 428 378 495 
Q 450 563 559 563 
Q 641 563 702 538 
Q 763 513 909 409 
Q 1144 247 1384 247 
Q 1750 247 2026 523 
Q 2303 800 2303 1197 
Q 2303 1581 2056 1914 
Q 1809 2247 1375 2428 
Q 1034 2569 447 2591 
L 1259 4238 
L 2778 4238 
z
" transform="scale(0.015625)"/>
       </defs>
       <use xlink:href="#TimesNewRomanPSMT-35"/>
       <use xlink:href="#TimesNewRomanPSMT-30" x="50"/>
       <use xlink:href="#TimesNewRomanPSMT-30" x="100"/>
      </g>
     </g>
    </g>
    <g id="text_7">
     <!-- Time (arbitrary unit) -->
     <g transform="translate(210.937682 330.707969) scale(0.1 -0.1)">
      <defs>
       <path id="TimesNewRomanPSMT-54" d="M 3703 4238 
L 3750 3244 
L 3631 3244 
Q 3597 3506 3538 3619 
Q 3441 3800 3280 3886 
Q 3119 3972 2856 3972 
L 2259 3972 
L 2259 734 
Q 2259 344 2344 247 
Q 2463 116 2709 116 
L 2856 116 
L 2856 0 
L 1059 0 
L 1059 116 
L 1209 116 
Q 1478 116 1591 278 
Q 1659 378 1659 734 
L 1659 3972 
L 1150 3972 
Q 853 3972 728 3928 
Q 566 3869 450 3700 
Q 334 3531 313 3244 
L 194 3244 
L 244 4238 
L 3703 4238 
z
" transform="scale(0.015625)"/>
       <path id="TimesNewRomanPSMT-69" d="M 928 4444 
Q 1059 4444 1151 4351 
Q 1244 4259 1244 4128 
Q 1244 3997 1151 3903 
Q 1059 3809 928 3809 
Q 797 3809 703 3903 
Q 609 3997 609 4128 
Q 609 4259 701 4351 
Q 794 4444 928 4444 
z
M 1188 2947 
L 1188 647 
Q 1188 378 1227 289 
Q 1266 200 1342 156 
Q 1419 113 1622 113 
L 1622 0 
L 231 0 
L 231 113 
Q 441 113 512 153 
Q 584 194 626 287 
Q 669 381 669 647 
L 669 1750 
Q 669 2216 641 2353 
Q 619 2453 572 2492 
Q 525 2531 444 2531 
Q 356 2531 231 2484 
L 188 2597 
L 1050 2947 
L 1188 2947 
z
" transform="scale(0.015625)"/>
       <path id="TimesNewRomanPSMT-6d" d="M 1050 2338 
Q 1363 2650 1419 2697 
Q 1559 2816 1721 2881 
Q 1884 2947 2044 2947 
Q 2313 2947 2506 2790 
Q 2700 2634 2766 2338 
Q 3088 2713 3309 2830 
Q 3531 2947 3766 2947 
Q 3994 2947 4170 2830 
Q 4347 2713 4450 2447 
Q 4519 2266 4519 1878 
L 4519 647 
Q 4519 378 4559 278 
Q 4591 209 4675 161 
Q 4759 113 4950 113 
L 4950 0 
L 3538 0 
L 3538 113 
L 3597 113 
Q 3781 113 3884 184 
Q 3956 234 3988 344 
Q 4000 397 4000 647 
L 4000 1878 
Q 4000 2228 3916 2372 
Q 3794 2572 3525 2572 
Q 3359 2572 3192 2489 
Q 3025 2406 2788 2181 
L 2781 2147 
L 2788 2013 
L 2788 647 
Q 2788 353 2820 281 
Q 2853 209 2943 161 
Q 3034 113 3253 113 
L 3253 0 
L 1806 0 
L 1806 113 
Q 2044 113 2133 169 
Q 2222 225 2256 338 
Q 2272 391 2272 647 
L 2272 1878 
Q 2272 2228 2169 2381 
Q 2031 2581 1784 2581 
Q 1616 2581 1450 2491 
Q 1191 2353 1050 2181 
L 1050 647 
Q 1050 366 1089 281 
Q 1128 197 1204 155 
Q 1281 113 1516 113 
L 1516 0 
L 100 0 
L 100 113 
Q 297 113 375 155 
Q 453 197 493 289 
Q 534 381 534 647 
L 534 1741 
Q 534 2213 506 2350 
Q 484 2453 437 2492 
Q 391 2531 309 2531 
Q 222 2531 100 2484 
L 53 2597 
L 916 2947 
L 1050 2947 
L 1050 2338 
z
" transform="scale(0.015625)"/>
       <path id="TimesNewRomanPSMT-65" d="M 681 1784 
Q 678 1147 991 784 
Q 1303 422 1725 422 
Q 2006 422 2214 576 
Q 2422 731 2563 1106 
L 2659 1044 
Q 2594 616 2278 264 
Q 1963 -88 1488 -88 
Q 972 -88 605 314 
Q 238 716 238 1394 
Q 238 2128 614 2539 
Q 991 2950 1559 2950 
Q 2041 2950 2350 2633 
Q 2659 2316 2659 1784 
L 681 1784 
z
M 681 1966 
L 2006 1966 
Q 1991 2241 1941 2353 
Q 1863 2528 1708 2628 
Q 1553 2728 1384 2728 
Q 1125 2728 920 2526 
Q 716 2325 681 1966 
z
" transform="scale(0.015625)"/>
       <path id="TimesNewRomanPSMT-20" transform="scale(0.015625)"/>
       <path id="TimesNewRomanPSMT-28" d="M 1988 -1253 
L 1988 -1369 
Q 1516 -1131 1200 -813 
Q 750 -359 506 256 
Q 263 872 263 1534 
Q 263 2503 741 3301 
Q 1219 4100 1988 4444 
L 1988 4313 
Q 1603 4100 1356 3731 
Q 1109 3363 987 2797 
Q 866 2231 866 1616 
Q 866 947 969 400 
Q 1050 -31 1165 -292 
Q 1281 -553 1476 -793 
Q 1672 -1034 1988 -1253 
z
" transform="scale(0.015625)"/>
       <path id="TimesNewRomanPSMT-61" d="M 1822 413 
Q 1381 72 1269 19 
Q 1100 -59 909 -59 
Q 613 -59 420 144 
Q 228 347 228 678 
Q 228 888 322 1041 
Q 450 1253 767 1440 
Q 1084 1628 1822 1897 
L 1822 2009 
Q 1822 2438 1686 2597 
Q 1550 2756 1291 2756 
Q 1094 2756 978 2650 
Q 859 2544 859 2406 
L 866 2225 
Q 866 2081 792 2003 
Q 719 1925 600 1925 
Q 484 1925 411 2006 
Q 338 2088 338 2228 
Q 338 2497 613 2722 
Q 888 2947 1384 2947 
Q 1766 2947 2009 2819 
Q 2194 2722 2281 2516 
Q 2338 2381 2338 1966 
L 2338 994 
Q 2338 584 2353 492 
Q 2369 400 2405 369 
Q 2441 338 2488 338 
Q 2538 338 2575 359 
Q 2641 400 2828 588 
L 2828 413 
Q 2478 -56 2159 -56 
Q 2006 -56 1915 50 
Q 1825 156 1822 413 
z
M 1822 616 
L 1822 1706 
Q 1350 1519 1213 1441 
Q 966 1303 859 1153 
Q 753 1003 753 825 
Q 753 600 887 451 
Q 1022 303 1197 303 
Q 1434 303 1822 616 
z
" transform="scale(0.015625)"/>
       <path id="TimesNewRomanPSMT-72" d="M 1038 2947 
L 1038 2303 
Q 1397 2947 1775 2947 
Q 1947 2947 2059 2842 
Q 2172 2738 2172 2600 
Q 2172 2478 2090 2393 
Q 2009 2309 1897 2309 
Q 1788 2309 1652 2417 
Q 1516 2525 1450 2525 
Q 1394 2525 1328 2463 
Q 1188 2334 1038 2041 
L 1038 669 
Q 1038 431 1097 309 
Q 1138 225 1241 169 
Q 1344 113 1538 113 
L 1538 0 
L 72 0 
L 72 113 
Q 291 113 397 181 
Q 475 231 506 341 
Q 522 394 522 644 
L 522 1753 
Q 522 2253 501 2348 
Q 481 2444 426 2487 
Q 372 2531 291 2531 
Q 194 2531 72 2484 
L 41 2597 
L 906 2947 
L 1038 2947 
z
" transform="scale(0.015625)"/>
       <path id="TimesNewRomanPSMT-62" d="M 984 2369 
Q 1400 2947 1881 2947 
Q 2322 2947 2650 2570 
Q 2978 2194 2978 1541 
Q 2978 778 2472 313 
Q 2038 -88 1503 -88 
Q 1253 -88 995 3 
Q 738 94 469 275 
L 469 3241 
Q 469 3728 445 3840 
Q 422 3953 372 3993 
Q 322 4034 247 4034 
Q 159 4034 28 3984 
L -16 4094 
L 844 4444 
L 984 4444 
L 984 2369 
z
M 984 2169 
L 984 456 
Q 1144 300 1314 220 
Q 1484 141 1663 141 
Q 1947 141 2192 453 
Q 2438 766 2438 1363 
Q 2438 1913 2192 2208 
Q 1947 2503 1634 2503 
Q 1469 2503 1303 2419 
Q 1178 2356 984 2169 
z
" transform="scale(0.015625)"/>
       <path id="TimesNewRomanPSMT-74" d="M 1031 3803 
L 1031 2863 
L 1700 2863 
L 1700 2644 
L 1031 2644 
L 1031 788 
Q 1031 509 1111 412 
Q 1191 316 1316 316 
Q 1419 316 1516 380 
Q 1613 444 1666 569 
L 1788 569 
Q 1678 263 1478 108 
Q 1278 -47 1066 -47 
Q 922 -47 784 33 
Q 647 113 581 261 
Q 516 409 516 719 
L 516 2644 
L 63 2644 
L 63 2747 
Q 234 2816 414 2980 
Q 594 3144 734 3369 
Q 806 3488 934 3803 
L 1031 3803 
z
" transform="scale(0.015625)"/>
       <path id="TimesNewRomanPSMT-79" d="M 38 2863 
L 1372 2863 
L 1372 2747 
L 1306 2747 
Q 1166 2747 1095 2686 
Q 1025 2625 1025 2534 
Q 1025 2413 1128 2197 
L 1825 753 
L 2466 2334 
Q 2519 2463 2519 2588 
Q 2519 2644 2497 2672 
Q 2472 2706 2419 2726 
Q 2366 2747 2231 2747 
L 2231 2863 
L 3163 2863 
L 3163 2747 
Q 3047 2734 2984 2696 
Q 2922 2659 2847 2556 
Q 2819 2513 2741 2316 
L 1575 -541 
Q 1406 -956 1132 -1168 
Q 859 -1381 606 -1381 
Q 422 -1381 303 -1275 
Q 184 -1169 184 -1031 
Q 184 -900 270 -820 
Q 356 -741 506 -741 
Q 609 -741 788 -809 
Q 913 -856 944 -856 
Q 1038 -856 1148 -759 
Q 1259 -663 1372 -384 
L 1575 113 
L 547 2272 
Q 500 2369 397 2513 
Q 319 2622 269 2659 
Q 197 2709 38 2747 
L 38 2863 
z
" transform="scale(0.015625)"/>
       <path id="TimesNewRomanPSMT-75" d="M 2709 2863 
L 2709 1128 
Q 2709 631 2732 520 
Q 2756 409 2807 365 
Q 2859 322 2928 322 
Q 3025 322 3147 375 
L 3191 266 
L 2334 -88 
L 2194 -88 
L 2194 519 
Q 1825 119 1631 15 
Q 1438 -88 1222 -88 
Q 981 -88 804 51 
Q 628 191 559 409 
Q 491 628 491 1028 
L 491 2306 
Q 491 2509 447 2587 
Q 403 2666 317 2708 
Q 231 2750 6 2747 
L 6 2863 
L 1009 2863 
L 1009 947 
Q 1009 547 1148 422 
Q 1288 297 1484 297 
Q 1619 297 1789 381 
Q 1959 466 2194 703 
L 2194 2325 
Q 2194 2569 2105 2655 
Q 2016 2741 1734 2747 
L 1734 2863 
L 2709 2863 
z
" transform="scale(0.015625)"/>
       <path id="TimesNewRomanPSMT-6e" d="M 1034 2341 
Q 1538 2947 1994 2947 
Q 2228 2947 2397 2830 
Q 2566 2713 2666 2444 
Q 2734 2256 2734 1869 
L 2734 647 
Q 2734 375 2778 278 
Q 2813 200 2889 156 
Q 2966 113 3172 113 
L 3172 0 
L 1756 0 
L 1756 113 
L 1816 113 
Q 2016 113 2095 173 
Q 2175 234 2206 353 
Q 2219 400 2219 647 
L 2219 1819 
Q 2219 2209 2117 2386 
Q 2016 2563 1775 2563 
Q 1403 2563 1034 2156 
L 1034 647 
Q 1034 356 1069 288 
Q 1113 197 1189 155 
Q 1266 113 1500 113 
L 1500 0 
L 84 0 
L 84 113 
L 147 113 
Q 366 113 442 223 
Q 519 334 519 647 
L 519 1709 
Q 519 2225 495 2337 
Q 472 2450 423 2490 
Q 375 2531 294 2531 
Q 206 2531 84 2484 
L 38 2597 
L 900 2947 
L 1034 2947 
L 1034 2341 
z
" transform="scale(0.015625)"/>
       <path id="TimesNewRomanPSMT-29" d="M 144 4313 
L 144 4444 
Q 619 4209 934 3891 
Q 1381 3434 1625 2820 
Q 1869 2206 1869 1541 
Q 1869 572 1392 -226 
Q 916 -1025 144 -1369 
L 144 -1253 
Q 528 -1038 776 -670 
Q 1025 -303 1145 264 
Q 1266 831 1266 1447 
Q 1266 2113 1163 2663 
Q 1084 3094 967 3353 
Q 850 3613 656 3853 
Q 463 4094 144 4313 
z
" transform="scale(0.015625)"/>
      </defs>
      <use xlink:href="#TimesNewRomanPSMT-54"/>
      <use xlink:href="#TimesNewRomanPSMT-69" x="57.583984"/>
      <use xlink:href="#TimesNewRomanPSMT-6d" x="85.367188"/>
      <use xlink:href="#TimesNewRomanPSMT-65" x="163.150391"/>
      <use xlink:href="#TimesNewRomanPSMT-20" x="207.535156"/>
      <use xlink:href="#TimesNewRomanPSMT-28" x="232.535156"/>
      <use xlink:href="#TimesNewRomanPSMT-61" x="265.835938"/>
      <use xlink:href="#TimesNewRomanPSMT-72" x="310.220703"/>
      <use xlink:href="#TimesNewRomanPSMT-62" x="343.521484"/>
      <use xlink:href="#TimesNewRomanPSMT-69" x="393.521484"/>
      <use xlink:href="#TimesNewRomanPSMT-74" x="421.304688"/>
      <use xlink:href="#TimesNewRomanPSMT-72" x="449.087891"/>
      <use xlink:href="#TimesNewRomanPSMT-61" x="482.388672"/>
      <use xlink:href="#TimesNewRomanPSMT-72" x="526.773438"/>
      <use xlink:href="#TimesNewRomanPSMT-79" x="560.074219"/>
      <use xlink:href="#TimesNewRomanPSMT-20" x="610.074219"/>
      <use xlink:href="#TimesNewRomanPSMT-75" x="635.074219"/>
      <use xlink:href="#TimesNewRomanPSMT-6e" x="685.074219"/>
      <use xlink:href="#TimesNewRomanPSMT-69" x="735.074219"/>
      <use xlink:href="#TimesNewRomanPSMT-74" x="762.857422"/>
      <use xlink:href="#TimesNewRomanPSMT-29" x="790.640625"/>
     </g>
    </g>
   </g>
   <g id="matplotlib.axis_2">
    <g id="ytick_1">
     <g id="line2d_7">
      <defs>
       <path id="m489d97c247" d="M 0 0 
L 3.5 0 
" style="stroke: #000000; stroke-width: 0.8"/>
      </defs>
      <g>
       <use xlink:href="#m489d97c247" x="54.267552" y="289.374855" style="stroke: #000000; stroke-width: 0.8"/>
      </g>
     </g>
     <g id="text_8">
      <!-- 0.00 -->
      <g transform="translate(24.517552 294.582668) scale(0.15 -0.15)">
       <defs>
        <path id="TimesNewRomanPSMT-2e" d="M 800 606 
Q 947 606 1047 504 
Q 1147 403 1147 259 
Q 1147 116 1045 14 
Q 944 -88 800 -88 
Q 656 -88 554 14 
Q 453 116 453 259 
Q 453 406 554 506 
Q 656 606 800 606 
z
" transform="scale(0.015625)"/>
       </defs>
       <use xlink:href="#TimesNewRomanPSMT-30"/>
       <use xlink:href="#TimesNewRomanPSMT-2e" x="50"/>
       <use xlink:href="#TimesNewRomanPSMT-30" x="75"/>
       <use xlink:href="#TimesNewRomanPSMT-30" x="125"/>
      </g>
     </g>
    </g>
    <g id="ytick_2">
     <g id="line2d_8">
      <g>
       <use xlink:href="#m489d97c247" x="54.267552" y="228.883995" style="stroke: #000000; stroke-width: 0.8"/>
      </g>
     </g>
     <g id="text_9">
      <!-- 0.05 -->
      <g transform="translate(24.517552 234.091807) scale(0.15 -0.15)">
       <use xlink:href="#TimesNewRomanPSMT-30"/>
       <use xlink:href="#TimesNewRomanPSMT-2e" x="50"/>
       <use xlink:href="#TimesNewRomanPSMT-30" x="75"/>
       <use xlink:href="#TimesNewRomanPSMT-35" x="125"/>
      </g>
     </g>
    </g>
    <g id="ytick_3">
     <g id="line2d_9">
      <g>
       <use xlink:href="#m489d97c247" x="54.267552" y="168.393134" style="stroke: #000000; stroke-width: 0.8"/>
      </g>
     </g>
     <g id="text_10">
      <!-- 0.10 -->
      <g transform="translate(24.517552 173.600947) scale(0.15 -0.15)">
       <use xlink:href="#TimesNewRomanPSMT-30"/>
       <use xlink:href="#TimesNewRomanPSMT-2e" x="50"/>
       <use xlink:href="#TimesNewRomanPSMT-31" x="75"/>
       <use xlink:href="#TimesNewRomanPSMT-30" x="125"/>
      </g>
     </g>
    </g>
    <g id="ytick_4">
     <g id="line2d_10">
      <g>
       <use xlink:href="#m489d97c247" x="54.267552" y="107.902274" style="stroke: #000000; stroke-width: 0.8"/>
      </g>
     </g>
     <g id="text_11">
      <!-- 0.15 -->
      <g transform="translate(24.517552 113.110087) scale(0.15 -0.15)">
       <use xlink:href="#TimesNewRomanPSMT-30"/>
       <use xlink:href="#TimesNewRomanPSMT-2e" x="50"/>
       <use xlink:href="#TimesNewRomanPSMT-31" x="75"/>
       <use xlink:href="#TimesNewRomanPSMT-35" x="125"/>
      </g>
     </g>
    </g>
    <g id="ytick_5">
     <g id="line2d_11">
      <g>
       <use xlink:href="#m489d97c247" x="54.267552" y="47.411414" style="stroke: #000000; stroke-width: 0.8"/>
      </g>
     </g>
     <g id="text_12">
      <!-- 0.20 -->
      <g transform="translate(24.517552 52.619226) scale(0.15 -0.15)">
       <use xlink:href="#TimesNewRomanPSMT-30"/>
       <use xlink:href="#TimesNewRomanPSMT-2e" x="50"/>
       <use xlink:href="#TimesNewRomanPSMT-32" x="75"/>
       <use xlink:href="#TimesNewRomanPSMT-30" x="125"/>
      </g>
     </g>
    </g>
    <g id="text_13">
     <!-- $X(t)$ -->
     <g transform="translate(11.217552 154.580937) scale(0.1 -0.1)">
      <defs>
       <path id="DejaVuSans-Oblique-58" d="M 878 4666 
L 1516 4666 
L 2316 2981 
L 3763 4666 
L 4500 4666 
L 2578 2438 
L 3738 0 
L 3103 0 
L 2163 1966 
L 459 0 
L -275 0 
L 1906 2509 
L 878 4666 
z
" transform="scale(0.015625)"/>
       <path id="DejaVuSans-28" d="M 1984 4856 
Q 1566 4138 1362 3434 
Q 1159 2731 1159 2009 
Q 1159 1288 1364 580 
Q 1569 -128 1984 -844 
L 1484 -844 
Q 1016 -109 783 600 
Q 550 1309 550 2009 
Q 550 2706 781 3412 
Q 1013 4119 1484 4856 
L 1984 4856 
z
" transform="scale(0.015625)"/>
       <path id="DejaVuSans-Oblique-74" d="M 2706 3500 
L 2619 3053 
L 1472 3053 
L 1100 1153 
Q 1081 1047 1072 975 
Q 1063 903 1063 863 
Q 1063 663 1183 572 
Q 1303 481 1569 481 
L 2150 481 
L 2053 0 
L 1503 0 
Q 991 0 739 200 
Q 488 400 488 806 
Q 488 878 497 964 
Q 506 1050 525 1153 
L 897 3053 
L 409 3053 
L 500 3500 
L 978 3500 
L 1172 4494 
L 1747 4494 
L 1556 3500 
L 2706 3500 
z
" transform="scale(0.015625)"/>
       <path id="DejaVuSans-29" d="M 513 4856 
L 1013 4856 
Q 1481 4119 1714 3412 
Q 1947 2706 1947 2009 
Q 1947 1309 1714 600 
Q 1481 -109 1013 -844 
L 513 -844 
Q 928 -128 1133 580 
Q 1338 1288 1338 2009 
Q 1338 2731 1133 3434 
Q 928 4138 513 4856 
z
" transform="scale(0.015625)"/>
      </defs>
      <use xlink:href="#DejaVuSans-Oblique-58" transform="translate(0 0.125)"/>
      <use xlink:href="#DejaVuSans-28" transform="translate(68.505859 0.125)"/>
      <use xlink:href="#DejaVuSans-Oblique-74" transform="translate(107.519531 0.125)"/>
      <use xlink:href="#DejaVuSans-29" transform="translate(146.728516 0.125)"/>
     </g>
    </g>
   </g>
   <g id="line2d_12">
    <path d="M 72.25539 277.276684 
L 72.974904 288.114996 
L 73.694418 265.408784 
L 74.413931 263.443613 
L 75.133445 235.462714 
L 75.852958 279.068089 
L 76.572472 277.540062 
L 77.291985 288.439563 
L 78.011499 154.36537 
L 78.731012 285.544795 
L 79.450526 259.865907 
L 80.170039 168.585506 
L 80.889553 261.616307 
L 81.609066 178.339536 
L 82.32858 262.533222 
L 83.048094 252.955241 
L 84.487121 226.636519 
L 85.206634 269.668766 
L 85.926148 289.35922 
L 86.645661 280.754333 
L 87.365175 206.518686 
L 88.084688 268.150084 
L 88.804202 261.238129 
L 89.523715 248.46019 
L 90.243229 285.621991 
L 90.962743 153.846443 
L 91.682256 261.5627 
L 92.40177 284.320499 
L 93.121283 286.658248 
L 93.840797 230.807949 
L 94.56031 289.350486 
L 95.279824 286.709468 
L 95.999337 289.169209 
L 96.718851 275.281427 
L 97.438364 275.422573 
L 98.157878 271.640344 
L 98.877391 233.539039 
L 99.596905 278.355373 
L 100.316419 273.240228 
L 101.035932 289.254562 
L 101.755446 248.588353 
L 102.474959 277.91897 
L 103.194473 237.764448 
L 103.913986 270.955051 
L 104.6335 193.973033 
L 105.353013 271.055491 
L 106.072527 96.118906 
L 106.79204 232.928829 
L 107.511554 254.527203 
L 108.231068 284.78834 
L 108.950581 189.133962 
L 109.670095 285.311304 
L 110.389608 265.946813 
L 111.109122 287.898936 
L 111.828635 219.88129 
L 112.548149 263.121425 
L 113.267662 264.255046 
L 113.987176 279.330212 
L 114.706689 166.823922 
L 115.426203 197.739935 
L 116.145716 258.399229 
L 116.86523 273.42446 
L 117.584744 284.328373 
L 118.304257 287.813333 
L 119.023771 206.07004 
L 119.743284 288.145306 
L 120.462798 24.065455 
L 121.182311 264.84463 
L 121.901825 286.701932 
L 122.621338 225.824449 
L 123.340852 205.965038 
L 124.060365 289.292833 
L 124.779879 289.106321 
L 125.499393 259.479155 
L 126.218906 280.072356 
L 126.93842 274.113177 
L 127.657933 251.890116 
L 128.377447 248.854604 
L 129.09696 288.624213 
L 129.816474 284.774493 
L 130.535987 248.631962 
L 131.255501 248.250267 
L 131.975014 267.601973 
L 132.694528 283.83058 
L 133.414042 288.524806 
L 134.133555 271.977545 
L 134.853069 288.947831 
L 135.572582 287.778599 
L 137.011609 138.496576 
L 137.731123 287.671683 
L 138.450636 287.263461 
L 139.17015 264.51473 
L 139.889663 286.126808 
L 140.609177 256.838037 
L 141.32869 287.994935 
L 142.767718 278.530111 
L 143.487231 285.429414 
L 144.206745 278.494474 
L 144.926258 289.148509 
L 145.645772 261.064036 
L 146.365285 288.621732 
L 147.084799 289.151032 
L 147.804312 287.512197 
L 148.523826 289.085418 
L 149.243339 186.093657 
L 149.962853 234.357631 
L 151.40188 282.489504 
L 152.121394 287.294058 
L 152.840907 273.439313 
L 153.560421 289.374545 
L 154.279934 276.640337 
L 154.999448 210.09892 
L 155.718961 284.569548 
L 156.438475 289.156936 
L 157.157988 288.425946 
L 158.597015 252.403766 
L 159.316529 25.666042 
L 160.036043 247.522593 
L 160.755556 184.926833 
L 161.47507 277.901938 
L 162.194583 263.505996 
L 162.914097 265.38277 
L 163.63361 287.889321 
L 164.353124 236.44305 
L 165.072637 286.759536 
L 165.792151 279.448626 
L 166.511664 283.219708 
L 167.231178 272.246252 
L 167.950692 289.021555 
L 168.670205 278.615985 
L 169.389719 283.951794 
L 170.109232 230.357054 
L 170.828746 275.466276 
L 171.548259 289.302542 
L 172.267773 273.951553 
L 172.987286 216.382689 
L 173.7068 288.398477 
L 174.426313 229.347657 
L 175.86534 289.109415 
L 176.584854 286.850922 
L 177.304368 116.67834 
L 178.023881 289.031032 
L 178.743395 271.805512 
L 179.462908 289.363949 
L 180.182422 266.262561 
L 180.901935 283.596002 
L 181.621449 288.158153 
L 182.340962 273.764293 
L 183.060476 203.639746 
L 183.779989 288.787144 
L 184.499503 286.154127 
L 185.219017 289.369662 
L 185.93853 282.728774 
L 186.658044 281.531148 
L 187.377557 289.279537 
L 188.097071 289.126085 
L 188.816584 289.339536 
L 189.536098 273.134961 
L 190.255611 288.891521 
L 190.975125 200.757895 
L 191.694638 285.044715 
L 192.414152 284.560087 
L 193.133665 267.647518 
L 193.853179 212.762014 
L 194.572693 177.767031 
L 195.292206 254.164669 
L 196.01172 270.503728 
L 196.731233 277.579097 
L 197.450747 127.745245 
L 198.17026 264.368564 
L 198.889774 284.457423 
L 199.609287 287.200948 
L 200.328801 251.405643 
L 201.048314 289.291657 
L 201.767828 255.177507 
L 202.487342 260.698622 
L 203.206855 227.370358 
L 203.926369 93.443814 
L 204.645882 271.0896 
L 205.365396 257.311626 
L 206.084909 286.605614 
L 206.804423 289.342277 
L 207.523936 287.75729 
L 208.24345 262.937851 
L 208.962963 222.724602 
L 209.682477 288.420919 
L 210.401991 289.373107 
L 211.121504 242.928184 
L 211.841018 286.971636 
L 212.560531 232.569276 
L 213.280045 280.828567 
L 213.999558 269.650028 
L 214.719072 278.104604 
L 215.438585 207.802311 
L 216.158099 288.554455 
L 216.877612 288.589583 
L 217.597126 261.545591 
L 218.316639 147.610632 
L 219.036153 211.81731 
L 219.755667 265.106944 
L 220.47518 280.922312 
L 221.194694 289.03924 
L 221.914207 284.026225 
L 222.633721 255.395398 
L 223.353234 271.34183 
L 224.072748 282.142787 
L 224.792261 288.695598 
L 225.511775 283.811351 
L 226.950802 262.291791 
L 227.670316 260.438823 
L 228.389829 287.568851 
L 229.109343 289.228438 
L 229.828856 289.290498 
L 230.54837 285.803338 
L 231.267883 280.812445 
L 231.987397 215.521868 
L 232.70691 289.352115 
L 233.426424 268.073872 
L 234.145937 280.93127 
L 234.865451 283.575707 
L 235.584964 283.443908 
L 236.304478 251.30161 
L 237.023992 289.357841 
L 237.743505 274.348181 
L 238.463019 287.011329 
L 239.182532 288.483658 
L 239.902046 268.932373 
L 240.621559 204.384524 
L 241.341073 284.59087 
L 242.060586 276.566876 
L 242.7801 253.89952 
L 243.499613 283.189436 
L 244.219127 250.245579 
L 244.938641 288.237411 
L 245.658154 278.103378 
L 246.377668 287.909738 
L 247.097181 289.211075 
L 247.816695 242.589796 
L 248.536208 276.880579 
L 249.255722 255.384183 
L 249.975235 67.565582 
L 250.694749 236.05537 
L 251.414262 250.73294 
L 252.853289 288.810783 
L 253.572803 267.839114 
L 255.01183 287.621662 
L 255.731344 286.864449 
L 256.450857 260.047311 
L 257.170371 199.848164 
L 257.889884 253.942732 
L 258.609398 267.296676 
L 259.328911 227.811568 
L 260.048425 285.575559 
L 260.767938 274.369233 
L 261.487452 238.007889 
L 262.206966 288.753446 
L 262.926479 259.496349 
L 263.645993 289.349382 
L 264.365506 284.995833 
L 265.08502 283.524669 
L 265.804533 281.697335 
L 266.524047 256.620512 
L 267.963074 282.498348 
L 268.682587 226.18964 
L 269.402101 273.999635 
L 270.121614 286.989272 
L 270.841128 256.241293 
L 271.560642 254.421597 
L 272.280155 263.754174 
L 273.719182 173.990953 
L 274.438696 259.359611 
L 275.158209 277.974572 
L 275.877723 205.075237 
L 276.597236 286.272587 
L 277.31675 263.150395 
L 278.036263 285.011754 
L 278.755777 274.715484 
L 279.475291 287.783458 
L 280.194804 288.804849 
L 280.914318 288.886603 
L 281.633831 267.640485 
L 282.353345 274.67745 
L 283.072858 269.398488 
L 283.792372 247.425221 
L 284.511885 287.06992 
L 285.231399 289.301003 
L 285.950912 281.315319 
L 286.670426 288.284956 
L 287.389939 289.233922 
L 288.109453 281.453592 
L 288.828967 218.082299 
L 289.54848 289.231498 
L 290.267994 289.280227 
L 290.987507 199.400862 
L 291.707021 286.156395 
L 292.426534 278.233506 
L 293.146048 267.849081 
L 293.865561 287.707935 
L 294.585075 255.422773 
L 295.304588 287.467 
L 296.024102 229.888771 
L 296.743616 285.973969 
L 297.463129 280.488011 
L 298.182643 284.126848 
L 298.902156 281.069527 
L 299.62167 233.85373 
L 300.341183 284.93053 
L 301.060697 269.984158 
L 301.78021 289.364447 
L 302.499724 286.0274 
L 303.219237 285.698449 
L 303.938751 266.970211 
L 304.658265 179.171892 
L 305.377778 287.106977 
L 306.097292 289.347218 
L 306.816805 289.020084 
L 307.536319 263.18918 
L 308.975346 285.34781 
L 309.694859 285.599171 
L 310.414373 270.293017 
L 311.8534 288.777696 
L 312.572913 228.22067 
L 313.292427 256.4019 
L 314.011941 202.274159 
L 314.731454 219.673751 
L 315.450968 286.3013 
L 316.170481 285.794204 
L 316.889995 275.209865 
L 317.609508 288.787071 
L 318.329022 287.421811 
L 319.048535 248.583454 
L 319.768049 243.653523 
L 320.487562 281.716378 
L 321.207076 214.586258 
L 321.92659 289.34793 
L 322.646103 288.101389 
L 323.365617 284.272231 
L 324.08513 284.200638 
L 324.804644 239.533428 
L 325.524157 270.040298 
L 326.243671 248.225871 
L 326.963184 288.49338 
L 327.682698 279.832111 
L 328.402211 275.045221 
L 329.121725 287.142692 
L 329.841238 289.226638 
L 330.560752 257.536375 
L 331.280266 289.109765 
L 331.999779 283.431809 
L 332.719293 176.666063 
L 333.438806 179.753348 
L 334.15832 245.116177 
L 334.877833 264.901546 
L 335.597347 281.272577 
L 336.31686 288.459559 
L 337.036374 221.432437 
L 337.755887 288.783322 
L 338.475401 287.647821 
L 339.194915 285.672796 
L 339.914428 200.715864 
L 340.633942 288.208175 
L 341.353455 289.372149 
L 342.072969 269.465165 
L 342.792482 244.427821 
L 343.511996 289.163019 
L 344.231509 251.797199 
L 344.951023 203.351087 
L 345.670536 279.547508 
L 346.39005 205.123884 
L 347.109563 143.613643 
L 347.829077 273.023534 
L 348.548591 194.217254 
L 349.268104 279.550734 
L 349.987618 272.288668 
L 350.707131 245.112256 
L 351.426645 282.843446 
L 352.146158 242.624706 
L 352.865672 289.160861 
L 353.585185 288.883861 
L 354.304699 272.609591 
L 355.024212 238.03836 
L 355.743726 287.733533 
L 356.46324 253.70803 
L 357.182753 281.160464 
L 357.902267 192.949259 
L 358.62178 273.341528 
L 359.341294 284.83779 
L 360.060807 223.3161 
L 360.780321 248.402718 
L 361.499834 278.111475 
L 362.219348 193.550933 
L 362.938861 282.653775 
L 363.658375 289.290351 
L 364.377888 269.621048 
L 365.097402 286.084464 
L 365.816916 283.579517 
L 366.536429 201.467627 
L 367.255943 286.620653 
L 367.975456 281.967556 
L 368.69497 267.621637 
L 369.414483 117.994019 
L 370.133997 239.004725 
L 370.85351 242.569064 
L 371.573024 191.948651 
L 372.292537 289.143124 
L 373.012051 211.225443 
L 373.731565 268.634641 
L 374.451078 283.22415 
L 375.170592 270.00392 
L 375.890105 272.9568 
L 376.609619 287.66775 
L 377.329132 215.472454 
L 378.048646 284.633869 
L 378.768159 275.596488 
L 380.207186 238.106271 
L 380.9267 196.667315 
L 381.646214 248.085557 
L 382.365727 271.947046 
L 383.085241 266.45731 
L 383.804754 289.155321 
L 384.524268 187.967328 
L 385.243781 285.099227 
L 385.963295 129.35445 
L 386.682808 267.616483 
L 387.402322 65.420631 
L 388.121835 288.837371 
L 389.560862 166.988912 
L 390.280376 218.173226 
L 390.99989 286.660745 
L 391.719403 162.811123 
L 392.438917 273.957542 
L 393.15843 274.500976 
L 393.877944 94.679413 
L 394.597457 257.619241 
L 395.316971 271.310961 
L 396.036484 198.971127 
L 396.755998 284.708125 
L 397.475511 261.570186 
L 398.195025 277.671415 
L 398.914539 286.799787 
L 399.634052 286.20079 
L 400.353566 215.216866 
L 401.073079 277.325579 
L 401.792593 289.25607 
L 402.512106 282.266579 
L 403.23162 202.994932 
L 403.951133 241.529065 
L 404.670647 234.800611 
L 405.39016 283.661421 
L 406.829187 249.886108 
L 407.548701 263.780116 
L 408.268215 122.865314 
L 408.987728 288.572212 
L 409.707242 289.204057 
L 410.426755 262.538042 
L 411.146269 289.288005 
L 411.865782 195.58606 
L 412.585296 44.796783 
L 413.304809 230.641846 
L 414.743836 287.675392 
L 415.46335 229.629114 
L 416.182864 289.127875 
L 416.902377 289.150688 
L 417.621891 252.721341 
L 418.341404 237.453853 
L 419.060918 283.458564 
L 419.780431 278.313916 
L 420.499945 265.695712 
L 421.219458 284.383183 
L 421.938972 288.851309 
L 422.658485 289.219093 
L 423.377999 249.911698 
L 424.097512 261.199766 
L 424.817026 253.086352 
L 425.53654 282.062432 
L 426.256053 288.935833 
L 426.975567 85.166188 
L 427.69508 280.791439 
L 428.414594 284.615927 
L 429.134107 274.84373 
L 429.853621 278.624131 
L 430.573134 289.358208 
L 431.292648 265.67702 
L 432.012161 213.118458 
L 432.012161 213.118458 
" clip-path="url(#p07117c71de)" style="fill: none; stroke: #1f77b4; stroke-width: 1.5; stroke-linecap: square"/>
   </g>
   <g id="line2d_13">
    <path d="M 72.25539 277.276684 
L 72.974904 215.00852 
L 73.694418 247.618834 
L 74.413931 265.081775 
L 75.133445 274.940812 
L 75.852958 248.953522 
L 76.572472 237.120842 
L 77.291985 283.382594 
L 78.011499 286.970082 
L 78.731012 188.533676 
L 79.450526 286.069163 
L 80.170039 266.464719 
L 80.889553 228.883237 
L 81.609066 268.466164 
L 82.32858 180.247054 
L 83.048094 266.037562 
L 83.767607 268.295624 
L 84.487121 263.704988 
L 85.206634 238.277556 
L 85.926148 271.252986 
L 86.645661 203.635997 
L 87.365175 278.139668 
L 88.084688 241.256613 
L 88.804202 276.174018 
L 89.523715 269.9258 
L 90.243229 252.294412 
L 90.962743 286.507435 
L 91.682256 152.154203 
L 93.121283 246.653501 
L 93.840797 273.532074 
L 94.56031 258.691886 
L 95.279824 281.334027 
L 95.999337 270.174077 
L 96.718851 289.191269 
L 97.438364 230.907412 
L 98.157878 267.053089 
L 98.877391 222.264333 
L 99.596905 237.663416 
L 100.316419 255.696251 
L 101.035932 236.694167 
L 101.755446 277.220144 
L 102.474959 244.742247 
L 103.194473 266.339956 
L 103.913986 239.628334 
L 104.6335 275.445594 
L 105.353013 228.266866 
L 106.072527 244.761338 
L 106.79204 188.420598 
L 107.511554 171.716815 
L 108.231068 271.557582 
L 108.950581 265.077124 
L 109.670095 238.436367 
L 110.389608 244.117299 
L 111.109122 127.809766 
L 111.828635 287.927426 
L 112.548149 254.550274 
L 113.267662 204.67349 
L 113.987176 249.555971 
L 114.706689 284.263562 
L 116.145716 140.220067 
L 117.584744 280.423323 
L 118.304257 272.960297 
L 119.023771 275.916944 
L 119.743284 185.708802 
L 120.462798 260.703 
L 121.182311 151.32803 
L 121.901825 198.095928 
L 122.621338 287.776793 
L 123.340852 236.369362 
L 124.060365 171.102179 
L 124.779879 274.779392 
L 125.499393 285.891122 
L 126.218906 269.209893 
L 126.93842 283.97518 
L 127.657933 258.910237 
L 128.377447 270.62883 
L 129.09696 260.408525 
L 129.816474 288.995325 
L 130.535987 284.578489 
L 131.255501 262.553668 
L 131.975014 245.735716 
L 132.694528 205.420268 
L 133.414042 240.409429 
L 134.133555 288.107593 
L 134.853069 269.281905 
L 135.572582 285.813776 
L 136.292096 215.4894 
L 137.011609 244.877959 
L 137.731123 197.319422 
L 138.450636 186.970595 
L 139.17015 286.379939 
L 139.889663 252.117367 
L 140.609177 287.465224 
L 141.32869 138.228342 
L 142.048204 270.450295 
L 142.767718 268.081615 
L 143.487231 271.774698 
L 144.206745 259.082249 
L 144.926258 119.617916 
L 145.645772 288.939658 
L 146.365285 197.949354 
L 147.084799 288.16428 
L 147.804312 283.182913 
L 148.523826 287.429366 
L 149.243339 288.96716 
L 149.962853 201.885166 
L 150.682367 203.185611 
L 151.40188 273.629574 
L 152.121394 167.522747 
L 152.840907 267.184632 
L 153.560421 278.942579 
L 154.279934 278.422841 
L 154.999448 279.278863 
L 155.718961 228.278435 
L 156.438475 286.248593 
L 157.157988 285.81602 
L 157.877502 248.568234 
L 158.597015 279.347411 
L 159.316529 252.447009 
L 160.036043 147.802916 
L 160.755556 153.635862 
L 161.47507 229.298604 
L 162.194583 267.483633 
L 162.914097 274.489755 
L 163.63361 238.572962 
L 164.353124 282.76625 
L 165.072637 229.742017 
L 165.792151 286.094342 
L 166.511664 152.201363 
L 167.231178 280.897955 
L 167.950692 243.482878 
L 168.670205 248.912802 
L 169.389719 277.985778 
L 170.109232 261.324978 
L 170.828746 257.660698 
L 171.548259 251.078805 
L 172.267773 268.746276 
L 172.987286 250.502195 
L 173.7068 246.069598 
L 174.426313 221.804704 
L 175.145827 217.261994 
L 175.86534 267.821169 
L 176.584854 288.859364 
L 177.304368 279.32795 
L 178.023881 145.17594 
L 178.743395 289.003262 
L 179.462908 238.071229 
L 180.182422 280.954125 
L 180.901935 251.88985 
L 181.621449 190.901982 
L 182.340962 234.1704 
L 183.060476 249.451744 
L 183.779989 235.321548 
L 184.499503 249.708197 
L 185.219017 287.664772 
L 185.93853 281.30634 
L 186.658044 252.228575 
L 187.377557 284.970842 
L 188.097071 211.496796 
L 188.816584 271.273886 
L 189.536098 135.980993 
L 190.255611 276.943419 
L 190.975125 208.846546 
L 191.694638 210.035445 
L 192.414152 285.899964 
L 193.133665 261.916137 
L 193.853179 209.870636 
L 194.572693 250.659662 
L 195.292206 227.174596 
L 196.01172 251.520844 
L 196.731233 229.852761 
L 197.450747 213.702131 
L 198.17026 177.34064 
L 198.889774 276.732207 
L 199.609287 77.005075 
L 200.328801 284.849124 
L 201.048314 266.116508 
L 201.767828 272.135571 
L 202.487342 260.734084 
L 203.206855 243.48062 
L 203.926369 240.999159 
L 204.645882 163.232348 
L 205.365396 279.834018 
L 206.084909 218.129337 
L 206.804423 268.589827 
L 207.523936 272.13054 
L 208.24345 128.179424 
L 208.962963 275.339644 
L 209.682477 234.245715 
L 210.401991 286.526925 
L 211.121504 165.286675 
L 211.841018 264.274919 
L 212.560531 252.859954 
L 213.280045 256.304129 
L 213.999558 277.027356 
L 214.719072 231.462502 
L 215.438585 267.194818 
L 216.158099 177.090651 
L 216.877612 288.71934 
L 217.597126 288.958171 
L 218.316639 200.999439 
L 219.036153 163.133899 
L 219.755667 245.227782 
L 220.47518 264.408863 
L 221.194694 265.640325 
L 221.914207 276.445574 
L 222.633721 219.74903 
L 223.353234 256.005338 
L 224.072748 254.639962 
L 224.792261 284.874925 
L 225.511775 288.811861 
L 226.231288 278.718076 
L 226.950802 120.910302 
L 227.670316 275.28983 
L 228.389829 93.500457 
L 229.109343 118.188862 
L 229.828856 287.998366 
L 230.54837 282.065992 
L 231.267883 287.509963 
L 232.70691 225.296571 
L 233.426424 285.451754 
L 234.145937 228.846226 
L 234.865451 270.894497 
L 235.584964 278.06051 
L 236.304478 207.81466 
L 237.023992 244.102886 
L 237.743505 192.516379 
L 238.463019 268.888376 
L 239.182532 252.666785 
L 239.902046 277.151455 
L 240.621559 263.349658 
L 241.341073 225.029257 
L 242.060586 286.034073 
L 242.7801 282.124241 
L 243.499613 266.426566 
L 244.219127 128.837561 
L 244.938641 268.651065 
L 245.658154 263.775156 
L 246.377668 280.498349 
L 247.097181 275.899471 
L 247.816695 247.208659 
L 248.536208 176.028784 
L 249.255722 281.930079 
L 249.975235 267.18084 
L 250.694749 99.941964 
L 251.414262 262.715072 
L 252.133776 205.123307 
L 252.853289 160.880448 
L 253.572803 284.049646 
L 254.292317 272.385264 
L 255.01183 227.131068 
L 255.731344 275.453535 
L 256.450857 232.053589 
L 257.170371 274.435362 
L 258.609398 201.2422 
L 259.328911 263.002102 
L 260.048425 258.492858 
L 260.767938 203.590342 
L 261.487452 281.574054 
L 262.206966 198.332199 
L 262.926479 285.491485 
L 263.645993 213.986797 
L 265.08502 283.741864 
L 265.804533 267.998354 
L 266.524047 237.253264 
L 267.24356 270.472836 
L 267.963074 279.290424 
L 268.682587 225.682174 
L 269.402101 244.459492 
L 270.121614 281.353978 
L 270.841128 278.878268 
L 271.560642 180.776446 
L 272.280155 215.66594 
L 272.999669 226.574085 
L 273.719182 233.298622 
L 274.438696 231.025007 
L 275.158209 266.365502 
L 275.877723 278.826819 
L 276.597236 241.005302 
L 277.31675 285.65731 
L 278.036263 212.429052 
L 278.755777 284.406589 
L 279.475291 281.760016 
L 280.194804 277.221949 
L 280.914318 288.12281 
L 281.633831 278.662163 
L 282.353345 195.82197 
L 283.072858 184.705624 
L 283.792372 229.283451 
L 284.511885 265.845734 
L 285.231399 232.782724 
L 285.950912 267.7867 
L 286.670426 282.198402 
L 287.389939 288.723542 
L 288.109453 289.262773 
L 288.828967 284.34446 
L 289.54848 222.178945 
L 290.267994 243.406238 
L 290.987507 211.111427 
L 291.707021 244.232546 
L 292.426534 286.216735 
L 293.146048 190.127242 
L 294.585075 286.505832 
L 295.304588 271.156335 
L 296.024102 118.393422 
L 296.743616 245.641851 
L 297.463129 272.106753 
L 298.182643 271.935428 
L 298.902156 286.592668 
L 299.62167 284.624702 
L 300.341183 79.711462 
L 301.060697 273.343155 
L 301.78021 256.070941 
L 302.499724 288.091009 
L 303.219237 250.369646 
L 303.938751 286.531104 
L 304.658265 190.807445 
L 305.377778 222.860887 
L 306.097292 160.80082 
L 306.816805 265.770834 
L 307.536319 254.788352 
L 308.975346 281.120711 
L 309.694859 262.794802 
L 310.414373 131.833653 
L 311.133886 262.067815 
L 311.8534 232.788154 
L 312.572913 272.92609 
L 313.292427 250.601743 
L 314.011941 271.890509 
L 314.731454 234.983259 
L 315.450968 246.033484 
L 316.170481 283.686272 
L 316.889995 229.613998 
L 318.329022 243.879433 
L 319.048535 268.080347 
L 319.768049 211.806358 
L 320.487562 232.80309 
L 321.207076 285.408404 
L 321.92659 237.846596 
L 322.646103 230.995603 
L 323.365617 288.732763 
L 324.08513 241.988063 
L 324.804644 272.622967 
L 325.524157 179.7058 
L 326.243671 267.315608 
L 326.963184 235.940533 
L 327.682698 268.610437 
L 328.402211 284.57128 
L 329.121725 279.682237 
L 329.841238 235.783242 
L 330.560752 278.183218 
L 331.280266 272.760494 
L 331.999779 236.939645 
L 332.719293 286.336924 
L 333.438806 228.539192 
L 334.15832 218.214888 
L 334.877833 251.975622 
L 335.597347 258.145584 
L 336.31686 260.144998 
L 337.036374 283.151654 
L 337.755887 235.849475 
L 338.475401 276.400341 
L 339.194915 109.450682 
L 339.914428 274.609412 
L 340.633942 198.764989 
L 341.353455 275.517797 
L 342.072969 227.715814 
L 342.792482 268.485645 
L 343.511996 264.571824 
L 344.231509 214.26546 
L 344.951023 268.972755 
L 345.670536 220.321382 
L 346.39005 275.260978 
L 347.109563 88.099256 
L 347.829077 209.643262 
L 348.548591 269.313841 
L 349.268104 241.783823 
L 349.987618 278.217312 
L 350.707131 265.778532 
L 351.426645 267.243547 
L 352.146158 270.381591 
L 352.865672 222.355242 
L 353.585185 202.734387 
L 354.304699 255.213659 
L 355.024212 218.81214 
L 355.743726 239.661406 
L 356.46324 288.552543 
L 357.182753 260.789393 
L 357.902267 255.115408 
L 358.62178 235.480891 
L 359.341294 254.445959 
L 360.060807 285.407468 
L 360.780321 249.228444 
L 361.499834 267.294407 
L 362.219348 104.275999 
L 362.938861 237.948452 
L 363.658375 285.923561 
L 364.377888 284.530561 
L 365.097402 269.76027 
L 365.816916 282.169709 
L 366.536429 183.808369 
L 367.255943 245.39685 
L 367.975456 281.670931 
L 368.69497 255.780648 
L 369.414483 259.249171 
L 370.133997 197.314942 
L 370.85351 244.205211 
L 371.573024 252.698904 
L 372.292537 240.567455 
L 373.012051 226.303602 
L 373.731565 222.657832 
L 374.451078 257.304949 
L 375.170592 280.632863 
L 375.890105 261.769054 
L 376.609619 279.538059 
L 377.329132 275.426645 
L 378.048646 252.158348 
L 378.768159 262.639631 
L 379.487673 268.959854 
L 380.207186 261.770969 
L 380.9267 123.590171 
L 381.646214 233.598913 
L 382.365727 265.659499 
L 383.085241 222.291888 
L 384.524268 283.152881 
L 385.243781 238.113401 
L 385.963295 226.374852 
L 386.682808 203.082826 
L 387.402322 204.455679 
L 388.121835 171.494263 
L 388.841349 289.10608 
L 390.280376 208.694023 
L 390.99989 204.128378 
L 391.719403 242.439904 
L 392.438917 72.471545 
L 393.15843 258.071267 
L 393.877944 280.010926 
L 394.597457 146.245721 
L 395.316971 269.82342 
L 396.036484 279.590097 
L 396.755998 241.108822 
L 397.475511 283.074258 
L 398.195025 274.266884 
L 398.914539 271.549677 
L 399.634052 284.409207 
L 400.353566 286.396273 
L 401.073079 165.724098 
L 401.792593 280.0677 
L 402.512106 289.188864 
L 403.23162 285.814907 
L 403.951133 208.006321 
L 404.670647 253.3995 
L 405.39016 260.255019 
L 406.109674 36.842105 
L 406.829187 269.641918 
L 407.548701 259.005901 
L 408.268215 217.328836 
L 408.987728 203.852653 
L 409.707242 180.19518 
L 410.426755 284.461072 
L 411.146269 185.310444 
L 411.865782 276.11505 
L 412.585296 123.874666 
L 413.304809 166.698404 
L 414.024323 225.781737 
L 415.46335 284.345807 
L 416.182864 222.88682 
L 416.902377 258.132453 
L 417.621891 219.607121 
L 418.341404 231.733292 
L 419.060918 262.662269 
L 419.780431 268.064631 
L 420.499945 242.677901 
L 421.219458 263.736239 
L 421.938972 205.283718 
L 422.658485 289.111985 
L 423.377999 288.160387 
L 424.097512 259.347411 
L 424.817026 182.496846 
L 425.53654 269.073902 
L 426.256053 285.707856 
L 427.69508 185.425821 
L 428.414594 207.031664 
L 429.134107 283.508224 
L 429.853621 280.023707 
L 430.573134 261.731664 
L 431.292648 234.325023 
L 432.012161 263.248732 
L 432.012161 263.248732 
" clip-path="url(#p07117c71de)" style="fill: none; stroke: #ff7f0e; stroke-width: 1.5; stroke-linecap: square"/>
   </g>
   <g id="patch_3">
    <path d="M 54.267552 302.64 
L 54.267552 10.8 
" style="fill: none; stroke: #000000; stroke-width: 0.8; stroke-linejoin: miter; stroke-linecap: square"/>
   </g>
   <g id="patch_4">
    <path d="M 450 302.64 
L 450 10.8 
" style="fill: none; stroke: #000000; stroke-width: 0.8; stroke-linejoin: miter; stroke-linecap: square"/>
   </g>
   <g id="patch_5">
    <path d="M 54.267552 302.64 
L 450 302.64 
" style="fill: none; stroke: #000000; stroke-width: 0.8; stroke-linejoin: miter; stroke-linecap: square"/>
   </g>
   <g id="patch_6">
    <path d="M 54.267552 10.8 
L 450 10.8 
" style="fill: none; stroke: #000000; stroke-width: 0.8; stroke-linejoin: miter; stroke-linecap: square"/>
   </g>
  </g>
 </g>
 <defs>
  <clipPath id="p07117c71de">
   <rect x="54.267552" y="10.8" width="395.732448" height="291.84"/>
  </clipPath>
 </defs>
</svg>
