<?xml version="1.0" encoding="utf-8" standalone="no"?>
<!DOCTYPE svg PUBLIC "-//W3C//DTD SVG 1.1//EN"
  "http://www.w3.org/Graphics/SVG/1.1/DTD/svg11.dtd">
<svg xmlns:xlink="http://www.w3.org/1999/xlink" width="460.8pt" height="345.6pt" viewBox="0 0 460.8 345.6" xmlns="http://www.w3.org/2000/svg" version="1.1">
 <metadata>
  <rdf:RDF xmlns:dc="http://purl.org/dc/elements/1.1/" xmlns:cc="http://creativecommons.org/ns#" xmlns:rdf="http://www.w3.org/1999/02/22-rdf-syntax-ns#">
   <cc:Work>
    <dc:type rdf:resource="http://purl.org/dc/dcmitype/StillImage"/>
    <dc:date>2023-09-22T23:17:31.782832</dc:date>
    <dc:format>image/svg+xml</dc:format>
    <dc:creator>
     <cc:Agent>
      <dc:title>Matplotlib v3.7.1, https://matplotlib.org/</dc:title>
     </cc:Agent>
    </dc:creator>
   </cc:Work>
  </rdf:RDF>
 </metadata>
 <defs>
  <style type="text/css">*{stroke-linejoin: round; stroke-linecap: butt}</style>
 </defs>
 <g id="figure_1">
  <g id="patch_1">
   <path d="M 0 345.6 
L 460.8 345.6 
L 460.8 0 
L 0 0 
z
" style="fill: #ffffff"/>
  </g>
  <g id="axes_1">
   <g id="patch_2">
    <path d="M 46.797552 302.64 
L 450 302.64 
L 450 10.8 
L 46.797552 10.8 
z
" style="fill: #ffffff"/>
   </g>
   <g id="matplotlib.axis_1">
    <g id="xtick_1">
     <g id="line2d_1">
      <defs>
       <path id="mb5bdd727ac" d="M 0 0 
L 0 -3.5 
" style="stroke: #000000; stroke-width: 0.8"/>
      </defs>
      <g>
       <use xlink:href="#mb5bdd727ac" x="65.124936" y="302.64" style="stroke: #000000; stroke-width: 0.8"/>
      </g>
     </g>
     <g id="text_1">
      <!-- 0 -->
      <g transform="translate(61.374936 316.555625) scale(0.15 -0.15)">
       <defs>
        <path id="TimesNewRomanPSMT-30" d="M 231 2094 
Q 231 2819 450 3342 
Q 669 3866 1031 4122 
Q 1313 4325 1613 4325 
Q 2100 4325 2488 3828 
Q 2972 3213 2972 2159 
Q 2972 1422 2759 906 
Q 2547 391 2217 158 
Q 1888 -75 1581 -75 
Q 975 -75 572 641 
Q 231 1244 231 2094 
z
M 844 2016 
Q 844 1141 1059 588 
Q 1238 122 1591 122 
Q 1759 122 1940 273 
Q 2122 425 2216 781 
Q 2359 1319 2359 2297 
Q 2359 3022 2209 3506 
Q 2097 3866 1919 4016 
Q 1791 4119 1609 4119 
Q 1397 4119 1231 3928 
Q 1006 3669 925 3112 
Q 844 2556 844 2016 
z
" transform="scale(0.015625)"/>
       </defs>
       <use xlink:href="#TimesNewRomanPSMT-30"/>
      </g>
     </g>
    </g>
    <g id="xtick_2">
     <g id="line2d_2">
      <g>
       <use xlink:href="#mb5bdd727ac" x="138.434472" y="302.64" style="stroke: #000000; stroke-width: 0.8"/>
      </g>
     </g>
     <g id="text_2">
      <!-- 100 -->
      <g transform="translate(127.184472 316.555625) scale(0.15 -0.15)">
       <defs>
        <path id="TimesNewRomanPSMT-31" d="M 750 3822 
L 1781 4325 
L 1884 4325 
L 1884 747 
Q 1884 391 1914 303 
Q 1944 216 2037 169 
Q 2131 122 2419 116 
L 2419 0 
L 825 0 
L 825 116 
Q 1125 122 1212 167 
Q 1300 213 1334 289 
Q 1369 366 1369 747 
L 1369 3034 
Q 1369 3497 1338 3628 
Q 1316 3728 1258 3775 
Q 1200 3822 1119 3822 
Q 1003 3822 797 3725 
L 750 3822 
z
" transform="scale(0.015625)"/>
       </defs>
       <use xlink:href="#TimesNewRomanPSMT-31"/>
       <use xlink:href="#TimesNewRomanPSMT-30" x="50"/>
       <use xlink:href="#TimesNewRomanPSMT-30" x="100"/>
      </g>
     </g>
    </g>
    <g id="xtick_3">
     <g id="line2d_3">
      <g>
       <use xlink:href="#mb5bdd727ac" x="211.744008" y="302.64" style="stroke: #000000; stroke-width: 0.8"/>
      </g>
     </g>
     <g id="text_3">
      <!-- 200 -->
      <g transform="translate(200.494008 316.555625) scale(0.15 -0.15)">
       <defs>
        <path id="TimesNewRomanPSMT-32" d="M 2934 816 
L 2638 0 
L 138 0 
L 138 116 
Q 1241 1122 1691 1759 
Q 2141 2397 2141 2925 
Q 2141 3328 1894 3587 
Q 1647 3847 1303 3847 
Q 991 3847 742 3664 
Q 494 3481 375 3128 
L 259 3128 
Q 338 3706 661 4015 
Q 984 4325 1469 4325 
Q 1984 4325 2329 3994 
Q 2675 3663 2675 3213 
Q 2675 2891 2525 2569 
Q 2294 2063 1775 1497 
Q 997 647 803 472 
L 1909 472 
Q 2247 472 2383 497 
Q 2519 522 2628 598 
Q 2738 675 2819 816 
L 2934 816 
z
" transform="scale(0.015625)"/>
       </defs>
       <use xlink:href="#TimesNewRomanPSMT-32"/>
       <use xlink:href="#TimesNewRomanPSMT-30" x="50"/>
       <use xlink:href="#TimesNewRomanPSMT-30" x="100"/>
      </g>
     </g>
    </g>
    <g id="xtick_4">
     <g id="line2d_4">
      <g>
       <use xlink:href="#mb5bdd727ac" x="285.053544" y="302.64" style="stroke: #000000; stroke-width: 0.8"/>
      </g>
     </g>
     <g id="text_4">
      <!-- 300 -->
      <g transform="translate(273.803544 316.555625) scale(0.15 -0.15)">
       <defs>
        <path id="TimesNewRomanPSMT-33" d="M 325 3431 
Q 506 3859 782 4092 
Q 1059 4325 1472 4325 
Q 1981 4325 2253 3994 
Q 2459 3747 2459 3466 
Q 2459 3003 1878 2509 
Q 2269 2356 2469 2072 
Q 2669 1788 2669 1403 
Q 2669 853 2319 450 
Q 1863 -75 997 -75 
Q 569 -75 414 31 
Q 259 138 259 259 
Q 259 350 332 419 
Q 406 488 509 488 
Q 588 488 669 463 
Q 722 447 909 348 
Q 1097 250 1169 231 
Q 1284 197 1416 197 
Q 1734 197 1970 444 
Q 2206 691 2206 1028 
Q 2206 1275 2097 1509 
Q 2016 1684 1919 1775 
Q 1784 1900 1550 2001 
Q 1316 2103 1072 2103 
L 972 2103 
L 972 2197 
Q 1219 2228 1467 2375 
Q 1716 2522 1828 2728 
Q 1941 2934 1941 3181 
Q 1941 3503 1739 3701 
Q 1538 3900 1238 3900 
Q 753 3900 428 3381 
L 325 3431 
z
" transform="scale(0.015625)"/>
       </defs>
       <use xlink:href="#TimesNewRomanPSMT-33"/>
       <use xlink:href="#TimesNewRomanPSMT-30" x="50"/>
       <use xlink:href="#TimesNewRomanPSMT-30" x="100"/>
      </g>
     </g>
    </g>
    <g id="xtick_5">
     <g id="line2d_5">
      <g>
       <use xlink:href="#mb5bdd727ac" x="358.36308" y="302.64" style="stroke: #000000; stroke-width: 0.8"/>
      </g>
     </g>
     <g id="text_5">
      <!-- 400 -->
      <g transform="translate(347.11308 316.555625) scale(0.15 -0.15)">
       <defs>
        <path id="TimesNewRomanPSMT-34" d="M 2978 1563 
L 2978 1119 
L 2409 1119 
L 2409 0 
L 1894 0 
L 1894 1119 
L 100 1119 
L 100 1519 
L 2066 4325 
L 2409 4325 
L 2409 1563 
L 2978 1563 
z
M 1894 1563 
L 1894 3666 
L 406 1563 
L 1894 1563 
z
" transform="scale(0.015625)"/>
       </defs>
       <use xlink:href="#TimesNewRomanPSMT-34"/>
       <use xlink:href="#TimesNewRomanPSMT-30" x="50"/>
       <use xlink:href="#TimesNewRomanPSMT-30" x="100"/>
      </g>
     </g>
    </g>
    <g id="xtick_6">
     <g id="line2d_6">
      <g>
       <use xlink:href="#mb5bdd727ac" x="431.672616" y="302.64" style="stroke: #000000; stroke-width: 0.8"/>
      </g>
     </g>
     <g id="text_6">
      <!-- 500 -->
      <g transform="translate(420.422616 316.555625) scale(0.15 -0.15)">
       <defs>
        <path id="TimesNewRomanPSMT-35" d="M 2778 4238 
L 2534 3706 
L 1259 3706 
L 981 3138 
Q 1809 3016 2294 2522 
Q 2709 2097 2709 1522 
Q 2709 1188 2573 903 
Q 2438 619 2231 419 
Q 2025 219 1772 97 
Q 1413 -75 1034 -75 
Q 653 -75 479 54 
Q 306 184 306 341 
Q 306 428 378 495 
Q 450 563 559 563 
Q 641 563 702 538 
Q 763 513 909 409 
Q 1144 247 1384 247 
Q 1750 247 2026 523 
Q 2303 800 2303 1197 
Q 2303 1581 2056 1914 
Q 1809 2247 1375 2428 
Q 1034 2569 447 2591 
L 1259 4238 
L 2778 4238 
z
" transform="scale(0.015625)"/>
       </defs>
       <use xlink:href="#TimesNewRomanPSMT-35"/>
       <use xlink:href="#TimesNewRomanPSMT-30" x="50"/>
       <use xlink:href="#TimesNewRomanPSMT-30" x="100"/>
      </g>
     </g>
    </g>
    <g id="text_7">
     <!-- Time (arbitrary unit) -->
     <g transform="translate(207.202682 330.707969) scale(0.1 -0.1)">
      <defs>
       <path id="TimesNewRomanPSMT-54" d="M 3703 4238 
L 3750 3244 
L 3631 3244 
Q 3597 3506 3538 3619 
Q 3441 3800 3280 3886 
Q 3119 3972 2856 3972 
L 2259 3972 
L 2259 734 
Q 2259 344 2344 247 
Q 2463 116 2709 116 
L 2856 116 
L 2856 0 
L 1059 0 
L 1059 116 
L 1209 116 
Q 1478 116 1591 278 
Q 1659 378 1659 734 
L 1659 3972 
L 1150 3972 
Q 853 3972 728 3928 
Q 566 3869 450 3700 
Q 334 3531 313 3244 
L 194 3244 
L 244 4238 
L 3703 4238 
z
" transform="scale(0.015625)"/>
       <path id="TimesNewRomanPSMT-69" d="M 928 4444 
Q 1059 4444 1151 4351 
Q 1244 4259 1244 4128 
Q 1244 3997 1151 3903 
Q 1059 3809 928 3809 
Q 797 3809 703 3903 
Q 609 3997 609 4128 
Q 609 4259 701 4351 
Q 794 4444 928 4444 
z
M 1188 2947 
L 1188 647 
Q 1188 378 1227 289 
Q 1266 200 1342 156 
Q 1419 113 1622 113 
L 1622 0 
L 231 0 
L 231 113 
Q 441 113 512 153 
Q 584 194 626 287 
Q 669 381 669 647 
L 669 1750 
Q 669 2216 641 2353 
Q 619 2453 572 2492 
Q 525 2531 444 2531 
Q 356 2531 231 2484 
L 188 2597 
L 1050 2947 
L 1188 2947 
z
" transform="scale(0.015625)"/>
       <path id="TimesNewRomanPSMT-6d" d="M 1050 2338 
Q 1363 2650 1419 2697 
Q 1559 2816 1721 2881 
Q 1884 2947 2044 2947 
Q 2313 2947 2506 2790 
Q 2700 2634 2766 2338 
Q 3088 2713 3309 2830 
Q 3531 2947 3766 2947 
Q 3994 2947 4170 2830 
Q 4347 2713 4450 2447 
Q 4519 2266 4519 1878 
L 4519 647 
Q 4519 378 4559 278 
Q 4591 209 4675 161 
Q 4759 113 4950 113 
L 4950 0 
L 3538 0 
L 3538 113 
L 3597 113 
Q 3781 113 3884 184 
Q 3956 234 3988 344 
Q 4000 397 4000 647 
L 4000 1878 
Q 4000 2228 3916 2372 
Q 3794 2572 3525 2572 
Q 3359 2572 3192 2489 
Q 3025 2406 2788 2181 
L 2781 2147 
L 2788 2013 
L 2788 647 
Q 2788 353 2820 281 
Q 2853 209 2943 161 
Q 3034 113 3253 113 
L 3253 0 
L 1806 0 
L 1806 113 
Q 2044 113 2133 169 
Q 2222 225 2256 338 
Q 2272 391 2272 647 
L 2272 1878 
Q 2272 2228 2169 2381 
Q 2031 2581 1784 2581 
Q 1616 2581 1450 2491 
Q 1191 2353 1050 2181 
L 1050 647 
Q 1050 366 1089 281 
Q 1128 197 1204 155 
Q 1281 113 1516 113 
L 1516 0 
L 100 0 
L 100 113 
Q 297 113 375 155 
Q 453 197 493 289 
Q 534 381 534 647 
L 534 1741 
Q 534 2213 506 2350 
Q 484 2453 437 2492 
Q 391 2531 309 2531 
Q 222 2531 100 2484 
L 53 2597 
L 916 2947 
L 1050 2947 
L 1050 2338 
z
" transform="scale(0.015625)"/>
       <path id="TimesNewRomanPSMT-65" d="M 681 1784 
Q 678 1147 991 784 
Q 1303 422 1725 422 
Q 2006 422 2214 576 
Q 2422 731 2563 1106 
L 2659 1044 
Q 2594 616 2278 264 
Q 1963 -88 1488 -88 
Q 972 -88 605 314 
Q 238 716 238 1394 
Q 238 2128 614 2539 
Q 991 2950 1559 2950 
Q 2041 2950 2350 2633 
Q 2659 2316 2659 1784 
L 681 1784 
z
M 681 1966 
L 2006 1966 
Q 1991 2241 1941 2353 
Q 1863 2528 1708 2628 
Q 1553 2728 1384 2728 
Q 1125 2728 920 2526 
Q 716 2325 681 1966 
z
" transform="scale(0.015625)"/>
       <path id="TimesNewRomanPSMT-20" transform="scale(0.015625)"/>
       <path id="TimesNewRomanPSMT-28" d="M 1988 -1253 
L 1988 -1369 
Q 1516 -1131 1200 -813 
Q 750 -359 506 256 
Q 263 872 263 1534 
Q 263 2503 741 3301 
Q 1219 4100 1988 4444 
L 1988 4313 
Q 1603 4100 1356 3731 
Q 1109 3363 987 2797 
Q 866 2231 866 1616 
Q 866 947 969 400 
Q 1050 -31 1165 -292 
Q 1281 -553 1476 -793 
Q 1672 -1034 1988 -1253 
z
" transform="scale(0.015625)"/>
       <path id="TimesNewRomanPSMT-61" d="M 1822 413 
Q 1381 72 1269 19 
Q 1100 -59 909 -59 
Q 613 -59 420 144 
Q 228 347 228 678 
Q 228 888 322 1041 
Q 450 1253 767 1440 
Q 1084 1628 1822 1897 
L 1822 2009 
Q 1822 2438 1686 2597 
Q 1550 2756 1291 2756 
Q 1094 2756 978 2650 
Q 859 2544 859 2406 
L 866 2225 
Q 866 2081 792 2003 
Q 719 1925 600 1925 
Q 484 1925 411 2006 
Q 338 2088 338 2228 
Q 338 2497 613 2722 
Q 888 2947 1384 2947 
Q 1766 2947 2009 2819 
Q 2194 2722 2281 2516 
Q 2338 2381 2338 1966 
L 2338 994 
Q 2338 584 2353 492 
Q 2369 400 2405 369 
Q 2441 338 2488 338 
Q 2538 338 2575 359 
Q 2641 400 2828 588 
L 2828 413 
Q 2478 -56 2159 -56 
Q 2006 -56 1915 50 
Q 1825 156 1822 413 
z
M 1822 616 
L 1822 1706 
Q 1350 1519 1213 1441 
Q 966 1303 859 1153 
Q 753 1003 753 825 
Q 753 600 887 451 
Q 1022 303 1197 303 
Q 1434 303 1822 616 
z
" transform="scale(0.015625)"/>
       <path id="TimesNewRomanPSMT-72" d="M 1038 2947 
L 1038 2303 
Q 1397 2947 1775 2947 
Q 1947 2947 2059 2842 
Q 2172 2738 2172 2600 
Q 2172 2478 2090 2393 
Q 2009 2309 1897 2309 
Q 1788 2309 1652 2417 
Q 1516 2525 1450 2525 
Q 1394 2525 1328 2463 
Q 1188 2334 1038 2041 
L 1038 669 
Q 1038 431 1097 309 
Q 1138 225 1241 169 
Q 1344 113 1538 113 
L 1538 0 
L 72 0 
L 72 113 
Q 291 113 397 181 
Q 475 231 506 341 
Q 522 394 522 644 
L 522 1753 
Q 522 2253 501 2348 
Q 481 2444 426 2487 
Q 372 2531 291 2531 
Q 194 2531 72 2484 
L 41 2597 
L 906 2947 
L 1038 2947 
z
" transform="scale(0.015625)"/>
       <path id="TimesNewRomanPSMT-62" d="M 984 2369 
Q 1400 2947 1881 2947 
Q 2322 2947 2650 2570 
Q 2978 2194 2978 1541 
Q 2978 778 2472 313 
Q 2038 -88 1503 -88 
Q 1253 -88 995 3 
Q 738 94 469 275 
L 469 3241 
Q 469 3728 445 3840 
Q 422 3953 372 3993 
Q 322 4034 247 4034 
Q 159 4034 28 3984 
L -16 4094 
L 844 4444 
L 984 4444 
L 984 2369 
z
M 984 2169 
L 984 456 
Q 1144 300 1314 220 
Q 1484 141 1663 141 
Q 1947 141 2192 453 
Q 2438 766 2438 1363 
Q 2438 1913 2192 2208 
Q 1947 2503 1634 2503 
Q 1469 2503 1303 2419 
Q 1178 2356 984 2169 
z
" transform="scale(0.015625)"/>
       <path id="TimesNewRomanPSMT-74" d="M 1031 3803 
L 1031 2863 
L 1700 2863 
L 1700 2644 
L 1031 2644 
L 1031 788 
Q 1031 509 1111 412 
Q 1191 316 1316 316 
Q 1419 316 1516 380 
Q 1613 444 1666 569 
L 1788 569 
Q 1678 263 1478 108 
Q 1278 -47 1066 -47 
Q 922 -47 784 33 
Q 647 113 581 261 
Q 516 409 516 719 
L 516 2644 
L 63 2644 
L 63 2747 
Q 234 2816 414 2980 
Q 594 3144 734 3369 
Q 806 3488 934 3803 
L 1031 3803 
z
" transform="scale(0.015625)"/>
       <path id="TimesNewRomanPSMT-79" d="M 38 2863 
L 1372 2863 
L 1372 2747 
L 1306 2747 
Q 1166 2747 1095 2686 
Q 1025 2625 1025 2534 
Q 1025 2413 1128 2197 
L 1825 753 
L 2466 2334 
Q 2519 2463 2519 2588 
Q 2519 2644 2497 2672 
Q 2472 2706 2419 2726 
Q 2366 2747 2231 2747 
L 2231 2863 
L 3163 2863 
L 3163 2747 
Q 3047 2734 2984 2696 
Q 2922 2659 2847 2556 
Q 2819 2513 2741 2316 
L 1575 -541 
Q 1406 -956 1132 -1168 
Q 859 -1381 606 -1381 
Q 422 -1381 303 -1275 
Q 184 -1169 184 -1031 
Q 184 -900 270 -820 
Q 356 -741 506 -741 
Q 609 -741 788 -809 
Q 913 -856 944 -856 
Q 1038 -856 1148 -759 
Q 1259 -663 1372 -384 
L 1575 113 
L 547 2272 
Q 500 2369 397 2513 
Q 319 2622 269 2659 
Q 197 2709 38 2747 
L 38 2863 
z
" transform="scale(0.015625)"/>
       <path id="TimesNewRomanPSMT-75" d="M 2709 2863 
L 2709 1128 
Q 2709 631 2732 520 
Q 2756 409 2807 365 
Q 2859 322 2928 322 
Q 3025 322 3147 375 
L 3191 266 
L 2334 -88 
L 2194 -88 
L 2194 519 
Q 1825 119 1631 15 
Q 1438 -88 1222 -88 
Q 981 -88 804 51 
Q 628 191 559 409 
Q 491 628 491 1028 
L 491 2306 
Q 491 2509 447 2587 
Q 403 2666 317 2708 
Q 231 2750 6 2747 
L 6 2863 
L 1009 2863 
L 1009 947 
Q 1009 547 1148 422 
Q 1288 297 1484 297 
Q 1619 297 1789 381 
Q 1959 466 2194 703 
L 2194 2325 
Q 2194 2569 2105 2655 
Q 2016 2741 1734 2747 
L 1734 2863 
L 2709 2863 
z
" transform="scale(0.015625)"/>
       <path id="TimesNewRomanPSMT-6e" d="M 1034 2341 
Q 1538 2947 1994 2947 
Q 2228 2947 2397 2830 
Q 2566 2713 2666 2444 
Q 2734 2256 2734 1869 
L 2734 647 
Q 2734 375 2778 278 
Q 2813 200 2889 156 
Q 2966 113 3172 113 
L 3172 0 
L 1756 0 
L 1756 113 
L 1816 113 
Q 2016 113 2095 173 
Q 2175 234 2206 353 
Q 2219 400 2219 647 
L 2219 1819 
Q 2219 2209 2117 2386 
Q 2016 2563 1775 2563 
Q 1403 2563 1034 2156 
L 1034 647 
Q 1034 356 1069 288 
Q 1113 197 1189 155 
Q 1266 113 1500 113 
L 1500 0 
L 84 0 
L 84 113 
L 147 113 
Q 366 113 442 223 
Q 519 334 519 647 
L 519 1709 
Q 519 2225 495 2337 
Q 472 2450 423 2490 
Q 375 2531 294 2531 
Q 206 2531 84 2484 
L 38 2597 
L 900 2947 
L 1034 2947 
L 1034 2341 
z
" transform="scale(0.015625)"/>
       <path id="TimesNewRomanPSMT-29" d="M 144 4313 
L 144 4444 
Q 619 4209 934 3891 
Q 1381 3434 1625 2820 
Q 1869 2206 1869 1541 
Q 1869 572 1392 -226 
Q 916 -1025 144 -1369 
L 144 -1253 
Q 528 -1038 776 -670 
Q 1025 -303 1145 264 
Q 1266 831 1266 1447 
Q 1266 2113 1163 2663 
Q 1084 3094 967 3353 
Q 850 3613 656 3853 
Q 463 4094 144 4313 
z
" transform="scale(0.015625)"/>
      </defs>
      <use xlink:href="#TimesNewRomanPSMT-54"/>
      <use xlink:href="#TimesNewRomanPSMT-69" x="57.583984"/>
      <use xlink:href="#TimesNewRomanPSMT-6d" x="85.367188"/>
      <use xlink:href="#TimesNewRomanPSMT-65" x="163.150391"/>
      <use xlink:href="#TimesNewRomanPSMT-20" x="207.535156"/>
      <use xlink:href="#TimesNewRomanPSMT-28" x="232.535156"/>
      <use xlink:href="#TimesNewRomanPSMT-61" x="265.835938"/>
      <use xlink:href="#TimesNewRomanPSMT-72" x="310.220703"/>
      <use xlink:href="#TimesNewRomanPSMT-62" x="343.521484"/>
      <use xlink:href="#TimesNewRomanPSMT-69" x="393.521484"/>
      <use xlink:href="#TimesNewRomanPSMT-74" x="421.304688"/>
      <use xlink:href="#TimesNewRomanPSMT-72" x="449.087891"/>
      <use xlink:href="#TimesNewRomanPSMT-61" x="482.388672"/>
      <use xlink:href="#TimesNewRomanPSMT-72" x="526.773438"/>
      <use xlink:href="#TimesNewRomanPSMT-79" x="560.074219"/>
      <use xlink:href="#TimesNewRomanPSMT-20" x="610.074219"/>
      <use xlink:href="#TimesNewRomanPSMT-75" x="635.074219"/>
      <use xlink:href="#TimesNewRomanPSMT-6e" x="685.074219"/>
      <use xlink:href="#TimesNewRomanPSMT-69" x="735.074219"/>
      <use xlink:href="#TimesNewRomanPSMT-74" x="762.857422"/>
      <use xlink:href="#TimesNewRomanPSMT-29" x="790.640625"/>
     </g>
    </g>
   </g>
   <g id="matplotlib.axis_2">
    <g id="ytick_1">
     <g id="line2d_7">
      <defs>
       <path id="m8476f8a74a" d="M 0 0 
L 3.5 0 
" style="stroke: #000000; stroke-width: 0.8"/>
      </defs>
      <g>
       <use xlink:href="#m8476f8a74a" x="46.797552" y="293.764911" style="stroke: #000000; stroke-width: 0.8"/>
      </g>
     </g>
     <g id="text_8">
      <!-- 0.0 -->
      <g transform="translate(24.547552 298.972723) scale(0.15 -0.15)">
       <defs>
        <path id="TimesNewRomanPSMT-2e" d="M 800 606 
Q 947 606 1047 504 
Q 1147 403 1147 259 
Q 1147 116 1045 14 
Q 944 -88 800 -88 
Q 656 -88 554 14 
Q 453 116 453 259 
Q 453 406 554 506 
Q 656 606 800 606 
z
" transform="scale(0.015625)"/>
       </defs>
       <use xlink:href="#TimesNewRomanPSMT-30"/>
       <use xlink:href="#TimesNewRomanPSMT-2e" x="50"/>
       <use xlink:href="#TimesNewRomanPSMT-30" x="75"/>
      </g>
     </g>
    </g>
    <g id="ytick_2">
     <g id="line2d_8">
      <g>
       <use xlink:href="#m8476f8a74a" x="46.797552" y="249.861259" style="stroke: #000000; stroke-width: 0.8"/>
      </g>
     </g>
     <g id="text_9">
      <!-- 0.1 -->
      <g transform="translate(24.547552 255.069072) scale(0.15 -0.15)">
       <use xlink:href="#TimesNewRomanPSMT-30"/>
       <use xlink:href="#TimesNewRomanPSMT-2e" x="50"/>
       <use xlink:href="#TimesNewRomanPSMT-31" x="75"/>
      </g>
     </g>
    </g>
    <g id="ytick_3">
     <g id="line2d_9">
      <g>
       <use xlink:href="#m8476f8a74a" x="46.797552" y="205.957608" style="stroke: #000000; stroke-width: 0.8"/>
      </g>
     </g>
     <g id="text_10">
      <!-- 0.2 -->
      <g transform="translate(24.547552 211.16542) scale(0.15 -0.15)">
       <use xlink:href="#TimesNewRomanPSMT-30"/>
       <use xlink:href="#TimesNewRomanPSMT-2e" x="50"/>
       <use xlink:href="#TimesNewRomanPSMT-32" x="75"/>
      </g>
     </g>
    </g>
    <g id="ytick_4">
     <g id="line2d_10">
      <g>
       <use xlink:href="#m8476f8a74a" x="46.797552" y="162.053956" style="stroke: #000000; stroke-width: 0.8"/>
      </g>
     </g>
     <g id="text_11">
      <!-- 0.3 -->
      <g transform="translate(24.547552 167.261769) scale(0.15 -0.15)">
       <use xlink:href="#TimesNewRomanPSMT-30"/>
       <use xlink:href="#TimesNewRomanPSMT-2e" x="50"/>
       <use xlink:href="#TimesNewRomanPSMT-33" x="75"/>
      </g>
     </g>
    </g>
    <g id="ytick_5">
     <g id="line2d_11">
      <g>
       <use xlink:href="#m8476f8a74a" x="46.797552" y="118.150305" style="stroke: #000000; stroke-width: 0.8"/>
      </g>
     </g>
     <g id="text_12">
      <!-- 0.4 -->
      <g transform="translate(24.547552 123.358117) scale(0.15 -0.15)">
       <use xlink:href="#TimesNewRomanPSMT-30"/>
       <use xlink:href="#TimesNewRomanPSMT-2e" x="50"/>
       <use xlink:href="#TimesNewRomanPSMT-34" x="75"/>
      </g>
     </g>
    </g>
    <g id="ytick_6">
     <g id="line2d_12">
      <g>
       <use xlink:href="#m8476f8a74a" x="46.797552" y="74.246653" style="stroke: #000000; stroke-width: 0.8"/>
      </g>
     </g>
     <g id="text_13">
      <!-- 0.5 -->
      <g transform="translate(24.547552 79.454466) scale(0.15 -0.15)">
       <use xlink:href="#TimesNewRomanPSMT-30"/>
       <use xlink:href="#TimesNewRomanPSMT-2e" x="50"/>
       <use xlink:href="#TimesNewRomanPSMT-35" x="75"/>
      </g>
     </g>
    </g>
    <g id="ytick_7">
     <g id="line2d_13">
      <g>
       <use xlink:href="#m8476f8a74a" x="46.797552" y="30.343002" style="stroke: #000000; stroke-width: 0.8"/>
      </g>
     </g>
     <g id="text_14">
      <!-- 0.6 -->
      <g transform="translate(24.547552 35.550814) scale(0.15 -0.15)">
       <defs>
        <path id="TimesNewRomanPSMT-36" d="M 2869 4325 
L 2869 4209 
Q 2456 4169 2195 4045 
Q 1934 3922 1679 3669 
Q 1425 3416 1258 3105 
Q 1091 2794 978 2366 
Q 1428 2675 1881 2675 
Q 2316 2675 2634 2325 
Q 2953 1975 2953 1425 
Q 2953 894 2631 456 
Q 2244 -75 1606 -75 
Q 1172 -75 869 213 
Q 275 772 275 1663 
Q 275 2231 503 2743 
Q 731 3256 1154 3653 
Q 1578 4050 1965 4187 
Q 2353 4325 2688 4325 
L 2869 4325 
z
M 925 2138 
Q 869 1716 869 1456 
Q 869 1156 980 804 
Q 1091 453 1309 247 
Q 1469 100 1697 100 
Q 1969 100 2183 356 
Q 2397 613 2397 1088 
Q 2397 1622 2184 2012 
Q 1972 2403 1581 2403 
Q 1463 2403 1327 2353 
Q 1191 2303 925 2138 
z
" transform="scale(0.015625)"/>
       </defs>
       <use xlink:href="#TimesNewRomanPSMT-30"/>
       <use xlink:href="#TimesNewRomanPSMT-2e" x="50"/>
       <use xlink:href="#TimesNewRomanPSMT-36" x="75"/>
      </g>
     </g>
    </g>
    <g id="text_15">
     <!-- $X(t)$ -->
     <g transform="translate(11.247552 154.580937) scale(0.1 -0.1)">
      <defs>
       <path id="DejaVuSans-Oblique-58" d="M 878 4666 
L 1516 4666 
L 2316 2981 
L 3763 4666 
L 4500 4666 
L 2578 2438 
L 3738 0 
L 3103 0 
L 2163 1966 
L 459 0 
L -275 0 
L 1906 2509 
L 878 4666 
z
" transform="scale(0.015625)"/>
       <path id="DejaVuSans-28" d="M 1984 4856 
Q 1566 4138 1362 3434 
Q 1159 2731 1159 2009 
Q 1159 1288 1364 580 
Q 1569 -128 1984 -844 
L 1484 -844 
Q 1016 -109 783 600 
Q 550 1309 550 2009 
Q 550 2706 781 3412 
Q 1013 4119 1484 4856 
L 1984 4856 
z
" transform="scale(0.015625)"/>
       <path id="DejaVuSans-Oblique-74" d="M 2706 3500 
L 2619 3053 
L 1472 3053 
L 1100 1153 
Q 1081 1047 1072 975 
Q 1063 903 1063 863 
Q 1063 663 1183 572 
Q 1303 481 1569 481 
L 2150 481 
L 2053 0 
L 1503 0 
Q 991 0 739 200 
Q 488 400 488 806 
Q 488 878 497 964 
Q 506 1050 525 1153 
L 897 3053 
L 409 3053 
L 500 3500 
L 978 3500 
L 1172 4494 
L 1747 4494 
L 1556 3500 
L 2706 3500 
z
" transform="scale(0.015625)"/>
       <path id="DejaVuSans-29" d="M 513 4856 
L 1013 4856 
Q 1481 4119 1714 3412 
Q 1947 2706 1947 2009 
Q 1947 1309 1714 600 
Q 1481 -109 1013 -844 
L 513 -844 
Q 928 -128 1133 580 
Q 1338 1288 1338 2009 
Q 1338 2731 1133 3434 
Q 928 4138 513 4856 
z
" transform="scale(0.015625)"/>
      </defs>
      <use xlink:href="#DejaVuSans-Oblique-58" transform="translate(0 0.125)"/>
      <use xlink:href="#DejaVuSans-28" transform="translate(68.505859 0.125)"/>
      <use xlink:href="#DejaVuSans-Oblique-74" transform="translate(107.519531 0.125)"/>
      <use xlink:href="#DejaVuSans-29" transform="translate(146.728516 0.125)"/>
     </g>
    </g>
   </g>
   <g id="line2d_14">
    <path d="M 65.124936 289.374545 
L 65.858031 243.894637 
L 66.591127 288.933902 
L 67.324222 279.58069 
L 68.057317 278.104914 
L 68.790413 275.827393 
L 69.523508 270.547438 
L 70.256603 219.131574 
L 70.989699 264.564281 
L 71.722794 265.887576 
L 72.455889 267.837982 
L 73.188985 269.391346 
L 73.92208 269.069215 
L 74.655176 244.237554 
L 75.388271 236.792138 
L 76.121366 260.866816 
L 76.854462 263.832823 
L 77.587557 264.897257 
L 78.320652 262.339707 
L 79.053748 260.39411 
L 79.786843 232.131593 
L 80.519938 218.682325 
L 81.253034 249.422205 
L 81.986129 236.647642 
L 82.719225 244.365116 
L 83.45232 232.632513 
L 84.185415 216.709368 
L 84.918511 248.047175 
L 85.651606 233.182125 
L 86.384701 245.439557 
L 87.117797 235.29865 
L 87.850892 236.622127 
L 88.583987 255.884819 
L 89.317083 229.475609 
L 90.050178 257.144386 
L 90.783273 251.375378 
L 91.516369 257.551822 
L 92.249464 251.573772 
L 92.98256 197.661678 
L 93.715655 248.848016 
L 94.44875 237.602292 
L 95.181846 251.841997 
L 95.914941 247.388848 
L 96.648036 256.348115 
L 97.381132 213.202577 
L 98.114227 234.251486 
L 98.847322 220.239776 
L 99.580418 222.351465 
L 100.313513 227.901534 
L 101.046609 235.144628 
L 101.779704 217.862809 
L 102.512799 246.886508 
L 103.245895 226.946615 
L 103.97899 238.633938 
L 104.712085 245.167754 
L 105.445181 243.226827 
L 106.178276 244.289476 
L 106.911371 231.364709 
L 107.644467 229.035728 
L 108.377562 234.08983 
L 109.110657 220.121337 
L 109.843753 235.46569 
L 110.576848 223.559651 
L 111.309944 229.223534 
L 112.043039 220.451585 
L 112.776134 222.36612 
L 113.50923 225.025446 
L 114.242325 216.176385 
L 114.97542 222.377608 
L 115.708516 225.841633 
L 116.441611 213.580871 
L 117.174706 237.022762 
L 117.907802 199.696948 
L 118.640897 222.915321 
L 119.373993 215.971609 
L 120.107088 228.492579 
L 120.840183 228.634602 
L 121.573279 203.978991 
L 122.306374 164.065402 
L 123.039469 208.431378 
L 123.772565 232.181948 
L 124.50566 225.543631 
L 125.238755 246.55839 
L 125.971851 226.439762 
L 126.704946 236.754874 
L 127.438042 224.485961 
L 128.171137 236.311774 
L 128.904232 233.609845 
L 129.637328 243.907862 
L 130.370423 150.748245 
L 131.103518 187.937983 
L 131.836614 199.655739 
L 132.569709 147.829163 
L 133.302804 176.273715 
L 134.0359 160.653237 
L 134.768995 107.081069 
L 135.50209 169.958757 
L 136.235186 184.93622 
L 136.968281 197.534387 
L 137.701377 205.13673 
L 138.434472 215.470277 
L 139.167567 198.099459 
L 139.900663 223.695773 
L 140.633758 231.038484 
L 141.366853 223.114627 
L 142.099949 235.361834 
L 142.833044 234.278263 
L 143.566139 241.314212 
L 144.299235 229.218162 
L 145.03233 240.692453 
L 145.765426 249.500832 
L 146.498521 219.418068 
L 147.231616 228.169102 
L 147.964712 246.934789 
L 148.697807 249.486504 
L 149.430902 242.179602 
L 150.163998 241.517883 
L 150.897093 250.875191 
L 151.630188 237.240106 
L 152.363284 240.511847 
L 153.096379 248.575254 
L 153.829474 222.366139 
L 154.56257 233.209426 
L 155.295665 233.382485 
L 156.028761 237.600454 
L 156.761856 235.564889 
L 157.494951 244.40803 
L 158.228047 188.412982 
L 158.961142 246.304996 
L 159.694237 247.106315 
L 160.427333 220.177324 
L 161.160428 177.89575 
L 161.893523 168.60249 
L 163.359714 218.768269 
L 164.09281 188.139102 
L 164.825905 187.712056 
L 165.559 162.055874 
L 166.292096 221.404659 
L 167.758286 185.112688 
L 168.491382 209.84222 
L 169.224477 171.930523 
L 169.957572 208.394873 
L 170.690668 204.576231 
L 171.423763 193.759047 
L 172.156858 208.079914 
L 172.889954 217.111272 
L 173.623049 223.531631 
L 174.356145 218.982367 
L 175.08924 233.136265 
L 175.822335 222.154677 
L 176.555431 239.822713 
L 177.288526 237.207303 
L 178.021621 244.544731 
L 178.754717 233.066938 
L 179.487812 254.112363 
L 180.220907 255.597648 
L 180.954003 255.64151 
L 181.687098 255.808008 
L 182.420194 260.057513 
L 183.153289 262.641219 
L 183.886384 261.876545 
L 184.61948 251.747528 
L 185.352575 238.006022 
L 186.08567 254.051465 
L 186.818766 257.887591 
L 187.551861 245.62104 
L 188.284956 238.13101 
L 189.018052 265.86408 
L 189.751147 257.169456 
L 190.484242 215.095962 
L 191.217338 232.854933 
L 191.950433 241.126557 
L 192.683529 232.210236 
L 193.416624 237.182934 
L 194.882815 251.832589 
L 195.61591 227.292767 
L 196.349005 237.526443 
L 197.082101 244.48615 
L 197.815196 232.99941 
L 198.548291 239.338439 
L 199.281387 235.104864 
L 200.014482 244.216897 
L 200.747578 241.432786 
L 201.480673 240.129402 
L 202.213768 235.198175 
L 202.946864 246.815608 
L 203.679959 217.845315 
L 204.413054 254.95917 
L 205.14615 249.222375 
L 205.879245 255.278908 
L 206.61234 234.717229 
L 207.345436 239.155792 
L 208.078531 247.635569 
L 208.811626 238.411518 
L 209.544722 255.426947 
L 210.277817 255.64517 
L 211.010913 257.176665 
L 211.744008 251.083352 
L 212.477103 171.561624 
L 213.210199 214.206274 
L 213.943294 237.548614 
L 215.409485 243.799217 
L 216.14258 238.344853 
L 216.875675 249.579236 
L 217.608771 243.368966 
L 218.341866 249.527419 
L 219.074962 254.524316 
L 219.808057 251.577982 
L 220.541152 238.710219 
L 221.274248 233.799129 
L 222.007343 239.573205 
L 222.740438 225.864052 
L 223.473534 229.300208 
L 224.206629 237.804936 
L 224.939724 216.306731 
L 225.67282 238.597943 
L 226.405915 235.626954 
L 227.13901 247.596218 
L 227.872106 250.62286 
L 228.605201 249.130052 
L 229.338297 206.215923 
L 230.071392 237.235003 
L 230.804487 228.684401 
L 231.537583 239.575524 
L 232.270678 246.354546 
L 233.003773 243.205732 
L 233.736869 256.271339 
L 234.469964 185.638161 
L 235.203059 237.337047 
L 235.936155 249.450038 
L 236.66925 241.423499 
L 237.402346 215.944623 
L 238.135441 237.703617 
L 238.868536 211.084915 
L 239.601632 219.576133 
L 240.334727 221.719991 
L 241.067822 146.506732 
L 241.800918 232.854678 
L 242.534013 209.380703 
L 243.267108 181.383739 
L 244.000204 184.868326 
L 244.733299 222.481576 
L 245.466394 220.292231 
L 246.19949 233.702377 
L 246.932585 225.099713 
L 247.665681 243.612337 
L 248.398776 218.404388 
L 249.131871 224.601521 
L 249.864967 193.158824 
L 250.598062 226.957443 
L 251.331157 239.389982 
L 252.064253 236.811987 
L 252.797348 243.858492 
L 253.530443 247.760386 
L 254.263539 249.883776 
L 254.996634 244.183804 
L 255.72973 254.394984 
L 256.462825 234.833143 
L 257.19592 260.232803 
L 257.929016 252.096654 
L 258.662111 260.49566 
L 259.395206 255.046013 
L 260.128302 261.946638 
L 260.861397 161.762184 
L 261.594492 259.282801 
L 262.327588 245.549832 
L 263.060683 261.838365 
L 263.793779 252.606009 
L 264.526874 250.716465 
L 265.259969 258.030917 
L 265.993065 255.260249 
L 266.72616 255.761895 
L 267.459255 237.122314 
L 268.192351 258.597111 
L 268.925446 229.698677 
L 269.658541 245.677957 
L 270.391637 231.92997 
L 271.124732 240.376414 
L 271.857827 237.110205 
L 272.590923 243.35825 
L 273.324018 237.005798 
L 274.057114 246.702216 
L 274.790209 215.214695 
L 275.523304 247.17538 
L 276.2564 243.320272 
L 276.989495 240.561482 
L 277.72259 226.101716 
L 278.455686 242.330958 
L 279.188781 248.367223 
L 279.921876 247.018624 
L 280.654972 253.940726 
L 281.388067 257.561792 
L 282.121163 232.556715 
L 282.854258 263.390177 
L 283.587353 260.111855 
L 284.320449 245.606552 
L 285.053544 121.955337 
L 285.786639 224.480354 
L 286.519735 235.635826 
L 287.25283 223.286339 
L 287.985925 158.612307 
L 288.719021 216.548418 
L 289.452116 93.011382 
L 290.185211 216.610509 
L 290.918307 192.098112 
L 291.651402 192.402715 
L 292.384498 200.428786 
L 293.117593 204.353117 
L 293.850688 206.353138 
L 294.583784 217.745482 
L 295.316879 222.881818 
L 296.049974 230.146926 
L 296.78307 228.309104 
L 297.516165 196.943415 
L 298.24926 221.520239 
L 298.982356 184.423126 
L 299.715451 166.18591 
L 300.448547 207.316196 
L 301.181642 209.69877 
L 301.914737 218.54015 
L 302.647833 212.922521 
L 303.380928 227.738353 
L 304.114023 225.865577 
L 304.847119 213.175761 
L 305.580214 225.718123 
L 306.313309 224.376838 
L 307.046405 235.266259 
L 307.7795 238.303736 
L 308.512595 210.274303 
L 309.245691 252.332672 
L 309.978786 227.696359 
L 310.711882 256.050509 
L 311.444977 240.815036 
L 312.178072 216.579794 
L 312.911168 252.617903 
L 313.644263 247.983242 
L 314.377358 234.295083 
L 315.110454 257.031168 
L 315.843549 252.682405 
L 316.576644 239.680202 
L 317.30974 257.319026 
L 318.042835 256.933265 
L 318.775931 245.006002 
L 319.509026 257.011332 
L 320.242121 256.815777 
L 320.975217 256.934809 
L 321.708312 227.184632 
L 322.441407 241.163691 
L 323.174503 229.845319 
L 323.907598 245.603055 
L 324.640693 225.624989 
L 325.373789 242.044598 
L 326.106884 243.262191 
L 326.839979 218.410832 
L 327.573075 244.458581 
L 328.30617 229.251436 
L 329.039266 255.58492 
L 329.772361 248.266373 
L 330.505456 249.710658 
L 331.238552 252.192561 
L 331.971647 253.335479 
L 332.704742 231.510258 
L 333.437838 243.929216 
L 334.170933 234.433339 
L 334.904028 182.104514 
L 335.637124 244.137799 
L 336.370219 195.182712 
L 337.103315 218.644275 
L 337.83641 209.334489 
L 338.569505 188.576366 
L 339.302601 202.142804 
L 340.035696 159.908465 
L 340.768791 208.981266 
L 341.501887 223.478685 
L 342.234982 229.735123 
L 342.968077 234.153904 
L 343.701173 216.489401 
L 344.434268 222.556869 
L 345.167363 235.42628 
L 345.900459 208.956013 
L 346.633554 200.301044 
L 347.36665 224.996295 
L 348.099745 233.247815 
L 348.83284 234.254895 
L 349.565936 244.935278 
L 350.299031 245.186945 
L 351.032126 247.399403 
L 351.765222 251.262941 
L 352.498317 239.563316 
L 353.231412 232.841646 
L 353.964508 248.681031 
L 354.697603 249.388791 
L 355.430699 251.442644 
L 356.163794 255.341454 
L 356.896889 253.856323 
L 357.629985 257.997215 
L 358.36308 242.321325 
L 359.096175 247.834731 
L 359.829271 239.877032 
L 360.562366 219.954793 
L 361.295461 211.820416 
L 362.028557 198.113191 
L 362.761652 236.618222 
L 363.494747 228.535561 
L 364.227843 214.204672 
L 364.960938 215.178157 
L 365.694034 193.199955 
L 366.427129 215.671645 
L 367.160224 219.614581 
L 367.89332 214.862099 
L 368.626415 172.949804 
L 369.35951 225.323769 
L 370.092606 190.220285 
L 370.825701 231.230542 
L 371.558796 154.757905 
L 372.291892 175.230411 
L 373.024987 229.260039 
L 373.758083 182.260479 
L 374.491178 222.945585 
L 375.224273 222.764158 
L 375.957369 231.005917 
L 376.690464 232.545234 
L 377.423559 235.208878 
L 378.156655 242.834095 
L 378.88975 229.180571 
L 379.622845 233.670294 
L 380.355941 240.778956 
L 381.089036 241.989569 
L 381.822131 250.83355 
L 382.555227 242.485124 
L 383.288322 249.306719 
L 384.021418 249.527612 
L 384.754513 211.358141 
L 385.487608 252.915296 
L 386.220704 253.984706 
L 386.953799 252.609104 
L 388.41999 242.543964 
L 389.153085 241.269317 
L 389.88618 141.573817 
L 390.619276 209.629789 
L 391.352371 210.146305 
L 392.085467 208.062283 
L 392.818562 179.504322 
L 393.551657 199.044525 
L 394.284753 172.06363 
L 395.017848 205.789447 
L 395.750943 204.356676 
L 396.484039 208.538787 
L 397.217134 185.464839 
L 397.950229 216.2523 
L 398.683325 218.138691 
L 399.41642 209.889545 
L 400.149516 221.243748 
L 400.882611 227.102894 
L 401.615706 220.897531 
L 402.348802 238.752168 
L 403.081897 210.734857 
L 403.814992 215.23073 
L 404.548088 183.834862 
L 405.281183 171.416153 
L 406.014278 192.280606 
L 406.747374 198.031185 
L 407.480469 185.54377 
L 408.213564 188.947607 
L 408.94666 203.183746 
L 409.679755 212.565398 
L 410.412851 141.428071 
L 411.879041 224.156668 
L 412.612137 221.430618 
L 413.345232 225.532306 
L 414.811423 145.58035 
L 415.544518 199.546564 
L 416.277613 159.965486 
L 417.010709 208.193113 
L 417.743804 209.297252 
L 418.4769 219.627561 
L 419.209995 223.870357 
L 419.94309 231.605316 
L 420.676186 237.509852 
L 421.409281 242.222561 
L 422.142376 232.443667 
L 422.875472 237.870324 
L 423.608567 229.576208 
L 424.341662 255.403977 
L 425.807853 213.964261 
L 426.540948 200.442394 
L 427.274044 196.790838 
L 428.007139 175.649436 
L 428.740235 220.102005 
L 429.47333 217.184898 
L 430.206425 217.245694 
L 430.939521 227.65937 
L 431.672616 229.916151 
L 431.672616 229.916151 
" clip-path="url(#p733d79f602)" style="fill: none; stroke: #1f77b4; stroke-width: 1.5; stroke-linecap: square"/>
   </g>
   <g id="line2d_15">
    <path d="M 65.124936 289.374545 
L 65.858031 252.375333 
L 66.591127 282.753883 
L 67.324222 272.153972 
L 68.057317 280.567127 
L 68.790413 260.67484 
L 69.523508 269.763671 
L 70.256603 268.423734 
L 70.989699 267.859975 
L 71.722794 261.80907 
L 72.455889 269.791696 
L 73.188985 269.967019 
L 73.92208 231.03117 
L 74.655176 272.585809 
L 75.388271 272.603414 
L 76.121366 264.156722 
L 76.854462 231.718685 
L 77.587557 256.799795 
L 78.320652 261.095841 
L 79.053748 247.630531 
L 79.786843 253.820531 
L 81.253034 262.957306 
L 81.986129 236.304728 
L 82.719225 239.649725 
L 83.45232 228.488614 
L 84.185415 244.927801 
L 84.918511 246.031877 
L 85.651606 239.069423 
L 86.384701 244.614225 
L 87.117797 243.939942 
L 87.850892 255.930238 
L 88.583987 245.620932 
L 89.317083 255.730548 
L 90.050178 234.033907 
L 90.783273 257.026229 
L 91.516369 257.003972 
L 92.249464 245.280903 
L 92.98256 260.109533 
L 94.44875 230.207702 
L 95.181846 213.344823 
L 95.914941 217.793776 
L 96.648036 257.689426 
L 97.381132 230.642075 
L 98.114227 234.391783 
L 98.847322 236.435571 
L 99.580418 236.05542 
L 100.313513 207.245226 
L 101.046609 218.170179 
L 101.779704 231.017451 
L 102.512799 222.780964 
L 103.245895 216.301347 
L 103.97899 239.61059 
L 104.712085 244.969441 
L 105.445181 234.540139 
L 106.178276 232.020579 
L 107.644467 242.28303 
L 108.377562 234.133557 
L 109.110657 221.642983 
L 109.843753 231.168117 
L 110.576848 208.322929 
L 111.309944 217.548026 
L 112.043039 228.233405 
L 112.776134 229.733213 
L 113.50923 216.780808 
L 114.242325 224.188973 
L 114.97542 219.824179 
L 115.708516 204.421312 
L 116.441611 204.438773 
L 117.174706 238.477443 
L 117.907802 188.334038 
L 118.640897 225.673002 
L 119.373993 227.776416 
L 120.107088 227.211134 
L 120.840183 237.511736 
L 121.573279 239.862348 
L 122.306374 223.322923 
L 123.039469 243.767167 
L 123.772565 203.883999 
L 124.50566 236.579015 
L 125.238755 241.580252 
L 125.971851 239.872011 
L 126.704946 235.303726 
L 127.438042 237.780932 
L 128.171137 239.387005 
L 128.904232 238.271437 
L 129.637328 234.76725 
L 130.370423 237.897389 
L 131.103518 181.083009 
L 131.836614 180.653922 
L 132.569709 158.683067 
L 133.302804 176.496004 
L 134.0359 158.350333 
L 134.768995 169.019565 
L 135.50209 154.983584 
L 136.235186 162.578906 
L 136.968281 176.124201 
L 137.701377 205.819024 
L 138.434472 214.024324 
L 139.167567 217.57621 
L 139.900663 196.447258 
L 140.633758 210.666465 
L 141.366853 229.592452 
L 142.099949 230.512305 
L 142.833044 238.072686 
L 143.566139 219.886225 
L 144.299235 236.803895 
L 145.03233 243.432987 
L 145.765426 201.460183 
L 146.498521 235.000694 
L 147.231616 231.473799 
L 147.964712 250.226651 
L 148.697807 217.804453 
L 149.430902 239.386331 
L 150.163998 251.67633 
L 150.897093 235.04435 
L 151.630188 250.723128 
L 152.363284 255.664368 
L 153.096379 216.202011 
L 153.829474 222.503381 
L 154.56257 170.755356 
L 156.028761 228.865913 
L 156.761856 235.176494 
L 157.494951 199.523117 
L 158.228047 248.058722 
L 158.961142 254.01849 
L 159.694237 239.622971 
L 160.427333 221.706514 
L 161.160428 198.716724 
L 162.626619 217.537356 
L 163.359714 177.082273 
L 164.09281 188.54431 
L 164.825905 206.387792 
L 165.559 215.474654 
L 166.292096 221.505702 
L 167.025191 208.323746 
L 167.758286 197.386076 
L 168.491382 206.07757 
L 169.224477 181.883887 
L 169.957572 210.44994 
L 170.690668 205.242209 
L 171.423763 223.180801 
L 172.156858 201.565499 
L 172.889954 168.005924 
L 173.623049 201.240785 
L 174.356145 215.700391 
L 175.08924 234.754238 
L 175.822335 240.755316 
L 176.555431 240.378122 
L 177.288526 231.954562 
L 178.021621 238.687407 
L 178.754717 235.721227 
L 179.487812 234.7555 
L 180.220907 251.532939 
L 180.954003 251.415553 
L 181.687098 242.492248 
L 182.420194 257.112026 
L 183.153289 238.699889 
L 183.886384 263.155468 
L 184.61948 264.670798 
L 185.352575 250.681795 
L 186.08567 232.107204 
L 186.818766 251.643371 
L 187.551861 243.757115 
L 188.284956 231.064326 
L 189.018052 264.90467 
L 189.751147 259.452547 
L 190.484242 246.610636 
L 191.217338 248.519011 
L 191.950433 237.027643 
L 192.683529 210.341157 
L 193.416624 227.942626 
L 194.149719 250.38556 
L 194.882815 248.850175 
L 195.61591 243.99397 
L 196.349005 252.586324 
L 197.082101 244.55899 
L 197.815196 244.469467 
L 198.548291 238.47446 
L 200.014482 245.475539 
L 200.747578 236.398739 
L 201.480673 231.70299 
L 202.213768 240.256997 
L 202.946864 244.19047 
L 203.679959 250.933128 
L 204.413054 236.029369 
L 205.14615 229.700071 
L 205.879245 245.435027 
L 206.61234 235.501869 
L 207.345436 243.601693 
L 208.078531 240.62624 
L 208.811626 249.040709 
L 209.544722 209.79034 
L 210.277817 256.214498 
L 211.010913 251.85427 
L 211.744008 230.991884 
L 212.477103 257.638021 
L 213.210199 255.333544 
L 213.943294 225.054958 
L 214.676389 232.221312 
L 215.409485 221.338406 
L 216.14258 250.760585 
L 216.875675 252.626996 
L 217.608771 235.733618 
L 218.341866 249.090063 
L 219.074962 252.40001 
L 219.808057 252.778385 
L 220.541152 245.93523 
L 221.274248 168.458903 
L 222.007343 231.895748 
L 222.740438 221.996357 
L 223.473534 231.201704 
L 224.206629 214.493266 
L 224.939724 207.805241 
L 225.67282 238.125593 
L 226.405915 242.922663 
L 227.13901 237.630541 
L 227.872106 240.029641 
L 228.605201 250.220298 
L 229.338297 238.872 
L 230.071392 242.315672 
L 230.804487 230.259542 
L 231.537583 196.606677 
L 232.270678 245.557332 
L 233.003773 249.374215 
L 233.736869 242.82124 
L 234.469964 253.005597 
L 235.203059 254.184448 
L 235.936155 251.383398 
L 236.66925 241.114916 
L 237.402346 214.942221 
L 238.135441 239.67854 
L 238.868536 213.720912 
L 239.601632 180.220073 
L 240.334727 208.714431 
L 241.067822 225.690077 
L 241.800918 236.374454 
L 242.534013 199.293585 
L 243.267108 220.969985 
L 244.000204 216.768025 
L 244.733299 215.432039 
L 245.466394 225.526373 
L 246.19949 185.073187 
L 246.932585 238.587626 
L 247.665681 237.239504 
L 248.398776 242.545191 
L 249.131871 224.870999 
L 249.864967 192.864532 
L 250.598062 228.887718 
L 251.331157 210.144474 
L 252.797348 231.505142 
L 253.530443 230.844673 
L 254.263539 253.741178 
L 254.996634 251.394857 
L 255.72973 208.624051 
L 256.462825 256.548171 
L 257.19592 245.51383 
L 257.929016 260.799164 
L 258.662111 264.342905 
L 260.128302 256.399922 
L 260.861397 264.283698 
L 261.594492 266.601559 
L 262.327588 245.621383 
L 263.060683 259.953394 
L 263.793779 251.81191 
L 264.526874 248.159003 
L 265.259969 257.181814 
L 265.993065 255.277645 
L 266.72616 258.41168 
L 267.459255 235.47042 
L 268.192351 262.900589 
L 268.925446 238.729061 
L 269.658541 246.809412 
L 270.391637 227.861765 
L 271.124732 239.764186 
L 271.857827 235.029276 
L 272.590923 236.244357 
L 273.324018 241.457194 
L 274.057114 198.862438 
L 274.790209 201.544106 
L 275.523304 239.316101 
L 276.2564 244.63327 
L 276.989495 240.76369 
L 277.72259 243.37345 
L 278.455686 236.2824 
L 279.188781 246.206226 
L 279.921876 248.73466 
L 280.654972 212.257223 
L 281.388067 234.381937 
L 282.121163 261.306793 
L 282.854258 236.612236 
L 283.587353 261.556487 
L 284.320449 262.810333 
L 285.053544 252.915721 
L 285.786639 210.529519 
L 286.519735 240.695364 
L 287.25283 223.157884 
L 287.985925 216.633728 
L 288.719021 222.199576 
L 289.452116 225.609098 
L 290.185211 217.377243 
L 290.918307 200.292095 
L 291.651402 188.924808 
L 292.384498 198.703228 
L 293.117593 210.145331 
L 293.850688 212.373667 
L 294.583784 220.246325 
L 295.316879 214.907521 
L 296.049974 229.523877 
L 296.78307 232.887382 
L 298.24926 205.029347 
L 298.982356 177.173523 
L 299.715451 210.171709 
L 300.448547 217.482265 
L 301.181642 199.993733 
L 301.914737 185.906997 
L 302.647833 178.794433 
L 303.380928 226.624382 
L 304.114023 227.165117 
L 304.847119 225.944174 
L 305.580214 159.978662 
L 306.313309 238.530349 
L 307.046405 235.608414 
L 307.7795 242.843192 
L 308.512595 245.221749 
L 309.245691 222.28641 
L 309.978786 252.2769 
L 310.711882 252.956021 
L 311.444977 245.815574 
L 312.178072 251.618556 
L 312.911168 252.780659 
L 313.644263 238.506673 
L 314.377358 253.183603 
L 315.110454 256.482317 
L 315.843549 242.34786 
L 316.576644 251.902374 
L 317.30974 247.82813 
L 318.042835 254.699384 
L 318.775931 243.630861 
L 319.509026 247.077735 
L 320.242121 256.071434 
L 320.975217 249.388755 
L 321.708312 231.104795 
L 322.441407 234.809977 
L 323.174503 240.574851 
L 323.907598 243.194395 
L 324.640693 232.347222 
L 325.373789 230.227872 
L 326.106884 220.148107 
L 326.839979 245.434687 
L 327.573075 251.76948 
L 328.30617 248.886847 
L 329.039266 253.928656 
L 329.772361 213.058624 
L 330.505456 249.514963 
L 331.238552 252.467482 
L 331.971647 225.603858 
L 332.704742 232.043104 
L 333.437838 220.587792 
L 334.170933 247.73041 
L 334.904028 236.922569 
L 335.637124 195.957093 
L 336.370219 207.124216 
L 337.103315 159.382188 
L 337.83641 192.574891 
L 338.569505 214.40653 
L 339.302601 218.494683 
L 340.035696 218.450157 
L 340.768791 211.365096 
L 341.501887 223.129007 
L 342.234982 230.259471 
L 342.968077 222.324944 
L 343.701173 226.140328 
L 344.434268 190.183093 
L 345.167363 236.813937 
L 345.900459 217.207324 
L 346.633554 213.438056 
L 347.36665 228.992772 
L 348.099745 226.464478 
L 348.83284 235.484892 
L 349.565936 214.039378 
L 350.299031 235.699841 
L 351.032126 233.216295 
L 351.765222 215.248204 
L 352.498317 240.938395 
L 353.231412 235.45873 
L 353.964508 243.511081 
L 354.697603 233.630126 
L 355.430699 251.242974 
L 356.163794 255.202001 
L 356.896889 251.588184 
L 357.629985 260.569508 
L 359.096175 243.732775 
L 359.829271 240.607032 
L 360.562366 223.660563 
L 361.295461 238.292778 
L 362.028557 245.789069 
L 362.761652 232.743893 
L 363.494747 231.091561 
L 364.227843 203.641259 
L 364.960938 182.93313 
L 365.694034 199.706461 
L 367.160224 220.702097 
L 367.89332 213.127944 
L 368.626415 229.67805 
L 369.35951 222.244239 
L 370.092606 233.940649 
L 370.825701 240.635457 
L 372.291892 208.928732 
L 373.024987 229.224809 
L 373.758083 226.862235 
L 374.491178 222.221996 
L 375.224273 224.419545 
L 375.957369 231.040133 
L 376.690464 228.408375 
L 377.423559 234.79754 
L 378.156655 237.953802 
L 378.88975 227.003493 
L 379.622845 237.763517 
L 380.355941 228.978491 
L 381.089036 246.913004 
L 381.822131 250.673398 
L 382.555227 240.700156 
L 383.288322 203.21386 
L 384.021418 244.193516 
L 384.754513 213.241869 
L 385.487608 257.245443 
L 386.220704 249.498617 
L 386.953799 258.382146 
L 387.686894 205.730986 
L 388.41999 232.451059 
L 389.153085 222.211555 
L 389.88618 195.109963 
L 390.619276 183.768851 
L 391.352371 169.750429 
L 392.085467 216.138912 
L 392.818562 175.106542 
L 393.551657 194.15965 
L 394.284753 195.062251 
L 395.017848 204.883424 
L 395.750943 172.408309 
L 396.484039 200.802847 
L 397.217134 216.566455 
L 397.950229 205.25806 
L 398.683325 224.550813 
L 399.41642 215.608808 
L 400.149516 182.023117 
L 400.882611 220.536718 
L 401.615706 209.525285 
L 402.348802 237.330577 
L 403.081897 174.036194 
L 403.814992 218.515434 
L 404.548088 183.819474 
L 405.281183 193.613452 
L 406.014278 198.203446 
L 406.747374 196.57411 
L 407.480469 183.609432 
L 408.213564 196.759508 
L 408.94666 195.338611 
L 410.412851 217.166318 
L 411.145946 216.702172 
L 411.879041 184.54687 
L 412.612137 222.352152 
L 413.345232 231.131108 
L 414.078327 168.845073 
L 414.811423 161.581006 
L 415.544518 196.682775 
L 416.277613 194.962208 
L 417.010709 206.043001 
L 417.743804 208.517819 
L 418.4769 213.75306 
L 419.209995 208.633871 
L 419.94309 232.483155 
L 420.676186 184.735795 
L 421.409281 240.300754 
L 422.142376 232.09569 
L 422.875472 239.710495 
L 423.608567 243.252208 
L 424.341662 255.592071 
L 425.074758 238.131559 
L 425.807853 214.232554 
L 426.540948 185.292113 
L 427.274044 180.833976 
L 428.007139 211.29603 
L 428.740235 213.490602 
L 429.47333 211.312464 
L 430.206425 221.92478 
L 430.939521 219.578659 
L 431.672616 229.738094 
L 431.672616 229.738094 
" clip-path="url(#p733d79f602)" style="fill: none; stroke: #ff7f0e; stroke-width: 1.5; stroke-linecap: square"/>
   </g>
   <g id="line2d_16">
    <path d="M 65.124936 289.374545 
L 65.858031 286.696476 
L 66.591127 263.830772 
L 67.324222 274.557897 
L 68.057317 271.452721 
L 68.790413 254.373032 
L 69.523508 204.352194 
L 70.256603 238.502179 
L 70.989699 154.045269 
L 71.722794 251.24199 
L 72.455889 242.603475 
L 73.188985 256.868357 
L 73.92208 247.231905 
L 74.655176 242.655691 
L 75.388271 247.397931 
L 76.121366 228.639444 
L 76.854462 237.815298 
L 77.587557 244.308753 
L 78.320652 247.568361 
L 79.053748 245.651395 
L 79.786843 246.64139 
L 80.519938 235.714135 
L 81.253034 226.649346 
L 81.986129 198.008955 
L 82.719225 217.309781 
L 83.45232 207.788507 
L 84.185415 190.943769 
L 84.918511 210.73998 
L 85.651606 193.950562 
L 86.384701 206.225828 
L 87.117797 205.425494 
L 88.583987 226.997926 
L 89.317083 235.072834 
L 90.050178 210.33048 
L 90.783273 234.330973 
L 91.516369 224.885013 
L 92.249464 243.077506 
L 92.98256 218.919962 
L 93.715655 163.54619 
L 94.44875 222.800754 
L 95.181846 222.962189 
L 95.914941 230.533018 
L 96.648036 133.540575 
L 97.381132 212.936357 
L 98.114227 187.77505 
L 98.847322 194.392858 
L 99.580418 171.962462 
L 100.313513 190.597349 
L 101.046609 200.223971 
L 101.779704 182.148504 
L 102.512799 208.743282 
L 103.245895 200.393354 
L 103.97899 207.475092 
L 104.712085 216.361672 
L 105.445181 215.615382 
L 106.178276 219.816276 
L 106.911371 211.776139 
L 107.644467 168.519378 
L 108.377562 171.150345 
L 109.110657 194.268518 
L 109.843753 137.279495 
L 110.576848 180.713875 
L 111.309944 125.287465 
L 112.043039 195.70333 
L 112.776134 203.829843 
L 113.50923 179.355724 
L 114.242325 191.495796 
L 114.97542 183.510214 
L 115.708516 186.649663 
L 116.441611 195.152382 
L 117.174706 193.734115 
L 117.907802 181.615828 
L 118.640897 178.880619 
L 119.373993 190.758456 
L 120.107088 188.439929 
L 120.840183 204.832127 
L 121.573279 206.654974 
L 122.306374 178.793609 
L 123.039469 179.606105 
L 123.772565 174.264476 
L 124.50566 212.120701 
L 125.238755 198.556468 
L 125.971851 190.8451 
L 126.704946 203.737703 
L 127.438042 208.215048 
L 128.171137 207.052076 
L 128.904232 213.923084 
L 129.637328 212.84359 
L 130.370423 221.906246 
L 131.103518 133.057332 
L 131.836614 171.252507 
L 132.569709 73.070767 
L 133.302804 97.277626 
L 134.0359 73.091858 
L 134.768995 94.003448 
L 135.50209 76.905502 
L 136.235186 124.039523 
L 136.968281 131.849612 
L 137.701377 151.101312 
L 138.434472 167.326207 
L 139.167567 171.051493 
L 139.900663 165.010952 
L 141.366853 196.830628 
L 142.099949 185.369114 
L 142.833044 166.049127 
L 143.566139 211.061749 
L 144.299235 209.431169 
L 145.03233 214.193975 
L 145.765426 187.216141 
L 146.498521 226.217087 
L 147.231616 206.702156 
L 147.964712 211.560124 
L 148.697807 223.546468 
L 149.430902 222.372839 
L 150.897093 227.806608 
L 151.630188 220.286526 
L 152.363284 221.261235 
L 153.096379 221.834164 
L 153.829474 188.328857 
L 154.56257 194.512422 
L 156.028761 198.982839 
L 156.761856 167.04127 
L 157.494951 171.133218 
L 158.228047 221.33596 
L 158.961142 187.724015 
L 159.694237 225.016503 
L 160.427333 199.92419 
L 161.160428 168.59231 
L 161.893523 92.072518 
L 163.359714 168.023078 
L 164.09281 135.346367 
L 164.825905 149.405089 
L 165.559 141.207024 
L 166.292096 142.322134 
L 167.025191 128.400693 
L 167.758286 147.477522 
L 168.491382 116.601055 
L 169.224477 109.877147 
L 169.957572 147.690338 
L 170.690668 150.946224 
L 171.423763 178.600406 
L 172.156858 161.827749 
L 172.889954 149.347269 
L 173.623049 158.573865 
L 174.356145 120.817447 
L 175.08924 198.61116 
L 175.822335 207.05797 
L 176.555431 195.824628 
L 177.288526 196.93525 
L 178.021621 217.586252 
L 178.754717 225.511594 
L 179.487812 124.347279 
L 180.220907 227.315115 
L 180.954003 229.61883 
L 181.687098 235.29409 
L 182.420194 239.091934 
L 183.153289 237.756759 
L 183.886384 245.805329 
L 184.61948 247.248744 
L 185.352575 215.24963 
L 186.08567 208.70236 
L 186.818766 237.815266 
L 187.551861 225.502795 
L 188.284956 229.91657 
L 189.018052 237.435782 
L 189.751147 243.732153 
L 190.484242 205.120832 
L 191.217338 189.89372 
L 191.950433 197.729448 
L 192.683529 225.251066 
L 193.416624 190.292425 
L 194.149719 225.525274 
L 194.882815 175.979396 
L 195.61591 167.391223 
L 196.349005 210.967509 
L 197.082101 168.727471 
L 197.815196 219.820816 
L 198.548291 203.349753 
L 199.281387 203.55504 
L 200.014482 217.858909 
L 200.747578 181.171472 
L 201.480673 112.555504 
L 202.213768 210.097972 
L 202.946864 200.578739 
L 203.679959 226.433534 
L 204.413054 206.258657 
L 205.14615 234.482437 
L 205.879245 228.514972 
L 206.61234 227.167479 
L 207.345436 211.803891 
L 208.078531 210.356852 
L 208.811626 219.604742 
L 209.544722 223.017764 
L 210.277817 175.611544 
L 211.010913 225.948171 
L 211.744008 235.881385 
L 212.477103 237.250658 
L 213.210199 194.118486 
L 213.943294 187.942405 
L 214.676389 212.619226 
L 215.409485 211.718961 
L 216.14258 226.181347 
L 216.875675 162.105896 
L 217.608771 207.769587 
L 218.341866 196.512561 
L 219.808057 229.646189 
L 220.541152 222.812641 
L 221.274248 191.140825 
L 222.007343 210.215796 
L 222.740438 192.858736 
L 223.473534 194.178726 
L 224.206629 205.278642 
L 224.939724 199.165215 
L 225.67282 198.567315 
L 226.405915 214.792098 
L 227.13901 214.506088 
L 227.872106 227.324785 
L 228.605201 228.142358 
L 229.338297 218.818728 
L 230.071392 202.648605 
L 230.804487 200.086743 
L 231.537583 206.959858 
L 232.270678 218.717927 
L 233.003773 227.529933 
L 233.736869 231.000468 
L 234.469964 227.96746 
L 235.203059 197.606423 
L 235.936155 222.739539 
L 236.66925 215.88051 
L 237.402346 204.648953 
L 238.135441 196.048068 
L 238.868536 153.618485 
L 239.601632 179.113455 
L 240.334727 179.355383 
L 241.067822 163.357855 
L 241.800918 154.582406 
L 242.534013 179.02982 
L 243.267108 145.676244 
L 244.000204 158.124969 
L 244.733299 129.212639 
L 245.466394 185.203061 
L 246.19949 175.589105 
L 246.932585 207.746676 
L 247.665681 191.823394 
L 248.398776 190.405925 
L 249.131871 190.925712 
L 249.864967 196.513687 
L 250.598062 187.047583 
L 251.331157 205.774367 
L 252.064253 200.45769 
L 252.797348 172.016003 
L 253.530443 221.263754 
L 254.263539 216.096113 
L 254.996634 229.436055 
L 255.72973 215.210227 
L 256.462825 236.962306 
L 257.19592 213.403016 
L 257.929016 238.685536 
L 258.662111 243.507152 
L 259.395206 240.143085 
L 260.128302 240.235836 
L 260.861397 242.005509 
L 261.594492 150.735907 
L 262.327588 232.105189 
L 263.060683 212.887252 
L 263.793779 244.309704 
L 264.526874 233.746098 
L 265.259969 232.416078 
L 265.993065 234.243178 
L 266.72616 208.153932 
L 267.459255 237.553527 
L 268.192351 219.765496 
L 268.925446 212.354034 
L 269.658541 210.126986 
L 270.391637 196.164924 
L 271.124732 208.274562 
L 271.857827 202.277743 
L 272.590923 205.00974 
L 273.324018 212.137168 
L 274.057114 204.199945 
L 274.790209 221.292958 
L 275.523304 208.402691 
L 276.2564 213.286827 
L 276.989495 214.120389 
L 277.72259 218.26729 
L 278.455686 163.100107 
L 279.188781 215.102916 
L 279.921876 229.066731 
L 280.654972 189.843503 
L 281.388067 238.307543 
L 282.121163 237.464835 
L 282.854258 233.858689 
L 283.587353 232.637818 
L 284.320449 245.482294 
L 285.053544 218.598533 
L 285.786639 167.694073 
L 286.519735 208.527508 
L 287.25283 194.285573 
L 287.985925 177.596381 
L 288.719021 163.895737 
L 289.452116 130.893345 
L 290.185211 117.141541 
L 290.918307 169.064353 
L 291.651402 165.221675 
L 292.384498 149.372784 
L 293.117593 162.482959 
L 293.850688 152.069761 
L 294.583784 177.581151 
L 295.316879 173.583935 
L 296.049974 195.991341 
L 296.78307 193.080704 
L 297.516165 186.823802 
L 298.24926 165.414982 
L 298.982356 163.364789 
L 299.715451 156.270517 
L 300.448547 153.593454 
L 301.181642 171.136528 
L 301.914737 178.007281 
L 302.647833 180.728974 
L 303.380928 179.770274 
L 304.114023 196.332489 
L 304.847119 196.309604 
L 305.580214 177.277229 
L 306.313309 203.180403 
L 307.046405 206.994269 
L 307.7795 170.857714 
L 308.512595 220.307526 
L 309.245691 210.259772 
L 309.978786 232.016857 
L 310.711882 222.452882 
L 311.444977 221.855021 
L 312.178072 226.250543 
L 312.911168 212.893866 
L 313.644263 220.533872 
L 314.377358 219.5467 
L 315.110454 226.729606 
L 315.843549 172.636461 
L 316.576644 221.748128 
L 317.30974 224.856011 
L 318.042835 239.397031 
L 318.775931 243.841865 
L 319.509026 234.83434 
L 320.242121 240.020501 
L 320.975217 238.164682 
L 321.708312 192.24238 
L 322.441407 196.734563 
L 323.174503 210.386258 
L 323.907598 207.34612 
L 324.640693 179.725643 
L 325.373789 160.739658 
L 326.106884 196.852479 
L 326.839979 177.316508 
L 327.573075 215.755228 
L 328.30617 229.766572 
L 329.039266 222.352093 
L 329.772361 223.655506 
L 330.505456 214.910851 
L 331.238552 231.848141 
L 331.971647 202.983432 
L 332.704742 204.939444 
L 333.437838 176.103946 
L 334.170933 216.126397 
L 334.904028 185.871473 
L 335.637124 180.132081 
L 336.370219 149.480546 
L 337.103315 156.359673 
L 337.83641 169.115984 
L 338.569505 173.004745 
L 339.302601 169.696574 
L 340.035696 171.209499 
L 340.768791 154.318116 
L 341.501887 154.38915 
L 342.234982 191.439965 
L 342.968077 200.711846 
L 343.701173 195.168064 
L 344.434268 191.718419 
L 345.167363 201.073058 
L 345.900459 179.1825 
L 346.633554 176.777003 
L 347.36665 181.957591 
L 348.099745 197.688324 
L 348.83284 209.121634 
L 349.565936 212.378384 
L 350.299031 224.160914 
L 351.032126 217.147987 
L 351.765222 222.059371 
L 352.498317 163.993202 
L 353.231412 218.041782 
L 353.964508 217.403176 
L 354.697603 227.096908 
L 355.430699 216.111834 
L 356.163794 182.538364 
L 356.896889 238.04362 
L 357.629985 232.401463 
L 358.36308 233.529625 
L 359.096175 218.928054 
L 359.829271 218.732575 
L 360.562366 222.167363 
L 361.295461 196.035135 
L 362.028557 195.610627 
L 362.761652 185.560747 
L 363.494747 178.276805 
L 364.227843 172.518113 
L 364.960938 174.685005 
L 365.694034 140.74193 
L 366.427129 163.185155 
L 367.160224 167.874911 
L 367.89332 156.069843 
L 368.626415 190.121793 
L 369.35951 174.205871 
L 370.092606 198.815118 
L 370.825701 184.073467 
L 371.558796 162.821372 
L 372.291892 163.185155 
L 373.024987 152.926822 
L 373.758083 160.284612 
L 374.491178 163.589905 
L 375.957369 197.342277 
L 376.690464 201.117695 
L 377.423559 201.233949 
L 378.156655 207.331374 
L 378.88975 192.223309 
L 379.622845 204.533098 
L 380.355941 210.218321 
L 381.089036 217.63539 
L 381.822131 213.616035 
L 382.555227 224.288728 
L 383.288322 228.264454 
L 384.021418 222.464134 
L 384.754513 226.246023 
L 385.487608 214.709647 
L 386.220704 206.031624 
L 386.953799 240.649615 
L 388.41999 217.957251 
L 389.153085 221.29935 
L 390.619276 111.823163 
L 391.352371 109.533016 
L 392.085467 168.011747 
L 392.818562 81.322202 
L 393.551657 140.320484 
L 394.284753 148.965338 
L 395.017848 136.547859 
L 395.750943 157.326381 
L 396.484039 162.976303 
L 397.217134 173.590778 
L 397.950229 147.050542 
L 398.683325 185.285761 
L 399.41642 178.101069 
L 400.149516 177.973183 
L 400.882611 191.004774 
L 401.615706 196.900825 
L 402.348802 123.488582 
L 403.081897 180.869565 
L 403.814992 165.377535 
L 404.548088 144.06906 
L 405.281183 113.117986 
L 406.014278 142.777481 
L 406.747374 125.424628 
L 407.480469 138.272397 
L 408.213564 138.374939 
L 408.94666 127.297515 
L 409.679755 165.018999 
L 410.412851 175.485634 
L 411.145946 126.293884 
L 411.879041 167.227447 
L 412.612137 130.901889 
L 413.345232 192.144045 
L 414.078327 155.388203 
L 414.811423 128.378842 
L 415.544518 131.928772 
L 416.277613 142.308645 
L 417.010709 140.695323 
L 417.743804 165.538577 
L 418.4769 145.778328 
L 419.209995 182.889154 
L 419.94309 167.759429 
L 420.676186 102.433105 
L 421.409281 211.676397 
L 422.142376 215.093672 
L 422.875472 195.520856 
L 423.608567 224.037385 
L 424.341662 218.595576 
L 425.074758 207.524334 
L 426.540948 147.899098 
L 427.274044 137.348318 
L 428.007139 149.312374 
L 428.740235 154.873152 
L 429.47333 174.626087 
L 430.206425 177.056471 
L 430.939521 193.948122 
L 431.672616 190.766117 
L 431.672616 190.766117 
" clip-path="url(#p733d79f602)" style="fill: none; stroke: #2ca02c; stroke-width: 1.5; stroke-linecap: square"/>
   </g>
   <g id="line2d_17">
    <path d="M 65.124936 289.374545 
L 65.858031 284.10314 
L 66.591127 266.452134 
L 67.324222 267.967847 
L 68.790413 248.303922 
L 69.523508 251.638516 
L 70.256603 247.708422 
L 70.989699 239.979289 
L 71.722794 245.856103 
L 72.455889 246.403544 
L 73.188985 248.503732 
L 73.92208 253.711538 
L 74.655176 257.548983 
L 75.388271 235.455642 
L 76.121366 235.121246 
L 76.854462 239.344488 
L 77.587557 230.993749 
L 78.320652 230.258627 
L 79.053748 233.487382 
L 79.786843 240.207434 
L 80.519938 234.621785 
L 81.253034 182.307256 
L 81.986129 198.498458 
L 82.719225 207.329404 
L 83.45232 196.097357 
L 84.185415 205.069195 
L 84.918511 198.020096 
L 85.651606 203.60631 
L 87.117797 218.137579 
L 87.850892 220.235707 
L 88.583987 223.5038 
L 89.317083 222.861099 
L 90.050178 220.382349 
L 90.783273 222.530033 
L 91.516369 229.722157 
L 92.249464 226.464341 
L 92.98256 203.931259 
L 93.715655 200.668052 
L 94.44875 210.224661 
L 95.181846 215.499639 
L 95.914941 224.468402 
L 96.648036 176.244118 
L 97.381132 177.241823 
L 98.114227 185.625868 
L 98.847322 178.371391 
L 99.580418 168.845701 
L 101.046609 190.801294 
L 101.779704 200.021832 
L 102.512799 169.22283 
L 103.245895 188.173736 
L 103.97899 197.80624 
L 104.712085 193.678585 
L 105.445181 197.475135 
L 106.178276 180.471396 
L 106.911371 196.420422 
L 108.377562 163.711536 
L 109.110657 179.215564 
L 109.843753 154.034631 
L 111.309944 180.230043 
L 112.043039 192.165516 
L 112.776134 157.213856 
L 113.50923 158.322581 
L 114.242325 151.213393 
L 114.97542 167.453714 
L 115.708516 176.560471 
L 116.441611 183.505687 
L 117.174706 131.869447 
L 117.907802 158.120062 
L 119.373993 172.574153 
L 120.107088 181.305835 
L 121.573279 192.66062 
L 122.306374 195.216476 
L 123.039469 187.360899 
L 123.772565 192.193314 
L 124.50566 200.110399 
L 125.238755 189.042606 
L 125.971851 181.235716 
L 126.704946 192.103804 
L 127.438042 190.539379 
L 128.171137 192.936195 
L 128.904232 200.876976 
L 129.637328 200.19985 
L 130.370423 172.296269 
L 131.103518 160.31659 
L 131.836614 24.065455 
L 132.569709 67.792583 
L 133.302804 30.586019 
L 134.0359 61.398256 
L 134.768995 81.82935 
L 135.50209 82.659353 
L 137.701377 137.606105 
L 138.434472 154.27236 
L 139.167567 159.55774 
L 139.900663 168.338305 
L 140.633758 166.185674 
L 141.366853 180.537668 
L 142.099949 188.406296 
L 142.833044 191.288743 
L 143.566139 192.066546 
L 144.299235 200.683937 
L 145.765426 209.575856 
L 146.498521 203.674009 
L 147.231616 207.569305 
L 147.964712 207.325237 
L 148.697807 196.569642 
L 149.430902 209.588063 
L 150.163998 214.1247 
L 150.897093 214.138982 
L 151.630188 222.673725 
L 152.363284 208.405334 
L 153.096379 153.291835 
L 153.829474 172.738086 
L 154.56257 173.039287 
L 155.295665 183.024668 
L 156.028761 186.177247 
L 156.761856 198.877877 
L 157.494951 205.211362 
L 158.228047 214.684696 
L 158.961142 204.545554 
L 160.427333 124.046732 
L 161.160428 138.710525 
L 161.893523 141.402452 
L 162.626619 148.106053 
L 163.359714 88.276904 
L 164.09281 120.893309 
L 164.825905 137.381251 
L 165.559 149.329475 
L 166.292096 122.972851 
L 167.025191 120.052132 
L 167.758286 126.005021 
L 168.491382 107.8655 
L 169.224477 128.095305 
L 169.957572 138.998995 
L 170.690668 153.949361 
L 171.423763 139.965873 
L 172.156858 152.375031 
L 172.889954 156.624539 
L 173.623049 164.865154 
L 174.356145 178.322351 
L 175.08924 187.854721 
L 175.822335 194.880242 
L 176.555431 184.933198 
L 177.288526 198.655562 
L 178.754717 215.403175 
L 179.487812 219.793941 
L 180.220907 218.66555 
L 180.954003 217.998853 
L 182.420194 233.833233 
L 183.153289 232.593554 
L 183.886384 235.817141 
L 184.61948 210.305227 
L 185.352575 220.608891 
L 186.08567 222.088575 
L 187.551861 235.748331 
L 188.284956 238.027637 
L 189.018052 227.827628 
L 189.751147 200.904584 
L 190.484242 203.945855 
L 191.217338 206.381224 
L 191.950433 209.411432 
L 192.683529 216.561077 
L 193.416624 218.08657 
L 194.149719 217.585506 
L 194.882815 199.425802 
L 195.61591 211.549872 
L 196.349005 195.558179 
L 197.082101 195.192113 
L 197.815196 185.121579 
L 198.548291 191.224937 
L 199.281387 201.309098 
L 200.014482 209.730617 
L 200.747578 191.67579 
L 201.480673 188.038006 
L 202.213768 200.115142 
L 203.679959 217.1056 
L 204.413054 214.422748 
L 205.14615 224.285156 
L 205.879245 199.212855 
L 206.61234 194.66857 
L 207.345436 201.545048 
L 208.811626 219.753341 
L 209.544722 219.189505 
L 210.277817 220.859396 
L 211.010913 215.617182 
L 211.744008 223.490055 
L 212.477103 228.517792 
L 213.210199 193.478611 
L 213.943294 190.131914 
L 215.409485 210.943022 
L 216.14258 214.015414 
L 216.875675 193.926736 
L 217.608771 207.245004 
L 219.074962 223.814827 
L 219.808057 198.400352 
L 220.541152 179.440732 
L 221.274248 190.586443 
L 222.007343 165.289609 
L 222.740438 168.948086 
L 223.473534 182.500498 
L 224.206629 172.251952 
L 224.939724 184.505838 
L 225.67282 192.404435 
L 227.13901 209.407284 
L 227.872106 209.048682 
L 228.605201 217.017196 
L 229.338297 200.464205 
L 230.071392 188.039582 
L 230.804487 191.99103 
L 231.537583 200.016775 
L 233.003773 218.831473 
L 233.736869 214.588506 
L 234.469964 222.90923 
L 235.203059 213.502515 
L 235.936155 189.190779 
L 236.66925 170.639481 
L 237.402346 185.634837 
L 238.135441 134.805854 
L 238.868536 148.49552 
L 239.601632 151.382403 
L 240.334727 167.967718 
L 241.067822 181.072489 
L 241.800918 126.385932 
L 242.534013 150.096268 
L 243.267108 164.847176 
L 244.000204 153.64485 
L 244.733299 160.530296 
L 245.466394 174.420676 
L 246.19949 183.648672 
L 246.932585 194.843004 
L 247.665681 197.521348 
L 248.398776 164.96165 
L 249.131871 168.425852 
L 249.864967 182.313745 
L 250.598062 185.020326 
L 251.331157 186.468779 
L 252.064253 193.961828 
L 253.530443 214.292127 
L 254.263539 209.067714 
L 254.996634 215.183626 
L 256.462825 228.892461 
L 257.19592 230.146991 
L 257.929016 235.81232 
L 258.662111 227.899958 
L 259.395206 233.498785 
L 260.128302 234.833339 
L 260.861397 240.966258 
L 261.594492 220.588152 
L 262.327588 230.001186 
L 263.060683 226.820921 
L 263.793779 221.262079 
L 264.526874 229.090204 
L 265.259969 216.820768 
L 265.993065 225.741924 
L 266.72616 228.843591 
L 267.459255 233.218958 
L 268.192351 210.904992 
L 268.925446 200.068615 
L 269.658541 185.848811 
L 270.391637 187.541018 
L 271.124732 181.592303 
L 271.857827 195.436423 
L 272.590923 192.98848 
L 273.324018 199.689628 
L 274.057114 197.483757 
L 274.790209 209.677122 
L 275.523304 210.274996 
L 276.2564 187.807349 
L 276.989495 196.907236 
L 277.72259 197.637498 
L 279.188781 210.66869 
L 279.921876 219.564907 
L 280.654972 223.633695 
L 281.388067 230.929106 
L 282.121163 236.985106 
L 282.854258 230.210993 
L 283.587353 232.509605 
L 284.320449 225.404152 
L 285.053544 228.100815 
L 285.786639 201.561364 
L 286.519735 153.215423 
L 287.25283 160.830424 
L 287.985925 175.44014 
L 288.719021 171.122645 
L 289.452116 142.100316 
L 290.185211 125.253747 
L 290.918307 142.685224 
L 291.651402 117.376836 
L 292.384498 136.094933 
L 293.117593 131.011993 
L 293.850688 148.809164 
L 294.583784 158.419117 
L 295.316879 173.23109 
L 296.049974 174.057207 
L 296.78307 149.409368 
L 297.516165 166.275825 
L 298.24926 105.380502 
L 298.982356 129.449505 
L 299.715451 142.11344 
L 300.448547 139.441362 
L 301.181642 150.344974 
L 301.914737 142.928801 
L 302.647833 161.711809 
L 303.380928 165.770261 
L 304.114023 179.719598 
L 304.847119 176.785207 
L 308.512595 212.406384 
L 309.245691 211.704162 
L 309.978786 218.933033 
L 310.711882 199.481338 
L 311.444977 213.475784 
L 312.178072 211.796623 
L 312.911168 207.67432 
L 313.644263 213.133623 
L 314.377358 221.407001 
L 315.843549 211.909416 
L 316.576644 221.003023 
L 317.30974 225.66962 
L 318.042835 232.424963 
L 318.775931 225.173711 
L 319.509026 223.529524 
L 320.242121 220.223106 
L 320.975217 171.745995 
L 321.708312 191.070719 
L 322.441407 191.395982 
L 323.174503 203.644098 
L 324.640693 190.330475 
L 325.373789 195.171374 
L 326.106884 206.77041 
L 326.839979 214.942856 
L 327.573075 215.21533 
L 328.30617 221.897774 
L 329.039266 216.800925 
L 329.772361 205.677563 
L 330.505456 214.073894 
L 331.238552 213.002374 
L 331.971647 175.71228 
L 332.704742 194.371386 
L 333.437838 201.983621 
L 334.170933 185.148892 
L 334.904028 194.67226 
L 335.637124 120.982309 
L 336.370219 143.528338 
L 337.103315 125.973449 
L 337.83641 137.765524 
L 338.569505 154.637896 
L 339.302601 143.66028 
L 340.035696 151.03924 
L 340.768791 153.234957 
L 342.234982 180.055891 
L 342.968077 159.56877 
L 343.701173 167.856056 
L 344.434268 179.871586 
L 345.167363 144.814146 
L 345.900459 163.952955 
L 346.633554 164.365281 
L 347.36665 173.343981 
L 348.099745 185.788682 
L 348.83284 196.204347 
L 349.565936 205.019363 
L 351.032126 218.395013 
L 351.765222 188.119789 
L 352.498317 203.497593 
L 353.231412 205.902234 
L 353.964508 205.585731 
L 354.697603 210.54488 
L 355.430699 218.037249 
L 356.163794 224.114301 
L 356.896889 227.621236 
L 357.629985 211.525961 
L 358.36308 223.143511 
L 359.096175 190.463378 
L 359.829271 204.467245 
L 360.562366 190.816229 
L 361.295461 198.057949 
L 362.028557 184.791468 
L 362.761652 188.076971 
L 363.494747 134.826121 
L 364.227843 142.839109 
L 364.960938 113.079963 
L 365.694034 138.256827 
L 366.427129 148.720125 
L 367.160224 147.73264 
L 367.89332 165.702641 
L 368.626415 177.936547 
L 369.35951 176.675756 
L 370.092606 188.767829 
L 370.825701 154.286779 
L 371.558796 171.616971 
L 372.291892 166.79785 
L 373.024987 166.967737 
L 373.758083 152.132277 
L 374.491178 155.840802 
L 375.224273 172.45926 
L 375.957369 171.332334 
L 376.690464 178.39073 
L 377.423559 191.917084 
L 378.156655 178.856008 
L 378.88975 181.791171 
L 379.622845 189.1767 
L 380.355941 200.247313 
L 381.089036 208.881027 
L 382.555227 220.146033 
L 383.288322 205.516737 
L 384.754513 222.710865 
L 385.487608 219.801118 
L 386.220704 227.336946 
L 386.953799 207.491205 
L 387.686894 197.941917 
L 388.41999 200.76642 
L 389.153085 97.120418 
L 389.88618 125.506169 
L 390.619276 128.282947 
L 391.352371 148.089383 
L 392.085467 81.37255 
L 392.818562 105.846905 
L 393.551657 101.22503 
L 394.284753 123.834806 
L 395.017848 120.699361 
L 395.750943 123.313134 
L 397.217134 156.835471 
L 397.950229 155.347 
L 398.683325 139.270992 
L 399.41642 148.764429 
L 400.882611 176.729193 
L 401.615706 183.930338 
L 402.348802 128.097726 
L 403.081897 143.340853 
L 403.814992 74.199131 
L 404.548088 100.1912 
L 405.281183 117.982744 
L 406.014278 104.337879 
L 406.747374 78.608347 
L 407.480469 102.181179 
L 408.213564 115.407203 
L 408.94666 131.367821 
L 409.679755 144.204744 
L 410.412851 159.484926 
L 411.145946 154.631655 
L 411.879041 151.43559 
L 412.612137 169.377356 
L 413.345232 87.575664 
L 414.078327 101.457826 
L 414.811423 118.279117 
L 415.544518 98.770283 
L 416.277613 122.985673 
L 417.010709 125.232014 
L 417.743804 145.567318 
L 418.4769 156.432265 
L 419.94309 184.46213 
L 420.676186 193.353303 
L 421.409281 192.988905 
L 422.142376 205.27785 
L 423.608567 217.867669 
L 424.341662 189.47359 
L 425.074758 134.710731 
L 425.807853 109.873365 
L 426.540948 118.721131 
L 428.007139 147.768412 
L 428.740235 141.714839 
L 429.47333 158.973486 
L 430.206425 170.67719 
L 430.939521 166.087673 
L 431.672616 180.864213 
L 431.672616 180.864213 
" clip-path="url(#p733d79f602)" style="fill: none; stroke: #d62728; stroke-width: 1.5; stroke-linecap: square"/>
   </g>
   <g id="patch_3">
    <path d="M 46.797552 302.64 
L 46.797552 10.8 
" style="fill: none; stroke: #000000; stroke-width: 0.8; stroke-linejoin: miter; stroke-linecap: square"/>
   </g>
   <g id="patch_4">
    <path d="M 450 302.64 
L 450 10.8 
" style="fill: none; stroke: #000000; stroke-width: 0.8; stroke-linejoin: miter; stroke-linecap: square"/>
   </g>
   <g id="patch_5">
    <path d="M 46.797552 302.64 
L 450 302.64 
" style="fill: none; stroke: #000000; stroke-width: 0.8; stroke-linejoin: miter; stroke-linecap: square"/>
   </g>
   <g id="patch_6">
    <path d="M 46.797552 10.8 
L 450 10.8 
" style="fill: none; stroke: #000000; stroke-width: 0.8; stroke-linejoin: miter; stroke-linecap: square"/>
   </g>
  </g>
 </g>
 <defs>
  <clipPath id="p733d79f602">
   <rect x="46.797552" y="10.8" width="403.202448" height="291.84"/>
  </clipPath>
 </defs>
</svg>
