<?xml version="1.0" encoding="utf-8" standalone="no"?>
<!DOCTYPE svg PUBLIC "-//W3C//DTD SVG 1.1//EN"
  "http://www.w3.org/Graphics/SVG/1.1/DTD/svg11.dtd">
<svg xmlns:xlink="http://www.w3.org/1999/xlink" width="460.8pt" height="345.6pt" viewBox="0 0 460.8 345.6" xmlns="http://www.w3.org/2000/svg" version="1.1">
 <metadata>
  <rdf:RDF xmlns:dc="http://purl.org/dc/elements/1.1/" xmlns:cc="http://creativecommons.org/ns#" xmlns:rdf="http://www.w3.org/1999/02/22-rdf-syntax-ns#">
   <cc:Work>
    <dc:type rdf:resource="http://purl.org/dc/dcmitype/StillImage"/>
    <dc:date>2023-09-22T23:18:07.222728</dc:date>
    <dc:format>image/svg+xml</dc:format>
    <dc:creator>
     <cc:Agent>
      <dc:title>Matplotlib v3.7.1, https://matplotlib.org/</dc:title>
     </cc:Agent>
    </dc:creator>
   </cc:Work>
  </rdf:RDF>
 </metadata>
 <defs>
  <style type="text/css">*{stroke-linejoin: round; stroke-linecap: butt}</style>
 </defs>
 <g id="figure_1">
  <g id="patch_1">
   <path d="M 0 345.6 
L 460.8 345.6 
L 460.8 0 
L 0 0 
z
" style="fill: #ffffff"/>
  </g>
  <g id="axes_1">
   <g id="patch_2">
    <path d="M 46.797552 302.64 
L 450 302.64 
L 450 10.8 
L 46.797552 10.8 
z
" style="fill: #ffffff"/>
   </g>
   <g id="matplotlib.axis_1">
    <g id="xtick_1">
     <g id="line2d_1">
      <defs>
       <path id="mad79b36c65" d="M 0 0 
L 0 -3.5 
" style="stroke: #000000; stroke-width: 0.8"/>
      </defs>
      <g>
       <use xlink:href="#mad79b36c65" x="65.124936" y="302.64" style="stroke: #000000; stroke-width: 0.8"/>
      </g>
     </g>
     <g id="text_1">
      <!-- 0 -->
      <g transform="translate(61.374936 316.555625) scale(0.15 -0.15)">
       <defs>
        <path id="TimesNewRomanPSMT-30" d="M 231 2094 
Q 231 2819 450 3342 
Q 669 3866 1031 4122 
Q 1313 4325 1613 4325 
Q 2100 4325 2488 3828 
Q 2972 3213 2972 2159 
Q 2972 1422 2759 906 
Q 2547 391 2217 158 
Q 1888 -75 1581 -75 
Q 975 -75 572 641 
Q 231 1244 231 2094 
z
M 844 2016 
Q 844 1141 1059 588 
Q 1238 122 1591 122 
Q 1759 122 1940 273 
Q 2122 425 2216 781 
Q 2359 1319 2359 2297 
Q 2359 3022 2209 3506 
Q 2097 3866 1919 4016 
Q 1791 4119 1609 4119 
Q 1397 4119 1231 3928 
Q 1006 3669 925 3112 
Q 844 2556 844 2016 
z
" transform="scale(0.015625)"/>
       </defs>
       <use xlink:href="#TimesNewRomanPSMT-30"/>
      </g>
     </g>
    </g>
    <g id="xtick_2">
     <g id="line2d_2">
      <g>
       <use xlink:href="#mad79b36c65" x="138.434472" y="302.64" style="stroke: #000000; stroke-width: 0.8"/>
      </g>
     </g>
     <g id="text_2">
      <!-- 100 -->
      <g transform="translate(127.184472 316.555625) scale(0.15 -0.15)">
       <defs>
        <path id="TimesNewRomanPSMT-31" d="M 750 3822 
L 1781 4325 
L 1884 4325 
L 1884 747 
Q 1884 391 1914 303 
Q 1944 216 2037 169 
Q 2131 122 2419 116 
L 2419 0 
L 825 0 
L 825 116 
Q 1125 122 1212 167 
Q 1300 213 1334 289 
Q 1369 366 1369 747 
L 1369 3034 
Q 1369 3497 1338 3628 
Q 1316 3728 1258 3775 
Q 1200 3822 1119 3822 
Q 1003 3822 797 3725 
L 750 3822 
z
" transform="scale(0.015625)"/>
       </defs>
       <use xlink:href="#TimesNewRomanPSMT-31"/>
       <use xlink:href="#TimesNewRomanPSMT-30" x="50"/>
       <use xlink:href="#TimesNewRomanPSMT-30" x="100"/>
      </g>
     </g>
    </g>
    <g id="xtick_3">
     <g id="line2d_3">
      <g>
       <use xlink:href="#mad79b36c65" x="211.744008" y="302.64" style="stroke: #000000; stroke-width: 0.8"/>
      </g>
     </g>
     <g id="text_3">
      <!-- 200 -->
      <g transform="translate(200.494008 316.555625) scale(0.15 -0.15)">
       <defs>
        <path id="TimesNewRomanPSMT-32" d="M 2934 816 
L 2638 0 
L 138 0 
L 138 116 
Q 1241 1122 1691 1759 
Q 2141 2397 2141 2925 
Q 2141 3328 1894 3587 
Q 1647 3847 1303 3847 
Q 991 3847 742 3664 
Q 494 3481 375 3128 
L 259 3128 
Q 338 3706 661 4015 
Q 984 4325 1469 4325 
Q 1984 4325 2329 3994 
Q 2675 3663 2675 3213 
Q 2675 2891 2525 2569 
Q 2294 2063 1775 1497 
Q 997 647 803 472 
L 1909 472 
Q 2247 472 2383 497 
Q 2519 522 2628 598 
Q 2738 675 2819 816 
L 2934 816 
z
" transform="scale(0.015625)"/>
       </defs>
       <use xlink:href="#TimesNewRomanPSMT-32"/>
       <use xlink:href="#TimesNewRomanPSMT-30" x="50"/>
       <use xlink:href="#TimesNewRomanPSMT-30" x="100"/>
      </g>
     </g>
    </g>
    <g id="xtick_4">
     <g id="line2d_4">
      <g>
       <use xlink:href="#mad79b36c65" x="285.053544" y="302.64" style="stroke: #000000; stroke-width: 0.8"/>
      </g>
     </g>
     <g id="text_4">
      <!-- 300 -->
      <g transform="translate(273.803544 316.555625) scale(0.15 -0.15)">
       <defs>
        <path id="TimesNewRomanPSMT-33" d="M 325 3431 
Q 506 3859 782 4092 
Q 1059 4325 1472 4325 
Q 1981 4325 2253 3994 
Q 2459 3747 2459 3466 
Q 2459 3003 1878 2509 
Q 2269 2356 2469 2072 
Q 2669 1788 2669 1403 
Q 2669 853 2319 450 
Q 1863 -75 997 -75 
Q 569 -75 414 31 
Q 259 138 259 259 
Q 259 350 332 419 
Q 406 488 509 488 
Q 588 488 669 463 
Q 722 447 909 348 
Q 1097 250 1169 231 
Q 1284 197 1416 197 
Q 1734 197 1970 444 
Q 2206 691 2206 1028 
Q 2206 1275 2097 1509 
Q 2016 1684 1919 1775 
Q 1784 1900 1550 2001 
Q 1316 2103 1072 2103 
L 972 2103 
L 972 2197 
Q 1219 2228 1467 2375 
Q 1716 2522 1828 2728 
Q 1941 2934 1941 3181 
Q 1941 3503 1739 3701 
Q 1538 3900 1238 3900 
Q 753 3900 428 3381 
L 325 3431 
z
" transform="scale(0.015625)"/>
       </defs>
       <use xlink:href="#TimesNewRomanPSMT-33"/>
       <use xlink:href="#TimesNewRomanPSMT-30" x="50"/>
       <use xlink:href="#TimesNewRomanPSMT-30" x="100"/>
      </g>
     </g>
    </g>
    <g id="xtick_5">
     <g id="line2d_5">
      <g>
       <use xlink:href="#mad79b36c65" x="358.36308" y="302.64" style="stroke: #000000; stroke-width: 0.8"/>
      </g>
     </g>
     <g id="text_5">
      <!-- 400 -->
      <g transform="translate(347.11308 316.555625) scale(0.15 -0.15)">
       <defs>
        <path id="TimesNewRomanPSMT-34" d="M 2978 1563 
L 2978 1119 
L 2409 1119 
L 2409 0 
L 1894 0 
L 1894 1119 
L 100 1119 
L 100 1519 
L 2066 4325 
L 2409 4325 
L 2409 1563 
L 2978 1563 
z
M 1894 1563 
L 1894 3666 
L 406 1563 
L 1894 1563 
z
" transform="scale(0.015625)"/>
       </defs>
       <use xlink:href="#TimesNewRomanPSMT-34"/>
       <use xlink:href="#TimesNewRomanPSMT-30" x="50"/>
       <use xlink:href="#TimesNewRomanPSMT-30" x="100"/>
      </g>
     </g>
    </g>
    <g id="xtick_6">
     <g id="line2d_6">
      <g>
       <use xlink:href="#mad79b36c65" x="431.672616" y="302.64" style="stroke: #000000; stroke-width: 0.8"/>
      </g>
     </g>
     <g id="text_6">
      <!-- 500 -->
      <g transform="translate(420.422616 316.555625) scale(0.15 -0.15)">
       <defs>
        <path id="TimesNewRomanPSMT-35" d="M 2778 4238 
L 2534 3706 
L 1259 3706 
L 981 3138 
Q 1809 3016 2294 2522 
Q 2709 2097 2709 1522 
Q 2709 1188 2573 903 
Q 2438 619 2231 419 
Q 2025 219 1772 97 
Q 1413 -75 1034 -75 
Q 653 -75 479 54 
Q 306 184 306 341 
Q 306 428 378 495 
Q 450 563 559 563 
Q 641 563 702 538 
Q 763 513 909 409 
Q 1144 247 1384 247 
Q 1750 247 2026 523 
Q 2303 800 2303 1197 
Q 2303 1581 2056 1914 
Q 1809 2247 1375 2428 
Q 1034 2569 447 2591 
L 1259 4238 
L 2778 4238 
z
" transform="scale(0.015625)"/>
       </defs>
       <use xlink:href="#TimesNewRomanPSMT-35"/>
       <use xlink:href="#TimesNewRomanPSMT-30" x="50"/>
       <use xlink:href="#TimesNewRomanPSMT-30" x="100"/>
      </g>
     </g>
    </g>
    <g id="text_7">
     <!-- Time (arbitrary unit) -->
     <g transform="translate(207.202682 330.707969) scale(0.1 -0.1)">
      <defs>
       <path id="TimesNewRomanPSMT-54" d="M 3703 4238 
L 3750 3244 
L 3631 3244 
Q 3597 3506 3538 3619 
Q 3441 3800 3280 3886 
Q 3119 3972 2856 3972 
L 2259 3972 
L 2259 734 
Q 2259 344 2344 247 
Q 2463 116 2709 116 
L 2856 116 
L 2856 0 
L 1059 0 
L 1059 116 
L 1209 116 
Q 1478 116 1591 278 
Q 1659 378 1659 734 
L 1659 3972 
L 1150 3972 
Q 853 3972 728 3928 
Q 566 3869 450 3700 
Q 334 3531 313 3244 
L 194 3244 
L 244 4238 
L 3703 4238 
z
" transform="scale(0.015625)"/>
       <path id="TimesNewRomanPSMT-69" d="M 928 4444 
Q 1059 4444 1151 4351 
Q 1244 4259 1244 4128 
Q 1244 3997 1151 3903 
Q 1059 3809 928 3809 
Q 797 3809 703 3903 
Q 609 3997 609 4128 
Q 609 4259 701 4351 
Q 794 4444 928 4444 
z
M 1188 2947 
L 1188 647 
Q 1188 378 1227 289 
Q 1266 200 1342 156 
Q 1419 113 1622 113 
L 1622 0 
L 231 0 
L 231 113 
Q 441 113 512 153 
Q 584 194 626 287 
Q 669 381 669 647 
L 669 1750 
Q 669 2216 641 2353 
Q 619 2453 572 2492 
Q 525 2531 444 2531 
Q 356 2531 231 2484 
L 188 2597 
L 1050 2947 
L 1188 2947 
z
" transform="scale(0.015625)"/>
       <path id="TimesNewRomanPSMT-6d" d="M 1050 2338 
Q 1363 2650 1419 2697 
Q 1559 2816 1721 2881 
Q 1884 2947 2044 2947 
Q 2313 2947 2506 2790 
Q 2700 2634 2766 2338 
Q 3088 2713 3309 2830 
Q 3531 2947 3766 2947 
Q 3994 2947 4170 2830 
Q 4347 2713 4450 2447 
Q 4519 2266 4519 1878 
L 4519 647 
Q 4519 378 4559 278 
Q 4591 209 4675 161 
Q 4759 113 4950 113 
L 4950 0 
L 3538 0 
L 3538 113 
L 3597 113 
Q 3781 113 3884 184 
Q 3956 234 3988 344 
Q 4000 397 4000 647 
L 4000 1878 
Q 4000 2228 3916 2372 
Q 3794 2572 3525 2572 
Q 3359 2572 3192 2489 
Q 3025 2406 2788 2181 
L 2781 2147 
L 2788 2013 
L 2788 647 
Q 2788 353 2820 281 
Q 2853 209 2943 161 
Q 3034 113 3253 113 
L 3253 0 
L 1806 0 
L 1806 113 
Q 2044 113 2133 169 
Q 2222 225 2256 338 
Q 2272 391 2272 647 
L 2272 1878 
Q 2272 2228 2169 2381 
Q 2031 2581 1784 2581 
Q 1616 2581 1450 2491 
Q 1191 2353 1050 2181 
L 1050 647 
Q 1050 366 1089 281 
Q 1128 197 1204 155 
Q 1281 113 1516 113 
L 1516 0 
L 100 0 
L 100 113 
Q 297 113 375 155 
Q 453 197 493 289 
Q 534 381 534 647 
L 534 1741 
Q 534 2213 506 2350 
Q 484 2453 437 2492 
Q 391 2531 309 2531 
Q 222 2531 100 2484 
L 53 2597 
L 916 2947 
L 1050 2947 
L 1050 2338 
z
" transform="scale(0.015625)"/>
       <path id="TimesNewRomanPSMT-65" d="M 681 1784 
Q 678 1147 991 784 
Q 1303 422 1725 422 
Q 2006 422 2214 576 
Q 2422 731 2563 1106 
L 2659 1044 
Q 2594 616 2278 264 
Q 1963 -88 1488 -88 
Q 972 -88 605 314 
Q 238 716 238 1394 
Q 238 2128 614 2539 
Q 991 2950 1559 2950 
Q 2041 2950 2350 2633 
Q 2659 2316 2659 1784 
L 681 1784 
z
M 681 1966 
L 2006 1966 
Q 1991 2241 1941 2353 
Q 1863 2528 1708 2628 
Q 1553 2728 1384 2728 
Q 1125 2728 920 2526 
Q 716 2325 681 1966 
z
" transform="scale(0.015625)"/>
       <path id="TimesNewRomanPSMT-20" transform="scale(0.015625)"/>
       <path id="TimesNewRomanPSMT-28" d="M 1988 -1253 
L 1988 -1369 
Q 1516 -1131 1200 -813 
Q 750 -359 506 256 
Q 263 872 263 1534 
Q 263 2503 741 3301 
Q 1219 4100 1988 4444 
L 1988 4313 
Q 1603 4100 1356 3731 
Q 1109 3363 987 2797 
Q 866 2231 866 1616 
Q 866 947 969 400 
Q 1050 -31 1165 -292 
Q 1281 -553 1476 -793 
Q 1672 -1034 1988 -1253 
z
" transform="scale(0.015625)"/>
       <path id="TimesNewRomanPSMT-61" d="M 1822 413 
Q 1381 72 1269 19 
Q 1100 -59 909 -59 
Q 613 -59 420 144 
Q 228 347 228 678 
Q 228 888 322 1041 
Q 450 1253 767 1440 
Q 1084 1628 1822 1897 
L 1822 2009 
Q 1822 2438 1686 2597 
Q 1550 2756 1291 2756 
Q 1094 2756 978 2650 
Q 859 2544 859 2406 
L 866 2225 
Q 866 2081 792 2003 
Q 719 1925 600 1925 
Q 484 1925 411 2006 
Q 338 2088 338 2228 
Q 338 2497 613 2722 
Q 888 2947 1384 2947 
Q 1766 2947 2009 2819 
Q 2194 2722 2281 2516 
Q 2338 2381 2338 1966 
L 2338 994 
Q 2338 584 2353 492 
Q 2369 400 2405 369 
Q 2441 338 2488 338 
Q 2538 338 2575 359 
Q 2641 400 2828 588 
L 2828 413 
Q 2478 -56 2159 -56 
Q 2006 -56 1915 50 
Q 1825 156 1822 413 
z
M 1822 616 
L 1822 1706 
Q 1350 1519 1213 1441 
Q 966 1303 859 1153 
Q 753 1003 753 825 
Q 753 600 887 451 
Q 1022 303 1197 303 
Q 1434 303 1822 616 
z
" transform="scale(0.015625)"/>
       <path id="TimesNewRomanPSMT-72" d="M 1038 2947 
L 1038 2303 
Q 1397 2947 1775 2947 
Q 1947 2947 2059 2842 
Q 2172 2738 2172 2600 
Q 2172 2478 2090 2393 
Q 2009 2309 1897 2309 
Q 1788 2309 1652 2417 
Q 1516 2525 1450 2525 
Q 1394 2525 1328 2463 
Q 1188 2334 1038 2041 
L 1038 669 
Q 1038 431 1097 309 
Q 1138 225 1241 169 
Q 1344 113 1538 113 
L 1538 0 
L 72 0 
L 72 113 
Q 291 113 397 181 
Q 475 231 506 341 
Q 522 394 522 644 
L 522 1753 
Q 522 2253 501 2348 
Q 481 2444 426 2487 
Q 372 2531 291 2531 
Q 194 2531 72 2484 
L 41 2597 
L 906 2947 
L 1038 2947 
z
" transform="scale(0.015625)"/>
       <path id="TimesNewRomanPSMT-62" d="M 984 2369 
Q 1400 2947 1881 2947 
Q 2322 2947 2650 2570 
Q 2978 2194 2978 1541 
Q 2978 778 2472 313 
Q 2038 -88 1503 -88 
Q 1253 -88 995 3 
Q 738 94 469 275 
L 469 3241 
Q 469 3728 445 3840 
Q 422 3953 372 3993 
Q 322 4034 247 4034 
Q 159 4034 28 3984 
L -16 4094 
L 844 4444 
L 984 4444 
L 984 2369 
z
M 984 2169 
L 984 456 
Q 1144 300 1314 220 
Q 1484 141 1663 141 
Q 1947 141 2192 453 
Q 2438 766 2438 1363 
Q 2438 1913 2192 2208 
Q 1947 2503 1634 2503 
Q 1469 2503 1303 2419 
Q 1178 2356 984 2169 
z
" transform="scale(0.015625)"/>
       <path id="TimesNewRomanPSMT-74" d="M 1031 3803 
L 1031 2863 
L 1700 2863 
L 1700 2644 
L 1031 2644 
L 1031 788 
Q 1031 509 1111 412 
Q 1191 316 1316 316 
Q 1419 316 1516 380 
Q 1613 444 1666 569 
L 1788 569 
Q 1678 263 1478 108 
Q 1278 -47 1066 -47 
Q 922 -47 784 33 
Q 647 113 581 261 
Q 516 409 516 719 
L 516 2644 
L 63 2644 
L 63 2747 
Q 234 2816 414 2980 
Q 594 3144 734 3369 
Q 806 3488 934 3803 
L 1031 3803 
z
" transform="scale(0.015625)"/>
       <path id="TimesNewRomanPSMT-79" d="M 38 2863 
L 1372 2863 
L 1372 2747 
L 1306 2747 
Q 1166 2747 1095 2686 
Q 1025 2625 1025 2534 
Q 1025 2413 1128 2197 
L 1825 753 
L 2466 2334 
Q 2519 2463 2519 2588 
Q 2519 2644 2497 2672 
Q 2472 2706 2419 2726 
Q 2366 2747 2231 2747 
L 2231 2863 
L 3163 2863 
L 3163 2747 
Q 3047 2734 2984 2696 
Q 2922 2659 2847 2556 
Q 2819 2513 2741 2316 
L 1575 -541 
Q 1406 -956 1132 -1168 
Q 859 -1381 606 -1381 
Q 422 -1381 303 -1275 
Q 184 -1169 184 -1031 
Q 184 -900 270 -820 
Q 356 -741 506 -741 
Q 609 -741 788 -809 
Q 913 -856 944 -856 
Q 1038 -856 1148 -759 
Q 1259 -663 1372 -384 
L 1575 113 
L 547 2272 
Q 500 2369 397 2513 
Q 319 2622 269 2659 
Q 197 2709 38 2747 
L 38 2863 
z
" transform="scale(0.015625)"/>
       <path id="TimesNewRomanPSMT-75" d="M 2709 2863 
L 2709 1128 
Q 2709 631 2732 520 
Q 2756 409 2807 365 
Q 2859 322 2928 322 
Q 3025 322 3147 375 
L 3191 266 
L 2334 -88 
L 2194 -88 
L 2194 519 
Q 1825 119 1631 15 
Q 1438 -88 1222 -88 
Q 981 -88 804 51 
Q 628 191 559 409 
Q 491 628 491 1028 
L 491 2306 
Q 491 2509 447 2587 
Q 403 2666 317 2708 
Q 231 2750 6 2747 
L 6 2863 
L 1009 2863 
L 1009 947 
Q 1009 547 1148 422 
Q 1288 297 1484 297 
Q 1619 297 1789 381 
Q 1959 466 2194 703 
L 2194 2325 
Q 2194 2569 2105 2655 
Q 2016 2741 1734 2747 
L 1734 2863 
L 2709 2863 
z
" transform="scale(0.015625)"/>
       <path id="TimesNewRomanPSMT-6e" d="M 1034 2341 
Q 1538 2947 1994 2947 
Q 2228 2947 2397 2830 
Q 2566 2713 2666 2444 
Q 2734 2256 2734 1869 
L 2734 647 
Q 2734 375 2778 278 
Q 2813 200 2889 156 
Q 2966 113 3172 113 
L 3172 0 
L 1756 0 
L 1756 113 
L 1816 113 
Q 2016 113 2095 173 
Q 2175 234 2206 353 
Q 2219 400 2219 647 
L 2219 1819 
Q 2219 2209 2117 2386 
Q 2016 2563 1775 2563 
Q 1403 2563 1034 2156 
L 1034 647 
Q 1034 356 1069 288 
Q 1113 197 1189 155 
Q 1266 113 1500 113 
L 1500 0 
L 84 0 
L 84 113 
L 147 113 
Q 366 113 442 223 
Q 519 334 519 647 
L 519 1709 
Q 519 2225 495 2337 
Q 472 2450 423 2490 
Q 375 2531 294 2531 
Q 206 2531 84 2484 
L 38 2597 
L 900 2947 
L 1034 2947 
L 1034 2341 
z
" transform="scale(0.015625)"/>
       <path id="TimesNewRomanPSMT-29" d="M 144 4313 
L 144 4444 
Q 619 4209 934 3891 
Q 1381 3434 1625 2820 
Q 1869 2206 1869 1541 
Q 1869 572 1392 -226 
Q 916 -1025 144 -1369 
L 144 -1253 
Q 528 -1038 776 -670 
Q 1025 -303 1145 264 
Q 1266 831 1266 1447 
Q 1266 2113 1163 2663 
Q 1084 3094 967 3353 
Q 850 3613 656 3853 
Q 463 4094 144 4313 
z
" transform="scale(0.015625)"/>
      </defs>
      <use xlink:href="#TimesNewRomanPSMT-54"/>
      <use xlink:href="#TimesNewRomanPSMT-69" x="57.583984"/>
      <use xlink:href="#TimesNewRomanPSMT-6d" x="85.367188"/>
      <use xlink:href="#TimesNewRomanPSMT-65" x="163.150391"/>
      <use xlink:href="#TimesNewRomanPSMT-20" x="207.535156"/>
      <use xlink:href="#TimesNewRomanPSMT-28" x="232.535156"/>
      <use xlink:href="#TimesNewRomanPSMT-61" x="265.835938"/>
      <use xlink:href="#TimesNewRomanPSMT-72" x="310.220703"/>
      <use xlink:href="#TimesNewRomanPSMT-62" x="343.521484"/>
      <use xlink:href="#TimesNewRomanPSMT-69" x="393.521484"/>
      <use xlink:href="#TimesNewRomanPSMT-74" x="421.304688"/>
      <use xlink:href="#TimesNewRomanPSMT-72" x="449.087891"/>
      <use xlink:href="#TimesNewRomanPSMT-61" x="482.388672"/>
      <use xlink:href="#TimesNewRomanPSMT-72" x="526.773438"/>
      <use xlink:href="#TimesNewRomanPSMT-79" x="560.074219"/>
      <use xlink:href="#TimesNewRomanPSMT-20" x="610.074219"/>
      <use xlink:href="#TimesNewRomanPSMT-75" x="635.074219"/>
      <use xlink:href="#TimesNewRomanPSMT-6e" x="685.074219"/>
      <use xlink:href="#TimesNewRomanPSMT-69" x="735.074219"/>
      <use xlink:href="#TimesNewRomanPSMT-74" x="762.857422"/>
      <use xlink:href="#TimesNewRomanPSMT-29" x="790.640625"/>
     </g>
    </g>
   </g>
   <g id="matplotlib.axis_2">
    <g id="ytick_1">
     <g id="line2d_7">
      <defs>
       <path id="m1af6a17cba" d="M 0 0 
L 3.5 0 
" style="stroke: #000000; stroke-width: 0.8"/>
      </defs>
      <g>
       <use xlink:href="#m1af6a17cba" x="46.797552" y="289.374551" style="stroke: #000000; stroke-width: 0.8"/>
      </g>
     </g>
     <g id="text_8">
      <!-- 0.0 -->
      <g transform="translate(24.547552 294.582363) scale(0.15 -0.15)">
       <defs>
        <path id="TimesNewRomanPSMT-2e" d="M 800 606 
Q 947 606 1047 504 
Q 1147 403 1147 259 
Q 1147 116 1045 14 
Q 944 -88 800 -88 
Q 656 -88 554 14 
Q 453 116 453 259 
Q 453 406 554 506 
Q 656 606 800 606 
z
" transform="scale(0.015625)"/>
       </defs>
       <use xlink:href="#TimesNewRomanPSMT-30"/>
       <use xlink:href="#TimesNewRomanPSMT-2e" x="50"/>
       <use xlink:href="#TimesNewRomanPSMT-30" x="75"/>
      </g>
     </g>
    </g>
    <g id="ytick_2">
     <g id="line2d_8">
      <g>
       <use xlink:href="#m1af6a17cba" x="46.797552" y="233.121551" style="stroke: #000000; stroke-width: 0.8"/>
      </g>
     </g>
     <g id="text_9">
      <!-- 0.1 -->
      <g transform="translate(24.547552 238.329363) scale(0.15 -0.15)">
       <use xlink:href="#TimesNewRomanPSMT-30"/>
       <use xlink:href="#TimesNewRomanPSMT-2e" x="50"/>
       <use xlink:href="#TimesNewRomanPSMT-31" x="75"/>
      </g>
     </g>
    </g>
    <g id="ytick_3">
     <g id="line2d_9">
      <g>
       <use xlink:href="#m1af6a17cba" x="46.797552" y="176.86855" style="stroke: #000000; stroke-width: 0.8"/>
      </g>
     </g>
     <g id="text_10">
      <!-- 0.2 -->
      <g transform="translate(24.547552 182.076363) scale(0.15 -0.15)">
       <use xlink:href="#TimesNewRomanPSMT-30"/>
       <use xlink:href="#TimesNewRomanPSMT-2e" x="50"/>
       <use xlink:href="#TimesNewRomanPSMT-32" x="75"/>
      </g>
     </g>
    </g>
    <g id="ytick_4">
     <g id="line2d_10">
      <g>
       <use xlink:href="#m1af6a17cba" x="46.797552" y="120.61555" style="stroke: #000000; stroke-width: 0.8"/>
      </g>
     </g>
     <g id="text_11">
      <!-- 0.3 -->
      <g transform="translate(24.547552 125.823363) scale(0.15 -0.15)">
       <use xlink:href="#TimesNewRomanPSMT-30"/>
       <use xlink:href="#TimesNewRomanPSMT-2e" x="50"/>
       <use xlink:href="#TimesNewRomanPSMT-33" x="75"/>
      </g>
     </g>
    </g>
    <g id="ytick_5">
     <g id="line2d_11">
      <g>
       <use xlink:href="#m1af6a17cba" x="46.797552" y="64.36255" style="stroke: #000000; stroke-width: 0.8"/>
      </g>
     </g>
     <g id="text_12">
      <!-- 0.4 -->
      <g transform="translate(24.547552 69.570363) scale(0.15 -0.15)">
       <use xlink:href="#TimesNewRomanPSMT-30"/>
       <use xlink:href="#TimesNewRomanPSMT-2e" x="50"/>
       <use xlink:href="#TimesNewRomanPSMT-34" x="75"/>
      </g>
     </g>
    </g>
    <g id="text_13">
     <!-- $X(t)$ -->
     <g transform="translate(11.247552 154.580937) scale(0.1 -0.1)">
      <defs>
       <path id="DejaVuSans-Oblique-58" d="M 878 4666 
L 1516 4666 
L 2316 2981 
L 3763 4666 
L 4500 4666 
L 2578 2438 
L 3738 0 
L 3103 0 
L 2163 1966 
L 459 0 
L -275 0 
L 1906 2509 
L 878 4666 
z
" transform="scale(0.015625)"/>
       <path id="DejaVuSans-28" d="M 1984 4856 
Q 1566 4138 1362 3434 
Q 1159 2731 1159 2009 
Q 1159 1288 1364 580 
Q 1569 -128 1984 -844 
L 1484 -844 
Q 1016 -109 783 600 
Q 550 1309 550 2009 
Q 550 2706 781 3412 
Q 1013 4119 1484 4856 
L 1984 4856 
z
" transform="scale(0.015625)"/>
       <path id="DejaVuSans-Oblique-74" d="M 2706 3500 
L 2619 3053 
L 1472 3053 
L 1100 1153 
Q 1081 1047 1072 975 
Q 1063 903 1063 863 
Q 1063 663 1183 572 
Q 1303 481 1569 481 
L 2150 481 
L 2053 0 
L 1503 0 
Q 991 0 739 200 
Q 488 400 488 806 
Q 488 878 497 964 
Q 506 1050 525 1153 
L 897 3053 
L 409 3053 
L 500 3500 
L 978 3500 
L 1172 4494 
L 1747 4494 
L 1556 3500 
L 2706 3500 
z
" transform="scale(0.015625)"/>
       <path id="DejaVuSans-29" d="M 513 4856 
L 1013 4856 
Q 1481 4119 1714 3412 
Q 1947 2706 1947 2009 
Q 1947 1309 1714 600 
Q 1481 -109 1013 -844 
L 513 -844 
Q 928 -128 1133 580 
Q 1338 1288 1338 2009 
Q 1338 2731 1133 3434 
Q 928 4138 513 4856 
z
" transform="scale(0.015625)"/>
      </defs>
      <use xlink:href="#DejaVuSans-Oblique-58" transform="translate(0 0.125)"/>
      <use xlink:href="#DejaVuSans-28" transform="translate(68.505859 0.125)"/>
      <use xlink:href="#DejaVuSans-Oblique-74" transform="translate(107.519531 0.125)"/>
      <use xlink:href="#DejaVuSans-29" transform="translate(146.728516 0.125)"/>
     </g>
    </g>
   </g>
   <g id="line2d_12">
    <path d="M 65.124936 283.749251 
L 65.858031 278.234028 
L 66.591127 263.437665 
L 67.324222 217.967564 
L 68.057317 269.652926 
L 68.790413 217.53796 
L 69.523508 272.074617 
L 70.256603 196.484112 
L 70.989699 264.845788 
L 71.722794 258.53698 
L 72.455889 264.135214 
L 73.188985 252.034353 
L 73.92208 268.467936 
L 74.655176 241.177495 
L 75.388271 272.101921 
L 76.121366 268.368343 
L 76.854462 269.925419 
L 77.587557 256.468424 
L 78.320652 264.497244 
L 79.053748 257.180429 
L 79.786843 252.787868 
L 80.519938 246.331434 
L 81.253034 267.482909 
L 81.986129 259.145725 
L 82.719225 243.425109 
L 83.45232 263.742698 
L 84.185415 249.797825 
L 84.918511 248.223007 
L 85.651606 252.545085 
L 86.384701 188.717596 
L 87.117797 249.066196 
L 87.850892 221.191868 
L 88.583987 231.727934 
L 89.317083 174.618416 
L 90.050178 234.528163 
L 90.783273 237.469559 
L 91.516369 239.860662 
L 92.249464 249.475976 
L 92.98256 254.008656 
L 93.715655 256.974539 
L 94.44875 257.75216 
L 95.181846 248.58194 
L 95.914941 254.445953 
L 97.381132 209.603051 
L 98.114227 254.05266 
L 98.847322 245.905363 
L 99.580418 253.759265 
L 100.313513 265.317721 
L 101.046609 270.257748 
L 102.512799 255.314759 
L 103.245895 252.363624 
L 103.97899 248.375248 
L 104.712085 257.010043 
L 105.445181 250.76301 
L 106.178276 270.818194 
L 106.911371 254.078666 
L 107.644467 254.781903 
L 108.377562 224.885434 
L 109.110657 226.635057 
L 109.843753 252.096605 
L 110.576848 238.077434 
L 111.309944 232.087113 
L 112.043039 261.049089 
L 112.776134 223.395203 
L 113.50923 266.494504 
L 114.242325 247.628091 
L 115.708516 232.706091 
L 116.441611 253.986816 
L 117.174706 227.447633 
L 117.907802 223.461926 
L 118.640897 226.615517 
L 119.373993 227.640096 
L 120.107088 229.93111 
L 120.840183 250.729699 
L 121.573279 232.756364 
L 122.306374 236.971291 
L 123.039469 257.437136 
L 123.772565 206.252408 
L 124.50566 250.868599 
L 125.238755 262.052328 
L 125.971851 223.576563 
L 126.704946 245.010681 
L 127.438042 221.677492 
L 128.171137 253.784663 
L 128.904232 253.111703 
L 129.637328 220.600158 
L 130.370423 249.866564 
L 131.103518 243.365465 
L 131.836614 245.58911 
L 132.569709 240.819204 
L 133.302804 249.434747 
L 134.0359 224.555857 
L 135.50209 256.118676 
L 136.235186 219.656335 
L 136.968281 205.842335 
L 137.701377 235.921976 
L 138.434472 192.984388 
L 139.167567 263.336337 
L 139.900663 235.569837 
L 140.633758 252.253086 
L 141.366853 257.11723 
L 142.099949 247.819749 
L 142.833044 256.980975 
L 143.566139 245.274562 
L 144.299235 184.577318 
L 145.03233 254.817396 
L 145.765426 239.403807 
L 146.498521 247.043724 
L 147.231616 231.485353 
L 147.964712 180.320996 
L 148.697807 194.781422 
L 149.430902 223.210774 
L 150.163998 200.883479 
L 150.897093 224.957036 
L 152.363284 256.199543 
L 153.096379 159.93569 
L 153.829474 236.731895 
L 154.56257 242.09683 
L 155.295665 138.712166 
L 156.028761 245.714677 
L 156.761856 237.897729 
L 157.494951 248.762298 
L 158.228047 253.811416 
L 158.961142 251.341745 
L 159.694237 249.71419 
L 160.427333 212.709919 
L 161.160428 246.452257 
L 161.893523 249.113913 
L 162.626619 193.139671 
L 163.359714 215.415868 
L 164.09281 252.999463 
L 164.825905 248.298625 
L 165.559 237.961561 
L 166.292096 210.376549 
L 167.025191 242.047768 
L 167.758286 214.350446 
L 168.491382 191.512992 
L 169.224477 245.457574 
L 169.957572 253.338861 
L 170.690668 252.495915 
L 171.423763 256.712968 
L 172.156858 263.449542 
L 173.623049 206.70498 
L 174.356145 186.946313 
L 175.08924 244.116046 
L 175.822335 234.161166 
L 177.288526 258.373912 
L 178.021621 190.869521 
L 178.754717 255.762118 
L 179.487812 229.431668 
L 180.220907 263.061454 
L 180.954003 240.961088 
L 181.687098 259.370188 
L 182.420194 250.759963 
L 183.153289 257.91124 
L 183.886384 255.61843 
L 184.61948 257.831886 
L 185.352575 263.405478 
L 186.08567 270.533404 
L 186.818766 240.99375 
L 187.551861 270.880854 
L 188.284956 264.752005 
L 189.018052 271.850055 
L 189.751147 248.30194 
L 190.484242 258.659033 
L 191.217338 225.864849 
L 191.950433 224.833907 
L 192.683529 241.910083 
L 193.416624 196.140335 
L 194.149719 241.846524 
L 194.882815 209.468372 
L 195.61591 227.368726 
L 196.349005 254.881714 
L 197.082101 259.894286 
L 197.815196 258.71895 
L 198.548291 255.359334 
L 199.281387 253.498783 
L 200.014482 186.760259 
L 200.747578 257.550336 
L 201.480673 199.519629 
L 202.213768 265.847766 
L 202.946864 264.161451 
L 203.679959 256.248406 
L 204.413054 253.342922 
L 205.14615 249.772573 
L 205.879245 266.458314 
L 206.61234 256.25412 
L 207.345436 259.690542 
L 208.078531 261.287678 
L 208.811626 257.217125 
L 209.544722 257.692984 
L 210.277817 260.299552 
L 211.010913 251.188293 
L 211.744008 239.960445 
L 212.477103 158.849539 
L 213.210199 212.470804 
L 213.943294 198.698695 
L 214.676389 236.099417 
L 215.409485 231.880539 
L 216.14258 249.100857 
L 216.875675 193.738138 
L 218.341866 262.907867 
L 219.074962 238.574092 
L 219.808057 235.479492 
L 220.541152 210.648372 
L 222.007343 248.849978 
L 222.740438 250.010116 
L 223.473534 203.233463 
L 224.206629 192.274462 
L 224.939724 248.490715 
L 225.67282 244.476952 
L 226.405915 194.864717 
L 227.13901 217.74031 
L 227.872106 213.479352 
L 228.605201 205.829401 
L 229.338297 192.961052 
L 230.071392 224.213932 
L 230.804487 226.124542 
L 231.537583 245.805852 
L 232.270678 228.662542 
L 233.003773 229.706568 
L 233.736869 249.641712 
L 234.469964 242.617424 
L 235.203059 259.455321 
L 235.936155 246.636979 
L 236.66925 266.125268 
L 237.402346 186.444118 
L 238.135441 233.831401 
L 238.868536 226.126667 
L 239.601632 198.127379 
L 240.334727 239.951983 
L 241.067822 244.728531 
L 241.800918 251.421767 
L 242.534013 241.800664 
L 243.267108 239.991975 
L 244.000204 257.229742 
L 244.733299 248.624551 
L 245.466394 259.796231 
L 246.19949 247.401449 
L 246.932585 240.086398 
L 247.665681 253.646141 
L 248.398776 156.979336 
L 249.131871 250.177189 
L 249.864967 221.499551 
L 250.598062 238.57159 
L 251.331157 165.04604 
L 252.064253 260.282588 
L 252.797348 219.012198 
L 253.530443 260.569042 
L 254.263539 257.850646 
L 254.996634 269.956254 
L 255.72973 261.52819 
L 256.462825 257.595355 
L 257.19592 263.334205 
L 257.929016 238.53071 
L 258.662111 218.016827 
L 259.395206 243.123764 
L 260.128302 242.766537 
L 260.861397 188.431775 
L 261.594492 261.183261 
L 262.327588 209.437064 
L 263.060683 238.200961 
L 263.793779 253.008772 
L 265.259969 229.083709 
L 265.993065 257.935018 
L 266.72616 204.779218 
L 267.459255 245.67124 
L 268.192351 241.465111 
L 268.925446 263.292 
L 269.658541 263.499438 
L 270.391637 240.76422 
L 271.124732 270.300955 
L 271.857827 253.337674 
L 272.590923 264.374109 
L 273.324018 236.39982 
L 274.057114 246.589966 
L 274.790209 244.42224 
L 275.523304 228.695354 
L 276.2564 260.421974 
L 276.989495 257.92909 
L 277.72259 252.210487 
L 278.455686 233.561958 
L 279.188781 240.419211 
L 279.921876 254.046243 
L 280.654972 227.885125 
L 281.388067 235.307109 
L 282.121163 247.29431 
L 282.854258 227.244005 
L 283.587353 248.560175 
L 284.320449 234.194654 
L 285.053544 225.963618 
L 285.786639 241.890335 
L 286.519735 249.919909 
L 287.25283 253.444826 
L 287.985925 260.453338 
L 288.719021 240.865819 
L 290.185211 259.090351 
L 290.918307 262.234674 
L 291.651402 242.786223 
L 292.384498 245.870614 
L 293.117593 250.535886 
L 293.850688 196.564473 
L 294.583784 200.697651 
L 295.316879 258.398508 
L 296.049974 229.773652 
L 296.78307 233.942844 
L 297.516165 223.12237 
L 298.24926 246.218632 
L 298.982356 172.24072 
L 299.715451 169.606835 
L 300.448547 227.694581 
L 301.181642 243.402217 
L 301.914737 252.913989 
L 302.647833 252.457679 
L 303.380928 235.333086 
L 304.114023 261.125475 
L 304.847119 199.798971 
L 305.580214 231.570521 
L 306.313309 247.571355 
L 307.046405 216.448657 
L 307.7795 235.360576 
L 308.512595 232.196947 
L 309.245691 215.870929 
L 309.978786 259.481943 
L 310.711882 259.540704 
L 311.444977 253.354142 
L 312.178072 242.927148 
L 312.911168 251.498717 
L 313.644263 183.599199 
L 314.377358 259.876941 
L 315.110454 218.722956 
L 315.843549 244.763922 
L 316.576644 250.381052 
L 317.30974 252.935384 
L 318.042835 254.83595 
L 318.775931 238.526963 
L 319.509026 258.088782 
L 320.242121 192.090285 
L 320.975217 258.75945 
L 321.708312 239.583072 
L 322.441407 255.728748 
L 323.174503 261.075332 
L 323.907598 269.1707 
L 324.640693 251.640466 
L 325.373789 226.951641 
L 326.106884 252.453957 
L 326.839979 214.65128 
L 327.573075 259.352646 
L 328.30617 207.278525 
L 329.039266 202.0172 
L 329.772361 254.173655 
L 330.505456 229.946077 
L 331.238552 200.834149 
L 331.971647 233.767389 
L 332.704742 254.081415 
L 333.437838 220.938273 
L 334.170933 258.852429 
L 334.904028 260.607605 
L 335.637124 251.583814 
L 336.370219 263.915004 
L 337.103315 207.10382 
L 337.83641 243.905913 
L 338.569505 220.558004 
L 339.302601 240.292294 
L 340.035696 256.256824 
L 340.768791 260.021096 
L 341.501887 230.323643 
L 342.234982 253.126821 
L 342.968077 233.123943 
L 343.701173 258.670727 
L 344.434268 251.324297 
L 345.167363 252.62346 
L 345.900459 250.984795 
L 346.633554 230.95726 
L 347.36665 249.772849 
L 348.099745 199.856281 
L 348.83284 191.215846 
L 349.565936 212.640673 
L 351.032126 219.474078 
L 351.765222 247.19034 
L 352.498317 237.568806 
L 353.231412 257.040951 
L 353.964508 240.621067 
L 354.697603 216.618919 
L 355.430699 258.301453 
L 356.163794 251.266953 
L 356.896889 252.04017 
L 357.629985 252.119681 
L 358.36308 260.82133 
L 359.096175 257.383437 
L 359.829271 180.32222 
L 360.562366 200.935525 
L 361.295461 238.181757 
L 362.028557 172.191399 
L 362.761652 229.178903 
L 363.494747 205.289519 
L 364.227843 240.272222 
L 364.960938 235.599984 
L 365.694034 138.859209 
L 366.427129 217.933121 
L 367.160224 206.254193 
L 367.89332 259.31508 
L 369.35951 194.366487 
L 370.092606 248.766368 
L 370.825701 225.303638 
L 371.558796 235.18064 
L 372.291892 236.595141 
L 373.024987 256.944235 
L 373.758083 248.981577 
L 374.491178 258.539864 
L 375.224273 240.955003 
L 375.957369 255.173518 
L 376.690464 250.289491 
L 377.423559 265.876017 
L 378.156655 247.542809 
L 378.88975 264.66562 
L 379.622845 237.008839 
L 380.355941 187.534545 
L 381.089036 208.432783 
L 381.822131 210.356465 
L 382.555227 252.534297 
L 383.288322 256.903945 
L 384.021418 190.631278 
L 384.754513 215.245287 
L 385.487608 234.503548 
L 386.220704 247.769422 
L 386.953799 220.02909 
L 387.686894 246.111003 
L 388.41999 255.178726 
L 389.153085 248.078072 
L 389.88618 242.603031 
L 390.619276 259.051128 
L 392.085467 241.094606 
L 392.818562 237.868672 
L 393.551657 236.67365 
L 394.284753 163.949436 
L 395.017848 252.659379 
L 395.750943 226.887893 
L 396.484039 253.723388 
L 397.217134 263.080235 
L 397.950229 260.177867 
L 398.683325 259.497084 
L 399.41642 256.098718 
L 400.149516 271.766737 
L 400.882611 260.148717 
L 401.615706 240.097438 
L 402.348802 172.231424 
L 403.081897 237.731151 
L 403.814992 211.765404 
L 404.548088 214.582067 
L 405.281183 251.056514 
L 406.014278 228.680367 
L 406.747374 256.999301 
L 407.480469 230.868604 
L 408.213564 191.567067 
L 408.94666 214.901242 
L 409.679755 229.73622 
L 410.412851 226.784564 
L 411.145946 233.435682 
L 411.879041 256.721841 
L 412.612137 229.925448 
L 413.345232 243.057372 
L 414.078327 227.28683 
L 414.811423 240.563979 
L 415.544518 226.229904 
L 416.277613 244.012004 
L 417.010709 258.098464 
L 417.743804 253.031538 
L 418.4769 260.591062 
L 419.209995 251.372064 
L 419.94309 224.58076 
L 420.676186 234.818774 
L 422.142376 221.006933 
L 422.875472 236.820522 
L 423.608567 237.473092 
L 424.341662 201.016524 
L 425.074758 233.318778 
L 425.807853 234.801067 
L 426.540948 242.148591 
L 427.274044 242.91089 
L 428.007139 213.193673 
L 428.740235 253.501625 
L 429.47333 157.928888 
L 430.206425 238.704409 
L 430.939521 228.59669 
L 431.672616 250.867756 
L 431.672616 250.867756 
" clip-path="url(#pba26bbcec5)" style="fill: none; stroke: #1f77b4; stroke-width: 1.5; stroke-linecap: square"/>
   </g>
   <g id="line2d_13">
    <path d="M 65.124936 283.749251 
L 65.858031 280.888858 
L 66.591127 205.245554 
L 67.324222 236.095318 
L 68.057317 211.52385 
L 68.790413 232.214525 
L 69.523508 221.449915 
L 70.256603 214.767241 
L 70.989699 158.01122 
L 71.722794 181.008835 
L 72.455889 221.803566 
L 73.188985 207.122345 
L 73.92208 210.50096 
L 74.655176 233.009599 
L 75.388271 228.269686 
L 76.121366 226.953779 
L 76.854462 253.401938 
L 77.587557 149.385563 
L 78.320652 214.425116 
L 79.053748 223.283215 
L 79.786843 234.583327 
L 80.519938 206.36453 
L 81.253034 243.876713 
L 81.986129 217.187259 
L 82.719225 225.626773 
L 83.45232 216.498783 
L 84.185415 229.154732 
L 84.918511 206.864236 
L 85.651606 211.920796 
L 86.384701 225.942151 
L 87.117797 178.572572 
L 87.850892 211.390814 
L 88.583987 190.959112 
L 89.317083 210.568673 
L 90.050178 172.585168 
L 90.783273 204.831935 
L 91.516369 165.237208 
L 92.249464 198.352009 
L 92.98256 204.320888 
L 93.715655 219.390212 
L 94.44875 193.630718 
L 95.181846 236.64046 
L 95.914941 218.953538 
L 96.648036 225.502165 
L 97.381132 211.136745 
L 98.114227 204.718522 
L 98.847322 214.645563 
L 99.580418 183.936119 
L 100.313513 225.526097 
L 101.046609 237.568663 
L 101.779704 241.972645 
L 102.512799 202.530921 
L 103.245895 194.194523 
L 103.97899 224.498098 
L 104.712085 226.615199 
L 105.445181 168.889976 
L 106.178276 205.74992 
L 106.911371 208.340468 
L 107.644467 180.091638 
L 108.377562 224.571506 
L 109.110657 190.440035 
L 109.843753 189.159262 
L 110.576848 217.063486 
L 111.309944 147.38297 
L 112.043039 211.298214 
L 112.776134 205.049784 
L 113.50923 215.987401 
L 114.242325 230.806495 
L 114.97542 183.431535 
L 115.708516 212.659189 
L 116.441611 180.361407 
L 117.174706 215.02758 
L 117.907802 199.992326 
L 118.640897 206.107779 
L 119.373993 171.291327 
L 120.107088 145.438063 
L 120.840183 147.777678 
L 121.573279 199.726044 
L 122.306374 198.775419 
L 123.039469 203.891125 
L 123.772565 193.377487 
L 124.50566 198.82744 
L 125.238755 200.665555 
L 125.971851 227.832081 
L 126.704946 191.983661 
L 127.438042 163.097806 
L 128.171137 188.874145 
L 128.904232 194.018443 
L 129.637328 194.063725 
L 130.370423 170.659122 
L 131.103518 214.147484 
L 131.836614 206.246566 
L 132.569709 215.909898 
L 133.302804 210.647182 
L 134.0359 228.728393 
L 134.768995 195.803155 
L 135.50209 204.89839 
L 136.235186 211.705856 
L 136.968281 169.861415 
L 137.701377 115.635707 
L 138.434472 212.54363 
L 139.167567 167.357582 
L 139.900663 210.836925 
L 140.633758 172.292984 
L 141.366853 223.518738 
L 142.099949 220.705529 
L 143.566139 233.667471 
L 144.299235 197.723585 
L 145.03233 200.426876 
L 145.765426 217.250026 
L 146.498521 203.261074 
L 147.231616 211.614723 
L 147.964712 211.751909 
L 148.697807 190.079703 
L 149.430902 187.99912 
L 150.163998 180.684262 
L 150.897093 187.43637 
L 151.630188 196.909885 
L 152.363284 203.682656 
L 153.096379 191.453779 
L 153.829474 162.056768 
L 154.56257 176.935666 
L 155.295665 210.496887 
L 156.028761 153.334514 
L 156.761856 218.356103 
L 157.494951 189.221618 
L 158.228047 234.295041 
L 158.961142 204.854827 
L 159.694237 140.454337 
L 160.427333 197.013742 
L 161.160428 178.957715 
L 161.893523 207.886413 
L 162.626619 209.760782 
L 163.359714 201.611034 
L 164.825905 209.077 
L 165.559 150.402058 
L 166.292096 218.448485 
L 167.025191 188.747471 
L 167.758286 126.958803 
L 168.491382 194.694036 
L 169.224477 170.626657 
L 169.957572 203.044323 
L 170.690668 209.500812 
L 171.423763 213.060838 
L 172.156858 202.171276 
L 172.889954 226.054172 
L 173.623049 199.898805 
L 174.356145 154.64942 
L 175.08924 197.810962 
L 175.822335 205.281858 
L 176.555431 208.45529 
L 177.288526 101.259456 
L 178.021621 215.991199 
L 178.754717 162.240602 
L 179.487812 215.844625 
L 180.220907 197.834299 
L 180.954003 232.981967 
L 181.687098 170.334515 
L 182.420194 216.670982 
L 183.153289 185.77063 
L 183.886384 234.827366 
L 184.61948 175.595664 
L 185.352575 230.584946 
L 186.08567 214.595437 
L 186.818766 245.521925 
L 187.551861 227.432449 
L 188.284956 221.771881 
L 189.018052 253.590662 
L 189.751147 242.825784 
L 190.484242 243.622598 
L 191.217338 192.969728 
L 191.950433 207.560616 
L 192.683529 213.30494 
L 193.416624 216.79323 
L 194.149719 199.609873 
L 194.882815 216.06503 
L 195.61591 206.379686 
L 196.349005 224.085485 
L 197.082101 234.728681 
L 197.815196 237.783553 
L 198.548291 223.211738 
L 199.281387 182.29296 
L 200.014482 220.854068 
L 200.747578 188.062926 
L 201.480673 224.1806 
L 202.213768 146.233733 
L 202.946864 243.525346 
L 203.679959 218.418442 
L 204.413054 213.111182 
L 205.14615 205.334272 
L 205.879245 234.199541 
L 206.61234 236.385729 
L 207.345436 242.746462 
L 208.078531 233.447506 
L 208.811626 232.097055 
L 209.544722 240.365317 
L 210.277817 213.406249 
L 211.010913 233.950753 
L 211.744008 216.371908 
L 212.477103 187.726911 
L 213.210199 107.079792 
L 213.943294 161.106394 
L 214.676389 143.239893 
L 215.409485 183.061873 
L 216.14258 201.721002 
L 216.875675 209.278613 
L 217.608771 205.308589 
L 218.341866 224.045698 
L 219.074962 232.933957 
L 219.808057 212.905169 
L 220.541152 209.570444 
L 221.274248 210.105531 
L 222.007343 180.873426 
L 222.740438 192.314664 
L 223.473534 160.237647 
L 224.206629 174.637293 
L 224.939724 145.46544 
L 225.67282 210.821602 
L 226.405915 166.43482 
L 227.13901 180.810617 
L 227.872106 183.584538 
L 228.605201 161.394152 
L 229.338297 154.169287 
L 230.071392 151.438368 
L 230.804487 164.227504 
L 231.537583 56.219546 
L 232.270678 176.635654 
L 233.003773 152.60789 
L 233.736869 210.394345 
L 234.469964 191.682484 
L 235.203059 192.733999 
L 235.936155 188.809869 
L 236.66925 190.680147 
L 237.402346 77.907335 
L 238.135441 158.498377 
L 238.868536 171.238057 
L 239.601632 175.959726 
L 240.334727 124.065954 
L 241.067822 206.817731 
L 241.800918 132.269291 
L 242.534013 202.553512 
L 243.267108 208.664371 
L 244.000204 218.926681 
L 244.733299 213.442143 
L 245.466394 216.1681 
L 246.19949 204.61697 
L 246.932585 177.629926 
L 247.665681 174.77354 
L 248.398776 154.548563 
L 249.131871 166.118118 
L 249.864967 204.178724 
L 250.598062 190.358592 
L 251.331157 183.669049 
L 252.064253 167.258109 
L 252.797348 219.463214 
L 253.530443 176.244768 
L 254.263539 236.358268 
L 254.996634 233.684617 
L 255.72973 204.300175 
L 256.462825 243.013842 
L 257.19592 177.312185 
L 257.929016 208.658687 
L 258.662111 125.675566 
L 259.395206 211.38042 
L 260.128302 131.754514 
L 260.861397 221.905018 
L 261.594492 133.068849 
L 262.327588 230.505477 
L 263.060683 179.732479 
L 263.793779 178.627317 
L 264.526874 178.286432 
L 265.259969 189.215432 
L 265.993065 168.336498 
L 266.72616 196.962677 
L 267.459255 167.695148 
L 268.192351 211.007539 
L 268.925446 172.811827 
L 269.658541 236.459523 
L 270.391637 204.102151 
L 271.124732 241.357477 
L 271.857827 243.21097 
L 272.590923 219.779225 
L 273.324018 223.239505 
L 274.057114 221.195402 
L 274.790209 223.387856 
L 275.523304 215.259696 
L 276.2564 204.16703 
L 276.989495 240.823622 
L 277.72259 220.844345 
L 278.455686 190.31632 
L 279.188781 115.461672 
L 279.921876 152.40093 
L 280.654972 199.712004 
L 281.388067 127.416211 
L 282.121163 188.026815 
L 282.854258 180.282202 
L 283.587353 190.784751 
L 284.320449 221.332893 
L 285.053544 142.596413 
L 285.786639 215.964735 
L 286.519735 204.386765 
L 287.25283 232.95837 
L 287.985925 224.142137 
L 288.719021 227.506368 
L 289.452116 179.8971 
L 290.185211 188.732047 
L 291.651402 224.432242 
L 292.384498 214.804425 
L 293.117593 213.506125 
L 293.850688 228.410941 
L 294.583784 188.772282 
L 295.316879 186.193729 
L 296.049974 164.711249 
L 296.78307 207.571765 
L 297.516165 190.141405 
L 298.24926 201.080666 
L 298.982356 194.035359 
L 299.715451 160.888705 
L 300.448547 158.885281 
L 301.181642 172.062377 
L 301.914737 204.27875 
L 302.647833 201.055778 
L 303.380928 218.257803 
L 304.114023 220.225157 
L 304.847119 170.218319 
L 305.580214 169.931257 
L 306.313309 193.215951 
L 307.046405 177.924432 
L 307.7795 187.808857 
L 308.512595 203.960925 
L 309.245691 206.6601 
L 309.978786 213.680059 
L 310.711882 170.011049 
L 311.444977 220.509319 
L 312.178072 207.738439 
L 312.911168 217.03714 
L 313.644263 219.290244 
L 314.377358 172.904309 
L 315.110454 215.843384 
L 315.843549 198.373041 
L 316.576644 226.427568 
L 317.30974 199.927447 
L 318.042835 210.284981 
L 318.775931 191.011828 
L 319.509026 203.645547 
L 320.242121 112.382433 
L 320.975217 174.376862 
L 321.708312 201.879344 
L 322.441407 201.013833 
L 323.174503 190.461896 
L 323.907598 228.246706 
L 324.640693 226.875232 
L 325.373789 215.215043 
L 326.106884 134.473916 
L 326.839979 186.647675 
L 327.573075 142.308731 
L 328.30617 208.259797 
L 329.039266 159.223576 
L 329.772361 208.85268 
L 330.505456 210.441756 
L 332.704742 170.647487 
L 333.437838 203.384898 
L 334.170933 189.270823 
L 334.904028 198.957559 
L 335.637124 213.442268 
L 336.370219 162.027757 
L 337.103315 211.710651 
L 337.83641 188.332745 
L 338.569505 203.150318 
L 339.302601 145.386177 
L 340.035696 226.563094 
L 340.768791 206.237353 
L 341.501887 231.191803 
L 342.234982 209.872209 
L 342.968077 228.808499 
L 343.701173 175.059009 
L 344.434268 236.03823 
L 345.167363 202.165333 
L 345.900459 234.958286 
L 347.36665 208.774431 
L 348.83284 169.369313 
L 349.565936 161.131055 
L 350.299031 161.424395 
L 351.032126 176.699913 
L 351.765222 138.891984 
L 352.498317 210.125247 
L 353.231412 202.598542 
L 353.964508 203.500432 
L 354.697603 220.724573 
L 355.430699 185.315275 
L 356.163794 226.547796 
L 356.896889 214.542334 
L 357.629985 235.763126 
L 358.36308 233.698477 
L 359.829271 197.533096 
L 360.562366 137.597867 
L 361.295461 170.248621 
L 362.028557 141.452122 
L 362.761652 145.547386 
L 363.494747 162.172654 
L 364.227843 143.886943 
L 364.960938 202.60907 
L 365.694034 176.734716 
L 366.427129 166.935087 
L 367.89332 199.961613 
L 368.626415 196.533392 
L 369.35951 172.300143 
L 370.092606 171.831477 
L 370.825701 168.405418 
L 371.558796 131.323225 
L 372.291892 198.134655 
L 373.024987 157.352124 
L 373.758083 178.073009 
L 374.491178 170.098669 
L 375.224273 211.551931 
L 375.957369 135.907298 
L 376.690464 223.592129 
L 377.423559 187.987133 
L 378.156655 229.723445 
L 378.88975 188.371086 
L 379.622845 229.606654 
L 380.355941 128.506118 
L 381.822131 186.429877 
L 382.555227 171.983139 
L 383.288322 220.946228 
L 384.021418 180.946763 
L 384.754513 166.326268 
L 385.487608 196.938888 
L 386.220704 209.666715 
L 386.953799 186.336195 
L 387.686894 195.671342 
L 388.41999 211.800484 
L 389.153085 221.260369 
L 389.88618 214.851199 
L 390.619276 205.701763 
L 391.352371 225.286714 
L 392.085467 178.182541 
L 392.818562 204.280997 
L 393.551657 189.323514 
L 394.284753 197.237341 
L 395.017848 165.393069 
L 395.750943 216.156037 
L 396.484039 206.3365 
L 397.217134 226.782804 
L 397.950229 234.528125 
L 398.683325 237.532665 
L 399.41642 232.908747 
L 400.149516 180.857315 
L 400.882611 247.220621 
L 401.615706 211.609761 
L 402.348802 214.6092 
L 403.081897 167.771452 
L 403.814992 190.665093 
L 404.548088 179.083602 
L 405.281183 209.098903 
L 406.014278 221.752987 
L 406.747374 163.313442 
L 407.480469 209.719717 
L 408.94666 140.736101 
L 409.679755 181.969569 
L 410.412851 188.702315 
L 411.145946 210.492804 
L 411.879041 219.681667 
L 412.612137 211.141808 
L 413.345232 197.782504 
L 414.078327 210.626142 
L 414.811423 196.195424 
L 415.544518 207.818122 
L 416.277613 199.510098 
L 417.010709 209.353995 
L 417.743804 233.765867 
L 418.4769 198.859611 
L 419.209995 222.025066 
L 419.94309 175.682069 
L 420.676186 197.380914 
L 421.409281 200.000608 
L 422.142376 192.935226 
L 422.875472 171.961948 
L 423.608567 211.107951 
L 424.341662 193.106745 
L 425.074758 160.852116 
L 425.807853 191.327063 
L 426.540948 180.699844 
L 427.274044 203.570182 
L 428.007139 179.798826 
L 428.740235 203.877512 
L 429.47333 212.281698 
L 430.206425 93.116691 
L 430.939521 212.576196 
L 431.672616 129.646403 
L 431.672616 129.646403 
" clip-path="url(#pba26bbcec5)" style="fill: none; stroke: #ff7f0e; stroke-width: 1.5; stroke-linecap: square"/>
   </g>
   <g id="line2d_14">
    <path d="M 65.124936 283.749251 
L 65.858031 269.626578 
L 66.591127 259.704975 
L 67.324222 238.181266 
L 68.057317 259.396364 
L 68.790413 241.725148 
L 69.523508 259.71109 
L 70.256603 188.364464 
L 70.989699 228.927353 
L 71.722794 212.343937 
L 72.455889 222.277923 
L 73.188985 241.046362 
L 73.92208 226.870383 
L 74.655176 242.509183 
L 75.388271 253.312087 
L 76.121366 251.631242 
L 76.854462 216.075676 
L 77.587557 203.674659 
L 78.320652 216.465204 
L 79.053748 249.068426 
L 79.786843 235.146629 
L 80.519938 261.74646 
L 81.253034 185.218837 
L 81.986129 265.380519 
L 82.719225 216.874229 
L 83.45232 256.126168 
L 84.185415 252.788769 
L 84.918511 215.132502 
L 85.651606 246.50932 
L 86.384701 206.218351 
L 87.117797 240.680376 
L 87.850892 225.515619 
L 88.583987 236.401383 
L 90.050178 228.352382 
L 91.516369 212.214757 
L 92.249464 193.92032 
L 92.98256 216.348211 
L 93.715655 207.335827 
L 94.44875 247.926214 
L 95.181846 232.415169 
L 95.914941 232.863776 
L 96.648036 252.429929 
L 97.381132 234.874693 
L 98.114227 247.68541 
L 98.847322 237.831471 
L 99.580418 250.438022 
L 100.313513 229.030879 
L 101.046609 256.978919 
L 101.779704 254.640642 
L 102.512799 257.852213 
L 103.245895 238.39103 
L 103.97899 238.037802 
L 104.712085 252.80231 
L 105.445181 255.446992 
L 106.911371 189.08994 
L 107.644467 244.765762 
L 108.377562 226.065296 
L 109.110657 186.781139 
L 109.843753 231.897919 
L 110.576848 217.516912 
L 111.309944 239.371392 
L 112.043039 210.359433 
L 112.776134 237.216353 
L 113.50923 240.206555 
L 114.242325 221.375505 
L 114.97542 244.199802 
L 115.708516 218.134406 
L 116.441611 214.429282 
L 117.174706 224.747339 
L 117.907802 237.895218 
L 118.640897 180.734681 
L 119.373993 201.663063 
L 120.107088 151.448762 
L 120.840183 203.099337 
L 121.573279 203.821669 
L 122.306374 236.115344 
L 123.039469 223.471696 
L 123.772565 242.253311 
L 125.238755 225.988212 
L 125.971851 232.893411 
L 126.704946 211.107868 
L 127.438042 205.781186 
L 128.171137 220.617501 
L 128.904232 225.719805 
L 129.637328 154.78228 
L 130.370423 226.747183 
L 131.103518 202.88583 
L 131.836614 237.652164 
L 132.569709 223.73403 
L 133.302804 242.130527 
L 134.0359 241.61471 
L 134.768995 258.881191 
L 136.235186 200.680744 
L 136.968281 174.792048 
L 137.701377 228.396117 
L 138.434472 201.455172 
L 139.167567 249.345027 
L 139.900663 206.885946 
L 140.633758 229.879546 
L 141.366853 222.517617 
L 142.099949 242.856581 
L 142.833044 248.775857 
L 143.566139 241.599392 
L 144.299235 254.327632 
L 145.03233 240.58454 
L 145.765426 204.906194 
L 146.498521 233.977379 
L 147.231616 227.596768 
L 147.964712 242.987228 
L 148.697807 245.394128 
L 149.430902 210.041012 
L 150.163998 236.19169 
L 150.897093 206.371798 
L 151.630188 232.759801 
L 152.363284 238.092443 
L 153.096379 217.212834 
L 153.829474 191.59524 
L 154.56257 219.011527 
L 155.295665 208.581285 
L 156.028761 239.991284 
L 156.761856 215.30973 
L 157.494951 253.681845 
L 158.228047 237.362692 
L 158.961142 133.196177 
L 159.694237 208.788144 
L 160.427333 193.283403 
L 161.160428 207.346724 
L 161.893523 227.33484 
L 162.626619 241.908336 
L 163.359714 240.37263 
L 164.09281 241.269219 
L 164.825905 240.540445 
L 165.559 232.142529 
L 166.292096 212.461743 
L 167.025191 124.675652 
L 167.758286 225.998807 
L 168.491382 203.854519 
L 169.224477 203.860882 
L 169.957572 198.598786 
L 170.690668 221.713867 
L 172.156858 240.953104 
L 172.889954 231.422678 
L 173.623049 242.794564 
L 174.356145 241.736854 
L 175.08924 219.015525 
L 175.822335 227.083822 
L 176.555431 189.2342 
L 177.288526 239.605407 
L 178.021621 190.760727 
L 178.754717 251.865403 
L 179.487812 193.792422 
L 180.220907 251.474944 
L 180.954003 215.342472 
L 181.687098 253.615176 
L 182.420194 186.101515 
L 183.153289 251.60726 
L 183.886384 232.79437 
L 184.61948 259.900992 
L 185.352575 221.398229 
L 186.08567 255.330012 
L 186.818766 236.149426 
L 187.551861 263.618514 
L 188.284956 256.781045 
L 189.018052 247.095208 
L 189.751147 262.858425 
L 190.484242 194.892337 
L 191.217338 251.224773 
L 191.950433 234.184771 
L 192.683529 228.118104 
L 193.416624 230.613571 
L 194.149719 244.816022 
L 194.882815 242.975937 
L 195.61591 250.873343 
L 196.349005 244.495288 
L 197.082101 245.579319 
L 197.815196 227.102687 
L 198.548291 217.089789 
L 199.281387 234.78312 
L 200.014482 218.041044 
L 200.747578 230.750698 
L 201.480673 227.80965 
L 202.213768 254.20223 
L 202.946864 213.552614 
L 203.679959 248.05052 
L 204.413054 244.430442 
L 205.14615 246.955227 
L 205.879245 244.232263 
L 206.61234 248.797286 
L 207.345436 245.631042 
L 208.078531 258.705463 
L 209.544722 235.084692 
L 210.277817 257.52736 
L 211.010913 229.818061 
L 211.744008 248.527668 
L 212.477103 177.628367 
L 213.210199 181.052976 
L 213.943294 171.151224 
L 214.676389 205.061888 
L 215.409485 208.58903 
L 216.14258 221.511483 
L 216.875675 244.100501 
L 217.608771 244.311472 
L 218.341866 237.331111 
L 219.074962 253.133543 
L 219.808057 220.197885 
L 220.541152 249.700619 
L 221.274248 201.312513 
L 222.007343 242.289238 
L 222.740438 211.709243 
L 223.473534 227.756653 
L 224.206629 151.523415 
L 224.939724 215.81553 
L 225.67282 179.722999 
L 226.405915 221.734081 
L 227.13901 227.174939 
L 227.872106 217.558857 
L 228.605201 218.836696 
L 229.338297 173.554578 
L 230.071392 160.804806 
L 230.804487 24.065455 
L 231.537583 172.669134 
L 232.270678 142.853785 
L 233.003773 231.5048 
L 233.736869 216.782568 
L 234.469964 245.718499 
L 235.936155 215.727708 
L 236.66925 73.216237 
L 237.402346 226.325827 
L 238.135441 174.420249 
L 238.868536 204.142822 
L 239.601632 163.399747 
L 240.334727 217.87877 
L 241.067822 123.308759 
L 241.800918 227.586001 
L 242.534013 200.561941 
L 243.267108 231.74062 
L 244.000204 243.230865 
L 244.733299 251.753536 
L 245.466394 201.617211 
L 246.19949 225.852053 
L 246.932585 155.388709 
L 247.665681 232.356874 
L 248.398776 209.003688 
L 249.131871 215.219762 
L 249.864967 209.721854 
L 250.598062 226.309494 
L 251.331157 226.050572 
L 252.064253 235.652114 
L 252.797348 222.95264 
L 253.530443 243.707725 
L 254.263539 231.443202 
L 254.996634 164.450592 
L 255.72973 256.157508 
L 256.462825 223.898529 
L 257.19592 198.353585 
L 257.929016 209.58808 
L 258.662111 242.715669 
L 259.395206 87.113922 
L 260.128302 245.362962 
L 260.861397 190.056324 
L 261.594492 249.641121 
L 262.327588 184.713733 
L 263.060683 179.852925 
L 263.793779 224.403495 
L 264.526874 211.496457 
L 265.259969 217.33815 
L 265.993065 226.093477 
L 266.72616 177.597595 
L 267.459255 236.142637 
L 268.192351 216.557125 
L 268.925446 248.3414 
L 269.658541 222.38699 
L 270.391637 261.043896 
L 271.124732 246.187169 
L 271.857827 246.530615 
L 272.590923 252.165067 
L 273.324018 242.61866 
L 274.057114 239.876446 
L 274.790209 246.516118 
L 275.523304 207.43069 
L 276.2564 252.207905 
L 276.989495 237.603353 
L 277.72259 183.443019 
L 278.455686 229.750303 
L 279.188781 235.132869 
L 279.921876 198.818496 
L 280.654972 114.832426 
L 281.388067 234.976036 
L 282.121163 196.712489 
L 282.854258 200.335693 
L 283.587353 227.25911 
L 284.320449 223.721582 
L 285.053544 247.501241 
L 285.786639 207.518889 
L 286.519735 250.929245 
L 287.25283 246.279673 
L 287.985925 252.224955 
L 288.719021 227.186846 
L 289.452116 222.155788 
L 290.185211 200.565118 
L 290.918307 232.085713 
L 291.651402 234.204604 
L 292.384498 221.413347 
L 293.117593 250.446857 
L 293.850688 232.56904 
L 294.583784 201.137842 
L 295.316879 235.544284 
L 296.049974 215.000547 
L 296.78307 216.126423 
L 297.516165 235.746629 
L 298.24926 237.623639 
L 298.982356 191.038493 
L 299.715451 229.357024 
L 300.448547 199.057803 
L 301.181642 201.807214 
L 301.914737 224.067191 
L 302.647833 233.233483 
L 303.380928 232.49022 
L 304.114023 250.556323 
L 304.847119 205.471726 
L 305.580214 214.927109 
L 306.313309 220.979414 
L 307.046405 207.014984 
L 307.7795 220.259843 
L 308.512595 226.286502 
L 309.245691 243.134808 
L 309.978786 242.416528 
L 310.711882 248.374036 
L 311.444977 212.188017 
L 312.178072 223.799869 
L 312.911168 243.205865 
L 313.644263 195.738837 
L 314.377358 249.802992 
L 315.110454 216.420358 
L 315.843549 250.494142 
L 316.576644 220.472143 
L 317.30974 218.076895 
L 318.042835 191.579498 
L 318.775931 200.119269 
L 319.509026 227.47255 
L 320.242121 193.800092 
L 320.975217 190.813276 
L 321.708312 212.507653 
L 322.441407 239.537966 
L 323.174503 244.875118 
L 323.907598 217.904453 
L 324.640693 234.215585 
L 325.373789 254.885666 
L 326.106884 238.357333 
L 326.839979 155.62769 
L 327.573075 236.978785 
L 328.30617 195.706548 
L 329.039266 247.741965 
L 329.772361 222.719719 
L 330.505456 225.282636 
L 331.238552 213.95847 
L 331.971647 211.19154 
L 332.704742 235.261648 
L 333.437838 224.512511 
L 334.170933 222.67668 
L 334.904028 220.418894 
L 335.637124 234.566788 
L 336.370219 245.399756 
L 337.103315 203.361076 
L 337.83641 207.356992 
L 338.569505 232.448028 
L 339.302601 245.156174 
L 340.035696 214.199798 
L 340.768791 255.399957 
L 341.501887 232.780589 
L 342.234982 233.173189 
L 342.968077 230.94765 
L 343.701173 240.54407 
L 344.434268 200.792615 
L 345.167363 261.939357 
L 345.900459 238.618779 
L 346.633554 240.442455 
L 347.36665 198.568383 
L 348.099745 221.757786 
L 348.83284 233.884758 
L 349.565936 181.37651 
L 350.299031 207.072613 
L 351.032126 175.027491 
L 351.765222 221.038585 
L 352.498317 201.06857 
L 353.231412 241.297866 
L 353.964508 243.713886 
L 354.697603 220.20654 
L 355.430699 234.878771 
L 356.163794 223.351045 
L 356.896889 251.250616 
L 357.629985 244.679733 
L 358.36308 204.921417 
L 359.096175 257.294722 
L 359.829271 249.863697 
L 360.562366 197.916748 
L 361.295461 196.438562 
L 362.028557 197.600909 
L 362.761652 180.239394 
L 363.494747 170.639725 
L 364.227843 221.685778 
L 364.960938 216.456017 
L 365.694034 242.808508 
L 366.427129 214.390396 
L 367.160224 222.999103 
L 367.89332 207.491336 
L 368.626415 199.461724 
L 369.35951 189.78316 
L 370.092606 198.833626 
L 370.825701 191.496655 
L 371.558796 213.069405 
L 372.291892 173.425674 
L 373.024987 211.50276 
L 373.758083 220.687305 
L 374.491178 218.440664 
L 375.224273 173.233383 
L 375.957369 229.456908 
L 376.690464 204.935633 
L 377.423559 247.994203 
L 378.156655 190.297736 
L 378.88975 247.432707 
L 379.622845 236.281407 
L 380.355941 205.357961 
L 381.089036 202.706959 
L 381.822131 206.187965 
L 382.555227 221.922659 
L 383.288322 186.45323 
L 384.021418 203.387094 
L 384.754513 233.611791 
L 385.487608 226.908736 
L 386.220704 230.853122 
L 386.953799 213.022178 
L 387.686894 207.950412 
L 388.41999 228.600663 
L 389.153085 238.208785 
L 389.88618 251.544044 
L 390.619276 234.760551 
L 391.352371 233.485172 
L 392.085467 205.812595 
L 392.818562 203.242021 
L 393.551657 237.983212 
L 394.284753 205.792116 
L 395.017848 229.662108 
L 395.750943 221.497376 
L 396.484039 237.320437 
L 397.217134 235.760494 
L 397.950229 245.401039 
L 398.683325 261.115622 
L 399.41642 204.740458 
L 400.149516 258.473312 
L 400.882611 213.810983 
L 401.615706 254.192582 
L 402.348802 244.075035 
L 403.081897 186.876631 
L 403.814992 208.228673 
L 404.548088 235.915412 
L 405.281183 222.295526 
L 406.014278 226.524711 
L 406.747374 215.956864 
L 407.480469 218.265548 
L 408.213564 196.320773 
L 408.94666 198.104361 
L 409.679755 210.607911 
L 410.412851 228.036317 
L 411.145946 235.701704 
L 411.879041 230.822502 
L 412.612137 212.419177 
L 413.345232 248.652062 
L 414.078327 219.133239 
L 414.811423 227.770756 
L 415.544518 238.544553 
L 416.277613 214.282272 
L 417.010709 244.103531 
L 417.743804 182.446106 
L 418.4769 244.193084 
L 419.209995 194.566842 
L 419.94309 229.714879 
L 420.676186 231.706093 
L 421.409281 228.078942 
L 422.142376 210.475176 
L 422.875472 231.37852 
L 423.608567 212.06882 
L 424.341662 230.377223 
L 425.807853 205.295554 
L 426.540948 239.007707 
L 427.274044 202.143573 
L 428.007139 232.222203 
L 428.740235 223.212019 
L 429.47333 151.075261 
L 430.206425 246.945328 
L 430.939521 168.18601 
L 431.672616 241.173334 
L 431.672616 241.173334 
" clip-path="url(#pba26bbcec5)" style="fill: none; stroke: #2ca02c; stroke-width: 1.5; stroke-linecap: square"/>
   </g>
   <g id="line2d_15">
    <path d="M 65.124936 283.749251 
L 65.858031 283.644701 
L 66.591127 248.039195 
L 67.324222 263.562182 
L 68.057317 248.988362 
L 68.790413 266.159474 
L 69.523508 251.947214 
L 70.256603 241.573402 
L 70.989699 228.060722 
L 71.722794 242.800884 
L 72.455889 224.696575 
L 73.188985 248.804696 
L 73.92208 253.093371 
L 74.655176 256.435531 
L 75.388271 257.213005 
L 76.121366 263.430986 
L 76.854462 247.040991 
L 77.587557 247.161718 
L 78.320652 244.665018 
L 79.053748 253.180912 
L 79.786843 247.759681 
L 80.519938 249.531534 
L 81.253034 255.2459 
L 81.986129 248.664514 
L 82.719225 245.581997 
L 83.45232 246.144088 
L 84.185415 258.563493 
L 84.918511 247.876854 
L 85.651606 241.987846 
L 86.384701 238.273371 
L 87.117797 163.572356 
L 87.850892 192.32888 
L 88.583987 228.019217 
L 89.317083 238.533157 
L 90.050178 204.420596 
L 90.783273 226.717107 
L 91.516369 239.024288 
L 92.249464 235.624783 
L 92.98256 229.373688 
L 93.715655 239.015285 
L 94.44875 243.123106 
L 95.181846 241.189834 
L 95.914941 243.067296 
L 96.648036 253.935759 
L 97.381132 220.548791 
L 98.847322 255.285016 
L 99.580418 255.524627 
L 100.313513 251.887239 
L 101.046609 256.786766 
L 101.779704 239.244375 
L 102.512799 232.429205 
L 103.245895 209.696624 
L 103.97899 225.671522 
L 104.712085 249.204405 
L 105.445181 261.35302 
L 106.178276 227.457625 
L 106.911371 232.31005 
L 107.644467 193.447203 
L 108.377562 243.778782 
L 109.110657 228.871669 
L 109.843753 230.756461 
L 110.576848 238.268489 
L 111.309944 233.936306 
L 112.043039 247.536275 
L 112.776134 246.734189 
L 113.50923 247.84431 
L 114.242325 249.68411 
L 114.97542 239.727516 
L 115.708516 233.619088 
L 116.441611 233.149962 
L 117.174706 206.108148 
L 117.907802 232.893311 
L 118.640897 234.156975 
L 119.373993 216.855117 
L 120.107088 230.526085 
L 120.840183 201.709057 
L 121.573279 218.968224 
L 122.306374 232.924573 
L 123.039469 130.661807 
L 123.772565 221.278089 
L 124.50566 234.920498 
L 125.238755 252.231795 
L 125.971851 211.98234 
L 126.704946 226.165427 
L 127.438042 228.59902 
L 128.171137 232.5438 
L 128.904232 245.077497 
L 129.637328 227.459536 
L 130.370423 201.929571 
L 131.103518 241.945344 
L 131.836614 238.369261 
L 132.569709 233.661436 
L 133.302804 231.226455 
L 134.0359 239.068706 
L 134.768995 231.883657 
L 135.50209 233.192657 
L 136.235186 235.304938 
L 136.968281 210.283581 
L 137.701377 219.510838 
L 138.434472 240.437028 
L 139.167567 223.607871 
L 139.900663 247.210277 
L 140.633758 231.466241 
L 141.366853 238.539708 
L 142.099949 237.127135 
L 142.833044 221.493931 
L 143.566139 132.798703 
L 144.299235 226.171915 
L 145.03233 236.628348 
L 145.765426 236.031307 
L 146.498521 235.006413 
L 147.231616 245.683641 
L 147.964712 244.946531 
L 148.697807 235.056984 
L 149.430902 163.709106 
L 150.163998 221.496471 
L 150.897093 234.887673 
L 151.630188 233.322378 
L 152.363284 156.62094 
L 153.829474 210.446559 
L 154.56257 225.753518 
L 156.028761 205.408548 
L 156.761856 224.257763 
L 157.494951 229.307618 
L 158.228047 243.157109 
L 158.961142 250.944279 
L 159.694237 210.778383 
L 160.427333 226.923787 
L 161.160428 225.598587 
L 161.893523 221.725925 
L 162.626619 242.462422 
L 163.359714 222.878884 
L 164.09281 223.898605 
L 164.825905 238.953779 
L 165.559 247.372132 
L 166.292096 245.883833 
L 167.025191 234.730508 
L 167.758286 196.999794 
L 169.224477 220.213824 
L 169.957572 234.135944 
L 170.690668 232.923475 
L 171.423763 246.816772 
L 172.156858 241.968622 
L 172.889954 190.858532 
L 173.623049 200.981427 
L 174.356145 229.396182 
L 175.08924 235.578287 
L 175.822335 221.422316 
L 176.555431 238.078893 
L 177.288526 239.583265 
L 178.021621 254.143181 
L 178.754717 226.384466 
L 179.487812 242.822377 
L 180.220907 225.724113 
L 180.954003 246.621212 
L 181.687098 216.799618 
L 182.420194 231.046805 
L 183.153289 229.510613 
L 183.886384 237.483792 
L 184.61948 238.833023 
L 185.352575 260.654194 
L 186.08567 256.696029 
L 186.818766 267.6549 
L 187.551861 255.460779 
L 188.284956 268.499609 
L 189.018052 239.890712 
L 189.751147 253.85018 
L 190.484242 190.62158 
L 191.217338 218.10034 
L 191.950433 240.579054 
L 192.683529 238.195235 
L 193.416624 245.358737 
L 194.149719 224.197955 
L 194.882815 248.641194 
L 195.61591 242.595789 
L 196.349005 244.601702 
L 197.082101 252.645422 
L 197.815196 250.675381 
L 198.548291 250.086706 
L 199.281387 230.761 
L 200.014482 243.994996 
L 200.747578 230.325315 
L 201.480673 248.155513 
L 202.213768 240.505759 
L 202.946864 255.802735 
L 203.679959 240.340635 
L 204.413054 249.20619 
L 205.14615 256.416436 
L 205.879245 256.906967 
L 206.61234 259.602456 
L 207.345436 261.289524 
L 208.078531 243.9329 
L 208.811626 261.565986 
L 209.544722 255.326701 
L 210.277817 254.348896 
L 211.010913 256.72914 
L 211.744008 198.65167 
L 212.477103 159.119434 
L 213.210199 192.067711 
L 213.943294 203.025673 
L 214.676389 194.398935 
L 215.409485 228.546987 
L 216.14258 235.219405 
L 216.875675 238.476032 
L 217.608771 238.090234 
L 218.341866 249.962299 
L 219.074962 241.920012 
L 219.808057 220.59388 
L 220.541152 209.646279 
L 221.274248 237.856031 
L 222.007343 228.439802 
L 222.740438 213.896173 
L 223.473534 214.435988 
L 224.206629 215.758027 
L 224.939724 206.854621 
L 225.67282 215.997603 
L 226.405915 187.291733 
L 227.13901 188.745191 
L 227.872106 197.657657 
L 228.605201 221.090974 
L 229.338297 208.97886 
L 230.071392 213.915167 
L 230.804487 206.082833 
L 231.537583 185.294118 
L 232.270678 204.935968 
L 233.003773 216.423108 
L 233.736869 218.267795 
L 234.469964 236.434577 
L 235.203059 249.329507 
L 235.936155 251.97022 
L 236.66925 160.287196 
L 238.135441 209.670546 
L 238.868536 201.210173 
L 239.601632 209.554576 
L 240.334727 204.200887 
L 241.067822 237.141461 
L 241.800918 223.534186 
L 242.534013 243.317857 
L 243.267108 239.344933 
L 244.733299 247.293841 
L 245.466394 255.835799 
L 246.19949 224.854486 
L 246.932585 232.063349 
L 247.665681 223.770342 
L 248.398776 237.377768 
L 249.131871 211.688865 
L 249.864967 198.194421 
L 250.598062 218.538251 
L 251.331157 242.875437 
L 252.064253 185.777445 
L 252.797348 233.012667 
L 253.530443 230.92962 
L 254.263539 252.608779 
L 254.996634 249.808521 
L 255.72973 233.644638 
L 256.462825 240.837897 
L 257.19592 250.805886 
L 257.929016 213.166992 
L 258.662111 233.366926 
L 259.395206 244.790879 
L 260.128302 212.624562 
L 260.861397 247.024889 
L 261.594492 196.884914 
L 262.327588 248.407914 
L 263.060683 223.918303 
L 263.793779 217.866464 
L 264.526874 206.684443 
L 265.259969 228.782455 
L 265.993065 236.08689 
L 266.72616 218.326035 
L 267.459255 204.018394 
L 268.192351 241.457969 
L 268.925446 242.212967 
L 269.658541 253.129926 
L 270.391637 251.774991 
L 271.124732 258.507759 
L 271.857827 253.878269 
L 272.590923 204.631999 
L 273.324018 247.910555 
L 274.057114 226.000098 
L 274.790209 227.1285 
L 275.523304 235.109592 
L 276.2564 228.1104 
L 276.989495 245.572357 
L 277.72259 226.521761 
L 278.455686 191.756097 
L 279.188781 235.856141 
L 279.921876 247.692036 
L 280.654972 218.593818 
L 281.388067 207.652168 
L 282.121163 240.773265 
L 282.854258 224.622023 
L 283.587353 232.27655 
L 284.320449 179.309682 
L 285.053544 218.255892 
L 285.786639 211.26694 
L 287.25283 253.795527 
L 287.985925 256.236811 
L 288.719021 249.803013 
L 289.452116 247.222624 
L 290.185211 248.213179 
L 290.918307 202.984742 
L 291.651402 240.850098 
L 292.384498 217.415695 
L 293.117593 234.990684 
L 293.850688 238.365443 
L 294.583784 232.035105 
L 295.316879 216.21183 
L 296.049974 247.139605 
L 296.78307 241.827366 
L 297.516165 232.661966 
L 298.24926 208.219234 
L 298.982356 217.125926 
L 299.715451 211.682696 
L 300.448547 208.513337 
L 301.181642 225.170467 
L 301.914737 237.638094 
L 302.647833 207.783956 
L 303.380928 235.597327 
L 304.114023 243.389853 
L 304.847119 185.91593 
L 305.580214 217.11124 
L 306.313309 226.06841 
L 307.046405 224.602777 
L 307.7795 227.054958 
L 308.512595 235.401297 
L 309.245691 239.592095 
L 309.978786 238.22283 
L 310.711882 255.984831 
L 311.444977 246.134126 
L 312.178072 233.296879 
L 312.911168 239.450811 
L 313.644263 255.34066 
L 314.377358 149.964725 
L 315.110454 230.854229 
L 315.843549 238.030459 
L 316.576644 235.448804 
L 317.30974 243.826741 
L 318.042835 246.320155 
L 318.775931 239.353685 
L 319.509026 238.804163 
L 320.242121 235.28021 
L 320.975217 227.203107 
L 321.708312 236.887811 
L 322.441407 238.655908 
L 323.174503 254.562332 
L 323.907598 234.171183 
L 324.640693 190.021621 
L 325.373789 230.708011 
L 326.106884 248.46641 
L 326.839979 231.427523 
L 327.573075 146.781888 
L 328.30617 229.314974 
L 329.039266 229.16951 
L 329.772361 224.764724 
L 330.505456 235.416679 
L 331.238552 236.391085 
L 331.971647 223.200942 
L 332.704742 180.932136 
L 333.437838 236.917639 
L 334.170933 239.653852 
L 334.904028 230.155329 
L 335.637124 248.435014 
L 336.370219 146.616907 
L 337.103315 230.131867 
L 337.83641 226.993796 
L 338.569505 191.865646 
L 339.302601 232.920491 
L 340.035696 243.5767 
L 340.768791 244.736327 
L 341.501887 232.390399 
L 342.234982 239.331165 
L 342.968077 253.648794 
L 343.701173 250.038855 
L 344.434268 252.810907 
L 345.167363 222.616679 
L 345.900459 247.120523 
L 346.633554 242.561903 
L 347.36665 208.587521 
L 348.099745 134.00499 
L 348.83284 205.004938 
L 349.565936 189.83954 
L 350.299031 212.310232 
L 351.032126 216.960726 
L 351.765222 205.068208 
L 352.498317 236.817558 
L 353.231412 198.318623 
L 353.964508 211.419255 
L 354.697603 237.199861 
L 355.430699 232.307418 
L 356.163794 223.731092 
L 356.896889 242.641573 
L 357.629985 254.980737 
L 358.36308 230.901912 
L 359.096175 86.50471 
L 359.829271 210.722674 
L 360.562366 209.098484 
L 361.295461 222.824801 
L 362.028557 219.506245 
L 362.761652 213.297807 
L 363.494747 198.856132 
L 364.227843 187.500646 
L 364.960938 121.880541 
L 365.694034 194.494787 
L 366.427129 215.286226 
L 367.160224 231.591658 
L 367.89332 191.916284 
L 368.626415 220.629342 
L 369.35951 210.987732 
L 370.092606 214.019552 
L 370.825701 215.514695 
L 371.558796 224.723579 
L 372.291892 228.167015 
L 373.024987 215.183014 
L 373.758083 227.79522 
L 374.491178 238.234683 
L 375.224273 230.350546 
L 375.957369 224.335149 
L 376.690464 247.37714 
L 377.423559 235.617671 
L 378.156655 253.958119 
L 378.88975 190.264181 
L 379.622845 240.681927 
L 380.355941 185.62077 
L 381.089036 216.003563 
L 382.555227 230.228034 
L 383.288322 229.330016 
L 384.021418 174.31189 
L 384.754513 180.264909 
L 385.487608 229.598087 
L 386.220704 175.125196 
L 386.953799 226.435477 
L 387.686894 233.269364 
L 388.41999 214.33327 
L 389.153085 242.429307 
L 389.88618 239.496985 
L 390.619276 213.866373 
L 391.352371 220.123877 
L 392.085467 213.448664 
L 392.818562 224.992883 
L 393.551657 188.163883 
L 394.284753 222.667728 
L 395.017848 218.107834 
L 395.750943 245.634198 
L 396.484039 238.595413 
L 397.217134 254.596358 
L 397.950229 233.787737 
L 398.683325 235.613727 
L 399.41642 261.103578 
L 400.149516 232.921895 
L 400.882611 256.140799 
L 401.615706 184.821672 
L 402.348802 207.585948 
L 403.081897 222.531783 
L 404.548088 234.435672 
L 405.281183 239.227195 
L 406.014278 246.446255 
L 406.747374 182.631188 
L 407.480469 188.21722 
L 408.213564 208.561075 
L 408.94666 201.358524 
L 409.679755 171.676873 
L 410.412851 223.612201 
L 411.145946 230.624163 
L 411.879041 244.520771 
L 412.612137 202.520175 
L 413.345232 170.815461 
L 414.078327 226.675619 
L 414.811423 184.387928 
L 415.544518 232.415215 
L 416.277613 237.806843 
L 417.010709 235.840738 
L 417.743804 241.09122 
L 418.4769 240.762929 
L 419.209995 251.184295 
L 419.94309 229.207034 
L 420.676186 176.021546 
L 421.409281 178.25307 
L 422.142376 201.938021 
L 423.608567 228.240457 
L 424.341662 203.287009 
L 425.074758 226.701453 
L 425.807853 202.366744 
L 426.540948 218.990756 
L 427.274044 226.726101 
L 428.007139 237.946661 
L 428.740235 208.91616 
L 429.47333 215.326637 
L 430.206425 169.001219 
L 430.939521 222.591138 
L 431.672616 213.779222 
L 431.672616 213.779222 
" clip-path="url(#pba26bbcec5)" style="fill: none; stroke: #d62728; stroke-width: 1.5; stroke-linecap: square"/>
   </g>
   <g id="line2d_16">
    <path d="M 65.124936 283.749251 
L 65.858031 284.342596 
L 66.591127 288.563071 
L 67.324222 283.416815 
L 68.057317 289.360954 
L 68.790413 287.216303 
L 69.523508 245.590723 
L 70.256603 288.245038 
L 70.989699 289.061781 
L 71.722794 285.517062 
L 72.455889 289.153609 
L 73.188985 288.951543 
L 73.92208 284.856701 
L 74.655176 288.749101 
L 75.388271 288.509031 
L 76.121366 289.092846 
L 76.854462 286.832423 
L 77.587557 285.524661 
L 78.320652 287.267516 
L 79.053748 253.814492 
L 79.786843 289.372012 
L 80.519938 288.573559 
L 81.253034 287.605858 
L 81.986129 273.308454 
L 82.719225 289.308284 
L 83.45232 289.112949 
L 84.185415 237.889523 
L 84.918511 287.46558 
L 85.651606 256.404485 
L 86.384701 267.146591 
L 87.117797 281.943531 
L 87.850892 281.367783 
L 88.583987 275.176737 
L 89.317083 274.316183 
L 90.050178 280.154006 
L 90.783273 274.327296 
L 91.516369 264.086699 
L 92.249464 283.083942 
L 92.98256 286.94525 
L 93.715655 276.674926 
L 94.44875 278.461823 
L 95.181846 281.827345 
L 95.914941 287.546287 
L 96.648036 261.363888 
L 97.381132 288.124108 
L 98.114227 281.346146 
L 98.847322 287.337599 
L 99.580418 276.554009 
L 100.313513 288.713759 
L 101.046609 276.747027 
L 101.779704 275.426218 
L 102.512799 275.913797 
L 103.245895 288.99605 
L 103.97899 288.624121 
L 104.712085 286.850613 
L 105.445181 280.500256 
L 106.178276 288.485709 
L 106.911371 281.215359 
L 107.644467 286.37552 
L 108.377562 223.989968 
L 109.110657 280.742274 
L 109.843753 249.959545 
L 111.309944 288.489201 
L 112.043039 289.226304 
L 112.776134 287.088128 
L 113.50923 255.639183 
L 114.242325 267.645801 
L 114.97542 255.056729 
L 115.708516 277.860801 
L 116.441611 269.74614 
L 117.174706 275.634871 
L 117.907802 247.787389 
L 118.640897 245.461346 
L 119.373993 276.721349 
L 120.107088 273.368244 
L 120.840183 272.295792 
L 121.573279 286.034797 
L 122.306374 281.980126 
L 123.039469 282.119564 
L 123.772565 280.68008 
L 124.50566 289.202821 
L 125.238755 273.194572 
L 125.971851 288.022534 
L 126.704946 246.609916 
L 127.438042 287.385326 
L 128.171137 274.506196 
L 128.904232 269.474281 
L 129.637328 285.495571 
L 130.370423 289.3266 
L 131.103518 275.352983 
L 131.836614 264.72249 
L 132.569709 269.017284 
L 133.302804 280.385625 
L 134.0359 289.315251 
L 134.768995 286.06247 
L 135.50209 226.984923 
L 136.235186 253.175413 
L 136.968281 288.378511 
L 137.701377 289.359818 
L 138.434472 289.349763 
L 139.167567 253.549572 
L 140.633758 283.810595 
L 141.366853 271.28068 
L 142.099949 277.288395 
L 142.833044 288.95895 
L 143.566139 288.989512 
L 144.299235 286.00547 
L 145.03233 253.599221 
L 145.765426 267.291291 
L 146.498521 268.521183 
L 147.231616 275.550288 
L 147.964712 279.053365 
L 148.697807 232.176385 
L 149.430902 289.092383 
L 150.163998 289.203955 
L 150.897093 282.832907 
L 151.630188 283.952336 
L 152.363284 234.817815 
L 153.096379 289.307216 
L 153.829474 285.743501 
L 154.56257 273.830382 
L 155.295665 283.455088 
L 156.028761 277.52068 
L 156.761856 289.372695 
L 157.494951 285.532527 
L 158.228047 270.737466 
L 158.961142 250.936869 
L 159.694237 250.486058 
L 160.427333 269.787672 
L 161.160428 282.155524 
L 161.893523 283.915445 
L 162.626619 277.047121 
L 163.359714 283.635726 
L 164.09281 282.300819 
L 164.825905 262.640132 
L 165.559 275.004869 
L 166.292096 281.011364 
L 167.025191 267.249712 
L 167.758286 283.349908 
L 168.491382 283.572906 
L 169.224477 288.072323 
L 169.957572 288.773745 
L 170.690668 282.989138 
L 171.423763 285.410604 
L 172.156858 285.529886 
L 172.889954 261.799829 
L 173.623049 288.425778 
L 174.356145 284.787967 
L 175.08924 265.079838 
L 175.822335 270.177259 
L 176.555431 285.799317 
L 177.288526 287.594823 
L 178.021621 288.247603 
L 178.754717 289.321268 
L 179.487812 287.953927 
L 180.220907 256.2681 
L 180.954003 286.03094 
L 181.687098 284.756303 
L 182.420194 286.732701 
L 183.153289 289.20209 
L 183.886384 289.036353 
L 184.61948 288.388791 
L 185.352575 281.382466 
L 186.08567 288.1422 
L 186.818766 288.902385 
L 187.551861 288.468375 
L 188.284956 287.32613 
L 189.018052 275.77767 
L 189.751147 278.449353 
L 190.484242 261.482251 
L 191.217338 278.079485 
L 191.950433 273.474199 
L 192.683529 273.982958 
L 193.416624 282.67866 
L 194.149719 287.05654 
L 194.882815 289.045112 
L 195.61591 286.881469 
L 196.349005 275.881892 
L 197.082101 270.251285 
L 197.815196 287.638899 
L 198.548291 277.068196 
L 199.281387 269.757521 
L 200.014482 289.167307 
L 200.747578 283.116854 
L 201.480673 289.187542 
L 202.213768 289.092074 
L 202.946864 269.831847 
L 203.679959 270.606349 
L 204.413054 284.871353 
L 205.14615 285.784197 
L 205.879245 276.670455 
L 206.61234 281.51058 
L 207.345436 276.300542 
L 208.078531 285.756851 
L 208.811626 272.201711 
L 209.544722 276.549077 
L 210.277817 254.797058 
L 211.010913 273.11221 
L 211.744008 154.32488 
L 212.477103 275.68114 
L 213.210199 244.157957 
L 213.943294 269.906375 
L 214.676389 281.742793 
L 215.409485 276.581054 
L 216.14258 286.556579 
L 216.875675 288.737226 
L 217.608771 289.372919 
L 218.341866 287.97295 
L 219.074962 234.262253 
L 219.808057 288.085909 
L 220.541152 289.080355 
L 221.274248 274.678616 
L 222.007343 274.491255 
L 222.740438 267.704212 
L 223.473534 220.9451 
L 224.206629 283.094699 
L 224.939724 286.919546 
L 225.67282 243.258954 
L 226.405915 288.383725 
L 227.13901 266.638195 
L 227.872106 258.924819 
L 228.605201 207.184366 
L 229.338297 280.30795 
L 230.071392 253.034414 
L 230.804487 289.336436 
L 231.537583 275.930611 
L 232.270678 289.36608 
L 233.003773 282.873629 
L 233.736869 282.174539 
L 234.469964 285.030724 
L 235.203059 276.704801 
L 235.936155 286.869762 
L 236.66925 289.370084 
L 237.402346 281.947264 
L 238.135441 264.838077 
L 238.868536 228.562368 
L 239.601632 289.133117 
L 240.334727 286.537501 
L 241.067822 289.212957 
L 241.800918 280.123719 
L 242.534013 286.477874 
L 243.267108 277.826156 
L 244.000204 289.119871 
L 244.733299 289.352464 
L 245.466394 249.413138 
L 246.19949 263.299207 
L 246.932585 287.740656 
L 247.665681 248.162671 
L 248.398776 277.347666 
L 249.131871 253.341945 
L 249.864967 279.966182 
L 250.598062 288.450365 
L 251.331157 289.143167 
L 252.064253 278.97466 
L 252.797348 289.308692 
L 253.530443 287.39046 
L 254.263539 287.730809 
L 254.996634 282.667639 
L 255.72973 282.066145 
L 256.462825 286.460083 
L 257.19592 243.727587 
L 257.929016 277.780358 
L 258.662111 285.580934 
L 259.395206 283.517766 
L 260.128302 288.957871 
L 260.861397 286.048735 
L 261.594492 286.000909 
L 262.327588 272.241958 
L 263.060683 283.371655 
L 263.793779 289.055092 
L 264.526874 256.594498 
L 265.259969 289.358671 
L 265.993065 200.204626 
L 266.72616 288.959042 
L 267.459255 288.641521 
L 268.192351 285.699807 
L 268.925446 284.795489 
L 269.658541 287.139104 
L 270.391637 288.834222 
L 271.124732 264.736403 
L 271.857827 275.907225 
L 272.590923 278.418743 
L 273.324018 257.79764 
L 274.057114 275.696554 
L 274.790209 231.137569 
L 275.523304 289.166241 
L 276.2564 288.705945 
L 277.72259 242.268747 
L 278.455686 289.326888 
L 279.188781 285.733094 
L 279.921876 225.215967 
L 280.654972 272.987625 
L 281.388067 289.33098 
L 282.121163 213.714753 
L 282.854258 276.904643 
L 283.587353 288.40378 
L 284.320449 278.797346 
L 285.053544 287.649058 
L 285.786639 289.003869 
L 286.519735 289.289044 
L 287.25283 272.072484 
L 287.985925 231.659869 
L 288.719021 271.501785 
L 289.452116 285.981076 
L 290.185211 278.635332 
L 290.918307 285.590548 
L 291.651402 277.34094 
L 292.384498 288.252876 
L 293.117593 267.377826 
L 293.850688 262.093806 
L 294.583784 289.302631 
L 295.316879 286.779543 
L 296.049974 275.446804 
L 296.78307 287.964251 
L 297.516165 289.163797 
L 298.24926 181.08762 
L 298.982356 279.328041 
L 299.715451 246.181302 
L 300.448547 281.841356 
L 301.181642 281.021656 
L 301.914737 274.633247 
L 302.647833 273.696259 
L 303.380928 289.3355 
L 304.114023 193.423959 
L 304.847119 280.93812 
L 305.580214 288.409244 
L 306.313309 221.0212 
L 307.046405 262.913619 
L 307.7795 266.0905 
L 308.512595 282.679066 
L 309.245691 279.407224 
L 309.978786 289.200806 
L 310.711882 255.10375 
L 311.444977 241.277136 
L 312.178072 280.39713 
L 312.911168 289.374376 
L 313.644263 288.198129 
L 314.377358 288.752232 
L 315.110454 289.148259 
L 315.843549 263.118609 
L 316.576644 270.686945 
L 317.30974 270.576826 
L 318.042835 288.542537 
L 318.775931 277.218439 
L 319.509026 216.966225 
L 320.242121 289.360731 
L 320.975217 273.111245 
L 321.708312 277.269573 
L 322.441407 289.366223 
L 323.174503 289.190742 
L 323.907598 288.546957 
L 324.640693 282.896209 
L 325.373789 284.178169 
L 326.106884 203.321402 
L 326.839979 287.313343 
L 327.573075 288.131428 
L 328.30617 288.712369 
L 329.039266 286.233232 
L 329.772361 242.14823 
L 330.505456 255.963735 
L 331.238552 253.144679 
L 331.971647 288.534636 
L 332.704742 289.370601 
L 333.437838 289.327059 
L 334.170933 282.08858 
L 334.904028 283.304911 
L 335.637124 289.181723 
L 336.370219 267.642302 
L 337.103315 285.575287 
L 337.83641 276.575428 
L 338.569505 289.369623 
L 339.302601 287.654566 
L 340.035696 288.766834 
L 340.768791 259.896614 
L 342.234982 289.209392 
L 343.701173 277.936713 
L 344.434268 289.198228 
L 345.167363 284.105244 
L 345.900459 247.199925 
L 346.633554 275.339398 
L 347.36665 285.797253 
L 348.099745 282.63837 
L 348.83284 226.060287 
L 349.565936 265.86012 
L 350.299031 258.970941 
L 351.032126 283.28002 
L 351.765222 279.157175 
L 352.498317 289.374545 
L 353.231412 288.09159 
L 353.964508 289.352387 
L 354.697603 285.77525 
L 355.430699 280.004778 
L 356.163794 285.161295 
L 356.896889 278.63758 
L 357.629985 286.250257 
L 358.36308 289.173849 
L 359.096175 284.645705 
L 359.829271 199.721509 
L 360.562366 289.028863 
L 361.295461 265.67789 
L 362.028557 271.669816 
L 362.761652 199.613905 
L 363.494747 287.516771 
L 364.227843 289.050385 
L 365.694034 289.368583 
L 366.427129 280.207137 
L 367.160224 288.569434 
L 367.89332 261.35529 
L 368.626415 201.476707 
L 369.35951 288.895496 
L 370.092606 240.309159 
L 370.825701 269.5438 
L 371.558796 250.717335 
L 372.291892 287.485693 
L 373.024987 284.159577 
L 373.758083 289.36107 
L 374.491178 287.194446 
L 375.957369 288.245089 
L 376.690464 289.318021 
L 377.423559 269.061004 
L 378.156655 289.132984 
L 378.88975 286.960803 
L 379.622845 191.470184 
L 380.355941 288.486227 
L 381.089036 286.27441 
L 381.822131 288.740191 
L 382.555227 283.987697 
L 383.288322 189.397815 
L 384.021418 287.558579 
L 384.754513 289.361803 
L 385.487608 265.946173 
L 386.220704 265.502181 
L 386.953799 278.907753 
L 387.686894 286.888816 
L 388.41999 282.714135 
L 389.153085 282.169998 
L 389.88618 283.932721 
L 390.619276 289.337531 
L 391.352371 282.013642 
L 392.085467 289.365466 
L 392.818562 278.172061 
L 393.551657 265.252404 
L 394.284753 282.710608 
L 395.017848 288.946819 
L 395.750943 261.99251 
L 396.484039 289.217434 
L 397.217134 265.761763 
L 397.950229 288.929426 
L 398.683325 288.754138 
L 399.41642 286.4837 
L 400.149516 288.591466 
L 400.882611 275.96104 
L 401.615706 287.73777 
L 402.348802 274.813637 
L 403.081897 269.788454 
L 403.814992 289.32863 
L 404.548088 279.726595 
L 405.281183 289.374435 
L 406.014278 268.670824 
L 406.747374 289.086312 
L 407.480469 201.634311 
L 408.213564 223.66742 
L 408.94666 289.271815 
L 409.679755 282.477896 
L 410.412851 288.191566 
L 411.145946 288.849723 
L 411.879041 239.6577 
L 412.612137 287.225587 
L 413.345232 284.473166 
L 414.078327 254.465654 
L 414.811423 289.335102 
L 415.544518 270.868597 
L 416.277613 288.795262 
L 417.010709 279.381249 
L 417.743804 286.674416 
L 418.4769 262.440766 
L 419.209995 242.158499 
L 419.94309 288.155695 
L 420.676186 285.904226 
L 421.409281 264.924717 
L 422.142376 289.146938 
L 422.875472 285.88111 
L 423.608567 266.030682 
L 424.341662 288.114621 
L 425.074758 251.99066 
L 425.807853 287.963613 
L 426.540948 287.181245 
L 427.274044 282.852199 
L 428.007139 271.447929 
L 428.740235 281.734869 
L 429.47333 281.755462 
L 430.206425 288.833874 
L 430.939521 280.110201 
L 431.672616 282.723243 
L 431.672616 282.723243 
" clip-path="url(#pba26bbcec5)" style="fill: none; stroke: #9467bd; stroke-width: 1.5; stroke-linecap: square"/>
   </g>
   <g id="patch_3">
    <path d="M 46.797552 302.64 
L 46.797552 10.8 
" style="fill: none; stroke: #000000; stroke-width: 0.8; stroke-linejoin: miter; stroke-linecap: square"/>
   </g>
   <g id="patch_4">
    <path d="M 450 302.64 
L 450 10.8 
" style="fill: none; stroke: #000000; stroke-width: 0.8; stroke-linejoin: miter; stroke-linecap: square"/>
   </g>
   <g id="patch_5">
    <path d="M 46.797552 302.64 
L 450 302.64 
" style="fill: none; stroke: #000000; stroke-width: 0.8; stroke-linejoin: miter; stroke-linecap: square"/>
   </g>
   <g id="patch_6">
    <path d="M 46.797552 10.8 
L 450 10.8 
" style="fill: none; stroke: #000000; stroke-width: 0.8; stroke-linejoin: miter; stroke-linecap: square"/>
   </g>
  </g>
 </g>
 <defs>
  <clipPath id="pba26bbcec5">
   <rect x="46.797552" y="10.8" width="403.202448" height="291.84"/>
  </clipPath>
 </defs>
</svg>
