<?xml version="1.0" encoding="utf-8" standalone="no"?>
<!DOCTYPE svg PUBLIC "-//W3C//DTD SVG 1.1//EN"
  "http://www.w3.org/Graphics/SVG/1.1/DTD/svg11.dtd">
<svg xmlns:xlink="http://www.w3.org/1999/xlink" width="460.8pt" height="345.6pt" viewBox="0 0 460.8 345.6" xmlns="http://www.w3.org/2000/svg" version="1.1">
 <metadata>
  <rdf:RDF xmlns:dc="http://purl.org/dc/elements/1.1/" xmlns:cc="http://creativecommons.org/ns#" xmlns:rdf="http://www.w3.org/1999/02/22-rdf-syntax-ns#">
   <cc:Work>
    <dc:type rdf:resource="http://purl.org/dc/dcmitype/StillImage"/>
    <dc:date>2023-09-22T23:17:14.951418</dc:date>
    <dc:format>image/svg+xml</dc:format>
    <dc:creator>
     <cc:Agent>
      <dc:title>Matplotlib v3.7.1, https://matplotlib.org/</dc:title>
     </cc:Agent>
    </dc:creator>
   </cc:Work>
  </rdf:RDF>
 </metadata>
 <defs>
  <style type="text/css">*{stroke-linejoin: round; stroke-linecap: butt}</style>
 </defs>
 <g id="figure_1">
  <g id="patch_1">
   <path d="M 0 345.6 
L 460.8 345.6 
L 460.8 0 
L 0 0 
z
" style="fill: #ffffff"/>
  </g>
  <g id="axes_1">
   <g id="patch_2">
    <path d="M 54.267552 302.64 
L 450 302.64 
L 450 10.8 
L 54.267552 10.8 
z
" style="fill: #ffffff"/>
   </g>
   <g id="matplotlib.axis_1">
    <g id="xtick_1">
     <g id="line2d_1">
      <defs>
       <path id="me0cf261cab" d="M 0 0 
L 0 -3.5 
" style="stroke: #000000; stroke-width: 0.8"/>
      </defs>
      <g>
       <use xlink:href="#me0cf261cab" x="72.25539" y="302.64" style="stroke: #000000; stroke-width: 0.8"/>
      </g>
     </g>
     <g id="text_1">
      <!-- 0 -->
      <g transform="translate(68.50539 316.555625) scale(0.15 -0.15)">
       <defs>
        <path id="TimesNewRomanPSMT-30" d="M 231 2094 
Q 231 2819 450 3342 
Q 669 3866 1031 4122 
Q 1313 4325 1613 4325 
Q 2100 4325 2488 3828 
Q 2972 3213 2972 2159 
Q 2972 1422 2759 906 
Q 2547 391 2217 158 
Q 1888 -75 1581 -75 
Q 975 -75 572 641 
Q 231 1244 231 2094 
z
M 844 2016 
Q 844 1141 1059 588 
Q 1238 122 1591 122 
Q 1759 122 1940 273 
Q 2122 425 2216 781 
Q 2359 1319 2359 2297 
Q 2359 3022 2209 3506 
Q 2097 3866 1919 4016 
Q 1791 4119 1609 4119 
Q 1397 4119 1231 3928 
Q 1006 3669 925 3112 
Q 844 2556 844 2016 
z
" transform="scale(0.015625)"/>
       </defs>
       <use xlink:href="#TimesNewRomanPSMT-30"/>
      </g>
     </g>
    </g>
    <g id="xtick_2">
     <g id="line2d_2">
      <g>
       <use xlink:href="#me0cf261cab" x="144.206745" y="302.64" style="stroke: #000000; stroke-width: 0.8"/>
      </g>
     </g>
     <g id="text_2">
      <!-- 100 -->
      <g transform="translate(132.956745 316.555625) scale(0.15 -0.15)">
       <defs>
        <path id="TimesNewRomanPSMT-31" d="M 750 3822 
L 1781 4325 
L 1884 4325 
L 1884 747 
Q 1884 391 1914 303 
Q 1944 216 2037 169 
Q 2131 122 2419 116 
L 2419 0 
L 825 0 
L 825 116 
Q 1125 122 1212 167 
Q 1300 213 1334 289 
Q 1369 366 1369 747 
L 1369 3034 
Q 1369 3497 1338 3628 
Q 1316 3728 1258 3775 
Q 1200 3822 1119 3822 
Q 1003 3822 797 3725 
L 750 3822 
z
" transform="scale(0.015625)"/>
       </defs>
       <use xlink:href="#TimesNewRomanPSMT-31"/>
       <use xlink:href="#TimesNewRomanPSMT-30" x="50"/>
       <use xlink:href="#TimesNewRomanPSMT-30" x="100"/>
      </g>
     </g>
    </g>
    <g id="xtick_3">
     <g id="line2d_3">
      <g>
       <use xlink:href="#me0cf261cab" x="216.158099" y="302.64" style="stroke: #000000; stroke-width: 0.8"/>
      </g>
     </g>
     <g id="text_3">
      <!-- 200 -->
      <g transform="translate(204.908099 316.555625) scale(0.15 -0.15)">
       <defs>
        <path id="TimesNewRomanPSMT-32" d="M 2934 816 
L 2638 0 
L 138 0 
L 138 116 
Q 1241 1122 1691 1759 
Q 2141 2397 2141 2925 
Q 2141 3328 1894 3587 
Q 1647 3847 1303 3847 
Q 991 3847 742 3664 
Q 494 3481 375 3128 
L 259 3128 
Q 338 3706 661 4015 
Q 984 4325 1469 4325 
Q 1984 4325 2329 3994 
Q 2675 3663 2675 3213 
Q 2675 2891 2525 2569 
Q 2294 2063 1775 1497 
Q 997 647 803 472 
L 1909 472 
Q 2247 472 2383 497 
Q 2519 522 2628 598 
Q 2738 675 2819 816 
L 2934 816 
z
" transform="scale(0.015625)"/>
       </defs>
       <use xlink:href="#TimesNewRomanPSMT-32"/>
       <use xlink:href="#TimesNewRomanPSMT-30" x="50"/>
       <use xlink:href="#TimesNewRomanPSMT-30" x="100"/>
      </g>
     </g>
    </g>
    <g id="xtick_4">
     <g id="line2d_4">
      <g>
       <use xlink:href="#me0cf261cab" x="288.109453" y="302.64" style="stroke: #000000; stroke-width: 0.8"/>
      </g>
     </g>
     <g id="text_4">
      <!-- 300 -->
      <g transform="translate(276.859453 316.555625) scale(0.15 -0.15)">
       <defs>
        <path id="TimesNewRomanPSMT-33" d="M 325 3431 
Q 506 3859 782 4092 
Q 1059 4325 1472 4325 
Q 1981 4325 2253 3994 
Q 2459 3747 2459 3466 
Q 2459 3003 1878 2509 
Q 2269 2356 2469 2072 
Q 2669 1788 2669 1403 
Q 2669 853 2319 450 
Q 1863 -75 997 -75 
Q 569 -75 414 31 
Q 259 138 259 259 
Q 259 350 332 419 
Q 406 488 509 488 
Q 588 488 669 463 
Q 722 447 909 348 
Q 1097 250 1169 231 
Q 1284 197 1416 197 
Q 1734 197 1970 444 
Q 2206 691 2206 1028 
Q 2206 1275 2097 1509 
Q 2016 1684 1919 1775 
Q 1784 1900 1550 2001 
Q 1316 2103 1072 2103 
L 972 2103 
L 972 2197 
Q 1219 2228 1467 2375 
Q 1716 2522 1828 2728 
Q 1941 2934 1941 3181 
Q 1941 3503 1739 3701 
Q 1538 3900 1238 3900 
Q 753 3900 428 3381 
L 325 3431 
z
" transform="scale(0.015625)"/>
       </defs>
       <use xlink:href="#TimesNewRomanPSMT-33"/>
       <use xlink:href="#TimesNewRomanPSMT-30" x="50"/>
       <use xlink:href="#TimesNewRomanPSMT-30" x="100"/>
      </g>
     </g>
    </g>
    <g id="xtick_5">
     <g id="line2d_5">
      <g>
       <use xlink:href="#me0cf261cab" x="360.060807" y="302.64" style="stroke: #000000; stroke-width: 0.8"/>
      </g>
     </g>
     <g id="text_5">
      <!-- 400 -->
      <g transform="translate(348.810807 316.555625) scale(0.15 -0.15)">
       <defs>
        <path id="TimesNewRomanPSMT-34" d="M 2978 1563 
L 2978 1119 
L 2409 1119 
L 2409 0 
L 1894 0 
L 1894 1119 
L 100 1119 
L 100 1519 
L 2066 4325 
L 2409 4325 
L 2409 1563 
L 2978 1563 
z
M 1894 1563 
L 1894 3666 
L 406 1563 
L 1894 1563 
z
" transform="scale(0.015625)"/>
       </defs>
       <use xlink:href="#TimesNewRomanPSMT-34"/>
       <use xlink:href="#TimesNewRomanPSMT-30" x="50"/>
       <use xlink:href="#TimesNewRomanPSMT-30" x="100"/>
      </g>
     </g>
    </g>
    <g id="xtick_6">
     <g id="line2d_6">
      <g>
       <use xlink:href="#me0cf261cab" x="432.012161" y="302.64" style="stroke: #000000; stroke-width: 0.8"/>
      </g>
     </g>
     <g id="text_6">
      <!-- 500 -->
      <g transform="translate(420.762161 316.555625) scale(0.15 -0.15)">
       <defs>
        <path id="TimesNewRomanPSMT-35" d="M 2778 4238 
L 2534 3706 
L 1259 3706 
L 981 3138 
Q 1809 3016 2294 2522 
Q 2709 2097 2709 1522 
Q 2709 1188 2573 903 
Q 2438 619 2231 419 
Q 2025 219 1772 97 
Q 1413 -75 1034 -75 
Q 653 -75 479 54 
Q 306 184 306 341 
Q 306 428 378 495 
Q 450 563 559 563 
Q 641 563 702 538 
Q 763 513 909 409 
Q 1144 247 1384 247 
Q 1750 247 2026 523 
Q 2303 800 2303 1197 
Q 2303 1581 2056 1914 
Q 1809 2247 1375 2428 
Q 1034 2569 447 2591 
L 1259 4238 
L 2778 4238 
z
" transform="scale(0.015625)"/>
       </defs>
       <use xlink:href="#TimesNewRomanPSMT-35"/>
       <use xlink:href="#TimesNewRomanPSMT-30" x="50"/>
       <use xlink:href="#TimesNewRomanPSMT-30" x="100"/>
      </g>
     </g>
    </g>
    <g id="text_7">
     <!-- Time (arbitrary unit) -->
     <g transform="translate(210.937682 330.707969) scale(0.1 -0.1)">
      <defs>
       <path id="TimesNewRomanPSMT-54" d="M 3703 4238 
L 3750 3244 
L 3631 3244 
Q 3597 3506 3538 3619 
Q 3441 3800 3280 3886 
Q 3119 3972 2856 3972 
L 2259 3972 
L 2259 734 
Q 2259 344 2344 247 
Q 2463 116 2709 116 
L 2856 116 
L 2856 0 
L 1059 0 
L 1059 116 
L 1209 116 
Q 1478 116 1591 278 
Q 1659 378 1659 734 
L 1659 3972 
L 1150 3972 
Q 853 3972 728 3928 
Q 566 3869 450 3700 
Q 334 3531 313 3244 
L 194 3244 
L 244 4238 
L 3703 4238 
z
" transform="scale(0.015625)"/>
       <path id="TimesNewRomanPSMT-69" d="M 928 4444 
Q 1059 4444 1151 4351 
Q 1244 4259 1244 4128 
Q 1244 3997 1151 3903 
Q 1059 3809 928 3809 
Q 797 3809 703 3903 
Q 609 3997 609 4128 
Q 609 4259 701 4351 
Q 794 4444 928 4444 
z
M 1188 2947 
L 1188 647 
Q 1188 378 1227 289 
Q 1266 200 1342 156 
Q 1419 113 1622 113 
L 1622 0 
L 231 0 
L 231 113 
Q 441 113 512 153 
Q 584 194 626 287 
Q 669 381 669 647 
L 669 1750 
Q 669 2216 641 2353 
Q 619 2453 572 2492 
Q 525 2531 444 2531 
Q 356 2531 231 2484 
L 188 2597 
L 1050 2947 
L 1188 2947 
z
" transform="scale(0.015625)"/>
       <path id="TimesNewRomanPSMT-6d" d="M 1050 2338 
Q 1363 2650 1419 2697 
Q 1559 2816 1721 2881 
Q 1884 2947 2044 2947 
Q 2313 2947 2506 2790 
Q 2700 2634 2766 2338 
Q 3088 2713 3309 2830 
Q 3531 2947 3766 2947 
Q 3994 2947 4170 2830 
Q 4347 2713 4450 2447 
Q 4519 2266 4519 1878 
L 4519 647 
Q 4519 378 4559 278 
Q 4591 209 4675 161 
Q 4759 113 4950 113 
L 4950 0 
L 3538 0 
L 3538 113 
L 3597 113 
Q 3781 113 3884 184 
Q 3956 234 3988 344 
Q 4000 397 4000 647 
L 4000 1878 
Q 4000 2228 3916 2372 
Q 3794 2572 3525 2572 
Q 3359 2572 3192 2489 
Q 3025 2406 2788 2181 
L 2781 2147 
L 2788 2013 
L 2788 647 
Q 2788 353 2820 281 
Q 2853 209 2943 161 
Q 3034 113 3253 113 
L 3253 0 
L 1806 0 
L 1806 113 
Q 2044 113 2133 169 
Q 2222 225 2256 338 
Q 2272 391 2272 647 
L 2272 1878 
Q 2272 2228 2169 2381 
Q 2031 2581 1784 2581 
Q 1616 2581 1450 2491 
Q 1191 2353 1050 2181 
L 1050 647 
Q 1050 366 1089 281 
Q 1128 197 1204 155 
Q 1281 113 1516 113 
L 1516 0 
L 100 0 
L 100 113 
Q 297 113 375 155 
Q 453 197 493 289 
Q 534 381 534 647 
L 534 1741 
Q 534 2213 506 2350 
Q 484 2453 437 2492 
Q 391 2531 309 2531 
Q 222 2531 100 2484 
L 53 2597 
L 916 2947 
L 1050 2947 
L 1050 2338 
z
" transform="scale(0.015625)"/>
       <path id="TimesNewRomanPSMT-65" d="M 681 1784 
Q 678 1147 991 784 
Q 1303 422 1725 422 
Q 2006 422 2214 576 
Q 2422 731 2563 1106 
L 2659 1044 
Q 2594 616 2278 264 
Q 1963 -88 1488 -88 
Q 972 -88 605 314 
Q 238 716 238 1394 
Q 238 2128 614 2539 
Q 991 2950 1559 2950 
Q 2041 2950 2350 2633 
Q 2659 2316 2659 1784 
L 681 1784 
z
M 681 1966 
L 2006 1966 
Q 1991 2241 1941 2353 
Q 1863 2528 1708 2628 
Q 1553 2728 1384 2728 
Q 1125 2728 920 2526 
Q 716 2325 681 1966 
z
" transform="scale(0.015625)"/>
       <path id="TimesNewRomanPSMT-20" transform="scale(0.015625)"/>
       <path id="TimesNewRomanPSMT-28" d="M 1988 -1253 
L 1988 -1369 
Q 1516 -1131 1200 -813 
Q 750 -359 506 256 
Q 263 872 263 1534 
Q 263 2503 741 3301 
Q 1219 4100 1988 4444 
L 1988 4313 
Q 1603 4100 1356 3731 
Q 1109 3363 987 2797 
Q 866 2231 866 1616 
Q 866 947 969 400 
Q 1050 -31 1165 -292 
Q 1281 -553 1476 -793 
Q 1672 -1034 1988 -1253 
z
" transform="scale(0.015625)"/>
       <path id="TimesNewRomanPSMT-61" d="M 1822 413 
Q 1381 72 1269 19 
Q 1100 -59 909 -59 
Q 613 -59 420 144 
Q 228 347 228 678 
Q 228 888 322 1041 
Q 450 1253 767 1440 
Q 1084 1628 1822 1897 
L 1822 2009 
Q 1822 2438 1686 2597 
Q 1550 2756 1291 2756 
Q 1094 2756 978 2650 
Q 859 2544 859 2406 
L 866 2225 
Q 866 2081 792 2003 
Q 719 1925 600 1925 
Q 484 1925 411 2006 
Q 338 2088 338 2228 
Q 338 2497 613 2722 
Q 888 2947 1384 2947 
Q 1766 2947 2009 2819 
Q 2194 2722 2281 2516 
Q 2338 2381 2338 1966 
L 2338 994 
Q 2338 584 2353 492 
Q 2369 400 2405 369 
Q 2441 338 2488 338 
Q 2538 338 2575 359 
Q 2641 400 2828 588 
L 2828 413 
Q 2478 -56 2159 -56 
Q 2006 -56 1915 50 
Q 1825 156 1822 413 
z
M 1822 616 
L 1822 1706 
Q 1350 1519 1213 1441 
Q 966 1303 859 1153 
Q 753 1003 753 825 
Q 753 600 887 451 
Q 1022 303 1197 303 
Q 1434 303 1822 616 
z
" transform="scale(0.015625)"/>
       <path id="TimesNewRomanPSMT-72" d="M 1038 2947 
L 1038 2303 
Q 1397 2947 1775 2947 
Q 1947 2947 2059 2842 
Q 2172 2738 2172 2600 
Q 2172 2478 2090 2393 
Q 2009 2309 1897 2309 
Q 1788 2309 1652 2417 
Q 1516 2525 1450 2525 
Q 1394 2525 1328 2463 
Q 1188 2334 1038 2041 
L 1038 669 
Q 1038 431 1097 309 
Q 1138 225 1241 169 
Q 1344 113 1538 113 
L 1538 0 
L 72 0 
L 72 113 
Q 291 113 397 181 
Q 475 231 506 341 
Q 522 394 522 644 
L 522 1753 
Q 522 2253 501 2348 
Q 481 2444 426 2487 
Q 372 2531 291 2531 
Q 194 2531 72 2484 
L 41 2597 
L 906 2947 
L 1038 2947 
z
" transform="scale(0.015625)"/>
       <path id="TimesNewRomanPSMT-62" d="M 984 2369 
Q 1400 2947 1881 2947 
Q 2322 2947 2650 2570 
Q 2978 2194 2978 1541 
Q 2978 778 2472 313 
Q 2038 -88 1503 -88 
Q 1253 -88 995 3 
Q 738 94 469 275 
L 469 3241 
Q 469 3728 445 3840 
Q 422 3953 372 3993 
Q 322 4034 247 4034 
Q 159 4034 28 3984 
L -16 4094 
L 844 4444 
L 984 4444 
L 984 2369 
z
M 984 2169 
L 984 456 
Q 1144 300 1314 220 
Q 1484 141 1663 141 
Q 1947 141 2192 453 
Q 2438 766 2438 1363 
Q 2438 1913 2192 2208 
Q 1947 2503 1634 2503 
Q 1469 2503 1303 2419 
Q 1178 2356 984 2169 
z
" transform="scale(0.015625)"/>
       <path id="TimesNewRomanPSMT-74" d="M 1031 3803 
L 1031 2863 
L 1700 2863 
L 1700 2644 
L 1031 2644 
L 1031 788 
Q 1031 509 1111 412 
Q 1191 316 1316 316 
Q 1419 316 1516 380 
Q 1613 444 1666 569 
L 1788 569 
Q 1678 263 1478 108 
Q 1278 -47 1066 -47 
Q 922 -47 784 33 
Q 647 113 581 261 
Q 516 409 516 719 
L 516 2644 
L 63 2644 
L 63 2747 
Q 234 2816 414 2980 
Q 594 3144 734 3369 
Q 806 3488 934 3803 
L 1031 3803 
z
" transform="scale(0.015625)"/>
       <path id="TimesNewRomanPSMT-79" d="M 38 2863 
L 1372 2863 
L 1372 2747 
L 1306 2747 
Q 1166 2747 1095 2686 
Q 1025 2625 1025 2534 
Q 1025 2413 1128 2197 
L 1825 753 
L 2466 2334 
Q 2519 2463 2519 2588 
Q 2519 2644 2497 2672 
Q 2472 2706 2419 2726 
Q 2366 2747 2231 2747 
L 2231 2863 
L 3163 2863 
L 3163 2747 
Q 3047 2734 2984 2696 
Q 2922 2659 2847 2556 
Q 2819 2513 2741 2316 
L 1575 -541 
Q 1406 -956 1132 -1168 
Q 859 -1381 606 -1381 
Q 422 -1381 303 -1275 
Q 184 -1169 184 -1031 
Q 184 -900 270 -820 
Q 356 -741 506 -741 
Q 609 -741 788 -809 
Q 913 -856 944 -856 
Q 1038 -856 1148 -759 
Q 1259 -663 1372 -384 
L 1575 113 
L 547 2272 
Q 500 2369 397 2513 
Q 319 2622 269 2659 
Q 197 2709 38 2747 
L 38 2863 
z
" transform="scale(0.015625)"/>
       <path id="TimesNewRomanPSMT-75" d="M 2709 2863 
L 2709 1128 
Q 2709 631 2732 520 
Q 2756 409 2807 365 
Q 2859 322 2928 322 
Q 3025 322 3147 375 
L 3191 266 
L 2334 -88 
L 2194 -88 
L 2194 519 
Q 1825 119 1631 15 
Q 1438 -88 1222 -88 
Q 981 -88 804 51 
Q 628 191 559 409 
Q 491 628 491 1028 
L 491 2306 
Q 491 2509 447 2587 
Q 403 2666 317 2708 
Q 231 2750 6 2747 
L 6 2863 
L 1009 2863 
L 1009 947 
Q 1009 547 1148 422 
Q 1288 297 1484 297 
Q 1619 297 1789 381 
Q 1959 466 2194 703 
L 2194 2325 
Q 2194 2569 2105 2655 
Q 2016 2741 1734 2747 
L 1734 2863 
L 2709 2863 
z
" transform="scale(0.015625)"/>
       <path id="TimesNewRomanPSMT-6e" d="M 1034 2341 
Q 1538 2947 1994 2947 
Q 2228 2947 2397 2830 
Q 2566 2713 2666 2444 
Q 2734 2256 2734 1869 
L 2734 647 
Q 2734 375 2778 278 
Q 2813 200 2889 156 
Q 2966 113 3172 113 
L 3172 0 
L 1756 0 
L 1756 113 
L 1816 113 
Q 2016 113 2095 173 
Q 2175 234 2206 353 
Q 2219 400 2219 647 
L 2219 1819 
Q 2219 2209 2117 2386 
Q 2016 2563 1775 2563 
Q 1403 2563 1034 2156 
L 1034 647 
Q 1034 356 1069 288 
Q 1113 197 1189 155 
Q 1266 113 1500 113 
L 1500 0 
L 84 0 
L 84 113 
L 147 113 
Q 366 113 442 223 
Q 519 334 519 647 
L 519 1709 
Q 519 2225 495 2337 
Q 472 2450 423 2490 
Q 375 2531 294 2531 
Q 206 2531 84 2484 
L 38 2597 
L 900 2947 
L 1034 2947 
L 1034 2341 
z
" transform="scale(0.015625)"/>
       <path id="TimesNewRomanPSMT-29" d="M 144 4313 
L 144 4444 
Q 619 4209 934 3891 
Q 1381 3434 1625 2820 
Q 1869 2206 1869 1541 
Q 1869 572 1392 -226 
Q 916 -1025 144 -1369 
L 144 -1253 
Q 528 -1038 776 -670 
Q 1025 -303 1145 264 
Q 1266 831 1266 1447 
Q 1266 2113 1163 2663 
Q 1084 3094 967 3353 
Q 850 3613 656 3853 
Q 463 4094 144 4313 
z
" transform="scale(0.015625)"/>
      </defs>
      <use xlink:href="#TimesNewRomanPSMT-54"/>
      <use xlink:href="#TimesNewRomanPSMT-69" x="57.583984"/>
      <use xlink:href="#TimesNewRomanPSMT-6d" x="85.367188"/>
      <use xlink:href="#TimesNewRomanPSMT-65" x="163.150391"/>
      <use xlink:href="#TimesNewRomanPSMT-20" x="207.535156"/>
      <use xlink:href="#TimesNewRomanPSMT-28" x="232.535156"/>
      <use xlink:href="#TimesNewRomanPSMT-61" x="265.835938"/>
      <use xlink:href="#TimesNewRomanPSMT-72" x="310.220703"/>
      <use xlink:href="#TimesNewRomanPSMT-62" x="343.521484"/>
      <use xlink:href="#TimesNewRomanPSMT-69" x="393.521484"/>
      <use xlink:href="#TimesNewRomanPSMT-74" x="421.304688"/>
      <use xlink:href="#TimesNewRomanPSMT-72" x="449.087891"/>
      <use xlink:href="#TimesNewRomanPSMT-61" x="482.388672"/>
      <use xlink:href="#TimesNewRomanPSMT-72" x="526.773438"/>
      <use xlink:href="#TimesNewRomanPSMT-79" x="560.074219"/>
      <use xlink:href="#TimesNewRomanPSMT-20" x="610.074219"/>
      <use xlink:href="#TimesNewRomanPSMT-75" x="635.074219"/>
      <use xlink:href="#TimesNewRomanPSMT-6e" x="685.074219"/>
      <use xlink:href="#TimesNewRomanPSMT-69" x="735.074219"/>
      <use xlink:href="#TimesNewRomanPSMT-74" x="762.857422"/>
      <use xlink:href="#TimesNewRomanPSMT-29" x="790.640625"/>
     </g>
    </g>
   </g>
   <g id="matplotlib.axis_2">
    <g id="ytick_1">
     <g id="line2d_7">
      <defs>
       <path id="m6f4e20f17c" d="M 0 0 
L 3.5 0 
" style="stroke: #000000; stroke-width: 0.8"/>
      </defs>
      <g>
       <use xlink:href="#m6f4e20f17c" x="54.267552" y="290.92649" style="stroke: #000000; stroke-width: 0.8"/>
      </g>
     </g>
     <g id="text_8">
      <!-- 0.00 -->
      <g transform="translate(24.517552 296.134302) scale(0.15 -0.15)">
       <defs>
        <path id="TimesNewRomanPSMT-2e" d="M 800 606 
Q 947 606 1047 504 
Q 1147 403 1147 259 
Q 1147 116 1045 14 
Q 944 -88 800 -88 
Q 656 -88 554 14 
Q 453 116 453 259 
Q 453 406 554 506 
Q 656 606 800 606 
z
" transform="scale(0.015625)"/>
       </defs>
       <use xlink:href="#TimesNewRomanPSMT-30"/>
       <use xlink:href="#TimesNewRomanPSMT-2e" x="50"/>
       <use xlink:href="#TimesNewRomanPSMT-30" x="75"/>
       <use xlink:href="#TimesNewRomanPSMT-30" x="125"/>
      </g>
     </g>
    </g>
    <g id="ytick_2">
     <g id="line2d_8">
      <g>
       <use xlink:href="#m6f4e20f17c" x="54.267552" y="250.257685" style="stroke: #000000; stroke-width: 0.8"/>
      </g>
     </g>
     <g id="text_9">
      <!-- 0.05 -->
      <g transform="translate(24.517552 255.465497) scale(0.15 -0.15)">
       <use xlink:href="#TimesNewRomanPSMT-30"/>
       <use xlink:href="#TimesNewRomanPSMT-2e" x="50"/>
       <use xlink:href="#TimesNewRomanPSMT-30" x="75"/>
       <use xlink:href="#TimesNewRomanPSMT-35" x="125"/>
      </g>
     </g>
    </g>
    <g id="ytick_3">
     <g id="line2d_9">
      <g>
       <use xlink:href="#m6f4e20f17c" x="54.267552" y="209.58888" style="stroke: #000000; stroke-width: 0.8"/>
      </g>
     </g>
     <g id="text_10">
      <!-- 0.10 -->
      <g transform="translate(24.517552 214.796692) scale(0.15 -0.15)">
       <use xlink:href="#TimesNewRomanPSMT-30"/>
       <use xlink:href="#TimesNewRomanPSMT-2e" x="50"/>
       <use xlink:href="#TimesNewRomanPSMT-31" x="75"/>
       <use xlink:href="#TimesNewRomanPSMT-30" x="125"/>
      </g>
     </g>
    </g>
    <g id="ytick_4">
     <g id="line2d_10">
      <g>
       <use xlink:href="#m6f4e20f17c" x="54.267552" y="168.920075" style="stroke: #000000; stroke-width: 0.8"/>
      </g>
     </g>
     <g id="text_11">
      <!-- 0.15 -->
      <g transform="translate(24.517552 174.127887) scale(0.15 -0.15)">
       <use xlink:href="#TimesNewRomanPSMT-30"/>
       <use xlink:href="#TimesNewRomanPSMT-2e" x="50"/>
       <use xlink:href="#TimesNewRomanPSMT-31" x="75"/>
       <use xlink:href="#TimesNewRomanPSMT-35" x="125"/>
      </g>
     </g>
    </g>
    <g id="ytick_5">
     <g id="line2d_11">
      <g>
       <use xlink:href="#m6f4e20f17c" x="54.267552" y="128.25127" style="stroke: #000000; stroke-width: 0.8"/>
      </g>
     </g>
     <g id="text_12">
      <!-- 0.20 -->
      <g transform="translate(24.517552 133.459082) scale(0.15 -0.15)">
       <use xlink:href="#TimesNewRomanPSMT-30"/>
       <use xlink:href="#TimesNewRomanPSMT-2e" x="50"/>
       <use xlink:href="#TimesNewRomanPSMT-32" x="75"/>
       <use xlink:href="#TimesNewRomanPSMT-30" x="125"/>
      </g>
     </g>
    </g>
    <g id="ytick_6">
     <g id="line2d_12">
      <g>
       <use xlink:href="#m6f4e20f17c" x="54.267552" y="87.582465" style="stroke: #000000; stroke-width: 0.8"/>
      </g>
     </g>
     <g id="text_13">
      <!-- 0.25 -->
      <g transform="translate(24.517552 92.790277) scale(0.15 -0.15)">
       <use xlink:href="#TimesNewRomanPSMT-30"/>
       <use xlink:href="#TimesNewRomanPSMT-2e" x="50"/>
       <use xlink:href="#TimesNewRomanPSMT-32" x="75"/>
       <use xlink:href="#TimesNewRomanPSMT-35" x="125"/>
      </g>
     </g>
    </g>
    <g id="ytick_7">
     <g id="line2d_13">
      <g>
       <use xlink:href="#m6f4e20f17c" x="54.267552" y="46.91366" style="stroke: #000000; stroke-width: 0.8"/>
      </g>
     </g>
     <g id="text_14">
      <!-- 0.30 -->
      <g transform="translate(24.517552 52.121472) scale(0.15 -0.15)">
       <use xlink:href="#TimesNewRomanPSMT-30"/>
       <use xlink:href="#TimesNewRomanPSMT-2e" x="50"/>
       <use xlink:href="#TimesNewRomanPSMT-33" x="75"/>
       <use xlink:href="#TimesNewRomanPSMT-30" x="125"/>
      </g>
     </g>
    </g>
    <g id="text_15">
     <!-- $X(t)$ -->
     <g transform="translate(11.217552 154.580937) scale(0.1 -0.1)">
      <defs>
       <path id="DejaVuSans-Oblique-58" d="M 878 4666 
L 1516 4666 
L 2316 2981 
L 3763 4666 
L 4500 4666 
L 2578 2438 
L 3738 0 
L 3103 0 
L 2163 1966 
L 459 0 
L -275 0 
L 1906 2509 
L 878 4666 
z
" transform="scale(0.015625)"/>
       <path id="DejaVuSans-28" d="M 1984 4856 
Q 1566 4138 1362 3434 
Q 1159 2731 1159 2009 
Q 1159 1288 1364 580 
Q 1569 -128 1984 -844 
L 1484 -844 
Q 1016 -109 783 600 
Q 550 1309 550 2009 
Q 550 2706 781 3412 
Q 1013 4119 1484 4856 
L 1984 4856 
z
" transform="scale(0.015625)"/>
       <path id="DejaVuSans-Oblique-74" d="M 2706 3500 
L 2619 3053 
L 1472 3053 
L 1100 1153 
Q 1081 1047 1072 975 
Q 1063 903 1063 863 
Q 1063 663 1183 572 
Q 1303 481 1569 481 
L 2150 481 
L 2053 0 
L 1503 0 
Q 991 0 739 200 
Q 488 400 488 806 
Q 488 878 497 964 
Q 506 1050 525 1153 
L 897 3053 
L 409 3053 
L 500 3500 
L 978 3500 
L 1172 4494 
L 1747 4494 
L 1556 3500 
L 2706 3500 
z
" transform="scale(0.015625)"/>
       <path id="DejaVuSans-29" d="M 513 4856 
L 1013 4856 
Q 1481 4119 1714 3412 
Q 1947 2706 1947 2009 
Q 1947 1309 1714 600 
Q 1481 -109 1013 -844 
L 513 -844 
Q 928 -128 1133 580 
Q 1338 1288 1338 2009 
Q 1338 2731 1133 3434 
Q 928 4138 513 4856 
z
" transform="scale(0.015625)"/>
      </defs>
      <use xlink:href="#DejaVuSans-Oblique-58" transform="translate(0 0.125)"/>
      <use xlink:href="#DejaVuSans-28" transform="translate(68.505859 0.125)"/>
      <use xlink:href="#DejaVuSans-Oblique-74" transform="translate(107.519531 0.125)"/>
      <use xlink:href="#DejaVuSans-29" transform="translate(146.728516 0.125)"/>
     </g>
    </g>
   </g>
   <g id="line2d_14">
    <path d="M 72.25539 282.792729 
L 72.974904 286.243336 
L 73.694418 268.475488 
L 74.413931 276.327167 
L 75.133445 282.49481 
L 75.852958 285.09787 
L 76.572472 286.459683 
L 77.291985 275.69384 
L 78.011499 278.111457 
L 78.731012 283.649599 
L 79.450526 287.236934 
L 80.170039 272.636703 
L 80.889553 217.500092 
L 81.609066 227.185522 
L 82.32858 252.457033 
L 83.048094 271.23751 
L 83.767607 269.372373 
L 84.487121 272.743539 
L 85.206634 272.727193 
L 85.926148 281.130757 
L 86.645661 239.098762 
L 87.365175 216.924762 
L 88.084688 219.345951 
L 88.804202 255.099057 
L 89.523715 264.745868 
L 90.243229 271.963623 
L 90.962743 280.545442 
L 91.682256 229.03192 
L 92.40177 166.376587 
L 93.121283 219.604997 
L 93.840797 248.559168 
L 94.56031 200.008052 
L 95.279824 243.285314 
L 95.999337 248.83111 
L 96.718851 260.535582 
L 97.438364 275.727589 
L 98.157878 283.199437 
L 98.877391 231.236521 
L 99.596905 246.963058 
L 100.316419 268.939221 
L 101.035932 257.481355 
L 101.755446 242.988911 
L 102.474959 266.33551 
L 103.194473 274.76396 
L 103.913986 252.116485 
L 104.6335 239.413604 
L 105.353013 257.997381 
L 106.072527 218.165948 
L 106.79204 254.526805 
L 107.511554 272.328862 
L 108.231068 281.325966 
L 108.950581 248.240838 
L 109.670095 209.780772 
L 110.389608 247.740802 
L 111.109122 269.32328 
L 111.828635 279.925125 
L 112.548149 279.214378 
L 113.267662 271.501666 
L 113.987176 273.852496 
L 114.706689 278.368902 
L 115.426203 281.389399 
L 116.145716 285.678096 
L 116.86523 287.942692 
L 117.584744 289.374545 
L 118.304257 265.485885 
L 119.023771 272.021046 
L 119.743284 274.647823 
L 120.462798 279.24436 
L 121.182311 281.832926 
L 121.901825 285.560878 
L 122.621338 265.474547 
L 123.340852 270.947865 
L 124.060365 269.65784 
L 124.779879 266.881029 
L 125.499393 276.174864 
L 126.218906 263.002449 
L 126.93842 241.020552 
L 127.657933 254.810764 
L 128.377447 251.731549 
L 129.09696 246.703839 
L 129.816474 264.982356 
L 130.535987 276.143092 
L 131.255501 262.118526 
L 131.975014 231.486477 
L 132.694528 238.448905 
L 133.414042 260.119257 
L 134.133555 261.715046 
L 134.853069 272.409994 
L 136.292096 275.352122 
L 137.011609 231.880142 
L 137.731123 261.046426 
L 138.450636 268.897372 
L 139.17015 239.021587 
L 139.889663 243.0891 
L 140.609177 265.191518 
L 141.32869 247.89885 
L 142.048204 257.868115 
L 142.767718 205.347337 
L 143.487231 246.89427 
L 144.206745 268.431928 
L 144.926258 266.288534 
L 145.645772 277.54139 
L 146.365285 284.090468 
L 147.084799 203.292288 
L 147.804312 245.170913 
L 148.523826 259.274064 
L 149.243339 262.220487 
L 149.962853 260.711356 
L 150.682367 264.583884 
L 151.40188 269.566964 
L 152.121394 258.864045 
L 152.840907 245.826955 
L 153.560421 246.350483 
L 154.279934 264.342403 
L 154.999448 270.514449 
L 155.718961 267.247486 
L 156.438475 262.711473 
L 157.157988 268.735045 
L 157.877502 247.905268 
L 158.597015 268.05905 
L 159.316529 270.436146 
L 160.036043 279.579135 
L 160.755556 284.913465 
L 161.47507 250.910672 
L 162.194583 257.923641 
L 162.914097 256.273203 
L 163.63361 272.226611 
L 164.353124 268.118024 
L 165.072637 266.238639 
L 165.792151 274.282984 
L 166.511664 201.180614 
L 167.231178 209.309755 
L 167.950692 235.320438 
L 168.670205 253.042557 
L 170.109232 277.398523 
L 170.828746 247.569786 
L 171.548259 258.760472 
L 172.267773 256.226073 
L 172.987286 265.776153 
L 173.7068 267.249992 
L 174.426313 255.141011 
L 175.145827 194.76876 
L 175.86534 209.600908 
L 176.584854 115.053904 
L 178.023881 230.214002 
L 178.743395 234.607047 
L 179.462908 247.611204 
L 180.182422 252.407216 
L 180.901935 258.732192 
L 181.621449 259.056242 
L 182.340962 273.9543 
L 183.060476 238.150068 
L 183.779989 264.135362 
L 184.499503 259.224132 
L 185.219017 219.39728 
L 185.93853 219.056798 
L 186.658044 250.150683 
L 187.377557 207.791597 
L 188.097071 248.42106 
L 188.816584 228.520143 
L 189.536098 258.697677 
L 190.255611 274.654343 
L 190.975125 239.511584 
L 191.694638 247.630096 
L 192.414152 242.788166 
L 193.133665 260.548348 
L 193.853179 236.412982 
L 195.292206 270.559718 
L 196.01172 241.285146 
L 196.731233 265.293264 
L 197.450747 250.105323 
L 198.17026 265.612756 
L 198.889774 259.422555 
L 199.609287 213.763789 
L 200.328801 248.502048 
L 201.048314 265.119699 
L 202.487342 281.074741 
L 203.206855 244.100816 
L 203.926369 266.939655 
L 204.645882 256.793419 
L 205.365396 267.778933 
L 206.084909 264.041064 
L 206.804423 277.26245 
L 207.523936 249.078169 
L 208.24345 250.931258 
L 208.962963 240.494594 
L 209.682477 265.244108 
L 210.401991 210.55665 
L 211.121504 243.910671 
L 211.841018 119.836045 
L 212.560531 178.710358 
L 213.280045 226.636935 
L 214.719072 270.043235 
L 215.438585 275.194136 
L 216.158099 267.025599 
L 216.877612 207.200996 
L 217.597126 232.483294 
L 218.316639 230.393327 
L 219.036153 246.527341 
L 219.755667 266.567786 
L 220.47518 245.191399 
L 221.194694 266.75957 
L 221.914207 278.767082 
L 222.633721 280.31772 
L 223.353234 272.637277 
L 224.072748 239.358475 
L 224.792261 231.377285 
L 226.231288 268.189961 
L 226.950802 236.274956 
L 227.670316 258.819567 
L 228.389829 265.386351 
L 229.109343 257.691078 
L 229.828856 274.079244 
L 230.54837 269.301839 
L 231.267883 278.670261 
L 231.987397 284.648026 
L 232.70691 277.098298 
L 233.426424 267.090115 
L 234.145937 267.774312 
L 234.865451 278.701819 
L 235.584964 282.089126 
L 236.304478 278.538257 
L 237.023992 282.6598 
L 237.743505 273.942467 
L 238.463019 280.506289 
L 239.182532 271.154162 
L 239.902046 269.189354 
L 240.621559 280.000052 
L 241.341073 285.375734 
L 242.060586 288.070683 
L 242.7801 286.509746 
L 243.499613 226.421395 
L 244.219127 258.597669 
L 244.938641 274.024303 
L 245.658154 279.993443 
L 246.377668 275.167393 
L 247.097181 188.09886 
L 247.816695 239.459673 
L 248.536208 257.501647 
L 249.255722 247.967518 
L 249.975235 260.396211 
L 250.694749 257.319101 
L 251.414262 273.93874 
L 252.133776 282.05661 
L 252.853289 239.59439 
L 253.572803 254.464262 
L 254.292317 248.75254 
L 255.01183 233.149841 
L 255.731344 259.516112 
L 256.450857 274.338009 
L 257.170371 264.784629 
L 257.889884 228.378796 
L 258.609398 248.736511 
L 259.328911 255.729985 
L 260.048425 267.816862 
L 260.767938 270.04339 
L 261.487452 252.386354 
L 262.206966 248.479332 
L 262.926479 184.484493 
L 264.365506 255.209266 
L 265.08502 242.803407 
L 265.804533 255.484877 
L 266.524047 224.471259 
L 267.24356 205.030798 
L 267.963074 120.359398 
L 268.682587 192.56985 
L 269.402101 240.381127 
L 270.121614 233.668958 
L 270.841128 258.927655 
L 271.560642 272.150652 
L 272.280155 276.757577 
L 272.999669 253.178509 
L 274.438696 277.260422 
L 275.158209 281.773246 
L 275.877723 268.760749 
L 276.597236 233.323082 
L 277.31675 255.050882 
L 278.036263 251.746175 
L 278.755777 231.034494 
L 279.475291 259.343525 
L 280.194804 246.014746 
L 280.914318 258.403397 
L 281.633831 199.779083 
L 282.353345 202.740811 
L 283.072858 242.636114 
L 283.792372 245.577271 
L 284.511885 268.126347 
L 285.231399 261.542566 
L 285.950912 269.287727 
L 286.670426 272.334104 
L 287.389939 280.574469 
L 288.109453 280.147531 
L 288.828967 108.388022 
L 289.54848 198.504742 
L 290.267994 244.092214 
L 290.987507 204.071257 
L 291.707021 201.969327 
L 292.426534 246.14169 
L 293.146048 267.60455 
L 293.865561 264.417391 
L 294.585075 245.198162 
L 295.304588 267.456877 
L 296.024102 256.463085 
L 296.743616 248.050169 
L 297.463129 177.898083 
L 298.182643 138.41235 
L 298.902156 198.495251 
L 299.62167 202.384954 
L 300.341183 237.217415 
L 301.060697 262.190623 
L 301.78021 274.921846 
L 302.499724 235.978829 
L 303.219237 263.272295 
L 303.938751 231.611267 
L 304.658265 258.460314 
L 305.377778 268.85143 
L 306.097292 228.086886 
L 306.816805 220.995753 
L 307.536319 172.335192 
L 308.255832 164.587784 
L 308.975346 186.382415 
L 309.694859 198.658554 
L 310.414373 226.220471 
L 311.8534 263.794283 
L 312.572913 262.523609 
L 313.292427 255.502834 
L 314.011941 224.490609 
L 314.731454 255.246957 
L 315.450968 57.611878 
L 316.170481 161.809047 
L 316.889995 179.127694 
L 317.609508 206.793567 
L 318.329022 182.144206 
L 319.048535 233.960631 
L 319.768049 224.820376 
L 320.487562 238.949871 
L 321.207076 257.038102 
L 321.92659 270.927087 
L 322.646103 264.883291 
L 323.365617 272.888827 
L 324.08513 272.291123 
L 324.804644 272.822473 
L 325.524157 257.609127 
L 326.243671 266.692003 
L 326.963184 219.750755 
L 327.682698 204.811137 
L 328.402211 226.40445 
L 329.121725 197.540121 
L 329.841238 241.626376 
L 330.560752 263.791514 
L 331.280266 224.304417 
L 331.999779 246.157534 
L 332.719293 258.172779 
L 333.438806 267.481999 
L 334.15832 252.844154 
L 334.877833 252.434253 
L 335.597347 268.455496 
L 336.31686 278.428568 
L 337.036374 277.599015 
L 337.755887 249.884429 
L 338.475401 256.545011 
L 339.194915 273.196693 
L 339.914428 281.864765 
L 340.633942 248.530552 
L 341.353455 186.501387 
L 342.072969 238.675208 
L 343.511996 262.316716 
L 344.231509 146.591676 
L 344.951023 214.950628 
L 345.670536 252.583187 
L 346.39005 236.544311 
L 347.109563 246.323345 
L 347.829077 181.577391 
L 348.548591 193.723188 
L 349.268104 241.804099 
L 349.987618 266.363475 
L 350.707131 278.057671 
L 351.426645 162.54568 
L 352.146158 225.46904 
L 352.865672 255.583303 
L 353.585185 273.120899 
L 354.304699 281.413293 
L 355.024212 283.90483 
L 355.743726 264.52371 
L 356.46324 266.329355 
L 357.182753 270.55307 
L 357.902267 178.6396 
L 358.62178 232.927005 
L 359.341294 255.320788 
L 360.060807 273.004371 
L 360.780321 281.891609 
L 361.499834 266.608045 
L 362.219348 259.227777 
L 362.938861 275.074214 
L 363.658375 275.33348 
L 364.377888 243.515266 
L 365.097402 245.316398 
L 365.816916 225.964267 
L 366.536429 213.885997 
L 367.255943 210.229185 
L 368.69497 265.111542 
L 369.414483 242.501649 
L 370.133997 266.064895 
L 370.85351 234.758259 
L 371.573024 258.391198 
L 372.292537 221.175242 
L 373.012051 248.539218 
L 373.731565 144.868952 
L 374.451078 181.078461 
L 375.170592 235.777941 
L 375.890105 259.207778 
L 376.609619 230.314515 
L 377.329132 260.569219 
L 378.048646 259.0485 
L 378.768159 274.075578 
L 379.487673 257.332643 
L 380.207186 223.92849 
L 380.9267 176.852457 
L 381.646214 221.159322 
L 383.085241 263.66926 
L 383.804754 255.214196 
L 384.524268 272.901249 
L 385.243781 276.226339 
L 386.682808 255.592633 
L 387.402322 255.9581 
L 388.841349 267.46587 
L 389.560862 212.153862 
L 390.280376 240.00449 
L 390.99989 262.768495 
L 391.719403 222.269591 
L 392.438917 255.548724 
L 393.15843 255.603644 
L 393.877944 246.511297 
L 394.597457 172.547636 
L 395.316971 202.203078 
L 396.036484 243.514593 
L 396.755998 241.237868 
L 397.475511 216.910769 
L 398.195025 253.635991 
L 398.914539 238.813573 
L 399.634052 260.489822 
L 400.353566 272.71517 
L 401.792593 284.262556 
L 402.512106 287.437145 
L 403.23162 275.806527 
L 403.951133 253.743474 
L 404.670647 272.174203 
L 405.39016 268.288932 
L 406.109674 270.498953 
L 406.829187 268.620456 
L 407.548701 279.162059 
L 408.268215 282.920159 
L 408.987728 254.14795 
L 409.707242 267.622529 
L 410.426755 260.966108 
L 411.146269 234.208218 
L 411.865782 168.24456 
L 412.585296 164.466533 
L 413.304809 222.892699 
L 414.024323 250.02173 
L 414.743836 269.749019 
L 415.46335 233.668497 
L 416.902377 264.675344 
L 417.621891 262.012365 
L 418.341404 272.102286 
L 419.060918 274.863985 
L 419.780431 263.757423 
L 420.499945 225.485305 
L 421.219458 241.918732 
L 421.938972 265.872427 
L 422.658485 275.404125 
L 423.377999 259.829174 
L 424.097512 274.56192 
L 424.817026 221.583925 
L 425.53654 255.718241 
L 426.256053 270.528859 
L 426.975567 273.315569 
L 427.69508 258.764338 
L 428.414594 263.578464 
L 429.134107 273.931396 
L 429.853621 250.747363 
L 430.573134 244.770666 
L 431.292648 267.61972 
L 432.012161 251.219668 
L 432.012161 251.219668 
" clip-path="url(#p7279e787b9)" style="fill: none; stroke: #1f77b4; stroke-width: 1.5; stroke-linecap: square"/>
   </g>
   <g id="line2d_15">
    <path d="M 72.25539 282.792729 
L 72.974904 277.012769 
L 73.694418 275.615607 
L 74.413931 269.275426 
L 75.133445 273.648267 
L 75.852958 278.908909 
L 76.572472 280.966955 
L 77.291985 235.995724 
L 78.011499 259.618273 
L 78.731012 268.995659 
L 79.450526 263.698521 
L 80.170039 270.999809 
L 80.889553 274.390398 
L 81.609066 230.14105 
L 82.32858 204.344077 
L 83.767607 252.717407 
L 84.487121 259.429827 
L 85.206634 259.470245 
L 85.926148 268.337119 
L 86.645661 272.641309 
L 87.365175 260.219595 
L 88.084688 236.368761 
L 88.804202 234.45338 
L 89.523715 251.019911 
L 90.243229 263.098405 
L 90.962743 258.112308 
L 91.682256 265.116072 
L 92.40177 253.071775 
L 93.121283 238.356888 
L 93.840797 29.854158 
L 94.56031 144.458366 
L 95.279824 194.749846 
L 95.999337 226.573607 
L 96.718851 242.281855 
L 97.438364 242.789754 
L 98.157878 247.087775 
L 98.877391 267.072641 
L 99.596905 200.901581 
L 100.316419 234.296332 
L 101.035932 249.757327 
L 101.755446 261.185954 
L 102.474959 263.966518 
L 103.194473 204.159637 
L 103.913986 225.633487 
L 104.6335 237.054676 
L 105.353013 221.550285 
L 106.072527 247.974875 
L 106.79204 244.367483 
L 107.511554 254.098676 
L 108.231068 262.148023 
L 108.950581 202.110946 
L 109.670095 221.028363 
L 110.389608 232.450691 
L 111.109122 174.48393 
L 111.828635 224.140327 
L 112.548149 249.454563 
L 113.267662 177.85902 
L 113.987176 219.412776 
L 114.706689 250.864827 
L 115.426203 265.366989 
L 116.145716 275.004841 
L 116.86523 269.966181 
L 117.584744 267.383624 
L 118.304257 247.31067 
L 119.023771 238.916292 
L 119.743284 248.388054 
L 120.462798 251.880143 
L 121.901825 243.53444 
L 122.621338 262.837705 
L 123.340852 269.014453 
L 124.060365 229.936448 
L 124.779879 166.683048 
L 125.499393 188.080861 
L 126.218906 234.90715 
L 126.93842 210.763391 
L 127.657933 237.162322 
L 128.377447 252.11537 
L 129.09696 260.959909 
L 129.816474 178.206459 
L 130.535987 228.079202 
L 131.255501 245.738625 
L 131.975014 253.48337 
L 132.694528 249.938149 
L 133.414042 189.553726 
L 134.133555 230.445996 
L 134.853069 186.512101 
L 135.572582 168.113782 
L 136.292096 225.197595 
L 137.011609 250.089582 
L 137.731123 252.437493 
L 138.450636 210.336243 
L 139.17015 214.213486 
L 139.889663 239.189052 
L 140.609177 251.030892 
L 141.32869 248.615442 
L 142.048204 249.602491 
L 142.767718 260.94461 
L 143.487231 239.209378 
L 144.206745 253.605503 
L 144.926258 249.972798 
L 145.645772 256.396275 
L 146.365285 239.853526 
L 147.084799 263.532904 
L 147.804312 247.257517 
L 148.523826 212.821561 
L 149.243339 102.916118 
L 149.962853 187.623104 
L 150.682367 130.554345 
L 152.121394 225.447502 
L 152.840907 241.394331 
L 153.560421 232.43085 
L 154.999448 258.607435 
L 155.718961 268.721986 
L 156.438475 264.45531 
L 157.157988 269.21624 
L 157.877502 167.712651 
L 158.597015 155.351997 
L 159.316529 201.040619 
L 160.036043 238.467 
L 160.755556 208.491469 
L 161.47507 226.864644 
L 162.194583 226.363381 
L 162.914097 217.050412 
L 163.63361 243.945247 
L 164.353124 256.376764 
L 165.072637 253.490254 
L 165.792151 191.537708 
L 166.511664 205.526141 
L 167.231178 214.747165 
L 168.670205 241.798669 
L 170.109232 264.23773 
L 170.828746 271.84602 
L 171.548259 267.789504 
L 172.267773 259.334526 
L 172.987286 246.105457 
L 173.7068 261.959584 
L 175.145827 268.325667 
L 175.86534 158.596006 
L 176.584854 190.872421 
L 177.304368 157.088962 
L 178.023881 177.480153 
L 178.743395 181.624466 
L 179.462908 204.04844 
L 180.182422 230.890403 
L 180.901935 172.548496 
L 181.621449 221.984838 
L 182.340962 239.502657 
L 183.060476 241.015543 
L 183.779989 156.226291 
L 184.499503 215.146491 
L 185.219017 239.295777 
L 185.93853 238.140923 
L 186.658044 242.940508 
L 187.377557 249.238838 
L 188.097071 249.260809 
L 188.816584 257.800478 
L 189.536098 256.987113 
L 190.255611 84.024735 
L 190.975125 178.915033 
L 191.694638 221.938121 
L 192.414152 242.669527 
L 193.133665 202.257686 
L 193.853179 206.638707 
L 194.572693 234.994646 
L 195.292206 213.456825 
L 196.01172 244.56647 
L 196.731233 252.391754 
L 197.450747 258.3684 
L 198.17026 256.998636 
L 198.889774 267.629985 
L 199.609287 256.984779 
L 200.328801 195.17657 
L 201.048314 232.440486 
L 201.767828 248.779714 
L 202.487342 241.411184 
L 203.206855 251.550851 
L 203.926369 240.980273 
L 204.645882 259.014112 
L 206.084909 269.469393 
L 206.804423 270.364022 
L 207.523936 276.005431 
L 208.24345 254.775004 
L 208.962963 257.085665 
L 209.682477 261.186033 
L 210.401991 266.523001 
L 211.121504 257.795651 
L 211.841018 253.85454 
L 212.560531 228.541032 
L 213.999558 163.894118 
L 214.719072 209.791838 
L 215.438585 198.714186 
L 216.158099 233.212964 
L 216.877612 255.973154 
L 217.597126 248.634752 
L 218.316639 254.988514 
L 219.036153 251.905714 
L 219.755667 257.858955 
L 220.47518 223.329992 
L 221.194694 127.693481 
L 221.914207 201.087161 
L 223.353234 255.87741 
L 224.072748 261.266284 
L 224.792261 245.694098 
L 225.511775 237.392492 
L 226.231288 253.66508 
L 226.950802 119.125508 
L 227.670316 190.88739 
L 228.389829 224.260142 
L 229.109343 244.426581 
L 229.828856 259.313461 
L 230.54837 240.405734 
L 231.267883 259.348704 
L 231.987397 202.79717 
L 232.70691 236.830609 
L 233.426424 259.193025 
L 234.145937 259.659867 
L 234.865451 234.97423 
L 235.584964 256.531485 
L 236.304478 222.521856 
L 237.023992 247.949516 
L 237.743505 256.25115 
L 238.463019 256.67068 
L 239.182532 259.933681 
L 239.902046 269.911571 
L 240.621559 254.232592 
L 241.341073 246.316331 
L 242.060586 143.741369 
L 242.7801 213.75945 
L 243.499613 244.476865 
L 244.219127 249.990884 
L 244.938641 254.066624 
L 245.658154 242.42225 
L 247.097181 239.815493 
L 247.816695 230.366796 
L 248.536208 199.07263 
L 249.255722 196.205161 
L 249.975235 226.393585 
L 250.694749 250.976257 
L 251.414262 208.123237 
L 252.133776 225.105863 
L 252.853289 214.414331 
L 254.292317 242.766968 
L 255.01183 251.887573 
L 255.731344 245.171058 
L 256.450857 241.177176 
L 257.170371 246.740785 
L 257.889884 262.286 
L 258.609398 209.329432 
L 259.328911 239.06411 
L 260.048425 208.835981 
L 260.767938 223.982346 
L 261.487452 218.556923 
L 262.206966 193.990228 
L 262.926479 229.974518 
L 263.645993 222.890045 
L 264.365506 186.54788 
L 265.08502 216.106094 
L 265.804533 239.716949 
L 266.524047 254.096948 
L 267.963074 136.647824 
L 269.402101 206.399599 
L 270.121614 234.318633 
L 271.560642 260.234591 
L 272.280155 261.596331 
L 272.999669 261.465926 
L 273.719182 252.708632 
L 274.438696 263.866969 
L 275.158209 246.027439 
L 275.877723 261.011717 
L 276.597236 268.004511 
L 277.31675 219.48308 
L 278.036263 213.593136 
L 278.755777 236.92159 
L 279.475291 238.460989 
L 280.194804 250.969697 
L 280.914318 185.554868 
L 281.633831 216.245295 
L 282.353345 224.234387 
L 283.072858 235.048345 
L 283.792372 232.948742 
L 284.511885 236.370858 
L 285.231399 247.604859 
L 285.950912 214.807706 
L 286.670426 211.795461 
L 287.389939 245.536408 
L 288.109453 231.47395 
L 288.828967 258.149229 
L 289.54848 227.133683 
L 290.267994 234.373653 
L 290.987507 222.534037 
L 291.707021 234.141229 
L 292.426534 220.908572 
L 293.146048 226.185371 
L 293.865561 227.244675 
L 294.585075 242.978981 
L 295.304588 222.447983 
L 296.024102 229.202155 
L 296.743616 149.046983 
L 297.463129 207.194493 
L 298.182643 143.380307 
L 298.902156 134.355461 
L 299.62167 178.885532 
L 300.341183 201.25628 
L 301.060697 232.529345 
L 301.78021 253.756185 
L 302.499724 252.046981 
L 303.219237 249.368612 
L 303.938751 263.232898 
L 304.658265 262.232299 
L 305.377778 266.336066 
L 306.097292 272.021935 
L 306.816805 265.548132 
L 307.536319 208.95691 
L 308.255832 217.648607 
L 308.975346 221.929437 
L 309.694859 220.686032 
L 310.414373 224.134661 
L 311.133886 176.747108 
L 311.8534 218.753671 
L 312.572913 185.394348 
L 313.292427 228.215876 
L 314.011941 228.212688 
L 314.731454 242.222223 
L 315.450968 184.326481 
L 316.170481 175.388925 
L 316.889995 143.440932 
L 317.609508 132.06637 
L 318.329022 161.346514 
L 319.048535 181.586953 
L 319.768049 191.32687 
L 320.487562 204.312722 
L 321.207076 233.774277 
L 321.92659 253.635961 
L 322.646103 218.044909 
L 323.365617 221.905972 
L 324.08513 245.217385 
L 324.804644 260.412786 
L 325.524157 261.69719 
L 326.243671 171.186787 
L 326.963184 205.401533 
L 327.682698 196.696916 
L 328.402211 216.724372 
L 329.121725 220.094643 
L 329.841238 173.513523 
L 330.560752 207.608763 
L 331.280266 227.34297 
L 331.999779 233.483185 
L 332.719293 250.175424 
L 333.438806 261.463541 
L 334.15832 269.541525 
L 334.877833 262.705643 
L 335.597347 225.453926 
L 336.31686 251.343289 
L 337.036374 267.927949 
L 337.755887 271.290807 
L 338.475401 270.841705 
L 339.194915 272.288582 
L 339.914428 220.678481 
L 340.633942 243.413407 
L 342.072969 214.42487 
L 342.792482 226.426673 
L 343.511996 246.799247 
L 344.231509 252.979834 
L 344.951023 217.193649 
L 345.670536 234.641789 
L 346.39005 243.45468 
L 347.109563 249.975288 
L 347.829077 209.338674 
L 348.548591 199.325016 
L 349.987618 242.746115 
L 350.707131 259.528141 
L 351.426645 243.464651 
L 352.146158 232.553907 
L 352.865672 229.715611 
L 353.585185 250.508585 
L 354.304699 266.126054 
L 355.024212 275.395425 
L 355.743726 248.590929 
L 356.46324 244.366974 
L 357.182753 224.339518 
L 357.902267 239.710768 
L 358.62178 235.999348 
L 359.341294 224.271269 
L 360.780321 258.409748 
L 361.499834 202.720497 
L 362.219348 157.991884 
L 362.938861 216.232011 
L 363.658375 249.577529 
L 364.377888 256.34943 
L 365.097402 255.387137 
L 365.816916 197.034525 
L 366.536429 223.347706 
L 367.255943 209.158591 
L 367.975456 228.256843 
L 368.69497 214.249726 
L 369.414483 239.537982 
L 370.133997 246.096115 
L 370.85351 230.265337 
L 371.573024 224.434165 
L 372.292537 24.065455 
L 373.012051 138.796417 
L 373.731565 182.530939 
L 374.451078 195.504483 
L 375.170592 212.154038 
L 375.890105 215.046687 
L 376.609619 131.695478 
L 378.768159 231.773842 
L 379.487673 225.105166 
L 380.207186 187.406042 
L 380.9267 221.670136 
L 381.646214 206.88573 
L 382.365727 223.569191 
L 383.085241 231.370886 
L 383.804754 246.395285 
L 384.524268 249.618096 
L 385.963295 269.043087 
L 386.682808 271.063042 
L 387.402322 263.008407 
L 388.121835 265.353981 
L 388.841349 270.772816 
L 390.280376 239.173229 
L 390.99989 243.617403 
L 391.719403 259.091033 
L 392.438917 251.800022 
L 393.15843 148.925538 
L 393.877944 210.783238 
L 394.597457 230.124464 
L 395.316971 221.486944 
L 396.036484 219.875188 
L 396.755998 219.213677 
L 397.475511 242.54784 
L 398.195025 241.820185 
L 398.914539 217.863536 
L 399.634052 184.233107 
L 400.353566 227.618105 
L 401.073079 254.495414 
L 401.792593 269.58978 
L 402.512106 278.203136 
L 403.23162 283.612605 
L 403.951133 258.63893 
L 404.670647 258.393473 
L 405.39016 242.950492 
L 406.109674 259.502819 
L 406.829187 269.924816 
L 407.548701 262.142024 
L 408.268215 268.411294 
L 408.987728 270.380666 
L 409.707242 268.912589 
L 410.426755 252.207247 
L 411.146269 216.85158 
L 411.865782 191.240137 
L 412.585296 210.410868 
L 413.304809 217.576219 
L 414.024323 229.04441 
L 414.743836 187.114259 
L 415.46335 137.295118 
L 416.182864 176.1673 
L 416.902377 222.89522 
L 417.621891 242.837453 
L 418.341404 116.011271 
L 419.060918 187.963574 
L 419.780431 233.452332 
L 420.499945 242.044207 
L 421.219458 245.357077 
L 421.938972 218.165499 
L 422.658485 197.109477 
L 423.377999 38.615352 
L 424.097512 142.705003 
L 424.817026 205.292475 
L 425.53654 51.046364 
L 426.256053 157.744934 
L 426.975567 218.77759 
L 427.69508 248.250159 
L 428.414594 213.418653 
L 429.134107 244.862943 
L 429.853621 224.435777 
L 430.573134 228.192836 
L 431.292648 137.163492 
L 432.012161 192.274928 
L 432.012161 192.274928 
" clip-path="url(#p7279e787b9)" style="fill: none; stroke: #ff7f0e; stroke-width: 1.5; stroke-linecap: square"/>
   </g>
   <g id="line2d_16">
    <path d="M 72.25539 282.792729 
L 72.974904 287.032798 
L 73.694418 278.78287 
L 74.413931 280.836273 
L 75.133445 274.753527 
L 75.852958 256.454234 
L 76.572472 284.223247 
L 77.291985 271.080759 
L 78.011499 274.952634 
L 78.731012 224.934785 
L 79.450526 285.287807 
L 80.170039 131.509978 
L 80.889553 285.925508 
L 81.609066 279.277498 
L 82.32858 254.070532 
L 83.048094 264.163718 
L 83.767607 272.354847 
L 84.487121 272.399711 
L 85.206634 282.37396 
L 85.926148 283.033751 
L 86.645661 239.426045 
L 87.365175 279.799946 
L 88.084688 282.994178 
L 88.804202 271.147928 
L 89.523715 266.86209 
L 90.243229 278.634266 
L 90.962743 240.65336 
L 91.682256 253.993335 
L 92.40177 271.569126 
L 93.121283 281.26167 
L 93.840797 276.774789 
L 94.56031 222.707956 
L 95.279824 254.08168 
L 95.999337 263.963294 
L 96.718851 214.160788 
L 97.438364 276.240206 
L 98.157878 269.500702 
L 98.877391 243.943516 
L 99.596905 284.751583 
L 100.316419 268.42012 
L 101.035932 270.410471 
L 101.755446 250.788878 
L 102.474959 261.191469 
L 103.194473 273.248095 
L 103.913986 228.705504 
L 104.6335 274.595958 
L 105.353013 272.671332 
L 106.072527 227.470026 
L 106.79204 271.416211 
L 107.511554 259.24996 
L 108.231068 272.448888 
L 108.950581 267.232619 
L 109.670095 268.575518 
L 110.389608 217.25279 
L 111.109122 247.064262 
L 111.828635 261.717991 
L 112.548149 244.571442 
L 113.267662 220.809835 
L 113.987176 258.189947 
L 114.706689 240.879754 
L 115.426203 280.901847 
L 116.145716 283.627821 
L 116.86523 267.570789 
L 118.304257 280.927313 
L 119.023771 277.119647 
L 119.743284 271.479027 
L 120.462798 268.091455 
L 121.182311 214.743881 
L 121.901825 242.179705 
L 122.621338 264.371013 
L 123.340852 231.612236 
L 124.060365 271.465755 
L 124.779879 269.175719 
L 125.499393 251.695573 
L 126.218906 265.173877 
L 126.93842 276.474621 
L 127.657933 269.401745 
L 128.377447 276.900605 
L 129.09696 220.158462 
L 129.816474 267.874407 
L 130.535987 261.754867 
L 131.255501 270.784597 
L 131.975014 276.745011 
L 132.694528 270.47301 
L 133.414042 258.01321 
L 134.133555 259.518099 
L 134.853069 269.962441 
L 135.572582 248.688503 
L 136.292096 260.136911 
L 137.011609 237.211028 
L 137.731123 276.287107 
L 138.450636 265.424808 
L 139.17015 221.328557 
L 139.889663 227.399008 
L 140.609177 277.60735 
L 141.32869 272.816236 
L 142.048204 266.856282 
L 142.767718 273.783607 
L 143.487231 282.465643 
L 144.206745 265.258761 
L 144.926258 269.839488 
L 145.645772 278.391046 
L 146.365285 269.207195 
L 147.084799 277.558706 
L 147.804312 243.93782 
L 148.523826 268.968705 
L 149.243339 269.83402 
L 149.962853 243.923245 
L 150.682367 263.784475 
L 151.40188 204.485369 
L 152.121394 262.020003 
L 152.840907 271.71096 
L 153.560421 259.317745 
L 154.279934 252.126705 
L 154.999448 278.220901 
L 155.718961 282.697243 
L 156.438475 285.215969 
L 157.157988 284.257049 
L 157.877502 208.514631 
L 158.597015 251.601417 
L 159.316529 211.972943 
L 160.036043 263.67459 
L 160.755556 260.265976 
L 161.47507 270.297565 
L 162.194583 272.667161 
L 162.914097 255.1279 
L 163.63361 227.632801 
L 164.353124 273.688176 
L 165.072637 232.430402 
L 165.792151 264.889721 
L 166.511664 250.110284 
L 167.231178 256.690363 
L 167.950692 271.533056 
L 168.670205 264.300867 
L 169.389719 277.979654 
L 170.109232 273.862356 
L 170.828746 284.156255 
L 171.548259 284.934617 
L 172.267773 172.226086 
L 172.987286 263.155028 
L 173.7068 254.948344 
L 174.426313 244.542684 
L 175.145827 283.705413 
L 175.86534 277.58199 
L 176.584854 232.786682 
L 177.304368 263.140429 
L 178.023881 255.26045 
L 178.743395 258.109363 
L 179.462908 257.341103 
L 180.182422 267.749863 
L 180.901935 275.846511 
L 181.621449 239.569919 
L 182.340962 265.971795 
L 183.060476 204.914105 
L 183.779989 276.982265 
L 184.499503 253.96521 
L 185.219017 256.813348 
L 185.93853 192.256081 
L 186.658044 218.657236 
L 187.377557 278.818362 
L 188.097071 274.652675 
L 188.816584 237.180024 
L 189.536098 269.106567 
L 190.255611 275.941566 
L 190.975125 166.277856 
L 191.694638 262.923625 
L 192.414152 273.351037 
L 193.133665 278.603869 
L 193.853179 236.914809 
L 194.572693 268.882894 
L 195.292206 276.937293 
L 196.01172 270.983298 
L 196.731233 266.618886 
L 197.450747 280.002357 
L 198.17026 281.90276 
L 198.889774 268.362138 
L 199.609287 229.188108 
L 200.328801 282.426639 
L 201.048314 259.221496 
L 201.767828 276.282984 
L 202.487342 276.815834 
L 203.206855 276.633043 
L 203.926369 249.503917 
L 204.645882 278.298249 
L 205.365396 280.948466 
L 206.084909 280.027004 
L 206.804423 178.671634 
L 207.523936 285.64232 
L 208.24345 244.91696 
L 208.962963 281.642642 
L 209.682477 281.677221 
L 210.401991 278.036936 
L 211.121504 249.838354 
L 211.841018 267.656502 
L 212.560531 281.143883 
L 213.280045 215.708889 
L 213.999558 264.816502 
L 214.719072 258.677351 
L 215.438585 266.180416 
L 216.158099 260.243608 
L 216.877612 231.554792 
L 218.316639 261.061334 
L 219.036153 254.084074 
L 219.755667 274.534202 
L 220.47518 241.215145 
L 221.194694 238.615001 
L 221.914207 237.375008 
L 222.633721 212.871593 
L 223.353234 254.634151 
L 224.072748 278.567968 
L 224.792261 270.338563 
L 225.511775 259.166179 
L 226.231288 207.893783 
L 226.950802 279.728373 
L 227.670316 242.082022 
L 228.389829 262.043801 
L 229.109343 95.713321 
L 229.828856 278.219464 
L 230.54837 254.134258 
L 231.267883 275.785291 
L 231.987397 217.073756 
L 232.70691 219.564564 
L 233.426424 261.930735 
L 234.145937 276.15875 
L 234.865451 239.552544 
L 235.584964 276.758187 
L 236.304478 276.608305 
L 237.023992 273.655272 
L 237.743505 279.34027 
L 238.463019 273.243923 
L 239.182532 277.782647 
L 239.902046 279.455108 
L 240.621559 272.594547 
L 241.341073 238.303026 
L 242.060586 257.180512 
L 242.7801 239.07234 
L 243.499613 261.719551 
L 244.219127 278.010656 
L 244.938641 230.185392 
L 245.658154 275.002432 
L 246.377668 266.885553 
L 247.097181 246.618837 
L 247.816695 268.962712 
L 248.536208 220.788855 
L 249.255722 266.50939 
L 249.975235 267.140405 
L 250.694749 255.701215 
L 251.414262 273.154282 
L 252.133776 270.108177 
L 252.853289 162.127374 
L 253.572803 271.663035 
L 254.292317 270.850868 
L 255.01183 275.812916 
L 255.731344 218.816514 
L 256.450857 276.71363 
L 257.170371 229.524015 
L 257.889884 206.336428 
L 258.609398 282.19589 
L 259.328911 270.399314 
L 260.048425 276.464687 
L 260.767938 195.867012 
L 261.487452 229.151929 
L 262.206966 255.471733 
L 262.926479 251.277279 
L 263.645993 258.876887 
L 264.365506 240.657496 
L 265.08502 262.35561 
L 265.804533 265.900919 
L 266.524047 277.969882 
L 267.24356 274.028155 
L 267.963074 244.925996 
L 268.682587 248.37474 
L 269.402101 218.208963 
L 270.121614 265.672208 
L 270.841128 273.878986 
L 271.560642 266.050927 
L 272.280155 269.448026 
L 273.719182 281.291179 
L 274.438696 274.979909 
L 275.158209 278.774571 
L 275.877723 49.519237 
L 276.597236 232.995823 
L 277.31675 283.393886 
L 278.036263 260.492128 
L 278.755777 244.369725 
L 279.475291 272.334798 
L 280.194804 207.193105 
L 280.914318 268.526628 
L 281.633831 264.07124 
L 282.353345 245.589519 
L 283.072858 245.125353 
L 283.792372 275.978471 
L 284.511885 274.652064 
L 285.231399 248.191276 
L 286.670426 268.239874 
L 287.389939 266.797008 
L 288.109453 270.162013 
L 288.828967 266.251131 
L 289.54848 257.212795 
L 290.267994 261.692275 
L 290.987507 276.657691 
L 291.707021 235.424818 
L 292.426534 269.001268 
L 293.146048 272.24702 
L 293.865561 250.151392 
L 294.585075 244.978519 
L 295.304588 246.205443 
L 296.024102 273.498713 
L 296.743616 269.505384 
L 297.463129 254.032644 
L 298.182643 262.963265 
L 298.902156 252.898441 
L 299.62167 246.62534 
L 300.341183 151.438114 
L 301.060697 266.604371 
L 301.78021 275.538136 
L 302.499724 281.463811 
L 303.219237 219.266103 
L 303.938751 220.845402 
L 304.658265 279.896927 
L 305.377778 260.135559 
L 306.097292 277.400186 
L 306.816805 283.760115 
L 307.536319 282.079478 
L 308.255832 268.178153 
L 308.975346 215.050214 
L 309.694859 270.148624 
L 310.414373 157.681376 
L 311.133886 273.822083 
L 311.8534 255.465531 
L 312.572913 263.674769 
L 313.292427 214.598559 
L 314.011941 273.267545 
L 314.731454 238.26401 
L 315.450968 275.599936 
L 316.170481 235.448325 
L 316.889995 260.974638 
L 317.609508 243.625784 
L 318.329022 250.334872 
L 319.048535 251.415231 
L 319.768049 261.216719 
L 320.487562 262.188578 
L 321.207076 222.555308 
L 321.92659 273.798088 
L 322.646103 211.826367 
L 323.365617 268.824011 
L 324.08513 243.467651 
L 324.804644 273.120989 
L 325.524157 254.869781 
L 326.243671 228.689438 
L 326.963184 260.693385 
L 327.682698 264.969251 
L 328.402211 254.448178 
L 329.121725 255.151977 
L 329.841238 248.872615 
L 330.560752 255.751235 
L 331.280266 198.049899 
L 331.999779 274.868264 
L 332.719293 242.536259 
L 333.438806 255.206766 
L 334.15832 282.957887 
L 334.877833 285.578354 
L 335.597347 277.110006 
L 336.31686 274.446611 
L 337.036374 261.510238 
L 337.755887 282.524161 
L 338.475401 285.950425 
L 339.194915 283.892903 
L 339.914428 243.702205 
L 340.633942 273.107285 
L 341.353455 153.601033 
L 342.072969 274.490669 
L 342.792482 269.961151 
L 343.511996 261.875157 
L 344.231509 275.634821 
L 344.951023 275.22604 
L 345.670536 269.223303 
L 346.39005 275.029176 
L 347.109563 278.890271 
L 347.829077 274.194463 
L 348.548591 227.669701 
L 349.268104 267.56271 
L 349.987618 257.336573 
L 350.707131 278.203815 
L 351.426645 275.805956 
L 352.865672 244.73495 
L 353.585185 275.29066 
L 354.304699 236.296827 
L 355.024212 284.709897 
L 355.743726 286.743681 
L 356.46324 280.292093 
L 357.182753 279.036765 
L 357.902267 195.585622 
L 358.62178 277.752605 
L 359.341294 271.023084 
L 360.060807 257.102082 
L 360.780321 258.7883 
L 361.499834 281.199307 
L 362.219348 268.737804 
L 362.938861 223.204365 
L 363.658375 251.973642 
L 364.377888 252.074537 
L 365.097402 246.029923 
L 365.816916 277.812481 
L 366.536429 256.765536 
L 367.255943 227.829119 
L 367.975456 264.073979 
L 368.69497 272.2345 
L 369.414483 250.77181 
L 370.133997 272.458354 
L 370.85351 239.438717 
L 371.573024 274.174808 
L 372.292537 272.572252 
L 373.012051 221.228474 
L 374.451078 255.196537 
L 375.170592 263.957677 
L 375.890105 270.249791 
L 376.609619 251.453289 
L 377.329132 218.678416 
L 378.048646 250.607538 
L 378.768159 260.939232 
L 379.487673 260.019378 
L 380.9267 243.904204 
L 381.646214 260.576548 
L 382.365727 269.915589 
L 383.085241 273.666344 
L 383.804754 244.975686 
L 384.524268 279.78807 
L 385.243781 252.226373 
L 385.963295 277.033581 
L 386.682808 276.555682 
L 387.402322 264.921839 
L 388.121835 282.904939 
L 388.841349 279.662849 
L 390.280376 256.55835 
L 390.99989 276.83942 
L 391.719403 245.039002 
L 392.438917 277.800249 
L 393.877944 244.047054 
L 394.597457 266.004417 
L 395.316971 224.872906 
L 396.036484 273.461422 
L 396.755998 271.482808 
L 397.475511 254.248612 
L 398.195025 252.723518 
L 398.914539 278.645307 
L 399.634052 174.266105 
L 400.353566 235.825101 
L 401.073079 275.097442 
L 401.792593 281.359566 
L 402.512106 282.935959 
L 403.23162 285.082151 
L 403.951133 276.271864 
L 404.670647 282.850418 
L 405.39016 196.300693 
L 406.109674 276.002276 
L 406.829187 271.37314 
L 407.548701 285.578029 
L 408.268215 281.118134 
L 408.987728 283.344402 
L 409.707242 202.549141 
L 410.426755 253.763851 
L 411.146269 167.535247 
L 411.865782 272.398458 
L 412.585296 265.656251 
L 413.304809 230.026199 
L 414.024323 261.172195 
L 414.743836 270.29312 
L 415.46335 253.724217 
L 416.182864 185.568831 
L 416.902377 258.049077 
L 417.621891 273.52487 
L 418.341404 204.208318 
L 419.060918 245.610072 
L 419.780431 264.712398 
L 420.499945 238.901814 
L 421.219458 278.686463 
L 421.938972 272.070453 
L 422.658485 272.603944 
L 423.377999 267.459831 
L 424.097512 223.024416 
L 424.817026 211.205835 
L 425.53654 251.922688 
L 426.256053 219.888744 
L 426.975567 196.666712 
L 427.69508 270.604418 
L 428.414594 273.666435 
L 429.134107 222.817923 
L 429.853621 186.181449 
L 430.573134 262.257045 
L 431.292648 259.435927 
L 432.012161 244.480443 
L 432.012161 244.480443 
" clip-path="url(#p7279e787b9)" style="fill: none; stroke: #2ca02c; stroke-width: 1.5; stroke-linecap: square"/>
   </g>
   <g id="patch_3">
    <path d="M 54.267552 302.64 
L 54.267552 10.8 
" style="fill: none; stroke: #000000; stroke-width: 0.8; stroke-linejoin: miter; stroke-linecap: square"/>
   </g>
   <g id="patch_4">
    <path d="M 450 302.64 
L 450 10.8 
" style="fill: none; stroke: #000000; stroke-width: 0.8; stroke-linejoin: miter; stroke-linecap: square"/>
   </g>
   <g id="patch_5">
    <path d="M 54.267552 302.64 
L 450 302.64 
" style="fill: none; stroke: #000000; stroke-width: 0.8; stroke-linejoin: miter; stroke-linecap: square"/>
   </g>
   <g id="patch_6">
    <path d="M 54.267552 10.8 
L 450 10.8 
" style="fill: none; stroke: #000000; stroke-width: 0.8; stroke-linejoin: miter; stroke-linecap: square"/>
   </g>
  </g>
 </g>
 <defs>
  <clipPath id="p7279e787b9">
   <rect x="54.267552" y="10.8" width="395.732448" height="291.84"/>
  </clipPath>
 </defs>
</svg>
