<?xml version="1.0" encoding="utf-8" standalone="no"?>
<!DOCTYPE svg PUBLIC "-//W3C//DTD SVG 1.1//EN"
  "http://www.w3.org/Graphics/SVG/1.1/DTD/svg11.dtd">
<svg xmlns:xlink="http://www.w3.org/1999/xlink" width="460.8pt" height="345.6pt" viewBox="0 0 460.8 345.6" xmlns="http://www.w3.org/2000/svg" version="1.1">
 <metadata>
  <rdf:RDF xmlns:dc="http://purl.org/dc/elements/1.1/" xmlns:cc="http://creativecommons.org/ns#" xmlns:rdf="http://www.w3.org/1999/02/22-rdf-syntax-ns#">
   <cc:Work>
    <dc:type rdf:resource="http://purl.org/dc/dcmitype/StillImage"/>
    <dc:date>2023-09-22T23:23:04.980607</dc:date>
    <dc:format>image/svg+xml</dc:format>
    <dc:creator>
     <cc:Agent>
      <dc:title>Matplotlib v3.7.1, https://matplotlib.org/</dc:title>
     </cc:Agent>
    </dc:creator>
   </cc:Work>
  </rdf:RDF>
 </metadata>
 <defs>
  <style type="text/css">*{stroke-linejoin: round; stroke-linecap: butt}</style>
 </defs>
 <g id="figure_1">
  <g id="patch_1">
   <path d="M 0 345.6 
L 460.8 345.6 
L 460.8 0 
L 0 0 
z
" style="fill: #ffffff"/>
  </g>
  <g id="axes_1">
   <g id="patch_2">
    <path d="M 46.797552 302.64 
L 450 302.64 
L 450 10.8 
L 46.797552 10.8 
z
" style="fill: #ffffff"/>
   </g>
   <g id="matplotlib.axis_1">
    <g id="xtick_1">
     <g id="line2d_1">
      <defs>
       <path id="mdb2abf0228" d="M 0 0 
L 0 -3.5 
" style="stroke: #000000; stroke-width: 0.8"/>
      </defs>
      <g>
       <use xlink:href="#mdb2abf0228" x="65.124936" y="302.64" style="stroke: #000000; stroke-width: 0.8"/>
      </g>
     </g>
     <g id="text_1">
      <!-- 0 -->
      <g transform="translate(61.374936 316.555625) scale(0.15 -0.15)">
       <defs>
        <path id="TimesNewRomanPSMT-30" d="M 231 2094 
Q 231 2819 450 3342 
Q 669 3866 1031 4122 
Q 1313 4325 1613 4325 
Q 2100 4325 2488 3828 
Q 2972 3213 2972 2159 
Q 2972 1422 2759 906 
Q 2547 391 2217 158 
Q 1888 -75 1581 -75 
Q 975 -75 572 641 
Q 231 1244 231 2094 
z
M 844 2016 
Q 844 1141 1059 588 
Q 1238 122 1591 122 
Q 1759 122 1940 273 
Q 2122 425 2216 781 
Q 2359 1319 2359 2297 
Q 2359 3022 2209 3506 
Q 2097 3866 1919 4016 
Q 1791 4119 1609 4119 
Q 1397 4119 1231 3928 
Q 1006 3669 925 3112 
Q 844 2556 844 2016 
z
" transform="scale(0.015625)"/>
       </defs>
       <use xlink:href="#TimesNewRomanPSMT-30"/>
      </g>
     </g>
    </g>
    <g id="xtick_2">
     <g id="line2d_2">
      <g>
       <use xlink:href="#mdb2abf0228" x="138.434472" y="302.64" style="stroke: #000000; stroke-width: 0.8"/>
      </g>
     </g>
     <g id="text_2">
      <!-- 100 -->
      <g transform="translate(127.184472 316.555625) scale(0.15 -0.15)">
       <defs>
        <path id="TimesNewRomanPSMT-31" d="M 750 3822 
L 1781 4325 
L 1884 4325 
L 1884 747 
Q 1884 391 1914 303 
Q 1944 216 2037 169 
Q 2131 122 2419 116 
L 2419 0 
L 825 0 
L 825 116 
Q 1125 122 1212 167 
Q 1300 213 1334 289 
Q 1369 366 1369 747 
L 1369 3034 
Q 1369 3497 1338 3628 
Q 1316 3728 1258 3775 
Q 1200 3822 1119 3822 
Q 1003 3822 797 3725 
L 750 3822 
z
" transform="scale(0.015625)"/>
       </defs>
       <use xlink:href="#TimesNewRomanPSMT-31"/>
       <use xlink:href="#TimesNewRomanPSMT-30" x="50"/>
       <use xlink:href="#TimesNewRomanPSMT-30" x="100"/>
      </g>
     </g>
    </g>
    <g id="xtick_3">
     <g id="line2d_3">
      <g>
       <use xlink:href="#mdb2abf0228" x="211.744008" y="302.64" style="stroke: #000000; stroke-width: 0.8"/>
      </g>
     </g>
     <g id="text_3">
      <!-- 200 -->
      <g transform="translate(200.494008 316.555625) scale(0.15 -0.15)">
       <defs>
        <path id="TimesNewRomanPSMT-32" d="M 2934 816 
L 2638 0 
L 138 0 
L 138 116 
Q 1241 1122 1691 1759 
Q 2141 2397 2141 2925 
Q 2141 3328 1894 3587 
Q 1647 3847 1303 3847 
Q 991 3847 742 3664 
Q 494 3481 375 3128 
L 259 3128 
Q 338 3706 661 4015 
Q 984 4325 1469 4325 
Q 1984 4325 2329 3994 
Q 2675 3663 2675 3213 
Q 2675 2891 2525 2569 
Q 2294 2063 1775 1497 
Q 997 647 803 472 
L 1909 472 
Q 2247 472 2383 497 
Q 2519 522 2628 598 
Q 2738 675 2819 816 
L 2934 816 
z
" transform="scale(0.015625)"/>
       </defs>
       <use xlink:href="#TimesNewRomanPSMT-32"/>
       <use xlink:href="#TimesNewRomanPSMT-30" x="50"/>
       <use xlink:href="#TimesNewRomanPSMT-30" x="100"/>
      </g>
     </g>
    </g>
    <g id="xtick_4">
     <g id="line2d_4">
      <g>
       <use xlink:href="#mdb2abf0228" x="285.053544" y="302.64" style="stroke: #000000; stroke-width: 0.8"/>
      </g>
     </g>
     <g id="text_4">
      <!-- 300 -->
      <g transform="translate(273.803544 316.555625) scale(0.15 -0.15)">
       <defs>
        <path id="TimesNewRomanPSMT-33" d="M 325 3431 
Q 506 3859 782 4092 
Q 1059 4325 1472 4325 
Q 1981 4325 2253 3994 
Q 2459 3747 2459 3466 
Q 2459 3003 1878 2509 
Q 2269 2356 2469 2072 
Q 2669 1788 2669 1403 
Q 2669 853 2319 450 
Q 1863 -75 997 -75 
Q 569 -75 414 31 
Q 259 138 259 259 
Q 259 350 332 419 
Q 406 488 509 488 
Q 588 488 669 463 
Q 722 447 909 348 
Q 1097 250 1169 231 
Q 1284 197 1416 197 
Q 1734 197 1970 444 
Q 2206 691 2206 1028 
Q 2206 1275 2097 1509 
Q 2016 1684 1919 1775 
Q 1784 1900 1550 2001 
Q 1316 2103 1072 2103 
L 972 2103 
L 972 2197 
Q 1219 2228 1467 2375 
Q 1716 2522 1828 2728 
Q 1941 2934 1941 3181 
Q 1941 3503 1739 3701 
Q 1538 3900 1238 3900 
Q 753 3900 428 3381 
L 325 3431 
z
" transform="scale(0.015625)"/>
       </defs>
       <use xlink:href="#TimesNewRomanPSMT-33"/>
       <use xlink:href="#TimesNewRomanPSMT-30" x="50"/>
       <use xlink:href="#TimesNewRomanPSMT-30" x="100"/>
      </g>
     </g>
    </g>
    <g id="xtick_5">
     <g id="line2d_5">
      <g>
       <use xlink:href="#mdb2abf0228" x="358.36308" y="302.64" style="stroke: #000000; stroke-width: 0.8"/>
      </g>
     </g>
     <g id="text_5">
      <!-- 400 -->
      <g transform="translate(347.11308 316.555625) scale(0.15 -0.15)">
       <defs>
        <path id="TimesNewRomanPSMT-34" d="M 2978 1563 
L 2978 1119 
L 2409 1119 
L 2409 0 
L 1894 0 
L 1894 1119 
L 100 1119 
L 100 1519 
L 2066 4325 
L 2409 4325 
L 2409 1563 
L 2978 1563 
z
M 1894 1563 
L 1894 3666 
L 406 1563 
L 1894 1563 
z
" transform="scale(0.015625)"/>
       </defs>
       <use xlink:href="#TimesNewRomanPSMT-34"/>
       <use xlink:href="#TimesNewRomanPSMT-30" x="50"/>
       <use xlink:href="#TimesNewRomanPSMT-30" x="100"/>
      </g>
     </g>
    </g>
    <g id="xtick_6">
     <g id="line2d_6">
      <g>
       <use xlink:href="#mdb2abf0228" x="431.672616" y="302.64" style="stroke: #000000; stroke-width: 0.8"/>
      </g>
     </g>
     <g id="text_6">
      <!-- 500 -->
      <g transform="translate(420.422616 316.555625) scale(0.15 -0.15)">
       <defs>
        <path id="TimesNewRomanPSMT-35" d="M 2778 4238 
L 2534 3706 
L 1259 3706 
L 981 3138 
Q 1809 3016 2294 2522 
Q 2709 2097 2709 1522 
Q 2709 1188 2573 903 
Q 2438 619 2231 419 
Q 2025 219 1772 97 
Q 1413 -75 1034 -75 
Q 653 -75 479 54 
Q 306 184 306 341 
Q 306 428 378 495 
Q 450 563 559 563 
Q 641 563 702 538 
Q 763 513 909 409 
Q 1144 247 1384 247 
Q 1750 247 2026 523 
Q 2303 800 2303 1197 
Q 2303 1581 2056 1914 
Q 1809 2247 1375 2428 
Q 1034 2569 447 2591 
L 1259 4238 
L 2778 4238 
z
" transform="scale(0.015625)"/>
       </defs>
       <use xlink:href="#TimesNewRomanPSMT-35"/>
       <use xlink:href="#TimesNewRomanPSMT-30" x="50"/>
       <use xlink:href="#TimesNewRomanPSMT-30" x="100"/>
      </g>
     </g>
    </g>
    <g id="text_7">
     <!-- Time (arbitrary unit) -->
     <g transform="translate(207.202682 330.707969) scale(0.1 -0.1)">
      <defs>
       <path id="TimesNewRomanPSMT-54" d="M 3703 4238 
L 3750 3244 
L 3631 3244 
Q 3597 3506 3538 3619 
Q 3441 3800 3280 3886 
Q 3119 3972 2856 3972 
L 2259 3972 
L 2259 734 
Q 2259 344 2344 247 
Q 2463 116 2709 116 
L 2856 116 
L 2856 0 
L 1059 0 
L 1059 116 
L 1209 116 
Q 1478 116 1591 278 
Q 1659 378 1659 734 
L 1659 3972 
L 1150 3972 
Q 853 3972 728 3928 
Q 566 3869 450 3700 
Q 334 3531 313 3244 
L 194 3244 
L 244 4238 
L 3703 4238 
z
" transform="scale(0.015625)"/>
       <path id="TimesNewRomanPSMT-69" d="M 928 4444 
Q 1059 4444 1151 4351 
Q 1244 4259 1244 4128 
Q 1244 3997 1151 3903 
Q 1059 3809 928 3809 
Q 797 3809 703 3903 
Q 609 3997 609 4128 
Q 609 4259 701 4351 
Q 794 4444 928 4444 
z
M 1188 2947 
L 1188 647 
Q 1188 378 1227 289 
Q 1266 200 1342 156 
Q 1419 113 1622 113 
L 1622 0 
L 231 0 
L 231 113 
Q 441 113 512 153 
Q 584 194 626 287 
Q 669 381 669 647 
L 669 1750 
Q 669 2216 641 2353 
Q 619 2453 572 2492 
Q 525 2531 444 2531 
Q 356 2531 231 2484 
L 188 2597 
L 1050 2947 
L 1188 2947 
z
" transform="scale(0.015625)"/>
       <path id="TimesNewRomanPSMT-6d" d="M 1050 2338 
Q 1363 2650 1419 2697 
Q 1559 2816 1721 2881 
Q 1884 2947 2044 2947 
Q 2313 2947 2506 2790 
Q 2700 2634 2766 2338 
Q 3088 2713 3309 2830 
Q 3531 2947 3766 2947 
Q 3994 2947 4170 2830 
Q 4347 2713 4450 2447 
Q 4519 2266 4519 1878 
L 4519 647 
Q 4519 378 4559 278 
Q 4591 209 4675 161 
Q 4759 113 4950 113 
L 4950 0 
L 3538 0 
L 3538 113 
L 3597 113 
Q 3781 113 3884 184 
Q 3956 234 3988 344 
Q 4000 397 4000 647 
L 4000 1878 
Q 4000 2228 3916 2372 
Q 3794 2572 3525 2572 
Q 3359 2572 3192 2489 
Q 3025 2406 2788 2181 
L 2781 2147 
L 2788 2013 
L 2788 647 
Q 2788 353 2820 281 
Q 2853 209 2943 161 
Q 3034 113 3253 113 
L 3253 0 
L 1806 0 
L 1806 113 
Q 2044 113 2133 169 
Q 2222 225 2256 338 
Q 2272 391 2272 647 
L 2272 1878 
Q 2272 2228 2169 2381 
Q 2031 2581 1784 2581 
Q 1616 2581 1450 2491 
Q 1191 2353 1050 2181 
L 1050 647 
Q 1050 366 1089 281 
Q 1128 197 1204 155 
Q 1281 113 1516 113 
L 1516 0 
L 100 0 
L 100 113 
Q 297 113 375 155 
Q 453 197 493 289 
Q 534 381 534 647 
L 534 1741 
Q 534 2213 506 2350 
Q 484 2453 437 2492 
Q 391 2531 309 2531 
Q 222 2531 100 2484 
L 53 2597 
L 916 2947 
L 1050 2947 
L 1050 2338 
z
" transform="scale(0.015625)"/>
       <path id="TimesNewRomanPSMT-65" d="M 681 1784 
Q 678 1147 991 784 
Q 1303 422 1725 422 
Q 2006 422 2214 576 
Q 2422 731 2563 1106 
L 2659 1044 
Q 2594 616 2278 264 
Q 1963 -88 1488 -88 
Q 972 -88 605 314 
Q 238 716 238 1394 
Q 238 2128 614 2539 
Q 991 2950 1559 2950 
Q 2041 2950 2350 2633 
Q 2659 2316 2659 1784 
L 681 1784 
z
M 681 1966 
L 2006 1966 
Q 1991 2241 1941 2353 
Q 1863 2528 1708 2628 
Q 1553 2728 1384 2728 
Q 1125 2728 920 2526 
Q 716 2325 681 1966 
z
" transform="scale(0.015625)"/>
       <path id="TimesNewRomanPSMT-20" transform="scale(0.015625)"/>
       <path id="TimesNewRomanPSMT-28" d="M 1988 -1253 
L 1988 -1369 
Q 1516 -1131 1200 -813 
Q 750 -359 506 256 
Q 263 872 263 1534 
Q 263 2503 741 3301 
Q 1219 4100 1988 4444 
L 1988 4313 
Q 1603 4100 1356 3731 
Q 1109 3363 987 2797 
Q 866 2231 866 1616 
Q 866 947 969 400 
Q 1050 -31 1165 -292 
Q 1281 -553 1476 -793 
Q 1672 -1034 1988 -1253 
z
" transform="scale(0.015625)"/>
       <path id="TimesNewRomanPSMT-61" d="M 1822 413 
Q 1381 72 1269 19 
Q 1100 -59 909 -59 
Q 613 -59 420 144 
Q 228 347 228 678 
Q 228 888 322 1041 
Q 450 1253 767 1440 
Q 1084 1628 1822 1897 
L 1822 2009 
Q 1822 2438 1686 2597 
Q 1550 2756 1291 2756 
Q 1094 2756 978 2650 
Q 859 2544 859 2406 
L 866 2225 
Q 866 2081 792 2003 
Q 719 1925 600 1925 
Q 484 1925 411 2006 
Q 338 2088 338 2228 
Q 338 2497 613 2722 
Q 888 2947 1384 2947 
Q 1766 2947 2009 2819 
Q 2194 2722 2281 2516 
Q 2338 2381 2338 1966 
L 2338 994 
Q 2338 584 2353 492 
Q 2369 400 2405 369 
Q 2441 338 2488 338 
Q 2538 338 2575 359 
Q 2641 400 2828 588 
L 2828 413 
Q 2478 -56 2159 -56 
Q 2006 -56 1915 50 
Q 1825 156 1822 413 
z
M 1822 616 
L 1822 1706 
Q 1350 1519 1213 1441 
Q 966 1303 859 1153 
Q 753 1003 753 825 
Q 753 600 887 451 
Q 1022 303 1197 303 
Q 1434 303 1822 616 
z
" transform="scale(0.015625)"/>
       <path id="TimesNewRomanPSMT-72" d="M 1038 2947 
L 1038 2303 
Q 1397 2947 1775 2947 
Q 1947 2947 2059 2842 
Q 2172 2738 2172 2600 
Q 2172 2478 2090 2393 
Q 2009 2309 1897 2309 
Q 1788 2309 1652 2417 
Q 1516 2525 1450 2525 
Q 1394 2525 1328 2463 
Q 1188 2334 1038 2041 
L 1038 669 
Q 1038 431 1097 309 
Q 1138 225 1241 169 
Q 1344 113 1538 113 
L 1538 0 
L 72 0 
L 72 113 
Q 291 113 397 181 
Q 475 231 506 341 
Q 522 394 522 644 
L 522 1753 
Q 522 2253 501 2348 
Q 481 2444 426 2487 
Q 372 2531 291 2531 
Q 194 2531 72 2484 
L 41 2597 
L 906 2947 
L 1038 2947 
z
" transform="scale(0.015625)"/>
       <path id="TimesNewRomanPSMT-62" d="M 984 2369 
Q 1400 2947 1881 2947 
Q 2322 2947 2650 2570 
Q 2978 2194 2978 1541 
Q 2978 778 2472 313 
Q 2038 -88 1503 -88 
Q 1253 -88 995 3 
Q 738 94 469 275 
L 469 3241 
Q 469 3728 445 3840 
Q 422 3953 372 3993 
Q 322 4034 247 4034 
Q 159 4034 28 3984 
L -16 4094 
L 844 4444 
L 984 4444 
L 984 2369 
z
M 984 2169 
L 984 456 
Q 1144 300 1314 220 
Q 1484 141 1663 141 
Q 1947 141 2192 453 
Q 2438 766 2438 1363 
Q 2438 1913 2192 2208 
Q 1947 2503 1634 2503 
Q 1469 2503 1303 2419 
Q 1178 2356 984 2169 
z
" transform="scale(0.015625)"/>
       <path id="TimesNewRomanPSMT-74" d="M 1031 3803 
L 1031 2863 
L 1700 2863 
L 1700 2644 
L 1031 2644 
L 1031 788 
Q 1031 509 1111 412 
Q 1191 316 1316 316 
Q 1419 316 1516 380 
Q 1613 444 1666 569 
L 1788 569 
Q 1678 263 1478 108 
Q 1278 -47 1066 -47 
Q 922 -47 784 33 
Q 647 113 581 261 
Q 516 409 516 719 
L 516 2644 
L 63 2644 
L 63 2747 
Q 234 2816 414 2980 
Q 594 3144 734 3369 
Q 806 3488 934 3803 
L 1031 3803 
z
" transform="scale(0.015625)"/>
       <path id="TimesNewRomanPSMT-79" d="M 38 2863 
L 1372 2863 
L 1372 2747 
L 1306 2747 
Q 1166 2747 1095 2686 
Q 1025 2625 1025 2534 
Q 1025 2413 1128 2197 
L 1825 753 
L 2466 2334 
Q 2519 2463 2519 2588 
Q 2519 2644 2497 2672 
Q 2472 2706 2419 2726 
Q 2366 2747 2231 2747 
L 2231 2863 
L 3163 2863 
L 3163 2747 
Q 3047 2734 2984 2696 
Q 2922 2659 2847 2556 
Q 2819 2513 2741 2316 
L 1575 -541 
Q 1406 -956 1132 -1168 
Q 859 -1381 606 -1381 
Q 422 -1381 303 -1275 
Q 184 -1169 184 -1031 
Q 184 -900 270 -820 
Q 356 -741 506 -741 
Q 609 -741 788 -809 
Q 913 -856 944 -856 
Q 1038 -856 1148 -759 
Q 1259 -663 1372 -384 
L 1575 113 
L 547 2272 
Q 500 2369 397 2513 
Q 319 2622 269 2659 
Q 197 2709 38 2747 
L 38 2863 
z
" transform="scale(0.015625)"/>
       <path id="TimesNewRomanPSMT-75" d="M 2709 2863 
L 2709 1128 
Q 2709 631 2732 520 
Q 2756 409 2807 365 
Q 2859 322 2928 322 
Q 3025 322 3147 375 
L 3191 266 
L 2334 -88 
L 2194 -88 
L 2194 519 
Q 1825 119 1631 15 
Q 1438 -88 1222 -88 
Q 981 -88 804 51 
Q 628 191 559 409 
Q 491 628 491 1028 
L 491 2306 
Q 491 2509 447 2587 
Q 403 2666 317 2708 
Q 231 2750 6 2747 
L 6 2863 
L 1009 2863 
L 1009 947 
Q 1009 547 1148 422 
Q 1288 297 1484 297 
Q 1619 297 1789 381 
Q 1959 466 2194 703 
L 2194 2325 
Q 2194 2569 2105 2655 
Q 2016 2741 1734 2747 
L 1734 2863 
L 2709 2863 
z
" transform="scale(0.015625)"/>
       <path id="TimesNewRomanPSMT-6e" d="M 1034 2341 
Q 1538 2947 1994 2947 
Q 2228 2947 2397 2830 
Q 2566 2713 2666 2444 
Q 2734 2256 2734 1869 
L 2734 647 
Q 2734 375 2778 278 
Q 2813 200 2889 156 
Q 2966 113 3172 113 
L 3172 0 
L 1756 0 
L 1756 113 
L 1816 113 
Q 2016 113 2095 173 
Q 2175 234 2206 353 
Q 2219 400 2219 647 
L 2219 1819 
Q 2219 2209 2117 2386 
Q 2016 2563 1775 2563 
Q 1403 2563 1034 2156 
L 1034 647 
Q 1034 356 1069 288 
Q 1113 197 1189 155 
Q 1266 113 1500 113 
L 1500 0 
L 84 0 
L 84 113 
L 147 113 
Q 366 113 442 223 
Q 519 334 519 647 
L 519 1709 
Q 519 2225 495 2337 
Q 472 2450 423 2490 
Q 375 2531 294 2531 
Q 206 2531 84 2484 
L 38 2597 
L 900 2947 
L 1034 2947 
L 1034 2341 
z
" transform="scale(0.015625)"/>
       <path id="TimesNewRomanPSMT-29" d="M 144 4313 
L 144 4444 
Q 619 4209 934 3891 
Q 1381 3434 1625 2820 
Q 1869 2206 1869 1541 
Q 1869 572 1392 -226 
Q 916 -1025 144 -1369 
L 144 -1253 
Q 528 -1038 776 -670 
Q 1025 -303 1145 264 
Q 1266 831 1266 1447 
Q 1266 2113 1163 2663 
Q 1084 3094 967 3353 
Q 850 3613 656 3853 
Q 463 4094 144 4313 
z
" transform="scale(0.015625)"/>
      </defs>
      <use xlink:href="#TimesNewRomanPSMT-54"/>
      <use xlink:href="#TimesNewRomanPSMT-69" x="57.583984"/>
      <use xlink:href="#TimesNewRomanPSMT-6d" x="85.367188"/>
      <use xlink:href="#TimesNewRomanPSMT-65" x="163.150391"/>
      <use xlink:href="#TimesNewRomanPSMT-20" x="207.535156"/>
      <use xlink:href="#TimesNewRomanPSMT-28" x="232.535156"/>
      <use xlink:href="#TimesNewRomanPSMT-61" x="265.835938"/>
      <use xlink:href="#TimesNewRomanPSMT-72" x="310.220703"/>
      <use xlink:href="#TimesNewRomanPSMT-62" x="343.521484"/>
      <use xlink:href="#TimesNewRomanPSMT-69" x="393.521484"/>
      <use xlink:href="#TimesNewRomanPSMT-74" x="421.304688"/>
      <use xlink:href="#TimesNewRomanPSMT-72" x="449.087891"/>
      <use xlink:href="#TimesNewRomanPSMT-61" x="482.388672"/>
      <use xlink:href="#TimesNewRomanPSMT-72" x="526.773438"/>
      <use xlink:href="#TimesNewRomanPSMT-79" x="560.074219"/>
      <use xlink:href="#TimesNewRomanPSMT-20" x="610.074219"/>
      <use xlink:href="#TimesNewRomanPSMT-75" x="635.074219"/>
      <use xlink:href="#TimesNewRomanPSMT-6e" x="685.074219"/>
      <use xlink:href="#TimesNewRomanPSMT-69" x="735.074219"/>
      <use xlink:href="#TimesNewRomanPSMT-74" x="762.857422"/>
      <use xlink:href="#TimesNewRomanPSMT-29" x="790.640625"/>
     </g>
    </g>
   </g>
   <g id="matplotlib.axis_2">
    <g id="ytick_1">
     <g id="line2d_7">
      <defs>
       <path id="m2c13781b05" d="M 0 0 
L 3.5 0 
" style="stroke: #000000; stroke-width: 0.8"/>
      </defs>
      <g>
       <use xlink:href="#m2c13781b05" x="46.797552" y="294.0488" style="stroke: #000000; stroke-width: 0.8"/>
      </g>
     </g>
     <g id="text_8">
      <!-- 0.0 -->
      <g transform="translate(24.547552 299.256613) scale(0.15 -0.15)">
       <defs>
        <path id="TimesNewRomanPSMT-2e" d="M 800 606 
Q 947 606 1047 504 
Q 1147 403 1147 259 
Q 1147 116 1045 14 
Q 944 -88 800 -88 
Q 656 -88 554 14 
Q 453 116 453 259 
Q 453 406 554 506 
Q 656 606 800 606 
z
" transform="scale(0.015625)"/>
       </defs>
       <use xlink:href="#TimesNewRomanPSMT-30"/>
       <use xlink:href="#TimesNewRomanPSMT-2e" x="50"/>
       <use xlink:href="#TimesNewRomanPSMT-30" x="75"/>
      </g>
     </g>
    </g>
    <g id="ytick_2">
     <g id="line2d_8">
      <g>
       <use xlink:href="#m2c13781b05" x="46.797552" y="240.496466" style="stroke: #000000; stroke-width: 0.8"/>
      </g>
     </g>
     <g id="text_9">
      <!-- 0.1 -->
      <g transform="translate(24.547552 245.704278) scale(0.15 -0.15)">
       <use xlink:href="#TimesNewRomanPSMT-30"/>
       <use xlink:href="#TimesNewRomanPSMT-2e" x="50"/>
       <use xlink:href="#TimesNewRomanPSMT-31" x="75"/>
      </g>
     </g>
    </g>
    <g id="ytick_3">
     <g id="line2d_9">
      <g>
       <use xlink:href="#m2c13781b05" x="46.797552" y="186.944131" style="stroke: #000000; stroke-width: 0.8"/>
      </g>
     </g>
     <g id="text_10">
      <!-- 0.2 -->
      <g transform="translate(24.547552 192.151944) scale(0.15 -0.15)">
       <use xlink:href="#TimesNewRomanPSMT-30"/>
       <use xlink:href="#TimesNewRomanPSMT-2e" x="50"/>
       <use xlink:href="#TimesNewRomanPSMT-32" x="75"/>
      </g>
     </g>
    </g>
    <g id="ytick_4">
     <g id="line2d_10">
      <g>
       <use xlink:href="#m2c13781b05" x="46.797552" y="133.391797" style="stroke: #000000; stroke-width: 0.8"/>
      </g>
     </g>
     <g id="text_11">
      <!-- 0.3 -->
      <g transform="translate(24.547552 138.599609) scale(0.15 -0.15)">
       <use xlink:href="#TimesNewRomanPSMT-30"/>
       <use xlink:href="#TimesNewRomanPSMT-2e" x="50"/>
       <use xlink:href="#TimesNewRomanPSMT-33" x="75"/>
      </g>
     </g>
    </g>
    <g id="ytick_5">
     <g id="line2d_11">
      <g>
       <use xlink:href="#m2c13781b05" x="46.797552" y="79.839462" style="stroke: #000000; stroke-width: 0.8"/>
      </g>
     </g>
     <g id="text_12">
      <!-- 0.4 -->
      <g transform="translate(24.547552 85.047275) scale(0.15 -0.15)">
       <use xlink:href="#TimesNewRomanPSMT-30"/>
       <use xlink:href="#TimesNewRomanPSMT-2e" x="50"/>
       <use xlink:href="#TimesNewRomanPSMT-34" x="75"/>
      </g>
     </g>
    </g>
    <g id="ytick_6">
     <g id="line2d_12">
      <g>
       <use xlink:href="#m2c13781b05" x="46.797552" y="26.287128" style="stroke: #000000; stroke-width: 0.8"/>
      </g>
     </g>
     <g id="text_13">
      <!-- 0.5 -->
      <g transform="translate(24.547552 31.494941) scale(0.15 -0.15)">
       <use xlink:href="#TimesNewRomanPSMT-30"/>
       <use xlink:href="#TimesNewRomanPSMT-2e" x="50"/>
       <use xlink:href="#TimesNewRomanPSMT-35" x="75"/>
      </g>
     </g>
    </g>
    <g id="text_14">
     <!-- $X(t)$ -->
     <g transform="translate(11.247552 154.580937) scale(0.1 -0.1)">
      <defs>
       <path id="DejaVuSans-Oblique-58" d="M 878 4666 
L 1516 4666 
L 2316 2981 
L 3763 4666 
L 4500 4666 
L 2578 2438 
L 3738 0 
L 3103 0 
L 2163 1966 
L 459 0 
L -275 0 
L 1906 2509 
L 878 4666 
z
" transform="scale(0.015625)"/>
       <path id="DejaVuSans-28" d="M 1984 4856 
Q 1566 4138 1362 3434 
Q 1159 2731 1159 2009 
Q 1159 1288 1364 580 
Q 1569 -128 1984 -844 
L 1484 -844 
Q 1016 -109 783 600 
Q 550 1309 550 2009 
Q 550 2706 781 3412 
Q 1013 4119 1484 4856 
L 1984 4856 
z
" transform="scale(0.015625)"/>
       <path id="DejaVuSans-Oblique-74" d="M 2706 3500 
L 2619 3053 
L 1472 3053 
L 1100 1153 
Q 1081 1047 1072 975 
Q 1063 903 1063 863 
Q 1063 663 1183 572 
Q 1303 481 1569 481 
L 2150 481 
L 2053 0 
L 1503 0 
Q 991 0 739 200 
Q 488 400 488 806 
Q 488 878 497 964 
Q 506 1050 525 1153 
L 897 3053 
L 409 3053 
L 500 3500 
L 978 3500 
L 1172 4494 
L 1747 4494 
L 1556 3500 
L 2706 3500 
z
" transform="scale(0.015625)"/>
       <path id="DejaVuSans-29" d="M 513 4856 
L 1013 4856 
Q 1481 4119 1714 3412 
Q 1947 2706 1947 2009 
Q 1947 1309 1714 600 
Q 1481 -109 1013 -844 
L 513 -844 
Q 928 -128 1133 580 
Q 1338 1288 1338 2009 
Q 1338 2731 1133 3434 
Q 928 4138 513 4856 
z
" transform="scale(0.015625)"/>
      </defs>
      <use xlink:href="#DejaVuSans-Oblique-58" transform="translate(0 0.125)"/>
      <use xlink:href="#DejaVuSans-28" transform="translate(68.505859 0.125)"/>
      <use xlink:href="#DejaVuSans-Oblique-74" transform="translate(107.519531 0.125)"/>
      <use xlink:href="#DejaVuSans-29" transform="translate(146.728516 0.125)"/>
     </g>
    </g>
   </g>
   <g id="line2d_13">
    <path d="M 65.124936 288.693567 
L 66.591127 280.721898 
L 68.057317 235.802561 
L 68.790413 194.138562 
L 69.523508 186.996406 
L 70.256603 174.011553 
L 70.989699 168.719326 
L 71.722794 183.75533 
L 72.455889 181.591136 
L 73.188985 187.220283 
L 73.92208 183.963917 
L 74.655176 186.617272 
L 75.388271 170.256594 
L 76.121366 112.526822 
L 77.587557 172.209807 
L 78.320652 117.724782 
L 79.053748 113.535293 
L 79.786843 117.423923 
L 80.519938 155.175184 
L 81.253034 167.276141 
L 81.986129 168.340503 
L 82.719225 176.511079 
L 83.45232 173.388592 
L 84.185415 184.818846 
L 84.918511 189.843458 
L 85.651606 173.391784 
L 86.384701 176.715437 
L 87.117797 174.476407 
L 87.850892 176.220099 
L 88.583987 136.818177 
L 90.050178 167.645763 
L 90.783273 167.783457 
L 91.516369 113.509789 
L 92.249464 151.820665 
L 92.98256 155.188303 
L 93.715655 156.941284 
L 94.44875 159.695553 
L 95.181846 169.697082 
L 95.914941 174.598867 
L 96.648036 161.774274 
L 98.114227 190.861552 
L 98.847322 173.600675 
L 99.580418 173.196819 
L 100.313513 185.031798 
L 101.046609 183.373786 
L 101.779704 187.401092 
L 102.512799 196.730951 
L 103.97899 118.895277 
L 104.712085 108.075176 
L 105.445181 145.317685 
L 106.178276 155.896664 
L 106.911371 153.547248 
L 107.644467 161.638951 
L 108.377562 183.038885 
L 109.110657 175.476826 
L 109.843753 162.244515 
L 110.576848 152.186544 
L 111.309944 190.195979 
L 112.043039 170.147029 
L 112.776134 162.39994 
L 113.50923 124.310099 
L 114.242325 164.437564 
L 114.97542 146.150517 
L 115.708516 170.549137 
L 116.441611 163.298527 
L 117.174706 173.039862 
L 117.907802 142.241968 
L 118.640897 78.076073 
L 119.373993 119.980817 
L 120.107088 146.162423 
L 120.840183 137.525916 
L 121.573279 90.462983 
L 122.306374 118.776456 
L 123.039469 128.930984 
L 123.772565 113.11017 
L 124.50566 139.626326 
L 125.238755 127.071024 
L 125.971851 95.837108 
L 126.704946 139.76299 
L 127.438042 117.111318 
L 128.171137 126.89371 
L 128.904232 124.468517 
L 129.637328 129.581523 
L 130.370423 144.847636 
L 131.103518 117.363835 
L 131.836614 117.915391 
L 132.569709 116.026113 
L 133.302804 105.24797 
L 134.0359 140.375673 
L 134.768995 155.910885 
L 135.50209 176.118299 
L 136.235186 168.80448 
L 136.968281 110.281049 
L 137.701377 158.379872 
L 138.434472 182.993551 
L 139.167567 182.351534 
L 139.900663 174.795348 
L 140.633758 118.481199 
L 141.366853 129.522232 
L 142.099949 150.737279 
L 142.833044 142.505769 
L 143.566139 115.019893 
L 144.299235 120.257976 
L 145.03233 142.304499 
L 145.765426 159.945676 
L 146.498521 154.677636 
L 147.231616 162.443734 
L 147.964712 163.373514 
L 148.697807 103.97803 
L 149.430902 118.811408 
L 150.163998 69.138531 
L 150.897093 128.417955 
L 151.630188 98.256268 
L 152.363284 100.342251 
L 153.096379 115.408866 
L 153.829474 135.661312 
L 154.56257 145.041388 
L 155.295665 143.3198 
L 156.028761 148.682578 
L 156.761856 117.124405 
L 157.494951 104.530831 
L 158.228047 157.621045 
L 158.961142 173.232066 
L 159.694237 156.020417 
L 160.427333 151.602717 
L 161.160428 168.535564 
L 161.893523 170.818851 
L 162.626619 164.836289 
L 163.359714 174.805994 
L 164.09281 178.283595 
L 164.825905 155.139561 
L 165.559 148.681412 
L 166.292096 161.192075 
L 167.025191 179.741031 
L 167.758286 147.921165 
L 168.491382 176.425542 
L 169.224477 166.452406 
L 169.957572 149.467754 
L 170.690668 170.155967 
L 171.423763 167.437711 
L 172.156858 188.417973 
L 172.889954 185.949273 
L 173.623049 182.998419 
L 174.356145 202.507559 
L 175.08924 175.708618 
L 175.822335 195.471241 
L 176.555431 142.0324 
L 177.288526 123.903299 
L 178.021621 155.029455 
L 178.754717 142.497868 
L 179.487812 157.783181 
L 180.220907 161.168415 
L 180.954003 165.367393 
L 181.687098 176.261707 
L 182.420194 117.235549 
L 183.153289 98.947568 
L 184.61948 126.553494 
L 185.352575 118.04824 
L 186.08567 94.850103 
L 186.818766 119.924288 
L 187.551861 107.257107 
L 188.284956 127.022075 
L 189.018052 119.670877 
L 189.751147 140.016576 
L 190.484242 115.075417 
L 191.217338 149.435339 
L 191.950433 164.799917 
L 192.683529 156.722203 
L 194.149719 172.695369 
L 194.882815 174.735635 
L 195.61591 173.077511 
L 196.349005 145.169609 
L 197.082101 156.839364 
L 197.815196 164.69763 
L 198.548291 136.402646 
L 199.281387 156.046368 
L 200.014482 149.34049 
L 200.747578 152.516801 
L 201.480673 149.794739 
L 202.213768 150.97299 
L 202.946864 173.970736 
L 203.679959 173.296305 
L 204.413054 183.78721 
L 205.14615 188.718361 
L 205.879245 183.488896 
L 206.61234 189.58356 
L 207.345436 172.637945 
L 208.078531 161.582509 
L 208.811626 108.972023 
L 209.544722 164.582711 
L 210.277817 166.050434 
L 211.010913 111.524704 
L 211.744008 131.916655 
L 212.477103 155.432536 
L 213.210199 158.468816 
L 213.943294 143.52723 
L 214.676389 77.439147 
L 215.409485 123.760363 
L 216.14258 117.232645 
L 216.875675 123.082373 
L 217.608771 105.033805 
L 218.341866 114.892741 
L 219.808057 160.950363 
L 220.541152 167.401043 
L 221.274248 170.235223 
L 222.007343 184.769586 
L 222.740438 181.199465 
L 223.473534 149.013074 
L 224.206629 169.673876 
L 224.939724 151.08356 
L 225.67282 182.628725 
L 227.13901 132.122377 
L 227.872106 162.810443 
L 228.605201 181.647682 
L 229.338297 180.208719 
L 230.071392 110.160616 
L 230.804487 101.824457 
L 231.537583 107.592136 
L 232.270678 96.607345 
L 233.003773 100.070263 
L 233.736869 112.0189 
L 234.469964 120.866684 
L 235.203059 116.52232 
L 235.936155 134.60643 
L 236.66925 83.335478 
L 237.402346 111.895786 
L 238.135441 115.890502 
L 238.868536 100.311193 
L 239.601632 124.092072 
L 240.334727 104.668086 
L 241.067822 130.180096 
L 241.800918 120.35881 
L 242.534013 140.924851 
L 243.267108 135.800577 
L 244.000204 133.866755 
L 244.733299 152.063638 
L 245.466394 160.671457 
L 246.19949 159.1142 
L 246.932585 137.657409 
L 247.665681 160.710463 
L 248.398776 132.302021 
L 249.131871 147.449153 
L 249.864967 141.752209 
L 250.598062 166.919647 
L 251.331157 180.428214 
L 252.064253 154.137204 
L 252.797348 183.648032 
L 253.530443 138.269501 
L 254.263539 180.678512 
L 254.996634 150.58207 
L 255.72973 103.162227 
L 256.462825 132.988964 
L 257.19592 145.143962 
L 257.929016 152.131036 
L 258.662111 137.995997 
L 260.128302 151.338263 
L 260.861397 123.011734 
L 261.594492 147.29388 
L 263.060683 173.69949 
L 263.793779 145.454014 
L 264.526874 178.040072 
L 265.259969 162.821702 
L 265.993065 171.419244 
L 266.72616 152.916739 
L 267.459255 177.878869 
L 268.192351 183.816025 
L 268.925446 165.258012 
L 269.658541 178.389935 
L 270.391637 180.717853 
L 271.124732 124.597712 
L 271.857827 157.039836 
L 272.590923 156.626699 
L 273.324018 145.153602 
L 274.057114 161.389937 
L 274.790209 169.255146 
L 275.523304 146.160923 
L 276.2564 158.039608 
L 276.989495 181.314025 
L 277.72259 183.747797 
L 278.455686 168.247609 
L 279.188781 145.445555 
L 279.921876 150.699183 
L 280.654972 162.819747 
L 281.388067 149.583095 
L 282.121163 152.439635 
L 282.854258 172.806745 
L 283.587353 182.761303 
L 284.320449 190.256986 
L 285.053544 180.576082 
L 285.786639 204.756579 
L 286.519735 198.316313 
L 287.25283 205.02176 
L 287.985925 197.336523 
L 288.719021 205.55738 
L 289.452116 215.485007 
L 290.185211 189.915613 
L 290.918307 174.426708 
L 291.651402 171.166855 
L 292.384498 190.122165 
L 293.117593 195.304899 
L 293.850688 166.143041 
L 294.583784 188.509854 
L 295.316879 146.704675 
L 296.049974 122.67728 
L 296.78307 171.322352 
L 297.516165 188.098066 
L 298.24926 192.634938 
L 298.982356 176.420451 
L 299.715451 156.807093 
L 300.448547 165.241262 
L 301.181642 178.003492 
L 301.914737 174.947637 
L 302.647833 178.483875 
L 303.380928 184.875806 
L 304.114023 150.775902 
L 304.847119 122.576733 
L 305.580214 146.400273 
L 306.313309 157.743026 
L 307.046405 165.935946 
L 307.7795 170.994321 
L 308.512595 190.102734 
L 309.245691 180.522258 
L 309.978786 173.782872 
L 310.711882 183.959983 
L 311.444977 189.829709 
L 312.178072 205.068091 
L 312.911168 185.625464 
L 313.644263 178.417626 
L 314.377358 174.975727 
L 315.110454 161.428999 
L 315.843549 150.75126 
L 316.576644 142.330194 
L 317.30974 147.27002 
L 318.042835 72.966243 
L 318.775931 122.653324 
L 319.509026 97.754985 
L 320.242121 96.13479 
L 320.975217 136.487856 
L 321.708312 120.236159 
L 322.441407 137.861008 
L 323.174503 138.42297 
L 323.907598 75.437783 
L 324.640693 107.392845 
L 325.373789 89.686249 
L 326.106884 76.753146 
L 326.839979 105.284375 
L 327.573075 101.96259 
L 328.30617 119.16096 
L 329.039266 118.720724 
L 329.772361 97.725396 
L 330.505456 106.204954 
L 331.238552 127.04967 
L 331.971647 88.289556 
L 332.704742 105.451921 
L 333.437838 130.255874 
L 334.170933 141.280755 
L 334.904028 141.707298 
L 335.637124 137.565145 
L 337.103315 171.916106 
L 337.83641 160.489324 
L 338.569505 171.151725 
L 339.302601 174.247032 
L 340.035696 133.321487 
L 340.768791 118.743339 
L 341.501887 144.884327 
L 342.234982 163.67091 
L 343.701173 178.025708 
L 344.434268 189.342279 
L 345.167363 192.327703 
L 345.900459 191.50293 
L 346.633554 134.303241 
L 347.36665 133.925424 
L 348.099745 134.825224 
L 348.83284 155.184919 
L 349.565936 165.664182 
L 350.299031 151.943444 
L 351.032126 143.012398 
L 351.765222 172.118788 
L 352.498317 165.102858 
L 353.231412 83.818263 
L 353.964508 143.018574 
L 354.697603 148.272713 
L 355.430699 146.958899 
L 356.163794 157.002633 
L 356.896889 157.147485 
L 357.629985 145.603238 
L 358.36308 166.472125 
L 359.096175 123.118953 
L 359.829271 162.344791 
L 360.562366 183.062793 
L 361.295461 166.166047 
L 362.028557 41.216919 
L 362.761652 115.731303 
L 363.494747 128.182738 
L 364.227843 113.202083 
L 364.960938 124.477901 
L 365.694034 121.097096 
L 366.427129 103.000139 
L 367.160224 98.983303 
L 367.89332 104.397008 
L 368.626415 111.408117 
L 369.35951 108.345632 
L 370.092606 115.64662 
L 370.825701 138.190787 
L 371.558796 137.021393 
L 372.291892 98.380452 
L 373.024987 99.015589 
L 373.758083 92.377493 
L 374.491178 111.184488 
L 375.224273 147.210745 
L 375.957369 144.378049 
L 376.690464 158.865609 
L 377.423559 170.661447 
L 378.156655 176.145814 
L 378.88975 167.749295 
L 379.622845 165.635318 
L 380.355941 159.135746 
L 381.089036 118.926526 
L 381.822131 100.876969 
L 382.555227 145.522258 
L 383.288322 114.806191 
L 384.021418 126.443355 
L 384.754513 119.455435 
L 385.487608 136.619493 
L 386.220704 133.364196 
L 386.953799 152.924416 
L 388.41999 95.520991 
L 389.153085 126.836207 
L 389.88618 108.27552 
L 390.619276 53.343493 
L 391.352371 115.989453 
L 392.085467 117.320232 
L 392.818562 145.491312 
L 393.551657 141.017913 
L 394.284753 141.822991 
L 395.017848 157.491499 
L 395.750943 113.085257 
L 396.484039 138.555788 
L 397.217134 95.105716 
L 397.950229 89.80756 
L 398.683325 126.584728 
L 399.41642 133.263394 
L 400.149516 153.836073 
L 400.882611 167.55887 
L 401.615706 158.024191 
L 403.081897 120.563639 
L 403.814992 150.702822 
L 404.548088 147.2144 
L 405.281183 102.877025 
L 406.747374 156.736327 
L 407.480469 145.31577 
L 408.213564 157.853213 
L 408.94666 174.173745 
L 409.679755 180.312753 
L 410.412851 178.73525 
L 411.145946 161.597647 
L 411.879041 171.485852 
L 412.612137 143.423411 
L 413.345232 155.706567 
L 414.078327 171.213737 
L 414.811423 173.662016 
L 415.544518 188.092177 
L 416.277613 187.354226 
L 417.010709 184.094125 
L 417.743804 178.594173 
L 418.4769 165.698057 
L 419.209995 147.190093 
L 419.94309 148.017643 
L 420.676186 165.206422 
L 421.409281 157.887527 
L 422.142376 169.749446 
L 422.875472 168.782216 
L 423.608567 143.078009 
L 424.341662 164.746619 
L 425.074758 144.894286 
L 425.807853 160.93667 
L 426.540948 186.843631 
L 427.274044 176.097161 
L 428.007139 108.844409 
L 430.206425 168.111974 
L 430.939521 173.65019 
L 431.672616 134.159954 
L 431.672616 134.159954 
" clip-path="url(#p91b9fc3d1f)" style="fill: none; stroke: #1f77b4; stroke-width: 1.5; stroke-linecap: square"/>
   </g>
   <g id="line2d_14">
    <path d="M 65.124936 288.693567 
L 65.858031 281.832845 
L 66.591127 284.770977 
L 67.324222 236.332655 
L 68.057317 226.234429 
L 68.790413 190.740393 
L 69.523508 200.189855 
L 70.256603 204.136835 
L 70.989699 190.448432 
L 71.722794 192.930554 
L 72.455889 117.309284 
L 73.188985 208.191041 
L 73.92208 161.263112 
L 74.655176 195.761039 
L 75.388271 179.743018 
L 76.121366 187.518772 
L 77.587557 143.336909 
L 78.320652 161.579285 
L 79.053748 165.403103 
L 79.786843 155.656692 
L 80.519938 165.070412 
L 81.253034 181.763374 
L 81.986129 186.414048 
L 82.719225 163.229205 
L 83.45232 205.646085 
L 84.185415 173.790669 
L 84.918511 130.673223 
L 86.384701 180.183773 
L 87.117797 193.624583 
L 88.583987 152.127317 
L 89.317083 182.125902 
L 90.050178 157.178734 
L 90.783273 167.794158 
L 91.516369 133.570589 
L 92.249464 136.007177 
L 92.98256 168.009951 
L 93.715655 161.47304 
L 94.44875 149.965988 
L 95.181846 178.101525 
L 95.914941 175.880187 
L 96.648036 202.825678 
L 97.381132 149.026448 
L 98.114227 208.183915 
L 98.847322 185.34268 
L 99.580418 189.579969 
L 100.313513 189.581733 
L 101.046609 202.621001 
L 101.779704 173.739094 
L 102.512799 203.484899 
L 103.245895 153.74906 
L 103.97899 132.437424 
L 104.712085 158.919665 
L 105.445181 130.197892 
L 106.178276 172.505327 
L 106.911371 157.471086 
L 107.644467 184.806637 
L 108.377562 165.038588 
L 109.110657 199.804528 
L 109.843753 189.703099 
L 110.576848 175.077255 
L 111.309944 68.92087 
L 112.043039 184.234404 
L 112.776134 174.580944 
L 113.50923 182.778979 
L 114.242325 152.656625 
L 114.97542 189.325896 
L 115.708516 162.488908 
L 117.174706 195.732104 
L 117.907802 124.896735 
L 118.640897 159.446037 
L 119.373993 131.146145 
L 120.107088 166.832913 
L 120.840183 158.205606 
L 121.573279 147.278495 
L 122.306374 110.867095 
L 123.039469 132.900196 
L 123.772565 111.549665 
L 124.50566 117.783626 
L 125.238755 156.091789 
L 125.971851 139.789994 
L 126.704946 97.471682 
L 127.438042 170.922031 
L 128.171137 132.29203 
L 128.904232 166.248855 
L 129.637328 124.895267 
L 130.370423 152.645358 
L 131.103518 135.729269 
L 131.836614 140.644117 
L 132.569709 156.855228 
L 133.302804 131.718162 
L 134.0359 155.549809 
L 134.768995 169.876159 
L 135.50209 172.135234 
L 136.235186 179.71544 
L 136.968281 191.803566 
L 137.701377 161.735228 
L 138.434472 156.246201 
L 139.167567 188.408708 
L 139.900663 189.2705 
L 140.633758 177.793532 
L 141.366853 108.925197 
L 142.099949 164.760831 
L 142.833044 145.516975 
L 143.566139 156.701647 
L 144.299235 137.019909 
L 145.03233 154.372117 
L 145.765426 154.062464 
L 146.498521 153.956905 
L 147.231616 149.569945 
L 147.964712 110.266765 
L 148.697807 148.736953 
L 149.430902 142.874696 
L 150.163998 163.193351 
L 150.897093 130.541411 
L 151.630188 76.922304 
L 152.363284 134.917408 
L 153.096379 136.396741 
L 153.829474 129.603563 
L 154.56257 148.872085 
L 155.295665 150.279695 
L 156.028761 128.549112 
L 156.761856 165.280938 
L 157.494951 161.186777 
L 158.228047 167.942577 
L 158.961142 139.302884 
L 159.694237 192.45116 
L 160.427333 148.093133 
L 161.160428 185.918431 
L 161.893523 188.6074 
L 162.626619 173.330283 
L 163.359714 160.876709 
L 164.09281 133.427126 
L 164.825905 194.342824 
L 165.559 173.037428 
L 166.292096 174.007483 
L 167.025191 175.248001 
L 167.758286 200.897083 
L 168.491382 169.639714 
L 169.224477 182.448307 
L 169.957572 181.454552 
L 170.690668 195.608966 
L 171.423763 175.621797 
L 172.156858 198.039474 
L 172.889954 203.371058 
L 173.623049 207.432374 
L 175.08924 157.474741 
L 175.822335 197.18113 
L 176.555431 180.600692 
L 177.288526 177.183172 
L 178.021621 155.963791 
L 178.754717 159.030985 
L 179.487812 156.631615 
L 180.220907 172.772 
L 180.954003 153.232073 
L 181.687098 189.499364 
L 182.420194 88.695255 
L 183.153289 89.795814 
L 183.886384 123.671179 
L 184.61948 142.2089 
L 185.352575 126.988176 
L 186.08567 146.193401 
L 186.818766 115.586563 
L 187.551861 133.579414 
L 188.284956 141.235302 
L 189.018052 127.948719 
L 189.751147 142.745278 
L 190.484242 151.703727 
L 192.683529 186.923206 
L 193.416624 190.353327 
L 194.149719 189.332624 
L 194.882815 160.227997 
L 195.61591 150.694108 
L 196.349005 122.306804 
L 197.082101 158.073618 
L 197.815196 119.735307 
L 198.548291 172.841689 
L 199.281387 138.25477 
L 200.014482 176.095445 
L 200.747578 161.813224 
L 201.480673 171.319742 
L 202.213768 174.714017 
L 202.946864 163.836756 
L 203.679959 156.926361 
L 204.413054 161.16634 
L 205.14615 182.675391 
L 205.879245 189.687036 
L 206.61234 190.5199 
L 207.345436 169.738713 
L 208.078531 186.045072 
L 208.811626 179.190385 
L 209.544722 147.662409 
L 210.277817 136.64771 
L 211.010913 183.31973 
L 211.744008 146.784075 
L 212.477103 177.035743 
L 213.210199 136.178985 
L 213.943294 143.632565 
L 214.676389 158.946653 
L 215.409485 113.39499 
L 216.14258 166.952715 
L 216.875675 148.469035 
L 217.608771 175.678494 
L 218.341866 153.908675 
L 219.074962 172.47869 
L 219.808057 146.778648 
L 220.541152 161.259194 
L 221.274248 108.618736 
L 222.007343 189.901911 
L 222.740438 183.852565 
L 223.473534 140.365458 
L 224.206629 174.96714 
L 224.939724 194.621212 
L 225.67282 190.614869 
L 226.405915 167.598155 
L 227.13901 171.862281 
L 227.872106 174.347499 
L 228.605201 171.837974 
L 229.338297 138.028874 
L 230.071392 175.403634 
L 230.804487 115.26984 
L 231.537583 134.114133 
L 232.270678 99.804357 
L 233.003773 120.860843 
L 233.736869 104.792684 
L 234.469964 103.852921 
L 235.203059 137.699607 
L 235.936155 151.968214 
L 236.66925 156.606127 
L 237.402346 132.466742 
L 238.135441 126.873377 
L 238.868536 57.033567 
L 239.601632 139.062242 
L 240.334727 128.972719 
L 241.067822 163.223156 
L 241.800918 126.052419 
L 242.534013 166.209426 
L 243.267108 128.637514 
L 244.000204 149.702236 
L 244.733299 107.541591 
L 245.466394 169.956764 
L 246.19949 154.2739 
L 246.932585 156.074968 
L 247.665681 159.646668 
L 248.398776 165.356061 
L 249.131871 166.39626 
L 249.864967 181.423558 
L 250.598062 184.84818 
L 251.331157 203.000542 
L 252.064253 175.731513 
L 252.797348 199.962188 
L 253.530443 182.850662 
L 254.263539 180.802528 
L 254.996634 192.918728 
L 255.72973 178.650998 
L 256.462825 130.714192 
L 257.19592 163.145089 
L 257.929016 138.257866 
L 258.662111 166.094722 
L 259.395206 90.957083 
L 260.128302 161.574026 
L 260.861397 105.060953 
L 262.327588 164.040005 
L 263.060683 180.102602 
L 263.793779 182.080864 
L 264.526874 186.438658 
L 265.259969 155.186834 
L 265.993065 173.730915 
L 266.72616 168.04195 
L 267.459255 186.287271 
L 268.192351 163.777027 
L 268.925446 180.752965 
L 269.658541 187.135895 
L 270.391637 186.689219 
L 271.124732 131.880777 
L 271.857827 161.14402 
L 272.590923 157.248606 
L 273.324018 148.146487 
L 274.057114 168.656117 
L 274.790209 174.254725 
L 275.523304 157.243834 
L 276.2564 173.329094 
L 276.989495 143.781215 
L 277.72259 177.997211 
L 278.455686 184.5843 
L 279.921876 169.729767 
L 280.654972 164.868009 
L 281.388067 183.847155 
L 282.121163 175.818893 
L 282.854258 193.271999 
L 283.587353 188.092249 
L 284.320449 209.739074 
L 285.053544 151.839402 
L 285.786639 206.443574 
L 286.519735 214.020348 
L 287.25283 213.006851 
L 287.985925 218.36804 
L 288.719021 202.496562 
L 289.452116 203.571386 
L 290.185211 218.868692 
L 290.918307 197.663133 
L 291.651402 163.6634 
L 292.384498 196.615545 
L 293.117593 203.168711 
L 293.850688 194.545043 
L 294.583784 177.833001 
L 295.316879 199.372488 
L 296.049974 164.507939 
L 296.78307 174.220084 
L 297.516165 163.574113 
L 298.24926 89.115206 
L 298.982356 182.333596 
L 299.715451 165.55524 
L 300.448547 127.558374 
L 301.181642 185.127796 
L 301.914737 173.84577 
L 302.647833 147.800238 
L 303.380928 181.463784 
L 304.114023 124.043251 
L 304.847119 178.036361 
L 305.580214 153.754439 
L 306.313309 184.195933 
L 307.046405 175.65086 
L 307.7795 193.087032 
L 308.512595 199.610648 
L 309.245691 178.660008 
L 309.978786 197.183612 
L 310.711882 201.173955 
L 311.444977 178.611921 
L 312.178072 181.503915 
L 312.911168 201.526715 
L 313.644263 163.0978 
L 314.377358 163.005488 
L 315.110454 188.400601 
L 315.843549 170.848225 
L 316.576644 124.012049 
L 317.30974 164.54412 
L 318.042835 97.748761 
L 318.775931 141.374104 
L 319.509026 119.464932 
L 320.242121 149.612781 
L 320.975217 70.551822 
L 321.708312 162.571069 
L 322.441407 145.428622 
L 323.174503 149.177779 
L 323.907598 24.065455 
L 324.640693 123.314588 
L 325.373789 83.30517 
L 326.106884 136.956836 
L 326.839979 104.36654 
L 327.573075 135.291602 
L 328.30617 106.061747 
L 329.039266 91.453323 
L 329.772361 115.094186 
L 330.505456 118.700519 
L 331.238552 110.320949 
L 332.704742 134.941475 
L 333.437838 140.753346 
L 334.170933 106.13979 
L 334.904028 104.181135 
L 335.637124 146.790475 
L 336.370219 106.75201 
L 337.103315 181.449245 
L 337.83641 157.187017 
L 338.569505 182.567886 
L 339.302601 160.39311 
L 340.035696 178.699093 
L 340.768791 136.903977 
L 341.501887 153.428874 
L 342.234982 156.311269 
L 342.968077 170.397886 
L 343.701173 186.957201 
L 344.434268 190.244824 
L 345.167363 199.835155 
L 345.900459 194.874702 
L 346.633554 184.362203 
L 347.36665 144.090501 
L 348.099745 165.43768 
L 348.83284 89.384417 
L 349.565936 113.698721 
L 350.299031 159.195292 
L 351.032126 175.666269 
L 351.765222 124.671685 
L 352.498317 184.233239 
L 353.231412 168.159407 
L 353.964508 108.334667 
L 354.697603 171.384236 
L 355.430699 152.091934 
L 356.163794 150.467223 
L 356.896889 179.660059 
L 357.629985 154.339048 
L 358.36308 182.336029 
L 359.096175 153.66757 
L 359.829271 183.720162 
L 360.562366 188.868479 
L 361.295461 176.989651 
L 362.028557 118.349227 
L 362.761652 103.831519 
L 363.494747 149.560592 
L 364.227843 124.628578 
L 364.960938 25.104887 
L 365.694034 139.21327 
L 366.427129 48.940428 
L 367.160224 141.45692 
L 367.89332 119.67442 
L 368.626415 94.270968 
L 369.35951 140.335374 
L 370.092606 127.484065 
L 370.825701 123.264522 
L 371.558796 129.545741 
L 372.291892 148.090819 
L 373.024987 118.491062 
L 373.758083 137.085233 
L 374.491178 141.302907 
L 375.224273 133.675397 
L 375.957369 163.591398 
L 376.690464 162.675431 
L 377.423559 123.571175 
L 378.156655 176.414139 
L 378.88975 159.220429 
L 379.622845 160.47014 
L 380.355941 163.716754 
L 381.089036 160.913161 
L 381.822131 147.431454 
L 382.555227 126.456155 
L 383.288322 123.324883 
L 384.021418 134.052464 
L 384.754513 65.392469 
L 385.487608 134.496786 
L 386.220704 142.502513 
L 386.953799 166.40175 
L 387.686894 144.307603 
L 388.41999 95.821978 
L 389.153085 123.72265 
L 389.88618 132.182609 
L 390.619276 145.145239 
L 391.352371 119.152677 
L 392.085467 130.86554 
L 392.818562 148.989038 
L 393.551657 139.170609 
L 394.284753 156.74876 
L 395.017848 149.934739 
L 395.750943 121.72285 
L 396.484039 152.299348 
L 397.950229 131.329444 
L 398.683325 139.174551 
L 399.41642 153.849655 
L 400.149516 171.099425 
L 400.882611 168.425034 
L 401.615706 153.750449 
L 402.348802 136.604634 
L 403.081897 93.135202 
L 403.814992 162.261831 
L 404.548088 87.342866 
L 405.281183 171.519743 
L 406.014278 128.537861 
L 406.747374 181.368073 
L 407.480469 163.476184 
L 408.213564 167.166322 
L 408.94666 159.106523 
L 409.679755 100.107194 
L 410.412851 96.278652 
L 411.145946 177.71556 
L 411.879041 150.402138 
L 412.612137 166.707381 
L 413.345232 176.833069 
L 414.078327 176.308613 
L 414.811423 185.29634 
L 415.544518 118.93607 
L 416.277613 173.71454 
L 417.010709 178.629644 
L 417.743804 194.539784 
L 418.4769 159.788343 
L 419.209995 188.25531 
L 419.94309 138.198447 
L 420.676186 124.065275 
L 421.409281 134.381716 
L 422.142376 177.719893 
L 422.875472 142.372328 
L 423.608567 141.692327 
L 424.341662 154.067268 
L 425.074758 189.123997 
L 425.807853 173.498731 
L 426.540948 194.343901 
L 427.274044 161.799906 
L 428.007139 175.204734 
L 428.740235 154.001146 
L 429.47333 156.292181 
L 430.206425 167.883725 
L 430.939521 198.435765 
L 431.672616 172.487332 
L 431.672616 172.487332 
" clip-path="url(#p91b9fc3d1f)" style="fill: none; stroke: #ff7f0e; stroke-width: 1.5; stroke-linecap: square"/>
   </g>
   <g id="line2d_15">
    <path d="M 65.124936 288.693567 
L 65.858031 289.374545 
L 66.591127 230.500271 
L 67.324222 253.27473 
L 68.057317 171.40251 
L 68.790413 243.180946 
L 69.523508 221.614216 
L 70.256603 238.077716 
L 70.989699 211.817579 
L 71.722794 235.606753 
L 72.455889 236.39274 
L 73.188985 202.770409 
L 73.92208 221.128159 
L 74.655176 209.500777 
L 75.388271 209.28113 
L 76.121366 226.803637 
L 76.854462 234.674591 
L 77.587557 155.208731 
L 78.320652 214.771754 
L 79.053748 202.985053 
L 79.786843 215.998746 
L 81.253034 207.575191 
L 81.986129 228.621104 
L 82.719225 235.292053 
L 83.45232 206.556642 
L 84.185415 223.580492 
L 84.918511 164.256588 
L 85.651606 200.16704 
L 86.384701 212.236517 
L 87.117797 199.160573 
L 87.850892 229.01913 
L 88.583987 224.275718 
L 89.317083 217.006706 
L 90.050178 206.318872 
L 90.783273 127.192797 
L 91.516369 219.110364 
L 92.249464 198.188866 
L 92.98256 196.8194 
L 93.715655 215.628717 
L 94.44875 220.713913 
L 95.181846 204.292938 
L 95.914941 230.305226 
L 96.648036 223.012154 
L 97.381132 239.561151 
L 98.114227 204.74694 
L 98.847322 212.071692 
L 99.580418 214.757877 
L 100.313513 231.171191 
L 101.046609 225.075378 
L 101.779704 226.511061 
L 102.512799 142.424884 
L 103.245895 213.845971 
L 103.97899 196.664119 
L 104.712085 194.007667 
L 105.445181 211.13698 
L 106.178276 202.056789 
L 106.911371 227.846122 
L 108.377562 214.655542 
L 109.110657 211.549757 
L 109.843753 235.972848 
L 110.576848 236.633135 
L 111.309944 233.667413 
L 112.043039 183.210812 
L 112.776134 218.06833 
L 113.50923 215.446647 
L 114.242325 221.723285 
L 114.97542 218.447065 
L 115.708516 218.077475 
L 116.441611 223.94341 
L 117.174706 109.652615 
L 117.907802 188.297484 
L 118.640897 184.854372 
L 119.373993 212.583484 
L 120.840183 168.772249 
L 121.573279 174.36413 
L 122.306374 161.7609 
L 123.039469 169.205143 
L 123.772565 184.749253 
L 124.50566 190.291842 
L 125.238755 180.672184 
L 125.971851 206.624822 
L 126.704946 204.117683 
L 127.438042 165.003333 
L 128.171137 213.249744 
L 128.904232 163.423412 
L 129.637328 217.368739 
L 130.370423 178.652379 
L 131.103518 184.123731 
L 131.836614 201.587993 
L 132.569709 177.897766 
L 133.302804 205.00971 
L 134.0359 199.841978 
L 134.768995 217.098339 
L 135.50209 215.096951 
L 136.235186 221.704014 
L 136.968281 213.558878 
L 137.701377 235.648816 
L 138.434472 201.633223 
L 139.167567 209.742329 
L 139.900663 213.853424 
L 140.633758 185.141642 
L 141.366853 216.373204 
L 142.099949 190.1163 
L 142.833044 190.298122 
L 143.566139 165.10838 
L 144.299235 197.507038 
L 145.03233 203.188318 
L 145.765426 166.473425 
L 146.498521 196.030593 
L 147.231616 210.010343 
L 147.964712 133.032152 
L 148.697807 196.905998 
L 149.430902 204.877467 
L 150.163998 190.803027 
L 150.897093 206.246223 
L 151.630188 179.888006 
L 152.363284 178.101317 
L 153.096379 181.024625 
L 153.829474 204.115177 
L 154.56257 201.401773 
L 155.295665 210.130425 
L 156.028761 189.912165 
L 156.761856 210.6601 
L 157.494951 223.968436 
L 158.228047 212.089016 
L 158.961142 225.292224 
L 159.694237 167.513959 
L 160.427333 232.534285 
L 161.160428 212.315327 
L 161.893523 203.157787 
L 162.626619 221.618541 
L 163.359714 217.801394 
L 164.09281 217.673787 
L 164.825905 206.138893 
L 165.559 210.927371 
L 166.292096 225.315111 
L 167.025191 213.887459 
L 167.758286 218.764099 
L 168.491382 238.918013 
L 169.224477 232.569903 
L 169.957572 232.512647 
L 170.690668 178.193342 
L 171.423763 235.187177 
L 172.156858 227.203702 
L 172.889954 220.802243 
L 173.623049 235.875214 
L 174.356145 244.505956 
L 175.08924 219.452886 
L 175.822335 210.057448 
L 176.555431 238.844869 
L 177.288526 223.430469 
L 178.754717 208.691031 
L 179.487812 208.294429 
L 180.220907 187.02349 
L 180.954003 222.997646 
L 181.687098 58.807982 
L 182.420194 151.758278 
L 183.153289 155.494508 
L 183.886384 184.834838 
L 184.61948 170.265651 
L 185.352575 187.872179 
L 186.08567 171.067114 
L 186.818766 188.059691 
L 187.551861 174.346678 
L 188.284956 134.169944 
L 189.018052 199.246788 
L 189.751147 183.725804 
L 190.484242 208.743834 
L 191.217338 211.402624 
L 191.950433 223.873028 
L 192.683529 225.427229 
L 193.416624 231.87174 
L 194.149719 186.814735 
L 194.882815 228.702064 
L 195.61591 142.91916 
L 196.349005 205.242963 
L 197.815196 203.736275 
L 198.548291 188.689147 
L 199.281387 213.00488 
L 200.014482 184.957082 
L 200.747578 223.148666 
L 201.480673 208.714707 
L 202.213768 217.458273 
L 202.946864 194.356853 
L 203.679959 210.455487 
L 204.413054 217.068382 
L 205.14615 211.448197 
L 205.879245 230.583625 
L 206.61234 215.151454 
L 207.345436 186.76518 
L 208.078531 203.74155 
L 208.811626 230.379431 
L 209.544722 193.530732 
L 210.277817 208.52382 
L 211.010913 187.767961 
L 211.744008 218.448055 
L 212.477103 190.454026 
L 213.210199 217.400243 
L 213.943294 195.235402 
L 214.676389 189.339119 
L 215.409485 207.994025 
L 216.14258 188.587435 
L 216.875675 221.185024 
L 217.608771 205.76714 
L 218.341866 221.578011 
L 219.074962 216.772152 
L 219.808057 216.041766 
L 220.541152 207.813663 
L 221.274248 214.406186 
L 222.007343 197.246868 
L 222.740438 188.45275 
L 223.473534 213.347354 
L 224.206629 214.871742 
L 224.939724 229.139587 
L 225.67282 185.995964 
L 226.405915 167.825383 
L 227.13901 219.216928 
L 227.872106 224.401609 
L 228.605201 193.543037 
L 229.338297 199.328574 
L 230.071392 152.482839 
L 230.804487 167.866927 
L 231.537583 141.952457 
L 232.270678 133.184871 
L 233.003773 171.662033 
L 233.736869 174.819432 
L 234.469964 164.074207 
L 235.203059 189.922443 
L 236.66925 206.883731 
L 237.402346 172.219287 
L 238.135441 146.100579 
L 238.868536 204.846848 
L 239.601632 146.722151 
L 240.334727 207.475753 
L 241.067822 203.659707 
L 241.800918 195.08447 
L 242.534013 168.025903 
L 243.267108 206.224262 
L 244.000204 199.429616 
L 244.733299 206.289051 
L 246.19949 172.375246 
L 246.932585 214.638353 
L 247.665681 168.425824 
L 248.398776 223.620008 
L 249.131871 217.287168 
L 249.864967 218.359869 
L 250.598062 235.757781 
L 251.331157 205.677007 
L 252.064253 244.35401 
L 252.797348 211.326072 
L 253.530443 238.747845 
L 254.263539 227.196524 
L 254.996634 210.187912 
L 255.72973 197.258032 
L 256.462825 211.891314 
L 257.19592 182.491007 
L 257.929016 203.403353 
L 258.662111 185.840212 
L 259.395206 199.630518 
L 260.128302 102.671111 
L 260.861397 220.44313 
L 261.594492 195.31327 
L 262.327588 210.962962 
L 263.060683 192.877064 
L 263.793779 234.652515 
L 264.526874 159.532954 
L 265.259969 203.7502 
L 265.993065 197.529884 
L 266.72616 220.158582 
L 267.459255 219.566273 
L 268.192351 186.991451 
L 268.925446 226.362403 
L 269.658541 216.76833 
L 270.391637 234.979256 
L 271.124732 223.741519 
L 271.857827 177.039749 
L 272.590923 152.68564 
L 273.324018 208.184705 
L 274.057114 209.970842 
L 274.790209 152.31625 
L 275.523304 217.588378 
L 276.2564 223.213128 
L 276.989495 208.106318 
L 277.72259 214.280406 
L 278.455686 203.930698 
L 279.188781 208.715673 
L 279.921876 191.224902 
L 280.654972 207.05731 
L 281.388067 197.785736 
L 282.121163 231.500378 
L 282.854258 224.981127 
L 283.587353 240.697922 
L 284.320449 232.97014 
L 285.053544 248.523925 
L 285.786639 226.094956 
L 286.519735 235.62334 
L 287.25283 234.649925 
L 287.985925 239.540794 
L 288.719021 245.807485 
L 289.452116 237.227758 
L 290.185211 226.565756 
L 290.918307 246.658016 
L 291.651402 218.825146 
L 292.384498 229.784843 
L 293.117593 235.505073 
L 293.850688 226.653303 
L 294.583784 221.476043 
L 295.316879 219.405454 
L 296.049974 238.879402 
L 296.78307 225.230308 
L 297.516165 226.459663 
L 298.24926 216.780012 
L 298.982356 171.005924 
L 299.715451 223.994131 
L 300.448547 221.169024 
L 301.181642 198.779923 
L 301.914737 221.997762 
L 302.647833 221.97506 
L 303.380928 161.828043 
L 304.114023 225.742715 
L 304.847119 195.054537 
L 305.580214 223.026398 
L 306.313309 196.952322 
L 307.7795 228.286322 
L 308.512595 221.090126 
L 309.245691 233.180267 
L 309.978786 225.795614 
L 310.711882 240.09796 
L 311.444977 243.14607 
L 312.178072 211.151958 
L 312.911168 195.53887 
L 313.644263 224.498677 
L 314.377358 212.020054 
L 315.110454 205.110601 
L 315.843549 164.599158 
L 316.576644 191.736447 
L 317.30974 184.845116 
L 318.042835 211.809049 
L 318.775931 180.454109 
L 319.509026 200.16254 
L 320.975217 193.816141 
L 321.708312 174.84468 
L 322.441407 187.705909 
L 323.174503 122.149137 
L 323.907598 183.814286 
L 324.640693 115.10349 
L 325.373789 191.130811 
L 326.106884 164.644364 
L 326.839979 195.980639 
L 327.573075 142.923613 
L 328.30617 160.299425 
L 329.039266 162.04686 
L 329.772361 144.951311 
L 330.505456 183.891627 
L 331.238552 189.334475 
L 331.971647 187.793696 
L 332.704742 184.532103 
L 333.437838 192.642072 
L 334.170933 193.75322 
L 334.904028 149.340107 
L 335.637124 194.626303 
L 336.370219 213.771511 
L 337.103315 181.552904 
L 337.83641 212.821637 
L 338.569505 213.61828 
L 339.302601 186.701628 
L 340.035696 197.024795 
L 340.768791 227.412393 
L 341.501887 195.002053 
L 344.434268 225.61826 
L 345.167363 202.900482 
L 345.900459 219.349562 
L 346.633554 222.72044 
L 347.36665 231.485508 
L 348.099745 189.683556 
L 348.83284 214.045996 
L 349.565936 190.688093 
L 350.299031 200.830962 
L 351.032126 217.547704 
L 351.765222 203.479002 
L 352.498317 193.626523 
L 353.231412 210.075499 
L 353.964508 209.48935 
L 354.697603 171.123787 
L 355.430699 195.412804 
L 356.163794 201.466267 
L 356.896889 182.451507 
L 357.629985 212.897574 
L 358.36308 138.650143 
L 359.096175 234.814499 
L 359.829271 218.863449 
L 360.562366 164.650588 
L 361.295461 40.518102 
L 362.028557 200.993417 
L 362.761652 204.84048 
L 363.494747 165.75564 
L 364.227843 166.602947 
L 364.960938 154.984639 
L 365.694034 113.643309 
L 366.427129 201.756042 
L 367.160224 155.776774 
L 367.89332 181.929915 
L 368.626415 178.677579 
L 369.35951 172.482504 
L 370.092606 201.840382 
L 370.825701 177.305057 
L 371.558796 185.003198 
L 372.291892 141.139558 
L 373.024987 156.260804 
L 373.758083 199.987117 
L 374.491178 207.959528 
L 375.224273 180.414537 
L 375.957369 196.120862 
L 376.690464 205.264238 
L 377.423559 209.083866 
L 378.156655 190.596571 
L 378.88975 196.037544 
L 379.622845 199.942015 
L 380.355941 195.065063 
L 381.089036 204.074631 
L 381.822131 208.901406 
L 382.555227 105.518474 
L 383.288322 166.216344 
L 384.021418 168.725056 
L 384.754513 178.018518 
L 385.487608 170.165399 
L 386.220704 200.419126 
L 386.953799 140.80512 
L 387.686894 113.868023 
L 388.41999 215.869559 
L 389.153085 132.608322 
L 389.88618 191.722155 
L 390.619276 190.780277 
L 391.352371 150.6239 
L 392.085467 201.45385 
L 392.818562 182.414368 
L 393.551657 199.330912 
L 394.284753 195.883667 
L 395.017848 177.175375 
L 395.750943 193.619133 
L 396.484039 187.766923 
L 397.217134 214.865909 
L 398.683325 196.884867 
L 399.41642 207.837826 
L 400.149516 209.737956 
L 400.882611 162.85754 
L 401.615706 188.849088 
L 402.348802 210.734824 
L 403.081897 193.702013 
L 403.814992 162.461321 
L 404.548088 211.703091 
L 405.281183 170.009663 
L 406.014278 222.606048 
L 406.747374 181.760717 
L 407.480469 186.024723 
L 408.213564 221.987021 
L 408.94666 221.126994 
L 409.679755 202.479222 
L 410.412851 175.822564 
L 411.145946 199.50967 
L 411.879041 152.268737 
L 412.612137 214.266353 
L 413.345232 210.993286 
L 414.078327 206.866071 
L 414.811423 218.377177 
L 415.544518 218.961874 
L 416.277613 204.804379 
L 417.010709 202.531387 
L 417.743804 203.275714 
L 418.4769 238.966623 
L 419.209995 210.847692 
L 419.94309 227.260017 
L 420.676186 189.600629 
L 421.409281 201.258693 
L 422.142376 196.864918 
L 422.875472 227.909291 
L 423.608567 193.538608 
L 424.341662 214.853755 
L 425.074758 201.652008 
L 425.807853 235.842939 
L 426.540948 173.494191 
L 427.274044 187.773714 
L 428.007139 212.581417 
L 428.740235 226.131824 
L 429.47333 202.215111 
L 430.206425 225.082656 
L 430.939521 189.994717 
L 431.672616 236.410658 
L 431.672616 236.410658 
" clip-path="url(#p91b9fc3d1f)" style="fill: none; stroke: #2ca02c; stroke-width: 1.5; stroke-linecap: square"/>
   </g>
   <g id="line2d_16">
    <path d="M 65.124936 288.693567 
L 65.858031 287.232861 
L 66.591127 285.48839 
L 67.324222 251.998047 
L 68.057317 256.980833 
L 68.790413 229.542298 
L 69.523508 207.198355 
L 70.256603 158.94078 
L 70.989699 227.924864 
L 71.722794 210.504204 
L 72.455889 223.273217 
L 73.188985 222.442795 
L 73.92208 216.428425 
L 74.655176 176.653249 
L 75.388271 189.982548 
L 76.121366 184.713471 
L 76.854462 208.829275 
L 77.587557 216.053321 
L 78.320652 207.483118 
L 79.053748 212.317043 
L 79.786843 206.035513 
L 80.519938 214.669619 
L 81.253034 193.069492 
L 81.986129 221.398893 
L 82.719225 188.029008 
L 83.45232 229.593529 
L 84.185415 214.340327 
L 84.918511 227.236001 
L 85.651606 217.997117 
L 86.384701 218.951189 
L 87.117797 229.867675 
L 87.850892 125.221294 
L 89.317083 216.292263 
L 90.050178 200.962447 
L 90.783273 205.095814 
L 91.516369 201.905785 
L 92.249464 195.329613 
L 92.98256 212.816601 
L 93.715655 201.782048 
L 94.44875 217.907774 
L 95.181846 222.692566 
L 95.914941 162.479332 
L 96.648036 205.141539 
L 97.381132 222.634568 
L 98.114227 216.623454 
L 98.847322 196.279766 
L 99.580418 222.4231 
L 100.313513 228.47796 
L 101.046609 238.022223 
L 101.779704 226.190149 
L 102.512799 203.4275 
L 103.245895 174.398068 
L 103.97899 196.328348 
L 104.712085 208.247539 
L 105.445181 186.358124 
L 106.178276 211.6235 
L 106.911371 214.958204 
L 107.644467 224.96579 
L 108.377562 210.299272 
L 109.110657 234.455458 
L 109.843753 204.894488 
L 110.576848 235.427636 
L 111.309944 215.620785 
L 112.043039 227.537335 
L 112.776134 219.140656 
L 113.50923 219.805694 
L 114.242325 212.995096 
L 114.97542 225.533218 
L 115.708516 206.700424 
L 116.441611 195.528728 
L 117.174706 224.54291 
L 117.907802 183.805372 
L 118.640897 200.238716 
L 119.373993 195.432793 
L 120.107088 202.820635 
L 120.840183 188.027779 
L 121.573279 179.79251 
L 122.306374 189.154009 
L 123.039469 189.249345 
L 123.772565 199.862231 
L 124.50566 203.720219 
L 125.238755 212.03291 
L 125.971851 196.201714 
L 126.704946 105.19899 
L 127.438042 195.19717 
L 128.171137 162.784931 
L 128.904232 204.372099 
L 129.637328 195.927644 
L 130.370423 129.758405 
L 131.103518 161.130247 
L 131.836614 172.688945 
L 132.569709 196.462091 
L 133.302804 205.927968 
L 134.0359 201.855815 
L 134.768995 214.52827 
L 135.50209 180.352134 
L 136.235186 207.862667 
L 136.968281 225.448886 
L 137.701377 218.417364 
L 138.434472 222.060477 
L 139.167567 210.796237 
L 139.900663 213.274338 
L 140.633758 187.27212 
L 141.366853 180.475631 
L 142.099949 207.522324 
L 142.833044 157.957159 
L 143.566139 196.008991 
L 144.299235 200.131131 
L 145.03233 202.280753 
L 145.765426 216.203543 
L 146.498521 202.958991 
L 147.231616 193.961815 
L 147.964712 214.936539 
L 148.697807 205.198763 
L 149.430902 183.922829 
L 150.163998 209.927655 
L 150.897093 169.550945 
L 151.630188 195.870612 
L 152.363284 187.415576 
L 153.096379 189.866305 
L 153.829474 190.488802 
L 154.56257 189.776323 
L 155.295665 184.954536 
L 156.028761 218.374647 
L 156.761856 205.733537 
L 157.494951 217.945966 
L 158.228047 210.768954 
L 158.961142 201.38018 
L 159.694237 223.750264 
L 160.427333 208.052573 
L 161.160428 195.516543 
L 161.893523 222.729856 
L 162.626619 222.077187 
L 163.359714 218.907068 
L 164.09281 148.383315 
L 164.825905 162.88618 
L 165.559 196.85199 
L 166.292096 217.540203 
L 167.025191 230.203207 
L 167.758286 237.34545 
L 168.491382 150.362558 
L 169.224477 220.62852 
L 169.957572 223.81084 
L 170.690668 217.269445 
L 171.423763 219.137552 
L 172.156858 213.989921 
L 172.889954 229.674764 
L 173.623049 239.928303 
L 174.356145 214.572391 
L 175.08924 240.572661 
L 175.822335 221.953833 
L 176.555431 229.537075 
L 177.288526 190.285458 
L 178.754717 199.677839 
L 179.487812 210.872597 
L 180.220907 212.25381 
L 180.954003 212.218842 
L 181.687098 224.271313 
L 182.420194 176.8956 
L 183.153289 194.211291 
L 183.886384 166.87136 
L 184.61948 163.309052 
L 185.352575 162.163391 
L 186.08567 193.224127 
L 186.818766 174.395993 
L 187.551861 183.000693 
L 188.284956 194.5306 
L 189.018052 192.153046 
L 189.751147 204.500432 
L 190.484242 202.129462 
L 191.217338 211.445819 
L 191.950433 187.703204 
L 192.683529 216.273926 
L 193.416624 219.719799 
L 194.149719 227.870692 
L 194.882815 199.378465 
L 195.61591 199.253292 
L 196.349005 189.764162 
L 197.082101 197.390659 
L 197.815196 216.597767 
L 198.548291 215.493027 
L 199.281387 165.73656 
L 200.014482 197.891183 
L 200.747578 184.088005 
L 201.480673 204.411919 
L 202.213768 214.920443 
L 202.946864 221.843822 
L 203.679959 222.774991 
L 204.413054 223.050689 
L 205.14615 208.196372 
L 205.879245 221.828173 
L 206.61234 188.995967 
L 207.345436 223.806651 
L 208.078531 227.186179 
L 208.811626 219.129947 
L 209.544722 206.471624 
L 210.277817 190.645424 
L 211.010913 217.413346 
L 211.744008 198.958849 
L 212.477103 213.828615 
L 213.210199 186.899761 
L 213.943294 179.25815 
L 214.676389 201.569679 
L 215.409485 176.912517 
L 216.14258 206.494853 
L 216.875675 181.045445 
L 217.608771 214.53937 
L 218.341866 170.928024 
L 219.074962 194.170873 
L 219.808057 206.096145 
L 220.541152 229.312831 
L 221.274248 224.550355 
L 222.007343 229.159222 
L 222.740438 212.813569 
L 223.473534 209.297409 
L 224.206629 211.80055 
L 224.939724 223.758651 
L 225.67282 229.498025 
L 226.405915 198.643929 
L 227.13901 209.463351 
L 227.872106 214.449245 
L 228.605201 226.86288 
L 229.338297 56.636327 
L 230.071392 184.650733 
L 230.804487 175.034682 
L 231.537583 177.162839 
L 232.270678 167.506578 
L 233.003773 171.543739 
L 233.736869 165.351377 
L 234.469964 172.661263 
L 235.203059 184.76001 
L 235.936155 139.563397 
L 236.66925 194.08117 
L 237.402346 190.549601 
L 238.135441 203.719174 
L 238.868536 171.155141 
L 239.601632 182.212588 
L 240.334727 180.545766 
L 241.067822 211.360976 
L 241.800918 184.608575 
L 242.534013 205.802061 
L 243.267108 195.403603 
L 244.000204 204.898821 
L 244.733299 192.349568 
L 245.466394 198.586226 
L 246.19949 175.091244 
L 246.932585 199.585296 
L 247.665681 191.974057 
L 248.398776 182.949613 
L 249.131871 157.420238 
L 249.864967 212.569663 
L 250.598062 198.060094 
L 251.331157 163.353277 
L 252.064253 219.494502 
L 252.797348 234.16145 
L 253.530443 221.710812 
L 254.263539 230.142727 
L 254.996634 129.73603 
L 255.72973 179.645392 
L 256.462825 170.820247 
L 257.19592 199.904166 
L 257.929016 195.944019 
L 258.662111 202.868858 
L 259.395206 199.651458 
L 260.128302 204.157982 
L 260.861397 191.804108 
L 261.594492 217.804474 
L 262.327588 210.145188 
L 263.060683 157.058509 
L 263.793779 212.282609 
L 264.526874 229.065904 
L 265.259969 221.333697 
L 265.993065 205.38914 
L 266.72616 218.673112 
L 267.459255 215.611536 
L 268.192351 189.755559 
L 268.925446 208.400554 
L 269.658541 207.254358 
L 270.391637 224.416324 
L 271.124732 191.323534 
L 271.857827 210.956131 
L 272.590923 200.68374 
L 273.324018 197.184561 
L 274.057114 209.929084 
L 274.790209 213.294966 
L 275.523304 211.380104 
L 276.2564 219.111769 
L 276.989495 221.135995 
L 277.72259 174.650465 
L 278.455686 200.43242 
L 279.188781 195.26073 
L 279.921876 214.55952 
L 280.654972 211.460709 
L 281.388067 223.471989 
L 282.121163 211.304814 
L 282.854258 223.324145 
L 283.587353 205.267087 
L 284.320449 179.417573 
L 285.053544 230.543554 
L 285.786639 218.487228 
L 286.519735 226.937971 
L 287.25283 233.282558 
L 287.985925 246.639898 
L 289.452116 225.446787 
L 290.185211 207.133039 
L 290.918307 226.85028 
L 291.651402 237.586931 
L 292.384498 217.962197 
L 293.117593 212.953792 
L 293.850688 231.399568 
L 294.583784 233.259217 
L 295.316879 156.198098 
L 296.049974 214.535045 
L 296.78307 223.805893 
L 297.516165 214.126513 
L 298.24926 225.453586 
L 298.982356 200.313504 
L 299.715451 202.02949 
L 300.448547 206.720318 
L 301.181642 225.023604 
L 301.914737 211.50815 
L 302.647833 233.32938 
L 304.114023 193.505084 
L 304.847119 196.216892 
L 305.580214 173.010177 
L 306.313309 209.758824 
L 307.046405 196.548881 
L 307.7795 226.633745 
L 308.512595 193.521243 
L 309.245691 177.475628 
L 309.978786 208.507756 
L 310.711882 234.065388 
L 311.444977 228.083501 
L 312.178072 211.470094 
L 312.911168 211.970531 
L 313.644263 201.790052 
L 314.377358 165.63638 
L 315.843549 209.000628 
L 316.576644 181.579238 
L 317.30974 187.814683 
L 318.042835 182.697999 
L 318.775931 161.583793 
L 319.509026 175.705123 
L 320.242121 201.289855 
L 320.975217 170.177337 
L 321.708312 196.974769 
L 322.441407 175.781483 
L 323.174503 188.054041 
L 323.907598 163.8463 
L 324.640693 171.343124 
L 325.373789 131.8889 
L 326.106884 179.700781 
L 326.839979 171.071862 
L 327.573075 201.742245 
L 328.30617 167.767306 
L 329.039266 182.906306 
L 329.772361 172.423892 
L 330.505456 186.091986 
L 331.238552 126.378925 
L 331.971647 173.962628 
L 332.704742 191.695765 
L 333.437838 193.568764 
L 334.170933 203.178191 
L 334.904028 203.927162 
L 335.637124 203.506573 
L 336.370219 210.443868 
L 337.103315 222.897155 
L 337.83641 202.20263 
L 338.569505 220.142479 
L 339.302601 147.355629 
L 340.768791 183.227586 
L 341.501887 216.59254 
L 342.234982 210.16347 
L 342.968077 214.082975 
L 343.701173 223.824143 
L 344.434268 222.700634 
L 345.167363 230.637773 
L 345.900459 168.915935 
L 346.633554 219.933724 
L 347.36665 170.241607 
L 348.099745 210.756106 
L 348.83284 205.464454 
L 349.565936 201.797553 
L 350.299031 207.985614 
L 351.032126 217.602806 
L 351.765222 192.22323 
L 352.498317 214.659277 
L 353.231412 213.89105 
L 353.964508 181.891564 
L 354.697603 207.612034 
L 355.430699 200.185985 
L 356.163794 188.616394 
L 356.896889 219.634709 
L 357.629985 205.589244 
L 358.36308 213.656624 
L 359.096175 199.103716 
L 359.829271 225.515558 
L 360.562366 216.855781 
L 361.295461 224.675017 
L 362.028557 200.980481 
L 362.761652 147.085987 
L 363.494747 192.19226 
L 364.227843 190.995072 
L 364.960938 178.632405 
L 365.694034 190.74475 
L 366.427129 103.949318 
L 367.160224 187.777297 
L 367.89332 148.92065 
L 368.626415 189.739927 
L 369.35951 164.335972 
L 370.092606 180.541729 
L 370.825701 191.001887 
L 371.558796 190.649661 
L 372.291892 164.103549 
L 373.024987 168.066928 
L 374.491178 196.720329 
L 375.224273 187.685432 
L 375.957369 205.120743 
L 376.690464 209.762654 
L 377.423559 209.856203 
L 378.156655 214.489871 
L 378.88975 204.300734 
L 379.622845 224.119511 
L 380.355941 144.057129 
L 381.089036 192.383514 
L 381.822131 201.338157 
L 382.555227 183.385564 
L 383.288322 182.329765 
L 384.021418 188.268038 
L 384.754513 191.121035 
L 385.487608 173.653103 
L 386.220704 196.954748 
L 386.953799 212.153023 
L 387.686894 187.858597 
L 388.41999 190.806563 
L 389.153085 159.979143 
L 389.88618 182.954872 
L 390.619276 196.813702 
L 391.352371 191.321483 
L 392.085467 192.824046 
L 392.818562 172.356964 
L 393.551657 170.988105 
L 394.284753 203.641274 
L 395.017848 184.054673 
L 395.750943 189.553747 
L 396.484039 166.390913 
L 397.217134 64.934581 
L 397.950229 179.570253 
L 398.683325 156.796416 
L 399.41642 202.049048 
L 400.149516 216.255285 
L 400.882611 212.19246 
L 401.615706 196.498416 
L 402.348802 210.036765 
L 403.081897 209.795787 
L 403.814992 207.530192 
L 404.548088 200.599608 
L 405.281183 211.163162 
L 406.014278 190.919 
L 406.747374 219.60709 
L 407.480469 214.004157 
L 408.213564 202.725498 
L 408.94666 212.204757 
L 409.679755 211.269383 
L 410.412851 228.271559 
L 411.145946 223.547239 
L 411.879041 220.538387 
L 412.612137 216.831778 
L 413.345232 208.480696 
L 414.078327 225.769104 
L 414.811423 225.600417 
L 415.544518 229.855917 
L 417.010709 215.343036 
L 417.743804 230.103354 
L 418.4769 200.553588 
L 419.209995 224.485662 
L 419.94309 205.531142 
L 420.676186 226.595026 
L 421.409281 218.851504 
L 422.142376 219.442297 
L 422.875472 212.742843 
L 423.608567 222.746614 
L 424.341662 196.07884 
L 425.074758 211.945889 
L 425.807853 217.391378 
L 426.540948 231.908292 
L 427.274044 196.841361 
L 428.007139 192.442845 
L 428.740235 207.820916 
L 429.47333 219.510996 
L 430.206425 188.728376 
L 430.939521 228.387871 
L 431.672616 217.663022 
L 431.672616 217.663022 
" clip-path="url(#p91b9fc3d1f)" style="fill: none; stroke: #d62728; stroke-width: 1.5; stroke-linecap: square"/>
   </g>
   <g id="line2d_17">
    <path d="M 65.124936 288.693567 
L 65.858031 289.34416 
L 66.591127 228.751755 
L 67.324222 251.637315 
L 68.057317 247.27243 
L 68.790413 240.441276 
L 69.523508 257.128629 
L 70.256603 255.453663 
L 70.989699 259.713281 
L 71.722794 235.59 
L 72.455889 253.940798 
L 73.188985 211.817891 
L 73.92208 238.903685 
L 74.655176 226.716871 
L 75.388271 237.033164 
L 76.121366 225.642886 
L 76.854462 246.27366 
L 77.587557 224.603501 
L 78.320652 229.181374 
L 79.053748 220.604564 
L 79.786843 234.841507 
L 81.253034 239.011219 
L 81.986129 211.253622 
L 82.719225 250.317532 
L 83.45232 241.954939 
L 84.185415 240.899104 
L 84.918511 224.556731 
L 85.651606 224.492517 
L 86.384701 243.508837 
L 87.117797 244.873603 
L 87.850892 228.976051 
L 88.583987 241.245337 
L 89.317083 217.50024 
L 90.050178 221.488899 
L 90.783273 223.91596 
L 91.516369 236.013462 
L 92.249464 225.86926 
L 92.98256 239.136751 
L 93.715655 239.255771 
L 94.44875 236.680639 
L 95.181846 232.130305 
L 95.914941 250.627372 
L 96.648036 235.119184 
L 97.381132 251.977962 
L 98.114227 229.189721 
L 98.847322 235.314325 
L 99.580418 249.497443 
L 100.313513 249.774195 
L 101.046609 226.854605 
L 101.779704 241.826538 
L 102.512799 197.972562 
L 103.245895 185.919724 
L 103.97899 231.618808 
L 104.712085 201.167682 
L 105.445181 237.46651 
L 106.178276 232.488955 
L 106.911371 241.811648 
L 107.644467 208.348461 
L 108.377562 255.818414 
L 109.110657 235.700545 
L 109.843753 259.44245 
L 110.576848 241.17584 
L 111.309944 247.397232 
L 112.043039 236.669204 
L 112.776134 223.504499 
L 113.50923 230.308226 
L 114.242325 235.967394 
L 114.97542 236.593279 
L 115.708516 246.426858 
L 116.441611 249.171268 
L 117.174706 176.726896 
L 117.907802 222.302452 
L 118.640897 219.652328 
L 119.373993 234.24172 
L 120.107088 206.032449 
L 120.840183 210.835339 
L 121.573279 223.679379 
L 122.306374 198.738172 
L 123.039469 217.496026 
L 123.772565 225.64034 
L 124.50566 229.034871 
L 125.238755 198.832319 
L 125.971851 203.766766 
L 126.704946 232.594493 
L 127.438042 198.500314 
L 128.171137 222.659338 
L 128.904232 207.974586 
L 129.637328 196.519315 
L 130.370423 202.37814 
L 131.103518 198.041517 
L 131.836614 227.776788 
L 132.569709 232.525156 
L 133.302804 244.579251 
L 134.0359 231.518058 
L 134.768995 226.318913 
L 135.50209 226.459136 
L 136.235186 241.399896 
L 136.968281 247.506952 
L 137.701377 222.201003 
L 138.434472 243.613569 
L 139.167567 228.450206 
L 139.900663 233.872078 
L 140.633758 240.960577 
L 141.366853 232.087365 
L 142.099949 212.565074 
L 142.833044 206.007129 
L 143.566139 222.042155 
L 144.299235 215.260747 
L 145.03233 234.101246 
L 145.765426 210.798975 
L 146.498521 204.857924 
L 147.231616 231.130876 
L 147.964712 223.998288 
L 148.697807 227.212389 
L 149.430902 235.892151 
L 150.163998 216.708576 
L 150.897093 239.211115 
L 151.630188 209.443872 
L 152.363284 222.950222 
L 153.096379 197.430901 
L 153.829474 233.644399 
L 154.56257 200.241453 
L 155.295665 242.934406 
L 156.028761 235.964397 
L 156.761856 245.646997 
L 157.494951 238.981242 
L 158.228047 206.13132 
L 158.961142 232.934266 
L 159.694237 213.028373 
L 160.427333 234.64064 
L 161.160428 238.07511 
L 161.893523 228.303 
L 162.626619 216.045836 
L 163.359714 231.726912 
L 164.09281 239.015133 
L 164.825905 220.992444 
L 165.559 254.973883 
L 166.292096 248.278132 
L 167.025191 255.643685 
L 167.758286 250.491937 
L 168.491382 263.275361 
L 169.224477 249.316227 
L 169.957572 254.067152 
L 170.690668 240.527958 
L 171.423763 253.640311 
L 172.156858 254.499848 
L 172.889954 260.472211 
L 173.623049 233.004625 
L 174.356145 249.54006 
L 175.08924 245.089424 
L 175.822335 244.437807 
L 176.555431 244.455439 
L 177.288526 210.12511 
L 178.021621 187.391987 
L 178.754717 218.858837 
L 179.487812 215.717981 
L 180.220907 219.672358 
L 180.954003 240.976956 
L 181.687098 170.63465 
L 182.420194 225.121135 
L 183.153289 202.287169 
L 183.886384 215.748767 
L 184.61948 177.366335 
L 185.352575 208.816499 
L 186.08567 187.716953 
L 186.818766 182.06646 
L 187.551861 223.782719 
L 188.284956 224.47382 
L 189.018052 219.090454 
L 189.751147 207.767722 
L 190.484242 235.401673 
L 191.217338 232.606966 
L 191.950433 226.279364 
L 192.683529 241.161133 
L 193.416624 238.764483 
L 194.149719 213.282461 
L 194.882815 237.321969 
L 195.61591 224.620746 
L 196.349005 203.054351 
L 197.082101 230.400586 
L 197.815196 223.997834 
L 198.548291 213.967473 
L 199.281387 219.272931 
L 200.014482 217.267306 
L 200.747578 199.660268 
L 201.480673 228.506293 
L 202.213768 234.722387 
L 202.946864 234.94108 
L 203.679959 226.954625 
L 204.413054 229.362574 
L 205.14615 223.265588 
L 205.879245 244.115087 
L 206.61234 245.689721 
L 207.345436 255.800874 
L 208.078531 242.104706 
L 208.811626 225.637412 
L 209.544722 168.200751 
L 210.277817 231.471627 
L 211.010913 215.747235 
L 211.744008 248.192623 
L 212.477103 158.916553 
L 213.210199 143.773858 
L 213.943294 209.661716 
L 214.676389 193.70467 
L 215.409485 235.954462 
L 216.14258 227.32868 
L 216.875675 244.397265 
L 217.608771 229.901059 
L 218.341866 244.421448 
L 219.074962 208.150048 
L 219.808057 252.057701 
L 220.541152 232.563352 
L 221.274248 241.118081 
L 222.007343 240.204528 
L 222.740438 256.677005 
L 223.473534 227.391661 
L 224.206629 251.595799 
L 224.939724 250.603939 
L 225.67282 201.33858 
L 226.405915 255.462302 
L 227.13901 239.858315 
L 227.872106 238.283123 
L 228.605201 119.516594 
L 229.338297 224.166856 
L 230.071392 172.844466 
L 230.804487 217.068582 
L 231.537583 166.853302 
L 232.270678 220.868077 
L 233.003773 157.886058 
L 233.736869 211.130804 
L 234.469964 207.879824 
L 235.203059 223.250442 
L 235.936155 222.773961 
L 236.66925 195.100079 
L 237.402346 232.866664 
L 238.135441 179.167523 
L 238.868536 235.648488 
L 239.601632 214.591463 
L 240.334727 243.370429 
L 241.067822 159.537535 
L 241.800918 250.716927 
L 242.534013 207.15113 
L 243.267108 209.061331 
L 244.000204 182.125958 
L 244.733299 225.698466 
L 245.466394 216.181965 
L 246.19949 237.739339 
L 246.932585 237.519768 
L 247.665681 247.350725 
L 248.398776 248.22732 
L 249.131871 248.450582 
L 249.864967 249.163791 
L 250.598062 251.850722 
L 251.331157 252.714879 
L 252.064253 251.772826 
L 252.797348 220.732809 
L 253.530443 252.809098 
L 254.263539 222.621449 
L 254.996634 239.253676 
L 255.72973 203.064741 
L 256.462825 225.325086 
L 257.19592 196.958075 
L 257.929016 218.835456 
L 258.662111 222.950086 
L 259.395206 237.390385 
L 260.128302 221.414135 
L 260.861397 246.031545 
L 261.594492 216.314535 
L 262.327588 248.08165 
L 263.060683 237.840157 
L 263.793779 247.609817 
L 264.526874 254.972083 
L 265.259969 241.026056 
L 265.993065 242.363172 
L 266.72616 245.081428 
L 267.459255 247.1637 
L 268.192351 245.850221 
L 268.925446 251.505147 
L 269.658541 232.186743 
L 270.391637 154.814332 
L 271.124732 229.978512 
L 271.857827 213.823069 
L 272.590923 208.982346 
L 273.324018 232.86591 
L 274.057114 235.375009 
L 274.790209 249.261493 
L 275.523304 229.549759 
L 276.2564 251.083065 
L 276.989495 202.991238 
L 277.72259 231.980534 
L 278.455686 222.571271 
L 279.188781 228.579453 
L 279.921876 218.479831 
L 280.654972 242.278629 
L 281.388067 240.548857 
L 282.121163 250.372158 
L 282.854258 232.844372 
L 283.587353 258.227101 
L 284.320449 253.120838 
L 285.053544 253.052968 
L 285.786639 255.817053 
L 286.519735 256.888353 
L 287.25283 263.990165 
L 287.985925 258.654553 
L 288.719021 221.154452 
L 289.452116 241.494621 
L 290.185211 248.526463 
L 290.918307 250.689137 
L 291.651402 255.030903 
L 292.384498 235.35464 
L 293.117593 251.290523 
L 293.850688 256.654167 
L 294.583784 244.578725 
L 295.316879 242.529429 
L 296.049974 250.255656 
L 296.78307 204.466892 
L 297.516165 225.217987 
L 298.24926 199.849503 
L 298.982356 221.700606 
L 300.448547 237.530193 
L 301.181642 206.549843 
L 301.914737 252.432785 
L 302.647833 234.282043 
L 303.380928 178.355103 
L 304.114023 225.655223 
L 304.847119 217.223736 
L 305.580214 240.787808 
L 306.313309 240.59244 
L 307.046405 252.636381 
L 307.7795 247.314971 
L 308.512595 250.532403 
L 309.245691 247.375391 
L 309.978786 254.570913 
L 310.711882 251.064009 
L 311.444977 181.95348 
L 312.178072 247.834771 
L 312.911168 180.128624 
L 313.644263 159.266584 
L 314.377358 232.303813 
L 315.110454 216.710898 
L 315.843549 156.189112 
L 316.576644 226.608791 
L 317.30974 160.744481 
L 318.042835 215.728945 
L 318.775931 204.836682 
L 319.509026 227.989756 
L 320.242121 188.279737 
L 320.975217 240.899854 
L 323.174503 167.760076 
L 323.907598 209.308677 
L 324.640693 141.258252 
L 325.373789 221.903424 
L 326.106884 175.199332 
L 326.839979 234.973754 
L 327.573075 170.343734 
L 328.30617 206.396421 
L 329.039266 164.014397 
L 329.772361 217.038921 
L 330.505456 204.589544 
L 331.238552 184.668201 
L 331.971647 214.929987 
L 332.704742 208.95199 
L 333.437838 213.1813 
L 334.170933 215.153186 
L 334.904028 222.974959 
L 335.637124 225.497659 
L 336.370219 237.44962 
L 337.103315 195.709457 
L 337.83641 243.443274 
L 338.569505 196.815067 
L 339.302601 234.770885 
L 340.035696 221.827527 
L 340.768791 246.873099 
L 341.501887 220.850346 
L 342.234982 217.231971 
L 342.968077 240.176255 
L 343.701173 227.914681 
L 344.434268 247.69766 
L 345.167363 247.960507 
L 345.900459 234.817739 
L 346.633554 151.630009 
L 347.36665 231.65301 
L 348.099745 219.456214 
L 348.83284 220.889878 
L 349.565936 217.937292 
L 350.299031 234.827183 
L 351.032126 241.262936 
L 351.765222 232.625164 
L 352.498317 222.334643 
L 353.231412 214.108463 
L 353.964508 226.25959 
L 354.697603 217.826132 
L 355.430699 206.928841 
L 356.163794 242.053591 
L 356.896889 234.087556 
L 357.629985 246.324799 
L 358.36308 238.333324 
L 359.096175 253.802933 
L 359.829271 244.739329 
L 360.562366 249.020687 
L 361.295461 241.908568 
L 362.028557 183.845256 
L 362.761652 205.223437 
L 363.494747 196.915694 
L 364.227843 170.328205 
L 364.960938 216.118589 
L 365.694034 143.064858 
L 366.427129 221.974844 
L 367.160224 192.301609 
L 367.89332 212.557055 
L 368.626415 208.816707 
L 369.35951 187.64195 
L 370.092606 190.14474 
L 370.825701 196.714297 
L 371.558796 217.982275 
L 372.291892 216.207988 
L 373.024987 237.987618 
L 373.758083 214.687478 
L 374.491178 239.803218 
L 375.224273 229.834399 
L 376.690464 207.814548 
L 377.423559 218.730632 
L 378.156655 223.526747 
L 378.88975 245.051778 
L 379.622845 214.432048 
L 380.355941 195.123635 
L 381.089036 216.351945 
L 381.822131 168.807568 
L 382.555227 237.043123 
L 383.288322 222.515276 
L 384.021418 197.715577 
L 384.754513 195.501006 
L 386.220704 230.373574 
L 386.953799 227.478463 
L 387.686894 239.536154 
L 388.41999 166.02414 
L 389.153085 224.430609 
L 389.88618 213.652722 
L 390.619276 213.729704 
L 391.352371 217.376072 
L 392.085467 215.631055 
L 392.818562 175.484446 
L 393.551657 219.501149 
L 394.284753 187.547619 
L 395.017848 202.513488 
L 395.750943 222.476566 
L 396.484039 209.005136 
L 397.217134 212.816218 
L 397.950229 224.404857 
L 398.683325 225.68818 
L 399.41642 235.423139 
L 400.149516 212.749427 
L 400.882611 201.060241 
L 401.615706 221.524609 
L 402.348802 228.185408 
L 403.081897 238.415621 
L 403.814992 220.024983 
L 404.548088 235.371122 
L 405.281183 213.157951 
L 406.014278 246.089746 
L 406.747374 234.147346 
L 407.480469 235.93652 
L 408.213564 233.361719 
L 408.94666 227.559228 
L 409.679755 244.839764 
L 411.145946 230.506252 
L 411.879041 241.168717 
L 412.612137 233.447299 
L 413.345232 246.1701 
L 414.078327 234.594149 
L 414.811423 239.898625 
L 415.544518 231.495618 
L 416.277613 208.889316 
L 417.010709 249.778911 
L 417.743804 191.954442 
L 418.4769 246.180111 
L 419.209995 232.732075 
L 419.94309 249.349739 
L 420.676186 237.861424 
L 421.409281 232.260554 
L 422.142376 216.692097 
L 422.875472 247.969927 
L 423.608567 215.791739 
L 424.341662 240.411263 
L 425.074758 243.56816 
L 425.807853 255.352223 
L 426.540948 192.132937 
L 427.274044 229.807319 
L 428.007139 225.832792 
L 428.740235 248.250509 
L 429.47333 242.646303 
L 430.206425 250.491741 
L 430.939521 222.821011 
L 431.672616 244.47742 
L 431.672616 244.47742 
" clip-path="url(#p91b9fc3d1f)" style="fill: none; stroke: #9467bd; stroke-width: 1.5; stroke-linecap: square"/>
   </g>
   <g id="line2d_18">
    <path d="M 65.124936 288.693567 
L 65.858031 199.40009 
L 66.591127 276.103788 
L 67.324222 233.247749 
L 68.057317 243.496624 
L 68.790413 259.385545 
L 69.523508 254.907993 
L 70.256603 265.830833 
L 70.989699 251.555042 
L 71.722794 254.54169 
L 72.455889 248.498489 
L 73.188985 220.145535 
L 73.92208 229.094369 
L 74.655176 222.984464 
L 75.388271 240.906162 
L 76.121366 253.541036 
L 76.854462 222.719642 
L 77.587557 250.57273 
L 78.320652 207.156572 
L 79.053748 233.155549 
L 79.786843 242.43768 
L 80.519938 243.996677 
L 81.253034 243.489178 
L 81.986129 255.055509 
L 82.719225 241.380935 
L 83.45232 254.678275 
L 84.185415 206.908572 
L 84.918511 237.544797 
L 85.651606 243.790053 
L 86.384701 246.616214 
L 87.117797 250.451359 
L 87.850892 250.017239 
L 88.583987 250.117268 
L 89.317083 232.224915 
L 90.050178 208.04923 
L 90.783273 236.554353 
L 91.516369 218.646539 
L 92.249464 242.288077 
L 92.98256 239.696825 
L 93.715655 254.446059 
L 94.44875 241.483082 
L 95.181846 251.622995 
L 95.914941 234.640529 
L 96.648036 257.875976 
L 97.381132 219.6714 
L 98.114227 229.344811 
L 98.847322 246.93869 
L 99.580418 245.937809 
L 100.313513 226.41132 
L 101.046609 235.658555 
L 101.779704 215.900306 
L 102.512799 184.553426 
L 103.245895 222.726608 
L 103.97899 219.276753 
L 104.712085 239.529626 
L 105.445181 231.936082 
L 106.178276 251.82922 
L 106.911371 251.945296 
L 107.644467 256.995264 
L 108.377562 240.126408 
L 109.110657 259.386184 
L 109.843753 255.02675 
L 110.576848 266.143588 
L 111.309944 259.957961 
L 112.043039 258.758898 
L 112.776134 242.6062 
L 113.50923 237.037302 
L 114.242325 249.20059 
L 114.97542 253.726725 
L 115.708516 252.165665 
L 116.441611 222.437001 
L 117.174706 222.331028 
L 117.907802 215.039943 
L 118.640897 234.174126 
L 119.373993 199.77434 
L 120.107088 229.49301 
L 120.840183 223.115813 
L 121.573279 204.060204 
L 122.306374 217.075533 
L 123.039469 217.93331 
L 123.772565 230.557208 
L 124.50566 192.688276 
L 125.238755 224.708693 
L 125.971851 228.704486 
L 126.704946 193.473787 
L 127.438042 222.894426 
L 128.171137 195.115049 
L 128.904232 233.25051 
L 129.637328 218.001267 
L 130.370423 165.19343 
L 131.103518 221.231714 
L 131.836614 228.630684 
L 132.569709 246.447897 
L 133.302804 230.352052 
L 134.0359 240.316302 
L 134.768995 240.04714 
L 135.50209 235.835893 
L 136.968281 256.706184 
L 138.434472 242.65145 
L 139.167567 218.583658 
L 139.900663 230.193854 
L 140.633758 237.651332 
L 141.366853 233.395705 
L 142.099949 175.227166 
L 142.833044 207.913412 
L 143.566139 213.746996 
L 144.299235 238.05542 
L 145.03233 185.322395 
L 145.765426 221.162576 
L 146.498521 235.489325 
L 147.231616 234.721768 
L 147.964712 243.861721 
L 148.697807 232.696908 
L 149.430902 199.153511 
L 150.163998 233.890384 
L 150.897093 214.563773 
L 151.630188 230.898465 
L 152.363284 171.552804 
L 153.096379 234.017716 
L 153.829474 227.182177 
L 154.56257 249.431537 
L 155.295665 233.146516 
L 156.028761 255.400226 
L 156.761856 247.711418 
L 157.494951 225.267 
L 158.228047 251.023499 
L 158.961142 221.572983 
L 159.694237 246.695219 
L 160.427333 235.876163 
L 161.160428 219.918259 
L 161.893523 218.648407 
L 162.626619 224.996337 
L 164.09281 248.856867 
L 164.825905 255.243273 
L 165.559 246.890368 
L 166.292096 260.685897 
L 167.025191 260.436162 
L 167.758286 265.932274 
L 168.491382 264.764698 
L 169.224477 259.148215 
L 169.957572 249.607363 
L 170.690668 257.545444 
L 171.423763 257.267926 
L 172.156858 264.9832 
L 172.889954 244.302524 
L 173.623049 259.346671 
L 174.356145 245.44354 
L 175.08924 254.725931 
L 175.822335 253.355104 
L 176.555431 258.141013 
L 177.288526 217.353872 
L 178.021621 225.964381 
L 178.754717 218.208378 
L 179.487812 234.586257 
L 180.220907 237.707156 
L 180.954003 129.85209 
L 181.687098 210.203728 
L 182.420194 189.740972 
L 183.153289 225.607974 
L 183.886384 168.69786 
L 184.61948 210.362577 
L 185.352575 171.961982 
L 186.08567 226.693618 
L 186.818766 223.714674 
L 187.551861 216.641377 
L 188.284956 224.745065 
L 189.018052 198.007052 
L 189.751147 234.802178 
L 190.484242 231.467549 
L 191.217338 251.07712 
L 191.950433 245.119073 
L 192.683529 248.098184 
L 193.416624 183.742498 
L 194.149719 236.00545 
L 194.882815 230.031806 
L 195.61591 219.602566 
L 196.349005 242.139315 
L 197.082101 234.76707 
L 197.815196 205.078505 
L 198.548291 225.173986 
L 199.281387 207.806289 
L 200.014482 234.975606 
L 200.747578 229.322599 
L 201.480673 230.492467 
L 202.213768 222.640138 
L 202.946864 242.50156 
L 203.679959 240.379041 
L 204.413054 238.775811 
L 205.14615 246.886645 
L 205.879245 244.321109 
L 206.61234 256.786893 
L 207.345436 260.462791 
L 208.078531 254.161926 
L 208.811626 187.872282 
L 209.544722 234.249533 
L 210.277817 199.268757 
L 211.010913 243.818226 
L 211.744008 184.087869 
L 212.477103 220.163283 
L 213.943294 193.336181 
L 214.676389 229.780542 
L 215.409485 226.733246 
L 216.14258 241.988993 
L 216.875675 229.214921 
L 217.608771 254.953969 
L 218.341866 246.28458 
L 219.074962 257.414146 
L 219.808057 227.281459 
L 220.541152 254.344143 
L 221.274248 250.925019 
L 222.007343 257.355518 
L 222.740438 227.129756 
L 223.473534 262.40935 
L 224.206629 250.988691 
L 224.939724 233.98124 
L 225.67282 254.872905 
L 226.405915 233.613816 
L 227.13901 243.598256 
L 227.872106 163.09294 
L 228.605201 234.776271 
L 229.338297 148.403967 
L 230.071392 227.688323 
L 230.804487 164.530403 
L 231.537583 228.364474 
L 232.270678 183.201364 
L 233.003773 219.560368 
L 233.736869 203.350518 
L 234.469964 224.298748 
L 235.203059 211.443888 
L 235.936155 221.747624 
L 236.66925 224.296594 
L 237.402346 227.370012 
L 238.135441 238.289088 
L 238.868536 220.34572 
L 239.601632 247.837042 
L 240.334727 241.254502 
L 241.067822 254.918753 
L 241.800918 187.858956 
L 242.534013 244.384685 
L 243.267108 235.698119 
L 244.000204 234.607919 
L 244.733299 220.842797 
L 245.466394 244.037 
L 246.19949 241.115172 
L 246.932585 252.024381 
L 247.665681 252.500263 
L 248.398776 256.951059 
L 249.131871 252.836749 
L 249.864967 261.219574 
L 250.598062 252.228735 
L 251.331157 261.118985 
L 252.064253 263.259348 
L 252.797348 255.387638 
L 254.263539 230.184103 
L 254.996634 164.010168 
L 255.72973 233.215036 
L 256.462825 205.963845 
L 257.19592 202.296242 
L 257.929016 211.639356 
L 258.662111 231.222578 
L 259.395206 223.676123 
L 260.128302 246.482542 
L 260.861397 241.855617 
L 261.594492 258.504399 
L 262.327588 244.385487 
L 263.060683 260.070502 
L 263.793779 256.922619 
L 264.526874 233.28796 
L 265.259969 241.739134 
L 265.993065 242.496085 
L 266.72616 249.553008 
L 267.459255 258.470815 
L 268.192351 262.041644 
L 268.925446 215.951218 
L 269.658541 253.449678 
L 270.391637 239.483167 
L 271.124732 197.134368 
L 271.857827 195.779776 
L 272.590923 223.882923 
L 273.324018 234.525327 
L 274.057114 249.919406 
L 274.790209 238.634806 
L 275.523304 256.937845 
L 276.2564 200.015581 
L 276.989495 254.862687 
L 278.455686 209.917385 
L 279.188781 192.617861 
L 279.921876 240.265027 
L 280.654972 241.942454 
L 281.388067 256.704548 
L 282.121163 255.785592 
L 282.854258 261.468803 
L 283.587353 253.073593 
L 284.320449 266.65767 
L 285.786639 266.07214 
L 286.519735 263.480473 
L 287.25283 254.146074 
L 287.985925 255.626189 
L 288.719021 263.073721 
L 289.452116 243.628739 
L 290.918307 261.151913 
L 291.651402 264.356934 
L 292.384498 245.537121 
L 293.117593 253.400067 
L 293.850688 234.349106 
L 294.583784 250.347899 
L 295.316879 252.943261 
L 296.049974 257.133093 
L 296.78307 258.290062 
L 297.516165 236.580172 
L 298.24926 243.58694 
L 298.982356 230.692152 
L 299.715451 240.673073 
L 300.448547 229.062282 
L 301.181642 251.682238 
L 301.914737 234.952344 
L 302.647833 158.644454 
L 303.380928 238.263967 
L 304.114023 219.753498 
L 304.847119 232.554646 
L 305.580214 238.755398 
L 306.313309 253.887125 
L 307.046405 248.691472 
L 307.7795 262.033412 
L 308.512595 252.734474 
L 309.245691 257.137746 
L 309.978786 256.245124 
L 310.711882 264.938247 
L 311.444977 248.604175 
L 312.178072 174.688162 
L 312.911168 240.656024 
L 313.644263 221.469651 
L 314.377358 206.891735 
L 315.110454 79.30664 
L 315.843549 208.991267 
L 316.576644 196.925549 
L 317.30974 221.293606 
L 318.042835 206.999551 
L 318.775931 234.234794 
L 319.509026 227.521211 
L 320.242121 241.530551 
L 320.975217 219.625636 
L 322.441407 114.164828 
L 323.174503 184.381115 
L 323.907598 156.867501 
L 324.640693 216.089007 
L 325.373789 187.888697 
L 326.106884 233.625834 
L 326.839979 127.450581 
L 327.573075 184.581028 
L 329.039266 229.886492 
L 329.772361 197.882892 
L 330.505456 207.682337 
L 331.238552 224.390134 
L 331.971647 221.534568 
L 332.704742 200.783345 
L 333.437838 198.670311 
L 334.170933 224.19544 
L 334.904028 238.182596 
L 335.637124 244.830475 
L 336.370219 223.797601 
L 337.103315 239.265658 
L 337.83641 229.842478 
L 338.569505 233.753317 
L 339.302601 206.659391 
L 340.035696 242.808032 
L 340.768791 216.614365 
L 341.501887 240.892349 
L 342.234982 237.359136 
L 342.968077 240.141035 
L 343.701173 255.114928 
L 344.434268 245.239406 
L 345.167363 223.411022 
L 345.900459 214.929269 
L 346.633554 247.378878 
L 347.36665 205.968218 
L 348.83284 240.900097 
L 350.299031 242.236056 
L 351.032126 219.285851 
L 351.765222 238.097478 
L 352.498317 244.740378 
L 353.231412 220.638415 
L 354.697603 245.556784 
L 355.430699 243.200952 
L 356.163794 236.090536 
L 356.896889 242.726573 
L 357.629985 239.806717 
L 358.36308 257.753377 
L 359.096175 256.44303 
L 359.829271 260.891304 
L 360.562366 254.99649 
L 361.295461 243.05298 
L 362.028557 246.909703 
L 362.761652 176.519458 
L 363.494747 186.366184 
L 364.227843 204.096321 
L 364.960938 116.814768 
L 365.694034 221.134678 
L 366.427129 197.000712 
L 367.160224 229.988611 
L 367.89332 217.765077 
L 368.626415 193.222906 
L 369.35951 223.415331 
L 370.092606 168.756927 
L 370.825701 214.032326 
L 371.558796 204.676684 
L 372.291892 236.249237 
L 373.024987 240.766793 
L 373.758083 253.980949 
L 374.491178 243.000652 
L 375.224273 212.515216 
L 375.957369 220.565111 
L 376.690464 221.087565 
L 377.423559 233.786917 
L 378.156655 240.371408 
L 378.88975 207.145839 
L 379.622845 195.139132 
L 381.089036 222.064403 
L 381.822131 235.143471 
L 383.288322 192.160516 
L 384.021418 168.587737 
L 384.754513 215.814889 
L 385.487608 226.009404 
L 386.220704 223.062667 
L 386.953799 245.702273 
L 387.686894 248.443587 
L 388.41999 227.301839 
L 389.153085 211.27058 
L 389.88618 225.265787 
L 390.619276 233.634165 
L 391.352371 239.363376 
L 392.085467 239.208107 
L 392.818562 225.859118 
L 393.551657 205.667862 
L 394.284753 226.997318 
L 395.017848 211.957228 
L 395.750943 201.000838 
L 396.484039 238.807571 
L 397.217134 236.580707 
L 397.950229 219.69874 
L 398.683325 233.726604 
L 399.41642 240.253608 
L 400.149516 174.891985 
L 400.882611 203.523187 
L 401.615706 226.083162 
L 402.348802 242.480524 
L 403.081897 246.303788 
L 404.548088 209.393112 
L 405.281183 244.444311 
L 406.014278 236.690015 
L 406.747374 232.967152 
L 407.480469 246.779714 
L 408.213564 238.632934 
L 408.94666 250.967037 
L 409.679755 249.337602 
L 410.412851 255.81922 
L 411.145946 251.47146 
L 411.879041 239.926555 
L 412.612137 249.455182 
L 413.345232 228.800413 
L 414.078327 231.353141 
L 414.811423 231.673774 
L 415.544518 247.565828 
L 416.277613 249.50974 
L 417.010709 230.540649 
L 417.743804 258.724337 
L 418.4769 227.866203 
L 419.209995 255.949448 
L 419.94309 251.367434 
L 420.676186 232.407711 
L 421.409281 231.917936 
L 422.142376 245.09657 
L 422.875472 219.811368 
L 423.608567 256.304893 
L 424.341662 244.101968 
L 425.074758 255.83903 
L 425.807853 163.951484 
L 426.540948 244.783286 
L 427.274044 222.768343 
L 428.007139 246.543233 
L 428.740235 242.591653 
L 429.47333 259.782016 
L 430.206425 203.581975 
L 430.939521 247.939955 
L 431.672616 244.509635 
L 431.672616 244.509635 
" clip-path="url(#p91b9fc3d1f)" style="fill: none; stroke: #8c564b; stroke-width: 1.5; stroke-linecap: square"/>
   </g>
   <g id="patch_3">
    <path d="M 46.797552 302.64 
L 46.797552 10.8 
" style="fill: none; stroke: #000000; stroke-width: 0.8; stroke-linejoin: miter; stroke-linecap: square"/>
   </g>
   <g id="patch_4">
    <path d="M 450 302.64 
L 450 10.8 
" style="fill: none; stroke: #000000; stroke-width: 0.8; stroke-linejoin: miter; stroke-linecap: square"/>
   </g>
   <g id="patch_5">
    <path d="M 46.797552 302.64 
L 450 302.64 
" style="fill: none; stroke: #000000; stroke-width: 0.8; stroke-linejoin: miter; stroke-linecap: square"/>
   </g>
   <g id="patch_6">
    <path d="M 46.797552 10.8 
L 450 10.8 
" style="fill: none; stroke: #000000; stroke-width: 0.8; stroke-linejoin: miter; stroke-linecap: square"/>
   </g>
  </g>
 </g>
 <defs>
  <clipPath id="p91b9fc3d1f">
   <rect x="46.797552" y="10.8" width="403.202448" height="291.84"/>
  </clipPath>
 </defs>
</svg>
