<?xml version="1.0" encoding="utf-8" standalone="no"?>
<!DOCTYPE svg PUBLIC "-//W3C//DTD SVG 1.1//EN"
  "http://www.w3.org/Graphics/SVG/1.1/DTD/svg11.dtd">
<svg xmlns:xlink="http://www.w3.org/1999/xlink" width="460.8pt" height="345.6pt" viewBox="0 0 460.8 345.6" xmlns="http://www.w3.org/2000/svg" version="1.1">
 <metadata>
  <rdf:RDF xmlns:dc="http://purl.org/dc/elements/1.1/" xmlns:cc="http://creativecommons.org/ns#" xmlns:rdf="http://www.w3.org/1999/02/22-rdf-syntax-ns#">
   <cc:Work>
    <dc:type rdf:resource="http://purl.org/dc/dcmitype/StillImage"/>
    <dc:date>2023-09-22T23:49:42.839929</dc:date>
    <dc:format>image/svg+xml</dc:format>
    <dc:creator>
     <cc:Agent>
      <dc:title>Matplotlib v3.7.1, https://matplotlib.org/</dc:title>
     </cc:Agent>
    </dc:creator>
   </cc:Work>
  </rdf:RDF>
 </metadata>
 <defs>
  <style type="text/css">*{stroke-linejoin: round; stroke-linecap: butt}</style>
 </defs>
 <g id="figure_1">
  <g id="patch_1">
   <path d="M 0 345.6 
L 460.8 345.6 
L 460.8 0 
L 0 0 
z
" style="fill: #ffffff"/>
  </g>
  <g id="axes_1">
   <g id="patch_2">
    <path d="M 56.100236 301.32375 
L 353.462484 301.32375 
L 353.462484 10.8 
L 56.100236 10.8 
z
" style="fill: #ffffff"/>
   </g>
   <g id="matplotlib.axis_1">
    <g id="xtick_1">
     <g id="line2d_1">
      <path d="M 69.616702 301.32375 
L 69.616702 10.8 
" clip-path="url(#pea273c5db3)" style="fill: none; stroke: #cccccc; stroke-linecap: round"/>
     </g>
     <g id="text_1">
      <!-- 0 -->
      <g style="fill: #262626" transform="translate(65.866702 315.239375) scale(0.15 -0.15)">
       <defs>
        <path id="TimesNewRomanPSMT-30" d="M 231 2094 
Q 231 2819 450 3342 
Q 669 3866 1031 4122 
Q 1313 4325 1613 4325 
Q 2100 4325 2488 3828 
Q 2972 3213 2972 2159 
Q 2972 1422 2759 906 
Q 2547 391 2217 158 
Q 1888 -75 1581 -75 
Q 975 -75 572 641 
Q 231 1244 231 2094 
z
M 844 2016 
Q 844 1141 1059 588 
Q 1238 122 1591 122 
Q 1759 122 1940 273 
Q 2122 425 2216 781 
Q 2359 1319 2359 2297 
Q 2359 3022 2209 3506 
Q 2097 3866 1919 4016 
Q 1791 4119 1609 4119 
Q 1397 4119 1231 3928 
Q 1006 3669 925 3112 
Q 844 2556 844 2016 
z
" transform="scale(0.015625)"/>
       </defs>
       <use xlink:href="#TimesNewRomanPSMT-30"/>
      </g>
     </g>
    </g>
    <g id="xtick_2">
     <g id="line2d_2">
      <path d="M 123.790914 301.32375 
L 123.790914 10.8 
" clip-path="url(#pea273c5db3)" style="fill: none; stroke: #cccccc; stroke-linecap: round"/>
     </g>
     <g id="text_2">
      <!-- 100 -->
      <g style="fill: #262626" transform="translate(112.540914 315.239375) scale(0.15 -0.15)">
       <defs>
        <path id="TimesNewRomanPSMT-31" d="M 750 3822 
L 1781 4325 
L 1884 4325 
L 1884 747 
Q 1884 391 1914 303 
Q 1944 216 2037 169 
Q 2131 122 2419 116 
L 2419 0 
L 825 0 
L 825 116 
Q 1125 122 1212 167 
Q 1300 213 1334 289 
Q 1369 366 1369 747 
L 1369 3034 
Q 1369 3497 1338 3628 
Q 1316 3728 1258 3775 
Q 1200 3822 1119 3822 
Q 1003 3822 797 3725 
L 750 3822 
z
" transform="scale(0.015625)"/>
       </defs>
       <use xlink:href="#TimesNewRomanPSMT-31"/>
       <use xlink:href="#TimesNewRomanPSMT-30" x="50"/>
       <use xlink:href="#TimesNewRomanPSMT-30" x="100"/>
      </g>
     </g>
    </g>
    <g id="xtick_3">
     <g id="line2d_3">
      <path d="M 177.965125 301.32375 
L 177.965125 10.8 
" clip-path="url(#pea273c5db3)" style="fill: none; stroke: #cccccc; stroke-linecap: round"/>
     </g>
     <g id="text_3">
      <!-- 200 -->
      <g style="fill: #262626" transform="translate(166.715125 315.239375) scale(0.15 -0.15)">
       <defs>
        <path id="TimesNewRomanPSMT-32" d="M 2934 816 
L 2638 0 
L 138 0 
L 138 116 
Q 1241 1122 1691 1759 
Q 2141 2397 2141 2925 
Q 2141 3328 1894 3587 
Q 1647 3847 1303 3847 
Q 991 3847 742 3664 
Q 494 3481 375 3128 
L 259 3128 
Q 338 3706 661 4015 
Q 984 4325 1469 4325 
Q 1984 4325 2329 3994 
Q 2675 3663 2675 3213 
Q 2675 2891 2525 2569 
Q 2294 2063 1775 1497 
Q 997 647 803 472 
L 1909 472 
Q 2247 472 2383 497 
Q 2519 522 2628 598 
Q 2738 675 2819 816 
L 2934 816 
z
" transform="scale(0.015625)"/>
       </defs>
       <use xlink:href="#TimesNewRomanPSMT-32"/>
       <use xlink:href="#TimesNewRomanPSMT-30" x="50"/>
       <use xlink:href="#TimesNewRomanPSMT-30" x="100"/>
      </g>
     </g>
    </g>
    <g id="xtick_4">
     <g id="line2d_4">
      <path d="M 232.139337 301.32375 
L 232.139337 10.8 
" clip-path="url(#pea273c5db3)" style="fill: none; stroke: #cccccc; stroke-linecap: round"/>
     </g>
     <g id="text_4">
      <!-- 300 -->
      <g style="fill: #262626" transform="translate(220.889337 315.239375) scale(0.15 -0.15)">
       <defs>
        <path id="TimesNewRomanPSMT-33" d="M 325 3431 
Q 506 3859 782 4092 
Q 1059 4325 1472 4325 
Q 1981 4325 2253 3994 
Q 2459 3747 2459 3466 
Q 2459 3003 1878 2509 
Q 2269 2356 2469 2072 
Q 2669 1788 2669 1403 
Q 2669 853 2319 450 
Q 1863 -75 997 -75 
Q 569 -75 414 31 
Q 259 138 259 259 
Q 259 350 332 419 
Q 406 488 509 488 
Q 588 488 669 463 
Q 722 447 909 348 
Q 1097 250 1169 231 
Q 1284 197 1416 197 
Q 1734 197 1970 444 
Q 2206 691 2206 1028 
Q 2206 1275 2097 1509 
Q 2016 1684 1919 1775 
Q 1784 1900 1550 2001 
Q 1316 2103 1072 2103 
L 972 2103 
L 972 2197 
Q 1219 2228 1467 2375 
Q 1716 2522 1828 2728 
Q 1941 2934 1941 3181 
Q 1941 3503 1739 3701 
Q 1538 3900 1238 3900 
Q 753 3900 428 3381 
L 325 3431 
z
" transform="scale(0.015625)"/>
       </defs>
       <use xlink:href="#TimesNewRomanPSMT-33"/>
       <use xlink:href="#TimesNewRomanPSMT-30" x="50"/>
       <use xlink:href="#TimesNewRomanPSMT-30" x="100"/>
      </g>
     </g>
    </g>
    <g id="xtick_5">
     <g id="line2d_5">
      <path d="M 286.313549 301.32375 
L 286.313549 10.8 
" clip-path="url(#pea273c5db3)" style="fill: none; stroke: #cccccc; stroke-linecap: round"/>
     </g>
     <g id="text_5">
      <!-- 400 -->
      <g style="fill: #262626" transform="translate(275.063549 315.239375) scale(0.15 -0.15)">
       <defs>
        <path id="TimesNewRomanPSMT-34" d="M 2978 1563 
L 2978 1119 
L 2409 1119 
L 2409 0 
L 1894 0 
L 1894 1119 
L 100 1119 
L 100 1519 
L 2066 4325 
L 2409 4325 
L 2409 1563 
L 2978 1563 
z
M 1894 1563 
L 1894 3666 
L 406 1563 
L 1894 1563 
z
" transform="scale(0.015625)"/>
       </defs>
       <use xlink:href="#TimesNewRomanPSMT-34"/>
       <use xlink:href="#TimesNewRomanPSMT-30" x="50"/>
       <use xlink:href="#TimesNewRomanPSMT-30" x="100"/>
      </g>
     </g>
    </g>
    <g id="xtick_6">
     <g id="line2d_6">
      <path d="M 340.48776 301.32375 
L 340.48776 10.8 
" clip-path="url(#pea273c5db3)" style="fill: none; stroke: #cccccc; stroke-linecap: round"/>
     </g>
     <g id="text_6">
      <!-- 500 -->
      <g style="fill: #262626" transform="translate(329.23776 315.239375) scale(0.15 -0.15)">
       <defs>
        <path id="TimesNewRomanPSMT-35" d="M 2778 4238 
L 2534 3706 
L 1259 3706 
L 981 3138 
Q 1809 3016 2294 2522 
Q 2709 2097 2709 1522 
Q 2709 1188 2573 903 
Q 2438 619 2231 419 
Q 2025 219 1772 97 
Q 1413 -75 1034 -75 
Q 653 -75 479 54 
Q 306 184 306 341 
Q 306 428 378 495 
Q 450 563 559 563 
Q 641 563 702 538 
Q 763 513 909 409 
Q 1144 247 1384 247 
Q 1750 247 2026 523 
Q 2303 800 2303 1197 
Q 2303 1581 2056 1914 
Q 1809 2247 1375 2428 
Q 1034 2569 447 2591 
L 1259 4238 
L 2778 4238 
z
" transform="scale(0.015625)"/>
       </defs>
       <use xlink:href="#TimesNewRomanPSMT-35"/>
       <use xlink:href="#TimesNewRomanPSMT-30" x="50"/>
       <use xlink:href="#TimesNewRomanPSMT-30" x="100"/>
      </g>
     </g>
    </g>
    <g id="text_7">
     <!-- Time (arbitrary unit) -->
     <g style="fill: #262626" transform="translate(155.346048 330.780469) scale(0.12 -0.12)">
      <defs>
       <path id="TimesNewRomanPSMT-54" d="M 3703 4238 
L 3750 3244 
L 3631 3244 
Q 3597 3506 3538 3619 
Q 3441 3800 3280 3886 
Q 3119 3972 2856 3972 
L 2259 3972 
L 2259 734 
Q 2259 344 2344 247 
Q 2463 116 2709 116 
L 2856 116 
L 2856 0 
L 1059 0 
L 1059 116 
L 1209 116 
Q 1478 116 1591 278 
Q 1659 378 1659 734 
L 1659 3972 
L 1150 3972 
Q 853 3972 728 3928 
Q 566 3869 450 3700 
Q 334 3531 313 3244 
L 194 3244 
L 244 4238 
L 3703 4238 
z
" transform="scale(0.015625)"/>
       <path id="TimesNewRomanPSMT-69" d="M 928 4444 
Q 1059 4444 1151 4351 
Q 1244 4259 1244 4128 
Q 1244 3997 1151 3903 
Q 1059 3809 928 3809 
Q 797 3809 703 3903 
Q 609 3997 609 4128 
Q 609 4259 701 4351 
Q 794 4444 928 4444 
z
M 1188 2947 
L 1188 647 
Q 1188 378 1227 289 
Q 1266 200 1342 156 
Q 1419 113 1622 113 
L 1622 0 
L 231 0 
L 231 113 
Q 441 113 512 153 
Q 584 194 626 287 
Q 669 381 669 647 
L 669 1750 
Q 669 2216 641 2353 
Q 619 2453 572 2492 
Q 525 2531 444 2531 
Q 356 2531 231 2484 
L 188 2597 
L 1050 2947 
L 1188 2947 
z
" transform="scale(0.015625)"/>
       <path id="TimesNewRomanPSMT-6d" d="M 1050 2338 
Q 1363 2650 1419 2697 
Q 1559 2816 1721 2881 
Q 1884 2947 2044 2947 
Q 2313 2947 2506 2790 
Q 2700 2634 2766 2338 
Q 3088 2713 3309 2830 
Q 3531 2947 3766 2947 
Q 3994 2947 4170 2830 
Q 4347 2713 4450 2447 
Q 4519 2266 4519 1878 
L 4519 647 
Q 4519 378 4559 278 
Q 4591 209 4675 161 
Q 4759 113 4950 113 
L 4950 0 
L 3538 0 
L 3538 113 
L 3597 113 
Q 3781 113 3884 184 
Q 3956 234 3988 344 
Q 4000 397 4000 647 
L 4000 1878 
Q 4000 2228 3916 2372 
Q 3794 2572 3525 2572 
Q 3359 2572 3192 2489 
Q 3025 2406 2788 2181 
L 2781 2147 
L 2788 2013 
L 2788 647 
Q 2788 353 2820 281 
Q 2853 209 2943 161 
Q 3034 113 3253 113 
L 3253 0 
L 1806 0 
L 1806 113 
Q 2044 113 2133 169 
Q 2222 225 2256 338 
Q 2272 391 2272 647 
L 2272 1878 
Q 2272 2228 2169 2381 
Q 2031 2581 1784 2581 
Q 1616 2581 1450 2491 
Q 1191 2353 1050 2181 
L 1050 647 
Q 1050 366 1089 281 
Q 1128 197 1204 155 
Q 1281 113 1516 113 
L 1516 0 
L 100 0 
L 100 113 
Q 297 113 375 155 
Q 453 197 493 289 
Q 534 381 534 647 
L 534 1741 
Q 534 2213 506 2350 
Q 484 2453 437 2492 
Q 391 2531 309 2531 
Q 222 2531 100 2484 
L 53 2597 
L 916 2947 
L 1050 2947 
L 1050 2338 
z
" transform="scale(0.015625)"/>
       <path id="TimesNewRomanPSMT-65" d="M 681 1784 
Q 678 1147 991 784 
Q 1303 422 1725 422 
Q 2006 422 2214 576 
Q 2422 731 2563 1106 
L 2659 1044 
Q 2594 616 2278 264 
Q 1963 -88 1488 -88 
Q 972 -88 605 314 
Q 238 716 238 1394 
Q 238 2128 614 2539 
Q 991 2950 1559 2950 
Q 2041 2950 2350 2633 
Q 2659 2316 2659 1784 
L 681 1784 
z
M 681 1966 
L 2006 1966 
Q 1991 2241 1941 2353 
Q 1863 2528 1708 2628 
Q 1553 2728 1384 2728 
Q 1125 2728 920 2526 
Q 716 2325 681 1966 
z
" transform="scale(0.015625)"/>
       <path id="TimesNewRomanPSMT-20" transform="scale(0.015625)"/>
       <path id="TimesNewRomanPSMT-28" d="M 1988 -1253 
L 1988 -1369 
Q 1516 -1131 1200 -813 
Q 750 -359 506 256 
Q 263 872 263 1534 
Q 263 2503 741 3301 
Q 1219 4100 1988 4444 
L 1988 4313 
Q 1603 4100 1356 3731 
Q 1109 3363 987 2797 
Q 866 2231 866 1616 
Q 866 947 969 400 
Q 1050 -31 1165 -292 
Q 1281 -553 1476 -793 
Q 1672 -1034 1988 -1253 
z
" transform="scale(0.015625)"/>
       <path id="TimesNewRomanPSMT-61" d="M 1822 413 
Q 1381 72 1269 19 
Q 1100 -59 909 -59 
Q 613 -59 420 144 
Q 228 347 228 678 
Q 228 888 322 1041 
Q 450 1253 767 1440 
Q 1084 1628 1822 1897 
L 1822 2009 
Q 1822 2438 1686 2597 
Q 1550 2756 1291 2756 
Q 1094 2756 978 2650 
Q 859 2544 859 2406 
L 866 2225 
Q 866 2081 792 2003 
Q 719 1925 600 1925 
Q 484 1925 411 2006 
Q 338 2088 338 2228 
Q 338 2497 613 2722 
Q 888 2947 1384 2947 
Q 1766 2947 2009 2819 
Q 2194 2722 2281 2516 
Q 2338 2381 2338 1966 
L 2338 994 
Q 2338 584 2353 492 
Q 2369 400 2405 369 
Q 2441 338 2488 338 
Q 2538 338 2575 359 
Q 2641 400 2828 588 
L 2828 413 
Q 2478 -56 2159 -56 
Q 2006 -56 1915 50 
Q 1825 156 1822 413 
z
M 1822 616 
L 1822 1706 
Q 1350 1519 1213 1441 
Q 966 1303 859 1153 
Q 753 1003 753 825 
Q 753 600 887 451 
Q 1022 303 1197 303 
Q 1434 303 1822 616 
z
" transform="scale(0.015625)"/>
       <path id="TimesNewRomanPSMT-72" d="M 1038 2947 
L 1038 2303 
Q 1397 2947 1775 2947 
Q 1947 2947 2059 2842 
Q 2172 2738 2172 2600 
Q 2172 2478 2090 2393 
Q 2009 2309 1897 2309 
Q 1788 2309 1652 2417 
Q 1516 2525 1450 2525 
Q 1394 2525 1328 2463 
Q 1188 2334 1038 2041 
L 1038 669 
Q 1038 431 1097 309 
Q 1138 225 1241 169 
Q 1344 113 1538 113 
L 1538 0 
L 72 0 
L 72 113 
Q 291 113 397 181 
Q 475 231 506 341 
Q 522 394 522 644 
L 522 1753 
Q 522 2253 501 2348 
Q 481 2444 426 2487 
Q 372 2531 291 2531 
Q 194 2531 72 2484 
L 41 2597 
L 906 2947 
L 1038 2947 
z
" transform="scale(0.015625)"/>
       <path id="TimesNewRomanPSMT-62" d="M 984 2369 
Q 1400 2947 1881 2947 
Q 2322 2947 2650 2570 
Q 2978 2194 2978 1541 
Q 2978 778 2472 313 
Q 2038 -88 1503 -88 
Q 1253 -88 995 3 
Q 738 94 469 275 
L 469 3241 
Q 469 3728 445 3840 
Q 422 3953 372 3993 
Q 322 4034 247 4034 
Q 159 4034 28 3984 
L -16 4094 
L 844 4444 
L 984 4444 
L 984 2369 
z
M 984 2169 
L 984 456 
Q 1144 300 1314 220 
Q 1484 141 1663 141 
Q 1947 141 2192 453 
Q 2438 766 2438 1363 
Q 2438 1913 2192 2208 
Q 1947 2503 1634 2503 
Q 1469 2503 1303 2419 
Q 1178 2356 984 2169 
z
" transform="scale(0.015625)"/>
       <path id="TimesNewRomanPSMT-74" d="M 1031 3803 
L 1031 2863 
L 1700 2863 
L 1700 2644 
L 1031 2644 
L 1031 788 
Q 1031 509 1111 412 
Q 1191 316 1316 316 
Q 1419 316 1516 380 
Q 1613 444 1666 569 
L 1788 569 
Q 1678 263 1478 108 
Q 1278 -47 1066 -47 
Q 922 -47 784 33 
Q 647 113 581 261 
Q 516 409 516 719 
L 516 2644 
L 63 2644 
L 63 2747 
Q 234 2816 414 2980 
Q 594 3144 734 3369 
Q 806 3488 934 3803 
L 1031 3803 
z
" transform="scale(0.015625)"/>
       <path id="TimesNewRomanPSMT-79" d="M 38 2863 
L 1372 2863 
L 1372 2747 
L 1306 2747 
Q 1166 2747 1095 2686 
Q 1025 2625 1025 2534 
Q 1025 2413 1128 2197 
L 1825 753 
L 2466 2334 
Q 2519 2463 2519 2588 
Q 2519 2644 2497 2672 
Q 2472 2706 2419 2726 
Q 2366 2747 2231 2747 
L 2231 2863 
L 3163 2863 
L 3163 2747 
Q 3047 2734 2984 2696 
Q 2922 2659 2847 2556 
Q 2819 2513 2741 2316 
L 1575 -541 
Q 1406 -956 1132 -1168 
Q 859 -1381 606 -1381 
Q 422 -1381 303 -1275 
Q 184 -1169 184 -1031 
Q 184 -900 270 -820 
Q 356 -741 506 -741 
Q 609 -741 788 -809 
Q 913 -856 944 -856 
Q 1038 -856 1148 -759 
Q 1259 -663 1372 -384 
L 1575 113 
L 547 2272 
Q 500 2369 397 2513 
Q 319 2622 269 2659 
Q 197 2709 38 2747 
L 38 2863 
z
" transform="scale(0.015625)"/>
       <path id="TimesNewRomanPSMT-75" d="M 2709 2863 
L 2709 1128 
Q 2709 631 2732 520 
Q 2756 409 2807 365 
Q 2859 322 2928 322 
Q 3025 322 3147 375 
L 3191 266 
L 2334 -88 
L 2194 -88 
L 2194 519 
Q 1825 119 1631 15 
Q 1438 -88 1222 -88 
Q 981 -88 804 51 
Q 628 191 559 409 
Q 491 628 491 1028 
L 491 2306 
Q 491 2509 447 2587 
Q 403 2666 317 2708 
Q 231 2750 6 2747 
L 6 2863 
L 1009 2863 
L 1009 947 
Q 1009 547 1148 422 
Q 1288 297 1484 297 
Q 1619 297 1789 381 
Q 1959 466 2194 703 
L 2194 2325 
Q 2194 2569 2105 2655 
Q 2016 2741 1734 2747 
L 1734 2863 
L 2709 2863 
z
" transform="scale(0.015625)"/>
       <path id="TimesNewRomanPSMT-6e" d="M 1034 2341 
Q 1538 2947 1994 2947 
Q 2228 2947 2397 2830 
Q 2566 2713 2666 2444 
Q 2734 2256 2734 1869 
L 2734 647 
Q 2734 375 2778 278 
Q 2813 200 2889 156 
Q 2966 113 3172 113 
L 3172 0 
L 1756 0 
L 1756 113 
L 1816 113 
Q 2016 113 2095 173 
Q 2175 234 2206 353 
Q 2219 400 2219 647 
L 2219 1819 
Q 2219 2209 2117 2386 
Q 2016 2563 1775 2563 
Q 1403 2563 1034 2156 
L 1034 647 
Q 1034 356 1069 288 
Q 1113 197 1189 155 
Q 1266 113 1500 113 
L 1500 0 
L 84 0 
L 84 113 
L 147 113 
Q 366 113 442 223 
Q 519 334 519 647 
L 519 1709 
Q 519 2225 495 2337 
Q 472 2450 423 2490 
Q 375 2531 294 2531 
Q 206 2531 84 2484 
L 38 2597 
L 900 2947 
L 1034 2947 
L 1034 2341 
z
" transform="scale(0.015625)"/>
       <path id="TimesNewRomanPSMT-29" d="M 144 4313 
L 144 4444 
Q 619 4209 934 3891 
Q 1381 3434 1625 2820 
Q 1869 2206 1869 1541 
Q 1869 572 1392 -226 
Q 916 -1025 144 -1369 
L 144 -1253 
Q 528 -1038 776 -670 
Q 1025 -303 1145 264 
Q 1266 831 1266 1447 
Q 1266 2113 1163 2663 
Q 1084 3094 967 3353 
Q 850 3613 656 3853 
Q 463 4094 144 4313 
z
" transform="scale(0.015625)"/>
      </defs>
      <use xlink:href="#TimesNewRomanPSMT-54"/>
      <use xlink:href="#TimesNewRomanPSMT-69" x="57.583984"/>
      <use xlink:href="#TimesNewRomanPSMT-6d" x="85.367188"/>
      <use xlink:href="#TimesNewRomanPSMT-65" x="163.150391"/>
      <use xlink:href="#TimesNewRomanPSMT-20" x="207.535156"/>
      <use xlink:href="#TimesNewRomanPSMT-28" x="232.535156"/>
      <use xlink:href="#TimesNewRomanPSMT-61" x="265.835938"/>
      <use xlink:href="#TimesNewRomanPSMT-72" x="310.220703"/>
      <use xlink:href="#TimesNewRomanPSMT-62" x="343.521484"/>
      <use xlink:href="#TimesNewRomanPSMT-69" x="393.521484"/>
      <use xlink:href="#TimesNewRomanPSMT-74" x="421.304688"/>
      <use xlink:href="#TimesNewRomanPSMT-72" x="449.087891"/>
      <use xlink:href="#TimesNewRomanPSMT-61" x="482.388672"/>
      <use xlink:href="#TimesNewRomanPSMT-72" x="526.773438"/>
      <use xlink:href="#TimesNewRomanPSMT-79" x="560.074219"/>
      <use xlink:href="#TimesNewRomanPSMT-20" x="610.074219"/>
      <use xlink:href="#TimesNewRomanPSMT-75" x="635.074219"/>
      <use xlink:href="#TimesNewRomanPSMT-6e" x="685.074219"/>
      <use xlink:href="#TimesNewRomanPSMT-69" x="735.074219"/>
      <use xlink:href="#TimesNewRomanPSMT-74" x="762.857422"/>
      <use xlink:href="#TimesNewRomanPSMT-29" x="790.640625"/>
     </g>
    </g>
   </g>
   <g id="matplotlib.axis_2">
    <g id="ytick_1">
     <g id="line2d_7">
      <path d="M 56.100236 287.663104 
L 353.462484 287.663104 
" clip-path="url(#pea273c5db3)" style="fill: none; stroke: #cccccc; stroke-linecap: round"/>
     </g>
     <g id="text_8">
      <!-- 0.00 -->
      <g style="fill: #262626" transform="translate(26.350236 292.870917) scale(0.15 -0.15)">
       <defs>
        <path id="TimesNewRomanPSMT-2e" d="M 800 606 
Q 947 606 1047 504 
Q 1147 403 1147 259 
Q 1147 116 1045 14 
Q 944 -88 800 -88 
Q 656 -88 554 14 
Q 453 116 453 259 
Q 453 406 554 506 
Q 656 606 800 606 
z
" transform="scale(0.015625)"/>
       </defs>
       <use xlink:href="#TimesNewRomanPSMT-30"/>
       <use xlink:href="#TimesNewRomanPSMT-2e" x="50"/>
       <use xlink:href="#TimesNewRomanPSMT-30" x="75"/>
       <use xlink:href="#TimesNewRomanPSMT-30" x="125"/>
      </g>
     </g>
    </g>
    <g id="ytick_2">
     <g id="line2d_8">
      <path d="M 56.100236 227.548884 
L 353.462484 227.548884 
" clip-path="url(#pea273c5db3)" style="fill: none; stroke: #cccccc; stroke-linecap: round"/>
     </g>
     <g id="text_9">
      <!-- 0.05 -->
      <g style="fill: #262626" transform="translate(26.350236 232.756696) scale(0.15 -0.15)">
       <use xlink:href="#TimesNewRomanPSMT-30"/>
       <use xlink:href="#TimesNewRomanPSMT-2e" x="50"/>
       <use xlink:href="#TimesNewRomanPSMT-30" x="75"/>
       <use xlink:href="#TimesNewRomanPSMT-35" x="125"/>
      </g>
     </g>
    </g>
    <g id="ytick_3">
     <g id="line2d_9">
      <path d="M 56.100236 167.434664 
L 353.462484 167.434664 
" clip-path="url(#pea273c5db3)" style="fill: none; stroke: #cccccc; stroke-linecap: round"/>
     </g>
     <g id="text_10">
      <!-- 0.10 -->
      <g style="fill: #262626" transform="translate(26.350236 172.642476) scale(0.15 -0.15)">
       <use xlink:href="#TimesNewRomanPSMT-30"/>
       <use xlink:href="#TimesNewRomanPSMT-2e" x="50"/>
       <use xlink:href="#TimesNewRomanPSMT-31" x="75"/>
       <use xlink:href="#TimesNewRomanPSMT-30" x="125"/>
      </g>
     </g>
    </g>
    <g id="ytick_4">
     <g id="line2d_10">
      <path d="M 56.100236 107.320443 
L 353.462484 107.320443 
" clip-path="url(#pea273c5db3)" style="fill: none; stroke: #cccccc; stroke-linecap: round"/>
     </g>
     <g id="text_11">
      <!-- 0.15 -->
      <g style="fill: #262626" transform="translate(26.350236 112.528256) scale(0.15 -0.15)">
       <use xlink:href="#TimesNewRomanPSMT-30"/>
       <use xlink:href="#TimesNewRomanPSMT-2e" x="50"/>
       <use xlink:href="#TimesNewRomanPSMT-31" x="75"/>
       <use xlink:href="#TimesNewRomanPSMT-35" x="125"/>
      </g>
     </g>
    </g>
    <g id="ytick_5">
     <g id="line2d_11">
      <path d="M 56.100236 47.206223 
L 353.462484 47.206223 
" clip-path="url(#pea273c5db3)" style="fill: none; stroke: #cccccc; stroke-linecap: round"/>
     </g>
     <g id="text_12">
      <!-- 0.20 -->
      <g style="fill: #262626" transform="translate(26.350236 52.414035) scale(0.15 -0.15)">
       <use xlink:href="#TimesNewRomanPSMT-30"/>
       <use xlink:href="#TimesNewRomanPSMT-2e" x="50"/>
       <use xlink:href="#TimesNewRomanPSMT-32" x="75"/>
       <use xlink:href="#TimesNewRomanPSMT-30" x="125"/>
      </g>
     </g>
    </g>
    <g id="text_13">
     <!-- $X(t)$ -->
     <g style="fill: #262626" transform="translate(11.190236 153.495) scale(0.12 -0.12)">
      <defs>
       <path id="DejaVuSans-Oblique-58" d="M 878 4666 
L 1516 4666 
L 2316 2981 
L 3763 4666 
L 4500 4666 
L 2578 2438 
L 3738 0 
L 3103 0 
L 2163 1966 
L 459 0 
L -275 0 
L 1906 2509 
L 878 4666 
z
" transform="scale(0.015625)"/>
       <path id="DejaVuSans-28" d="M 1984 4856 
Q 1566 4138 1362 3434 
Q 1159 2731 1159 2009 
Q 1159 1288 1364 580 
Q 1569 -128 1984 -844 
L 1484 -844 
Q 1016 -109 783 600 
Q 550 1309 550 2009 
Q 550 2706 781 3412 
Q 1013 4119 1484 4856 
L 1984 4856 
z
" transform="scale(0.015625)"/>
       <path id="DejaVuSans-Oblique-74" d="M 2706 3500 
L 2619 3053 
L 1472 3053 
L 1100 1153 
Q 1081 1047 1072 975 
Q 1063 903 1063 863 
Q 1063 663 1183 572 
Q 1303 481 1569 481 
L 2150 481 
L 2053 0 
L 1503 0 
Q 991 0 739 200 
Q 488 400 488 806 
Q 488 878 497 964 
Q 506 1050 525 1153 
L 897 3053 
L 409 3053 
L 500 3500 
L 978 3500 
L 1172 4494 
L 1747 4494 
L 1556 3500 
L 2706 3500 
z
" transform="scale(0.015625)"/>
       <path id="DejaVuSans-29" d="M 513 4856 
L 1013 4856 
Q 1481 4119 1714 3412 
Q 1947 2706 1947 2009 
Q 1947 1309 1714 600 
Q 1481 -109 1013 -844 
L 513 -844 
Q 928 -128 1133 580 
Q 1338 1288 1338 2009 
Q 1338 2731 1133 3434 
Q 928 4138 513 4856 
z
" transform="scale(0.015625)"/>
      </defs>
      <use xlink:href="#DejaVuSans-Oblique-58" transform="translate(0 0.125)"/>
      <use xlink:href="#DejaVuSans-28" transform="translate(68.505859 0.125)"/>
      <use xlink:href="#DejaVuSans-Oblique-74" transform="translate(107.519531 0.125)"/>
      <use xlink:href="#DejaVuSans-29" transform="translate(146.728516 0.125)"/>
     </g>
    </g>
   </g>
   <g id="line2d_12">
    <path d="M 69.616702 286.605491 
L 70.158444 264.100359 
L 70.700186 262.08618 
L 71.241928 234.333547 
L 71.78367 277.579041 
L 72.325413 276.108112 
L 72.867155 286.80662 
L 73.408897 153.961091 
L 73.950639 284.144946 
L 74.492381 258.547647 
L 75.034123 168.097819 
L 75.575865 260.36813 
L 76.117607 177.810672 
L 76.65935 261.385951 
L 77.201092 251.76481 
L 78.284576 225.62172 
L 78.826318 268.308654 
L 79.36806 287.746877 
L 79.909802 279.345054 
L 80.451544 205.717041 
L 80.993286 266.788332 
L 81.535029 259.881471 
L 82.076771 247.207497 
L 82.618513 284.06381 
L 83.160255 153.480277 
L 83.701997 260.479081 
L 84.243739 283.017158 
L 84.785481 285.166154 
L 85.327223 229.739175 
L 85.868966 287.742532 
L 86.410708 285.073095 
L 86.95245 287.513358 
L 87.494192 273.724736 
L 88.035934 273.986028 
L 88.577676 270.213799 
L 89.119418 232.547974 
L 89.66116 276.953249 
L 90.202902 271.817441 
L 90.744645 287.705956 
L 91.286387 247.349634 
L 91.828129 276.445076 
L 92.369871 236.650053 
L 92.911613 269.573821 
L 93.453355 193.264453 
L 93.995097 269.702421 
L 94.536839 96.432869 
L 95.078582 232.092062 
L 95.620324 253.542959 
L 96.162066 283.290175 
L 96.703808 188.460376 
L 97.24555 283.809256 
L 97.787292 264.618607 
L 98.329034 286.632824 
L 98.870776 219.002881 
L 99.412518 261.763292 
L 99.954261 263.025419 
L 100.496003 277.900369 
L 101.037745 166.342922 
L 101.579487 197.120437 
L 102.121229 257.434642 
L 102.662971 272.196372 
L 103.204713 282.764094 
L 103.746455 286.165492 
L 104.288197 205.206246 
L 104.82994 286.724584 
L 105.371682 25.071683 
L 105.913424 263.791788 
L 106.455166 285.37585 
L 106.996908 224.818902 
L 107.53865 205.196679 
L 108.080392 287.935278 
L 108.622134 287.550567 
L 109.163877 258.077237 
L 109.705619 278.508681 
L 110.247361 272.583333 
L 110.789103 250.619138 
L 111.330845 247.616341 
L 111.872587 287.017341 
L 112.414329 283.137145 
L 112.956071 247.324051 
L 113.497813 247.011789 
L 114.581298 282.419042 
L 115.12304 287.022295 
L 115.664782 270.485247 
L 116.206524 287.293279 
L 116.748266 286.110881 
L 117.83175 138.43159 
L 118.373493 286.277359 
L 118.915235 285.905782 
L 119.456977 263.152249 
L 119.998719 284.543381 
L 120.540461 255.481371 
L 121.082203 286.662174 
L 122.165687 276.993075 
L 122.707429 283.821198 
L 123.249172 276.97709 
L 123.790914 287.871268 
L 124.332656 259.795976 
L 124.874398 287.140001 
L 125.41614 287.536536 
L 125.957882 285.83415 
L 126.499624 287.387744 
L 127.041366 185.375974 
L 127.583109 233.407181 
L 128.666593 280.975437 
L 129.208335 285.906321 
L 129.750077 272.055881 
L 130.291819 287.713877 
L 130.833561 275.08703 
L 131.375303 209.186025 
L 131.917045 283.078642 
L 132.458788 287.517418 
L 133.00053 286.73487 
L 134.084014 251.116247 
L 134.625756 26.591485 
L 135.167498 246.65215 
L 135.70924 184.690001 
L 136.250982 276.605797 
L 136.792725 262.157459 
L 137.334467 263.965117 
L 137.876209 286.332555 
L 138.417951 235.306311 
L 138.959693 285.233691 
L 139.501435 277.900577 
L 140.043177 281.895329 
L 140.584919 270.858547 
L 141.126661 287.434115 
L 141.668404 277.148872 
L 142.210146 282.36244 
L 142.751888 229.290456 
L 143.29363 274.00639 
L 143.835372 287.717103 
L 144.377114 272.474865 
L 144.918856 215.487577 
L 145.460598 286.856331 
L 146.00234 228.414588 
L 147.085825 287.531808 
L 147.627567 285.186376 
L 148.169309 116.64859 
L 148.711051 287.717295 
L 149.252793 270.408524 
L 149.794535 287.7779 
L 150.336277 264.844048 
L 150.87802 282.042397 
L 151.419762 286.728776 
L 151.961504 272.431559 
L 152.503246 202.904256 
L 153.044988 287.270958 
L 153.58673 284.621092 
L 154.128472 287.702775 
L 154.670214 281.101484 
L 155.211956 279.991848 
L 155.753699 287.618532 
L 156.295441 287.604207 
L 156.837183 287.749151 
L 157.378925 271.957786 
L 157.920667 287.372385 
L 158.462409 200.098412 
L 159.004151 283.665516 
L 159.545893 282.983743 
L 160.087636 266.213567 
L 160.629378 212.005681 
L 161.17112 177.317576 
L 161.712862 253.005498 
L 162.254604 269.133977 
L 162.796346 276.163533 
L 163.338088 127.825384 
L 163.87983 263.279048 
L 164.421572 282.942005 
L 164.963315 286.023188 
L 165.505057 250.283304 
L 166.046799 287.649972 
L 166.588541 253.85787 
L 167.130283 259.355767 
L 167.672025 226.397888 
L 168.213767 93.788515 
L 168.755509 269.950337 
L 169.297252 256.061833 
L 169.838994 285.105967 
L 170.380736 287.752161 
L 170.922478 286.122526 
L 171.46422 261.876415 
L 172.005962 221.854722 
L 172.547704 286.879657 
L 173.089446 287.723832 
L 173.631188 241.956627 
L 174.172931 285.47918 
L 174.714673 231.514352 
L 175.256415 279.328351 
L 175.798157 268.192136 
L 176.339899 276.654756 
L 176.881641 206.986744 
L 177.423383 287.158386 
L 177.965125 287.000191 
L 178.506868 260.102733 
L 179.04861 147.474719 
L 180.132094 263.879466 
L 180.673836 279.401222 
L 181.215578 287.413866 
L 181.75732 282.420173 
L 182.299062 254.187778 
L 182.840804 269.960649 
L 183.382547 280.620442 
L 183.924289 287.037831 
L 184.466031 282.159021 
L 185.549515 261.251072 
L 186.091257 259.21465 
L 186.632999 286.356612 
L 187.174741 288.118125 
L 187.716483 287.755208 
L 188.258226 284.144444 
L 188.799968 279.195546 
L 189.34171 214.598147 
L 189.883452 287.842943 
L 190.425194 266.640277 
L 190.966936 279.452383 
L 191.508678 282.026221 
L 192.05042 281.835805 
L 192.592163 250.159849 
L 193.133905 287.844855 
L 193.675647 273.05385 
L 194.217389 285.471914 
L 194.759131 286.887983 
L 195.300873 267.482712 
L 195.842615 203.567225 
L 196.384357 283.124948 
L 196.926099 275.05194 
L 197.467842 252.551983 
L 198.009584 281.607662 
L 198.551326 249.311338 
L 199.093068 286.757292 
L 199.63481 276.58112 
L 200.176552 286.261668 
L 200.718294 287.541891 
L 201.260036 241.4397 
L 201.801779 275.609943 
L 202.343521 254.133544 
L 202.885263 68.050952 
L 203.427005 235.38152 
L 203.968747 249.659511 
L 205.052231 287.496159 
L 205.593973 266.476073 
L 206.677458 286.093039 
L 207.2192 285.272647 
L 207.760942 258.766383 
L 208.302684 199.096097 
L 208.844426 252.727619 
L 209.386168 266.063801 
L 209.92791 226.847144 
L 210.469652 284.015694 
L 211.011395 273.035184 
L 211.553137 236.897739 
L 212.094879 287.283073 
L 212.636621 258.17228 
L 213.178363 287.826869 
L 213.720105 283.499083 
L 214.803589 280.116716 
L 215.345331 255.36912 
L 216.428816 280.900632 
L 216.970558 225.245872 
L 217.5123 272.62184 
L 218.054042 285.368561 
L 218.595784 254.880868 
L 219.137526 253.319818 
L 219.679268 262.580111 
L 220.762753 173.600858 
L 221.304495 258.16002 
L 221.846237 276.492993 
L 222.387979 204.223396 
L 222.929721 284.737214 
L 223.471463 261.748557 
L 224.013205 283.533389 
L 224.554947 273.234716 
L 225.09669 286.113756 
L 225.638432 287.135217 
L 226.180174 287.194868 
L 226.721916 266.16386 
L 227.263658 273.343137 
L 227.8054 268.222512 
L 228.347142 246.367927 
L 228.888884 285.507197 
L 229.430626 287.747263 
L 229.972369 279.788647 
L 230.514111 286.624401 
L 231.055853 287.532569 
L 231.597595 279.818809 
L 232.139337 217.068695 
L 232.681079 287.702977 
L 233.222821 287.745119 
L 233.764563 198.782738 
L 234.306306 284.684242 
L 234.848048 276.682397 
L 235.38979 266.583268 
L 235.931532 286.243301 
L 236.473274 254.097773 
L 237.015016 285.828248 
L 237.556758 229.168523 
L 238.0985 284.585549 
L 238.640242 278.947058 
L 239.181985 282.526182 
L 239.723727 279.462962 
L 240.265469 232.690917 
L 240.807211 283.773641 
L 241.348953 268.708457 
L 241.890695 287.752341 
L 242.432437 284.384327 
L 242.974179 284.115823 
L 243.515922 265.520385 
L 244.057664 178.758085 
L 244.599406 285.701728 
L 245.141148 288.005477 
L 245.68289 287.496688 
L 246.224632 261.83385 
L 247.308116 283.71973 
L 247.849858 283.995496 
L 248.391601 269.16238 
L 249.475085 287.234687 
L 250.016827 227.191546 
L 250.558569 255.130426 
L 251.100311 201.487082 
L 251.642053 218.79933 
L 252.183795 284.794121 
L 252.725538 284.174639 
L 253.26728 273.78116 
L 253.809022 287.269185 
L 254.350764 285.889135 
L 254.892506 247.35951 
L 255.434248 242.595048 
L 255.97599 280.301279 
L 256.517732 213.660485 
L 257.059474 287.781324 
L 257.601217 286.590951 
L 258.142959 282.670076 
L 258.684701 282.651901 
L 259.226443 238.388406 
L 259.768185 268.801881 
L 260.309927 247.076374 
L 260.851669 286.94877 
L 261.393411 278.314771 
L 261.935153 273.505699 
L 262.476896 285.483769 
L 263.018638 287.652609 
L 263.56038 256.210449 
L 264.102122 287.4593 
L 264.643864 281.917117 
L 265.185606 176.097374 
L 265.727348 179.269373 
L 266.26909 244.086638 
L 267.352575 279.756105 
L 267.894317 286.858877 
L 268.436059 220.416959 
L 268.977801 287.22729 
L 269.519543 286.037189 
L 270.061285 284.432943 
L 270.603027 200.071736 
L 271.144769 286.758899 
L 271.686512 287.78454 
L 272.228254 268.103329 
L 272.769996 243.263827 
L 273.311738 287.544522 
L 273.85348 250.647592 
L 274.395222 202.598341 
L 274.936964 278.135657 
L 276.020449 143.810144 
L 276.562191 271.897327 
L 277.103933 193.550384 
L 277.645675 278.090485 
L 278.187417 270.817619 
L 278.729159 243.896457 
L 279.270901 281.281857 
L 279.812643 241.430218 
L 280.354385 287.640168 
L 280.896128 287.447985 
L 281.43787 271.226376 
L 281.979612 237.023904 
L 282.521354 286.239006 
L 283.063096 252.390961 
L 283.604838 279.604986 
L 284.14658 192.274276 
L 284.688322 271.970309 
L 285.230065 283.310178 
L 285.771807 222.28394 
L 286.855291 276.610969 
L 287.397033 193.218921 
L 287.938775 281.339128 
L 288.480517 287.641086 
L 289.022259 268.113736 
L 289.564001 284.460491 
L 290.105744 281.960932 
L 290.647486 200.856307 
L 291.189228 285.168253 
L 291.73097 280.390004 
L 292.272712 266.207299 
L 292.814454 118.037198 
L 293.356196 238.068369 
L 293.897938 241.518649 
L 294.439681 191.315854 
L 294.981423 287.611019 
L 295.523165 210.461039 
L 296.064907 267.362902 
L 296.606649 281.71946 
L 297.148391 268.532518 
L 297.690133 271.481403 
L 298.231875 286.027641 
L 298.773617 214.513004 
L 299.31536 283.088681 
L 299.857102 274.118515 
L 300.940586 236.980172 
L 301.482328 196.276163 
L 302.02407 247.092574 
L 302.565812 270.525358 
L 303.107554 265.151623 
L 303.649296 287.604607 
L 304.191039 187.27991 
L 304.732781 283.582082 
L 305.274523 129.379047 
L 305.816265 266.422116 
L 306.358007 66.15016 
L 306.899749 287.5526 
L 307.983233 166.567456 
L 308.524976 217.408918 
L 309.066718 285.27547 
L 309.60846 162.51073 
L 310.150202 272.984246 
L 310.691944 273.228019 
L 311.233686 94.893413 
L 311.775428 256.609553 
L 312.31717 269.97103 
L 312.858912 198.174339 
L 313.400655 283.188368 
L 313.942397 260.189892 
L 314.484139 276.121179 
L 315.025881 285.172949 
L 315.567623 284.549798 
L 316.109365 214.229569 
L 316.651107 276.042671 
L 317.192849 287.695033 
L 317.734592 280.632879 
L 318.276334 202.122516 
L 318.818076 240.49411 
L 319.359818 233.791695 
L 319.90156 282.123601 
L 320.985044 248.860308 
L 321.526786 262.415665 
L 322.068528 122.958048 
L 322.610271 287.185772 
L 323.152013 287.836864 
L 323.693755 261.20535 
L 324.235497 287.833704 
L 324.777239 194.910273 
L 325.318981 45.859122 
L 325.860723 230.013388 
L 326.944208 286.134549 
L 327.48595 228.53829 
L 328.027692 287.595629 
L 328.569434 287.58153 
L 329.111176 251.5568 
L 329.652918 236.455751 
L 330.19466 281.938148 
L 330.736402 276.786852 
L 331.278144 264.345316 
L 331.819887 282.832875 
L 332.361629 287.369347 
L 332.903371 287.59427 
L 333.445113 248.581795 
L 333.986855 259.840617 
L 334.528597 252.011696 
L 335.070339 280.585787 
L 335.612081 287.259291 
L 336.153823 85.53629 
L 336.695566 279.511165 
L 337.237308 283.250307 
L 337.77905 273.369382 
L 338.320792 277.047273 
L 338.862534 287.723845 
L 339.404276 264.349887 
L 339.946018 212.261567 
L 339.946018 212.261567 
" clip-path="url(#pea273c5db3)" style="fill: none; stroke: #4878d0; stroke-width: 1.5; stroke-linecap: round"/>
   </g>
   <g id="line2d_13">
    <path d="M 69.616702 286.411089 
L 70.158444 263.846255 
L 70.700186 261.89332 
L 71.241928 234.086641 
L 71.78367 277.420512 
L 72.325413 275.901999 
L 72.867155 286.733635 
L 73.408897 153.494242 
L 73.950639 283.856892 
L 74.492381 258.337891 
L 75.034123 167.625837 
L 75.575865 260.077392 
L 76.117607 177.319135 
L 76.65935 260.988598 
L 77.201092 251.470253 
L 78.284576 225.315402 
L 78.826318 268.079712 
L 79.36806 287.647566 
L 79.909802 279.096256 
L 80.451544 205.32283 
L 80.993286 266.570487 
L 81.535029 259.701569 
L 82.076771 247.00319 
L 82.618513 283.933607 
L 83.160255 152.978546 
L 83.701997 260.024118 
L 84.243739 282.640218 
L 84.785481 284.963412 
L 85.327223 229.460858 
L 85.868966 287.638886 
L 86.410708 285.014313 
L 86.95245 287.458738 
L 87.494192 273.657427 
L 88.035934 273.797694 
L 88.577676 270.039015 
L 89.119418 232.174944 
L 89.66116 276.712234 
L 90.202902 271.628938 
L 90.744645 287.54356 
L 91.286387 247.130555 
L 91.828129 276.278548 
L 92.369871 236.374044 
L 92.911613 269.357989 
L 93.453355 192.855292 
L 93.995097 269.457803 
L 94.536839 95.610443 
L 95.078582 231.568533 
L 95.620324 253.032428 
L 96.162066 283.105146 
L 96.703808 188.04635 
L 97.24555 283.624854 
L 97.787292 264.380934 
L 98.329034 286.196375 
L 98.870776 218.602233 
L 99.412518 261.573138 
L 99.954261 262.699701 
L 100.496003 277.681003 
L 101.037745 165.875222 
L 101.579487 196.59874 
L 102.121229 256.880345 
L 102.662971 271.812022 
L 103.204713 282.648043 
L 103.746455 286.111304 
L 104.288197 204.876978 
L 104.82994 286.441211 
L 105.371682 24.005625 
L 105.913424 263.285614 
L 106.455166 285.006824 
L 106.996908 224.508388 
L 107.53865 204.772629 
L 108.080392 287.581592 
L 108.622134 287.396242 
L 109.163877 257.953546 
L 109.705619 278.418526 
L 110.247361 272.496451 
L 110.789103 250.41176 
L 111.330845 247.395148 
L 111.872587 286.917136 
L 112.414329 283.091385 
L 112.956071 247.173893 
L 113.497813 246.794574 
L 114.581298 282.15335 
L 115.12304 286.818347 
L 115.664782 270.374116 
L 116.206524 287.238738 
L 116.748266 286.076787 
L 117.83175 137.724253 
L 118.373493 285.970537 
L 118.915235 285.564856 
L 119.456977 262.957768 
L 119.998719 284.43528 
L 120.540461 255.328873 
L 121.082203 286.291776 
L 122.165687 276.885884 
L 122.707429 283.742229 
L 123.249172 276.850468 
L 123.790914 287.438167 
L 124.332656 259.528559 
L 124.874398 286.91467 
L 125.41614 287.440675 
L 125.957882 285.812043 
L 126.499624 287.375469 
L 127.041366 185.024975 
L 127.583109 232.988439 
L 128.666593 280.820624 
L 129.208335 285.595262 
L 129.750077 271.826782 
L 130.291819 287.662796 
L 130.833561 275.007876 
L 131.375303 208.880773 
L 131.917045 282.887716 
L 132.458788 287.446542 
L 133.00053 286.720103 
L 134.084014 250.922211 
L 134.625756 25.596247 
L 135.167498 246.071431 
L 135.70924 183.865417 
L 136.250982 276.261622 
L 136.792725 261.955315 
L 137.334467 263.820403 
L 137.876209 286.186819 
L 138.417951 235.060874 
L 138.959693 285.064069 
L 139.501435 277.79868 
L 140.043177 281.546281 
L 140.584919 270.64115 
L 141.126661 287.312004 
L 141.668404 276.971223 
L 142.210146 282.273809 
L 142.751888 229.012771 
L 143.29363 273.841125 
L 143.835372 287.591241 
L 144.377114 272.335834 
L 144.918856 215.125417 
L 145.460598 286.692805 
L 146.00234 228.009659 
L 147.085825 287.399317 
L 147.627567 285.154886 
L 148.169309 116.041866 
L 148.711051 287.321421 
L 149.252793 270.203155 
L 149.794535 287.652266 
L 150.336277 264.694717 
L 150.87802 281.920233 
L 151.419762 286.453977 
L 151.961504 272.149739 
L 152.503246 202.461816 
L 153.044988 287.079052 
L 153.58673 284.46243 
L 154.128472 287.657943 
L 154.670214 281.058404 
L 155.211956 279.868235 
L 155.753699 287.56838 
L 156.295441 287.415883 
L 156.837183 287.628005 
L 157.378925 271.524326 
L 157.920667 287.182779 
L 158.462409 199.597909 
L 159.004151 283.359925 
L 159.545893 282.878315 
L 160.087636 266.07105 
L 160.629378 211.527285 
L 161.17112 176.750195 
L 161.712862 252.67215 
L 162.254604 268.909476 
L 162.796346 275.940791 
L 163.338088 127.039864 
L 163.87983 262.812512 
L 164.421572 282.77629 
L 164.963315 285.502733 
L 165.505057 249.930303 
L 166.046799 287.580424 
L 166.588541 253.678682 
L 167.130283 259.16542 
L 167.672025 226.044672 
L 168.213767 92.952007 
L 168.755509 269.4917 
L 169.297252 255.799513 
L 169.838994 284.911105 
L 170.380736 287.630729 
L 170.922478 286.05561 
L 171.46422 261.390707 
L 172.005962 221.427842 
L 172.547704 286.715108 
L 173.089446 287.661367 
L 173.631188 241.505629 
L 174.172931 285.274848 
L 174.714673 231.211219 
L 175.256415 279.170029 
L 175.798157 268.061091 
L 176.339899 276.463026 
L 176.881641 206.598463 
L 177.423383 286.847812 
L 177.965125 286.882721 
L 178.506868 260.007116 
L 179.04861 146.781562 
L 180.132094 263.546295 
L 180.673836 279.26319 
L 181.215578 287.329579 
L 181.75732 282.347777 
L 182.299062 253.895217 
L 182.840804 269.74236 
L 183.382547 280.476066 
L 183.924289 286.988076 
L 184.466031 282.13424 
L 185.549515 260.74867 
L 186.091257 258.907239 
L 186.632999 285.868344 
L 187.174741 287.517598 
L 187.716483 287.579272 
L 188.258226 284.113824 
L 188.799968 279.154007 
L 189.34171 214.269955 
L 189.883452 287.640505 
L 190.425194 266.49475 
L 190.966936 279.272092 
L 191.508678 281.900064 
L 192.05042 281.769086 
L 192.592163 249.826918 
L 193.133905 287.646196 
L 193.675647 272.729992 
L 194.217389 285.314294 
L 194.759131 286.777456 
L 195.300873 267.347905 
L 195.842615 203.201956 
L 196.384357 282.908906 
L 196.926099 274.934873 
L 197.467842 252.408652 
L 198.009584 281.516198 
L 198.551326 248.777463 
L 199.093068 286.532742 
L 199.63481 276.461807 
L 200.176552 286.207109 
L 200.718294 287.500344 
L 201.260036 241.169347 
L 201.801779 275.246623 
L 202.343521 253.884071 
L 202.885263 67.234904 
L 203.427005 234.675607 
L 203.968747 249.261789 
L 205.052231 287.102544 
L 205.593973 266.261453 
L 206.677458 285.920827 
L 207.2192 285.168329 
L 207.760942 258.518165 
L 208.302684 198.693842 
L 208.844426 252.451596 
L 209.386168 265.722393 
L 209.92791 226.483134 
L 210.469652 283.887464 
L 211.011395 272.750913 
L 211.553137 236.615969 
L 212.094879 287.045565 
L 212.636621 257.970633 
L 213.178363 287.63779 
L 213.720105 283.311347 
L 214.261847 281.849343 
L 214.803589 280.033387 
L 215.345331 255.112703 
L 216.428816 280.829413 
L 216.970558 224.871305 
L 217.5123 272.383616 
L 218.054042 285.292375 
L 218.595784 254.735845 
L 219.137526 252.927479 
L 219.679268 262.201947 
L 220.762753 172.997628 
L 221.304495 257.834747 
L 221.846237 276.333804 
L 222.387979 203.888368 
L 222.929721 284.580152 
L 223.471463 261.601928 
L 224.013205 283.327169 
L 224.554947 273.095008 
L 225.09669 286.081616 
L 225.638432 287.096647 
L 226.180174 287.177892 
L 226.721916 266.06406 
L 227.263658 273.057211 
L 227.8054 267.811117 
L 228.347142 245.974665 
L 228.888884 285.37252 
L 229.430626 287.589712 
L 229.972369 279.65375 
L 230.514111 286.579991 
L 231.055853 287.523049 
L 231.597595 279.791162 
L 232.139337 216.814443 
L 232.681079 287.520639 
L 233.222821 287.569065 
L 233.764563 198.249324 
L 234.306306 284.464683 
L 234.848048 276.591126 
L 235.38979 266.271358 
L 235.931532 286.006563 
L 236.473274 253.922422 
L 237.015016 285.767128 
L 237.556758 228.547404 
L 238.0985 284.283393 
L 238.640242 278.831593 
L 239.181985 282.447773 
L 239.723727 279.409489 
L 240.265469 232.487675 
L 240.807211 283.246451 
L 241.348953 268.393141 
L 241.890695 287.65276 
L 242.432437 284.336491 
L 242.974179 284.009588 
L 243.515922 265.39796 
L 244.057664 178.146309 
L 244.599406 285.409346 
L 245.141148 287.635639 
L 245.68289 287.310542 
L 246.224632 261.640471 
L 247.308116 283.661133 
L 247.849858 283.910929 
L 248.391601 268.700077 
L 249.475085 287.069663 
L 250.016827 226.889689 
L 250.558569 254.895451 
L 251.100311 201.104731 
L 251.642053 218.395986 
L 252.183795 284.608686 
L 252.725538 284.104747 
L 253.26728 273.586311 
L 253.809022 287.078979 
L 254.350764 285.72222 
L 254.892506 247.125687 
L 255.434248 242.226452 
L 255.97599 280.052312 
L 256.517732 213.34017 
L 257.059474 287.636346 
L 257.601217 286.397567 
L 258.142959 282.592251 
L 258.684701 282.521103 
L 259.226443 238.132009 
L 259.768185 268.448932 
L 260.309927 246.77033 
L 260.851669 286.787117 
L 261.393411 278.179777 
L 261.935153 273.422691 
L 262.476896 285.444839 
L 263.018638 287.51581 
L 263.56038 256.022863 
L 264.102122 287.399665 
L 264.643864 281.757062 
L 265.185606 175.656081 
L 265.727348 178.724144 
L 266.26909 243.679998 
L 267.352575 279.611274 
L 267.894317 286.753506 
L 268.436059 220.143722 
L 268.977801 287.075254 
L 269.519543 285.946823 
L 270.061285 283.984095 
L 270.603027 199.556139 
L 271.144769 286.503688 
L 271.686512 287.660415 
L 272.228254 267.87738 
L 272.769996 242.995928 
L 273.311738 287.452587 
L 273.85348 250.319422 
L 274.395222 202.174954 
L 274.936964 277.896946 
L 276.020449 142.809459 
L 276.562191 271.413593 
L 277.103933 193.097992 
L 277.645675 277.900151 
L 278.187417 270.683302 
L 278.729159 243.676101 
L 279.270901 281.172362 
L 279.812643 241.20404 
L 280.354385 287.450443 
L 280.896128 287.175167 
L 281.43787 271.002227 
L 281.979612 236.646251 
L 282.521354 286.032001 
L 283.063096 252.218355 
L 283.604838 279.499859 
L 284.14658 191.837892 
L 284.688322 271.729607 
L 285.230065 283.154289 
L 285.771807 222.015657 
L 286.855291 276.469854 
L 287.397033 192.43582 
L 287.938775 280.983872 
L 288.480517 287.579126 
L 289.022259 268.032292 
L 289.564001 284.3932 
L 290.105744 281.90385 
L 290.647486 200.303221 
L 291.189228 284.92605 
L 291.73097 280.301926 
L 292.272712 266.04533 
L 292.814454 117.349353 
L 293.356196 237.606599 
L 293.897938 241.148744 
L 294.439681 190.843514 
L 294.981423 287.432816 
L 295.523165 210.000281 
L 296.064907 267.052027 
L 296.606649 281.550695 
L 297.148391 268.41278 
L 297.690133 271.347275 
L 298.231875 285.966628 
L 298.773617 214.220848 
L 299.31536 282.951637 
L 299.857102 273.970526 
L 300.940586 236.713738 
L 301.482328 195.532798 
L 302.02407 246.630889 
L 302.565812 270.343808 
L 303.107554 264.888252 
L 303.649296 287.444936 
L 304.191039 186.88698 
L 304.732781 283.414098 
L 305.274523 128.63905 
L 305.816265 266.040208 
L 306.358007 65.103308 
L 306.899749 287.128966 
L 307.983233 166.039184 
L 308.524976 216.904804 
L 309.066718 284.965894 
L 309.60846 161.887407 
L 310.150202 272.341785 
L 310.691944 272.881836 
L 311.233686 94.179913 
L 311.775428 256.105213 
L 312.31717 269.711683 
L 312.858912 197.822265 
L 313.400655 283.02543 
L 313.942397 260.031558 
L 314.484139 276.032535 
L 315.025881 285.104069 
L 315.567623 284.508802 
L 316.109365 213.966852 
L 316.651107 275.688852 
L 317.192849 287.545058 
L 317.734592 280.599087 
L 318.276334 201.821017 
L 318.818076 240.115221 
L 319.359818 233.428661 
L 319.90156 281.985244 
L 320.985044 248.420229 
L 321.526786 262.227728 
L 322.068528 122.190318 
L 322.610271 286.865459 
L 323.152013 287.493369 
L 323.693755 260.993388 
L 324.235497 287.576795 
L 324.777239 194.458275 
L 325.318981 44.607872 
L 325.860723 229.29579 
L 326.944208 285.974222 
L 327.48595 228.289364 
L 328.027692 287.417661 
L 328.569434 287.440333 
L 329.111176 251.237809 
L 329.652918 236.065383 
L 330.19466 281.78365 
L 330.736402 276.671035 
L 331.278144 264.131397 
L 331.819887 282.702512 
L 332.361629 287.142818 
L 332.903371 287.508312 
L 333.445113 248.44566 
L 333.986855 259.663445 
L 334.528597 251.600548 
L 335.070339 280.396211 
L 335.612081 287.226816 
L 336.153823 84.725921 
L 336.695566 279.133132 
L 337.237308 282.933807 
L 337.77905 273.222455 
L 338.320792 276.979318 
L 338.862534 287.646561 
L 339.404276 264.112821 
L 339.946018 211.881509 
L 339.946018 211.881509 
" clip-path="url(#pea273c5db3)" style="fill: none; stroke: #ee854a; stroke-width: 0.7; stroke-linecap: round"/>
   </g>
   <g id="line2d_14">
    <path d="M 69.616702 213.759804 
L 70.158444 246.167072 
L 70.700186 263.521283 
L 71.241928 273.318933 
L 71.78367 247.49345 
L 72.325413 235.734445 
L 72.867155 281.708153 
L 73.408897 285.273305 
L 73.950639 187.449802 
L 74.492381 284.377995 
L 75.034123 264.895616 
L 75.575865 227.548131 
L 76.117607 266.884598 
L 76.65935 179.214776 
L 77.201092 264.471118 
L 77.742834 266.715121 
L 78.284576 262.153067 
L 78.826318 236.883957 
L 79.36806 269.654069 
L 79.909802 202.45809 
L 80.451544 276.497872 
L 80.993286 239.844465 
L 81.535029 274.544461 
L 82.076771 268.335146 
L 82.618513 250.813538 
L 83.160255 284.813539 
L 83.701997 151.296842 
L 84.785481 245.20775 
L 85.327223 271.918967 
L 85.868966 257.171179 
L 86.410708 279.672342 
L 86.95245 268.581877 
L 87.494192 287.480661 
L 88.035934 229.559702 
L 88.577676 265.480322 
L 89.119418 220.970439 
L 90.202902 254.194196 
L 90.744645 235.310427 
L 91.286387 275.584074 
L 91.828129 243.308396 
L 92.369871 264.77163 
L 92.911613 238.226325 
L 93.453355 273.820574 
L 93.995097 226.935597 
L 94.536839 243.327368 
L 95.078582 187.337428 
L 95.620324 170.73765 
L 96.162066 269.956769 
L 96.703808 263.516663 
L 97.24555 237.041779 
L 97.787292 242.687339 
L 98.329034 127.103984 
L 98.870776 286.224688 
L 99.412518 253.055355 
L 99.954261 203.489123 
L 100.496003 248.092148 
L 101.037745 282.583637 
L 102.121229 139.437013 
L 103.204713 278.767308 
L 103.746455 271.350749 
L 104.288197 274.288988 
L 104.82994 184.642517 
L 105.371682 259.169776 
L 105.913424 150.475814 
L 106.455166 196.952516 
L 106.996908 286.074993 
L 107.53865 234.987644 
L 108.080392 170.126841 
L 108.622134 273.158519 
L 109.163877 284.201062 
L 109.705619 267.623697 
L 110.247361 282.29705 
L 110.789103 257.388171 
L 111.330845 269.033799 
L 111.872587 258.87713 
L 112.414329 287.285938 
L 112.956071 282.896603 
L 113.497813 261.008916 
L 114.039556 244.29568 
L 114.581298 204.231252 
L 115.12304 239.002556 
L 115.664782 286.403733 
L 116.206524 267.695261 
L 116.748266 284.124198 
L 117.290008 214.237689 
L 117.83175 243.443263 
L 118.373493 196.180844 
L 118.915235 185.896454 
L 119.456977 284.686836 
L 119.998719 250.637595 
L 120.540461 285.765363 
L 121.082203 137.457689 
L 121.623945 268.856378 
L 122.165687 266.502444 
L 122.707429 270.172533 
L 123.249172 257.559111 
L 123.790914 118.963139 
L 124.332656 287.230618 
L 124.874398 196.806854 
L 125.41614 286.460067 
L 125.957882 281.509715 
L 126.499624 285.729729 
L 127.041366 287.257948 
L 127.583109 200.718161 
L 128.124851 202.010508 
L 128.666593 272.01586 
L 129.208335 166.569696 
L 129.750077 265.611048 
L 130.291819 277.295783 
L 130.833561 276.779282 
L 131.375303 277.629974 
L 131.917045 226.947095 
L 132.458788 284.556307 
L 133.00053 284.126428 
L 133.542272 247.110566 
L 134.084014 277.698094 
L 134.625756 250.965188 
L 135.167498 146.972648 
L 135.70924 152.769276 
L 136.250982 227.960911 
L 136.792725 265.908185 
L 137.334467 272.870685 
L 137.876209 237.177524 
L 138.417951 281.095648 
L 138.959693 228.401564 
L 139.501435 284.403017 
L 140.043177 151.343709 
L 140.584919 279.238985 
L 141.126661 242.056868 
L 141.668404 247.452984 
L 142.210146 276.344939 
L 142.751888 259.787876 
L 143.29363 256.146412 
L 143.835372 249.605501 
L 144.377114 267.162966 
L 144.918856 249.03248 
L 145.460598 244.627482 
L 146.00234 220.513671 
L 146.544083 215.999246 
L 147.085825 266.24362 
L 147.627567 287.150823 
L 148.169309 277.678757 
L 148.711051 144.362029 
L 149.252793 287.293826 
L 149.794535 236.678915 
L 150.336277 279.294805 
L 150.87802 250.411496 
L 151.419762 189.803362 
L 151.961504 232.802378 
L 152.503246 247.98857 
L 153.044988 233.946355 
L 153.58673 248.243426 
L 154.128472 285.963669 
L 154.670214 279.644827 
L 155.211956 250.748111 
L 155.753699 283.286513 
L 156.295441 210.269944 
L 156.837183 269.674839 
L 157.378925 135.224333 
L 157.920667 275.309071 
L 158.462409 207.636196 
L 159.004151 208.817692 
L 159.545893 284.20985 
L 160.087636 260.375355 
L 160.629378 208.65391 
L 161.17112 249.188967 
L 161.712862 225.850128 
L 162.254604 250.044787 
L 162.796346 228.511618 
L 163.338088 212.461548 
L 163.87983 176.326459 
L 164.421572 275.099174 
L 164.963315 76.615622 
L 165.505057 283.165554 
L 166.046799 264.549572 
L 166.588541 270.531158 
L 167.130283 259.200662 
L 167.672025 242.054625 
L 168.213767 239.588614 
L 168.755509 162.306011 
L 169.297252 278.181672 
L 169.838994 216.861189 
L 170.380736 267.007492 
L 170.922478 270.526159 
L 171.46422 127.47134 
L 172.005962 273.715283 
L 172.547704 232.87722 
L 173.089446 284.832907 
L 173.631188 164.347546 
L 174.172931 262.71945 
L 174.714673 251.375559 
L 175.256415 254.798289 
L 175.798157 275.392486 
L 176.339899 230.111337 
L 176.881641 265.621168 
L 177.423383 176.078025 
L 177.965125 287.011671 
L 178.506868 287.249015 
L 179.04861 199.837949 
L 179.590352 162.208174 
L 180.132094 243.790908 
L 180.673836 262.85256 
L 181.215578 264.076354 
L 181.75732 274.814325 
L 182.299062 218.470797 
L 182.840804 254.501359 
L 183.382547 253.144484 
L 183.924289 283.191193 
L 184.466031 287.103615 
L 185.007773 277.072678 
L 185.549515 120.247478 
L 186.091257 273.665779 
L 186.632999 93.008298 
L 187.174741 117.542983 
L 187.716483 286.295186 
L 188.258226 280.399749 
L 188.799968 285.809823 
L 189.883452 223.983797 
L 190.425194 283.76443 
L 190.966936 227.51135 
L 191.508678 269.297812 
L 192.05042 276.419207 
L 192.592163 206.610735 
L 193.133905 242.673016 
L 193.675647 191.407707 
L 194.217389 267.304182 
L 194.759131 251.183593 
L 195.300873 275.515813 
L 195.842615 261.79995 
L 196.384357 223.718147 
L 196.926099 284.343123 
L 197.467842 280.457636 
L 198.009584 264.8577 
L 198.551326 128.125378 
L 199.093068 267.068348 
L 199.63481 262.222799 
L 200.176552 278.841866 
L 200.718294 274.271623 
L 201.260036 245.759451 
L 201.801779 175.022771 
L 202.343521 280.264682 
L 202.885263 265.607279 
L 203.427005 99.409697 
L 203.968747 261.169315 
L 204.510489 203.93614 
L 205.052231 159.968754 
L 205.593973 282.371053 
L 206.135715 270.779297 
L 206.677458 225.806871 
L 207.2192 273.828465 
L 207.760942 230.698743 
L 208.302684 272.81663 
L 209.386168 200.079198 
L 209.92791 261.454558 
L 210.469652 256.973391 
L 211.011395 202.412719 
L 211.553137 279.910874 
L 212.094879 197.187315 
L 212.636621 283.803914 
L 213.178363 212.744442 
L 214.261847 282.065186 
L 214.803589 266.419702 
L 215.345331 235.866043 
L 215.887074 268.878777 
L 216.428816 277.641463 
L 216.970558 224.366999 
L 217.5123 243.027401 
L 218.054042 279.692168 
L 218.595784 277.231874 
L 219.137526 179.740872 
L 219.679268 214.41313 
L 220.22101 225.253356 
L 220.762753 231.936023 
L 221.304495 229.676565 
L 221.846237 264.797016 
L 222.387979 277.180745 
L 222.929721 239.594719 
L 223.471463 283.968706 
L 224.013205 211.196396 
L 224.554947 282.725773 
L 225.09669 280.095678 
L 225.638432 275.585867 
L 226.180174 286.418855 
L 226.721916 277.017113 
L 227.263658 194.692717 
L 227.8054 183.645585 
L 228.888884 264.280485 
L 229.430626 231.423337 
L 229.972369 266.209366 
L 230.514111 280.531334 
L 231.055853 287.015847 
L 231.597595 287.55172 
L 232.139337 282.66403 
L 232.681079 220.885582 
L 233.222821 241.980706 
L 233.764563 209.886975 
L 234.306306 242.801868 
L 234.848048 284.524648 
L 235.38979 189.033446 
L 236.473274 284.811945 
L 237.015016 269.55802 
L 237.556758 117.746269 
L 238.0985 244.202398 
L 238.640242 270.502519 
L 239.181985 270.332261 
L 239.723727 284.89824 
L 240.265469 282.942528 
L 240.807211 79.305159 
L 241.348953 271.731225 
L 241.890695 254.566553 
L 242.432437 286.387252 
L 242.974179 248.900757 
L 243.515922 284.83706 
L 244.057664 189.709413 
L 244.599406 221.563278 
L 245.141148 159.889622 
L 245.68289 264.206051 
L 246.224632 253.291951 
L 247.308116 279.460354 
L 247.849858 261.248548 
L 248.391601 131.102816 
L 248.933343 260.526091 
L 249.475085 231.428734 
L 250.016827 271.316757 
L 250.558569 249.131409 
L 251.100311 270.287623 
L 251.642053 233.610171 
L 252.183795 244.591593 
L 252.725538 282.009941 
L 253.26728 228.274342 
L 254.350764 242.450954 
L 254.892506 266.501183 
L 255.434248 210.577579 
L 255.97599 231.443577 
L 256.517732 283.721351 
L 257.059474 236.45568 
L 257.601217 229.647345 
L 258.142959 287.025011 
L 258.684701 240.571361 
L 259.226443 271.015521 
L 259.768185 178.676892 
L 260.309927 265.741206 
L 260.851669 234.561485 
L 261.393411 267.027973 
L 261.935153 282.889438 
L 262.476896 278.030836 
L 263.018638 234.405173 
L 263.56038 276.54115 
L 264.102122 271.15219 
L 264.643864 235.554377 
L 265.185606 284.644089 
L 265.727348 227.206228 
L 266.26909 216.946207 
L 266.810833 250.496733 
L 267.352575 256.628279 
L 267.894317 258.615244 
L 268.436059 281.478652 
L 268.977801 234.470995 
L 269.519543 274.769374 
L 270.061285 108.859228 
L 270.603027 272.989597 
L 271.144769 197.617411 
L 271.686512 273.892326 
L 272.228254 226.387976 
L 272.769996 266.903958 
L 273.311738 263.014506 
L 273.85348 213.02137 
L 274.395222 267.388036 
L 274.936964 219.039585 
L 275.478706 273.637107 
L 276.020449 87.640726 
L 276.562191 208.427951 
L 277.103933 267.726998 
L 277.645675 240.368393 
L 278.187417 276.575032 
L 278.729159 264.213701 
L 279.270901 265.669594 
L 279.812643 268.788102 
L 280.354385 221.060782 
L 280.896128 201.562094 
L 281.43787 253.714609 
L 281.979612 217.539741 
L 282.521354 238.259191 
L 283.063096 286.845913 
L 283.604838 259.255627 
L 284.14658 253.61697 
L 284.688322 234.104705 
L 285.230065 252.951689 
L 285.771807 283.72042 
L 286.313549 247.766661 
L 286.855291 265.720138 
L 287.397033 103.716747 
L 287.938775 236.556902 
L 288.480517 284.233299 
L 289.022259 282.848973 
L 289.564001 268.170647 
L 290.105744 280.502821 
L 290.647486 182.753916 
L 291.189228 243.958923 
L 291.73097 280.007148 
L 292.272712 254.278068 
L 292.814454 257.724997 
L 293.356196 196.176392 
L 293.897938 242.774704 
L 294.439681 251.215511 
L 295.523165 224.984557 
L 296.064907 221.361488 
L 296.606649 255.792878 
L 297.148391 278.975543 
L 297.690133 260.229187 
L 298.231875 277.887556 
L 298.773617 273.801742 
L 299.31536 250.678322 
L 299.857102 261.094344 
L 300.398844 267.375215 
L 300.940586 260.231091 
L 301.482328 122.910661 
L 302.02407 232.234445 
L 302.565812 264.095409 
L 303.107554 220.997823 
L 304.191039 281.479872 
L 304.732781 236.720824 
L 305.274523 225.055364 
L 305.816265 201.908364 
L 306.358007 203.272669 
L 306.899749 170.516484 
L 307.441491 287.396004 
L 308.524976 207.484623 
L 309.066718 202.947405 
L 309.60846 241.020393 
L 310.150202 72.11032 
L 310.691944 256.554427 
L 311.233686 278.35748 
L 311.775428 145.425148 
L 312.31717 268.233404 
L 312.858912 277.939271 
L 313.400655 239.697594 
L 313.942397 281.401737 
L 314.484139 272.649202 
L 315.025881 269.948912 
L 315.567623 282.728374 
L 316.109365 284.703069 
L 316.651107 164.782246 
L 317.192849 278.4139 
L 317.734592 287.478271 
L 318.276334 284.125322 
L 318.818076 206.801203 
L 319.359818 251.911746 
L 319.90156 258.72458 
L 320.443302 36.702723 
L 320.985044 268.053032 
L 321.526786 257.483239 
L 322.068528 216.065672 
L 322.610271 202.673397 
L 323.152013 179.163224 
L 323.693755 282.779918 
L 324.235497 184.246639 
L 324.777239 274.485861 
L 325.318981 123.193385 
L 325.860723 165.750486 
L 326.402465 224.465941 
L 327.48595 282.66537 
L 328.027692 221.58905 
L 328.569434 256.61523 
L 329.111176 218.329771 
L 329.652918 230.38044 
L 330.19466 261.116841 
L 330.736402 266.485566 
L 331.278144 241.256904 
L 331.819887 262.184124 
L 332.361629 204.095551 
L 332.903371 287.401871 
L 333.445113 286.456198 
L 333.986855 257.822623 
L 334.528597 181.45056 
L 335.070339 267.488552 
L 335.612081 284.018937 
L 336.695566 184.361298 
L 337.237308 205.832614 
L 337.77905 281.833002 
L 338.320792 278.37018 
L 338.862534 260.192031 
L 339.404276 232.956034 
L 339.946018 261.699652 
L 339.946018 261.699652 
" clip-path="url(#pea273c5db3)" style="fill: none; stroke: #6acc64; stroke-width: 1.5; stroke-linecap: round"/>
   </g>
   <g id="line2d_15">
    <path d="M 69.616702 213.759804 
L 70.158444 246.167072 
L 70.700186 263.521283 
L 71.241928 273.318933 
L 71.78367 247.49345 
L 72.325413 235.734445 
L 72.867155 281.708153 
L 73.408897 285.273304 
L 73.950639 187.449802 
L 74.492381 284.377994 
L 75.034123 264.895616 
L 75.575865 227.548131 
L 76.117607 266.884598 
L 76.65935 179.214776 
L 77.201092 264.471118 
L 77.742834 266.715121 
L 78.284576 262.153067 
L 78.826318 236.883957 
L 79.36806 269.654069 
L 79.909802 202.45809 
L 80.451544 276.497871 
L 80.993286 239.844465 
L 81.535029 274.544461 
L 82.076771 268.335146 
L 82.618513 250.813538 
L 83.160255 284.813537 
L 83.701997 151.296842 
L 84.785481 245.20775 
L 85.327223 271.918966 
L 85.868966 257.171179 
L 86.410708 279.672342 
L 86.95245 268.581877 
L 87.494192 287.480661 
L 88.035934 229.559702 
L 88.577676 265.480322 
L 89.119418 220.970439 
L 90.202902 254.194196 
L 90.744645 235.310427 
L 91.286387 275.584073 
L 91.828129 243.308396 
L 92.369871 264.77163 
L 92.911613 238.226325 
L 93.453355 273.820572 
L 93.995097 226.935597 
L 94.536839 243.327368 
L 95.078582 187.337428 
L 95.620324 170.73765 
L 96.162066 269.956768 
L 96.703808 263.51666 
L 97.24555 237.041779 
L 97.787292 242.687339 
L 98.329034 127.103984 
L 98.870776 286.224687 
L 99.412518 253.055355 
L 99.954261 203.489123 
L 100.496003 248.092148 
L 101.037745 282.583635 
L 102.121229 139.437013 
L 103.204713 278.767308 
L 103.746455 271.350749 
L 104.288197 274.288987 
L 104.82994 184.642517 
L 105.371682 259.169771 
L 105.913424 150.475814 
L 106.455166 196.952516 
L 106.996908 286.074992 
L 107.53865 234.987644 
L 108.080392 170.126841 
L 108.622134 273.158518 
L 109.163877 284.201062 
L 109.705619 267.623697 
L 110.247361 282.29705 
L 110.789103 257.388171 
L 111.330845 269.033799 
L 111.872587 258.87713 
L 112.414329 287.285937 
L 112.956071 282.896602 
L 113.497813 261.008916 
L 114.039556 244.29568 
L 114.581298 204.231252 
L 115.12304 239.002556 
L 115.664782 286.403733 
L 116.206524 267.695261 
L 116.748266 284.124198 
L 117.290008 214.237689 
L 117.83175 243.443263 
L 118.373493 196.180844 
L 118.915235 185.896454 
L 119.456977 284.686835 
L 119.998719 250.637595 
L 120.540461 285.765363 
L 121.082203 137.457689 
L 121.623945 268.856376 
L 122.165687 266.502444 
L 122.707429 270.172533 
L 123.249172 257.559111 
L 123.790914 118.963139 
L 124.332656 287.230617 
L 124.874398 196.806854 
L 125.41614 286.460067 
L 125.957882 281.509715 
L 126.499624 285.729729 
L 127.041366 287.257947 
L 127.583109 200.718161 
L 128.124851 202.010508 
L 128.666593 272.01586 
L 129.208335 166.569696 
L 129.750077 265.611046 
L 130.291819 277.295783 
L 130.833561 276.779281 
L 131.375303 277.629973 
L 131.917045 226.947095 
L 132.458788 284.556307 
L 133.00053 284.126428 
L 133.542272 247.110562 
L 134.084014 277.698094 
L 134.625756 250.965186 
L 135.167498 146.972648 
L 135.70924 152.769276 
L 136.250982 227.960911 
L 136.792725 265.908185 
L 137.334467 272.870685 
L 137.876209 237.177524 
L 138.417951 281.095647 
L 138.959693 228.401564 
L 139.501435 284.403017 
L 140.043177 151.343709 
L 140.584919 279.238984 
L 141.126661 242.056868 
L 141.668404 247.452984 
L 142.210146 276.344939 
L 142.751888 259.787876 
L 143.29363 256.146412 
L 143.835372 249.605501 
L 144.377114 267.162966 
L 144.918856 249.03248 
L 145.460598 244.627482 
L 146.00234 220.513671 
L 146.544083 215.999246 
L 147.085825 266.24362 
L 147.627567 287.150823 
L 148.169309 277.678755 
L 148.711051 144.362029 
L 149.252793 287.293825 
L 149.794535 236.678915 
L 150.336277 279.294805 
L 150.87802 250.411496 
L 151.419762 189.803362 
L 151.961504 232.802373 
L 152.503246 247.98857 
L 153.044988 233.946355 
L 153.58673 248.243426 
L 154.128472 285.963669 
L 154.670214 279.644827 
L 155.211956 250.748111 
L 155.753699 283.286512 
L 156.295441 210.269944 
L 156.837183 269.674839 
L 157.378925 135.224333 
L 157.920667 275.309071 
L 158.462409 207.636196 
L 159.004151 208.817692 
L 159.545893 284.209849 
L 160.087636 260.375355 
L 160.629378 208.65391 
L 161.17112 249.188967 
L 161.712862 225.850128 
L 162.254604 250.044787 
L 162.796346 228.511618 
L 163.338088 212.461548 
L 163.87983 176.326459 
L 164.421572 275.099174 
L 164.963315 76.615622 
L 165.505057 283.165552 
L 166.046799 264.549572 
L 166.588541 270.531158 
L 167.130283 259.200662 
L 167.672025 242.054625 
L 168.213767 239.588614 
L 168.755509 162.306011 
L 169.297252 278.181672 
L 169.838994 216.861189 
L 170.380736 267.007492 
L 170.922478 270.526159 
L 171.46422 127.47134 
L 172.005962 273.715282 
L 172.547704 232.87722 
L 173.089446 284.832907 
L 173.631188 164.347546 
L 174.172931 262.71945 
L 174.714673 251.375559 
L 175.256415 254.798289 
L 175.798157 275.392486 
L 176.339899 230.111337 
L 176.881641 265.621168 
L 177.423383 176.078025 
L 177.965125 287.01167 
L 178.506868 287.249015 
L 179.04861 199.837949 
L 179.590352 162.208174 
L 180.132094 243.790908 
L 180.673836 262.85256 
L 181.215578 264.076354 
L 181.75732 274.814325 
L 182.299062 218.470797 
L 182.840804 254.501359 
L 183.382547 253.144484 
L 183.924289 283.191193 
L 184.466031 287.103615 
L 185.007773 277.072678 
L 185.549515 120.247478 
L 186.091257 273.665778 
L 186.632999 93.008298 
L 187.174741 117.542983 
L 187.716483 286.295185 
L 188.258226 280.399749 
L 188.799968 285.809823 
L 189.883452 223.983797 
L 190.425194 283.764429 
L 190.966936 227.51135 
L 191.508678 269.297812 
L 192.05042 276.419207 
L 192.592163 206.610735 
L 193.133905 242.673016 
L 193.675647 191.407707 
L 194.217389 267.304182 
L 194.759131 251.183593 
L 195.300873 275.515812 
L 195.842615 261.79995 
L 196.384357 223.718147 
L 196.926099 284.343123 
L 197.467842 280.457636 
L 198.009584 264.8577 
L 198.551326 128.125378 
L 199.093068 267.068348 
L 199.63481 262.222799 
L 200.176552 278.841866 
L 200.718294 274.271623 
L 201.260036 245.759451 
L 201.801779 175.022771 
L 202.343521 280.264682 
L 202.885263 265.607277 
L 203.427005 99.409697 
L 203.968747 261.169315 
L 204.510489 203.93614 
L 205.052231 159.968754 
L 205.593973 282.371051 
L 206.135715 270.779297 
L 206.677458 225.806871 
L 207.2192 273.828464 
L 207.760942 230.698743 
L 208.302684 272.81663 
L 209.386168 200.079198 
L 209.92791 261.454558 
L 210.469652 256.973391 
L 211.011395 202.412719 
L 211.553137 279.910874 
L 212.094879 197.187315 
L 212.636621 283.803913 
L 213.178363 212.744442 
L 214.261847 282.065186 
L 214.803589 266.419702 
L 215.345331 235.866043 
L 215.887074 268.878777 
L 216.428816 277.641463 
L 216.970558 224.366999 
L 217.5123 243.027401 
L 218.054042 279.692168 
L 218.595784 277.231873 
L 219.137526 179.740872 
L 219.679268 214.41313 
L 220.22101 225.253356 
L 220.762753 231.936023 
L 221.304495 229.676565 
L 221.846237 264.797016 
L 222.387979 277.180744 
L 222.929721 239.594719 
L 223.471463 283.968706 
L 224.013205 211.196396 
L 224.554947 282.725773 
L 225.09669 280.095678 
L 225.638432 275.585867 
L 226.180174 286.418855 
L 226.721916 277.017113 
L 227.263658 194.692717 
L 227.8054 183.645585 
L 228.888884 264.280485 
L 229.430626 231.423337 
L 229.972369 266.209366 
L 230.514111 280.531334 
L 231.055853 287.015847 
L 231.597595 287.55172 
L 232.139337 282.66403 
L 232.681079 220.885582 
L 233.222821 241.980706 
L 233.764563 209.886975 
L 234.306306 242.801868 
L 234.848048 284.524648 
L 235.38979 189.033446 
L 236.473274 284.811944 
L 237.015016 269.55802 
L 237.556758 117.746269 
L 238.0985 244.202398 
L 238.640242 270.502519 
L 239.181985 270.332261 
L 239.723727 284.89824 
L 240.265469 282.942528 
L 240.807211 79.305159 
L 241.348953 271.731224 
L 241.890695 254.566553 
L 242.432437 286.387252 
L 242.974179 248.900757 
L 243.515922 284.837059 
L 244.057664 189.709413 
L 244.599406 221.563278 
L 245.141148 159.889622 
L 245.68289 264.206051 
L 246.224632 253.291951 
L 247.308116 279.460354 
L 247.849858 261.248548 
L 248.391601 131.102816 
L 248.933343 260.526088 
L 249.475085 231.428734 
L 250.016827 271.316756 
L 250.558569 249.131409 
L 251.100311 270.287623 
L 251.642053 233.610171 
L 252.183795 244.591593 
L 252.725538 282.009941 
L 253.26728 228.274342 
L 254.350764 242.450954 
L 254.892506 266.501183 
L 255.434248 210.577579 
L 255.97599 231.443577 
L 256.517732 283.72135 
L 257.059474 236.45568 
L 257.601217 229.647345 
L 258.142959 287.02501 
L 258.684701 240.571361 
L 259.226443 271.01552 
L 259.768185 178.676892 
L 260.309927 265.741206 
L 260.851669 234.561485 
L 261.393411 267.027973 
L 261.935153 282.889438 
L 262.476896 278.030836 
L 263.018638 234.405173 
L 263.56038 276.54115 
L 264.102122 271.15219 
L 264.643864 235.554377 
L 265.185606 284.644088 
L 265.727348 227.206228 
L 266.26909 216.946207 
L 266.810833 250.496733 
L 267.352575 256.628279 
L 267.894317 258.615244 
L 268.436059 281.478651 
L 268.977801 234.470995 
L 269.519543 274.769374 
L 270.061285 108.859211 
L 270.603027 272.989596 
L 271.144769 197.617411 
L 271.686512 273.892326 
L 272.228254 226.387976 
L 272.769996 266.903958 
L 273.311738 263.014506 
L 273.85348 213.02137 
L 274.395222 267.388036 
L 274.936964 219.039585 
L 275.478706 273.637106 
L 276.020449 87.640726 
L 276.562191 208.427951 
L 277.103933 267.726998 
L 277.645675 240.368393 
L 278.187417 276.575032 
L 278.729159 264.213701 
L 279.270901 265.669594 
L 279.812643 268.7881 
L 280.354385 221.060782 
L 280.896128 201.562094 
L 281.43787 253.714609 
L 281.979612 217.539741 
L 282.521354 238.259191 
L 283.063096 286.845912 
L 283.604838 259.255627 
L 284.14658 253.61697 
L 284.688322 234.104705 
L 285.230065 252.951689 
L 285.771807 283.720419 
L 286.313549 247.766661 
L 286.855291 265.720138 
L 287.397033 103.716747 
L 287.938775 236.556902 
L 288.480517 284.233299 
L 289.022259 282.848973 
L 289.564001 268.170647 
L 290.105744 280.50282 
L 290.647486 182.753916 
L 291.189228 243.958923 
L 291.73097 280.007148 
L 292.272712 254.278068 
L 292.814454 257.724995 
L 293.356196 196.176392 
L 293.897938 242.774704 
L 294.439681 251.215511 
L 295.523165 224.984557 
L 296.064907 221.361488 
L 296.606649 255.792878 
L 297.148391 278.975543 
L 297.690133 260.229187 
L 298.231875 277.887556 
L 298.773617 273.801741 
L 299.31536 250.678322 
L 299.857102 261.094344 
L 300.398844 267.375215 
L 300.940586 260.231091 
L 301.482328 122.910661 
L 302.02407 232.234445 
L 302.565812 264.095409 
L 303.107554 220.997823 
L 304.191039 281.479871 
L 304.732781 236.720824 
L 305.274523 225.055364 
L 305.816265 201.908364 
L 306.358007 203.272669 
L 306.899749 170.516484 
L 307.441491 287.396003 
L 308.524976 207.484623 
L 309.066718 202.947405 
L 309.60846 241.020389 
L 310.150202 72.11032 
L 310.691944 256.554425 
L 311.233686 278.357478 
L 311.775428 145.425148 
L 312.31717 268.233404 
L 312.858912 277.93927 
L 313.400655 239.697594 
L 313.942397 281.401737 
L 314.484139 272.649202 
L 315.025881 269.948912 
L 315.567623 282.728374 
L 316.109365 284.703068 
L 316.651107 164.782246 
L 317.192849 278.413899 
L 317.734592 287.478271 
L 318.276334 284.125321 
L 318.818076 206.801203 
L 319.359818 251.911746 
L 319.90156 258.72458 
L 320.443302 36.702723 
L 320.985044 268.053032 
L 321.526786 257.483239 
L 322.068528 216.065672 
L 322.610271 202.673397 
L 323.152013 179.163224 
L 323.693755 282.779916 
L 324.235497 184.246639 
L 324.777239 274.485859 
L 325.318981 123.193385 
L 325.860723 165.750486 
L 326.402465 224.465941 
L 327.48595 282.665369 
L 328.027692 221.58905 
L 328.569434 256.61523 
L 329.111176 218.329771 
L 329.652918 230.38044 
L 330.19466 261.116841 
L 330.736402 266.485566 
L 331.278144 241.256904 
L 331.819887 262.184124 
L 332.361629 204.095551 
L 332.903371 287.40187 
L 333.445113 286.456198 
L 333.986855 257.822623 
L 334.528597 181.45056 
L 335.070339 267.488552 
L 335.612081 284.018937 
L 336.695566 184.361298 
L 337.237308 205.832614 
L 337.77905 281.833001 
L 338.320792 278.37018 
L 338.862534 260.192031 
L 339.404276 232.956034 
L 339.946018 261.699652 
L 339.946018 261.699652 
" clip-path="url(#pea273c5db3)" style="fill: none; stroke: #d65f5f; stroke-width: 0.7; stroke-linecap: round"/>
   </g>
   <g id="patch_3">
    <path d="M 56.100236 301.32375 
L 56.100236 10.8 
" style="fill: none; stroke: #cccccc; stroke-width: 1.25; stroke-linejoin: miter; stroke-linecap: square"/>
   </g>
   <g id="patch_4">
    <path d="M 353.462484 301.32375 
L 353.462484 10.8 
" style="fill: none; stroke: #cccccc; stroke-width: 1.25; stroke-linejoin: miter; stroke-linecap: square"/>
   </g>
   <g id="patch_5">
    <path d="M 56.100236 301.32375 
L 353.462484 301.32375 
" style="fill: none; stroke: #cccccc; stroke-width: 1.25; stroke-linejoin: miter; stroke-linecap: square"/>
   </g>
   <g id="patch_6">
    <path d="M 56.100236 10.8 
L 353.462484 10.8 
" style="fill: none; stroke: #cccccc; stroke-width: 1.25; stroke-linejoin: miter; stroke-linecap: square"/>
   </g>
   <g id="legend_1">
    <g id="patch_7">
     <path d="M 361.162484 84.72 
L 447.292484 84.72 
Q 449.492484 84.72 449.492484 82.52 
L 449.492484 18.5 
Q 449.492484 16.3 447.292484 16.3 
L 361.162484 16.3 
Q 358.962484 16.3 358.962484 18.5 
L 358.962484 82.52 
Q 358.962484 84.72 361.162484 84.72 
z
" style="fill: #ffffff; opacity: 0.8; stroke: #cccccc; stroke-linejoin: miter"/>
    </g>
    <g id="line2d_16">
     <path d="M 363.362484 25.21 
L 374.362484 25.21 
L 385.362484 25.21 
" style="fill: none; stroke: #4878d0; stroke-width: 1.5; stroke-linecap: round"/>
    </g>
    <g id="text_14">
     <!-- pred_$x_{0}(t)$ -->
     <g style="fill: #262626" transform="translate(394.162484 29.06) scale(0.11 -0.11)">
      <defs>
       <path id="TimesNewRomanPSMT-70" d="M -6 2578 
L 875 2934 
L 994 2934 
L 994 2266 
Q 1216 2644 1439 2795 
Q 1663 2947 1909 2947 
Q 2341 2947 2628 2609 
Q 2981 2197 2981 1534 
Q 2981 794 2556 309 
Q 2206 -88 1675 -88 
Q 1444 -88 1275 -22 
Q 1150 25 994 166 
L 994 -706 
Q 994 -1000 1030 -1079 
Q 1066 -1159 1155 -1206 
Q 1244 -1253 1478 -1253 
L 1478 -1369 
L -22 -1369 
L -22 -1253 
L 56 -1253 
Q 228 -1256 350 -1188 
Q 409 -1153 442 -1076 
Q 475 -1000 475 -688 
L 475 2019 
Q 475 2297 450 2372 
Q 425 2447 370 2484 
Q 316 2522 222 2522 
Q 147 2522 31 2478 
L -6 2578 
z
M 994 2081 
L 994 1013 
Q 994 666 1022 556 
Q 1066 375 1236 237 
Q 1406 100 1666 100 
Q 1978 100 2172 344 
Q 2425 663 2425 1241 
Q 2425 1897 2138 2250 
Q 1938 2494 1663 2494 
Q 1513 2494 1366 2419 
Q 1253 2363 994 2081 
z
" transform="scale(0.015625)"/>
       <path id="TimesNewRomanPSMT-64" d="M 2222 322 
Q 2013 103 1813 7 
Q 1613 -88 1381 -88 
Q 913 -88 563 304 
Q 213 697 213 1313 
Q 213 1928 600 2439 
Q 988 2950 1597 2950 
Q 1975 2950 2222 2709 
L 2222 3238 
Q 2222 3728 2198 3840 
Q 2175 3953 2125 3993 
Q 2075 4034 2000 4034 
Q 1919 4034 1784 3984 
L 1744 4094 
L 2597 4444 
L 2738 4444 
L 2738 1134 
Q 2738 631 2761 520 
Q 2784 409 2836 365 
Q 2888 322 2956 322 
Q 3041 322 3181 375 
L 3216 266 
L 2366 -88 
L 2222 -88 
L 2222 322 
z
M 2222 541 
L 2222 2016 
Q 2203 2228 2109 2403 
Q 2016 2578 1861 2667 
Q 1706 2756 1559 2756 
Q 1284 2756 1069 2509 
Q 784 2184 784 1559 
Q 784 928 1059 592 
Q 1334 256 1672 256 
Q 1956 256 2222 541 
z
" transform="scale(0.015625)"/>
       <path id="TimesNewRomanPSMT-5f" d="M 3256 -1381 
L -53 -1381 
L -53 -1119 
L 3256 -1119 
L 3256 -1381 
z
" transform="scale(0.015625)"/>
       <path id="DejaVuSans-Oblique-78" d="M 3841 3500 
L 2234 1784 
L 3219 0 
L 2559 0 
L 1819 1388 
L 531 0 
L -166 0 
L 1556 1844 
L 641 3500 
L 1300 3500 
L 1972 2234 
L 3144 3500 
L 3841 3500 
z
" transform="scale(0.015625)"/>
       <path id="DejaVuSans-30" d="M 2034 4250 
Q 1547 4250 1301 3770 
Q 1056 3291 1056 2328 
Q 1056 1369 1301 889 
Q 1547 409 2034 409 
Q 2525 409 2770 889 
Q 3016 1369 3016 2328 
Q 3016 3291 2770 3770 
Q 2525 4250 2034 4250 
z
M 2034 4750 
Q 2819 4750 3233 4129 
Q 3647 3509 3647 2328 
Q 3647 1150 3233 529 
Q 2819 -91 2034 -91 
Q 1250 -91 836 529 
Q 422 1150 422 2328 
Q 422 3509 836 4129 
Q 1250 4750 2034 4750 
z
" transform="scale(0.015625)"/>
      </defs>
      <use xlink:href="#TimesNewRomanPSMT-70" transform="translate(0 0.125)"/>
      <use xlink:href="#TimesNewRomanPSMT-72" transform="translate(50 0.125)"/>
      <use xlink:href="#TimesNewRomanPSMT-65" transform="translate(83.300781 0.125)"/>
      <use xlink:href="#TimesNewRomanPSMT-64" transform="translate(127.685547 0.125)"/>
      <use xlink:href="#TimesNewRomanPSMT-5f" transform="translate(177.685547 0.125)"/>
      <use xlink:href="#DejaVuSans-Oblique-78" transform="translate(227.685547 0.125)"/>
      <use xlink:href="#DejaVuSans-30" transform="translate(286.865234 -16.28125) scale(0.7)"/>
      <use xlink:href="#DejaVuSans-28" transform="translate(334.135742 0.125)"/>
      <use xlink:href="#DejaVuSans-Oblique-74" transform="translate(373.149414 0.125)"/>
      <use xlink:href="#DejaVuSans-29" transform="translate(412.358398 0.125)"/>
     </g>
    </g>
    <g id="line2d_17">
     <path d="M 363.362484 41.49 
L 374.362484 41.49 
L 385.362484 41.49 
" style="fill: none; stroke: #ee854a; stroke-width: 0.7; stroke-linecap: round"/>
    </g>
    <g id="text_15">
     <!-- truth_$x_{0}(t)$ -->
     <g style="fill: #262626" transform="translate(394.162484 45.34) scale(0.11 -0.11)">
      <defs>
       <path id="TimesNewRomanPSMT-68" d="M 1041 4444 
L 1041 2350 
Q 1388 2731 1591 2839 
Q 1794 2947 1997 2947 
Q 2241 2947 2416 2812 
Q 2591 2678 2675 2391 
Q 2734 2191 2734 1659 
L 2734 647 
Q 2734 375 2778 275 
Q 2809 200 2884 156 
Q 2959 113 3159 113 
L 3159 0 
L 1753 0 
L 1753 113 
L 1819 113 
Q 2019 113 2097 173 
Q 2175 234 2206 353 
Q 2216 403 2216 647 
L 2216 1659 
Q 2216 2128 2167 2275 
Q 2119 2422 2012 2495 
Q 1906 2569 1756 2569 
Q 1603 2569 1437 2487 
Q 1272 2406 1041 2159 
L 1041 647 
Q 1041 353 1073 281 
Q 1106 209 1195 161 
Q 1284 113 1503 113 
L 1503 0 
L 84 0 
L 84 113 
Q 275 113 384 172 
Q 447 203 484 290 
Q 522 378 522 647 
L 522 3238 
Q 522 3728 498 3840 
Q 475 3953 426 3993 
Q 378 4034 297 4034 
Q 231 4034 84 3984 
L 41 4094 
L 897 4444 
L 1041 4444 
z
" transform="scale(0.015625)"/>
      </defs>
      <use xlink:href="#TimesNewRomanPSMT-74" transform="translate(0 0.125)"/>
      <use xlink:href="#TimesNewRomanPSMT-72" transform="translate(27.783203 0.125)"/>
      <use xlink:href="#TimesNewRomanPSMT-75" transform="translate(61.083984 0.125)"/>
      <use xlink:href="#TimesNewRomanPSMT-74" transform="translate(111.083984 0.125)"/>
      <use xlink:href="#TimesNewRomanPSMT-68" transform="translate(138.867188 0.125)"/>
      <use xlink:href="#TimesNewRomanPSMT-5f" transform="translate(188.867188 0.125)"/>
      <use xlink:href="#DejaVuSans-Oblique-78" transform="translate(238.867188 0.125)"/>
      <use xlink:href="#DejaVuSans-30" transform="translate(298.046875 -16.28125) scale(0.7)"/>
      <use xlink:href="#DejaVuSans-28" transform="translate(345.317383 0.125)"/>
      <use xlink:href="#DejaVuSans-Oblique-74" transform="translate(384.331055 0.125)"/>
      <use xlink:href="#DejaVuSans-29" transform="translate(423.540039 0.125)"/>
     </g>
    </g>
    <g id="line2d_18">
     <path d="M 363.362484 57.77 
L 374.362484 57.77 
L 385.362484 57.77 
" style="fill: none; stroke: #6acc64; stroke-width: 1.5; stroke-linecap: round"/>
    </g>
    <g id="text_16">
     <!-- pred_$x_{1}(t)$ -->
     <g style="fill: #262626" transform="translate(394.162484 61.62) scale(0.11 -0.11)">
      <defs>
       <path id="DejaVuSans-31" d="M 794 531 
L 1825 531 
L 1825 4091 
L 703 3866 
L 703 4441 
L 1819 4666 
L 2450 4666 
L 2450 531 
L 3481 531 
L 3481 0 
L 794 0 
L 794 531 
z
" transform="scale(0.015625)"/>
      </defs>
      <use xlink:href="#TimesNewRomanPSMT-70" transform="translate(0 0.125)"/>
      <use xlink:href="#TimesNewRomanPSMT-72" transform="translate(50 0.125)"/>
      <use xlink:href="#TimesNewRomanPSMT-65" transform="translate(83.300781 0.125)"/>
      <use xlink:href="#TimesNewRomanPSMT-64" transform="translate(127.685547 0.125)"/>
      <use xlink:href="#TimesNewRomanPSMT-5f" transform="translate(177.685547 0.125)"/>
      <use xlink:href="#DejaVuSans-Oblique-78" transform="translate(227.685547 0.125)"/>
      <use xlink:href="#DejaVuSans-31" transform="translate(286.865234 -16.28125) scale(0.7)"/>
      <use xlink:href="#DejaVuSans-28" transform="translate(334.135742 0.125)"/>
      <use xlink:href="#DejaVuSans-Oblique-74" transform="translate(373.149414 0.125)"/>
      <use xlink:href="#DejaVuSans-29" transform="translate(412.358398 0.125)"/>
     </g>
    </g>
    <g id="line2d_19">
     <path d="M 363.362484 74.05 
L 374.362484 74.05 
L 385.362484 74.05 
" style="fill: none; stroke: #d65f5f; stroke-width: 0.7; stroke-linecap: round"/>
    </g>
    <g id="text_17">
     <!-- truth_$x_{1}(t)$ -->
     <g style="fill: #262626" transform="translate(394.162484 77.9) scale(0.11 -0.11)">
      <use xlink:href="#TimesNewRomanPSMT-74" transform="translate(0 0.125)"/>
      <use xlink:href="#TimesNewRomanPSMT-72" transform="translate(27.783203 0.125)"/>
      <use xlink:href="#TimesNewRomanPSMT-75" transform="translate(61.083984 0.125)"/>
      <use xlink:href="#TimesNewRomanPSMT-74" transform="translate(111.083984 0.125)"/>
      <use xlink:href="#TimesNewRomanPSMT-68" transform="translate(138.867188 0.125)"/>
      <use xlink:href="#TimesNewRomanPSMT-5f" transform="translate(188.867188 0.125)"/>
      <use xlink:href="#DejaVuSans-Oblique-78" transform="translate(238.867188 0.125)"/>
      <use xlink:href="#DejaVuSans-31" transform="translate(298.046875 -16.28125) scale(0.7)"/>
      <use xlink:href="#DejaVuSans-28" transform="translate(345.317383 0.125)"/>
      <use xlink:href="#DejaVuSans-Oblique-74" transform="translate(384.331055 0.125)"/>
      <use xlink:href="#DejaVuSans-29" transform="translate(423.540039 0.125)"/>
     </g>
    </g>
   </g>
  </g>
 </g>
 <defs>
  <clipPath id="pea273c5db3">
   <rect x="56.100236" y="10.8" width="297.362248" height="290.52375"/>
  </clipPath>
 </defs>
</svg>
