<?xml version="1.0" encoding="utf-8" standalone="no"?>
<!DOCTYPE svg PUBLIC "-//W3C//DTD SVG 1.1//EN"
  "http://www.w3.org/Graphics/SVG/1.1/DTD/svg11.dtd">
<svg xmlns:xlink="http://www.w3.org/1999/xlink" width="576pt" height="432pt" viewBox="0 0 576 432" xmlns="http://www.w3.org/2000/svg" version="1.1">
 <metadata>
  <rdf:RDF xmlns:dc="http://purl.org/dc/elements/1.1/" xmlns:cc="http://creativecommons.org/ns#" xmlns:rdf="http://www.w3.org/1999/02/22-rdf-syntax-ns#">
   <cc:Work>
    <dc:type rdf:resource="http://purl.org/dc/dcmitype/StillImage"/>
    <dc:date>2023-09-30T23:12:33.901138</dc:date>
    <dc:format>image/svg+xml</dc:format>
    <dc:creator>
     <cc:Agent>
      <dc:title>Matplotlib v3.7.1, https://matplotlib.org/</dc:title>
     </cc:Agent>
    </dc:creator>
   </cc:Work>
  </rdf:RDF>
 </metadata>
 <defs>
  <style type="text/css">*{stroke-linejoin: round; stroke-linecap: butt}</style>
 </defs>
 <g id="figure_1">
  <g id="patch_1">
   <path d="M 0 432 
L 576 432 
L 576 0 
L 0 0 
z
" style="fill: #ffffff"/>
  </g>
  <g id="axes_1">
   <g id="patch_2">
    <path d="M 52.834219 384.291562 
L 555.54 384.291562 
L 555.54 12.96 
L 52.834219 12.96 
z
" style="fill: #ffffff"/>
   </g>
   <g id="matplotlib.axis_1">
    <g id="xtick_1">
     <g id="line2d_1">
      <path d="M 52.834219 384.291562 
L 52.834219 12.96 
" clip-path="url(#p43b0717c8f)" style="fill: none; stroke: #cccccc; stroke-linecap: round"/>
     </g>
     <g id="text_1">
      <!-- 0 -->
      <g style="fill: #262626" transform="translate(49.084219 398.207187) scale(0.15 -0.15)">
       <defs>
        <path id="TimesNewRomanPSMT-30" d="M 231 2094 
Q 231 2819 450 3342 
Q 669 3866 1031 4122 
Q 1313 4325 1613 4325 
Q 2100 4325 2488 3828 
Q 2972 3213 2972 2159 
Q 2972 1422 2759 906 
Q 2547 391 2217 158 
Q 1888 -75 1581 -75 
Q 975 -75 572 641 
Q 231 1244 231 2094 
z
M 844 2016 
Q 844 1141 1059 588 
Q 1238 122 1591 122 
Q 1759 122 1940 273 
Q 2122 425 2216 781 
Q 2359 1319 2359 2297 
Q 2359 3022 2209 3506 
Q 2097 3866 1919 4016 
Q 1791 4119 1609 4119 
Q 1397 4119 1231 3928 
Q 1006 3669 925 3112 
Q 844 2556 844 2016 
z
" transform="scale(0.015625)"/>
       </defs>
       <use xlink:href="#TimesNewRomanPSMT-30"/>
      </g>
     </g>
    </g>
    <g id="xtick_2">
     <g id="line2d_2">
      <path d="M 103.104797 384.291562 
L 103.104797 12.96 
" clip-path="url(#p43b0717c8f)" style="fill: none; stroke: #cccccc; stroke-linecap: round"/>
     </g>
     <g id="text_2">
      <!-- 5 -->
      <g style="fill: #262626" transform="translate(99.354797 398.207187) scale(0.15 -0.15)">
       <defs>
        <path id="TimesNewRomanPSMT-35" d="M 2778 4238 
L 2534 3706 
L 1259 3706 
L 981 3138 
Q 1809 3016 2294 2522 
Q 2709 2097 2709 1522 
Q 2709 1188 2573 903 
Q 2438 619 2231 419 
Q 2025 219 1772 97 
Q 1413 -75 1034 -75 
Q 653 -75 479 54 
Q 306 184 306 341 
Q 306 428 378 495 
Q 450 563 559 563 
Q 641 563 702 538 
Q 763 513 909 409 
Q 1144 247 1384 247 
Q 1750 247 2026 523 
Q 2303 800 2303 1197 
Q 2303 1581 2056 1914 
Q 1809 2247 1375 2428 
Q 1034 2569 447 2591 
L 1259 4238 
L 2778 4238 
z
" transform="scale(0.015625)"/>
       </defs>
       <use xlink:href="#TimesNewRomanPSMT-35"/>
      </g>
     </g>
    </g>
    <g id="xtick_3">
     <g id="line2d_3">
      <path d="M 153.375375 384.291562 
L 153.375375 12.96 
" clip-path="url(#p43b0717c8f)" style="fill: none; stroke: #cccccc; stroke-linecap: round"/>
     </g>
     <g id="text_3">
      <!-- 10 -->
      <g style="fill: #262626" transform="translate(145.875375 398.207187) scale(0.15 -0.15)">
       <defs>
        <path id="TimesNewRomanPSMT-31" d="M 750 3822 
L 1781 4325 
L 1884 4325 
L 1884 747 
Q 1884 391 1914 303 
Q 1944 216 2037 169 
Q 2131 122 2419 116 
L 2419 0 
L 825 0 
L 825 116 
Q 1125 122 1212 167 
Q 1300 213 1334 289 
Q 1369 366 1369 747 
L 1369 3034 
Q 1369 3497 1338 3628 
Q 1316 3728 1258 3775 
Q 1200 3822 1119 3822 
Q 1003 3822 797 3725 
L 750 3822 
z
" transform="scale(0.015625)"/>
       </defs>
       <use xlink:href="#TimesNewRomanPSMT-31"/>
       <use xlink:href="#TimesNewRomanPSMT-30" x="50"/>
      </g>
     </g>
    </g>
    <g id="xtick_4">
     <g id="line2d_4">
      <path d="M 203.645953 384.291562 
L 203.645953 12.96 
" clip-path="url(#p43b0717c8f)" style="fill: none; stroke: #cccccc; stroke-linecap: round"/>
     </g>
     <g id="text_4">
      <!-- 15 -->
      <g style="fill: #262626" transform="translate(196.145953 398.207187) scale(0.15 -0.15)">
       <use xlink:href="#TimesNewRomanPSMT-31"/>
       <use xlink:href="#TimesNewRomanPSMT-35" x="50"/>
      </g>
     </g>
    </g>
    <g id="xtick_5">
     <g id="line2d_5">
      <path d="M 253.916531 384.291562 
L 253.916531 12.96 
" clip-path="url(#p43b0717c8f)" style="fill: none; stroke: #cccccc; stroke-linecap: round"/>
     </g>
     <g id="text_5">
      <!-- 20 -->
      <g style="fill: #262626" transform="translate(246.416531 398.207187) scale(0.15 -0.15)">
       <defs>
        <path id="TimesNewRomanPSMT-32" d="M 2934 816 
L 2638 0 
L 138 0 
L 138 116 
Q 1241 1122 1691 1759 
Q 2141 2397 2141 2925 
Q 2141 3328 1894 3587 
Q 1647 3847 1303 3847 
Q 991 3847 742 3664 
Q 494 3481 375 3128 
L 259 3128 
Q 338 3706 661 4015 
Q 984 4325 1469 4325 
Q 1984 4325 2329 3994 
Q 2675 3663 2675 3213 
Q 2675 2891 2525 2569 
Q 2294 2063 1775 1497 
Q 997 647 803 472 
L 1909 472 
Q 2247 472 2383 497 
Q 2519 522 2628 598 
Q 2738 675 2819 816 
L 2934 816 
z
" transform="scale(0.015625)"/>
       </defs>
       <use xlink:href="#TimesNewRomanPSMT-32"/>
       <use xlink:href="#TimesNewRomanPSMT-30" x="50"/>
      </g>
     </g>
    </g>
    <g id="xtick_6">
     <g id="line2d_6">
      <path d="M 304.187109 384.291562 
L 304.187109 12.96 
" clip-path="url(#p43b0717c8f)" style="fill: none; stroke: #cccccc; stroke-linecap: round"/>
     </g>
     <g id="text_6">
      <!-- 25 -->
      <g style="fill: #262626" transform="translate(296.687109 398.207187) scale(0.15 -0.15)">
       <use xlink:href="#TimesNewRomanPSMT-32"/>
       <use xlink:href="#TimesNewRomanPSMT-35" x="50"/>
      </g>
     </g>
    </g>
    <g id="xtick_7">
     <g id="line2d_7">
      <path d="M 354.457688 384.291562 
L 354.457688 12.96 
" clip-path="url(#p43b0717c8f)" style="fill: none; stroke: #cccccc; stroke-linecap: round"/>
     </g>
     <g id="text_7">
      <!-- 30 -->
      <g style="fill: #262626" transform="translate(346.957688 398.207187) scale(0.15 -0.15)">
       <defs>
        <path id="TimesNewRomanPSMT-33" d="M 325 3431 
Q 506 3859 782 4092 
Q 1059 4325 1472 4325 
Q 1981 4325 2253 3994 
Q 2459 3747 2459 3466 
Q 2459 3003 1878 2509 
Q 2269 2356 2469 2072 
Q 2669 1788 2669 1403 
Q 2669 853 2319 450 
Q 1863 -75 997 -75 
Q 569 -75 414 31 
Q 259 138 259 259 
Q 259 350 332 419 
Q 406 488 509 488 
Q 588 488 669 463 
Q 722 447 909 348 
Q 1097 250 1169 231 
Q 1284 197 1416 197 
Q 1734 197 1970 444 
Q 2206 691 2206 1028 
Q 2206 1275 2097 1509 
Q 2016 1684 1919 1775 
Q 1784 1900 1550 2001 
Q 1316 2103 1072 2103 
L 972 2103 
L 972 2197 
Q 1219 2228 1467 2375 
Q 1716 2522 1828 2728 
Q 1941 2934 1941 3181 
Q 1941 3503 1739 3701 
Q 1538 3900 1238 3900 
Q 753 3900 428 3381 
L 325 3431 
z
" transform="scale(0.015625)"/>
       </defs>
       <use xlink:href="#TimesNewRomanPSMT-33"/>
       <use xlink:href="#TimesNewRomanPSMT-30" x="50"/>
      </g>
     </g>
    </g>
    <g id="xtick_8">
     <g id="line2d_8">
      <path d="M 404.728266 384.291562 
L 404.728266 12.96 
" clip-path="url(#p43b0717c8f)" style="fill: none; stroke: #cccccc; stroke-linecap: round"/>
     </g>
     <g id="text_8">
      <!-- 35 -->
      <g style="fill: #262626" transform="translate(397.228266 398.207187) scale(0.15 -0.15)">
       <use xlink:href="#TimesNewRomanPSMT-33"/>
       <use xlink:href="#TimesNewRomanPSMT-35" x="50"/>
      </g>
     </g>
    </g>
    <g id="xtick_9">
     <g id="line2d_9">
      <path d="M 454.998844 384.291562 
L 454.998844 12.96 
" clip-path="url(#p43b0717c8f)" style="fill: none; stroke: #cccccc; stroke-linecap: round"/>
     </g>
     <g id="text_9">
      <!-- 40 -->
      <g style="fill: #262626" transform="translate(447.498844 398.207187) scale(0.15 -0.15)">
       <defs>
        <path id="TimesNewRomanPSMT-34" d="M 2978 1563 
L 2978 1119 
L 2409 1119 
L 2409 0 
L 1894 0 
L 1894 1119 
L 100 1119 
L 100 1519 
L 2066 4325 
L 2409 4325 
L 2409 1563 
L 2978 1563 
z
M 1894 1563 
L 1894 3666 
L 406 1563 
L 1894 1563 
z
" transform="scale(0.015625)"/>
       </defs>
       <use xlink:href="#TimesNewRomanPSMT-34"/>
       <use xlink:href="#TimesNewRomanPSMT-30" x="50"/>
      </g>
     </g>
    </g>
    <g id="xtick_10">
     <g id="line2d_10">
      <path d="M 505.269422 384.291562 
L 505.269422 12.96 
" clip-path="url(#p43b0717c8f)" style="fill: none; stroke: #cccccc; stroke-linecap: round"/>
     </g>
     <g id="text_10">
      <!-- 45 -->
      <g style="fill: #262626" transform="translate(497.769422 398.207187) scale(0.15 -0.15)">
       <use xlink:href="#TimesNewRomanPSMT-34"/>
       <use xlink:href="#TimesNewRomanPSMT-35" x="50"/>
      </g>
     </g>
    </g>
    <g id="xtick_11">
     <g id="line2d_11">
      <path d="M 555.54 384.291562 
L 555.54 12.96 
" clip-path="url(#p43b0717c8f)" style="fill: none; stroke: #cccccc; stroke-linecap: round"/>
     </g>
     <g id="text_11">
      <!-- 50 -->
      <g style="fill: #262626" transform="translate(548.04 398.207187) scale(0.15 -0.15)">
       <use xlink:href="#TimesNewRomanPSMT-35"/>
       <use xlink:href="#TimesNewRomanPSMT-30" x="50"/>
      </g>
     </g>
    </g>
    <g id="text_12">
     <!-- Number of variables -->
     <g style="fill: #262626" transform="translate(242.541797 415.831406) scale(0.15 -0.15)">
      <defs>
       <path id="TimesNewRomanPSMT-4e" d="M -84 4238 
L 1066 4238 
L 3656 1059 
L 3656 3503 
Q 3656 3894 3569 3991 
Q 3453 4122 3203 4122 
L 3056 4122 
L 3056 4238 
L 4531 4238 
L 4531 4122 
L 4381 4122 
Q 4113 4122 4000 3959 
Q 3931 3859 3931 3503 
L 3931 -69 
L 3819 -69 
L 1025 3344 
L 1025 734 
Q 1025 344 1109 247 
Q 1228 116 1475 116 
L 1625 116 
L 1625 0 
L 150 0 
L 150 116 
L 297 116 
Q 569 116 681 278 
Q 750 378 750 734 
L 750 3681 
Q 566 3897 470 3965 
Q 375 4034 191 4094 
Q 100 4122 -84 4122 
L -84 4238 
z
" transform="scale(0.015625)"/>
       <path id="TimesNewRomanPSMT-75" d="M 2709 2863 
L 2709 1128 
Q 2709 631 2732 520 
Q 2756 409 2807 365 
Q 2859 322 2928 322 
Q 3025 322 3147 375 
L 3191 266 
L 2334 -88 
L 2194 -88 
L 2194 519 
Q 1825 119 1631 15 
Q 1438 -88 1222 -88 
Q 981 -88 804 51 
Q 628 191 559 409 
Q 491 628 491 1028 
L 491 2306 
Q 491 2509 447 2587 
Q 403 2666 317 2708 
Q 231 2750 6 2747 
L 6 2863 
L 1009 2863 
L 1009 947 
Q 1009 547 1148 422 
Q 1288 297 1484 297 
Q 1619 297 1789 381 
Q 1959 466 2194 703 
L 2194 2325 
Q 2194 2569 2105 2655 
Q 2016 2741 1734 2747 
L 1734 2863 
L 2709 2863 
z
" transform="scale(0.015625)"/>
       <path id="TimesNewRomanPSMT-6d" d="M 1050 2338 
Q 1363 2650 1419 2697 
Q 1559 2816 1721 2881 
Q 1884 2947 2044 2947 
Q 2313 2947 2506 2790 
Q 2700 2634 2766 2338 
Q 3088 2713 3309 2830 
Q 3531 2947 3766 2947 
Q 3994 2947 4170 2830 
Q 4347 2713 4450 2447 
Q 4519 2266 4519 1878 
L 4519 647 
Q 4519 378 4559 278 
Q 4591 209 4675 161 
Q 4759 113 4950 113 
L 4950 0 
L 3538 0 
L 3538 113 
L 3597 113 
Q 3781 113 3884 184 
Q 3956 234 3988 344 
Q 4000 397 4000 647 
L 4000 1878 
Q 4000 2228 3916 2372 
Q 3794 2572 3525 2572 
Q 3359 2572 3192 2489 
Q 3025 2406 2788 2181 
L 2781 2147 
L 2788 2013 
L 2788 647 
Q 2788 353 2820 281 
Q 2853 209 2943 161 
Q 3034 113 3253 113 
L 3253 0 
L 1806 0 
L 1806 113 
Q 2044 113 2133 169 
Q 2222 225 2256 338 
Q 2272 391 2272 647 
L 2272 1878 
Q 2272 2228 2169 2381 
Q 2031 2581 1784 2581 
Q 1616 2581 1450 2491 
Q 1191 2353 1050 2181 
L 1050 647 
Q 1050 366 1089 281 
Q 1128 197 1204 155 
Q 1281 113 1516 113 
L 1516 0 
L 100 0 
L 100 113 
Q 297 113 375 155 
Q 453 197 493 289 
Q 534 381 534 647 
L 534 1741 
Q 534 2213 506 2350 
Q 484 2453 437 2492 
Q 391 2531 309 2531 
Q 222 2531 100 2484 
L 53 2597 
L 916 2947 
L 1050 2947 
L 1050 2338 
z
" transform="scale(0.015625)"/>
       <path id="TimesNewRomanPSMT-62" d="M 984 2369 
Q 1400 2947 1881 2947 
Q 2322 2947 2650 2570 
Q 2978 2194 2978 1541 
Q 2978 778 2472 313 
Q 2038 -88 1503 -88 
Q 1253 -88 995 3 
Q 738 94 469 275 
L 469 3241 
Q 469 3728 445 3840 
Q 422 3953 372 3993 
Q 322 4034 247 4034 
Q 159 4034 28 3984 
L -16 4094 
L 844 4444 
L 984 4444 
L 984 2369 
z
M 984 2169 
L 984 456 
Q 1144 300 1314 220 
Q 1484 141 1663 141 
Q 1947 141 2192 453 
Q 2438 766 2438 1363 
Q 2438 1913 2192 2208 
Q 1947 2503 1634 2503 
Q 1469 2503 1303 2419 
Q 1178 2356 984 2169 
z
" transform="scale(0.015625)"/>
       <path id="TimesNewRomanPSMT-65" d="M 681 1784 
Q 678 1147 991 784 
Q 1303 422 1725 422 
Q 2006 422 2214 576 
Q 2422 731 2563 1106 
L 2659 1044 
Q 2594 616 2278 264 
Q 1963 -88 1488 -88 
Q 972 -88 605 314 
Q 238 716 238 1394 
Q 238 2128 614 2539 
Q 991 2950 1559 2950 
Q 2041 2950 2350 2633 
Q 2659 2316 2659 1784 
L 681 1784 
z
M 681 1966 
L 2006 1966 
Q 1991 2241 1941 2353 
Q 1863 2528 1708 2628 
Q 1553 2728 1384 2728 
Q 1125 2728 920 2526 
Q 716 2325 681 1966 
z
" transform="scale(0.015625)"/>
       <path id="TimesNewRomanPSMT-72" d="M 1038 2947 
L 1038 2303 
Q 1397 2947 1775 2947 
Q 1947 2947 2059 2842 
Q 2172 2738 2172 2600 
Q 2172 2478 2090 2393 
Q 2009 2309 1897 2309 
Q 1788 2309 1652 2417 
Q 1516 2525 1450 2525 
Q 1394 2525 1328 2463 
Q 1188 2334 1038 2041 
L 1038 669 
Q 1038 431 1097 309 
Q 1138 225 1241 169 
Q 1344 113 1538 113 
L 1538 0 
L 72 0 
L 72 113 
Q 291 113 397 181 
Q 475 231 506 341 
Q 522 394 522 644 
L 522 1753 
Q 522 2253 501 2348 
Q 481 2444 426 2487 
Q 372 2531 291 2531 
Q 194 2531 72 2484 
L 41 2597 
L 906 2947 
L 1038 2947 
z
" transform="scale(0.015625)"/>
       <path id="TimesNewRomanPSMT-20" transform="scale(0.015625)"/>
       <path id="TimesNewRomanPSMT-6f" d="M 1600 2947 
Q 2250 2947 2644 2453 
Q 2978 2031 2978 1484 
Q 2978 1100 2793 706 
Q 2609 313 2286 112 
Q 1963 -88 1566 -88 
Q 919 -88 538 428 
Q 216 863 216 1403 
Q 216 1797 411 2186 
Q 606 2575 925 2761 
Q 1244 2947 1600 2947 
z
M 1503 2744 
Q 1338 2744 1170 2645 
Q 1003 2547 900 2300 
Q 797 2053 797 1666 
Q 797 1041 1045 587 
Q 1294 134 1700 134 
Q 2003 134 2200 384 
Q 2397 634 2397 1244 
Q 2397 2006 2069 2444 
Q 1847 2744 1503 2744 
z
" transform="scale(0.015625)"/>
       <path id="TimesNewRomanPSMT-66" d="M 1319 2638 
L 1319 756 
Q 1319 356 1406 250 
Q 1522 113 1716 113 
L 1975 113 
L 1975 0 
L 266 0 
L 266 113 
L 394 113 
Q 519 113 622 175 
Q 725 238 764 344 
Q 803 450 803 756 
L 803 2638 
L 247 2638 
L 247 2863 
L 803 2863 
L 803 3050 
Q 803 3478 940 3775 
Q 1078 4072 1361 4255 
Q 1644 4438 1997 4438 
Q 2325 4438 2600 4225 
Q 2781 4084 2781 3909 
Q 2781 3816 2700 3733 
Q 2619 3650 2525 3650 
Q 2453 3650 2373 3701 
Q 2294 3753 2178 3923 
Q 2063 4094 1966 4153 
Q 1869 4213 1750 4213 
Q 1606 4213 1506 4136 
Q 1406 4059 1362 3898 
Q 1319 3738 1319 3069 
L 1319 2863 
L 2056 2863 
L 2056 2638 
L 1319 2638 
z
" transform="scale(0.015625)"/>
       <path id="TimesNewRomanPSMT-76" d="M 53 2863 
L 1400 2863 
L 1400 2747 
L 1313 2747 
Q 1191 2747 1127 2687 
Q 1063 2628 1063 2528 
Q 1063 2419 1128 2269 
L 1794 688 
L 2463 2328 
Q 2534 2503 2534 2594 
Q 2534 2638 2509 2666 
Q 2475 2713 2422 2730 
Q 2369 2747 2206 2747 
L 2206 2863 
L 3141 2863 
L 3141 2747 
Q 2978 2734 2916 2681 
Q 2806 2588 2719 2369 
L 1703 -88 
L 1575 -88 
L 553 2328 
Q 484 2497 421 2570 
Q 359 2644 263 2694 
Q 209 2722 53 2747 
L 53 2863 
z
" transform="scale(0.015625)"/>
       <path id="TimesNewRomanPSMT-61" d="M 1822 413 
Q 1381 72 1269 19 
Q 1100 -59 909 -59 
Q 613 -59 420 144 
Q 228 347 228 678 
Q 228 888 322 1041 
Q 450 1253 767 1440 
Q 1084 1628 1822 1897 
L 1822 2009 
Q 1822 2438 1686 2597 
Q 1550 2756 1291 2756 
Q 1094 2756 978 2650 
Q 859 2544 859 2406 
L 866 2225 
Q 866 2081 792 2003 
Q 719 1925 600 1925 
Q 484 1925 411 2006 
Q 338 2088 338 2228 
Q 338 2497 613 2722 
Q 888 2947 1384 2947 
Q 1766 2947 2009 2819 
Q 2194 2722 2281 2516 
Q 2338 2381 2338 1966 
L 2338 994 
Q 2338 584 2353 492 
Q 2369 400 2405 369 
Q 2441 338 2488 338 
Q 2538 338 2575 359 
Q 2641 400 2828 588 
L 2828 413 
Q 2478 -56 2159 -56 
Q 2006 -56 1915 50 
Q 1825 156 1822 413 
z
M 1822 616 
L 1822 1706 
Q 1350 1519 1213 1441 
Q 966 1303 859 1153 
Q 753 1003 753 825 
Q 753 600 887 451 
Q 1022 303 1197 303 
Q 1434 303 1822 616 
z
" transform="scale(0.015625)"/>
       <path id="TimesNewRomanPSMT-69" d="M 928 4444 
Q 1059 4444 1151 4351 
Q 1244 4259 1244 4128 
Q 1244 3997 1151 3903 
Q 1059 3809 928 3809 
Q 797 3809 703 3903 
Q 609 3997 609 4128 
Q 609 4259 701 4351 
Q 794 4444 928 4444 
z
M 1188 2947 
L 1188 647 
Q 1188 378 1227 289 
Q 1266 200 1342 156 
Q 1419 113 1622 113 
L 1622 0 
L 231 0 
L 231 113 
Q 441 113 512 153 
Q 584 194 626 287 
Q 669 381 669 647 
L 669 1750 
Q 669 2216 641 2353 
Q 619 2453 572 2492 
Q 525 2531 444 2531 
Q 356 2531 231 2484 
L 188 2597 
L 1050 2947 
L 1188 2947 
z
" transform="scale(0.015625)"/>
       <path id="TimesNewRomanPSMT-6c" d="M 1184 4444 
L 1184 647 
Q 1184 378 1223 290 
Q 1263 203 1344 158 
Q 1425 113 1647 113 
L 1647 0 
L 244 0 
L 244 113 
Q 441 113 512 153 
Q 584 194 625 287 
Q 666 381 666 647 
L 666 3247 
Q 666 3731 644 3842 
Q 622 3953 573 3993 
Q 525 4034 450 4034 
Q 369 4034 244 3984 
L 191 4094 
L 1044 4444 
L 1184 4444 
z
" transform="scale(0.015625)"/>
       <path id="TimesNewRomanPSMT-73" d="M 2050 2947 
L 2050 1972 
L 1947 1972 
Q 1828 2431 1642 2597 
Q 1456 2763 1169 2763 
Q 950 2763 815 2647 
Q 681 2531 681 2391 
Q 681 2216 781 2091 
Q 878 1963 1175 1819 
L 1631 1597 
Q 2266 1288 2266 781 
Q 2266 391 1970 151 
Q 1675 -88 1309 -88 
Q 1047 -88 709 6 
Q 606 38 541 38 
Q 469 38 428 -44 
L 325 -44 
L 325 978 
L 428 978 
Q 516 541 762 319 
Q 1009 97 1316 97 
Q 1531 97 1667 223 
Q 1803 350 1803 528 
Q 1803 744 1651 891 
Q 1500 1038 1047 1263 
Q 594 1488 453 1669 
Q 313 1847 313 2119 
Q 313 2472 555 2709 
Q 797 2947 1181 2947 
Q 1350 2947 1591 2875 
Q 1750 2828 1803 2828 
Q 1853 2828 1881 2850 
Q 1909 2872 1947 2947 
L 2050 2947 
z
" transform="scale(0.015625)"/>
      </defs>
      <use xlink:href="#TimesNewRomanPSMT-4e"/>
      <use xlink:href="#TimesNewRomanPSMT-75" x="72.216797"/>
      <use xlink:href="#TimesNewRomanPSMT-6d" x="122.216797"/>
      <use xlink:href="#TimesNewRomanPSMT-62" x="200"/>
      <use xlink:href="#TimesNewRomanPSMT-65" x="250"/>
      <use xlink:href="#TimesNewRomanPSMT-72" x="294.384766"/>
      <use xlink:href="#TimesNewRomanPSMT-20" x="327.685547"/>
      <use xlink:href="#TimesNewRomanPSMT-6f" x="352.685547"/>
      <use xlink:href="#TimesNewRomanPSMT-66" x="402.685547"/>
      <use xlink:href="#TimesNewRomanPSMT-20" x="435.986328"/>
      <use xlink:href="#TimesNewRomanPSMT-76" x="460.986328"/>
      <use xlink:href="#TimesNewRomanPSMT-61" x="510.986328"/>
      <use xlink:href="#TimesNewRomanPSMT-72" x="555.371094"/>
      <use xlink:href="#TimesNewRomanPSMT-69" x="588.671875"/>
      <use xlink:href="#TimesNewRomanPSMT-61" x="616.455078"/>
      <use xlink:href="#TimesNewRomanPSMT-62" x="660.839844"/>
      <use xlink:href="#TimesNewRomanPSMT-6c" x="710.839844"/>
      <use xlink:href="#TimesNewRomanPSMT-65" x="738.623047"/>
      <use xlink:href="#TimesNewRomanPSMT-73" x="783.007812"/>
     </g>
    </g>
   </g>
   <g id="matplotlib.axis_2">
    <g id="ytick_1">
     <g id="line2d_12">
      <path d="M 52.834219 384.291562 
L 555.54 384.291562 
" clip-path="url(#p43b0717c8f)" style="fill: none; stroke: #cccccc; stroke-linecap: round"/>
     </g>
     <g id="text_13">
      <!-- 0.0 -->
      <g style="fill: #262626" transform="translate(30.584219 389.499375) scale(0.15 -0.15)">
       <defs>
        <path id="TimesNewRomanPSMT-2e" d="M 800 606 
Q 947 606 1047 504 
Q 1147 403 1147 259 
Q 1147 116 1045 14 
Q 944 -88 800 -88 
Q 656 -88 554 14 
Q 453 116 453 259 
Q 453 406 554 506 
Q 656 606 800 606 
z
" transform="scale(0.015625)"/>
       </defs>
       <use xlink:href="#TimesNewRomanPSMT-30"/>
       <use xlink:href="#TimesNewRomanPSMT-2e" x="50"/>
       <use xlink:href="#TimesNewRomanPSMT-30" x="75"/>
      </g>
     </g>
    </g>
    <g id="ytick_2">
     <g id="line2d_13">
      <path d="M 52.834219 313.561741 
L 555.54 313.561741 
" clip-path="url(#p43b0717c8f)" style="fill: none; stroke: #cccccc; stroke-linecap: round"/>
     </g>
     <g id="text_14">
      <!-- 0.2 -->
      <g style="fill: #262626" transform="translate(30.584219 318.769554) scale(0.15 -0.15)">
       <use xlink:href="#TimesNewRomanPSMT-30"/>
       <use xlink:href="#TimesNewRomanPSMT-2e" x="50"/>
       <use xlink:href="#TimesNewRomanPSMT-32" x="75"/>
      </g>
     </g>
    </g>
    <g id="ytick_3">
     <g id="line2d_14">
      <path d="M 52.834219 242.83192 
L 555.54 242.83192 
" clip-path="url(#p43b0717c8f)" style="fill: none; stroke: #cccccc; stroke-linecap: round"/>
     </g>
     <g id="text_15">
      <!-- 0.4 -->
      <g style="fill: #262626" transform="translate(30.584219 248.039732) scale(0.15 -0.15)">
       <use xlink:href="#TimesNewRomanPSMT-30"/>
       <use xlink:href="#TimesNewRomanPSMT-2e" x="50"/>
       <use xlink:href="#TimesNewRomanPSMT-34" x="75"/>
      </g>
     </g>
    </g>
    <g id="ytick_4">
     <g id="line2d_15">
      <path d="M 52.834219 172.102098 
L 555.54 172.102098 
" clip-path="url(#p43b0717c8f)" style="fill: none; stroke: #cccccc; stroke-linecap: round"/>
     </g>
     <g id="text_16">
      <!-- 0.6 -->
      <g style="fill: #262626" transform="translate(30.584219 177.309911) scale(0.15 -0.15)">
       <defs>
        <path id="TimesNewRomanPSMT-36" d="M 2869 4325 
L 2869 4209 
Q 2456 4169 2195 4045 
Q 1934 3922 1679 3669 
Q 1425 3416 1258 3105 
Q 1091 2794 978 2366 
Q 1428 2675 1881 2675 
Q 2316 2675 2634 2325 
Q 2953 1975 2953 1425 
Q 2953 894 2631 456 
Q 2244 -75 1606 -75 
Q 1172 -75 869 213 
Q 275 772 275 1663 
Q 275 2231 503 2743 
Q 731 3256 1154 3653 
Q 1578 4050 1965 4187 
Q 2353 4325 2688 4325 
L 2869 4325 
z
M 925 2138 
Q 869 1716 869 1456 
Q 869 1156 980 804 
Q 1091 453 1309 247 
Q 1469 100 1697 100 
Q 1969 100 2183 356 
Q 2397 613 2397 1088 
Q 2397 1622 2184 2012 
Q 1972 2403 1581 2403 
Q 1463 2403 1327 2353 
Q 1191 2303 925 2138 
z
" transform="scale(0.015625)"/>
       </defs>
       <use xlink:href="#TimesNewRomanPSMT-30"/>
       <use xlink:href="#TimesNewRomanPSMT-2e" x="50"/>
       <use xlink:href="#TimesNewRomanPSMT-36" x="75"/>
      </g>
     </g>
    </g>
    <g id="ytick_5">
     <g id="line2d_16">
      <path d="M 52.834219 101.372277 
L 555.54 101.372277 
" clip-path="url(#p43b0717c8f)" style="fill: none; stroke: #cccccc; stroke-linecap: round"/>
     </g>
     <g id="text_17">
      <!-- 0.8 -->
      <g style="fill: #262626" transform="translate(30.584219 106.580089) scale(0.15 -0.15)">
       <defs>
        <path id="TimesNewRomanPSMT-38" d="M 1228 2134 
Q 725 2547 579 2797 
Q 434 3047 434 3316 
Q 434 3728 753 4026 
Q 1072 4325 1600 4325 
Q 2113 4325 2425 4047 
Q 2738 3769 2738 3413 
Q 2738 3175 2569 2928 
Q 2400 2681 1866 2347 
Q 2416 1922 2594 1678 
Q 2831 1359 2831 1006 
Q 2831 559 2490 242 
Q 2150 -75 1597 -75 
Q 994 -75 656 303 
Q 388 606 388 966 
Q 388 1247 577 1523 
Q 766 1800 1228 2134 
z
M 1719 2469 
Q 2094 2806 2194 3001 
Q 2294 3197 2294 3444 
Q 2294 3772 2109 3958 
Q 1925 4144 1606 4144 
Q 1288 4144 1088 3959 
Q 888 3775 888 3528 
Q 888 3366 970 3203 
Q 1053 3041 1206 2894 
L 1719 2469 
z
M 1375 2016 
Q 1116 1797 991 1539 
Q 866 1281 866 981 
Q 866 578 1086 336 
Q 1306 94 1647 94 
Q 1984 94 2187 284 
Q 2391 475 2391 747 
Q 2391 972 2272 1150 
Q 2050 1481 1375 2016 
z
" transform="scale(0.015625)"/>
       </defs>
       <use xlink:href="#TimesNewRomanPSMT-30"/>
       <use xlink:href="#TimesNewRomanPSMT-2e" x="50"/>
       <use xlink:href="#TimesNewRomanPSMT-38" x="75"/>
      </g>
     </g>
    </g>
    <g id="ytick_6">
     <g id="line2d_17">
      <path d="M 52.834219 30.642455 
L 555.54 30.642455 
" clip-path="url(#p43b0717c8f)" style="fill: none; stroke: #cccccc; stroke-linecap: round"/>
     </g>
     <g id="text_18">
      <!-- 1.0 -->
      <g style="fill: #262626" transform="translate(30.584219 35.850268) scale(0.15 -0.15)">
       <use xlink:href="#TimesNewRomanPSMT-31"/>
       <use xlink:href="#TimesNewRomanPSMT-2e" x="50"/>
       <use xlink:href="#TimesNewRomanPSMT-30" x="75"/>
      </g>
     </g>
    </g>
    <g id="text_19">
     <!-- Metrics -->
     <g style="fill: #262626" transform="translate(23.375625 221.537109) rotate(-90) scale(0.15 -0.15)">
      <defs>
       <path id="TimesNewRomanPSMT-4d" d="M 2619 0 
L 981 3566 
L 981 734 
Q 981 344 1066 247 
Q 1181 116 1431 116 
L 1581 116 
L 1581 0 
L 106 0 
L 106 116 
L 256 116 
Q 525 116 638 278 
Q 706 378 706 734 
L 706 3503 
Q 706 3784 644 3909 
Q 600 4000 483 4061 
Q 366 4122 106 4122 
L 106 4238 
L 1306 4238 
L 2844 922 
L 4356 4238 
L 5556 4238 
L 5556 4122 
L 5409 4122 
Q 5138 4122 5025 3959 
Q 4956 3859 4956 3503 
L 4956 734 
Q 4956 344 5044 247 
Q 5159 116 5409 116 
L 5556 116 
L 5556 0 
L 3756 0 
L 3756 116 
L 3906 116 
Q 4178 116 4288 278 
Q 4356 378 4356 734 
L 4356 3566 
L 2722 0 
L 2619 0 
z
" transform="scale(0.015625)"/>
       <path id="TimesNewRomanPSMT-74" d="M 1031 3803 
L 1031 2863 
L 1700 2863 
L 1700 2644 
L 1031 2644 
L 1031 788 
Q 1031 509 1111 412 
Q 1191 316 1316 316 
Q 1419 316 1516 380 
Q 1613 444 1666 569 
L 1788 569 
Q 1678 263 1478 108 
Q 1278 -47 1066 -47 
Q 922 -47 784 33 
Q 647 113 581 261 
Q 516 409 516 719 
L 516 2644 
L 63 2644 
L 63 2747 
Q 234 2816 414 2980 
Q 594 3144 734 3369 
Q 806 3488 934 3803 
L 1031 3803 
z
" transform="scale(0.015625)"/>
       <path id="TimesNewRomanPSMT-63" d="M 2631 1088 
Q 2516 522 2178 217 
Q 1841 -88 1431 -88 
Q 944 -88 581 321 
Q 219 731 219 1428 
Q 219 2103 620 2525 
Q 1022 2947 1584 2947 
Q 2006 2947 2278 2723 
Q 2550 2500 2550 2259 
Q 2550 2141 2473 2067 
Q 2397 1994 2259 1994 
Q 2075 1994 1981 2113 
Q 1928 2178 1911 2362 
Q 1894 2547 1784 2644 
Q 1675 2738 1481 2738 
Q 1169 2738 978 2506 
Q 725 2200 725 1697 
Q 725 1184 976 792 
Q 1228 400 1656 400 
Q 1963 400 2206 609 
Q 2378 753 2541 1131 
L 2631 1088 
z
" transform="scale(0.015625)"/>
      </defs>
      <use xlink:href="#TimesNewRomanPSMT-4d"/>
      <use xlink:href="#TimesNewRomanPSMT-65" x="88.916016"/>
      <use xlink:href="#TimesNewRomanPSMT-74" x="133.300781"/>
      <use xlink:href="#TimesNewRomanPSMT-72" x="161.083984"/>
      <use xlink:href="#TimesNewRomanPSMT-69" x="194.384766"/>
      <use xlink:href="#TimesNewRomanPSMT-63" x="222.167969"/>
      <use xlink:href="#TimesNewRomanPSMT-73" x="266.552734"/>
     </g>
    </g>
   </g>
   <g id="line2d_18">
    <path d="M 72.94245 30.642455 
L 82.996566 56.838686 
L 93.050681 67.480904 
L 103.104797 49.503741 
L 113.158913 40.466042 
L 123.213028 49.888665 
L 133.267144 67.480904 
L 143.321259 40.829878 
L 153.375375 44.78842 
L 163.429491 42.333335 
L 173.483606 34.735616 
L 183.537722 43.198045 
L 193.591837 34.25112 
L 203.645953 43.216646 
L 213.700069 42.154471 
L 223.754184 68.169235 
L 233.8083 64.479253 
L 243.862416 53.500662 
L 253.916531 43.904297 
L 263.970647 59.779079 
L 274.024763 45.986735 
L 284.078878 57.383409 
L 294.132994 51.10826 
L 304.187109 47.994838 
L 314.241225 41.977363 
L 324.295341 36.46384 
L 334.349456 40.566282 
L 344.403572 41.155211 
L 354.457688 45.836269 
L 364.511803 43.890497 
L 374.565919 40.773029 
L 384.620034 40.384855 
L 394.67415 39.412301 
L 404.728266 36.993705 
L 414.782381 36.918635 
L 424.836497 39.683886 
L 434.890613 35.050824 
L 444.944728 35.525185 
L 454.998844 37.568084 
L 465.052959 44.106788 
L 475.107075 36.590069 
L 485.161191 36.125387 
L 495.215306 37.705695 
L 505.269422 40.24774 
L 515.323538 36.71488 
L 525.377653 38.807283 
L 535.431769 43.228925 
L 545.485884 35.159423 
L 555.54 33.801721 
" clip-path="url(#p43b0717c8f)" style="fill: none; stroke: #d65f5f; stroke-width: 1.5; stroke-linecap: round"/>
    <defs>
     <path id="m6594e43b76" d="M 0 2.5 
C 0.663008 2.5 1.29895 2.236584 1.767767 1.767767 
C 2.236584 1.29895 2.5 0.663008 2.5 0 
C 2.5 -0.663008 2.236584 -1.29895 1.767767 -1.767767 
C 1.29895 -2.236584 0.663008 -2.5 0 -2.5 
C -0.663008 -2.5 -1.29895 -2.236584 -1.767767 -1.767767 
C -2.236584 -1.29895 -2.5 -0.663008 -2.5 0 
C -2.5 0.663008 -2.236584 1.29895 -1.767767 1.767767 
C -1.29895 2.236584 -0.663008 2.5 0 2.5 
z
" style="stroke: #d65f5f"/>
    </defs>
    <g clip-path="url(#p43b0717c8f)">
     <use xlink:href="#m6594e43b76" x="72.94245" y="30.642455" style="fill: #ffffff; stroke: #d65f5f"/>
     <use xlink:href="#m6594e43b76" x="82.996566" y="56.838686" style="fill: #ffffff; stroke: #d65f5f"/>
     <use xlink:href="#m6594e43b76" x="93.050681" y="67.480904" style="fill: #ffffff; stroke: #d65f5f"/>
     <use xlink:href="#m6594e43b76" x="103.104797" y="49.503741" style="fill: #ffffff; stroke: #d65f5f"/>
     <use xlink:href="#m6594e43b76" x="113.158913" y="40.466042" style="fill: #ffffff; stroke: #d65f5f"/>
     <use xlink:href="#m6594e43b76" x="123.213028" y="49.888665" style="fill: #ffffff; stroke: #d65f5f"/>
     <use xlink:href="#m6594e43b76" x="133.267144" y="67.480904" style="fill: #ffffff; stroke: #d65f5f"/>
     <use xlink:href="#m6594e43b76" x="143.321259" y="40.829878" style="fill: #ffffff; stroke: #d65f5f"/>
     <use xlink:href="#m6594e43b76" x="153.375375" y="44.78842" style="fill: #ffffff; stroke: #d65f5f"/>
     <use xlink:href="#m6594e43b76" x="163.429491" y="42.333335" style="fill: #ffffff; stroke: #d65f5f"/>
     <use xlink:href="#m6594e43b76" x="173.483606" y="34.735616" style="fill: #ffffff; stroke: #d65f5f"/>
     <use xlink:href="#m6594e43b76" x="183.537722" y="43.198045" style="fill: #ffffff; stroke: #d65f5f"/>
     <use xlink:href="#m6594e43b76" x="193.591837" y="34.25112" style="fill: #ffffff; stroke: #d65f5f"/>
     <use xlink:href="#m6594e43b76" x="203.645953" y="43.216646" style="fill: #ffffff; stroke: #d65f5f"/>
     <use xlink:href="#m6594e43b76" x="213.700069" y="42.154471" style="fill: #ffffff; stroke: #d65f5f"/>
     <use xlink:href="#m6594e43b76" x="223.754184" y="68.169235" style="fill: #ffffff; stroke: #d65f5f"/>
     <use xlink:href="#m6594e43b76" x="233.8083" y="64.479253" style="fill: #ffffff; stroke: #d65f5f"/>
     <use xlink:href="#m6594e43b76" x="243.862416" y="53.500662" style="fill: #ffffff; stroke: #d65f5f"/>
     <use xlink:href="#m6594e43b76" x="253.916531" y="43.904297" style="fill: #ffffff; stroke: #d65f5f"/>
     <use xlink:href="#m6594e43b76" x="263.970647" y="59.779079" style="fill: #ffffff; stroke: #d65f5f"/>
     <use xlink:href="#m6594e43b76" x="274.024763" y="45.986735" style="fill: #ffffff; stroke: #d65f5f"/>
     <use xlink:href="#m6594e43b76" x="284.078878" y="57.383409" style="fill: #ffffff; stroke: #d65f5f"/>
     <use xlink:href="#m6594e43b76" x="294.132994" y="51.10826" style="fill: #ffffff; stroke: #d65f5f"/>
     <use xlink:href="#m6594e43b76" x="304.187109" y="47.994838" style="fill: #ffffff; stroke: #d65f5f"/>
     <use xlink:href="#m6594e43b76" x="314.241225" y="41.977363" style="fill: #ffffff; stroke: #d65f5f"/>
     <use xlink:href="#m6594e43b76" x="324.295341" y="36.46384" style="fill: #ffffff; stroke: #d65f5f"/>
     <use xlink:href="#m6594e43b76" x="334.349456" y="40.566282" style="fill: #ffffff; stroke: #d65f5f"/>
     <use xlink:href="#m6594e43b76" x="344.403572" y="41.155211" style="fill: #ffffff; stroke: #d65f5f"/>
     <use xlink:href="#m6594e43b76" x="354.457688" y="45.836269" style="fill: #ffffff; stroke: #d65f5f"/>
     <use xlink:href="#m6594e43b76" x="364.511803" y="43.890497" style="fill: #ffffff; stroke: #d65f5f"/>
     <use xlink:href="#m6594e43b76" x="374.565919" y="40.773029" style="fill: #ffffff; stroke: #d65f5f"/>
     <use xlink:href="#m6594e43b76" x="384.620034" y="40.384855" style="fill: #ffffff; stroke: #d65f5f"/>
     <use xlink:href="#m6594e43b76" x="394.67415" y="39.412301" style="fill: #ffffff; stroke: #d65f5f"/>
     <use xlink:href="#m6594e43b76" x="404.728266" y="36.993705" style="fill: #ffffff; stroke: #d65f5f"/>
     <use xlink:href="#m6594e43b76" x="414.782381" y="36.918635" style="fill: #ffffff; stroke: #d65f5f"/>
     <use xlink:href="#m6594e43b76" x="424.836497" y="39.683886" style="fill: #ffffff; stroke: #d65f5f"/>
     <use xlink:href="#m6594e43b76" x="434.890613" y="35.050824" style="fill: #ffffff; stroke: #d65f5f"/>
     <use xlink:href="#m6594e43b76" x="444.944728" y="35.525185" style="fill: #ffffff; stroke: #d65f5f"/>
     <use xlink:href="#m6594e43b76" x="454.998844" y="37.568084" style="fill: #ffffff; stroke: #d65f5f"/>
     <use xlink:href="#m6594e43b76" x="465.052959" y="44.106788" style="fill: #ffffff; stroke: #d65f5f"/>
     <use xlink:href="#m6594e43b76" x="475.107075" y="36.590069" style="fill: #ffffff; stroke: #d65f5f"/>
     <use xlink:href="#m6594e43b76" x="485.161191" y="36.125387" style="fill: #ffffff; stroke: #d65f5f"/>
     <use xlink:href="#m6594e43b76" x="495.215306" y="37.705695" style="fill: #ffffff; stroke: #d65f5f"/>
     <use xlink:href="#m6594e43b76" x="505.269422" y="40.24774" style="fill: #ffffff; stroke: #d65f5f"/>
     <use xlink:href="#m6594e43b76" x="515.323538" y="36.71488" style="fill: #ffffff; stroke: #d65f5f"/>
     <use xlink:href="#m6594e43b76" x="525.377653" y="38.807283" style="fill: #ffffff; stroke: #d65f5f"/>
     <use xlink:href="#m6594e43b76" x="535.431769" y="43.228925" style="fill: #ffffff; stroke: #d65f5f"/>
     <use xlink:href="#m6594e43b76" x="545.485884" y="35.159423" style="fill: #ffffff; stroke: #d65f5f"/>
     <use xlink:href="#m6594e43b76" x="555.54" y="33.801721" style="fill: #ffffff; stroke: #d65f5f"/>
    </g>
   </g>
   <g id="line2d_19">
    <path d="M 72.94245 30.642455 
L 82.996566 30.642455 
L 93.050681 94.942293 
L 103.104797 30.642455 
L 113.158913 30.642455 
L 123.213028 30.642455 
L 133.267144 30.642455 
L 143.321259 44.78842 
L 153.375375 30.642455 
L 163.429491 30.642455 
L 173.483606 30.642455 
L 183.537722 53.458527 
L 193.591837 30.642455 
L 203.645953 63.540047 
L 213.700069 55.032049 
L 223.754184 197.065565 
L 233.8083 142.912013 
L 243.862416 89.583973 
L 253.916531 81.82851 
L 263.970647 128.20083 
L 274.024763 87.400954 
L 284.078878 164.548428 
L 294.132994 100.635508 
L 304.187109 125.128858 
L 314.241225 96.268063 
L 324.295341 60.669266 
L 334.349456 88.381085 
L 344.403572 94.117936 
L 354.457688 127.977072 
L 364.511803 132.265762 
L 374.565919 90.6365 
L 384.620034 76.871097 
L 394.67415 99.014616 
L 404.728266 60.113214 
L 414.782381 82.942675 
L 424.836497 119.054732 
L 434.890613 65.471534 
L 444.944728 59.376445 
L 454.998844 99.875349 
L 465.052959 104.662036 
L 475.107075 107.802261 
L 485.161191 66.204935 
L 495.215306 93.950012 
L 505.269422 100.887826 
L 515.323538 52.206425 
L 525.377653 111.384261 
L 535.431769 164.30511 
L 545.485884 100.705014 
L 555.54 63.186852 
" clip-path="url(#p43b0717c8f)" style="fill: none; stroke-dasharray: 5.55,2.4; stroke-dashoffset: 0; stroke: #82c6e2; stroke-width: 1.5"/>
    <defs>
     <path id="m022b504328" d="M -2.5 2.5 
L 2.5 2.5 
L 2.5 -2.5 
L -2.5 -2.5 
z
" style="stroke: #82c6e2; stroke-linejoin: miter"/>
    </defs>
    <g clip-path="url(#p43b0717c8f)">
     <use xlink:href="#m022b504328" x="72.94245" y="30.642455" style="fill: #ffffff; stroke: #82c6e2; stroke-linejoin: miter"/>
     <use xlink:href="#m022b504328" x="82.996566" y="30.642455" style="fill: #ffffff; stroke: #82c6e2; stroke-linejoin: miter"/>
     <use xlink:href="#m022b504328" x="93.050681" y="94.942293" style="fill: #ffffff; stroke: #82c6e2; stroke-linejoin: miter"/>
     <use xlink:href="#m022b504328" x="103.104797" y="30.642455" style="fill: #ffffff; stroke: #82c6e2; stroke-linejoin: miter"/>
     <use xlink:href="#m022b504328" x="113.158913" y="30.642455" style="fill: #ffffff; stroke: #82c6e2; stroke-linejoin: miter"/>
     <use xlink:href="#m022b504328" x="123.213028" y="30.642455" style="fill: #ffffff; stroke: #82c6e2; stroke-linejoin: miter"/>
     <use xlink:href="#m022b504328" x="133.267144" y="30.642455" style="fill: #ffffff; stroke: #82c6e2; stroke-linejoin: miter"/>
     <use xlink:href="#m022b504328" x="143.321259" y="44.78842" style="fill: #ffffff; stroke: #82c6e2; stroke-linejoin: miter"/>
     <use xlink:href="#m022b504328" x="153.375375" y="30.642455" style="fill: #ffffff; stroke: #82c6e2; stroke-linejoin: miter"/>
     <use xlink:href="#m022b504328" x="163.429491" y="30.642455" style="fill: #ffffff; stroke: #82c6e2; stroke-linejoin: miter"/>
     <use xlink:href="#m022b504328" x="173.483606" y="30.642455" style="fill: #ffffff; stroke: #82c6e2; stroke-linejoin: miter"/>
     <use xlink:href="#m022b504328" x="183.537722" y="53.458527" style="fill: #ffffff; stroke: #82c6e2; stroke-linejoin: miter"/>
     <use xlink:href="#m022b504328" x="193.591837" y="30.642455" style="fill: #ffffff; stroke: #82c6e2; stroke-linejoin: miter"/>
     <use xlink:href="#m022b504328" x="203.645953" y="63.540047" style="fill: #ffffff; stroke: #82c6e2; stroke-linejoin: miter"/>
     <use xlink:href="#m022b504328" x="213.700069" y="55.032049" style="fill: #ffffff; stroke: #82c6e2; stroke-linejoin: miter"/>
     <use xlink:href="#m022b504328" x="223.754184" y="197.065565" style="fill: #ffffff; stroke: #82c6e2; stroke-linejoin: miter"/>
     <use xlink:href="#m022b504328" x="233.8083" y="142.912013" style="fill: #ffffff; stroke: #82c6e2; stroke-linejoin: miter"/>
     <use xlink:href="#m022b504328" x="243.862416" y="89.583973" style="fill: #ffffff; stroke: #82c6e2; stroke-linejoin: miter"/>
     <use xlink:href="#m022b504328" x="253.916531" y="81.82851" style="fill: #ffffff; stroke: #82c6e2; stroke-linejoin: miter"/>
     <use xlink:href="#m022b504328" x="263.970647" y="128.20083" style="fill: #ffffff; stroke: #82c6e2; stroke-linejoin: miter"/>
     <use xlink:href="#m022b504328" x="274.024763" y="87.400954" style="fill: #ffffff; stroke: #82c6e2; stroke-linejoin: miter"/>
     <use xlink:href="#m022b504328" x="284.078878" y="164.548428" style="fill: #ffffff; stroke: #82c6e2; stroke-linejoin: miter"/>
     <use xlink:href="#m022b504328" x="294.132994" y="100.635508" style="fill: #ffffff; stroke: #82c6e2; stroke-linejoin: miter"/>
     <use xlink:href="#m022b504328" x="304.187109" y="125.128858" style="fill: #ffffff; stroke: #82c6e2; stroke-linejoin: miter"/>
     <use xlink:href="#m022b504328" x="314.241225" y="96.268063" style="fill: #ffffff; stroke: #82c6e2; stroke-linejoin: miter"/>
     <use xlink:href="#m022b504328" x="324.295341" y="60.669266" style="fill: #ffffff; stroke: #82c6e2; stroke-linejoin: miter"/>
     <use xlink:href="#m022b504328" x="334.349456" y="88.381085" style="fill: #ffffff; stroke: #82c6e2; stroke-linejoin: miter"/>
     <use xlink:href="#m022b504328" x="344.403572" y="94.117936" style="fill: #ffffff; stroke: #82c6e2; stroke-linejoin: miter"/>
     <use xlink:href="#m022b504328" x="354.457688" y="127.977072" style="fill: #ffffff; stroke: #82c6e2; stroke-linejoin: miter"/>
     <use xlink:href="#m022b504328" x="364.511803" y="132.265762" style="fill: #ffffff; stroke: #82c6e2; stroke-linejoin: miter"/>
     <use xlink:href="#m022b504328" x="374.565919" y="90.6365" style="fill: #ffffff; stroke: #82c6e2; stroke-linejoin: miter"/>
     <use xlink:href="#m022b504328" x="384.620034" y="76.871097" style="fill: #ffffff; stroke: #82c6e2; stroke-linejoin: miter"/>
     <use xlink:href="#m022b504328" x="394.67415" y="99.014616" style="fill: #ffffff; stroke: #82c6e2; stroke-linejoin: miter"/>
     <use xlink:href="#m022b504328" x="404.728266" y="60.113214" style="fill: #ffffff; stroke: #82c6e2; stroke-linejoin: miter"/>
     <use xlink:href="#m022b504328" x="414.782381" y="82.942675" style="fill: #ffffff; stroke: #82c6e2; stroke-linejoin: miter"/>
     <use xlink:href="#m022b504328" x="424.836497" y="119.054732" style="fill: #ffffff; stroke: #82c6e2; stroke-linejoin: miter"/>
     <use xlink:href="#m022b504328" x="434.890613" y="65.471534" style="fill: #ffffff; stroke: #82c6e2; stroke-linejoin: miter"/>
     <use xlink:href="#m022b504328" x="444.944728" y="59.376445" style="fill: #ffffff; stroke: #82c6e2; stroke-linejoin: miter"/>
     <use xlink:href="#m022b504328" x="454.998844" y="99.875349" style="fill: #ffffff; stroke: #82c6e2; stroke-linejoin: miter"/>
     <use xlink:href="#m022b504328" x="465.052959" y="104.662036" style="fill: #ffffff; stroke: #82c6e2; stroke-linejoin: miter"/>
     <use xlink:href="#m022b504328" x="475.107075" y="107.802261" style="fill: #ffffff; stroke: #82c6e2; stroke-linejoin: miter"/>
     <use xlink:href="#m022b504328" x="485.161191" y="66.204935" style="fill: #ffffff; stroke: #82c6e2; stroke-linejoin: miter"/>
     <use xlink:href="#m022b504328" x="495.215306" y="93.950012" style="fill: #ffffff; stroke: #82c6e2; stroke-linejoin: miter"/>
     <use xlink:href="#m022b504328" x="505.269422" y="100.887826" style="fill: #ffffff; stroke: #82c6e2; stroke-linejoin: miter"/>
     <use xlink:href="#m022b504328" x="515.323538" y="52.206425" style="fill: #ffffff; stroke: #82c6e2; stroke-linejoin: miter"/>
     <use xlink:href="#m022b504328" x="525.377653" y="111.384261" style="fill: #ffffff; stroke: #82c6e2; stroke-linejoin: miter"/>
     <use xlink:href="#m022b504328" x="535.431769" y="164.30511" style="fill: #ffffff; stroke: #82c6e2; stroke-linejoin: miter"/>
     <use xlink:href="#m022b504328" x="545.485884" y="100.705014" style="fill: #ffffff; stroke: #82c6e2; stroke-linejoin: miter"/>
     <use xlink:href="#m022b504328" x="555.54" y="63.186852" style="fill: #ffffff; stroke: #82c6e2; stroke-linejoin: miter"/>
    </g>
   </g>
   <g id="line2d_20">
    <path d="M 72.94245 30.642455 
L 82.996566 131.685057 
L 93.050681 119.054732 
L 103.104797 124.948884 
L 113.158913 81.163756 
L 123.213028 153.65084 
L 133.267144 274.538391 
L 143.321259 101.372277 
L 153.375375 142.321121 
L 163.429491 145.339463 
L 173.483606 81.163756 
L 183.537722 156.38436 
L 193.591837 81.163756 
L 203.645953 150.523509 
L 213.700069 193.321045 
L 223.754184 251.673147 
L 233.8083 253.197497 
L 243.862416 245.605638 
L 253.916531 152.097704 
L 263.970647 323.417536 
L 274.024763 180.493772 
L 284.078878 228.198163 
L 294.132994 211.94358 
L 304.187109 162.394084 
L 314.241225 162.559186 
L 324.295341 107.646696 
L 334.349456 164.60045 
L 344.403572 157.956134 
L 354.457688 214.968657 
L 364.511803 143.343819 
L 374.565919 181.270779 
L 384.620034 152.590423 
L 394.67415 143.889641 
L 404.728266 159.860398 
L 414.782381 131.087172 
L 424.836497 139.457565 
L 434.890613 121.265039 
L 444.944728 120.401112 
L 454.998844 127.092212 
L 465.052959 328.881103 
L 475.107075 98.715758 
L 485.161191 135.656164 
L 495.215306 170.494602 
L 505.269422 220.746323 
L 515.323538 169.026889 
L 525.377653 164.561051 
L 535.431769 283.431348 
L 545.485884 111.017252 
L 555.54 122.591223 
" clip-path="url(#p43b0717c8f)" style="fill: none; stroke-dasharray: 9.6,2.4,1.5,2.4; stroke-dashoffset: 0; stroke: #956cb4; stroke-width: 1.5"/>
    <defs>
     <path id="m984f8812d7" d="M 0 -3 
L -3 3 
L 3 3 
z
" style="stroke: #956cb4; stroke-linejoin: miter"/>
    </defs>
    <g clip-path="url(#p43b0717c8f)">
     <use xlink:href="#m984f8812d7" x="72.94245" y="30.642455" style="fill: #ffffff; stroke: #956cb4; stroke-linejoin: miter"/>
     <use xlink:href="#m984f8812d7" x="82.996566" y="131.685057" style="fill: #ffffff; stroke: #956cb4; stroke-linejoin: miter"/>
     <use xlink:href="#m984f8812d7" x="93.050681" y="119.054732" style="fill: #ffffff; stroke: #956cb4; stroke-linejoin: miter"/>
     <use xlink:href="#m984f8812d7" x="103.104797" y="124.948884" style="fill: #ffffff; stroke: #956cb4; stroke-linejoin: miter"/>
     <use xlink:href="#m984f8812d7" x="113.158913" y="81.163756" style="fill: #ffffff; stroke: #956cb4; stroke-linejoin: miter"/>
     <use xlink:href="#m984f8812d7" x="123.213028" y="153.65084" style="fill: #ffffff; stroke: #956cb4; stroke-linejoin: miter"/>
     <use xlink:href="#m984f8812d7" x="133.267144" y="274.538391" style="fill: #ffffff; stroke: #956cb4; stroke-linejoin: miter"/>
     <use xlink:href="#m984f8812d7" x="143.321259" y="101.372277" style="fill: #ffffff; stroke: #956cb4; stroke-linejoin: miter"/>
     <use xlink:href="#m984f8812d7" x="153.375375" y="142.321121" style="fill: #ffffff; stroke: #956cb4; stroke-linejoin: miter"/>
     <use xlink:href="#m984f8812d7" x="163.429491" y="145.339463" style="fill: #ffffff; stroke: #956cb4; stroke-linejoin: miter"/>
     <use xlink:href="#m984f8812d7" x="173.483606" y="81.163756" style="fill: #ffffff; stroke: #956cb4; stroke-linejoin: miter"/>
     <use xlink:href="#m984f8812d7" x="183.537722" y="156.38436" style="fill: #ffffff; stroke: #956cb4; stroke-linejoin: miter"/>
     <use xlink:href="#m984f8812d7" x="193.591837" y="81.163756" style="fill: #ffffff; stroke: #956cb4; stroke-linejoin: miter"/>
     <use xlink:href="#m984f8812d7" x="203.645953" y="150.523509" style="fill: #ffffff; stroke: #956cb4; stroke-linejoin: miter"/>
     <use xlink:href="#m984f8812d7" x="213.700069" y="193.321045" style="fill: #ffffff; stroke: #956cb4; stroke-linejoin: miter"/>
     <use xlink:href="#m984f8812d7" x="223.754184" y="251.673147" style="fill: #ffffff; stroke: #956cb4; stroke-linejoin: miter"/>
     <use xlink:href="#m984f8812d7" x="233.8083" y="253.197497" style="fill: #ffffff; stroke: #956cb4; stroke-linejoin: miter"/>
     <use xlink:href="#m984f8812d7" x="243.862416" y="245.605638" style="fill: #ffffff; stroke: #956cb4; stroke-linejoin: miter"/>
     <use xlink:href="#m984f8812d7" x="253.916531" y="152.097704" style="fill: #ffffff; stroke: #956cb4; stroke-linejoin: miter"/>
     <use xlink:href="#m984f8812d7" x="263.970647" y="323.417536" style="fill: #ffffff; stroke: #956cb4; stroke-linejoin: miter"/>
     <use xlink:href="#m984f8812d7" x="274.024763" y="180.493772" style="fill: #ffffff; stroke: #956cb4; stroke-linejoin: miter"/>
     <use xlink:href="#m984f8812d7" x="284.078878" y="228.198163" style="fill: #ffffff; stroke: #956cb4; stroke-linejoin: miter"/>
     <use xlink:href="#m984f8812d7" x="294.132994" y="211.94358" style="fill: #ffffff; stroke: #956cb4; stroke-linejoin: miter"/>
     <use xlink:href="#m984f8812d7" x="304.187109" y="162.394084" style="fill: #ffffff; stroke: #956cb4; stroke-linejoin: miter"/>
     <use xlink:href="#m984f8812d7" x="314.241225" y="162.559186" style="fill: #ffffff; stroke: #956cb4; stroke-linejoin: miter"/>
     <use xlink:href="#m984f8812d7" x="324.295341" y="107.646696" style="fill: #ffffff; stroke: #956cb4; stroke-linejoin: miter"/>
     <use xlink:href="#m984f8812d7" x="334.349456" y="164.60045" style="fill: #ffffff; stroke: #956cb4; stroke-linejoin: miter"/>
     <use xlink:href="#m984f8812d7" x="344.403572" y="157.956134" style="fill: #ffffff; stroke: #956cb4; stroke-linejoin: miter"/>
     <use xlink:href="#m984f8812d7" x="354.457688" y="214.968657" style="fill: #ffffff; stroke: #956cb4; stroke-linejoin: miter"/>
     <use xlink:href="#m984f8812d7" x="364.511803" y="143.343819" style="fill: #ffffff; stroke: #956cb4; stroke-linejoin: miter"/>
     <use xlink:href="#m984f8812d7" x="374.565919" y="181.270779" style="fill: #ffffff; stroke: #956cb4; stroke-linejoin: miter"/>
     <use xlink:href="#m984f8812d7" x="384.620034" y="152.590423" style="fill: #ffffff; stroke: #956cb4; stroke-linejoin: miter"/>
     <use xlink:href="#m984f8812d7" x="394.67415" y="143.889641" style="fill: #ffffff; stroke: #956cb4; stroke-linejoin: miter"/>
     <use xlink:href="#m984f8812d7" x="404.728266" y="159.860398" style="fill: #ffffff; stroke: #956cb4; stroke-linejoin: miter"/>
     <use xlink:href="#m984f8812d7" x="414.782381" y="131.087172" style="fill: #ffffff; stroke: #956cb4; stroke-linejoin: miter"/>
     <use xlink:href="#m984f8812d7" x="424.836497" y="139.457565" style="fill: #ffffff; stroke: #956cb4; stroke-linejoin: miter"/>
     <use xlink:href="#m984f8812d7" x="434.890613" y="121.265039" style="fill: #ffffff; stroke: #956cb4; stroke-linejoin: miter"/>
     <use xlink:href="#m984f8812d7" x="444.944728" y="120.401112" style="fill: #ffffff; stroke: #956cb4; stroke-linejoin: miter"/>
     <use xlink:href="#m984f8812d7" x="454.998844" y="127.092212" style="fill: #ffffff; stroke: #956cb4; stroke-linejoin: miter"/>
     <use xlink:href="#m984f8812d7" x="465.052959" y="328.881103" style="fill: #ffffff; stroke: #956cb4; stroke-linejoin: miter"/>
     <use xlink:href="#m984f8812d7" x="475.107075" y="98.715758" style="fill: #ffffff; stroke: #956cb4; stroke-linejoin: miter"/>
     <use xlink:href="#m984f8812d7" x="485.161191" y="135.656164" style="fill: #ffffff; stroke: #956cb4; stroke-linejoin: miter"/>
     <use xlink:href="#m984f8812d7" x="495.215306" y="170.494602" style="fill: #ffffff; stroke: #956cb4; stroke-linejoin: miter"/>
     <use xlink:href="#m984f8812d7" x="505.269422" y="220.746323" style="fill: #ffffff; stroke: #956cb4; stroke-linejoin: miter"/>
     <use xlink:href="#m984f8812d7" x="515.323538" y="169.026889" style="fill: #ffffff; stroke: #956cb4; stroke-linejoin: miter"/>
     <use xlink:href="#m984f8812d7" x="525.377653" y="164.561051" style="fill: #ffffff; stroke: #956cb4; stroke-linejoin: miter"/>
     <use xlink:href="#m984f8812d7" x="535.431769" y="283.431348" style="fill: #ffffff; stroke: #956cb4; stroke-linejoin: miter"/>
     <use xlink:href="#m984f8812d7" x="545.485884" y="111.017252" style="fill: #ffffff; stroke: #956cb4; stroke-linejoin: miter"/>
     <use xlink:href="#m984f8812d7" x="555.54" y="122.591223" style="fill: #ffffff; stroke: #956cb4; stroke-linejoin: miter"/>
    </g>
   </g>
   <g id="line2d_21">
    <path d="M 72.94245 30.642455 
L 82.996566 89.583973 
L 93.050681 107.522696 
L 103.104797 85.05001 
L 113.158913 57.846233 
L 123.213028 105.094899 
L 133.267144 216.773564 
L 143.321259 75.652342 
L 153.375375 96.951663 
L 163.429491 99.09067 
L 173.483606 57.846233 
L 183.537722 114.401454 
L 193.591837 57.846233 
L 203.645953 113.85401 
L 213.700069 142.55673 
L 223.754184 229.030979 
L 233.8083 214.381936 
L 243.862416 195.678705 
L 253.916531 121.580797 
L 263.970647 285.925586 
L 274.024763 142.60172 
L 284.078878 201.762991 
L 294.132994 169.874387 
L 304.187109 145.204842 
L 314.241225 133.724034 
L 324.295341 85.996229 
L 334.349456 132.124373 
L 344.403572 129.982092 
L 354.457688 180.362515 
L 364.511803 137.929263 
L 374.565919 144.22319 
L 384.620034 120.048129 
L 394.67415 123.367526 
L 404.728266 119.054732 
L 414.782381 109.104797 
L 424.836497 129.664205 
L 434.890613 96.043318 
L 444.944728 93.051121 
L 454.998844 114.167621 
L 465.052959 291.798719 
L 475.107075 103.332457 
L 485.161191 105.18614 
L 495.215306 138.033284 
L 505.269422 176.888327 
L 515.323538 123.083109 
L 525.377653 140.842686 
L 535.431769 245.983248 
L 545.485884 105.956617 
L 555.54 95.916533 
" clip-path="url(#p43b0717c8f)" style="fill: none; stroke-dasharray: 1.5,2.475; stroke-dashoffset: 0; stroke: #d5bb67; stroke-width: 1.5"/>
    <defs>
     <path id="md2a76ea4d0" d="M 0 3.535534 
L 3.535534 0 
L 0 -3.535534 
L -3.535534 0 
z
" style="stroke: #d5bb67; stroke-linejoin: miter"/>
    </defs>
    <g clip-path="url(#p43b0717c8f)">
     <use xlink:href="#md2a76ea4d0" x="72.94245" y="30.642455" style="fill: #ffffff; stroke: #d5bb67; stroke-linejoin: miter"/>
     <use xlink:href="#md2a76ea4d0" x="82.996566" y="89.583973" style="fill: #ffffff; stroke: #d5bb67; stroke-linejoin: miter"/>
     <use xlink:href="#md2a76ea4d0" x="93.050681" y="107.522696" style="fill: #ffffff; stroke: #d5bb67; stroke-linejoin: miter"/>
     <use xlink:href="#md2a76ea4d0" x="103.104797" y="85.05001" style="fill: #ffffff; stroke: #d5bb67; stroke-linejoin: miter"/>
     <use xlink:href="#md2a76ea4d0" x="113.158913" y="57.846233" style="fill: #ffffff; stroke: #d5bb67; stroke-linejoin: miter"/>
     <use xlink:href="#md2a76ea4d0" x="123.213028" y="105.094899" style="fill: #ffffff; stroke: #d5bb67; stroke-linejoin: miter"/>
     <use xlink:href="#md2a76ea4d0" x="133.267144" y="216.773564" style="fill: #ffffff; stroke: #d5bb67; stroke-linejoin: miter"/>
     <use xlink:href="#md2a76ea4d0" x="143.321259" y="75.652342" style="fill: #ffffff; stroke: #d5bb67; stroke-linejoin: miter"/>
     <use xlink:href="#md2a76ea4d0" x="153.375375" y="96.951663" style="fill: #ffffff; stroke: #d5bb67; stroke-linejoin: miter"/>
     <use xlink:href="#md2a76ea4d0" x="163.429491" y="99.09067" style="fill: #ffffff; stroke: #d5bb67; stroke-linejoin: miter"/>
     <use xlink:href="#md2a76ea4d0" x="173.483606" y="57.846233" style="fill: #ffffff; stroke: #d5bb67; stroke-linejoin: miter"/>
     <use xlink:href="#md2a76ea4d0" x="183.537722" y="114.401454" style="fill: #ffffff; stroke: #d5bb67; stroke-linejoin: miter"/>
     <use xlink:href="#md2a76ea4d0" x="193.591837" y="57.846233" style="fill: #ffffff; stroke: #d5bb67; stroke-linejoin: miter"/>
     <use xlink:href="#md2a76ea4d0" x="203.645953" y="113.85401" style="fill: #ffffff; stroke: #d5bb67; stroke-linejoin: miter"/>
     <use xlink:href="#md2a76ea4d0" x="213.700069" y="142.55673" style="fill: #ffffff; stroke: #d5bb67; stroke-linejoin: miter"/>
     <use xlink:href="#md2a76ea4d0" x="223.754184" y="229.030979" style="fill: #ffffff; stroke: #d5bb67; stroke-linejoin: miter"/>
     <use xlink:href="#md2a76ea4d0" x="233.8083" y="214.381936" style="fill: #ffffff; stroke: #d5bb67; stroke-linejoin: miter"/>
     <use xlink:href="#md2a76ea4d0" x="243.862416" y="195.678705" style="fill: #ffffff; stroke: #d5bb67; stroke-linejoin: miter"/>
     <use xlink:href="#md2a76ea4d0" x="253.916531" y="121.580797" style="fill: #ffffff; stroke: #d5bb67; stroke-linejoin: miter"/>
     <use xlink:href="#md2a76ea4d0" x="263.970647" y="285.925586" style="fill: #ffffff; stroke: #d5bb67; stroke-linejoin: miter"/>
     <use xlink:href="#md2a76ea4d0" x="274.024763" y="142.60172" style="fill: #ffffff; stroke: #d5bb67; stroke-linejoin: miter"/>
     <use xlink:href="#md2a76ea4d0" x="284.078878" y="201.762991" style="fill: #ffffff; stroke: #d5bb67; stroke-linejoin: miter"/>
     <use xlink:href="#md2a76ea4d0" x="294.132994" y="169.874387" style="fill: #ffffff; stroke: #d5bb67; stroke-linejoin: miter"/>
     <use xlink:href="#md2a76ea4d0" x="304.187109" y="145.204842" style="fill: #ffffff; stroke: #d5bb67; stroke-linejoin: miter"/>
     <use xlink:href="#md2a76ea4d0" x="314.241225" y="133.724034" style="fill: #ffffff; stroke: #d5bb67; stroke-linejoin: miter"/>
     <use xlink:href="#md2a76ea4d0" x="324.295341" y="85.996229" style="fill: #ffffff; stroke: #d5bb67; stroke-linejoin: miter"/>
     <use xlink:href="#md2a76ea4d0" x="334.349456" y="132.124373" style="fill: #ffffff; stroke: #d5bb67; stroke-linejoin: miter"/>
     <use xlink:href="#md2a76ea4d0" x="344.403572" y="129.982092" style="fill: #ffffff; stroke: #d5bb67; stroke-linejoin: miter"/>
     <use xlink:href="#md2a76ea4d0" x="354.457688" y="180.362515" style="fill: #ffffff; stroke: #d5bb67; stroke-linejoin: miter"/>
     <use xlink:href="#md2a76ea4d0" x="364.511803" y="137.929263" style="fill: #ffffff; stroke: #d5bb67; stroke-linejoin: miter"/>
     <use xlink:href="#md2a76ea4d0" x="374.565919" y="144.22319" style="fill: #ffffff; stroke: #d5bb67; stroke-linejoin: miter"/>
     <use xlink:href="#md2a76ea4d0" x="384.620034" y="120.048129" style="fill: #ffffff; stroke: #d5bb67; stroke-linejoin: miter"/>
     <use xlink:href="#md2a76ea4d0" x="394.67415" y="123.367526" style="fill: #ffffff; stroke: #d5bb67; stroke-linejoin: miter"/>
     <use xlink:href="#md2a76ea4d0" x="404.728266" y="119.054732" style="fill: #ffffff; stroke: #d5bb67; stroke-linejoin: miter"/>
     <use xlink:href="#md2a76ea4d0" x="414.782381" y="109.104797" style="fill: #ffffff; stroke: #d5bb67; stroke-linejoin: miter"/>
     <use xlink:href="#md2a76ea4d0" x="424.836497" y="129.664205" style="fill: #ffffff; stroke: #d5bb67; stroke-linejoin: miter"/>
     <use xlink:href="#md2a76ea4d0" x="434.890613" y="96.043318" style="fill: #ffffff; stroke: #d5bb67; stroke-linejoin: miter"/>
     <use xlink:href="#md2a76ea4d0" x="444.944728" y="93.051121" style="fill: #ffffff; stroke: #d5bb67; stroke-linejoin: miter"/>
     <use xlink:href="#md2a76ea4d0" x="454.998844" y="114.167621" style="fill: #ffffff; stroke: #d5bb67; stroke-linejoin: miter"/>
     <use xlink:href="#md2a76ea4d0" x="465.052959" y="291.798719" style="fill: #ffffff; stroke: #d5bb67; stroke-linejoin: miter"/>
     <use xlink:href="#md2a76ea4d0" x="475.107075" y="103.332457" style="fill: #ffffff; stroke: #d5bb67; stroke-linejoin: miter"/>
     <use xlink:href="#md2a76ea4d0" x="485.161191" y="105.18614" style="fill: #ffffff; stroke: #d5bb67; stroke-linejoin: miter"/>
     <use xlink:href="#md2a76ea4d0" x="495.215306" y="138.033284" style="fill: #ffffff; stroke: #d5bb67; stroke-linejoin: miter"/>
     <use xlink:href="#md2a76ea4d0" x="505.269422" y="176.888327" style="fill: #ffffff; stroke: #d5bb67; stroke-linejoin: miter"/>
     <use xlink:href="#md2a76ea4d0" x="515.323538" y="123.083109" style="fill: #ffffff; stroke: #d5bb67; stroke-linejoin: miter"/>
     <use xlink:href="#md2a76ea4d0" x="525.377653" y="140.842686" style="fill: #ffffff; stroke: #d5bb67; stroke-linejoin: miter"/>
     <use xlink:href="#md2a76ea4d0" x="535.431769" y="245.983248" style="fill: #ffffff; stroke: #d5bb67; stroke-linejoin: miter"/>
     <use xlink:href="#md2a76ea4d0" x="545.485884" y="105.956617" style="fill: #ffffff; stroke: #d5bb67; stroke-linejoin: miter"/>
     <use xlink:href="#md2a76ea4d0" x="555.54" y="95.916533" style="fill: #ffffff; stroke: #d5bb67; stroke-linejoin: miter"/>
    </g>
   </g>
   <g id="patch_3">
    <path d="M 52.834219 384.291562 
L 52.834219 12.96 
" style="fill: none; stroke: #cccccc; stroke-width: 1.25; stroke-linejoin: miter; stroke-linecap: square"/>
   </g>
   <g id="patch_4">
    <path d="M 555.54 384.291562 
L 555.54 12.96 
" style="fill: none; stroke: #cccccc; stroke-width: 1.25; stroke-linejoin: miter; stroke-linecap: square"/>
   </g>
   <g id="patch_5">
    <path d="M 52.834219 384.291562 
L 555.54 384.291562 
" style="fill: none; stroke: #cccccc; stroke-width: 1.25; stroke-linejoin: miter; stroke-linecap: square"/>
   </g>
   <g id="patch_6">
    <path d="M 52.834219 12.96 
L 555.54 12.96 
" style="fill: none; stroke: #cccccc; stroke-width: 1.25; stroke-linejoin: miter; stroke-linecap: square"/>
   </g>
   <g id="legend_1">
    <g id="patch_7">
     <path d="M 59.834219 379.291562 
L 130.142031 379.291562 
Q 132.142031 379.291562 132.142031 377.291562 
L 132.142031 321.716563 
Q 132.142031 319.716563 130.142031 319.716563 
L 59.834219 319.716563 
Q 57.834219 319.716563 57.834219 321.716563 
L 57.834219 377.291562 
Q 57.834219 379.291562 59.834219 379.291562 
z
" style="fill: #ffffff; opacity: 0.8; stroke: #cccccc; stroke-linejoin: miter"/>
    </g>
    <g id="line2d_22">
     <path d="M 61.834219 327.216563 
L 71.834219 327.216563 
L 81.834219 327.216563 
" style="fill: none; stroke: #d65f5f; stroke-width: 1.5; stroke-linecap: round"/>
     <g>
      <use xlink:href="#m6594e43b76" x="71.834219" y="327.216563" style="fill: #ffffff; stroke: #d65f5f"/>
     </g>
    </g>
    <g id="text_20">
     <!-- Accuracy -->
     <g style="fill: #262626" transform="translate(89.834219 330.716563) scale(0.1 -0.1)">
      <defs>
       <path id="TimesNewRomanPSMT-41" d="M 2928 1419 
L 1288 1419 
L 1000 750 
Q 894 503 894 381 
Q 894 284 986 211 
Q 1078 138 1384 116 
L 1384 0 
L 50 0 
L 50 116 
Q 316 163 394 238 
Q 553 388 747 847 
L 2238 4334 
L 2347 4334 
L 3822 809 
Q 4000 384 4145 257 
Q 4291 131 4550 116 
L 4550 0 
L 2878 0 
L 2878 116 
Q 3131 128 3220 200 
Q 3309 272 3309 375 
Q 3309 513 3184 809 
L 2928 1419 
z
M 2841 1650 
L 2122 3363 
L 1384 1650 
L 2841 1650 
z
" transform="scale(0.015625)"/>
       <path id="TimesNewRomanPSMT-79" d="M 38 2863 
L 1372 2863 
L 1372 2747 
L 1306 2747 
Q 1166 2747 1095 2686 
Q 1025 2625 1025 2534 
Q 1025 2413 1128 2197 
L 1825 753 
L 2466 2334 
Q 2519 2463 2519 2588 
Q 2519 2644 2497 2672 
Q 2472 2706 2419 2726 
Q 2366 2747 2231 2747 
L 2231 2863 
L 3163 2863 
L 3163 2747 
Q 3047 2734 2984 2696 
Q 2922 2659 2847 2556 
Q 2819 2513 2741 2316 
L 1575 -541 
Q 1406 -956 1132 -1168 
Q 859 -1381 606 -1381 
Q 422 -1381 303 -1275 
Q 184 -1169 184 -1031 
Q 184 -900 270 -820 
Q 356 -741 506 -741 
Q 609 -741 788 -809 
Q 913 -856 944 -856 
Q 1038 -856 1148 -759 
Q 1259 -663 1372 -384 
L 1575 113 
L 547 2272 
Q 500 2369 397 2513 
Q 319 2622 269 2659 
Q 197 2709 38 2747 
L 38 2863 
z
" transform="scale(0.015625)"/>
      </defs>
      <use xlink:href="#TimesNewRomanPSMT-41"/>
      <use xlink:href="#TimesNewRomanPSMT-63" x="72.216797"/>
      <use xlink:href="#TimesNewRomanPSMT-63" x="116.601562"/>
      <use xlink:href="#TimesNewRomanPSMT-75" x="160.986328"/>
      <use xlink:href="#TimesNewRomanPSMT-72" x="210.986328"/>
      <use xlink:href="#TimesNewRomanPSMT-61" x="244.287109"/>
      <use xlink:href="#TimesNewRomanPSMT-63" x="288.671875"/>
      <use xlink:href="#TimesNewRomanPSMT-79" x="333.056641"/>
     </g>
    </g>
    <g id="line2d_23">
     <path d="M 61.834219 341.374375 
L 71.834219 341.374375 
L 81.834219 341.374375 
" style="fill: none; stroke-dasharray: 5.55,2.4; stroke-dashoffset: 0; stroke: #82c6e2; stroke-width: 1.5"/>
     <g>
      <use xlink:href="#m022b504328" x="71.834219" y="341.374375" style="fill: #ffffff; stroke: #82c6e2; stroke-linejoin: miter"/>
     </g>
    </g>
    <g id="text_21">
     <!-- Precision -->
     <g style="fill: #262626" transform="translate(89.834219 344.874375) scale(0.1 -0.1)">
      <defs>
       <path id="TimesNewRomanPSMT-50" d="M 1313 1984 
L 1313 750 
Q 1313 350 1400 253 
Q 1519 116 1759 116 
L 1922 116 
L 1922 0 
L 106 0 
L 106 116 
L 266 116 
Q 534 116 650 291 
Q 713 388 713 750 
L 713 3488 
Q 713 3888 628 3984 
Q 506 4122 266 4122 
L 106 4122 
L 106 4238 
L 1659 4238 
Q 2228 4238 2556 4120 
Q 2884 4003 3109 3725 
Q 3334 3447 3334 3066 
Q 3334 2547 2992 2222 
Q 2650 1897 2025 1897 
Q 1872 1897 1694 1919 
Q 1516 1941 1313 1984 
z
M 1313 2163 
Q 1478 2131 1606 2115 
Q 1734 2100 1825 2100 
Q 2150 2100 2386 2351 
Q 2622 2603 2622 3003 
Q 2622 3278 2509 3514 
Q 2397 3750 2190 3867 
Q 1984 3984 1722 3984 
Q 1563 3984 1313 3925 
L 1313 2163 
z
" transform="scale(0.015625)"/>
       <path id="TimesNewRomanPSMT-6e" d="M 1034 2341 
Q 1538 2947 1994 2947 
Q 2228 2947 2397 2830 
Q 2566 2713 2666 2444 
Q 2734 2256 2734 1869 
L 2734 647 
Q 2734 375 2778 278 
Q 2813 200 2889 156 
Q 2966 113 3172 113 
L 3172 0 
L 1756 0 
L 1756 113 
L 1816 113 
Q 2016 113 2095 173 
Q 2175 234 2206 353 
Q 2219 400 2219 647 
L 2219 1819 
Q 2219 2209 2117 2386 
Q 2016 2563 1775 2563 
Q 1403 2563 1034 2156 
L 1034 647 
Q 1034 356 1069 288 
Q 1113 197 1189 155 
Q 1266 113 1500 113 
L 1500 0 
L 84 0 
L 84 113 
L 147 113 
Q 366 113 442 223 
Q 519 334 519 647 
L 519 1709 
Q 519 2225 495 2337 
Q 472 2450 423 2490 
Q 375 2531 294 2531 
Q 206 2531 84 2484 
L 38 2597 
L 900 2947 
L 1034 2947 
L 1034 2341 
z
" transform="scale(0.015625)"/>
      </defs>
      <use xlink:href="#TimesNewRomanPSMT-50"/>
      <use xlink:href="#TimesNewRomanPSMT-72" x="55.615234"/>
      <use xlink:href="#TimesNewRomanPSMT-65" x="88.916016"/>
      <use xlink:href="#TimesNewRomanPSMT-63" x="133.300781"/>
      <use xlink:href="#TimesNewRomanPSMT-69" x="177.685547"/>
      <use xlink:href="#TimesNewRomanPSMT-73" x="205.46875"/>
      <use xlink:href="#TimesNewRomanPSMT-69" x="244.384766"/>
      <use xlink:href="#TimesNewRomanPSMT-6f" x="272.167969"/>
      <use xlink:href="#TimesNewRomanPSMT-6e" x="322.167969"/>
     </g>
    </g>
    <g id="line2d_24">
     <path d="M 61.834219 355.513438 
L 71.834219 355.513438 
L 81.834219 355.513438 
" style="fill: none; stroke-dasharray: 9.6,2.4,1.5,2.4; stroke-dashoffset: 0; stroke: #956cb4; stroke-width: 1.5"/>
     <g>
      <use xlink:href="#m984f8812d7" x="71.834219" y="355.513438" style="fill: #ffffff; stroke: #956cb4; stroke-linejoin: miter"/>
     </g>
    </g>
    <g id="text_22">
     <!-- Recall -->
     <g style="fill: #262626" transform="translate(89.834219 359.013438) scale(0.1 -0.1)">
      <defs>
       <path id="TimesNewRomanPSMT-52" d="M 4325 0 
L 3194 0 
L 1759 1981 
Q 1600 1975 1500 1975 
Q 1459 1975 1412 1976 
Q 1366 1978 1316 1981 
L 1316 750 
Q 1316 350 1403 253 
Q 1522 116 1759 116 
L 1925 116 
L 1925 0 
L 109 0 
L 109 116 
L 269 116 
Q 538 116 653 291 
Q 719 388 719 750 
L 719 3488 
Q 719 3888 631 3984 
Q 509 4122 269 4122 
L 109 4122 
L 109 4238 
L 1653 4238 
Q 2328 4238 2648 4139 
Q 2969 4041 3192 3777 
Q 3416 3513 3416 3147 
Q 3416 2756 3161 2468 
Q 2906 2181 2372 2063 
L 3247 847 
Q 3547 428 3762 290 
Q 3978 153 4325 116 
L 4325 0 
z
M 1316 2178 
Q 1375 2178 1419 2176 
Q 1463 2175 1491 2175 
Q 2097 2175 2405 2437 
Q 2713 2700 2713 3106 
Q 2713 3503 2464 3751 
Q 2216 4000 1806 4000 
Q 1625 4000 1316 3941 
L 1316 2178 
z
" transform="scale(0.015625)"/>
      </defs>
      <use xlink:href="#TimesNewRomanPSMT-52"/>
      <use xlink:href="#TimesNewRomanPSMT-65" x="66.699219"/>
      <use xlink:href="#TimesNewRomanPSMT-63" x="111.083984"/>
      <use xlink:href="#TimesNewRomanPSMT-61" x="155.46875"/>
      <use xlink:href="#TimesNewRomanPSMT-6c" x="199.853516"/>
      <use xlink:href="#TimesNewRomanPSMT-6c" x="227.636719"/>
     </g>
    </g>
    <g id="line2d_25">
     <path d="M 61.834219 369.6525 
L 71.834219 369.6525 
L 81.834219 369.6525 
" style="fill: none; stroke-dasharray: 1.5,2.475; stroke-dashoffset: 0; stroke: #d5bb67; stroke-width: 1.5"/>
     <g>
      <use xlink:href="#md2a76ea4d0" x="71.834219" y="369.6525" style="fill: #ffffff; stroke: #d5bb67; stroke-linejoin: miter"/>
     </g>
    </g>
    <g id="text_23">
     <!-- F1 -->
     <g style="fill: #262626" transform="translate(89.834219 373.1525) scale(0.1 -0.1)">
      <defs>
       <path id="TimesNewRomanPSMT-46" d="M 1309 4006 
L 1309 2341 
L 2081 2341 
Q 2347 2341 2470 2458 
Q 2594 2575 2634 2922 
L 2750 2922 
L 2750 1488 
L 2634 1488 
Q 2631 1734 2570 1850 
Q 2509 1966 2401 2023 
Q 2294 2081 2081 2081 
L 1309 2081 
L 1309 750 
Q 1309 428 1350 325 
Q 1381 247 1481 191 
Q 1619 116 1769 116 
L 1922 116 
L 1922 0 
L 103 0 
L 103 116 
L 253 116 
Q 516 116 634 269 
Q 709 369 709 750 
L 709 3488 
Q 709 3809 669 3913 
Q 638 3991 541 4047 
Q 406 4122 253 4122 
L 103 4122 
L 103 4238 
L 3256 4238 
L 3297 3306 
L 3188 3306 
Q 3106 3603 2998 3742 
Q 2891 3881 2733 3943 
Q 2575 4006 2244 4006 
L 1309 4006 
z
" transform="scale(0.015625)"/>
      </defs>
      <use xlink:href="#TimesNewRomanPSMT-46"/>
      <use xlink:href="#TimesNewRomanPSMT-31" x="55.615234"/>
     </g>
    </g>
   </g>
  </g>
 </g>
 <defs>
  <clipPath id="p43b0717c8f">
   <rect x="52.834219" y="12.96" width="502.705781" height="371.331562"/>
  </clipPath>
 </defs>
</svg>
