<?xml version="1.0" encoding="utf-8" standalone="no"?>
<!DOCTYPE svg PUBLIC "-//W3C//DTD SVG 1.1//EN"
  "http://www.w3.org/Graphics/SVG/1.1/DTD/svg11.dtd">
<svg xmlns:xlink="http://www.w3.org/1999/xlink" width="460.8pt" height="345.6pt" viewBox="0 0 460.8 345.6" xmlns="http://www.w3.org/2000/svg" version="1.1">
 <metadata>
  <rdf:RDF xmlns:dc="http://purl.org/dc/elements/1.1/" xmlns:cc="http://creativecommons.org/ns#" xmlns:rdf="http://www.w3.org/1999/02/22-rdf-syntax-ns#">
   <cc:Work>
    <dc:type rdf:resource="http://purl.org/dc/dcmitype/StillImage"/>
    <dc:date>2023-09-25T00:44:03.278893</dc:date>
    <dc:format>image/svg+xml</dc:format>
    <dc:creator>
     <cc:Agent>
      <dc:title>Matplotlib v3.7.1, https://matplotlib.org/</dc:title>
     </cc:Agent>
    </dc:creator>
   </cc:Work>
  </rdf:RDF>
 </metadata>
 <defs>
  <style type="text/css">*{stroke-linejoin: round; stroke-linecap: butt}</style>
 </defs>
 <g id="figure_1">
  <g id="patch_1">
   <path d="M 0 345.6 
L 460.8 345.6 
L 460.8 0 
L 0 0 
z
" style="fill: #ffffff"/>
  </g>
  <g id="axes_1">
   <g id="patch_2">
    <path d="M 45.840236 301.32375 
L 353.462484 301.32375 
L 353.462484 10.8 
L 45.840236 10.8 
z
" style="fill: #ffffff"/>
   </g>
   <g id="matplotlib.axis_1">
    <g id="xtick_1">
     <g id="line2d_1">
      <path d="M 59.823066 301.32375 
L 59.823066 10.8 
" clip-path="url(#p09a798b8cf)" style="fill: none; stroke: #cccccc; stroke-linecap: round"/>
     </g>
     <g id="text_1">
      <!-- 0 -->
      <g style="fill: #262626" transform="translate(56.073066 315.239375) scale(0.15 -0.15)">
       <defs>
        <path id="TimesNewRomanPSMT-30" d="M 231 2094 
Q 231 2819 450 3342 
Q 669 3866 1031 4122 
Q 1313 4325 1613 4325 
Q 2100 4325 2488 3828 
Q 2972 3213 2972 2159 
Q 2972 1422 2759 906 
Q 2547 391 2217 158 
Q 1888 -75 1581 -75 
Q 975 -75 572 641 
Q 231 1244 231 2094 
z
M 844 2016 
Q 844 1141 1059 588 
Q 1238 122 1591 122 
Q 1759 122 1940 273 
Q 2122 425 2216 781 
Q 2359 1319 2359 2297 
Q 2359 3022 2209 3506 
Q 2097 3866 1919 4016 
Q 1791 4119 1609 4119 
Q 1397 4119 1231 3928 
Q 1006 3669 925 3112 
Q 844 2556 844 2016 
z
" transform="scale(0.015625)"/>
       </defs>
       <use xlink:href="#TimesNewRomanPSMT-30"/>
      </g>
     </g>
    </g>
    <g id="xtick_2">
     <g id="line2d_2">
      <path d="M 115.86647 301.32375 
L 115.86647 10.8 
" clip-path="url(#p09a798b8cf)" style="fill: none; stroke: #cccccc; stroke-linecap: round"/>
     </g>
     <g id="text_2">
      <!-- 100 -->
      <g style="fill: #262626" transform="translate(104.61647 315.239375) scale(0.15 -0.15)">
       <defs>
        <path id="TimesNewRomanPSMT-31" d="M 750 3822 
L 1781 4325 
L 1884 4325 
L 1884 747 
Q 1884 391 1914 303 
Q 1944 216 2037 169 
Q 2131 122 2419 116 
L 2419 0 
L 825 0 
L 825 116 
Q 1125 122 1212 167 
Q 1300 213 1334 289 
Q 1369 366 1369 747 
L 1369 3034 
Q 1369 3497 1338 3628 
Q 1316 3728 1258 3775 
Q 1200 3822 1119 3822 
Q 1003 3822 797 3725 
L 750 3822 
z
" transform="scale(0.015625)"/>
       </defs>
       <use xlink:href="#TimesNewRomanPSMT-31"/>
       <use xlink:href="#TimesNewRomanPSMT-30" x="50"/>
       <use xlink:href="#TimesNewRomanPSMT-30" x="100"/>
      </g>
     </g>
    </g>
    <g id="xtick_3">
     <g id="line2d_3">
      <path d="M 171.909875 301.32375 
L 171.909875 10.8 
" clip-path="url(#p09a798b8cf)" style="fill: none; stroke: #cccccc; stroke-linecap: round"/>
     </g>
     <g id="text_3">
      <!-- 200 -->
      <g style="fill: #262626" transform="translate(160.659875 315.239375) scale(0.15 -0.15)">
       <defs>
        <path id="TimesNewRomanPSMT-32" d="M 2934 816 
L 2638 0 
L 138 0 
L 138 116 
Q 1241 1122 1691 1759 
Q 2141 2397 2141 2925 
Q 2141 3328 1894 3587 
Q 1647 3847 1303 3847 
Q 991 3847 742 3664 
Q 494 3481 375 3128 
L 259 3128 
Q 338 3706 661 4015 
Q 984 4325 1469 4325 
Q 1984 4325 2329 3994 
Q 2675 3663 2675 3213 
Q 2675 2891 2525 2569 
Q 2294 2063 1775 1497 
Q 997 647 803 472 
L 1909 472 
Q 2247 472 2383 497 
Q 2519 522 2628 598 
Q 2738 675 2819 816 
L 2934 816 
z
" transform="scale(0.015625)"/>
       </defs>
       <use xlink:href="#TimesNewRomanPSMT-32"/>
       <use xlink:href="#TimesNewRomanPSMT-30" x="50"/>
       <use xlink:href="#TimesNewRomanPSMT-30" x="100"/>
      </g>
     </g>
    </g>
    <g id="xtick_4">
     <g id="line2d_4">
      <path d="M 227.953279 301.32375 
L 227.953279 10.8 
" clip-path="url(#p09a798b8cf)" style="fill: none; stroke: #cccccc; stroke-linecap: round"/>
     </g>
     <g id="text_4">
      <!-- 300 -->
      <g style="fill: #262626" transform="translate(216.703279 315.239375) scale(0.15 -0.15)">
       <defs>
        <path id="TimesNewRomanPSMT-33" d="M 325 3431 
Q 506 3859 782 4092 
Q 1059 4325 1472 4325 
Q 1981 4325 2253 3994 
Q 2459 3747 2459 3466 
Q 2459 3003 1878 2509 
Q 2269 2356 2469 2072 
Q 2669 1788 2669 1403 
Q 2669 853 2319 450 
Q 1863 -75 997 -75 
Q 569 -75 414 31 
Q 259 138 259 259 
Q 259 350 332 419 
Q 406 488 509 488 
Q 588 488 669 463 
Q 722 447 909 348 
Q 1097 250 1169 231 
Q 1284 197 1416 197 
Q 1734 197 1970 444 
Q 2206 691 2206 1028 
Q 2206 1275 2097 1509 
Q 2016 1684 1919 1775 
Q 1784 1900 1550 2001 
Q 1316 2103 1072 2103 
L 972 2103 
L 972 2197 
Q 1219 2228 1467 2375 
Q 1716 2522 1828 2728 
Q 1941 2934 1941 3181 
Q 1941 3503 1739 3701 
Q 1538 3900 1238 3900 
Q 753 3900 428 3381 
L 325 3431 
z
" transform="scale(0.015625)"/>
       </defs>
       <use xlink:href="#TimesNewRomanPSMT-33"/>
       <use xlink:href="#TimesNewRomanPSMT-30" x="50"/>
       <use xlink:href="#TimesNewRomanPSMT-30" x="100"/>
      </g>
     </g>
    </g>
    <g id="xtick_5">
     <g id="line2d_5">
      <path d="M 283.996684 301.32375 
L 283.996684 10.8 
" clip-path="url(#p09a798b8cf)" style="fill: none; stroke: #cccccc; stroke-linecap: round"/>
     </g>
     <g id="text_5">
      <!-- 400 -->
      <g style="fill: #262626" transform="translate(272.746684 315.239375) scale(0.15 -0.15)">
       <defs>
        <path id="TimesNewRomanPSMT-34" d="M 2978 1563 
L 2978 1119 
L 2409 1119 
L 2409 0 
L 1894 0 
L 1894 1119 
L 100 1119 
L 100 1519 
L 2066 4325 
L 2409 4325 
L 2409 1563 
L 2978 1563 
z
M 1894 1563 
L 1894 3666 
L 406 1563 
L 1894 1563 
z
" transform="scale(0.015625)"/>
       </defs>
       <use xlink:href="#TimesNewRomanPSMT-34"/>
       <use xlink:href="#TimesNewRomanPSMT-30" x="50"/>
       <use xlink:href="#TimesNewRomanPSMT-30" x="100"/>
      </g>
     </g>
    </g>
    <g id="xtick_6">
     <g id="line2d_6">
      <path d="M 340.040089 301.32375 
L 340.040089 10.8 
" clip-path="url(#p09a798b8cf)" style="fill: none; stroke: #cccccc; stroke-linecap: round"/>
     </g>
     <g id="text_6">
      <!-- 500 -->
      <g style="fill: #262626" transform="translate(328.790089 315.239375) scale(0.15 -0.15)">
       <defs>
        <path id="TimesNewRomanPSMT-35" d="M 2778 4238 
L 2534 3706 
L 1259 3706 
L 981 3138 
Q 1809 3016 2294 2522 
Q 2709 2097 2709 1522 
Q 2709 1188 2573 903 
Q 2438 619 2231 419 
Q 2025 219 1772 97 
Q 1413 -75 1034 -75 
Q 653 -75 479 54 
Q 306 184 306 341 
Q 306 428 378 495 
Q 450 563 559 563 
Q 641 563 702 538 
Q 763 513 909 409 
Q 1144 247 1384 247 
Q 1750 247 2026 523 
Q 2303 800 2303 1197 
Q 2303 1581 2056 1914 
Q 1809 2247 1375 2428 
Q 1034 2569 447 2591 
L 1259 4238 
L 2778 4238 
z
" transform="scale(0.015625)"/>
       </defs>
       <use xlink:href="#TimesNewRomanPSMT-35"/>
       <use xlink:href="#TimesNewRomanPSMT-30" x="50"/>
       <use xlink:href="#TimesNewRomanPSMT-30" x="100"/>
      </g>
     </g>
    </g>
    <g id="text_7">
     <!-- Time (arbitrary unit) -->
     <g style="fill: #262626" transform="translate(150.216048 330.780469) scale(0.12 -0.12)">
      <defs>
       <path id="TimesNewRomanPSMT-54" d="M 3703 4238 
L 3750 3244 
L 3631 3244 
Q 3597 3506 3538 3619 
Q 3441 3800 3280 3886 
Q 3119 3972 2856 3972 
L 2259 3972 
L 2259 734 
Q 2259 344 2344 247 
Q 2463 116 2709 116 
L 2856 116 
L 2856 0 
L 1059 0 
L 1059 116 
L 1209 116 
Q 1478 116 1591 278 
Q 1659 378 1659 734 
L 1659 3972 
L 1150 3972 
Q 853 3972 728 3928 
Q 566 3869 450 3700 
Q 334 3531 313 3244 
L 194 3244 
L 244 4238 
L 3703 4238 
z
" transform="scale(0.015625)"/>
       <path id="TimesNewRomanPSMT-69" d="M 928 4444 
Q 1059 4444 1151 4351 
Q 1244 4259 1244 4128 
Q 1244 3997 1151 3903 
Q 1059 3809 928 3809 
Q 797 3809 703 3903 
Q 609 3997 609 4128 
Q 609 4259 701 4351 
Q 794 4444 928 4444 
z
M 1188 2947 
L 1188 647 
Q 1188 378 1227 289 
Q 1266 200 1342 156 
Q 1419 113 1622 113 
L 1622 0 
L 231 0 
L 231 113 
Q 441 113 512 153 
Q 584 194 626 287 
Q 669 381 669 647 
L 669 1750 
Q 669 2216 641 2353 
Q 619 2453 572 2492 
Q 525 2531 444 2531 
Q 356 2531 231 2484 
L 188 2597 
L 1050 2947 
L 1188 2947 
z
" transform="scale(0.015625)"/>
       <path id="TimesNewRomanPSMT-6d" d="M 1050 2338 
Q 1363 2650 1419 2697 
Q 1559 2816 1721 2881 
Q 1884 2947 2044 2947 
Q 2313 2947 2506 2790 
Q 2700 2634 2766 2338 
Q 3088 2713 3309 2830 
Q 3531 2947 3766 2947 
Q 3994 2947 4170 2830 
Q 4347 2713 4450 2447 
Q 4519 2266 4519 1878 
L 4519 647 
Q 4519 378 4559 278 
Q 4591 209 4675 161 
Q 4759 113 4950 113 
L 4950 0 
L 3538 0 
L 3538 113 
L 3597 113 
Q 3781 113 3884 184 
Q 3956 234 3988 344 
Q 4000 397 4000 647 
L 4000 1878 
Q 4000 2228 3916 2372 
Q 3794 2572 3525 2572 
Q 3359 2572 3192 2489 
Q 3025 2406 2788 2181 
L 2781 2147 
L 2788 2013 
L 2788 647 
Q 2788 353 2820 281 
Q 2853 209 2943 161 
Q 3034 113 3253 113 
L 3253 0 
L 1806 0 
L 1806 113 
Q 2044 113 2133 169 
Q 2222 225 2256 338 
Q 2272 391 2272 647 
L 2272 1878 
Q 2272 2228 2169 2381 
Q 2031 2581 1784 2581 
Q 1616 2581 1450 2491 
Q 1191 2353 1050 2181 
L 1050 647 
Q 1050 366 1089 281 
Q 1128 197 1204 155 
Q 1281 113 1516 113 
L 1516 0 
L 100 0 
L 100 113 
Q 297 113 375 155 
Q 453 197 493 289 
Q 534 381 534 647 
L 534 1741 
Q 534 2213 506 2350 
Q 484 2453 437 2492 
Q 391 2531 309 2531 
Q 222 2531 100 2484 
L 53 2597 
L 916 2947 
L 1050 2947 
L 1050 2338 
z
" transform="scale(0.015625)"/>
       <path id="TimesNewRomanPSMT-65" d="M 681 1784 
Q 678 1147 991 784 
Q 1303 422 1725 422 
Q 2006 422 2214 576 
Q 2422 731 2563 1106 
L 2659 1044 
Q 2594 616 2278 264 
Q 1963 -88 1488 -88 
Q 972 -88 605 314 
Q 238 716 238 1394 
Q 238 2128 614 2539 
Q 991 2950 1559 2950 
Q 2041 2950 2350 2633 
Q 2659 2316 2659 1784 
L 681 1784 
z
M 681 1966 
L 2006 1966 
Q 1991 2241 1941 2353 
Q 1863 2528 1708 2628 
Q 1553 2728 1384 2728 
Q 1125 2728 920 2526 
Q 716 2325 681 1966 
z
" transform="scale(0.015625)"/>
       <path id="TimesNewRomanPSMT-20" transform="scale(0.015625)"/>
       <path id="TimesNewRomanPSMT-28" d="M 1988 -1253 
L 1988 -1369 
Q 1516 -1131 1200 -813 
Q 750 -359 506 256 
Q 263 872 263 1534 
Q 263 2503 741 3301 
Q 1219 4100 1988 4444 
L 1988 4313 
Q 1603 4100 1356 3731 
Q 1109 3363 987 2797 
Q 866 2231 866 1616 
Q 866 947 969 400 
Q 1050 -31 1165 -292 
Q 1281 -553 1476 -793 
Q 1672 -1034 1988 -1253 
z
" transform="scale(0.015625)"/>
       <path id="TimesNewRomanPSMT-61" d="M 1822 413 
Q 1381 72 1269 19 
Q 1100 -59 909 -59 
Q 613 -59 420 144 
Q 228 347 228 678 
Q 228 888 322 1041 
Q 450 1253 767 1440 
Q 1084 1628 1822 1897 
L 1822 2009 
Q 1822 2438 1686 2597 
Q 1550 2756 1291 2756 
Q 1094 2756 978 2650 
Q 859 2544 859 2406 
L 866 2225 
Q 866 2081 792 2003 
Q 719 1925 600 1925 
Q 484 1925 411 2006 
Q 338 2088 338 2228 
Q 338 2497 613 2722 
Q 888 2947 1384 2947 
Q 1766 2947 2009 2819 
Q 2194 2722 2281 2516 
Q 2338 2381 2338 1966 
L 2338 994 
Q 2338 584 2353 492 
Q 2369 400 2405 369 
Q 2441 338 2488 338 
Q 2538 338 2575 359 
Q 2641 400 2828 588 
L 2828 413 
Q 2478 -56 2159 -56 
Q 2006 -56 1915 50 
Q 1825 156 1822 413 
z
M 1822 616 
L 1822 1706 
Q 1350 1519 1213 1441 
Q 966 1303 859 1153 
Q 753 1003 753 825 
Q 753 600 887 451 
Q 1022 303 1197 303 
Q 1434 303 1822 616 
z
" transform="scale(0.015625)"/>
       <path id="TimesNewRomanPSMT-72" d="M 1038 2947 
L 1038 2303 
Q 1397 2947 1775 2947 
Q 1947 2947 2059 2842 
Q 2172 2738 2172 2600 
Q 2172 2478 2090 2393 
Q 2009 2309 1897 2309 
Q 1788 2309 1652 2417 
Q 1516 2525 1450 2525 
Q 1394 2525 1328 2463 
Q 1188 2334 1038 2041 
L 1038 669 
Q 1038 431 1097 309 
Q 1138 225 1241 169 
Q 1344 113 1538 113 
L 1538 0 
L 72 0 
L 72 113 
Q 291 113 397 181 
Q 475 231 506 341 
Q 522 394 522 644 
L 522 1753 
Q 522 2253 501 2348 
Q 481 2444 426 2487 
Q 372 2531 291 2531 
Q 194 2531 72 2484 
L 41 2597 
L 906 2947 
L 1038 2947 
z
" transform="scale(0.015625)"/>
       <path id="TimesNewRomanPSMT-62" d="M 984 2369 
Q 1400 2947 1881 2947 
Q 2322 2947 2650 2570 
Q 2978 2194 2978 1541 
Q 2978 778 2472 313 
Q 2038 -88 1503 -88 
Q 1253 -88 995 3 
Q 738 94 469 275 
L 469 3241 
Q 469 3728 445 3840 
Q 422 3953 372 3993 
Q 322 4034 247 4034 
Q 159 4034 28 3984 
L -16 4094 
L 844 4444 
L 984 4444 
L 984 2369 
z
M 984 2169 
L 984 456 
Q 1144 300 1314 220 
Q 1484 141 1663 141 
Q 1947 141 2192 453 
Q 2438 766 2438 1363 
Q 2438 1913 2192 2208 
Q 1947 2503 1634 2503 
Q 1469 2503 1303 2419 
Q 1178 2356 984 2169 
z
" transform="scale(0.015625)"/>
       <path id="TimesNewRomanPSMT-74" d="M 1031 3803 
L 1031 2863 
L 1700 2863 
L 1700 2644 
L 1031 2644 
L 1031 788 
Q 1031 509 1111 412 
Q 1191 316 1316 316 
Q 1419 316 1516 380 
Q 1613 444 1666 569 
L 1788 569 
Q 1678 263 1478 108 
Q 1278 -47 1066 -47 
Q 922 -47 784 33 
Q 647 113 581 261 
Q 516 409 516 719 
L 516 2644 
L 63 2644 
L 63 2747 
Q 234 2816 414 2980 
Q 594 3144 734 3369 
Q 806 3488 934 3803 
L 1031 3803 
z
" transform="scale(0.015625)"/>
       <path id="TimesNewRomanPSMT-79" d="M 38 2863 
L 1372 2863 
L 1372 2747 
L 1306 2747 
Q 1166 2747 1095 2686 
Q 1025 2625 1025 2534 
Q 1025 2413 1128 2197 
L 1825 753 
L 2466 2334 
Q 2519 2463 2519 2588 
Q 2519 2644 2497 2672 
Q 2472 2706 2419 2726 
Q 2366 2747 2231 2747 
L 2231 2863 
L 3163 2863 
L 3163 2747 
Q 3047 2734 2984 2696 
Q 2922 2659 2847 2556 
Q 2819 2513 2741 2316 
L 1575 -541 
Q 1406 -956 1132 -1168 
Q 859 -1381 606 -1381 
Q 422 -1381 303 -1275 
Q 184 -1169 184 -1031 
Q 184 -900 270 -820 
Q 356 -741 506 -741 
Q 609 -741 788 -809 
Q 913 -856 944 -856 
Q 1038 -856 1148 -759 
Q 1259 -663 1372 -384 
L 1575 113 
L 547 2272 
Q 500 2369 397 2513 
Q 319 2622 269 2659 
Q 197 2709 38 2747 
L 38 2863 
z
" transform="scale(0.015625)"/>
       <path id="TimesNewRomanPSMT-75" d="M 2709 2863 
L 2709 1128 
Q 2709 631 2732 520 
Q 2756 409 2807 365 
Q 2859 322 2928 322 
Q 3025 322 3147 375 
L 3191 266 
L 2334 -88 
L 2194 -88 
L 2194 519 
Q 1825 119 1631 15 
Q 1438 -88 1222 -88 
Q 981 -88 804 51 
Q 628 191 559 409 
Q 491 628 491 1028 
L 491 2306 
Q 491 2509 447 2587 
Q 403 2666 317 2708 
Q 231 2750 6 2747 
L 6 2863 
L 1009 2863 
L 1009 947 
Q 1009 547 1148 422 
Q 1288 297 1484 297 
Q 1619 297 1789 381 
Q 1959 466 2194 703 
L 2194 2325 
Q 2194 2569 2105 2655 
Q 2016 2741 1734 2747 
L 1734 2863 
L 2709 2863 
z
" transform="scale(0.015625)"/>
       <path id="TimesNewRomanPSMT-6e" d="M 1034 2341 
Q 1538 2947 1994 2947 
Q 2228 2947 2397 2830 
Q 2566 2713 2666 2444 
Q 2734 2256 2734 1869 
L 2734 647 
Q 2734 375 2778 278 
Q 2813 200 2889 156 
Q 2966 113 3172 113 
L 3172 0 
L 1756 0 
L 1756 113 
L 1816 113 
Q 2016 113 2095 173 
Q 2175 234 2206 353 
Q 2219 400 2219 647 
L 2219 1819 
Q 2219 2209 2117 2386 
Q 2016 2563 1775 2563 
Q 1403 2563 1034 2156 
L 1034 647 
Q 1034 356 1069 288 
Q 1113 197 1189 155 
Q 1266 113 1500 113 
L 1500 0 
L 84 0 
L 84 113 
L 147 113 
Q 366 113 442 223 
Q 519 334 519 647 
L 519 1709 
Q 519 2225 495 2337 
Q 472 2450 423 2490 
Q 375 2531 294 2531 
Q 206 2531 84 2484 
L 38 2597 
L 900 2947 
L 1034 2947 
L 1034 2341 
z
" transform="scale(0.015625)"/>
       <path id="TimesNewRomanPSMT-29" d="M 144 4313 
L 144 4444 
Q 619 4209 934 3891 
Q 1381 3434 1625 2820 
Q 1869 2206 1869 1541 
Q 1869 572 1392 -226 
Q 916 -1025 144 -1369 
L 144 -1253 
Q 528 -1038 776 -670 
Q 1025 -303 1145 264 
Q 1266 831 1266 1447 
Q 1266 2113 1163 2663 
Q 1084 3094 967 3353 
Q 850 3613 656 3853 
Q 463 4094 144 4313 
z
" transform="scale(0.015625)"/>
      </defs>
      <use xlink:href="#TimesNewRomanPSMT-54"/>
      <use xlink:href="#TimesNewRomanPSMT-69" x="57.583984"/>
      <use xlink:href="#TimesNewRomanPSMT-6d" x="85.367188"/>
      <use xlink:href="#TimesNewRomanPSMT-65" x="163.150391"/>
      <use xlink:href="#TimesNewRomanPSMT-20" x="207.535156"/>
      <use xlink:href="#TimesNewRomanPSMT-28" x="232.535156"/>
      <use xlink:href="#TimesNewRomanPSMT-61" x="265.835938"/>
      <use xlink:href="#TimesNewRomanPSMT-72" x="310.220703"/>
      <use xlink:href="#TimesNewRomanPSMT-62" x="343.521484"/>
      <use xlink:href="#TimesNewRomanPSMT-69" x="393.521484"/>
      <use xlink:href="#TimesNewRomanPSMT-74" x="421.304688"/>
      <use xlink:href="#TimesNewRomanPSMT-72" x="449.087891"/>
      <use xlink:href="#TimesNewRomanPSMT-61" x="482.388672"/>
      <use xlink:href="#TimesNewRomanPSMT-72" x="526.773438"/>
      <use xlink:href="#TimesNewRomanPSMT-79" x="560.074219"/>
      <use xlink:href="#TimesNewRomanPSMT-20" x="610.074219"/>
      <use xlink:href="#TimesNewRomanPSMT-75" x="635.074219"/>
      <use xlink:href="#TimesNewRomanPSMT-6e" x="685.074219"/>
      <use xlink:href="#TimesNewRomanPSMT-69" x="735.074219"/>
      <use xlink:href="#TimesNewRomanPSMT-74" x="762.857422"/>
      <use xlink:href="#TimesNewRomanPSMT-29" x="790.640625"/>
     </g>
    </g>
   </g>
   <g id="matplotlib.axis_2">
    <g id="ytick_1">
     <g id="line2d_7">
      <path d="M 45.840236 286.880477 
L 353.462484 286.880477 
" clip-path="url(#p09a798b8cf)" style="fill: none; stroke: #cccccc; stroke-linecap: round"/>
     </g>
     <g id="text_8">
      <!-- −1 -->
      <g style="fill: #262626" transform="translate(26.381642 292.088289) scale(0.15 -0.15)">
       <defs>
        <path id="TimesNewRomanPSMT-2212" d="M 3484 2000 
L 116 2000 
L 116 2256 
L 3484 2256 
L 3484 2000 
z
" transform="scale(0.015625)"/>
       </defs>
       <use xlink:href="#TimesNewRomanPSMT-2212"/>
       <use xlink:href="#TimesNewRomanPSMT-31" x="56.396484"/>
      </g>
     </g>
    </g>
    <g id="ytick_2">
     <g id="line2d_8">
      <path d="M 45.840236 246.176719 
L 353.462484 246.176719 
" clip-path="url(#p09a798b8cf)" style="fill: none; stroke: #cccccc; stroke-linecap: round"/>
     </g>
     <g id="text_9">
      <!-- 0 -->
      <g style="fill: #262626" transform="translate(34.840236 251.384532) scale(0.15 -0.15)">
       <use xlink:href="#TimesNewRomanPSMT-30"/>
      </g>
     </g>
    </g>
    <g id="ytick_3">
     <g id="line2d_9">
      <path d="M 45.840236 205.472961 
L 353.462484 205.472961 
" clip-path="url(#p09a798b8cf)" style="fill: none; stroke: #cccccc; stroke-linecap: round"/>
     </g>
     <g id="text_10">
      <!-- 1 -->
      <g style="fill: #262626" transform="translate(34.840236 210.680774) scale(0.15 -0.15)">
       <use xlink:href="#TimesNewRomanPSMT-31"/>
      </g>
     </g>
    </g>
    <g id="ytick_4">
     <g id="line2d_10">
      <path d="M 45.840236 164.769203 
L 353.462484 164.769203 
" clip-path="url(#p09a798b8cf)" style="fill: none; stroke: #cccccc; stroke-linecap: round"/>
     </g>
     <g id="text_11">
      <!-- 2 -->
      <g style="fill: #262626" transform="translate(34.840236 169.977016) scale(0.15 -0.15)">
       <use xlink:href="#TimesNewRomanPSMT-32"/>
      </g>
     </g>
    </g>
    <g id="ytick_5">
     <g id="line2d_11">
      <path d="M 45.840236 124.065446 
L 353.462484 124.065446 
" clip-path="url(#p09a798b8cf)" style="fill: none; stroke: #cccccc; stroke-linecap: round"/>
     </g>
     <g id="text_12">
      <!-- 3 -->
      <g style="fill: #262626" transform="translate(34.840236 129.273258) scale(0.15 -0.15)">
       <use xlink:href="#TimesNewRomanPSMT-33"/>
      </g>
     </g>
    </g>
    <g id="ytick_6">
     <g id="line2d_12">
      <path d="M 45.840236 83.361688 
L 353.462484 83.361688 
" clip-path="url(#p09a798b8cf)" style="fill: none; stroke: #cccccc; stroke-linecap: round"/>
     </g>
     <g id="text_13">
      <!-- 4 -->
      <g style="fill: #262626" transform="translate(34.840236 88.5695) scale(0.15 -0.15)">
       <use xlink:href="#TimesNewRomanPSMT-34"/>
      </g>
     </g>
    </g>
    <g id="ytick_7">
     <g id="line2d_13">
      <path d="M 45.840236 42.65793 
L 353.462484 42.65793 
" clip-path="url(#p09a798b8cf)" style="fill: none; stroke: #cccccc; stroke-linecap: round"/>
     </g>
     <g id="text_14">
      <!-- 5 -->
      <g style="fill: #262626" transform="translate(34.840236 47.865742) scale(0.15 -0.15)">
       <use xlink:href="#TimesNewRomanPSMT-35"/>
      </g>
     </g>
    </g>
    <g id="text_15">
     <!-- $X(t)$ -->
     <g style="fill: #262626" transform="translate(11.221642 153.495) scale(0.12 -0.12)">
      <defs>
       <path id="DejaVuSans-Oblique-58" d="M 878 4666 
L 1516 4666 
L 2316 2981 
L 3763 4666 
L 4500 4666 
L 2578 2438 
L 3738 0 
L 3103 0 
L 2163 1966 
L 459 0 
L -275 0 
L 1906 2509 
L 878 4666 
z
" transform="scale(0.015625)"/>
       <path id="DejaVuSans-28" d="M 1984 4856 
Q 1566 4138 1362 3434 
Q 1159 2731 1159 2009 
Q 1159 1288 1364 580 
Q 1569 -128 1984 -844 
L 1484 -844 
Q 1016 -109 783 600 
Q 550 1309 550 2009 
Q 550 2706 781 3412 
Q 1013 4119 1484 4856 
L 1984 4856 
z
" transform="scale(0.015625)"/>
       <path id="DejaVuSans-Oblique-74" d="M 2706 3500 
L 2619 3053 
L 1472 3053 
L 1100 1153 
Q 1081 1047 1072 975 
Q 1063 903 1063 863 
Q 1063 663 1183 572 
Q 1303 481 1569 481 
L 2150 481 
L 2053 0 
L 1503 0 
Q 991 0 739 200 
Q 488 400 488 806 
Q 488 878 497 964 
Q 506 1050 525 1153 
L 897 3053 
L 409 3053 
L 500 3500 
L 978 3500 
L 1172 4494 
L 1747 4494 
L 1556 3500 
L 2706 3500 
z
" transform="scale(0.015625)"/>
       <path id="DejaVuSans-29" d="M 513 4856 
L 1013 4856 
Q 1481 4119 1714 3412 
Q 1947 2706 1947 2009 
Q 1947 1309 1714 600 
Q 1481 -109 1013 -844 
L 513 -844 
Q 928 -128 1133 580 
Q 1338 1288 1338 2009 
Q 1338 2731 1133 3434 
Q 928 4138 513 4856 
z
" transform="scale(0.015625)"/>
      </defs>
      <use xlink:href="#DejaVuSans-Oblique-58" transform="translate(0 0.125)"/>
      <use xlink:href="#DejaVuSans-28" transform="translate(68.505859 0.125)"/>
      <use xlink:href="#DejaVuSans-Oblique-74" transform="translate(107.519531 0.125)"/>
      <use xlink:href="#DejaVuSans-29" transform="translate(146.728516 0.125)"/>
     </g>
    </g>
   </g>
   <g id="line2d_14">
    <path d="M 59.823066 274.302457 
L 60.3835 252.869817 
L 60.943934 251.020694 
L 61.504368 224.609551 
L 62.064802 265.770454 
L 62.625236 264.322092 
L 63.18567 274.618682 
L 63.746104 148.055573 
L 64.306538 271.87934 
L 64.866972 247.642865 
L 65.427406 161.477572 
L 65.98784 249.296098 
L 66.548274 170.682738 
L 67.108708 250.152754 
L 67.669142 241.116702 
L 68.79001 216.277325 
L 69.350444 256.895648 
L 69.910878 275.485258 
L 70.471313 267.351043 
L 71.031747 197.283011 
L 71.592181 255.46444 
L 72.152615 248.940171 
L 72.713049 236.878918 
L 73.273483 271.956867 
L 73.833917 147.564252 
L 74.394351 249.234062 
L 74.954785 270.712253 
L 75.515219 272.928426 
L 76.075653 220.212945 
L 76.636087 275.478879 
L 77.196521 272.985506 
L 77.756955 275.306833 
L 78.317389 262.199432 
L 78.877823 262.324338 
L 79.438257 258.757288 
L 79.998691 222.7841 
L 80.559125 265.093189 
L 81.119559 260.265764 
L 81.679993 275.381126 
L 82.240428 236.997553 
L 82.800862 264.684299 
L 83.361296 226.779024 
L 83.92173 258.109605 
L 84.482164 185.44188 
L 85.042598 258.205483 
L 85.603032 93.062154 
L 86.163466 222.211433 
L 86.7239 242.586435 
L 87.284334 271.168 
L 87.844768 180.872797 
L 88.405202 271.664433 
L 88.965636 253.378439 
L 89.52607 274.082397 
L 90.086504 209.894739 
L 90.646938 250.719413 
L 91.207372 251.776695 
L 91.767806 266.012806 
L 92.32824 159.814768 
L 92.888674 188.995651 
L 93.449108 246.239532 
L 94.009542 260.429144 
L 94.569977 270.736425 
L 95.130411 274.027472 
L 95.690845 196.86214 
L 96.251279 274.330122 
L 96.811713 25.04368 
L 97.372147 252.338411 
L 97.932581 272.960068 
L 98.493015 215.508593 
L 99.053449 196.760557 
L 99.613883 275.40889 
L 100.174317 275.24263 
L 100.734751 247.281824 
L 101.295185 266.721116 
L 101.855619 261.096193 
L 102.416053 240.114474 
L 102.976487 237.251058 
L 103.536921 274.792369 
L 104.097355 271.160355 
L 104.657789 237.042864 
L 105.218223 236.680637 
L 106.339091 270.255328 
L 106.899526 274.689755 
L 107.45996 259.07895 
L 108.020394 275.098908 
L 108.580828 273.996085 
L 109.701696 133.069223 
L 110.26213 273.887474 
L 110.822564 273.489159 
L 111.382998 252.031207 
L 111.943432 272.433253 
L 112.503866 244.787942 
L 113.0643 274.177528 
L 114.185168 265.262865 
L 114.745602 271.776588 
L 115.306036 265.227616 
L 115.86647 275.260581 
L 116.426904 248.77075 
L 116.987338 274.779391 
L 117.547772 275.288535 
L 118.108206 273.745072 
L 118.668641 275.230773 
L 119.229075 178.007437 
L 119.789509 223.559448 
L 120.910377 268.999522 
L 121.470811 273.518777 
L 122.031245 260.451675 
L 122.591679 275.50227 
L 123.152113 263.480795 
L 123.712547 200.666894 
L 124.272981 270.961932 
L 124.833415 275.295522 
L 125.393849 274.608012 
L 126.514717 240.601308 
L 127.075151 26.559974 
L 127.635585 235.985374 
L 128.196019 176.878004 
L 128.756453 264.663146 
L 129.316887 251.07835 
L 129.877321 252.853978 
L 130.437755 274.094069 
L 130.99819 225.533583 
L 131.558624 273.028143 
L 132.119058 266.130843 
L 132.679492 269.670751 
L 133.239926 259.327284 
L 133.80036 275.163657 
L 134.360794 265.338939 
L 134.921228 270.381841 
L 135.481662 219.786908 
L 136.042096 262.371492 
L 136.60253 275.428877 
L 137.162964 260.939537 
L 137.723398 206.593425 
L 138.283832 274.577699 
L 138.844266 218.825342 
L 139.965134 275.248494 
L 140.525568 273.120809 
L 141.086002 112.478244 
L 141.646436 275.164654 
L 142.20687 258.91194 
L 142.767304 275.486366 
L 143.327739 253.682629 
L 143.888173 270.043776 
L 144.448607 274.337384 
L 145.009041 260.753846 
L 145.569475 194.562263 
L 146.129909 274.943441 
L 146.690343 272.454656 
L 147.250777 275.497551 
L 147.811211 269.229185 
L 148.371645 268.093667 
L 148.932079 275.412406 
L 149.492513 275.25599 
L 150.052947 275.464199 
L 150.613381 260.146674 
L 151.173815 275.039441 
L 151.734249 191.836012 
L 152.294683 271.404368 
L 152.855117 270.955124 
L 153.415551 254.989387 
L 153.975985 203.168523 
L 154.536419 170.141137 
L 155.096854 242.260162 
L 155.657288 257.682703 
L 156.217722 264.358313 
L 156.778156 122.911577 
L 157.33859 251.88506 
L 157.899024 270.856213 
L 158.459458 273.415235 
L 159.019892 239.650556 
L 159.580326 275.423981 
L 160.14076 243.218264 
L 160.701194 248.430504 
L 161.261628 216.964898 
L 161.822062 90.539567 
L 162.382496 258.23062 
L 162.94293 245.230149 
L 163.503364 272.879452 
L 164.063798 275.4668 
L 164.624232 273.973541 
L 165.184666 250.519429 
L 165.7451 212.57812 
L 166.305534 274.597703 
L 166.865968 275.499705 
L 167.426403 231.637455 
L 167.986837 273.228122 
L 168.547271 221.872907 
L 169.107705 267.432679 
L 169.668139 256.881112 
L 170.228573 264.855985 
L 170.789007 198.494388 
L 171.349441 274.714327 
L 171.909875 274.75759 
L 172.470309 249.233785 
L 173.030743 141.66609 
L 174.151611 252.586382 
L 174.712045 267.520282 
L 175.272479 275.182862 
L 175.832913 270.452053 
L 176.393347 243.415698 
L 176.953781 258.474203 
L 177.514215 268.670883 
L 178.074649 274.861239 
L 178.635083 270.252334 
L 179.755952 249.909529 
L 180.316386 248.179832 
L 180.87682 273.766733 
L 181.437254 275.327008 
L 181.997688 275.416152 
L 182.558122 272.131711 
L 183.118556 267.421187 
L 183.67899 205.782536 
L 184.239424 275.474726 
L 184.799858 255.392643 
L 185.360292 267.524404 
L 185.920726 270.024449 
L 186.48116 269.903213 
L 187.041594 239.549227 
L 187.602028 275.478814 
L 188.162462 261.300393 
L 188.722896 273.265892 
L 189.28333 274.65601 
L 189.843764 256.203038 
L 190.404198 195.270164 
L 190.964632 270.981037 
L 191.525066 263.410366 
L 192.085501 242.015322 
L 192.645935 269.663286 
L 193.206369 238.538088 
L 193.766803 274.421522 
L 194.327237 264.858915 
L 194.887671 274.11932 
L 195.448105 275.347235 
L 196.008539 231.331697 
L 196.568973 263.691012 
L 197.129407 243.411311 
L 197.689841 66.115453 
L 198.250275 225.150339 
L 198.810709 239.015847 
L 199.931577 274.946692 
L 200.492011 255.167616 
L 201.612879 273.838549 
L 202.173313 273.12932 
L 202.733747 247.808996 
L 203.294181 190.988059 
L 203.854616 242.052623 
L 204.41505 254.647161 
L 204.975484 217.381436 
L 205.535918 271.914982 
L 206.096352 261.323121 
L 206.656786 227.009629 
L 207.21722 274.904788 
L 207.777654 247.294203 
L 208.338088 275.468995 
L 208.898522 271.359854 
L 209.458956 269.979214 
L 210.01939 268.253353 
L 210.579824 244.574951 
L 211.700692 269.011643 
L 212.261126 215.846863 
L 212.82156 260.983171 
L 213.381994 273.24984 
L 213.942428 244.224535 
L 214.502862 242.491439 
L 215.063296 251.302618 
L 216.184165 166.574169 
L 216.744599 247.164187 
L 217.305033 264.7376 
L 217.865467 195.923799 
L 218.425901 272.572071 
L 218.986335 250.745905 
L 219.546769 271.373814 
L 220.107203 261.661728 
L 220.667637 274.001563 
L 221.228071 274.964059 
L 221.788505 275.042843 
L 222.348939 254.985505 
L 222.909373 261.614791 
L 223.469807 256.625016 
L 224.030241 235.889837 
L 224.590675 273.32409 
L 225.151109 275.423978 
L 225.711543 267.889819 
L 226.271977 274.473837 
L 226.832411 275.371091 
L 227.392845 268.026859 
L 227.953279 208.204297 
L 228.513714 275.36151 
L 229.074148 275.403905 
L 229.634582 190.553675 
L 230.195016 272.459906 
L 230.75545 264.984554 
L 231.315884 255.167607 
L 231.876318 273.918046 
L 232.436752 243.450879 
L 232.997186 273.702229 
L 233.55762 219.319531 
L 234.118054 272.281534 
L 234.678488 267.110428 
L 235.238922 270.547085 
L 235.799356 267.663305 
L 236.35979 223.092391 
L 236.920224 271.275808 
L 237.480658 257.18686 
L 238.041092 275.489287 
L 238.601526 272.342675 
L 239.16196 272.027397 
L 239.722394 254.352441 
L 240.282829 171.457567 
L 240.843263 273.35373 
L 241.403697 275.45299 
L 241.964131 275.159147 
L 242.524565 250.778238 
L 243.645433 271.701463 
L 244.205867 271.935534 
L 244.766301 257.462969 
L 245.887169 274.930217 
L 246.447603 217.769647 
L 247.008037 244.374291 
L 247.568471 193.278882 
L 248.128905 209.701866 
L 248.689339 272.597004 
L 249.249773 272.121461 
L 249.810207 262.122425 
L 250.370641 274.938366 
L 250.931075 273.650388 
L 251.491509 236.99181 
L 252.051943 232.33172 
L 252.612378 268.264001 
L 253.172812 204.901403 
L 253.733246 275.474398 
L 254.29368 274.28971 
L 254.854114 270.684743 
L 255.414548 270.612158 
L 255.974982 228.449511 
L 256.535416 257.235907 
L 257.09585 236.651952 
L 257.656284 274.664497 
L 258.216718 266.490027 
L 258.777152 261.976127 
L 259.337586 273.396311 
L 259.89802 275.354979 
L 260.458454 245.444566 
L 261.018888 275.25273 
L 261.579322 269.88443 
L 262.139756 169.105193 
L 262.70019 172.018314 
L 263.260624 233.715657 
L 264.381492 267.850195 
L 264.941927 274.634357 
L 265.502361 211.364738 
L 266.062795 274.940552 
L 266.623229 273.869349 
L 267.183663 271.978086 
L 267.744097 191.799581 
L 268.304531 274.391984 
L 268.864965 275.495139 
L 269.425399 256.69851 
L 269.985833 233.069237 
L 270.546267 275.301876 
L 271.106701 240.017171 
L 271.667135 194.293452 
L 272.227569 266.219657 
L 273.348437 137.876033 
L 273.908871 260.053724 
L 274.469305 185.669743 
L 275.029739 266.226974 
L 275.590173 259.371535 
L 276.150607 233.717218 
L 276.711042 269.336517 
L 277.271476 231.368612 
L 277.83191 275.292722 
L 278.392344 275.022701 
L 278.952778 259.668003 
L 279.513212 227.030194 
L 280.073646 273.946034 
L 280.63408 241.832704 
L 281.194514 267.747296 
L 281.754948 184.472368 
L 282.315382 260.36379 
L 282.875816 271.213779 
L 283.43625 213.143232 
L 284.557118 264.868548 
L 285.117552 185.014701 
L 285.677986 269.147393 
L 286.23842 275.422006 
L 286.798854 256.856033 
L 287.359288 272.395948 
L 287.919722 270.031735 
L 288.480156 192.502223 
L 289.040591 272.896887 
L 289.601025 268.50872 
L 290.161459 254.963834 
L 290.721893 113.716251 
L 291.282327 227.948022 
L 291.842761 231.310652 
L 292.403195 183.528826 
L 292.963629 275.281239 
L 293.524063 201.71852 
L 294.084497 255.915777 
L 294.644931 269.690648 
L 295.205365 257.215718 
L 295.765799 260.001894 
L 296.326233 273.890924 
L 296.886667 205.738215 
L 297.447101 271.026277 
L 298.007535 262.491618 
L 299.128403 227.10328 
L 299.688837 187.961987 
L 300.249271 236.515184 
L 300.809705 259.048316 
L 301.37014 253.858705 
L 301.930574 275.289017 
L 302.491008 179.773444 
L 303.051442 271.465148 
L 303.611876 124.43284 
L 304.17231 254.956078 
L 304.732744 64.075114 
L 305.293178 274.9857 
L 306.414046 159.969351 
L 306.97448 208.281686 
L 307.534914 272.927837 
L 308.095348 156.016763 
L 308.655782 260.918199 
L 309.216216 261.448355 
L 309.77665 91.710671 
L 310.337084 245.513597 
L 310.897518 258.443667 
L 311.457952 190.162252 
L 312.018386 271.095643 
L 312.57882 249.253843 
L 313.139255 264.455253 
L 313.699689 273.070532 
L 314.260123 272.506638 
L 314.820557 205.499171 
L 315.380991 264.112867 
L 315.941425 275.385347 
L 316.501859 268.793871 
L 317.062293 193.962105 
L 317.622727 230.329153 
L 318.183161 223.979249 
L 318.743595 270.107462 
L 319.864463 238.212776 
L 320.424897 251.339309 
L 320.985331 118.307844 
L 321.545765 274.738254 
L 322.106199 275.320176 
L 322.666633 250.16444 
L 323.227067 275.405853 
L 323.787501 186.960897 
L 324.347935 44.600214 
L 324.908369 220.045777 
L 326.029238 273.892802 
L 326.589672 219.102324 
L 327.150106 275.263138 
L 327.71054 275.284214 
L 328.270974 240.890162 
L 328.831408 226.480059 
L 329.391842 269.91515 
L 329.952276 265.058388 
L 330.51271 253.143037 
L 331.073144 270.787049 
L 331.633578 274.994759 
L 332.194012 275.353298 
L 332.754446 238.251293 
L 333.31488 248.90445 
L 333.875314 241.230008 
L 334.435748 268.594945 
L 334.996182 275.088888 
L 335.556616 82.723634 
L 336.11705 267.393345 
L 336.677484 270.993192 
L 337.237918 261.782388 
L 337.798353 265.354849 
L 338.358787 275.484202 
L 338.919221 253.122981 
L 339.479655 203.512995 
L 339.479655 203.512995 
" clip-path="url(#p09a798b8cf)" style="fill: none; stroke: #4878d0; stroke-width: 1.5; stroke-linecap: round"/>
   </g>
   <g id="line2d_15">
    <path d="M 59.823066 274.439192 
L 60.3835 252.903849 
L 60.943934 251.040014 
L 61.504368 224.501977 
L 62.064802 265.858798 
L 62.625236 264.409566 
L 63.18567 274.747022 
L 63.746104 147.586504 
L 64.306538 272.001527 
L 64.866972 247.646796 
L 65.427406 161.073358 
L 65.98784 249.306935 
L 66.548274 170.324417 
L 67.108708 250.176568 
L 67.669142 241.092485 
L 68.79001 216.130915 
L 69.350444 256.944159 
L 69.910878 275.619258 
L 70.471313 267.458088 
L 71.031747 197.05048 
L 71.592181 255.503791 
L 72.152615 248.948258 
L 72.713049 236.829226 
L 73.273483 272.074741 
L 73.833917 147.094339 
L 74.394351 249.256091 
L 74.954785 270.840363 
L 75.515219 273.057562 
L 76.075653 220.087239 
L 76.636087 275.610973 
L 77.196521 273.106143 
L 77.756955 275.439042 
L 78.317389 262.267399 
L 78.877823 262.401267 
L 79.438257 258.814071 
L 79.998691 222.677498 
L 80.559125 265.182835 
L 81.119559 260.331456 
L 81.679993 275.519995 
L 82.240428 236.95078 
L 82.800862 264.768933 
L 83.361296 226.685021 
L 83.92173 258.164116 
L 84.482164 185.151758 
L 85.042598 258.259377 
L 85.603032 92.343572 
L 86.163466 222.098756 
L 86.7239 242.583387 
L 87.284334 271.284078 
L 87.844768 180.562218 
L 88.405202 271.780075 
L 88.965636 253.414133 
L 89.52607 274.234273 
L 90.086504 209.724027 
L 90.646938 250.734439 
L 91.207372 251.809604 
L 91.767806 266.107404 
L 92.32824 159.402617 
L 92.888674 188.724414 
L 93.449108 246.255748 
L 94.009542 260.506189 
L 94.569977 270.84783 
L 95.130411 274.153083 
L 95.690845 196.624971 
L 96.251279 274.467939 
L 96.811713 24.005625 
L 97.372147 252.368786 
L 97.932581 273.098993 
L 98.493015 215.36072 
L 99.053449 196.525383 
L 99.613883 275.556292 
L 100.174317 275.379398 
L 100.734751 247.279987 
L 101.295185 266.811279 
L 101.855619 261.159391 
L 102.416053 240.082284 
L 102.976487 237.203302 
L 103.536921 274.92215 
L 104.097355 271.270946 
L 104.657789 236.992141 
L 105.218223 236.630128 
L 106.339091 270.375705 
L 106.899526 274.827868 
L 107.45996 259.133884 
L 108.020394 275.229082 
L 108.580828 274.12014 
L 109.701696 132.535998 
L 110.26213 274.01874 
L 110.822564 273.631566 
L 111.382998 252.055897 
L 111.943432 272.553526 
L 112.503866 244.77506 
L 113.0643 274.325323 
L 114.185168 265.348562 
L 114.745602 271.892094 
L 115.306036 265.314761 
L 115.86647 275.41941 
L 116.426904 248.783142 
L 116.987338 274.919796 
L 117.547772 275.421805 
L 118.108206 273.867476 
L 118.668641 275.359574 
L 119.229075 177.678686 
L 119.789509 223.45388 
L 120.910377 269.103785 
L 121.470811 273.660585 
L 122.031245 260.520275 
L 122.591679 275.63379 
L 123.152113 263.556234 
L 123.712547 200.446096 
L 124.272981 271.076569 
L 124.833415 275.427404 
L 125.393849 274.734107 
L 126.514717 240.569447 
L 127.075151 25.523686 
L 127.635585 235.939977 
L 128.196019 176.57203 
L 128.756453 264.75278 
L 129.316887 251.09918 
L 129.877321 252.879176 
L 130.437755 274.225153 
L 130.99819 225.431763 
L 131.558624 273.153627 
L 132.119058 266.219712 
L 132.679492 269.796332 
L 133.239926 259.388735 
L 133.80036 275.299003 
L 134.360794 265.430006 
L 134.921228 270.49067 
L 135.481662 219.659597 
L 136.042096 262.442716 
L 136.60253 275.5655 
L 137.162964 261.006102 
L 137.723398 206.405831 
L 138.283832 274.708053 
L 138.844266 218.70225 
L 139.965134 275.382334 
L 140.525568 273.240301 
L 141.086002 111.84284 
L 141.646436 275.30799 
L 142.20687 258.970723 
L 142.767304 275.623741 
L 143.327739 253.7136 
L 143.888173 270.153226 
L 144.448607 274.480123 
L 145.009041 260.828497 
L 145.569475 194.319994 
L 146.129909 275.07668 
L 146.690343 272.579437 
L 147.250777 275.629159 
L 147.811211 269.330716 
L 148.371645 268.194847 
L 148.932079 275.543681 
L 149.492513 275.398142 
L 150.052947 275.600589 
L 150.613381 260.231617 
L 151.173815 275.175676 
L 151.734249 191.586751 
L 152.294683 271.527233 
L 152.855117 271.067597 
L 153.415551 255.02714 
L 153.975985 202.971866 
L 154.536419 169.781434 
L 155.096854 242.239547 
L 155.657288 257.736066 
L 156.217722 264.446588 
L 156.778156 122.339067 
L 157.33859 251.917268 
L 157.899024 270.970226 
L 158.459458 273.572278 
L 159.019892 239.622793 
L 159.580326 275.555179 
L 160.14076 243.200157 
L 160.701194 248.43657 
L 161.261628 216.826912 
L 161.822062 89.806429 
L 162.382496 258.291727 
L 162.94293 245.224229 
L 163.503364 273.007642 
L 164.063798 275.603187 
L 164.624232 274.099931 
L 165.184666 250.560332 
L 165.7451 212.42072 
L 166.305534 274.72934 
L 166.865968 275.632427 
L 167.426403 231.582483 
L 167.986837 273.35479 
L 168.547271 221.757744 
L 169.107705 267.528495 
L 169.668139 256.926388 
L 170.228573 264.944997 
L 170.789007 198.267914 
L 171.349441 274.855991 
L 171.909875 274.889307 
L 172.470309 249.239865 
L 173.030743 141.180077 
L 174.151611 252.617573 
L 174.712045 267.617405 
L 175.272479 275.315778 
L 175.832913 270.561263 
L 176.393347 243.406813 
L 176.953781 258.530951 
L 177.514215 268.774947 
L 178.074649 274.989853 
L 178.635083 270.357468 
L 179.755952 249.947586 
L 180.316386 248.190168 
L 180.87682 273.92121 
L 181.437254 275.495217 
L 181.997688 275.554077 
L 182.558122 272.246736 
L 183.118556 267.513205 
L 183.67899 205.589399 
L 184.239424 275.612518 
L 184.799858 255.431509 
L 185.360292 267.625902 
L 185.920726 270.133975 
L 186.48116 270.008973 
L 187.041594 239.524125 
L 187.602028 275.61795 
L 188.162462 261.382277 
L 188.722896 273.392436 
L 189.28333 274.788843 
L 189.843764 256.24574 
L 190.404198 195.026367 
L 190.964632 271.096791 
L 191.525066 263.486562 
L 192.085501 241.988071 
L 192.645935 269.767624 
L 193.206369 238.52255 
L 193.766803 274.555297 
L 194.327237 264.943833 
L 194.887671 274.244516 
L 195.448105 275.478748 
L 196.008539 231.261545 
L 196.568973 263.78409 
L 197.129407 243.396176 
L 197.689841 65.262638 
L 198.250275 225.064073 
L 198.810709 238.984779 
L 199.931577 275.0991 
L 200.492011 255.208856 
L 201.612879 273.971297 
L 202.173313 273.25313 
L 202.733747 247.818845 
L 203.294181 190.723931 
L 203.854616 242.029055 
L 204.41505 254.69439 
L 204.975484 217.245371 
L 205.535918 272.030704 
L 206.096352 261.402243 
L 206.656786 226.915909 
L 207.21722 275.04472 
L 207.777654 247.296294 
L 208.338088 275.609927 
L 208.898522 271.480872 
L 209.458956 270.085569 
L 210.01939 268.352463 
L 210.579824 244.568753 
L 211.700692 269.112172 
L 212.261126 215.707079 
L 212.82156 261.051703 
L 213.381994 273.371518 
L 213.942428 244.209089 
L 214.502862 242.483227 
L 215.063296 251.33456 
L 216.184165 166.200074 
L 216.744599 247.166607 
L 217.305033 264.821668 
L 217.865467 195.681462 
L 218.425901 272.691789 
L 218.986335 250.761916 
L 219.546769 271.495972 
L 220.107203 261.73064 
L 220.667637 274.12475 
L 221.228071 275.093471 
L 221.788505 275.17101 
L 222.348939 255.020469 
L 222.909373 261.694567 
L 223.469807 256.687819 
L 224.030241 235.847626 
L 224.590675 273.448005 
L 225.151109 275.564041 
L 225.711543 267.990147 
L 226.271977 274.600389 
L 226.832411 275.500419 
L 227.392845 268.121289 
L 227.953279 208.017802 
L 228.513714 275.498119 
L 229.074148 275.544336 
L 229.634582 190.299692 
L 230.195016 272.581586 
L 230.75545 265.067252 
L 231.315884 255.218308 
L 231.876318 274.053121 
L 232.436752 243.432777 
L 232.997186 273.824611 
L 233.55762 219.215462 
L 234.118054 272.408569 
L 234.678488 267.205499 
L 235.238922 270.656697 
L 235.799356 267.757029 
L 236.35979 222.975963 
L 236.920224 271.418935 
L 237.480658 257.243288 
L 238.041092 275.624214 
L 238.601526 272.459244 
L 239.16196 272.147255 
L 239.722394 254.384759 
L 240.282829 171.113852 
L 240.843263 273.483152 
L 241.403697 275.607874 
L 241.964131 275.297608 
L 242.524565 250.7987 
L 243.645433 271.814698 
L 244.205867 272.053099 
L 244.766301 257.536221 
L 245.887169 275.067718 
L 246.447603 217.633378 
L 247.008037 244.361413 
L 247.568471 193.024827 
L 248.128905 209.527187 
L 248.689339 272.719022 
L 249.249773 272.238075 
L 249.810207 262.199528 
L 250.370641 275.076609 
L 250.931075 273.781751 
L 251.491509 236.946134 
L 252.051943 232.270419 
L 252.612378 268.370525 
L 253.172812 204.702033 
L 253.733246 275.608546 
L 254.29368 274.426287 
L 254.854114 270.794582 
L 255.414548 270.726682 
L 255.974982 228.36278 
L 256.535416 257.296533 
L 257.09585 236.60699 
L 257.656284 274.798065 
L 258.216718 266.583424 
L 258.777152 262.043372 
L 259.337586 273.517026 
L 259.89802 275.493511 
L 260.458454 245.437388 
L 261.018888 275.382664 
L 261.579322 269.997498 
L 262.139756 168.737236 
L 262.70019 171.665322 
L 263.260624 233.657649 
L 264.381492 267.949611 
L 264.941927 274.765987 
L 265.502361 211.195185 
L 266.062795 275.073055 
L 266.623229 273.996107 
L 267.183663 272.122926 
L 267.744097 191.546885 
L 268.304531 274.527566 
L 268.864965 275.631519 
L 269.425399 256.751059 
L 269.985833 233.00479 
L 270.546267 275.433173 
L 271.106701 239.994159 
L 271.667135 194.046219 
L 272.227569 266.313496 
L 273.348437 137.389196 
L 273.908871 260.125937 
L 274.469305 185.383386 
L 275.029739 266.316554 
L 275.590173 259.428964 
L 276.150607 233.653931 
L 276.711042 269.439475 
L 277.271476 231.294654 
L 277.83191 275.431126 
L 278.392344 275.168409 
L 278.952778 259.733338 
L 279.513212 226.944809 
L 280.073646 274.077399 
L 280.63408 241.806456 
L 281.194514 267.843276 
L 281.754948 184.180776 
L 282.315382 260.427532 
L 282.875816 271.330978 
L 283.43625 212.981717 
L 284.557118 264.951511 
L 285.117552 184.751422 
L 285.677986 269.259584 
L 286.23842 275.553939 
L 286.798854 256.898904 
L 287.359288 272.513366 
L 287.919722 270.13759 
L 288.480156 192.259882 
L 289.040591 273.021905 
L 289.601025 268.60875 
L 290.161459 255.002593 
L 290.721893 113.090677 
L 291.282327 227.861341 
L 291.842761 231.241881 
L 292.403195 183.231765 
L 292.963629 275.414303 
L 293.524063 201.514526 
L 294.084497 255.963361 
L 294.644931 269.800549 
L 295.205365 257.262031 
L 295.765799 260.062644 
L 296.326233 274.015006 
L 296.886667 205.542533 
L 297.447101 271.137571 
L 298.007535 262.566213 
L 299.128403 227.009216 
L 299.688837 187.707107 
L 300.249271 236.473911 
L 300.809705 259.104958 
L 301.37014 253.898306 
L 301.930574 275.425871 
L 302.491008 179.455741 
L 303.051442 271.578936 
L 303.611876 123.865299 
L 304.17231 254.997705 
L 304.732744 63.228297 
L 305.293178 275.124317 
L 306.414046 159.559102 
L 306.97448 208.104037 
L 307.534914 273.05993 
L 308.095348 155.596742 
L 308.655782 261.011781 
L 309.216216 261.527193 
L 309.77665 90.978309 
L 310.337084 245.515981 
L 310.897518 258.501674 
L 311.457952 189.892117 
L 312.018386 271.208 
L 312.57882 249.263191 
L 313.139255 264.534144 
L 313.699689 273.191803 
L 314.260123 272.623692 
L 314.820557 205.300123 
L 315.380991 264.206142 
L 315.941425 275.521424 
L 316.501859 268.892355 
L 317.062293 193.708434 
L 317.622727 230.255511 
L 318.183161 223.874018 
L 318.743595 270.21527 
L 319.864463 238.181614 
L 320.424897 251.359164 
L 320.985331 117.710782 
L 321.545765 274.872831 
L 322.106199 275.472093 
L 322.666633 250.18114 
L 323.227067 275.551714 
L 323.787501 186.681605 
L 324.347935 43.667939 
L 324.908369 219.929703 
L 326.029238 274.022258 
L 326.589672 218.969192 
L 327.150106 275.399841 
L 327.71054 275.421477 
L 328.270974 240.870647 
L 328.831408 226.390442 
L 329.391842 270.022875 
L 329.952276 265.143514 
L 330.51271 253.175981 
L 331.073144 270.899813 
L 331.633578 275.137537 
L 332.194012 275.486357 
L 332.754446 238.205885 
L 333.31488 248.911873 
L 333.875314 241.216835 
L 334.435748 268.698733 
L 334.996182 275.217704 
L 335.556616 81.955637 
L 336.11705 267.493282 
L 336.677484 271.120555 
L 337.237918 261.852271 
L 337.798353 265.437733 
L 338.358787 275.618297 
L 338.919221 253.158252 
L 339.479655 203.309928 
L 339.479655 203.309928 
" clip-path="url(#p09a798b8cf)" style="fill: none; stroke: #ee854a; stroke-width: 0.7; stroke-linecap: round"/>
   </g>
   <g id="line2d_16">
    <path d="M 59.823066 219.628889 
L 60.3835 249.615747 
L 60.943934 265.617504 
L 61.504368 274.654732 
L 62.064802 250.771892 
L 62.625236 239.951281 
L 63.18567 282.443735 
L 63.746104 285.693608 
L 64.306538 195.221089 
L 64.866972 284.938993 
L 65.427406 266.843088 
L 65.98784 232.293591 
L 66.548274 268.717031 
L 67.108708 187.63442 
L 67.669142 266.529733 
L 68.229576 268.544668 
L 68.79001 264.315042 
L 69.350444 240.965834 
L 69.910878 271.298312 
L 70.471313 209.195608 
L 71.031747 277.634445 
L 71.592181 243.678617 
L 72.152615 275.809294 
L 72.713049 270.043761 
L 73.273483 253.853513 
L 73.833917 285.284414 
L 74.394351 161.807079 
L 75.515219 248.74028 
L 76.075653 273.387373 
L 76.636087 259.714609 
L 77.196521 280.558236 
L 77.756955 270.295063 
L 78.317389 287.765035 
L 78.877823 234.218969 
L 79.438257 267.446239 
L 79.998691 226.283485 
L 81.119559 257.015197 
L 81.679993 239.553663 
L 82.240428 276.785359 
L 82.800862 246.912369 
L 83.361296 266.778623 
L 83.92173 242.213078 
L 84.482164 275.130225 
L 85.042598 231.742509 
L 85.603032 246.938778 
L 86.163466 195.089262 
L 86.7239 179.884226 
L 87.284334 271.604374 
L 87.844768 265.599029 
L 88.405202 241.086933 
L 88.965636 246.384768 
L 89.52607 139.560381 
L 90.086504 286.674236 
L 90.646938 255.889937 
L 91.207372 210.135868 
L 91.767806 251.386175 
L 92.32824 283.223302 
L 93.449108 150.9194 
L 94.569977 279.734355 
L 95.130411 272.85234 
L 95.690845 275.558486 
L 96.251279 192.670907 
L 96.811713 261.60154 
L 97.372147 160.970355 
L 97.932581 204.160064 
L 98.493015 286.495942 
L 99.053449 239.186682 
L 99.613883 179.279658 
L 100.174317 274.589352 
L 100.734751 284.728579 
L 101.295185 269.38562 
L 101.855619 282.968599 
L 102.416053 259.933045 
L 102.976487 270.692628 
L 103.536921 261.305604 
L 104.097355 287.59213 
L 104.657789 283.509746 
L 105.218223 263.259608 
L 105.778657 247.83088 
L 106.339091 210.83375 
L 106.899526 243.001866 
L 107.45996 286.78578 
L 108.020394 269.461206 
L 108.580828 284.666082 
L 109.141262 220.058761 
L 109.701696 247.020324 
L 110.26213 203.302606 
L 110.822564 193.933263 
L 111.382998 285.227426 
L 111.943432 253.693153 
L 112.503866 286.184482 
L 113.0643 149.096947 
L 113.624734 270.630517 
L 114.185168 268.375307 
L 114.745602 271.765974 
L 115.306036 260.111316 
L 115.86647 132.038049 
L 116.426904 287.61742 
L 116.987338 203.944284 
L 117.547772 286.865561 
L 118.108206 282.239301 
L 118.668641 286.141023 
L 119.229075 287.531947 
L 119.789509 207.494224 
L 120.349943 208.778063 
L 120.910377 273.492546 
L 121.470811 176.025825 
L 122.031245 267.61224 
L 122.591679 278.346239 
L 123.152113 277.871197 
L 123.712547 278.635526 
L 124.272981 231.765171 
L 124.833415 285.086002 
L 125.393849 284.658702 
L 125.954283 250.448433 
L 126.514717 278.719897 
L 127.075151 253.94057 
L 127.635585 157.735572 
L 128.196019 163.299753 
L 128.756453 232.754595 
L 129.316887 267.842757 
L 129.877321 274.244987 
L 130.437755 241.262376 
L 130.99819 281.874222 
L 131.558624 233.126651 
L 132.119058 284.94319 
L 132.679492 161.945252 
L 133.239926 280.211532 
L 133.80036 245.772905 
L 134.360794 250.79098 
L 134.921228 277.480696 
L 135.481662 262.15696 
L 136.042096 258.771582 
L 136.60253 252.764336 
L 137.162964 269.000073 
L 137.723398 252.213191 
L 138.283832 248.125504 
L 138.844266 225.884648 
L 139.4047 221.689775 
L 139.965134 268.150218 
L 140.525568 287.463782 
L 141.086002 278.663824 
L 141.646436 155.381272 
L 142.20687 287.663196 
L 142.767304 240.798205 
L 143.327739 280.217197 
L 143.888173 253.488087 
L 144.448607 197.509655 
L 145.009041 237.280792 
L 145.569475 251.265698 
L 146.129909 238.246495 
L 146.690343 251.527404 
L 147.250777 286.375458 
L 147.811211 280.515456 
L 148.371645 253.810407 
L 148.932079 283.896687 
L 149.492513 216.408312 
L 150.052947 271.346847 
L 150.613381 147.062867 
L 151.173815 276.585138 
L 151.734249 213.961593 
L 152.294683 215.045359 
L 152.855117 284.775729 
L 153.415551 262.703006 
L 153.975985 214.897717 
L 154.536419 252.339971 
L 155.096854 230.738668 
L 155.657288 253.168758 
L 156.217722 233.268983 
L 156.778156 218.425375 
L 157.33859 184.960603 
L 157.899024 276.360308 
L 158.459458 92.898195 
L 159.019892 283.88199 
L 159.580326 266.541374 
L 160.14076 272.100375 
L 160.701194 261.602844 
L 161.261628 245.762086 
L 161.822062 243.443088 
L 162.382496 171.965187 
L 162.94293 279.216512 
L 163.503364 222.478776 
L 164.063798 268.876318 
L 164.624232 272.100707 
L 165.184666 139.894644 
L 165.7451 275.096569 
L 166.305534 237.257341 
L 166.865968 285.341003 
L 167.426403 173.961278 
L 167.986837 264.912068 
L 168.547271 254.393528 
L 169.107705 257.533256 
L 169.668139 276.595107 
L 170.228573 234.732174 
L 170.789007 267.565602 
L 171.349441 184.762718 
L 171.909875 287.387097 
L 172.470309 287.53726 
L 173.030743 206.718273 
L 173.591177 171.925156 
L 174.151611 247.394646 
L 174.712045 265.004081 
L 175.272479 266.136976 
L 175.832913 276.064179 
L 176.393347 223.981331 
L 176.953781 257.292411 
L 177.514215 256.031326 
L 178.074649 283.807551 
L 178.635083 287.409505 
L 179.195517 278.131841 
L 179.755952 133.204048 
L 180.316386 275.061851 
L 180.87682 108.030404 
L 181.437254 130.827069 
L 181.997688 286.759345 
L 182.558122 281.213433 
L 183.118556 286.212844 
L 184.239424 229.044146 
L 184.799858 284.355268 
L 185.360292 232.324098 
L 185.920726 270.981479 
L 186.48116 277.540209 
L 187.041594 213.019218 
L 187.602028 246.369139 
L 188.162462 198.998165 
L 188.722896 269.155887 
L 189.28333 254.224385 
L 189.843764 276.716527 
L 190.404198 264.000951 
L 190.964632 228.786292 
L 191.525066 284.88842 
L 192.085501 281.252693 
L 192.645935 266.828286 
L 193.206369 140.496558 
L 193.766803 268.957308 
L 194.327237 264.424801 
L 194.887671 279.78001 
L 195.448105 275.554351 
L 196.008539 249.200543 
L 196.568973 183.821772 
L 197.129407 281.137898 
L 197.689841 267.480249 
L 198.250275 113.801777 
L 198.810709 263.505013 
L 199.371143 210.536653 
L 199.931577 169.957033 
L 200.492011 283.104099 
L 201.052445 272.308477 
L 201.612879 230.765169 
L 202.173313 275.174725 
L 202.733747 235.284786 
L 203.294181 274.200099 
L 204.41505 206.987494 
L 204.975484 263.728625 
L 205.535918 259.534974 
L 206.096352 209.157022 
L 206.656786 280.789976 
L 207.21722 204.28352 
L 207.777654 284.405103 
L 208.338088 218.673323 
L 209.458956 282.771806 
L 210.01939 268.291853 
L 210.579824 240.059811 
L 211.140258 270.56915 
L 211.700692 278.659481 
L 212.261126 229.421649 
L 212.82156 246.665332 
L 213.381994 280.573713 
L 213.942428 278.28238 
L 214.502862 188.169121 
L 215.063296 220.266717 
L 215.62373 230.261711 
L 216.184165 236.388439 
L 216.744599 234.282937 
L 217.305033 266.804391 
L 217.865467 278.22728 
L 218.425901 243.449914 
L 218.986335 284.531873 
L 219.546769 217.244452 
L 220.107203 283.400975 
L 220.667637 280.924391 
L 221.228071 276.767961 
L 221.788505 286.78216 
L 222.348939 278.083622 
L 222.909373 201.998506 
L 223.469807 191.841257 
L 224.590675 266.321236 
L 225.151109 235.965724 
L 225.711543 268.130751 
L 226.271977 281.341353 
L 226.832411 287.330685 
L 227.392845 287.821322 
L 227.953279 283.286345 
L 228.513714 226.167436 
L 229.074148 245.748431 
L 229.634582 216.060776 
L 230.195016 246.448338 
L 230.75545 285.046626 
L 231.315884 196.770703 
L 232.436752 285.313525 
L 232.997186 271.171309 
L 233.55762 130.90157 
L 234.118054 247.817597 
L 234.678488 272.088169 
L 235.238922 271.91243 
L 235.799356 285.375086 
L 236.35979 283.548023 
L 236.920224 95.342224 
L 237.480658 273.315863 
L 238.041092 257.335968 
L 238.601526 286.764913 
L 239.16196 252.10255 
L 239.722394 285.329295 
L 240.282829 197.369847 
L 240.843263 226.818849 
L 241.403697 169.88552 
L 241.964131 266.322231 
L 242.524565 256.17105 
L 243.645433 280.345362 
L 244.205867 263.516724 
L 244.766301 143.25575 
L 245.326735 262.922635 
L 245.887169 235.967554 
L 246.447603 272.839831 
L 247.008037 252.277076 
L 247.568471 271.85025 
L 248.128905 237.908559 
L 248.689339 248.103188 
L 249.249773 282.723305 
L 249.810207 233.041839 
L 250.931075 246.174117 
L 251.491509 268.386351 
L 252.051943 216.664145 
L 252.612378 235.98265 
L 253.172812 284.295267 
L 253.733246 240.552778 
L 254.29368 234.341957 
L 254.854114 287.367382 
L 255.414548 244.40337 
L 255.974982 272.555093 
L 256.535416 187.180491 
L 257.09585 267.708223 
L 257.656284 238.836751 
L 258.216718 268.884555 
L 258.777152 283.516377 
L 259.337586 279.016269 
L 259.89802 238.713374 
L 260.458454 277.67204 
L 261.018888 272.651098 
L 261.579322 239.779615 
L 262.139756 285.139477 
L 262.70019 231.956157 
L 263.260624 222.522822 
L 263.821058 253.583934 
L 264.381492 259.248231 
L 264.941927 261.094049 
L 265.502361 282.213301 
L 266.062795 238.724827 
L 266.623229 276.040223 
L 267.183663 122.696951 
L 267.744097 274.448775 
L 268.304531 204.658013 
L 268.864965 275.250898 
L 269.425399 231.30477 
L 269.985833 268.754085 
L 270.546267 265.127131 
L 271.106701 218.955271 
L 271.667135 269.188423 
L 272.227569 224.457852 
L 272.788003 274.980091 
L 273.348437 103.002399 
L 273.908871 214.71089 
L 274.469305 269.517812 
L 275.029739 244.161196 
L 275.590173 277.695814 
L 276.150607 266.241237 
L 276.711042 267.581532 
L 277.271476 270.481875 
L 277.83191 226.354988 
L 278.392344 208.397053 
L 278.952778 256.599468 
L 279.513212 223.121504 
L 280.073646 242.274125 
L 280.63408 287.190707 
L 281.194514 261.647153 
L 281.754948 256.454947 
L 282.315382 238.378886 
L 282.875816 255.866882 
L 283.43625 284.285958 
L 283.996684 251.003667 
L 284.557118 267.63917 
L 285.117552 117.925194 
L 285.677986 240.733618 
L 286.23842 284.780615 
L 286.798854 283.474824 
L 287.359288 269.900309 
L 287.919722 281.316391 
L 288.480156 190.961008 
L 289.040591 247.534799 
L 289.601025 280.872362 
L 290.161459 257.069006 
L 290.721893 260.229757 
L 291.282327 203.266044 
L 291.842761 246.451177 
L 292.403195 254.217265 
L 293.524063 230.016394 
L 294.084497 226.631526 
L 294.644931 258.496089 
L 295.205365 279.907455 
L 295.765799 262.5615 
L 296.326233 278.895525 
L 296.886667 275.106174 
L 297.447101 253.701469 
L 298.007535 263.388351 
L 298.567969 269.176657 
L 299.128403 262.554655 
L 299.688837 135.637411 
L 300.249271 236.723664 
L 300.809705 266.145271 
L 301.37014 226.316205 
L 302.491008 282.212473 
L 303.051442 240.779103 
L 303.611876 230.064408 
L 304.17231 208.595572 
L 304.732744 209.929908 
L 305.293178 179.556751 
L 305.853612 287.733219 
L 306.97448 213.754028 
L 307.534914 209.633522 
L 308.095348 244.844904 
L 308.655782 88.664322 
L 309.216216 259.287994 
L 309.77665 279.295502 
L 310.337084 156.341361 
L 310.897518 270.025995 
L 311.457952 278.920276 
L 312.018386 243.539846 
L 312.57882 282.158227 
L 313.139255 274.032378 
L 313.699689 271.555429 
L 314.260123 283.373043 
L 314.820557 285.176274 
L 315.380991 174.316357 
L 315.941425 279.440386 
L 316.501859 287.758582 
L 317.062293 284.634431 
L 317.622727 213.130977 
L 318.183161 254.888971 
L 318.743595 261.163418 
L 319.304029 56.018994 
L 319.864463 269.923386 
L 320.424897 260.01398 
L 320.985331 221.728392 
L 321.545765 209.307125 
L 322.106199 187.708325 
L 322.666633 283.470127 
L 323.227067 192.34105 
L 323.787501 275.78964 
L 324.347935 135.830327 
L 324.908369 175.172447 
L 325.468804 229.546594 
L 326.589672 283.314343 
L 327.150106 226.825807 
L 327.71054 259.271801 
L 328.270974 223.864665 
L 328.831408 234.993654 
L 329.391842 263.388405 
L 329.952276 268.364089 
L 330.51271 245.040838 
L 331.073144 264.388931 
L 331.633578 210.711094 
L 332.194012 287.731875 
L 332.754446 286.802579 
L 333.31488 260.316516 
L 333.875314 189.763556 
L 334.435748 269.315735 
L 334.996182 284.564199 
L 336.11705 192.343729 
L 336.677484 212.357769 
L 337.237918 282.578788 
L 337.798353 279.328667 
L 338.358787 262.536907 
L 338.919221 237.381514 
L 339.479655 263.932147 
L 339.479655 263.932147 
" clip-path="url(#p09a798b8cf)" style="fill: none; stroke: #6acc64; stroke-width: 1.5; stroke-linecap: round"/>
   </g>
   <g id="line2d_17">
    <path d="M 59.823066 219.43877 
L 60.3835 249.600752 
L 60.943934 265.752602 
L 61.504368 274.871436 
L 62.064802 250.835234 
L 62.625236 239.890933 
L 63.18567 282.679424 
L 63.746104 285.997566 
L 64.306538 194.951618 
L 64.866972 285.164291 
L 65.427406 267.031717 
L 65.98784 232.271795 
L 66.548274 268.882896 
L 67.108708 187.287144 
L 67.669142 266.636631 
L 68.229576 268.725161 
L 68.79001 264.479182 
L 69.350444 240.960803 
L 69.910878 271.460487 
L 70.471313 208.920079 
L 71.031747 277.830127 
L 71.592181 243.716196 
L 72.152615 276.012056 
L 72.713049 270.232944 
L 73.273483 253.925294 
L 73.833917 285.569657 
L 74.394351 161.303453 
L 75.515219 248.707895 
L 76.075653 273.568467 
L 76.636087 259.842456 
L 77.196521 280.78466 
L 77.756955 270.462582 
L 78.317389 288.051993 
L 78.877823 234.143998 
L 79.438257 267.575911 
L 79.998691 226.149828 
L 81.119559 257.071729 
L 81.679993 239.496292 
L 82.240428 276.979642 
L 82.800862 246.940134 
L 83.361296 266.916321 
L 83.92173 242.210167 
L 84.482164 275.338321 
L 85.042598 231.7017 
L 85.603032 246.957792 
L 86.163466 194.847027 
L 86.7239 179.39734 
L 87.284334 271.742215 
L 87.844768 265.7483 
L 88.405202 241.10769 
L 88.965636 246.362107 
L 89.52607 138.786765 
L 90.086504 286.883034 
L 90.646938 256.01179 
L 91.207372 209.879678 
L 91.767806 251.392451 
L 92.32824 283.494248 
L 93.449108 150.265324 
L 94.569977 279.942331 
L 95.130411 273.039616 
L 95.690845 275.774283 
L 96.251279 192.338833 
L 96.811713 261.702579 
L 97.372147 160.539308 
L 97.932581 203.79595 
L 98.493015 286.743711 
L 99.053449 239.195873 
L 99.613883 178.828853 
L 100.174317 274.722137 
L 100.734751 284.999615 
L 101.295185 269.570787 
L 101.855619 283.227521 
L 102.416053 260.044414 
L 102.976487 270.883191 
L 103.536921 261.430212 
L 104.097355 287.870756 
L 104.657789 283.785529 
L 105.218223 263.414301 
L 105.778657 247.859016 
L 106.339091 210.57039 
L 106.899526 242.932618 
L 107.45996 287.04968 
L 108.020394 269.637391 
L 108.580828 284.928075 
L 109.141262 219.883546 
L 109.701696 247.065658 
L 110.26213 203.077742 
L 110.822564 193.50589 
L 111.382998 285.451732 
L 111.943432 253.761541 
L 112.503866 286.455535 
L 113.0643 148.423132 
L 113.624734 270.718061 
L 114.185168 268.52722 
L 114.745602 271.943031 
L 115.306036 260.20351 
L 115.86647 131.209941 
L 116.426904 287.819269 
L 116.987338 203.660383 
L 117.547772 287.102104 
L 118.108206 282.494734 
L 118.668641 286.42237 
L 119.229075 287.84471 
L 119.789509 207.300698 
L 120.349943 208.503507 
L 120.910377 273.658644 
L 121.470811 175.518152 
L 122.031245 267.697579 
L 122.591679 278.572757 
L 123.152113 278.09204 
L 123.712547 278.883794 
L 124.272981 231.712401 
L 124.833415 285.330248 
L 125.393849 284.930152 
L 125.954283 250.478873 
L 126.514717 278.947194 
L 127.075151 254.066435 
L 127.635585 157.278857 
L 128.196019 162.673878 
L 128.756453 232.655977 
L 129.316887 267.974132 
L 129.877321 274.454246 
L 130.437755 241.23403 
L 130.99819 282.109353 
L 131.558624 233.066099 
L 132.119058 285.187575 
L 132.679492 161.347075 
L 133.239926 280.381327 
L 133.80036 245.775317 
L 134.360794 250.797571 
L 134.921228 277.687791 
L 135.481662 262.277859 
L 136.042096 258.888688 
L 136.60253 252.800954 
L 137.162964 269.141978 
L 137.723398 252.267634 
L 138.283832 248.16783 
L 138.844266 225.724706 
L 139.4047 221.523056 
L 139.965134 268.286327 
L 140.525568 287.745005 
L 141.086002 278.929195 
L 141.646436 154.849114 
L 142.20687 287.878103 
L 142.767304 240.769967 
L 143.327739 280.433281 
L 143.888173 253.551107 
L 144.448607 197.142115 
L 145.009041 237.162006 
L 145.569475 251.29605 
L 146.129909 238.226728 
L 146.690343 251.533248 
L 147.250777 286.640103 
L 147.811211 280.759052 
L 148.371645 253.8644 
L 148.932079 284.148428 
L 149.492513 216.190702 
L 150.052947 271.479819 
L 150.613381 146.344509 
L 151.173815 276.723692 
L 151.734249 213.73943 
L 152.294683 214.839067 
L 152.855117 285.007793 
L 153.415551 262.824635 
L 153.975985 214.686631 
L 154.536419 252.413279 
L 155.096854 230.691436 
L 155.657288 253.209805 
L 156.217722 233.168529 
L 156.778156 218.230464 
L 157.33859 184.59894 
L 157.899024 276.528337 
L 158.459458 91.796411 
L 159.019892 284.035848 
L 159.580326 266.709648 
L 160.14076 272.276808 
L 160.701194 261.731329 
L 161.261628 245.773229 
L 161.822062 243.478072 
L 162.382496 171.549881 
L 162.94293 279.397269 
L 163.503364 222.325282 
L 164.063798 268.997273 
L 164.624232 272.272157 
L 165.184666 139.128665 
L 165.7451 275.240325 
L 166.305534 237.231666 
L 166.865968 285.58768 
L 167.426403 173.44997 
L 167.986837 265.006323 
L 168.547271 254.448376 
L 169.107705 257.633969 
L 169.668139 276.801328 
L 170.228573 234.657413 
L 170.789007 267.707 
L 171.349441 184.367719 
L 171.909875 287.615498 
L 172.470309 287.836398 
L 173.030743 206.481471 
L 173.591177 171.458824 
L 174.151611 247.389216 
L 174.712045 265.130211 
L 175.272479 266.269216 
L 175.832913 276.263224 
L 176.393347 223.82337 
L 176.953781 257.35761 
L 177.514215 256.094744 
L 178.074649 284.059712 
L 178.635083 287.701068 
L 179.195517 278.365109 
L 179.755952 132.405297 
L 180.316386 275.194253 
L 180.87682 107.053342 
L 181.437254 129.888184 
L 181.997688 286.948651 
L 182.558122 281.46167 
L 183.118556 286.496917 
L 184.239424 228.954411 
L 184.799858 284.593233 
L 185.360292 232.237563 
L 185.920726 271.128913 
L 186.48116 277.756914 
L 187.041594 212.785016 
L 187.602028 246.348776 
L 188.162462 198.635303 
L 188.722896 269.273408 
L 189.28333 254.26971 
L 189.843764 276.916111 
L 190.404198 264.150529 
L 190.964632 228.707166 
L 191.525066 285.131834 
L 192.085501 281.515547 
L 192.645935 266.996427 
L 193.206369 139.737391 
L 193.766803 269.053914 
L 194.327237 264.544082 
L 194.887671 280.011723 
L 195.448105 275.75812 
L 196.008539 249.221372 
L 196.568973 183.385572 
L 197.129407 281.335957 
L 197.689841 267.694071 
L 198.250275 113.011236 
L 198.810709 263.563587 
L 199.371143 210.295725 
L 199.931577 169.374547 
L 200.492011 283.296394 
L 201.052445 272.507757 
L 201.612879 230.651176 
L 202.173313 275.345665 
L 202.733747 235.204122 
L 203.294181 274.403935 
L 204.41505 206.706004 
L 204.975484 263.829068 
L 205.535918 259.658372 
L 206.096352 208.877852 
L 206.656786 281.006666 
L 207.21722 204.014482 
L 207.777654 284.629981 
L 208.338088 218.493758 
L 209.458956 283.011719 
L 210.01939 268.450209 
L 210.579824 240.013413 
L 211.140258 270.738909 
L 211.700692 278.894486 
L 212.261126 229.311063 
L 212.82156 246.678608 
L 213.381994 280.803113 
L 213.942428 278.513275 
L 214.502862 187.776791 
L 215.063296 220.046832 
L 215.62373 230.136011 
L 216.184165 236.355679 
L 216.744599 234.252764 
L 217.305033 266.939949 
L 217.865467 278.465689 
L 218.425901 243.483754 
L 218.986335 284.783357 
L 219.546769 217.052965 
L 220.107203 283.626538 
L 220.667637 281.178666 
L 221.228071 276.981311 
L 221.788505 287.063752 
L 222.348939 278.313394 
L 222.909373 201.692716 
L 223.469807 191.410968 
L 224.590675 266.459205 
L 225.151109 235.878513 
L 225.711543 268.254445 
L 226.271977 281.584136 
L 226.832411 287.61938 
L 227.392845 288.118125 
L 227.953279 283.569075 
L 228.513714 226.070851 
L 229.074148 245.704431 
L 229.634582 215.834265 
L 230.195016 246.468701 
L 230.75545 285.30078 
L 231.315884 196.425542 
L 232.436752 285.568172 
L 232.997186 271.371094 
L 233.55762 130.077384 
L 234.118054 247.772197 
L 234.678488 272.250155 
L 235.238922 272.091692 
L 235.799356 285.648487 
L 236.35979 283.828275 
L 236.920224 94.299608 
L 237.480658 273.39373 
L 238.041092 257.418288 
L 238.601526 287.034337 
L 239.16196 252.145037 
L 239.722394 285.59155 
L 240.282829 197.054677 
L 240.843263 226.701594 
L 241.403697 169.3009 
L 241.964131 266.389927 
L 242.524565 256.231994 
L 243.645433 280.587357 
L 244.205867 263.63733 
L 244.766301 142.50854 
L 245.326735 262.964925 
L 245.887169 235.883537 
L 246.447603 273.007977 
L 247.008037 252.359709 
L 247.568471 272.050147 
L 248.128905 237.913836 
L 248.689339 248.134427 
L 249.249773 282.9603 
L 249.810207 232.947691 
L 250.931075 246.142099 
L 251.491509 268.526045 
L 252.051943 216.477022 
L 252.612378 235.897351 
L 253.172812 284.553138 
L 253.733246 240.562198 
L 254.29368 234.225568 
L 254.854114 287.62791 
L 255.414548 244.392731 
L 255.974982 272.727613 
L 256.535416 186.786526 
L 257.09585 267.818721 
L 257.656284 238.79924 
L 258.216718 269.016338 
L 258.777152 283.778865 
L 259.337586 279.256883 
L 259.89802 238.653758 
L 260.458454 277.870408 
L 261.018888 272.854815 
L 261.579322 239.72334 
L 262.139756 285.411948 
L 262.70019 231.953581 
L 263.260624 222.40441 
L 263.821058 253.630438 
L 264.381492 259.33717 
L 264.941927 261.186471 
L 265.502361 282.465822 
L 266.062795 238.715019 
L 266.623229 276.221388 
L 267.183663 121.806056 
L 267.744097 274.564919 
L 268.304531 204.414779 
L 268.864965 275.405103 
L 269.425399 231.19202 
L 269.985833 268.900915 
L 270.546267 265.280937 
L 271.106701 218.751498 
L 271.667135 269.351452 
L 272.227569 224.35275 
L 272.788003 275.167568 
L 273.348437 102.057653 
L 273.908871 214.476329 
L 274.469305 269.66693 
L 275.029739 244.203825 
L 275.590173 277.901943 
L 276.150607 266.397047 
L 276.711042 267.75207 
L 277.271476 270.654516 
L 277.83191 226.233912 
L 278.392344 208.086161 
L 278.952778 256.625369 
L 279.513212 222.956821 
L 280.073646 242.240756 
L 280.63408 287.46122 
L 281.194514 261.782486 
L 281.754948 256.534495 
L 282.315382 238.374107 
L 282.875816 255.915307 
L 283.43625 284.552272 
L 283.996684 251.089515 
L 284.557118 267.799113 
L 285.117552 117.019878 
L 285.677986 240.656408 
L 286.23842 285.029616 
L 286.798854 283.741201 
L 287.359288 270.079843 
L 287.919722 281.557599 
L 288.480156 190.58108 
L 289.040591 247.545591 
L 289.601025 281.09627 
L 290.161459 257.149789 
L 290.721893 260.357901 
L 291.282327 203.073598 
L 291.842761 246.443419 
L 292.403195 254.299417 
L 293.524063 229.885835 
L 294.084497 226.513784 
L 294.644931 258.559649 
L 295.205365 280.136138 
L 295.765799 262.688595 
L 296.326233 279.12353 
L 296.886667 275.320795 
L 297.447101 253.799446 
L 298.007535 263.49381 
L 298.567969 269.339521 
L 299.128403 262.690366 
L 299.688837 134.883971 
L 300.249271 236.633425 
L 300.809705 266.286951 
L 301.37014 226.175314 
L 302.491008 282.466955 
L 303.051442 240.808972 
L 303.611876 229.951736 
L 304.17231 208.408439 
L 304.732744 209.678221 
L 305.293178 179.191497 
L 305.853612 287.973198 
L 306.97448 213.598357 
L 307.534914 209.375493 
L 308.095348 244.810648 
L 308.655782 87.603248 
L 309.216216 259.268433 
L 309.77665 279.560894 
L 310.337084 155.838569 
L 310.897518 270.138252 
L 311.457952 279.17166 
L 312.018386 243.579501 
L 312.57882 282.394237 
L 313.139255 274.248107 
L 313.699689 271.734902 
L 314.260123 283.628959 
L 314.820557 285.46684 
L 315.380991 173.854552 
L 315.941425 279.613405 
L 316.501859 288.049766 
L 317.062293 284.929121 
L 317.622727 212.962286 
L 318.183161 254.947414 
L 318.743595 261.288232 
L 319.304029 54.648811 
L 319.864463 269.970376 
L 320.424897 260.132895 
L 320.985331 221.584882 
L 321.545765 209.12047 
L 322.106199 187.239164 
L 322.666633 283.676931 
L 323.227067 191.970381 
L 323.787501 275.957514 
L 324.347935 135.147099 
L 324.908369 174.75571 
L 325.468804 229.403151 
L 326.589672 283.570322 
L 327.150106 226.72558 
L 327.71054 259.325024 
L 328.270974 223.692116 
L 328.831408 234.907872 
L 329.391842 263.514749 
L 329.952276 268.51151 
L 330.51271 245.030777 
L 331.073144 264.508086 
L 331.633578 210.444091 
L 332.194012 287.978661 
L 332.754446 287.098509 
L 333.31488 260.448766 
L 333.875314 189.368023 
L 334.435748 269.445006 
L 334.996182 284.830111 
L 336.11705 192.077097 
L 336.677484 212.060805 
L 337.237918 282.795621 
L 337.798353 279.572717 
L 338.358787 262.654013 
L 338.919221 237.30502 
L 339.479655 264.057181 
L 339.479655 264.057181 
" clip-path="url(#p09a798b8cf)" style="fill: none; stroke: #d65f5f; stroke-width: 0.7; stroke-linecap: round"/>
   </g>
   <g id="patch_3">
    <path d="M 45.840236 301.32375 
L 45.840236 10.8 
" style="fill: none; stroke: #cccccc; stroke-width: 1.25; stroke-linejoin: miter; stroke-linecap: square"/>
   </g>
   <g id="patch_4">
    <path d="M 353.462484 301.32375 
L 353.462484 10.8 
" style="fill: none; stroke: #cccccc; stroke-width: 1.25; stroke-linejoin: miter; stroke-linecap: square"/>
   </g>
   <g id="patch_5">
    <path d="M 45.840236 301.32375 
L 353.462484 301.32375 
" style="fill: none; stroke: #cccccc; stroke-width: 1.25; stroke-linejoin: miter; stroke-linecap: square"/>
   </g>
   <g id="patch_6">
    <path d="M 45.840236 10.8 
L 353.462484 10.8 
" style="fill: none; stroke: #cccccc; stroke-width: 1.25; stroke-linejoin: miter; stroke-linecap: square"/>
   </g>
   <g id="legend_1">
    <g id="patch_7">
     <path d="M 361.162484 84.72 
L 447.292484 84.72 
Q 449.492484 84.72 449.492484 82.52 
L 449.492484 18.5 
Q 449.492484 16.3 447.292484 16.3 
L 361.162484 16.3 
Q 358.962484 16.3 358.962484 18.5 
L 358.962484 82.52 
Q 358.962484 84.72 361.162484 84.72 
z
" style="fill: #ffffff; opacity: 0.8; stroke: #cccccc; stroke-linejoin: miter"/>
    </g>
    <g id="line2d_18">
     <path d="M 363.362484 25.21 
L 374.362484 25.21 
L 385.362484 25.21 
" style="fill: none; stroke: #4878d0; stroke-width: 1.5; stroke-linecap: round"/>
    </g>
    <g id="text_16">
     <!-- pred_$x_{0}(t)$ -->
     <g style="fill: #262626" transform="translate(394.162484 29.06) scale(0.11 -0.11)">
      <defs>
       <path id="TimesNewRomanPSMT-70" d="M -6 2578 
L 875 2934 
L 994 2934 
L 994 2266 
Q 1216 2644 1439 2795 
Q 1663 2947 1909 2947 
Q 2341 2947 2628 2609 
Q 2981 2197 2981 1534 
Q 2981 794 2556 309 
Q 2206 -88 1675 -88 
Q 1444 -88 1275 -22 
Q 1150 25 994 166 
L 994 -706 
Q 994 -1000 1030 -1079 
Q 1066 -1159 1155 -1206 
Q 1244 -1253 1478 -1253 
L 1478 -1369 
L -22 -1369 
L -22 -1253 
L 56 -1253 
Q 228 -1256 350 -1188 
Q 409 -1153 442 -1076 
Q 475 -1000 475 -688 
L 475 2019 
Q 475 2297 450 2372 
Q 425 2447 370 2484 
Q 316 2522 222 2522 
Q 147 2522 31 2478 
L -6 2578 
z
M 994 2081 
L 994 1013 
Q 994 666 1022 556 
Q 1066 375 1236 237 
Q 1406 100 1666 100 
Q 1978 100 2172 344 
Q 2425 663 2425 1241 
Q 2425 1897 2138 2250 
Q 1938 2494 1663 2494 
Q 1513 2494 1366 2419 
Q 1253 2363 994 2081 
z
" transform="scale(0.015625)"/>
       <path id="TimesNewRomanPSMT-64" d="M 2222 322 
Q 2013 103 1813 7 
Q 1613 -88 1381 -88 
Q 913 -88 563 304 
Q 213 697 213 1313 
Q 213 1928 600 2439 
Q 988 2950 1597 2950 
Q 1975 2950 2222 2709 
L 2222 3238 
Q 2222 3728 2198 3840 
Q 2175 3953 2125 3993 
Q 2075 4034 2000 4034 
Q 1919 4034 1784 3984 
L 1744 4094 
L 2597 4444 
L 2738 4444 
L 2738 1134 
Q 2738 631 2761 520 
Q 2784 409 2836 365 
Q 2888 322 2956 322 
Q 3041 322 3181 375 
L 3216 266 
L 2366 -88 
L 2222 -88 
L 2222 322 
z
M 2222 541 
L 2222 2016 
Q 2203 2228 2109 2403 
Q 2016 2578 1861 2667 
Q 1706 2756 1559 2756 
Q 1284 2756 1069 2509 
Q 784 2184 784 1559 
Q 784 928 1059 592 
Q 1334 256 1672 256 
Q 1956 256 2222 541 
z
" transform="scale(0.015625)"/>
       <path id="TimesNewRomanPSMT-5f" d="M 3256 -1381 
L -53 -1381 
L -53 -1119 
L 3256 -1119 
L 3256 -1381 
z
" transform="scale(0.015625)"/>
       <path id="DejaVuSans-Oblique-78" d="M 3841 3500 
L 2234 1784 
L 3219 0 
L 2559 0 
L 1819 1388 
L 531 0 
L -166 0 
L 1556 1844 
L 641 3500 
L 1300 3500 
L 1972 2234 
L 3144 3500 
L 3841 3500 
z
" transform="scale(0.015625)"/>
       <path id="DejaVuSans-30" d="M 2034 4250 
Q 1547 4250 1301 3770 
Q 1056 3291 1056 2328 
Q 1056 1369 1301 889 
Q 1547 409 2034 409 
Q 2525 409 2770 889 
Q 3016 1369 3016 2328 
Q 3016 3291 2770 3770 
Q 2525 4250 2034 4250 
z
M 2034 4750 
Q 2819 4750 3233 4129 
Q 3647 3509 3647 2328 
Q 3647 1150 3233 529 
Q 2819 -91 2034 -91 
Q 1250 -91 836 529 
Q 422 1150 422 2328 
Q 422 3509 836 4129 
Q 1250 4750 2034 4750 
z
" transform="scale(0.015625)"/>
      </defs>
      <use xlink:href="#TimesNewRomanPSMT-70" transform="translate(0 0.125)"/>
      <use xlink:href="#TimesNewRomanPSMT-72" transform="translate(50 0.125)"/>
      <use xlink:href="#TimesNewRomanPSMT-65" transform="translate(83.300781 0.125)"/>
      <use xlink:href="#TimesNewRomanPSMT-64" transform="translate(127.685547 0.125)"/>
      <use xlink:href="#TimesNewRomanPSMT-5f" transform="translate(177.685547 0.125)"/>
      <use xlink:href="#DejaVuSans-Oblique-78" transform="translate(227.685547 0.125)"/>
      <use xlink:href="#DejaVuSans-30" transform="translate(286.865234 -16.28125) scale(0.7)"/>
      <use xlink:href="#DejaVuSans-28" transform="translate(334.135742 0.125)"/>
      <use xlink:href="#DejaVuSans-Oblique-74" transform="translate(373.149414 0.125)"/>
      <use xlink:href="#DejaVuSans-29" transform="translate(412.358398 0.125)"/>
     </g>
    </g>
    <g id="line2d_19">
     <path d="M 363.362484 41.49 
L 374.362484 41.49 
L 385.362484 41.49 
" style="fill: none; stroke: #ee854a; stroke-width: 0.7; stroke-linecap: round"/>
    </g>
    <g id="text_17">
     <!-- truth_$x_{0}(t)$ -->
     <g style="fill: #262626" transform="translate(394.162484 45.34) scale(0.11 -0.11)">
      <defs>
       <path id="TimesNewRomanPSMT-68" d="M 1041 4444 
L 1041 2350 
Q 1388 2731 1591 2839 
Q 1794 2947 1997 2947 
Q 2241 2947 2416 2812 
Q 2591 2678 2675 2391 
Q 2734 2191 2734 1659 
L 2734 647 
Q 2734 375 2778 275 
Q 2809 200 2884 156 
Q 2959 113 3159 113 
L 3159 0 
L 1753 0 
L 1753 113 
L 1819 113 
Q 2019 113 2097 173 
Q 2175 234 2206 353 
Q 2216 403 2216 647 
L 2216 1659 
Q 2216 2128 2167 2275 
Q 2119 2422 2012 2495 
Q 1906 2569 1756 2569 
Q 1603 2569 1437 2487 
Q 1272 2406 1041 2159 
L 1041 647 
Q 1041 353 1073 281 
Q 1106 209 1195 161 
Q 1284 113 1503 113 
L 1503 0 
L 84 0 
L 84 113 
Q 275 113 384 172 
Q 447 203 484 290 
Q 522 378 522 647 
L 522 3238 
Q 522 3728 498 3840 
Q 475 3953 426 3993 
Q 378 4034 297 4034 
Q 231 4034 84 3984 
L 41 4094 
L 897 4444 
L 1041 4444 
z
" transform="scale(0.015625)"/>
      </defs>
      <use xlink:href="#TimesNewRomanPSMT-74" transform="translate(0 0.125)"/>
      <use xlink:href="#TimesNewRomanPSMT-72" transform="translate(27.783203 0.125)"/>
      <use xlink:href="#TimesNewRomanPSMT-75" transform="translate(61.083984 0.125)"/>
      <use xlink:href="#TimesNewRomanPSMT-74" transform="translate(111.083984 0.125)"/>
      <use xlink:href="#TimesNewRomanPSMT-68" transform="translate(138.867188 0.125)"/>
      <use xlink:href="#TimesNewRomanPSMT-5f" transform="translate(188.867188 0.125)"/>
      <use xlink:href="#DejaVuSans-Oblique-78" transform="translate(238.867188 0.125)"/>
      <use xlink:href="#DejaVuSans-30" transform="translate(298.046875 -16.28125) scale(0.7)"/>
      <use xlink:href="#DejaVuSans-28" transform="translate(345.317383 0.125)"/>
      <use xlink:href="#DejaVuSans-Oblique-74" transform="translate(384.331055 0.125)"/>
      <use xlink:href="#DejaVuSans-29" transform="translate(423.540039 0.125)"/>
     </g>
    </g>
    <g id="line2d_20">
     <path d="M 363.362484 57.77 
L 374.362484 57.77 
L 385.362484 57.77 
" style="fill: none; stroke: #6acc64; stroke-width: 1.5; stroke-linecap: round"/>
    </g>
    <g id="text_18">
     <!-- pred_$x_{1}(t)$ -->
     <g style="fill: #262626" transform="translate(394.162484 61.62) scale(0.11 -0.11)">
      <defs>
       <path id="DejaVuSans-31" d="M 794 531 
L 1825 531 
L 1825 4091 
L 703 3866 
L 703 4441 
L 1819 4666 
L 2450 4666 
L 2450 531 
L 3481 531 
L 3481 0 
L 794 0 
L 794 531 
z
" transform="scale(0.015625)"/>
      </defs>
      <use xlink:href="#TimesNewRomanPSMT-70" transform="translate(0 0.125)"/>
      <use xlink:href="#TimesNewRomanPSMT-72" transform="translate(50 0.125)"/>
      <use xlink:href="#TimesNewRomanPSMT-65" transform="translate(83.300781 0.125)"/>
      <use xlink:href="#TimesNewRomanPSMT-64" transform="translate(127.685547 0.125)"/>
      <use xlink:href="#TimesNewRomanPSMT-5f" transform="translate(177.685547 0.125)"/>
      <use xlink:href="#DejaVuSans-Oblique-78" transform="translate(227.685547 0.125)"/>
      <use xlink:href="#DejaVuSans-31" transform="translate(286.865234 -16.28125) scale(0.7)"/>
      <use xlink:href="#DejaVuSans-28" transform="translate(334.135742 0.125)"/>
      <use xlink:href="#DejaVuSans-Oblique-74" transform="translate(373.149414 0.125)"/>
      <use xlink:href="#DejaVuSans-29" transform="translate(412.358398 0.125)"/>
     </g>
    </g>
    <g id="line2d_21">
     <path d="M 363.362484 74.05 
L 374.362484 74.05 
L 385.362484 74.05 
" style="fill: none; stroke: #d65f5f; stroke-width: 0.7; stroke-linecap: round"/>
    </g>
    <g id="text_19">
     <!-- truth_$x_{1}(t)$ -->
     <g style="fill: #262626" transform="translate(394.162484 77.9) scale(0.11 -0.11)">
      <use xlink:href="#TimesNewRomanPSMT-74" transform="translate(0 0.125)"/>
      <use xlink:href="#TimesNewRomanPSMT-72" transform="translate(27.783203 0.125)"/>
      <use xlink:href="#TimesNewRomanPSMT-75" transform="translate(61.083984 0.125)"/>
      <use xlink:href="#TimesNewRomanPSMT-74" transform="translate(111.083984 0.125)"/>
      <use xlink:href="#TimesNewRomanPSMT-68" transform="translate(138.867188 0.125)"/>
      <use xlink:href="#TimesNewRomanPSMT-5f" transform="translate(188.867188 0.125)"/>
      <use xlink:href="#DejaVuSans-Oblique-78" transform="translate(238.867188 0.125)"/>
      <use xlink:href="#DejaVuSans-31" transform="translate(298.046875 -16.28125) scale(0.7)"/>
      <use xlink:href="#DejaVuSans-28" transform="translate(345.317383 0.125)"/>
      <use xlink:href="#DejaVuSans-Oblique-74" transform="translate(384.331055 0.125)"/>
      <use xlink:href="#DejaVuSans-29" transform="translate(423.540039 0.125)"/>
     </g>
    </g>
   </g>
  </g>
 </g>
 <defs>
  <clipPath id="p09a798b8cf">
   <rect x="45.840236" y="10.8" width="307.622248" height="290.52375"/>
  </clipPath>
 </defs>
</svg>
