<?xml version="1.0" encoding="utf-8" standalone="no"?>
<!DOCTYPE svg PUBLIC "-//W3C//DTD SVG 1.1//EN"
  "http://www.w3.org/Graphics/SVG/1.1/DTD/svg11.dtd">
<svg xmlns:xlink="http://www.w3.org/1999/xlink" width="576pt" height="432pt" viewBox="0 0 576 432" xmlns="http://www.w3.org/2000/svg" version="1.1">
 <metadata>
  <rdf:RDF xmlns:dc="http://purl.org/dc/elements/1.1/" xmlns:cc="http://creativecommons.org/ns#" xmlns:rdf="http://www.w3.org/1999/02/22-rdf-syntax-ns#">
   <cc:Work>
    <dc:type rdf:resource="http://purl.org/dc/dcmitype/StillImage"/>
    <dc:date>2023-09-30T12:14:33.019765</dc:date>
    <dc:format>image/svg+xml</dc:format>
    <dc:creator>
     <cc:Agent>
      <dc:title>Matplotlib v3.7.1, https://matplotlib.org/</dc:title>
     </cc:Agent>
    </dc:creator>
   </cc:Work>
  </rdf:RDF>
 </metadata>
 <defs>
  <style type="text/css">*{stroke-linejoin: round; stroke-linecap: butt}</style>
 </defs>
 <g id="figure_1">
  <g id="patch_1">
   <path d="M 0 432 
L 576 432 
L 576 0 
L 0 0 
z
" style="fill: #ffffff"/>
  </g>
  <g id="axes_1">
   <g id="patch_2">
    <path d="M 52.834219 384.291562 
L 523.165781 384.291562 
L 523.165781 18.167813 
L 52.834219 18.167813 
z
" style="fill: #ffffff"/>
   </g>
   <g id="matplotlib.axis_1">
    <g id="xtick_1">
     <g id="line2d_1">
      <path d="M 52.834219 384.291562 
L 52.834219 18.167813 
" clip-path="url(#pae0ee44e46)" style="fill: none; stroke: #cccccc; stroke-linecap: round"/>
     </g>
     <g id="text_1">
      <!-- 0 -->
      <g style="fill: #262626" transform="translate(49.084219 398.207187) scale(0.15 -0.15)">
       <defs>
        <path id="TimesNewRomanPSMT-30" d="M 231 2094 
Q 231 2819 450 3342 
Q 669 3866 1031 4122 
Q 1313 4325 1613 4325 
Q 2100 4325 2488 3828 
Q 2972 3213 2972 2159 
Q 2972 1422 2759 906 
Q 2547 391 2217 158 
Q 1888 -75 1581 -75 
Q 975 -75 572 641 
Q 231 1244 231 2094 
z
M 844 2016 
Q 844 1141 1059 588 
Q 1238 122 1591 122 
Q 1759 122 1940 273 
Q 2122 425 2216 781 
Q 2359 1319 2359 2297 
Q 2359 3022 2209 3506 
Q 2097 3866 1919 4016 
Q 1791 4119 1609 4119 
Q 1397 4119 1231 3928 
Q 1006 3669 925 3112 
Q 844 2556 844 2016 
z
" transform="scale(0.015625)"/>
       </defs>
       <use xlink:href="#TimesNewRomanPSMT-30"/>
      </g>
     </g>
    </g>
    <g id="xtick_2">
     <g id="line2d_2">
      <path d="M 99.867375 384.291562 
L 99.867375 18.167813 
" clip-path="url(#pae0ee44e46)" style="fill: none; stroke: #cccccc; stroke-linecap: round"/>
     </g>
     <g id="text_2">
      <!-- 5 -->
      <g style="fill: #262626" transform="translate(96.117375 398.207187) scale(0.15 -0.15)">
       <defs>
        <path id="TimesNewRomanPSMT-35" d="M 2778 4238 
L 2534 3706 
L 1259 3706 
L 981 3138 
Q 1809 3016 2294 2522 
Q 2709 2097 2709 1522 
Q 2709 1188 2573 903 
Q 2438 619 2231 419 
Q 2025 219 1772 97 
Q 1413 -75 1034 -75 
Q 653 -75 479 54 
Q 306 184 306 341 
Q 306 428 378 495 
Q 450 563 559 563 
Q 641 563 702 538 
Q 763 513 909 409 
Q 1144 247 1384 247 
Q 1750 247 2026 523 
Q 2303 800 2303 1197 
Q 2303 1581 2056 1914 
Q 1809 2247 1375 2428 
Q 1034 2569 447 2591 
L 1259 4238 
L 2778 4238 
z
" transform="scale(0.015625)"/>
       </defs>
       <use xlink:href="#TimesNewRomanPSMT-35"/>
      </g>
     </g>
    </g>
    <g id="xtick_3">
     <g id="line2d_3">
      <path d="M 146.900531 384.291562 
L 146.900531 18.167813 
" clip-path="url(#pae0ee44e46)" style="fill: none; stroke: #cccccc; stroke-linecap: round"/>
     </g>
     <g id="text_3">
      <!-- 10 -->
      <g style="fill: #262626" transform="translate(139.400531 398.207187) scale(0.15 -0.15)">
       <defs>
        <path id="TimesNewRomanPSMT-31" d="M 750 3822 
L 1781 4325 
L 1884 4325 
L 1884 747 
Q 1884 391 1914 303 
Q 1944 216 2037 169 
Q 2131 122 2419 116 
L 2419 0 
L 825 0 
L 825 116 
Q 1125 122 1212 167 
Q 1300 213 1334 289 
Q 1369 366 1369 747 
L 1369 3034 
Q 1369 3497 1338 3628 
Q 1316 3728 1258 3775 
Q 1200 3822 1119 3822 
Q 1003 3822 797 3725 
L 750 3822 
z
" transform="scale(0.015625)"/>
       </defs>
       <use xlink:href="#TimesNewRomanPSMT-31"/>
       <use xlink:href="#TimesNewRomanPSMT-30" x="50"/>
      </g>
     </g>
    </g>
    <g id="xtick_4">
     <g id="line2d_4">
      <path d="M 193.933688 384.291562 
L 193.933688 18.167813 
" clip-path="url(#pae0ee44e46)" style="fill: none; stroke: #cccccc; stroke-linecap: round"/>
     </g>
     <g id="text_4">
      <!-- 15 -->
      <g style="fill: #262626" transform="translate(186.433688 398.207187) scale(0.15 -0.15)">
       <use xlink:href="#TimesNewRomanPSMT-31"/>
       <use xlink:href="#TimesNewRomanPSMT-35" x="50"/>
      </g>
     </g>
    </g>
    <g id="xtick_5">
     <g id="line2d_5">
      <path d="M 240.966844 384.291562 
L 240.966844 18.167813 
" clip-path="url(#pae0ee44e46)" style="fill: none; stroke: #cccccc; stroke-linecap: round"/>
     </g>
     <g id="text_5">
      <!-- 20 -->
      <g style="fill: #262626" transform="translate(233.466844 398.207187) scale(0.15 -0.15)">
       <defs>
        <path id="TimesNewRomanPSMT-32" d="M 2934 816 
L 2638 0 
L 138 0 
L 138 116 
Q 1241 1122 1691 1759 
Q 2141 2397 2141 2925 
Q 2141 3328 1894 3587 
Q 1647 3847 1303 3847 
Q 991 3847 742 3664 
Q 494 3481 375 3128 
L 259 3128 
Q 338 3706 661 4015 
Q 984 4325 1469 4325 
Q 1984 4325 2329 3994 
Q 2675 3663 2675 3213 
Q 2675 2891 2525 2569 
Q 2294 2063 1775 1497 
Q 997 647 803 472 
L 1909 472 
Q 2247 472 2383 497 
Q 2519 522 2628 598 
Q 2738 675 2819 816 
L 2934 816 
z
" transform="scale(0.015625)"/>
       </defs>
       <use xlink:href="#TimesNewRomanPSMT-32"/>
       <use xlink:href="#TimesNewRomanPSMT-30" x="50"/>
      </g>
     </g>
    </g>
    <g id="xtick_6">
     <g id="line2d_6">
      <path d="M 288 384.291562 
L 288 18.167813 
" clip-path="url(#pae0ee44e46)" style="fill: none; stroke: #cccccc; stroke-linecap: round"/>
     </g>
     <g id="text_6">
      <!-- 25 -->
      <g style="fill: #262626" transform="translate(280.5 398.207187) scale(0.15 -0.15)">
       <use xlink:href="#TimesNewRomanPSMT-32"/>
       <use xlink:href="#TimesNewRomanPSMT-35" x="50"/>
      </g>
     </g>
    </g>
    <g id="xtick_7">
     <g id="line2d_7">
      <path d="M 335.033156 384.291562 
L 335.033156 18.167813 
" clip-path="url(#pae0ee44e46)" style="fill: none; stroke: #cccccc; stroke-linecap: round"/>
     </g>
     <g id="text_7">
      <!-- 30 -->
      <g style="fill: #262626" transform="translate(327.533156 398.207187) scale(0.15 -0.15)">
       <defs>
        <path id="TimesNewRomanPSMT-33" d="M 325 3431 
Q 506 3859 782 4092 
Q 1059 4325 1472 4325 
Q 1981 4325 2253 3994 
Q 2459 3747 2459 3466 
Q 2459 3003 1878 2509 
Q 2269 2356 2469 2072 
Q 2669 1788 2669 1403 
Q 2669 853 2319 450 
Q 1863 -75 997 -75 
Q 569 -75 414 31 
Q 259 138 259 259 
Q 259 350 332 419 
Q 406 488 509 488 
Q 588 488 669 463 
Q 722 447 909 348 
Q 1097 250 1169 231 
Q 1284 197 1416 197 
Q 1734 197 1970 444 
Q 2206 691 2206 1028 
Q 2206 1275 2097 1509 
Q 2016 1684 1919 1775 
Q 1784 1900 1550 2001 
Q 1316 2103 1072 2103 
L 972 2103 
L 972 2197 
Q 1219 2228 1467 2375 
Q 1716 2522 1828 2728 
Q 1941 2934 1941 3181 
Q 1941 3503 1739 3701 
Q 1538 3900 1238 3900 
Q 753 3900 428 3381 
L 325 3431 
z
" transform="scale(0.015625)"/>
       </defs>
       <use xlink:href="#TimesNewRomanPSMT-33"/>
       <use xlink:href="#TimesNewRomanPSMT-30" x="50"/>
      </g>
     </g>
    </g>
    <g id="xtick_8">
     <g id="line2d_8">
      <path d="M 382.066313 384.291562 
L 382.066313 18.167813 
" clip-path="url(#pae0ee44e46)" style="fill: none; stroke: #cccccc; stroke-linecap: round"/>
     </g>
     <g id="text_8">
      <!-- 35 -->
      <g style="fill: #262626" transform="translate(374.566313 398.207187) scale(0.15 -0.15)">
       <use xlink:href="#TimesNewRomanPSMT-33"/>
       <use xlink:href="#TimesNewRomanPSMT-35" x="50"/>
      </g>
     </g>
    </g>
    <g id="xtick_9">
     <g id="line2d_9">
      <path d="M 429.099469 384.291562 
L 429.099469 18.167813 
" clip-path="url(#pae0ee44e46)" style="fill: none; stroke: #cccccc; stroke-linecap: round"/>
     </g>
     <g id="text_9">
      <!-- 40 -->
      <g style="fill: #262626" transform="translate(421.599469 398.207187) scale(0.15 -0.15)">
       <defs>
        <path id="TimesNewRomanPSMT-34" d="M 2978 1563 
L 2978 1119 
L 2409 1119 
L 2409 0 
L 1894 0 
L 1894 1119 
L 100 1119 
L 100 1519 
L 2066 4325 
L 2409 4325 
L 2409 1563 
L 2978 1563 
z
M 1894 1563 
L 1894 3666 
L 406 1563 
L 1894 1563 
z
" transform="scale(0.015625)"/>
       </defs>
       <use xlink:href="#TimesNewRomanPSMT-34"/>
       <use xlink:href="#TimesNewRomanPSMT-30" x="50"/>
      </g>
     </g>
    </g>
    <g id="xtick_10">
     <g id="line2d_10">
      <path d="M 476.132625 384.291562 
L 476.132625 18.167813 
" clip-path="url(#pae0ee44e46)" style="fill: none; stroke: #cccccc; stroke-linecap: round"/>
     </g>
     <g id="text_10">
      <!-- 45 -->
      <g style="fill: #262626" transform="translate(468.632625 398.207187) scale(0.15 -0.15)">
       <use xlink:href="#TimesNewRomanPSMT-34"/>
       <use xlink:href="#TimesNewRomanPSMT-35" x="50"/>
      </g>
     </g>
    </g>
    <g id="xtick_11">
     <g id="line2d_11">
      <path d="M 523.165781 384.291562 
L 523.165781 18.167813 
" clip-path="url(#pae0ee44e46)" style="fill: none; stroke: #cccccc; stroke-linecap: round"/>
     </g>
     <g id="text_11">
      <!-- 50 -->
      <g style="fill: #262626" transform="translate(515.665781 398.207187) scale(0.15 -0.15)">
       <use xlink:href="#TimesNewRomanPSMT-35"/>
       <use xlink:href="#TimesNewRomanPSMT-30" x="50"/>
      </g>
     </g>
    </g>
    <g id="text_12">
     <!-- Number of variables -->
     <g style="fill: #262626" transform="translate(226.354688 415.831406) scale(0.15 -0.15)">
      <defs>
       <path id="TimesNewRomanPSMT-4e" d="M -84 4238 
L 1066 4238 
L 3656 1059 
L 3656 3503 
Q 3656 3894 3569 3991 
Q 3453 4122 3203 4122 
L 3056 4122 
L 3056 4238 
L 4531 4238 
L 4531 4122 
L 4381 4122 
Q 4113 4122 4000 3959 
Q 3931 3859 3931 3503 
L 3931 -69 
L 3819 -69 
L 1025 3344 
L 1025 734 
Q 1025 344 1109 247 
Q 1228 116 1475 116 
L 1625 116 
L 1625 0 
L 150 0 
L 150 116 
L 297 116 
Q 569 116 681 278 
Q 750 378 750 734 
L 750 3681 
Q 566 3897 470 3965 
Q 375 4034 191 4094 
Q 100 4122 -84 4122 
L -84 4238 
z
" transform="scale(0.015625)"/>
       <path id="TimesNewRomanPSMT-75" d="M 2709 2863 
L 2709 1128 
Q 2709 631 2732 520 
Q 2756 409 2807 365 
Q 2859 322 2928 322 
Q 3025 322 3147 375 
L 3191 266 
L 2334 -88 
L 2194 -88 
L 2194 519 
Q 1825 119 1631 15 
Q 1438 -88 1222 -88 
Q 981 -88 804 51 
Q 628 191 559 409 
Q 491 628 491 1028 
L 491 2306 
Q 491 2509 447 2587 
Q 403 2666 317 2708 
Q 231 2750 6 2747 
L 6 2863 
L 1009 2863 
L 1009 947 
Q 1009 547 1148 422 
Q 1288 297 1484 297 
Q 1619 297 1789 381 
Q 1959 466 2194 703 
L 2194 2325 
Q 2194 2569 2105 2655 
Q 2016 2741 1734 2747 
L 1734 2863 
L 2709 2863 
z
" transform="scale(0.015625)"/>
       <path id="TimesNewRomanPSMT-6d" d="M 1050 2338 
Q 1363 2650 1419 2697 
Q 1559 2816 1721 2881 
Q 1884 2947 2044 2947 
Q 2313 2947 2506 2790 
Q 2700 2634 2766 2338 
Q 3088 2713 3309 2830 
Q 3531 2947 3766 2947 
Q 3994 2947 4170 2830 
Q 4347 2713 4450 2447 
Q 4519 2266 4519 1878 
L 4519 647 
Q 4519 378 4559 278 
Q 4591 209 4675 161 
Q 4759 113 4950 113 
L 4950 0 
L 3538 0 
L 3538 113 
L 3597 113 
Q 3781 113 3884 184 
Q 3956 234 3988 344 
Q 4000 397 4000 647 
L 4000 1878 
Q 4000 2228 3916 2372 
Q 3794 2572 3525 2572 
Q 3359 2572 3192 2489 
Q 3025 2406 2788 2181 
L 2781 2147 
L 2788 2013 
L 2788 647 
Q 2788 353 2820 281 
Q 2853 209 2943 161 
Q 3034 113 3253 113 
L 3253 0 
L 1806 0 
L 1806 113 
Q 2044 113 2133 169 
Q 2222 225 2256 338 
Q 2272 391 2272 647 
L 2272 1878 
Q 2272 2228 2169 2381 
Q 2031 2581 1784 2581 
Q 1616 2581 1450 2491 
Q 1191 2353 1050 2181 
L 1050 647 
Q 1050 366 1089 281 
Q 1128 197 1204 155 
Q 1281 113 1516 113 
L 1516 0 
L 100 0 
L 100 113 
Q 297 113 375 155 
Q 453 197 493 289 
Q 534 381 534 647 
L 534 1741 
Q 534 2213 506 2350 
Q 484 2453 437 2492 
Q 391 2531 309 2531 
Q 222 2531 100 2484 
L 53 2597 
L 916 2947 
L 1050 2947 
L 1050 2338 
z
" transform="scale(0.015625)"/>
       <path id="TimesNewRomanPSMT-62" d="M 984 2369 
Q 1400 2947 1881 2947 
Q 2322 2947 2650 2570 
Q 2978 2194 2978 1541 
Q 2978 778 2472 313 
Q 2038 -88 1503 -88 
Q 1253 -88 995 3 
Q 738 94 469 275 
L 469 3241 
Q 469 3728 445 3840 
Q 422 3953 372 3993 
Q 322 4034 247 4034 
Q 159 4034 28 3984 
L -16 4094 
L 844 4444 
L 984 4444 
L 984 2369 
z
M 984 2169 
L 984 456 
Q 1144 300 1314 220 
Q 1484 141 1663 141 
Q 1947 141 2192 453 
Q 2438 766 2438 1363 
Q 2438 1913 2192 2208 
Q 1947 2503 1634 2503 
Q 1469 2503 1303 2419 
Q 1178 2356 984 2169 
z
" transform="scale(0.015625)"/>
       <path id="TimesNewRomanPSMT-65" d="M 681 1784 
Q 678 1147 991 784 
Q 1303 422 1725 422 
Q 2006 422 2214 576 
Q 2422 731 2563 1106 
L 2659 1044 
Q 2594 616 2278 264 
Q 1963 -88 1488 -88 
Q 972 -88 605 314 
Q 238 716 238 1394 
Q 238 2128 614 2539 
Q 991 2950 1559 2950 
Q 2041 2950 2350 2633 
Q 2659 2316 2659 1784 
L 681 1784 
z
M 681 1966 
L 2006 1966 
Q 1991 2241 1941 2353 
Q 1863 2528 1708 2628 
Q 1553 2728 1384 2728 
Q 1125 2728 920 2526 
Q 716 2325 681 1966 
z
" transform="scale(0.015625)"/>
       <path id="TimesNewRomanPSMT-72" d="M 1038 2947 
L 1038 2303 
Q 1397 2947 1775 2947 
Q 1947 2947 2059 2842 
Q 2172 2738 2172 2600 
Q 2172 2478 2090 2393 
Q 2009 2309 1897 2309 
Q 1788 2309 1652 2417 
Q 1516 2525 1450 2525 
Q 1394 2525 1328 2463 
Q 1188 2334 1038 2041 
L 1038 669 
Q 1038 431 1097 309 
Q 1138 225 1241 169 
Q 1344 113 1538 113 
L 1538 0 
L 72 0 
L 72 113 
Q 291 113 397 181 
Q 475 231 506 341 
Q 522 394 522 644 
L 522 1753 
Q 522 2253 501 2348 
Q 481 2444 426 2487 
Q 372 2531 291 2531 
Q 194 2531 72 2484 
L 41 2597 
L 906 2947 
L 1038 2947 
z
" transform="scale(0.015625)"/>
       <path id="TimesNewRomanPSMT-20" transform="scale(0.015625)"/>
       <path id="TimesNewRomanPSMT-6f" d="M 1600 2947 
Q 2250 2947 2644 2453 
Q 2978 2031 2978 1484 
Q 2978 1100 2793 706 
Q 2609 313 2286 112 
Q 1963 -88 1566 -88 
Q 919 -88 538 428 
Q 216 863 216 1403 
Q 216 1797 411 2186 
Q 606 2575 925 2761 
Q 1244 2947 1600 2947 
z
M 1503 2744 
Q 1338 2744 1170 2645 
Q 1003 2547 900 2300 
Q 797 2053 797 1666 
Q 797 1041 1045 587 
Q 1294 134 1700 134 
Q 2003 134 2200 384 
Q 2397 634 2397 1244 
Q 2397 2006 2069 2444 
Q 1847 2744 1503 2744 
z
" transform="scale(0.015625)"/>
       <path id="TimesNewRomanPSMT-66" d="M 1319 2638 
L 1319 756 
Q 1319 356 1406 250 
Q 1522 113 1716 113 
L 1975 113 
L 1975 0 
L 266 0 
L 266 113 
L 394 113 
Q 519 113 622 175 
Q 725 238 764 344 
Q 803 450 803 756 
L 803 2638 
L 247 2638 
L 247 2863 
L 803 2863 
L 803 3050 
Q 803 3478 940 3775 
Q 1078 4072 1361 4255 
Q 1644 4438 1997 4438 
Q 2325 4438 2600 4225 
Q 2781 4084 2781 3909 
Q 2781 3816 2700 3733 
Q 2619 3650 2525 3650 
Q 2453 3650 2373 3701 
Q 2294 3753 2178 3923 
Q 2063 4094 1966 4153 
Q 1869 4213 1750 4213 
Q 1606 4213 1506 4136 
Q 1406 4059 1362 3898 
Q 1319 3738 1319 3069 
L 1319 2863 
L 2056 2863 
L 2056 2638 
L 1319 2638 
z
" transform="scale(0.015625)"/>
       <path id="TimesNewRomanPSMT-76" d="M 53 2863 
L 1400 2863 
L 1400 2747 
L 1313 2747 
Q 1191 2747 1127 2687 
Q 1063 2628 1063 2528 
Q 1063 2419 1128 2269 
L 1794 688 
L 2463 2328 
Q 2534 2503 2534 2594 
Q 2534 2638 2509 2666 
Q 2475 2713 2422 2730 
Q 2369 2747 2206 2747 
L 2206 2863 
L 3141 2863 
L 3141 2747 
Q 2978 2734 2916 2681 
Q 2806 2588 2719 2369 
L 1703 -88 
L 1575 -88 
L 553 2328 
Q 484 2497 421 2570 
Q 359 2644 263 2694 
Q 209 2722 53 2747 
L 53 2863 
z
" transform="scale(0.015625)"/>
       <path id="TimesNewRomanPSMT-61" d="M 1822 413 
Q 1381 72 1269 19 
Q 1100 -59 909 -59 
Q 613 -59 420 144 
Q 228 347 228 678 
Q 228 888 322 1041 
Q 450 1253 767 1440 
Q 1084 1628 1822 1897 
L 1822 2009 
Q 1822 2438 1686 2597 
Q 1550 2756 1291 2756 
Q 1094 2756 978 2650 
Q 859 2544 859 2406 
L 866 2225 
Q 866 2081 792 2003 
Q 719 1925 600 1925 
Q 484 1925 411 2006 
Q 338 2088 338 2228 
Q 338 2497 613 2722 
Q 888 2947 1384 2947 
Q 1766 2947 2009 2819 
Q 2194 2722 2281 2516 
Q 2338 2381 2338 1966 
L 2338 994 
Q 2338 584 2353 492 
Q 2369 400 2405 369 
Q 2441 338 2488 338 
Q 2538 338 2575 359 
Q 2641 400 2828 588 
L 2828 413 
Q 2478 -56 2159 -56 
Q 2006 -56 1915 50 
Q 1825 156 1822 413 
z
M 1822 616 
L 1822 1706 
Q 1350 1519 1213 1441 
Q 966 1303 859 1153 
Q 753 1003 753 825 
Q 753 600 887 451 
Q 1022 303 1197 303 
Q 1434 303 1822 616 
z
" transform="scale(0.015625)"/>
       <path id="TimesNewRomanPSMT-69" d="M 928 4444 
Q 1059 4444 1151 4351 
Q 1244 4259 1244 4128 
Q 1244 3997 1151 3903 
Q 1059 3809 928 3809 
Q 797 3809 703 3903 
Q 609 3997 609 4128 
Q 609 4259 701 4351 
Q 794 4444 928 4444 
z
M 1188 2947 
L 1188 647 
Q 1188 378 1227 289 
Q 1266 200 1342 156 
Q 1419 113 1622 113 
L 1622 0 
L 231 0 
L 231 113 
Q 441 113 512 153 
Q 584 194 626 287 
Q 669 381 669 647 
L 669 1750 
Q 669 2216 641 2353 
Q 619 2453 572 2492 
Q 525 2531 444 2531 
Q 356 2531 231 2484 
L 188 2597 
L 1050 2947 
L 1188 2947 
z
" transform="scale(0.015625)"/>
       <path id="TimesNewRomanPSMT-6c" d="M 1184 4444 
L 1184 647 
Q 1184 378 1223 290 
Q 1263 203 1344 158 
Q 1425 113 1647 113 
L 1647 0 
L 244 0 
L 244 113 
Q 441 113 512 153 
Q 584 194 625 287 
Q 666 381 666 647 
L 666 3247 
Q 666 3731 644 3842 
Q 622 3953 573 3993 
Q 525 4034 450 4034 
Q 369 4034 244 3984 
L 191 4094 
L 1044 4444 
L 1184 4444 
z
" transform="scale(0.015625)"/>
       <path id="TimesNewRomanPSMT-73" d="M 2050 2947 
L 2050 1972 
L 1947 1972 
Q 1828 2431 1642 2597 
Q 1456 2763 1169 2763 
Q 950 2763 815 2647 
Q 681 2531 681 2391 
Q 681 2216 781 2091 
Q 878 1963 1175 1819 
L 1631 1597 
Q 2266 1288 2266 781 
Q 2266 391 1970 151 
Q 1675 -88 1309 -88 
Q 1047 -88 709 6 
Q 606 38 541 38 
Q 469 38 428 -44 
L 325 -44 
L 325 978 
L 428 978 
Q 516 541 762 319 
Q 1009 97 1316 97 
Q 1531 97 1667 223 
Q 1803 350 1803 528 
Q 1803 744 1651 891 
Q 1500 1038 1047 1263 
Q 594 1488 453 1669 
Q 313 1847 313 2119 
Q 313 2472 555 2709 
Q 797 2947 1181 2947 
Q 1350 2947 1591 2875 
Q 1750 2828 1803 2828 
Q 1853 2828 1881 2850 
Q 1909 2872 1947 2947 
L 2050 2947 
z
" transform="scale(0.015625)"/>
      </defs>
      <use xlink:href="#TimesNewRomanPSMT-4e"/>
      <use xlink:href="#TimesNewRomanPSMT-75" x="72.216797"/>
      <use xlink:href="#TimesNewRomanPSMT-6d" x="122.216797"/>
      <use xlink:href="#TimesNewRomanPSMT-62" x="200"/>
      <use xlink:href="#TimesNewRomanPSMT-65" x="250"/>
      <use xlink:href="#TimesNewRomanPSMT-72" x="294.384766"/>
      <use xlink:href="#TimesNewRomanPSMT-20" x="327.685547"/>
      <use xlink:href="#TimesNewRomanPSMT-6f" x="352.685547"/>
      <use xlink:href="#TimesNewRomanPSMT-66" x="402.685547"/>
      <use xlink:href="#TimesNewRomanPSMT-20" x="435.986328"/>
      <use xlink:href="#TimesNewRomanPSMT-76" x="460.986328"/>
      <use xlink:href="#TimesNewRomanPSMT-61" x="510.986328"/>
      <use xlink:href="#TimesNewRomanPSMT-72" x="555.371094"/>
      <use xlink:href="#TimesNewRomanPSMT-69" x="588.671875"/>
      <use xlink:href="#TimesNewRomanPSMT-61" x="616.455078"/>
      <use xlink:href="#TimesNewRomanPSMT-62" x="660.839844"/>
      <use xlink:href="#TimesNewRomanPSMT-6c" x="710.839844"/>
      <use xlink:href="#TimesNewRomanPSMT-65" x="738.623047"/>
      <use xlink:href="#TimesNewRomanPSMT-73" x="783.007812"/>
     </g>
    </g>
   </g>
   <g id="matplotlib.axis_2">
    <g id="ytick_1">
     <g id="line2d_12">
      <path d="M 52.834219 384.291562 
L 523.165781 384.291562 
" clip-path="url(#pae0ee44e46)" style="fill: none; stroke: #cccccc; stroke-linecap: round"/>
     </g>
     <g id="line2d_13">
      <defs>
       <path id="m66263de3d7" d="M 0 0 
L 6 0 
" style="stroke: #262626; stroke-width: 1.25"/>
      </defs>
      <g>
       <use xlink:href="#m66263de3d7" x="52.834219" y="384.291562" style="fill: #262626; stroke: #262626; stroke-width: 1.25"/>
      </g>
     </g>
     <g id="text_13">
      <!-- 0.0 -->
      <g style="fill: #262626" transform="translate(30.584219 389.499375) scale(0.15 -0.15)">
       <defs>
        <path id="TimesNewRomanPSMT-2e" d="M 800 606 
Q 947 606 1047 504 
Q 1147 403 1147 259 
Q 1147 116 1045 14 
Q 944 -88 800 -88 
Q 656 -88 554 14 
Q 453 116 453 259 
Q 453 406 554 506 
Q 656 606 800 606 
z
" transform="scale(0.015625)"/>
       </defs>
       <use xlink:href="#TimesNewRomanPSMT-30"/>
       <use xlink:href="#TimesNewRomanPSMT-2e" x="50"/>
       <use xlink:href="#TimesNewRomanPSMT-30" x="75"/>
      </g>
     </g>
    </g>
    <g id="ytick_2">
     <g id="line2d_14">
      <path d="M 52.834219 314.553705 
L 523.165781 314.553705 
" clip-path="url(#pae0ee44e46)" style="fill: none; stroke: #cccccc; stroke-linecap: round"/>
     </g>
     <g id="line2d_15">
      <g>
       <use xlink:href="#m66263de3d7" x="52.834219" y="314.553705" style="fill: #262626; stroke: #262626; stroke-width: 1.25"/>
      </g>
     </g>
     <g id="text_14">
      <!-- 0.2 -->
      <g style="fill: #262626" transform="translate(30.584219 319.761518) scale(0.15 -0.15)">
       <use xlink:href="#TimesNewRomanPSMT-30"/>
       <use xlink:href="#TimesNewRomanPSMT-2e" x="50"/>
       <use xlink:href="#TimesNewRomanPSMT-32" x="75"/>
      </g>
     </g>
    </g>
    <g id="ytick_3">
     <g id="line2d_16">
      <path d="M 52.834219 244.815848 
L 523.165781 244.815848 
" clip-path="url(#pae0ee44e46)" style="fill: none; stroke: #cccccc; stroke-linecap: round"/>
     </g>
     <g id="line2d_17">
      <g>
       <use xlink:href="#m66263de3d7" x="52.834219" y="244.815848" style="fill: #262626; stroke: #262626; stroke-width: 1.25"/>
      </g>
     </g>
     <g id="text_15">
      <!-- 0.4 -->
      <g style="fill: #262626" transform="translate(30.584219 250.023661) scale(0.15 -0.15)">
       <use xlink:href="#TimesNewRomanPSMT-30"/>
       <use xlink:href="#TimesNewRomanPSMT-2e" x="50"/>
       <use xlink:href="#TimesNewRomanPSMT-34" x="75"/>
      </g>
     </g>
    </g>
    <g id="ytick_4">
     <g id="line2d_18">
      <path d="M 52.834219 175.077991 
L 523.165781 175.077991 
" clip-path="url(#pae0ee44e46)" style="fill: none; stroke: #cccccc; stroke-linecap: round"/>
     </g>
     <g id="line2d_19">
      <g>
       <use xlink:href="#m66263de3d7" x="52.834219" y="175.077991" style="fill: #262626; stroke: #262626; stroke-width: 1.25"/>
      </g>
     </g>
     <g id="text_16">
      <!-- 0.6 -->
      <g style="fill: #262626" transform="translate(30.584219 180.285804) scale(0.15 -0.15)">
       <defs>
        <path id="TimesNewRomanPSMT-36" d="M 2869 4325 
L 2869 4209 
Q 2456 4169 2195 4045 
Q 1934 3922 1679 3669 
Q 1425 3416 1258 3105 
Q 1091 2794 978 2366 
Q 1428 2675 1881 2675 
Q 2316 2675 2634 2325 
Q 2953 1975 2953 1425 
Q 2953 894 2631 456 
Q 2244 -75 1606 -75 
Q 1172 -75 869 213 
Q 275 772 275 1663 
Q 275 2231 503 2743 
Q 731 3256 1154 3653 
Q 1578 4050 1965 4187 
Q 2353 4325 2688 4325 
L 2869 4325 
z
M 925 2138 
Q 869 1716 869 1456 
Q 869 1156 980 804 
Q 1091 453 1309 247 
Q 1469 100 1697 100 
Q 1969 100 2183 356 
Q 2397 613 2397 1088 
Q 2397 1622 2184 2012 
Q 1972 2403 1581 2403 
Q 1463 2403 1327 2353 
Q 1191 2303 925 2138 
z
" transform="scale(0.015625)"/>
       </defs>
       <use xlink:href="#TimesNewRomanPSMT-30"/>
       <use xlink:href="#TimesNewRomanPSMT-2e" x="50"/>
       <use xlink:href="#TimesNewRomanPSMT-36" x="75"/>
      </g>
     </g>
    </g>
    <g id="ytick_5">
     <g id="line2d_20">
      <path d="M 52.834219 105.340134 
L 523.165781 105.340134 
" clip-path="url(#pae0ee44e46)" style="fill: none; stroke: #cccccc; stroke-linecap: round"/>
     </g>
     <g id="line2d_21">
      <g>
       <use xlink:href="#m66263de3d7" x="52.834219" y="105.340134" style="fill: #262626; stroke: #262626; stroke-width: 1.25"/>
      </g>
     </g>
     <g id="text_17">
      <!-- 0.8 -->
      <g style="fill: #262626" transform="translate(30.584219 110.547946) scale(0.15 -0.15)">
       <defs>
        <path id="TimesNewRomanPSMT-38" d="M 1228 2134 
Q 725 2547 579 2797 
Q 434 3047 434 3316 
Q 434 3728 753 4026 
Q 1072 4325 1600 4325 
Q 2113 4325 2425 4047 
Q 2738 3769 2738 3413 
Q 2738 3175 2569 2928 
Q 2400 2681 1866 2347 
Q 2416 1922 2594 1678 
Q 2831 1359 2831 1006 
Q 2831 559 2490 242 
Q 2150 -75 1597 -75 
Q 994 -75 656 303 
Q 388 606 388 966 
Q 388 1247 577 1523 
Q 766 1800 1228 2134 
z
M 1719 2469 
Q 2094 2806 2194 3001 
Q 2294 3197 2294 3444 
Q 2294 3772 2109 3958 
Q 1925 4144 1606 4144 
Q 1288 4144 1088 3959 
Q 888 3775 888 3528 
Q 888 3366 970 3203 
Q 1053 3041 1206 2894 
L 1719 2469 
z
M 1375 2016 
Q 1116 1797 991 1539 
Q 866 1281 866 981 
Q 866 578 1086 336 
Q 1306 94 1647 94 
Q 1984 94 2187 284 
Q 2391 475 2391 747 
Q 2391 972 2272 1150 
Q 2050 1481 1375 2016 
z
" transform="scale(0.015625)"/>
       </defs>
       <use xlink:href="#TimesNewRomanPSMT-30"/>
       <use xlink:href="#TimesNewRomanPSMT-2e" x="50"/>
       <use xlink:href="#TimesNewRomanPSMT-38" x="75"/>
      </g>
     </g>
    </g>
    <g id="ytick_6">
     <g id="line2d_22">
      <path d="M 52.834219 35.602277 
L 523.165781 35.602277 
" clip-path="url(#pae0ee44e46)" style="fill: none; stroke: #cccccc; stroke-linecap: round"/>
     </g>
     <g id="line2d_23">
      <g>
       <use xlink:href="#m66263de3d7" x="52.834219" y="35.602277" style="fill: #262626; stroke: #262626; stroke-width: 1.25"/>
      </g>
     </g>
     <g id="text_18">
      <!-- 1.0 -->
      <g style="fill: #262626" transform="translate(30.584219 40.810089) scale(0.15 -0.15)">
       <use xlink:href="#TimesNewRomanPSMT-31"/>
       <use xlink:href="#TimesNewRomanPSMT-2e" x="50"/>
       <use xlink:href="#TimesNewRomanPSMT-30" x="75"/>
      </g>
     </g>
    </g>
    <g id="text_19">
     <!-- Accuracy -->
     <g style="fill: #262626" transform="translate(23.3475 229.960547) rotate(-90) scale(0.15 -0.15)">
      <defs>
       <path id="TimesNewRomanPSMT-41" d="M 2928 1419 
L 1288 1419 
L 1000 750 
Q 894 503 894 381 
Q 894 284 986 211 
Q 1078 138 1384 116 
L 1384 0 
L 50 0 
L 50 116 
Q 316 163 394 238 
Q 553 388 747 847 
L 2238 4334 
L 2347 4334 
L 3822 809 
Q 4000 384 4145 257 
Q 4291 131 4550 116 
L 4550 0 
L 2878 0 
L 2878 116 
Q 3131 128 3220 200 
Q 3309 272 3309 375 
Q 3309 513 3184 809 
L 2928 1419 
z
M 2841 1650 
L 2122 3363 
L 1384 1650 
L 2841 1650 
z
" transform="scale(0.015625)"/>
       <path id="TimesNewRomanPSMT-63" d="M 2631 1088 
Q 2516 522 2178 217 
Q 1841 -88 1431 -88 
Q 944 -88 581 321 
Q 219 731 219 1428 
Q 219 2103 620 2525 
Q 1022 2947 1584 2947 
Q 2006 2947 2278 2723 
Q 2550 2500 2550 2259 
Q 2550 2141 2473 2067 
Q 2397 1994 2259 1994 
Q 2075 1994 1981 2113 
Q 1928 2178 1911 2362 
Q 1894 2547 1784 2644 
Q 1675 2738 1481 2738 
Q 1169 2738 978 2506 
Q 725 2200 725 1697 
Q 725 1184 976 792 
Q 1228 400 1656 400 
Q 1963 400 2206 609 
Q 2378 753 2541 1131 
L 2631 1088 
z
" transform="scale(0.015625)"/>
       <path id="TimesNewRomanPSMT-79" d="M 38 2863 
L 1372 2863 
L 1372 2747 
L 1306 2747 
Q 1166 2747 1095 2686 
Q 1025 2625 1025 2534 
Q 1025 2413 1128 2197 
L 1825 753 
L 2466 2334 
Q 2519 2463 2519 2588 
Q 2519 2644 2497 2672 
Q 2472 2706 2419 2726 
Q 2366 2747 2231 2747 
L 2231 2863 
L 3163 2863 
L 3163 2747 
Q 3047 2734 2984 2696 
Q 2922 2659 2847 2556 
Q 2819 2513 2741 2316 
L 1575 -541 
Q 1406 -956 1132 -1168 
Q 859 -1381 606 -1381 
Q 422 -1381 303 -1275 
Q 184 -1169 184 -1031 
Q 184 -900 270 -820 
Q 356 -741 506 -741 
Q 609 -741 788 -809 
Q 913 -856 944 -856 
Q 1038 -856 1148 -759 
Q 1259 -663 1372 -384 
L 1575 113 
L 547 2272 
Q 500 2369 397 2513 
Q 319 2622 269 2659 
Q 197 2709 38 2747 
L 38 2863 
z
" transform="scale(0.015625)"/>
      </defs>
      <use xlink:href="#TimesNewRomanPSMT-41"/>
      <use xlink:href="#TimesNewRomanPSMT-63" x="72.216797"/>
      <use xlink:href="#TimesNewRomanPSMT-63" x="116.601562"/>
      <use xlink:href="#TimesNewRomanPSMT-75" x="160.986328"/>
      <use xlink:href="#TimesNewRomanPSMT-72" x="210.986328"/>
      <use xlink:href="#TimesNewRomanPSMT-61" x="244.287109"/>
      <use xlink:href="#TimesNewRomanPSMT-63" x="288.671875"/>
      <use xlink:href="#TimesNewRomanPSMT-79" x="333.056641"/>
     </g>
    </g>
   </g>
   <g id="line2d_24">
    <path d="M 71.647481 64.659717 
L 81.054113 61.431113 
L 90.460744 64.659717 
L 99.867375 68.14661 
L 109.274006 64.659717 
L 118.680638 66.438744 
L 128.087269 79.188438 
L 137.4939 58.561242 
L 146.900531 63.49742 
L 156.307163 59.61669 
L 165.713794 53.359602 
L 175.120425 56.922529 
L 184.527056 48.055466 
L 193.933688 59.364806 
L 203.340319 52.855132 
L 212.74695 99.548755 
L 222.153581 83.67261 
L 231.560213 71.984446 
L 240.966844 75.41097 
L 250.373475 89.631985 
L 259.780106 92.516437 
L 269.186738 71.196268 
L 278.593369 91.497492 
L 288 67.774675 
L 297.406631 81.681532 
L 306.813263 57.126307 
L 316.219894 57.395357 
L 325.626525 61.031856 
L 335.033156 58.073364 
L 344.439788 63.54096 
L 353.846419 72.491606 
L 363.25305 74.025339 
L 372.659681 69.385322 
L 382.066313 55.242735 
L 391.472944 54.166753 
L 400.879575 61.836752 
L 410.286206 49.607802 
L 419.692838 57.151779 
L 429.099469 54.707544 
L 438.5061 75.221345 
L 447.912731 58.466068 
L 457.319363 54.837705 
L 466.725994 50.911465 
L 476.132625 66.080303 
L 485.539256 60.430184 
L 494.945888 66.488139 
L 504.352519 56.487312 
L 513.75915 51.480395 
L 523.165781 47.085777 
" clip-path="url(#pae0ee44e46)" style="fill: none; stroke: #d65f5f; stroke-width: 1.5; stroke-linecap: round"/>
    <defs>
     <path id="m26ca3c08ac" d="M 0 2.5 
C 0.663008 2.5 1.29895 2.236584 1.767767 1.767767 
C 2.236584 1.29895 2.5 0.663008 2.5 0 
C 2.5 -0.663008 2.236584 -1.29895 1.767767 -1.767767 
C 1.29895 -2.236584 0.663008 -2.5 0 -2.5 
C -0.663008 -2.5 -1.29895 -2.236584 -1.767767 -1.767767 
C -2.236584 -1.29895 -2.5 -0.663008 -2.5 0 
C -2.5 0.663008 -2.236584 1.29895 -1.767767 1.767767 
C -1.29895 2.236584 -0.663008 2.5 0 2.5 
z
" style="stroke: #d65f5f"/>
    </defs>
    <g clip-path="url(#pae0ee44e46)">
     <use xlink:href="#m26ca3c08ac" x="71.647481" y="64.659717" style="fill: #ffffff; stroke: #d65f5f"/>
     <use xlink:href="#m26ca3c08ac" x="81.054113" y="61.431113" style="fill: #ffffff; stroke: #d65f5f"/>
     <use xlink:href="#m26ca3c08ac" x="90.460744" y="64.659717" style="fill: #ffffff; stroke: #d65f5f"/>
     <use xlink:href="#m26ca3c08ac" x="99.867375" y="68.14661" style="fill: #ffffff; stroke: #d65f5f"/>
     <use xlink:href="#m26ca3c08ac" x="109.274006" y="64.659717" style="fill: #ffffff; stroke: #d65f5f"/>
     <use xlink:href="#m26ca3c08ac" x="118.680638" y="66.438744" style="fill: #ffffff; stroke: #d65f5f"/>
     <use xlink:href="#m26ca3c08ac" x="128.087269" y="79.188438" style="fill: #ffffff; stroke: #d65f5f"/>
     <use xlink:href="#m26ca3c08ac" x="137.4939" y="58.561242" style="fill: #ffffff; stroke: #d65f5f"/>
     <use xlink:href="#m26ca3c08ac" x="146.900531" y="63.49742" style="fill: #ffffff; stroke: #d65f5f"/>
     <use xlink:href="#m26ca3c08ac" x="156.307163" y="59.61669" style="fill: #ffffff; stroke: #d65f5f"/>
     <use xlink:href="#m26ca3c08ac" x="165.713794" y="53.359602" style="fill: #ffffff; stroke: #d65f5f"/>
     <use xlink:href="#m26ca3c08ac" x="175.120425" y="56.922529" style="fill: #ffffff; stroke: #d65f5f"/>
     <use xlink:href="#m26ca3c08ac" x="184.527056" y="48.055466" style="fill: #ffffff; stroke: #d65f5f"/>
     <use xlink:href="#m26ca3c08ac" x="193.933688" y="59.364806" style="fill: #ffffff; stroke: #d65f5f"/>
     <use xlink:href="#m26ca3c08ac" x="203.340319" y="52.855132" style="fill: #ffffff; stroke: #d65f5f"/>
     <use xlink:href="#m26ca3c08ac" x="212.74695" y="99.548755" style="fill: #ffffff; stroke: #d65f5f"/>
     <use xlink:href="#m26ca3c08ac" x="222.153581" y="83.67261" style="fill: #ffffff; stroke: #d65f5f"/>
     <use xlink:href="#m26ca3c08ac" x="231.560213" y="71.984446" style="fill: #ffffff; stroke: #d65f5f"/>
     <use xlink:href="#m26ca3c08ac" x="240.966844" y="75.41097" style="fill: #ffffff; stroke: #d65f5f"/>
     <use xlink:href="#m26ca3c08ac" x="250.373475" y="89.631985" style="fill: #ffffff; stroke: #d65f5f"/>
     <use xlink:href="#m26ca3c08ac" x="259.780106" y="92.516437" style="fill: #ffffff; stroke: #d65f5f"/>
     <use xlink:href="#m26ca3c08ac" x="269.186738" y="71.196268" style="fill: #ffffff; stroke: #d65f5f"/>
     <use xlink:href="#m26ca3c08ac" x="278.593369" y="91.497492" style="fill: #ffffff; stroke: #d65f5f"/>
     <use xlink:href="#m26ca3c08ac" x="288" y="67.774675" style="fill: #ffffff; stroke: #d65f5f"/>
     <use xlink:href="#m26ca3c08ac" x="297.406631" y="81.681532" style="fill: #ffffff; stroke: #d65f5f"/>
     <use xlink:href="#m26ca3c08ac" x="306.813263" y="57.126307" style="fill: #ffffff; stroke: #d65f5f"/>
     <use xlink:href="#m26ca3c08ac" x="316.219894" y="57.395357" style="fill: #ffffff; stroke: #d65f5f"/>
     <use xlink:href="#m26ca3c08ac" x="325.626525" y="61.031856" style="fill: #ffffff; stroke: #d65f5f"/>
     <use xlink:href="#m26ca3c08ac" x="335.033156" y="58.073364" style="fill: #ffffff; stroke: #d65f5f"/>
     <use xlink:href="#m26ca3c08ac" x="344.439788" y="63.54096" style="fill: #ffffff; stroke: #d65f5f"/>
     <use xlink:href="#m26ca3c08ac" x="353.846419" y="72.491606" style="fill: #ffffff; stroke: #d65f5f"/>
     <use xlink:href="#m26ca3c08ac" x="363.25305" y="74.025339" style="fill: #ffffff; stroke: #d65f5f"/>
     <use xlink:href="#m26ca3c08ac" x="372.659681" y="69.385322" style="fill: #ffffff; stroke: #d65f5f"/>
     <use xlink:href="#m26ca3c08ac" x="382.066313" y="55.242735" style="fill: #ffffff; stroke: #d65f5f"/>
     <use xlink:href="#m26ca3c08ac" x="391.472944" y="54.166753" style="fill: #ffffff; stroke: #d65f5f"/>
     <use xlink:href="#m26ca3c08ac" x="400.879575" y="61.836752" style="fill: #ffffff; stroke: #d65f5f"/>
     <use xlink:href="#m26ca3c08ac" x="410.286206" y="49.607802" style="fill: #ffffff; stroke: #d65f5f"/>
     <use xlink:href="#m26ca3c08ac" x="419.692838" y="57.151779" style="fill: #ffffff; stroke: #d65f5f"/>
     <use xlink:href="#m26ca3c08ac" x="429.099469" y="54.707544" style="fill: #ffffff; stroke: #d65f5f"/>
     <use xlink:href="#m26ca3c08ac" x="438.5061" y="75.221345" style="fill: #ffffff; stroke: #d65f5f"/>
     <use xlink:href="#m26ca3c08ac" x="447.912731" y="58.466068" style="fill: #ffffff; stroke: #d65f5f"/>
     <use xlink:href="#m26ca3c08ac" x="457.319363" y="54.837705" style="fill: #ffffff; stroke: #d65f5f"/>
     <use xlink:href="#m26ca3c08ac" x="466.725994" y="50.911465" style="fill: #ffffff; stroke: #d65f5f"/>
     <use xlink:href="#m26ca3c08ac" x="476.132625" y="66.080303" style="fill: #ffffff; stroke: #d65f5f"/>
     <use xlink:href="#m26ca3c08ac" x="485.539256" y="60.430184" style="fill: #ffffff; stroke: #d65f5f"/>
     <use xlink:href="#m26ca3c08ac" x="494.945888" y="66.488139" style="fill: #ffffff; stroke: #d65f5f"/>
     <use xlink:href="#m26ca3c08ac" x="504.352519" y="56.487312" style="fill: #ffffff; stroke: #d65f5f"/>
     <use xlink:href="#m26ca3c08ac" x="513.75915" y="51.480395" style="fill: #ffffff; stroke: #d65f5f"/>
     <use xlink:href="#m26ca3c08ac" x="523.165781" y="47.085777" style="fill: #ffffff; stroke: #d65f5f"/>
    </g>
   </g>
   <g id="patch_3">
    <path d="M 52.834219 384.291562 
L 52.834219 18.167813 
" style="fill: none; stroke: #cccccc; stroke-width: 1.25; stroke-linejoin: miter; stroke-linecap: square"/>
   </g>
   <g id="patch_4">
    <path d="M 523.165781 384.291562 
L 523.165781 18.167813 
" style="fill: none; stroke: #cccccc; stroke-width: 1.25; stroke-linejoin: miter; stroke-linecap: square"/>
   </g>
   <g id="patch_5">
    <path d="M 52.834219 384.291562 
L 523.165781 384.291562 
" style="fill: none; stroke: #cccccc; stroke-width: 1.25; stroke-linejoin: miter; stroke-linecap: square"/>
   </g>
   <g id="patch_6">
    <path d="M 52.834219 18.167813 
L 523.165781 18.167813 
" style="fill: none; stroke: #cccccc; stroke-width: 1.25; stroke-linejoin: miter; stroke-linecap: square"/>
   </g>
   <g id="legend_1">
    <g id="patch_7">
     <path d="M 59.834219 216.878125 
L 137.017031 216.878125 
Q 139.017031 216.878125 139.017031 214.878125 
L 139.017031 187.58125 
Q 139.017031 185.58125 137.017031 185.58125 
L 59.834219 185.58125 
Q 57.834219 185.58125 57.834219 187.58125 
L 57.834219 214.878125 
Q 57.834219 216.878125 59.834219 216.878125 
z
" style="fill: #ffffff; opacity: 0.8; stroke: #cccccc; stroke-linejoin: miter"/>
    </g>
    <g id="line2d_25">
     <path d="M 61.834219 193.08125 
L 71.834219 193.08125 
L 81.834219 193.08125 
" style="fill: none; stroke: #d65f5f; stroke-width: 1.5; stroke-linecap: round"/>
     <g>
      <use xlink:href="#m26ca3c08ac" x="71.834219" y="193.08125" style="fill: #ffffff; stroke: #d65f5f"/>
     </g>
    </g>
    <g id="text_20">
     <!-- Accuracy -->
     <g style="fill: #262626" transform="translate(89.834219 196.58125) scale(0.1 -0.1)">
      <use xlink:href="#TimesNewRomanPSMT-41"/>
      <use xlink:href="#TimesNewRomanPSMT-63" x="72.216797"/>
      <use xlink:href="#TimesNewRomanPSMT-63" x="116.601562"/>
      <use xlink:href="#TimesNewRomanPSMT-75" x="160.986328"/>
      <use xlink:href="#TimesNewRomanPSMT-72" x="210.986328"/>
      <use xlink:href="#TimesNewRomanPSMT-61" x="244.287109"/>
      <use xlink:href="#TimesNewRomanPSMT-63" x="288.671875"/>
      <use xlink:href="#TimesNewRomanPSMT-79" x="333.056641"/>
     </g>
    </g>
    <g id="line2d_26">
     <path d="M 61.834219 207.239063 
L 71.834219 207.239063 
L 81.834219 207.239063 
" style="fill: none; stroke: #4878d0; stroke-width: 1.5; stroke-linecap: round"/>
     <defs>
      <path id="m08ec430ae4" d="M 0 4.242641 
L 4.242641 0 
L 0 -4.242641 
L -4.242641 0 
z
" style="stroke: #4878d0; stroke-linejoin: miter"/>
     </defs>
     <g>
      <use xlink:href="#m08ec430ae4" x="71.834219" y="207.239063" style="fill: #ffffff; stroke: #4878d0; stroke-linejoin: miter"/>
     </g>
    </g>
    <g id="text_21">
     <!-- Time (sec.) -->
     <g style="fill: #262626" transform="translate(89.834219 210.739063) scale(0.1 -0.1)">
      <defs>
       <path id="TimesNewRomanPSMT-54" d="M 3703 4238 
L 3750 3244 
L 3631 3244 
Q 3597 3506 3538 3619 
Q 3441 3800 3280 3886 
Q 3119 3972 2856 3972 
L 2259 3972 
L 2259 734 
Q 2259 344 2344 247 
Q 2463 116 2709 116 
L 2856 116 
L 2856 0 
L 1059 0 
L 1059 116 
L 1209 116 
Q 1478 116 1591 278 
Q 1659 378 1659 734 
L 1659 3972 
L 1150 3972 
Q 853 3972 728 3928 
Q 566 3869 450 3700 
Q 334 3531 313 3244 
L 194 3244 
L 244 4238 
L 3703 4238 
z
" transform="scale(0.015625)"/>
       <path id="TimesNewRomanPSMT-28" d="M 1988 -1253 
L 1988 -1369 
Q 1516 -1131 1200 -813 
Q 750 -359 506 256 
Q 263 872 263 1534 
Q 263 2503 741 3301 
Q 1219 4100 1988 4444 
L 1988 4313 
Q 1603 4100 1356 3731 
Q 1109 3363 987 2797 
Q 866 2231 866 1616 
Q 866 947 969 400 
Q 1050 -31 1165 -292 
Q 1281 -553 1476 -793 
Q 1672 -1034 1988 -1253 
z
" transform="scale(0.015625)"/>
       <path id="TimesNewRomanPSMT-29" d="M 144 4313 
L 144 4444 
Q 619 4209 934 3891 
Q 1381 3434 1625 2820 
Q 1869 2206 1869 1541 
Q 1869 572 1392 -226 
Q 916 -1025 144 -1369 
L 144 -1253 
Q 528 -1038 776 -670 
Q 1025 -303 1145 264 
Q 1266 831 1266 1447 
Q 1266 2113 1163 2663 
Q 1084 3094 967 3353 
Q 850 3613 656 3853 
Q 463 4094 144 4313 
z
" transform="scale(0.015625)"/>
      </defs>
      <use xlink:href="#TimesNewRomanPSMT-54"/>
      <use xlink:href="#TimesNewRomanPSMT-69" x="57.583984"/>
      <use xlink:href="#TimesNewRomanPSMT-6d" x="85.367188"/>
      <use xlink:href="#TimesNewRomanPSMT-65" x="163.150391"/>
      <use xlink:href="#TimesNewRomanPSMT-20" x="207.535156"/>
      <use xlink:href="#TimesNewRomanPSMT-28" x="232.535156"/>
      <use xlink:href="#TimesNewRomanPSMT-73" x="265.835938"/>
      <use xlink:href="#TimesNewRomanPSMT-65" x="304.751953"/>
      <use xlink:href="#TimesNewRomanPSMT-63" x="349.136719"/>
      <use xlink:href="#TimesNewRomanPSMT-2e" x="393.521484"/>
      <use xlink:href="#TimesNewRomanPSMT-29" x="418.521484"/>
     </g>
    </g>
   </g>
  </g>
  <g id="axes_2">
   <g id="matplotlib.axis_3">
    <g id="ytick_7">
     <g id="line2d_27">
      <defs>
       <path id="mbc6cec4143" d="M 0 0 
L -6 0 
" style="stroke: #262626; stroke-width: 1.25"/>
      </defs>
      <g>
       <use xlink:href="#mbc6cec4143" x="523.165781" y="384.291562" style="fill: #262626; stroke: #262626; stroke-width: 1.25"/>
      </g>
     </g>
     <g id="text_22">
      <!-- 0.0 -->
      <g style="fill: #262626" transform="translate(526.665781 389.499375) scale(0.15 -0.15)">
       <use xlink:href="#TimesNewRomanPSMT-30"/>
       <use xlink:href="#TimesNewRomanPSMT-2e" x="50"/>
       <use xlink:href="#TimesNewRomanPSMT-30" x="75"/>
      </g>
     </g>
    </g>
    <g id="ytick_8">
     <g id="line2d_28">
      <g>
       <use xlink:href="#mbc6cec4143" x="523.165781" y="311.066812" style="fill: #262626; stroke: #262626; stroke-width: 1.25"/>
      </g>
     </g>
     <g id="text_23">
      <!-- 0.2 -->
      <g style="fill: #262626" transform="translate(526.665781 316.274625) scale(0.15 -0.15)">
       <use xlink:href="#TimesNewRomanPSMT-30"/>
       <use xlink:href="#TimesNewRomanPSMT-2e" x="50"/>
       <use xlink:href="#TimesNewRomanPSMT-32" x="75"/>
      </g>
     </g>
    </g>
    <g id="ytick_9">
     <g id="line2d_29">
      <g>
       <use xlink:href="#mbc6cec4143" x="523.165781" y="237.842062" style="fill: #262626; stroke: #262626; stroke-width: 1.25"/>
      </g>
     </g>
     <g id="text_24">
      <!-- 0.4 -->
      <g style="fill: #262626" transform="translate(526.665781 243.049875) scale(0.15 -0.15)">
       <use xlink:href="#TimesNewRomanPSMT-30"/>
       <use xlink:href="#TimesNewRomanPSMT-2e" x="50"/>
       <use xlink:href="#TimesNewRomanPSMT-34" x="75"/>
      </g>
     </g>
    </g>
    <g id="ytick_10">
     <g id="line2d_30">
      <g>
       <use xlink:href="#mbc6cec4143" x="523.165781" y="164.617312" style="fill: #262626; stroke: #262626; stroke-width: 1.25"/>
      </g>
     </g>
     <g id="text_25">
      <!-- 0.6 -->
      <g style="fill: #262626" transform="translate(526.665781 169.825125) scale(0.15 -0.15)">
       <use xlink:href="#TimesNewRomanPSMT-30"/>
       <use xlink:href="#TimesNewRomanPSMT-2e" x="50"/>
       <use xlink:href="#TimesNewRomanPSMT-36" x="75"/>
      </g>
     </g>
    </g>
    <g id="ytick_11">
     <g id="line2d_31">
      <g>
       <use xlink:href="#mbc6cec4143" x="523.165781" y="91.392562" style="fill: #262626; stroke: #262626; stroke-width: 1.25"/>
      </g>
     </g>
     <g id="text_26">
      <!-- 0.8 -->
      <g style="fill: #262626" transform="translate(526.665781 96.600375) scale(0.15 -0.15)">
       <use xlink:href="#TimesNewRomanPSMT-30"/>
       <use xlink:href="#TimesNewRomanPSMT-2e" x="50"/>
       <use xlink:href="#TimesNewRomanPSMT-38" x="75"/>
      </g>
     </g>
    </g>
    <g id="ytick_12">
     <g id="line2d_32">
      <g>
       <use xlink:href="#mbc6cec4143" x="523.165781" y="18.167813" style="fill: #262626; stroke: #262626; stroke-width: 1.25"/>
      </g>
     </g>
     <g id="text_27">
      <!-- 1.0 -->
      <g style="fill: #262626" transform="translate(526.665781 23.375625) scale(0.15 -0.15)">
       <use xlink:href="#TimesNewRomanPSMT-31"/>
       <use xlink:href="#TimesNewRomanPSMT-2e" x="50"/>
       <use xlink:href="#TimesNewRomanPSMT-30" x="75"/>
      </g>
     </g>
    </g>
    <g id="text_28">
     <!-- Time (sec.) -->
     <g style="fill: #262626" transform="translate(559.831406 235.116797) rotate(-90) scale(0.15 -0.15)">
      <use xlink:href="#TimesNewRomanPSMT-54"/>
      <use xlink:href="#TimesNewRomanPSMT-69" x="57.583984"/>
      <use xlink:href="#TimesNewRomanPSMT-6d" x="85.367188"/>
      <use xlink:href="#TimesNewRomanPSMT-65" x="163.150391"/>
      <use xlink:href="#TimesNewRomanPSMT-20" x="207.535156"/>
      <use xlink:href="#TimesNewRomanPSMT-28" x="232.535156"/>
      <use xlink:href="#TimesNewRomanPSMT-73" x="265.835938"/>
      <use xlink:href="#TimesNewRomanPSMT-65" x="304.751953"/>
      <use xlink:href="#TimesNewRomanPSMT-63" x="349.136719"/>
      <use xlink:href="#TimesNewRomanPSMT-2e" x="393.521484"/>
      <use xlink:href="#TimesNewRomanPSMT-29" x="418.521484"/>
     </g>
    </g>
   </g>
   <g id="line2d_33">
    <path d="M 71.647481 252.515603 
L 81.054113 248.93654 
L 90.460744 248.932246 
L 99.867375 249.278695 
L 109.274006 279.060236 
L 118.680638 277.829422 
L 128.087269 272.772647 
L 137.4939 236.318779 
L 146.900531 234.311487 
L 156.307163 267.022515 
L 165.713794 228.026339 
L 175.120425 260.748279 
L 184.527056 223.372119 
L 193.933688 257.17765 
L 203.340319 212.530882 
L 212.74695 247.651318 
L 222.153581 248.213103 
L 231.560213 247.602246 
L 240.966844 254.75261 
L 250.373475 251.025691 
L 259.780106 245.667734 
L 269.186738 243.158679 
L 278.593369 243.265668 
L 288 239.171621 
L 297.406631 235.180028 
L 306.813263 233.186223 
L 316.219894 229.714977 
L 325.626525 223.831703 
L 335.033156 218.583945 
L 344.439788 211.77607 
L 353.846419 216.802507 
L 363.25305 211.749114 
L 372.659681 205.633242 
L 382.066313 202.728215 
L 391.472944 203.26796 
L 400.879575 201.052267 
L 410.286206 200.660085 
L 419.692838 193.193861 
L 429.099469 192.176819 
L 438.5061 194.372735 
L 447.912731 182.991053 
L 457.319363 163.960267 
L 466.725994 145.845848 
L 476.132625 120.184537 
L 485.539256 107.440112 
L 494.945888 102.227139 
L 504.352519 97.030049 
L 513.75915 75.130549 
L 523.165781 51.038759 
" clip-path="url(#pae0ee44e46)" style="fill: none; stroke: #4878d0; stroke-width: 1.5; stroke-linecap: round"/>
    <g clip-path="url(#pae0ee44e46)">
     <use xlink:href="#m08ec430ae4" x="71.647481" y="252.515603" style="fill: #ffffff; stroke: #4878d0; stroke-linejoin: miter"/>
     <use xlink:href="#m08ec430ae4" x="81.054113" y="248.93654" style="fill: #ffffff; stroke: #4878d0; stroke-linejoin: miter"/>
     <use xlink:href="#m08ec430ae4" x="90.460744" y="248.932246" style="fill: #ffffff; stroke: #4878d0; stroke-linejoin: miter"/>
     <use xlink:href="#m08ec430ae4" x="99.867375" y="249.278695" style="fill: #ffffff; stroke: #4878d0; stroke-linejoin: miter"/>
     <use xlink:href="#m08ec430ae4" x="109.274006" y="279.060236" style="fill: #ffffff; stroke: #4878d0; stroke-linejoin: miter"/>
     <use xlink:href="#m08ec430ae4" x="118.680638" y="277.829422" style="fill: #ffffff; stroke: #4878d0; stroke-linejoin: miter"/>
     <use xlink:href="#m08ec430ae4" x="128.087269" y="272.772647" style="fill: #ffffff; stroke: #4878d0; stroke-linejoin: miter"/>
     <use xlink:href="#m08ec430ae4" x="137.4939" y="236.318779" style="fill: #ffffff; stroke: #4878d0; stroke-linejoin: miter"/>
     <use xlink:href="#m08ec430ae4" x="146.900531" y="234.311487" style="fill: #ffffff; stroke: #4878d0; stroke-linejoin: miter"/>
     <use xlink:href="#m08ec430ae4" x="156.307163" y="267.022515" style="fill: #ffffff; stroke: #4878d0; stroke-linejoin: miter"/>
     <use xlink:href="#m08ec430ae4" x="165.713794" y="228.026339" style="fill: #ffffff; stroke: #4878d0; stroke-linejoin: miter"/>
     <use xlink:href="#m08ec430ae4" x="175.120425" y="260.748279" style="fill: #ffffff; stroke: #4878d0; stroke-linejoin: miter"/>
     <use xlink:href="#m08ec430ae4" x="184.527056" y="223.372119" style="fill: #ffffff; stroke: #4878d0; stroke-linejoin: miter"/>
     <use xlink:href="#m08ec430ae4" x="193.933688" y="257.17765" style="fill: #ffffff; stroke: #4878d0; stroke-linejoin: miter"/>
     <use xlink:href="#m08ec430ae4" x="203.340319" y="212.530882" style="fill: #ffffff; stroke: #4878d0; stroke-linejoin: miter"/>
     <use xlink:href="#m08ec430ae4" x="212.74695" y="247.651318" style="fill: #ffffff; stroke: #4878d0; stroke-linejoin: miter"/>
     <use xlink:href="#m08ec430ae4" x="222.153581" y="248.213103" style="fill: #ffffff; stroke: #4878d0; stroke-linejoin: miter"/>
     <use xlink:href="#m08ec430ae4" x="231.560213" y="247.602246" style="fill: #ffffff; stroke: #4878d0; stroke-linejoin: miter"/>
     <use xlink:href="#m08ec430ae4" x="240.966844" y="254.75261" style="fill: #ffffff; stroke: #4878d0; stroke-linejoin: miter"/>
     <use xlink:href="#m08ec430ae4" x="250.373475" y="251.025691" style="fill: #ffffff; stroke: #4878d0; stroke-linejoin: miter"/>
     <use xlink:href="#m08ec430ae4" x="259.780106" y="245.667734" style="fill: #ffffff; stroke: #4878d0; stroke-linejoin: miter"/>
     <use xlink:href="#m08ec430ae4" x="269.186738" y="243.158679" style="fill: #ffffff; stroke: #4878d0; stroke-linejoin: miter"/>
     <use xlink:href="#m08ec430ae4" x="278.593369" y="243.265668" style="fill: #ffffff; stroke: #4878d0; stroke-linejoin: miter"/>
     <use xlink:href="#m08ec430ae4" x="288" y="239.171621" style="fill: #ffffff; stroke: #4878d0; stroke-linejoin: miter"/>
     <use xlink:href="#m08ec430ae4" x="297.406631" y="235.180028" style="fill: #ffffff; stroke: #4878d0; stroke-linejoin: miter"/>
     <use xlink:href="#m08ec430ae4" x="306.813263" y="233.186223" style="fill: #ffffff; stroke: #4878d0; stroke-linejoin: miter"/>
     <use xlink:href="#m08ec430ae4" x="316.219894" y="229.714977" style="fill: #ffffff; stroke: #4878d0; stroke-linejoin: miter"/>
     <use xlink:href="#m08ec430ae4" x="325.626525" y="223.831703" style="fill: #ffffff; stroke: #4878d0; stroke-linejoin: miter"/>
     <use xlink:href="#m08ec430ae4" x="335.033156" y="218.583945" style="fill: #ffffff; stroke: #4878d0; stroke-linejoin: miter"/>
     <use xlink:href="#m08ec430ae4" x="344.439788" y="211.77607" style="fill: #ffffff; stroke: #4878d0; stroke-linejoin: miter"/>
     <use xlink:href="#m08ec430ae4" x="353.846419" y="216.802507" style="fill: #ffffff; stroke: #4878d0; stroke-linejoin: miter"/>
     <use xlink:href="#m08ec430ae4" x="363.25305" y="211.749114" style="fill: #ffffff; stroke: #4878d0; stroke-linejoin: miter"/>
     <use xlink:href="#m08ec430ae4" x="372.659681" y="205.633242" style="fill: #ffffff; stroke: #4878d0; stroke-linejoin: miter"/>
     <use xlink:href="#m08ec430ae4" x="382.066313" y="202.728215" style="fill: #ffffff; stroke: #4878d0; stroke-linejoin: miter"/>
     <use xlink:href="#m08ec430ae4" x="391.472944" y="203.26796" style="fill: #ffffff; stroke: #4878d0; stroke-linejoin: miter"/>
     <use xlink:href="#m08ec430ae4" x="400.879575" y="201.052267" style="fill: #ffffff; stroke: #4878d0; stroke-linejoin: miter"/>
     <use xlink:href="#m08ec430ae4" x="410.286206" y="200.660085" style="fill: #ffffff; stroke: #4878d0; stroke-linejoin: miter"/>
     <use xlink:href="#m08ec430ae4" x="419.692838" y="193.193861" style="fill: #ffffff; stroke: #4878d0; stroke-linejoin: miter"/>
     <use xlink:href="#m08ec430ae4" x="429.099469" y="192.176819" style="fill: #ffffff; stroke: #4878d0; stroke-linejoin: miter"/>
     <use xlink:href="#m08ec430ae4" x="438.5061" y="194.372735" style="fill: #ffffff; stroke: #4878d0; stroke-linejoin: miter"/>
     <use xlink:href="#m08ec430ae4" x="447.912731" y="182.991053" style="fill: #ffffff; stroke: #4878d0; stroke-linejoin: miter"/>
     <use xlink:href="#m08ec430ae4" x="457.319363" y="163.960267" style="fill: #ffffff; stroke: #4878d0; stroke-linejoin: miter"/>
     <use xlink:href="#m08ec430ae4" x="466.725994" y="145.845848" style="fill: #ffffff; stroke: #4878d0; stroke-linejoin: miter"/>
     <use xlink:href="#m08ec430ae4" x="476.132625" y="120.184537" style="fill: #ffffff; stroke: #4878d0; stroke-linejoin: miter"/>
     <use xlink:href="#m08ec430ae4" x="485.539256" y="107.440112" style="fill: #ffffff; stroke: #4878d0; stroke-linejoin: miter"/>
     <use xlink:href="#m08ec430ae4" x="494.945888" y="102.227139" style="fill: #ffffff; stroke: #4878d0; stroke-linejoin: miter"/>
     <use xlink:href="#m08ec430ae4" x="504.352519" y="97.030049" style="fill: #ffffff; stroke: #4878d0; stroke-linejoin: miter"/>
     <use xlink:href="#m08ec430ae4" x="513.75915" y="75.130549" style="fill: #ffffff; stroke: #4878d0; stroke-linejoin: miter"/>
     <use xlink:href="#m08ec430ae4" x="523.165781" y="51.038759" style="fill: #ffffff; stroke: #4878d0; stroke-linejoin: miter"/>
    </g>
   </g>
   <g id="patch_8">
    <path d="M 52.834219 384.291562 
L 52.834219 18.167813 
" style="fill: none; stroke: #cccccc; stroke-width: 1.25; stroke-linejoin: miter; stroke-linecap: square"/>
   </g>
   <g id="patch_9">
    <path d="M 523.165781 384.291562 
L 523.165781 18.167813 
" style="fill: none; stroke: #cccccc; stroke-width: 1.25; stroke-linejoin: miter; stroke-linecap: square"/>
   </g>
   <g id="patch_10">
    <path d="M 52.834219 384.291562 
L 523.165781 384.291562 
" style="fill: none; stroke: #cccccc; stroke-width: 1.25; stroke-linejoin: miter; stroke-linecap: square"/>
   </g>
   <g id="patch_11">
    <path d="M 52.834219 18.167813 
L 523.165781 18.167813 
" style="fill: none; stroke: #cccccc; stroke-width: 1.25; stroke-linejoin: miter; stroke-linecap: square"/>
   </g>
  </g>
 </g>
 <defs>
  <clipPath id="pae0ee44e46">
   <rect x="52.834219" y="18.167813" width="470.331563" height="366.12375"/>
  </clipPath>
 </defs>
</svg>
