<?xml version="1.0" encoding="utf-8" standalone="no"?>
<!DOCTYPE svg PUBLIC "-//W3C//DTD SVG 1.1//EN"
  "http://www.w3.org/Graphics/SVG/1.1/DTD/svg11.dtd">
<svg xmlns:xlink="http://www.w3.org/1999/xlink" width="460.8pt" height="345.6pt" viewBox="0 0 460.8 345.6" xmlns="http://www.w3.org/2000/svg" version="1.1">
 <metadata>
  <rdf:RDF xmlns:dc="http://purl.org/dc/elements/1.1/" xmlns:cc="http://creativecommons.org/ns#" xmlns:rdf="http://www.w3.org/1999/02/22-rdf-syntax-ns#">
   <cc:Work>
    <dc:type rdf:resource="http://purl.org/dc/dcmitype/StillImage"/>
    <dc:date>2023-09-30T02:00:56.668682</dc:date>
    <dc:format>image/svg+xml</dc:format>
    <dc:creator>
     <cc:Agent>
      <dc:title>Matplotlib v3.7.1, https://matplotlib.org/</dc:title>
     </cc:Agent>
    </dc:creator>
   </cc:Work>
  </rdf:RDF>
 </metadata>
 <defs>
  <style type="text/css">*{stroke-linejoin: round; stroke-linecap: butt}</style>
 </defs>
 <g id="figure_1">
  <g id="patch_1">
   <path d="M 0 345.6 
L 460.8 345.6 
L 460.8 0 
L 0 0 
z
" style="fill: #ffffff"/>
  </g>
  <g id="axes_1">
   <g id="patch_2">
    <path d="M 45.840236 301.32375 
L 353.462484 301.32375 
L 353.462484 10.8 
L 45.840236 10.8 
z
" style="fill: #ffffff"/>
   </g>
   <g id="matplotlib.axis_1">
    <g id="xtick_1">
     <g id="line2d_1">
      <path d="M 59.823066 301.32375 
L 59.823066 10.8 
" clip-path="url(#pe4970fa9b2)" style="fill: none; stroke: #cccccc; stroke-linecap: round"/>
     </g>
     <g id="text_1">
      <!-- 0 -->
      <g style="fill: #262626" transform="translate(56.073066 315.239375) scale(0.15 -0.15)">
       <defs>
        <path id="TimesNewRomanPSMT-30" d="M 231 2094 
Q 231 2819 450 3342 
Q 669 3866 1031 4122 
Q 1313 4325 1613 4325 
Q 2100 4325 2488 3828 
Q 2972 3213 2972 2159 
Q 2972 1422 2759 906 
Q 2547 391 2217 158 
Q 1888 -75 1581 -75 
Q 975 -75 572 641 
Q 231 1244 231 2094 
z
M 844 2016 
Q 844 1141 1059 588 
Q 1238 122 1591 122 
Q 1759 122 1940 273 
Q 2122 425 2216 781 
Q 2359 1319 2359 2297 
Q 2359 3022 2209 3506 
Q 2097 3866 1919 4016 
Q 1791 4119 1609 4119 
Q 1397 4119 1231 3928 
Q 1006 3669 925 3112 
Q 844 2556 844 2016 
z
" transform="scale(0.015625)"/>
       </defs>
       <use xlink:href="#TimesNewRomanPSMT-30"/>
      </g>
     </g>
    </g>
    <g id="xtick_2">
     <g id="line2d_2">
      <path d="M 115.86647 301.32375 
L 115.86647 10.8 
" clip-path="url(#pe4970fa9b2)" style="fill: none; stroke: #cccccc; stroke-linecap: round"/>
     </g>
     <g id="text_2">
      <!-- 100 -->
      <g style="fill: #262626" transform="translate(104.61647 315.239375) scale(0.15 -0.15)">
       <defs>
        <path id="TimesNewRomanPSMT-31" d="M 750 3822 
L 1781 4325 
L 1884 4325 
L 1884 747 
Q 1884 391 1914 303 
Q 1944 216 2037 169 
Q 2131 122 2419 116 
L 2419 0 
L 825 0 
L 825 116 
Q 1125 122 1212 167 
Q 1300 213 1334 289 
Q 1369 366 1369 747 
L 1369 3034 
Q 1369 3497 1338 3628 
Q 1316 3728 1258 3775 
Q 1200 3822 1119 3822 
Q 1003 3822 797 3725 
L 750 3822 
z
" transform="scale(0.015625)"/>
       </defs>
       <use xlink:href="#TimesNewRomanPSMT-31"/>
       <use xlink:href="#TimesNewRomanPSMT-30" x="50"/>
       <use xlink:href="#TimesNewRomanPSMT-30" x="100"/>
      </g>
     </g>
    </g>
    <g id="xtick_3">
     <g id="line2d_3">
      <path d="M 171.909875 301.32375 
L 171.909875 10.8 
" clip-path="url(#pe4970fa9b2)" style="fill: none; stroke: #cccccc; stroke-linecap: round"/>
     </g>
     <g id="text_3">
      <!-- 200 -->
      <g style="fill: #262626" transform="translate(160.659875 315.239375) scale(0.15 -0.15)">
       <defs>
        <path id="TimesNewRomanPSMT-32" d="M 2934 816 
L 2638 0 
L 138 0 
L 138 116 
Q 1241 1122 1691 1759 
Q 2141 2397 2141 2925 
Q 2141 3328 1894 3587 
Q 1647 3847 1303 3847 
Q 991 3847 742 3664 
Q 494 3481 375 3128 
L 259 3128 
Q 338 3706 661 4015 
Q 984 4325 1469 4325 
Q 1984 4325 2329 3994 
Q 2675 3663 2675 3213 
Q 2675 2891 2525 2569 
Q 2294 2063 1775 1497 
Q 997 647 803 472 
L 1909 472 
Q 2247 472 2383 497 
Q 2519 522 2628 598 
Q 2738 675 2819 816 
L 2934 816 
z
" transform="scale(0.015625)"/>
       </defs>
       <use xlink:href="#TimesNewRomanPSMT-32"/>
       <use xlink:href="#TimesNewRomanPSMT-30" x="50"/>
       <use xlink:href="#TimesNewRomanPSMT-30" x="100"/>
      </g>
     </g>
    </g>
    <g id="xtick_4">
     <g id="line2d_4">
      <path d="M 227.953279 301.32375 
L 227.953279 10.8 
" clip-path="url(#pe4970fa9b2)" style="fill: none; stroke: #cccccc; stroke-linecap: round"/>
     </g>
     <g id="text_4">
      <!-- 300 -->
      <g style="fill: #262626" transform="translate(216.703279 315.239375) scale(0.15 -0.15)">
       <defs>
        <path id="TimesNewRomanPSMT-33" d="M 325 3431 
Q 506 3859 782 4092 
Q 1059 4325 1472 4325 
Q 1981 4325 2253 3994 
Q 2459 3747 2459 3466 
Q 2459 3003 1878 2509 
Q 2269 2356 2469 2072 
Q 2669 1788 2669 1403 
Q 2669 853 2319 450 
Q 1863 -75 997 -75 
Q 569 -75 414 31 
Q 259 138 259 259 
Q 259 350 332 419 
Q 406 488 509 488 
Q 588 488 669 463 
Q 722 447 909 348 
Q 1097 250 1169 231 
Q 1284 197 1416 197 
Q 1734 197 1970 444 
Q 2206 691 2206 1028 
Q 2206 1275 2097 1509 
Q 2016 1684 1919 1775 
Q 1784 1900 1550 2001 
Q 1316 2103 1072 2103 
L 972 2103 
L 972 2197 
Q 1219 2228 1467 2375 
Q 1716 2522 1828 2728 
Q 1941 2934 1941 3181 
Q 1941 3503 1739 3701 
Q 1538 3900 1238 3900 
Q 753 3900 428 3381 
L 325 3431 
z
" transform="scale(0.015625)"/>
       </defs>
       <use xlink:href="#TimesNewRomanPSMT-33"/>
       <use xlink:href="#TimesNewRomanPSMT-30" x="50"/>
       <use xlink:href="#TimesNewRomanPSMT-30" x="100"/>
      </g>
     </g>
    </g>
    <g id="xtick_5">
     <g id="line2d_5">
      <path d="M 283.996684 301.32375 
L 283.996684 10.8 
" clip-path="url(#pe4970fa9b2)" style="fill: none; stroke: #cccccc; stroke-linecap: round"/>
     </g>
     <g id="text_5">
      <!-- 400 -->
      <g style="fill: #262626" transform="translate(272.746684 315.239375) scale(0.15 -0.15)">
       <defs>
        <path id="TimesNewRomanPSMT-34" d="M 2978 1563 
L 2978 1119 
L 2409 1119 
L 2409 0 
L 1894 0 
L 1894 1119 
L 100 1119 
L 100 1519 
L 2066 4325 
L 2409 4325 
L 2409 1563 
L 2978 1563 
z
M 1894 1563 
L 1894 3666 
L 406 1563 
L 1894 1563 
z
" transform="scale(0.015625)"/>
       </defs>
       <use xlink:href="#TimesNewRomanPSMT-34"/>
       <use xlink:href="#TimesNewRomanPSMT-30" x="50"/>
       <use xlink:href="#TimesNewRomanPSMT-30" x="100"/>
      </g>
     </g>
    </g>
    <g id="xtick_6">
     <g id="line2d_6">
      <path d="M 340.040089 301.32375 
L 340.040089 10.8 
" clip-path="url(#pe4970fa9b2)" style="fill: none; stroke: #cccccc; stroke-linecap: round"/>
     </g>
     <g id="text_6">
      <!-- 500 -->
      <g style="fill: #262626" transform="translate(328.790089 315.239375) scale(0.15 -0.15)">
       <defs>
        <path id="TimesNewRomanPSMT-35" d="M 2778 4238 
L 2534 3706 
L 1259 3706 
L 981 3138 
Q 1809 3016 2294 2522 
Q 2709 2097 2709 1522 
Q 2709 1188 2573 903 
Q 2438 619 2231 419 
Q 2025 219 1772 97 
Q 1413 -75 1034 -75 
Q 653 -75 479 54 
Q 306 184 306 341 
Q 306 428 378 495 
Q 450 563 559 563 
Q 641 563 702 538 
Q 763 513 909 409 
Q 1144 247 1384 247 
Q 1750 247 2026 523 
Q 2303 800 2303 1197 
Q 2303 1581 2056 1914 
Q 1809 2247 1375 2428 
Q 1034 2569 447 2591 
L 1259 4238 
L 2778 4238 
z
" transform="scale(0.015625)"/>
       </defs>
       <use xlink:href="#TimesNewRomanPSMT-35"/>
       <use xlink:href="#TimesNewRomanPSMT-30" x="50"/>
       <use xlink:href="#TimesNewRomanPSMT-30" x="100"/>
      </g>
     </g>
    </g>
    <g id="text_7">
     <!-- Time (arbitrary unit) -->
     <g style="fill: #262626" transform="translate(150.216048 330.780469) scale(0.12 -0.12)">
      <defs>
       <path id="TimesNewRomanPSMT-54" d="M 3703 4238 
L 3750 3244 
L 3631 3244 
Q 3597 3506 3538 3619 
Q 3441 3800 3280 3886 
Q 3119 3972 2856 3972 
L 2259 3972 
L 2259 734 
Q 2259 344 2344 247 
Q 2463 116 2709 116 
L 2856 116 
L 2856 0 
L 1059 0 
L 1059 116 
L 1209 116 
Q 1478 116 1591 278 
Q 1659 378 1659 734 
L 1659 3972 
L 1150 3972 
Q 853 3972 728 3928 
Q 566 3869 450 3700 
Q 334 3531 313 3244 
L 194 3244 
L 244 4238 
L 3703 4238 
z
" transform="scale(0.015625)"/>
       <path id="TimesNewRomanPSMT-69" d="M 928 4444 
Q 1059 4444 1151 4351 
Q 1244 4259 1244 4128 
Q 1244 3997 1151 3903 
Q 1059 3809 928 3809 
Q 797 3809 703 3903 
Q 609 3997 609 4128 
Q 609 4259 701 4351 
Q 794 4444 928 4444 
z
M 1188 2947 
L 1188 647 
Q 1188 378 1227 289 
Q 1266 200 1342 156 
Q 1419 113 1622 113 
L 1622 0 
L 231 0 
L 231 113 
Q 441 113 512 153 
Q 584 194 626 287 
Q 669 381 669 647 
L 669 1750 
Q 669 2216 641 2353 
Q 619 2453 572 2492 
Q 525 2531 444 2531 
Q 356 2531 231 2484 
L 188 2597 
L 1050 2947 
L 1188 2947 
z
" transform="scale(0.015625)"/>
       <path id="TimesNewRomanPSMT-6d" d="M 1050 2338 
Q 1363 2650 1419 2697 
Q 1559 2816 1721 2881 
Q 1884 2947 2044 2947 
Q 2313 2947 2506 2790 
Q 2700 2634 2766 2338 
Q 3088 2713 3309 2830 
Q 3531 2947 3766 2947 
Q 3994 2947 4170 2830 
Q 4347 2713 4450 2447 
Q 4519 2266 4519 1878 
L 4519 647 
Q 4519 378 4559 278 
Q 4591 209 4675 161 
Q 4759 113 4950 113 
L 4950 0 
L 3538 0 
L 3538 113 
L 3597 113 
Q 3781 113 3884 184 
Q 3956 234 3988 344 
Q 4000 397 4000 647 
L 4000 1878 
Q 4000 2228 3916 2372 
Q 3794 2572 3525 2572 
Q 3359 2572 3192 2489 
Q 3025 2406 2788 2181 
L 2781 2147 
L 2788 2013 
L 2788 647 
Q 2788 353 2820 281 
Q 2853 209 2943 161 
Q 3034 113 3253 113 
L 3253 0 
L 1806 0 
L 1806 113 
Q 2044 113 2133 169 
Q 2222 225 2256 338 
Q 2272 391 2272 647 
L 2272 1878 
Q 2272 2228 2169 2381 
Q 2031 2581 1784 2581 
Q 1616 2581 1450 2491 
Q 1191 2353 1050 2181 
L 1050 647 
Q 1050 366 1089 281 
Q 1128 197 1204 155 
Q 1281 113 1516 113 
L 1516 0 
L 100 0 
L 100 113 
Q 297 113 375 155 
Q 453 197 493 289 
Q 534 381 534 647 
L 534 1741 
Q 534 2213 506 2350 
Q 484 2453 437 2492 
Q 391 2531 309 2531 
Q 222 2531 100 2484 
L 53 2597 
L 916 2947 
L 1050 2947 
L 1050 2338 
z
" transform="scale(0.015625)"/>
       <path id="TimesNewRomanPSMT-65" d="M 681 1784 
Q 678 1147 991 784 
Q 1303 422 1725 422 
Q 2006 422 2214 576 
Q 2422 731 2563 1106 
L 2659 1044 
Q 2594 616 2278 264 
Q 1963 -88 1488 -88 
Q 972 -88 605 314 
Q 238 716 238 1394 
Q 238 2128 614 2539 
Q 991 2950 1559 2950 
Q 2041 2950 2350 2633 
Q 2659 2316 2659 1784 
L 681 1784 
z
M 681 1966 
L 2006 1966 
Q 1991 2241 1941 2353 
Q 1863 2528 1708 2628 
Q 1553 2728 1384 2728 
Q 1125 2728 920 2526 
Q 716 2325 681 1966 
z
" transform="scale(0.015625)"/>
       <path id="TimesNewRomanPSMT-20" transform="scale(0.015625)"/>
       <path id="TimesNewRomanPSMT-28" d="M 1988 -1253 
L 1988 -1369 
Q 1516 -1131 1200 -813 
Q 750 -359 506 256 
Q 263 872 263 1534 
Q 263 2503 741 3301 
Q 1219 4100 1988 4444 
L 1988 4313 
Q 1603 4100 1356 3731 
Q 1109 3363 987 2797 
Q 866 2231 866 1616 
Q 866 947 969 400 
Q 1050 -31 1165 -292 
Q 1281 -553 1476 -793 
Q 1672 -1034 1988 -1253 
z
" transform="scale(0.015625)"/>
       <path id="TimesNewRomanPSMT-61" d="M 1822 413 
Q 1381 72 1269 19 
Q 1100 -59 909 -59 
Q 613 -59 420 144 
Q 228 347 228 678 
Q 228 888 322 1041 
Q 450 1253 767 1440 
Q 1084 1628 1822 1897 
L 1822 2009 
Q 1822 2438 1686 2597 
Q 1550 2756 1291 2756 
Q 1094 2756 978 2650 
Q 859 2544 859 2406 
L 866 2225 
Q 866 2081 792 2003 
Q 719 1925 600 1925 
Q 484 1925 411 2006 
Q 338 2088 338 2228 
Q 338 2497 613 2722 
Q 888 2947 1384 2947 
Q 1766 2947 2009 2819 
Q 2194 2722 2281 2516 
Q 2338 2381 2338 1966 
L 2338 994 
Q 2338 584 2353 492 
Q 2369 400 2405 369 
Q 2441 338 2488 338 
Q 2538 338 2575 359 
Q 2641 400 2828 588 
L 2828 413 
Q 2478 -56 2159 -56 
Q 2006 -56 1915 50 
Q 1825 156 1822 413 
z
M 1822 616 
L 1822 1706 
Q 1350 1519 1213 1441 
Q 966 1303 859 1153 
Q 753 1003 753 825 
Q 753 600 887 451 
Q 1022 303 1197 303 
Q 1434 303 1822 616 
z
" transform="scale(0.015625)"/>
       <path id="TimesNewRomanPSMT-72" d="M 1038 2947 
L 1038 2303 
Q 1397 2947 1775 2947 
Q 1947 2947 2059 2842 
Q 2172 2738 2172 2600 
Q 2172 2478 2090 2393 
Q 2009 2309 1897 2309 
Q 1788 2309 1652 2417 
Q 1516 2525 1450 2525 
Q 1394 2525 1328 2463 
Q 1188 2334 1038 2041 
L 1038 669 
Q 1038 431 1097 309 
Q 1138 225 1241 169 
Q 1344 113 1538 113 
L 1538 0 
L 72 0 
L 72 113 
Q 291 113 397 181 
Q 475 231 506 341 
Q 522 394 522 644 
L 522 1753 
Q 522 2253 501 2348 
Q 481 2444 426 2487 
Q 372 2531 291 2531 
Q 194 2531 72 2484 
L 41 2597 
L 906 2947 
L 1038 2947 
z
" transform="scale(0.015625)"/>
       <path id="TimesNewRomanPSMT-62" d="M 984 2369 
Q 1400 2947 1881 2947 
Q 2322 2947 2650 2570 
Q 2978 2194 2978 1541 
Q 2978 778 2472 313 
Q 2038 -88 1503 -88 
Q 1253 -88 995 3 
Q 738 94 469 275 
L 469 3241 
Q 469 3728 445 3840 
Q 422 3953 372 3993 
Q 322 4034 247 4034 
Q 159 4034 28 3984 
L -16 4094 
L 844 4444 
L 984 4444 
L 984 2369 
z
M 984 2169 
L 984 456 
Q 1144 300 1314 220 
Q 1484 141 1663 141 
Q 1947 141 2192 453 
Q 2438 766 2438 1363 
Q 2438 1913 2192 2208 
Q 1947 2503 1634 2503 
Q 1469 2503 1303 2419 
Q 1178 2356 984 2169 
z
" transform="scale(0.015625)"/>
       <path id="TimesNewRomanPSMT-74" d="M 1031 3803 
L 1031 2863 
L 1700 2863 
L 1700 2644 
L 1031 2644 
L 1031 788 
Q 1031 509 1111 412 
Q 1191 316 1316 316 
Q 1419 316 1516 380 
Q 1613 444 1666 569 
L 1788 569 
Q 1678 263 1478 108 
Q 1278 -47 1066 -47 
Q 922 -47 784 33 
Q 647 113 581 261 
Q 516 409 516 719 
L 516 2644 
L 63 2644 
L 63 2747 
Q 234 2816 414 2980 
Q 594 3144 734 3369 
Q 806 3488 934 3803 
L 1031 3803 
z
" transform="scale(0.015625)"/>
       <path id="TimesNewRomanPSMT-79" d="M 38 2863 
L 1372 2863 
L 1372 2747 
L 1306 2747 
Q 1166 2747 1095 2686 
Q 1025 2625 1025 2534 
Q 1025 2413 1128 2197 
L 1825 753 
L 2466 2334 
Q 2519 2463 2519 2588 
Q 2519 2644 2497 2672 
Q 2472 2706 2419 2726 
Q 2366 2747 2231 2747 
L 2231 2863 
L 3163 2863 
L 3163 2747 
Q 3047 2734 2984 2696 
Q 2922 2659 2847 2556 
Q 2819 2513 2741 2316 
L 1575 -541 
Q 1406 -956 1132 -1168 
Q 859 -1381 606 -1381 
Q 422 -1381 303 -1275 
Q 184 -1169 184 -1031 
Q 184 -900 270 -820 
Q 356 -741 506 -741 
Q 609 -741 788 -809 
Q 913 -856 944 -856 
Q 1038 -856 1148 -759 
Q 1259 -663 1372 -384 
L 1575 113 
L 547 2272 
Q 500 2369 397 2513 
Q 319 2622 269 2659 
Q 197 2709 38 2747 
L 38 2863 
z
" transform="scale(0.015625)"/>
       <path id="TimesNewRomanPSMT-75" d="M 2709 2863 
L 2709 1128 
Q 2709 631 2732 520 
Q 2756 409 2807 365 
Q 2859 322 2928 322 
Q 3025 322 3147 375 
L 3191 266 
L 2334 -88 
L 2194 -88 
L 2194 519 
Q 1825 119 1631 15 
Q 1438 -88 1222 -88 
Q 981 -88 804 51 
Q 628 191 559 409 
Q 491 628 491 1028 
L 491 2306 
Q 491 2509 447 2587 
Q 403 2666 317 2708 
Q 231 2750 6 2747 
L 6 2863 
L 1009 2863 
L 1009 947 
Q 1009 547 1148 422 
Q 1288 297 1484 297 
Q 1619 297 1789 381 
Q 1959 466 2194 703 
L 2194 2325 
Q 2194 2569 2105 2655 
Q 2016 2741 1734 2747 
L 1734 2863 
L 2709 2863 
z
" transform="scale(0.015625)"/>
       <path id="TimesNewRomanPSMT-6e" d="M 1034 2341 
Q 1538 2947 1994 2947 
Q 2228 2947 2397 2830 
Q 2566 2713 2666 2444 
Q 2734 2256 2734 1869 
L 2734 647 
Q 2734 375 2778 278 
Q 2813 200 2889 156 
Q 2966 113 3172 113 
L 3172 0 
L 1756 0 
L 1756 113 
L 1816 113 
Q 2016 113 2095 173 
Q 2175 234 2206 353 
Q 2219 400 2219 647 
L 2219 1819 
Q 2219 2209 2117 2386 
Q 2016 2563 1775 2563 
Q 1403 2563 1034 2156 
L 1034 647 
Q 1034 356 1069 288 
Q 1113 197 1189 155 
Q 1266 113 1500 113 
L 1500 0 
L 84 0 
L 84 113 
L 147 113 
Q 366 113 442 223 
Q 519 334 519 647 
L 519 1709 
Q 519 2225 495 2337 
Q 472 2450 423 2490 
Q 375 2531 294 2531 
Q 206 2531 84 2484 
L 38 2597 
L 900 2947 
L 1034 2947 
L 1034 2341 
z
" transform="scale(0.015625)"/>
       <path id="TimesNewRomanPSMT-29" d="M 144 4313 
L 144 4444 
Q 619 4209 934 3891 
Q 1381 3434 1625 2820 
Q 1869 2206 1869 1541 
Q 1869 572 1392 -226 
Q 916 -1025 144 -1369 
L 144 -1253 
Q 528 -1038 776 -670 
Q 1025 -303 1145 264 
Q 1266 831 1266 1447 
Q 1266 2113 1163 2663 
Q 1084 3094 967 3353 
Q 850 3613 656 3853 
Q 463 4094 144 4313 
z
" transform="scale(0.015625)"/>
      </defs>
      <use xlink:href="#TimesNewRomanPSMT-54"/>
      <use xlink:href="#TimesNewRomanPSMT-69" x="57.583984"/>
      <use xlink:href="#TimesNewRomanPSMT-6d" x="85.367188"/>
      <use xlink:href="#TimesNewRomanPSMT-65" x="163.150391"/>
      <use xlink:href="#TimesNewRomanPSMT-20" x="207.535156"/>
      <use xlink:href="#TimesNewRomanPSMT-28" x="232.535156"/>
      <use xlink:href="#TimesNewRomanPSMT-61" x="265.835938"/>
      <use xlink:href="#TimesNewRomanPSMT-72" x="310.220703"/>
      <use xlink:href="#TimesNewRomanPSMT-62" x="343.521484"/>
      <use xlink:href="#TimesNewRomanPSMT-69" x="393.521484"/>
      <use xlink:href="#TimesNewRomanPSMT-74" x="421.304688"/>
      <use xlink:href="#TimesNewRomanPSMT-72" x="449.087891"/>
      <use xlink:href="#TimesNewRomanPSMT-61" x="482.388672"/>
      <use xlink:href="#TimesNewRomanPSMT-72" x="526.773438"/>
      <use xlink:href="#TimesNewRomanPSMT-79" x="560.074219"/>
      <use xlink:href="#TimesNewRomanPSMT-20" x="610.074219"/>
      <use xlink:href="#TimesNewRomanPSMT-75" x="635.074219"/>
      <use xlink:href="#TimesNewRomanPSMT-6e" x="685.074219"/>
      <use xlink:href="#TimesNewRomanPSMT-69" x="735.074219"/>
      <use xlink:href="#TimesNewRomanPSMT-74" x="762.857422"/>
      <use xlink:href="#TimesNewRomanPSMT-29" x="790.640625"/>
     </g>
    </g>
   </g>
   <g id="matplotlib.axis_2">
    <g id="ytick_1">
     <g id="line2d_7">
      <path d="M 45.840236 286.799728 
L 353.462484 286.799728 
" clip-path="url(#pe4970fa9b2)" style="fill: none; stroke: #cccccc; stroke-linecap: round"/>
     </g>
     <g id="text_8">
      <!-- −1 -->
      <g style="fill: #262626" transform="translate(26.381642 292.00754) scale(0.15 -0.15)">
       <defs>
        <path id="TimesNewRomanPSMT-2212" d="M 3484 2000 
L 116 2000 
L 116 2256 
L 3484 2256 
L 3484 2000 
z
" transform="scale(0.015625)"/>
       </defs>
       <use xlink:href="#TimesNewRomanPSMT-2212"/>
       <use xlink:href="#TimesNewRomanPSMT-31" x="56.396484"/>
      </g>
     </g>
    </g>
    <g id="ytick_2">
     <g id="line2d_8">
      <path d="M 45.840236 246.108473 
L 353.462484 246.108473 
" clip-path="url(#pe4970fa9b2)" style="fill: none; stroke: #cccccc; stroke-linecap: round"/>
     </g>
     <g id="text_9">
      <!-- 0 -->
      <g style="fill: #262626" transform="translate(34.840236 251.316286) scale(0.15 -0.15)">
       <use xlink:href="#TimesNewRomanPSMT-30"/>
      </g>
     </g>
    </g>
    <g id="ytick_3">
     <g id="line2d_9">
      <path d="M 45.840236 205.417219 
L 353.462484 205.417219 
" clip-path="url(#pe4970fa9b2)" style="fill: none; stroke: #cccccc; stroke-linecap: round"/>
     </g>
     <g id="text_10">
      <!-- 1 -->
      <g style="fill: #262626" transform="translate(34.840236 210.625031) scale(0.15 -0.15)">
       <use xlink:href="#TimesNewRomanPSMT-31"/>
      </g>
     </g>
    </g>
    <g id="ytick_4">
     <g id="line2d_10">
      <path d="M 45.840236 164.725964 
L 353.462484 164.725964 
" clip-path="url(#pe4970fa9b2)" style="fill: none; stroke: #cccccc; stroke-linecap: round"/>
     </g>
     <g id="text_11">
      <!-- 2 -->
      <g style="fill: #262626" transform="translate(34.840236 169.933777) scale(0.15 -0.15)">
       <use xlink:href="#TimesNewRomanPSMT-32"/>
      </g>
     </g>
    </g>
    <g id="ytick_5">
     <g id="line2d_11">
      <path d="M 45.840236 124.034709 
L 353.462484 124.034709 
" clip-path="url(#pe4970fa9b2)" style="fill: none; stroke: #cccccc; stroke-linecap: round"/>
     </g>
     <g id="text_12">
      <!-- 3 -->
      <g style="fill: #262626" transform="translate(34.840236 129.242522) scale(0.15 -0.15)">
       <use xlink:href="#TimesNewRomanPSMT-33"/>
      </g>
     </g>
    </g>
    <g id="ytick_6">
     <g id="line2d_12">
      <path d="M 45.840236 83.343455 
L 353.462484 83.343455 
" clip-path="url(#pe4970fa9b2)" style="fill: none; stroke: #cccccc; stroke-linecap: round"/>
     </g>
     <g id="text_13">
      <!-- 4 -->
      <g style="fill: #262626" transform="translate(34.840236 88.551267) scale(0.15 -0.15)">
       <use xlink:href="#TimesNewRomanPSMT-34"/>
      </g>
     </g>
    </g>
    <g id="ytick_7">
     <g id="line2d_13">
      <path d="M 45.840236 42.6522 
L 353.462484 42.6522 
" clip-path="url(#pe4970fa9b2)" style="fill: none; stroke: #cccccc; stroke-linecap: round"/>
     </g>
     <g id="text_14">
      <!-- 5 -->
      <g style="fill: #262626" transform="translate(34.840236 47.860013) scale(0.15 -0.15)">
       <use xlink:href="#TimesNewRomanPSMT-35"/>
      </g>
     </g>
    </g>
    <g id="text_15">
     <!-- $X(t)$ -->
     <g style="fill: #262626" transform="translate(11.221642 153.495) scale(0.12 -0.12)">
      <defs>
       <path id="DejaVuSans-Oblique-58" d="M 878 4666 
L 1516 4666 
L 2316 2981 
L 3763 4666 
L 4500 4666 
L 2578 2438 
L 3738 0 
L 3103 0 
L 2163 1966 
L 459 0 
L -275 0 
L 1906 2509 
L 878 4666 
z
" transform="scale(0.015625)"/>
       <path id="DejaVuSans-28" d="M 1984 4856 
Q 1566 4138 1362 3434 
Q 1159 2731 1159 2009 
Q 1159 1288 1364 580 
Q 1569 -128 1984 -844 
L 1484 -844 
Q 1016 -109 783 600 
Q 550 1309 550 2009 
Q 550 2706 781 3412 
Q 1013 4119 1484 4856 
L 1984 4856 
z
" transform="scale(0.015625)"/>
       <path id="DejaVuSans-Oblique-74" d="M 2706 3500 
L 2619 3053 
L 1472 3053 
L 1100 1153 
Q 1081 1047 1072 975 
Q 1063 903 1063 863 
Q 1063 663 1183 572 
Q 1303 481 1569 481 
L 2150 481 
L 2053 0 
L 1503 0 
Q 991 0 739 200 
Q 488 400 488 806 
Q 488 878 497 964 
Q 506 1050 525 1153 
L 897 3053 
L 409 3053 
L 500 3500 
L 978 3500 
L 1172 4494 
L 1747 4494 
L 1556 3500 
L 2706 3500 
z
" transform="scale(0.015625)"/>
       <path id="DejaVuSans-29" d="M 513 4856 
L 1013 4856 
Q 1481 4119 1714 3412 
Q 1947 2706 1947 2009 
Q 1947 1309 1714 600 
Q 1481 -109 1013 -844 
L 513 -844 
Q 928 -128 1133 580 
Q 1338 1288 1338 2009 
Q 1338 2731 1133 3434 
Q 928 4138 513 4856 
z
" transform="scale(0.015625)"/>
      </defs>
      <use xlink:href="#DejaVuSans-Oblique-58" transform="translate(0 0.125)"/>
      <use xlink:href="#DejaVuSans-28" transform="translate(68.505859 0.125)"/>
      <use xlink:href="#DejaVuSans-Oblique-74" transform="translate(107.519531 0.125)"/>
      <use xlink:href="#DejaVuSans-29" transform="translate(146.728516 0.125)"/>
     </g>
    </g>
   </g>
   <g id="line2d_14">
    <path d="M 59.823066 274.086781 
L 60.3835 252.774665 
L 60.943934 250.930172 
L 61.504368 224.64751 
L 62.064802 265.599818 
L 62.625236 264.163045 
L 63.18567 274.41548 
L 63.746104 148.470695 
L 64.306538 271.668265 
L 64.866972 247.582073 
L 65.427406 161.823066 
L 65.98784 249.204752 
L 66.548274 170.993021 
L 67.108708 250.052108 
L 67.669142 241.087042 
L 68.79001 216.354185 
L 69.350444 256.769574 
L 69.910878 275.276136 
L 70.471313 267.169934 
L 71.031747 197.467656 
L 71.592181 255.342719 
L 72.152615 248.862253 
L 72.713049 236.853693 
L 73.273483 271.757179 
L 73.833917 147.98716 
L 74.394351 249.131325 
L 74.954785 270.534258 
L 75.515219 272.736864 
L 76.075653 220.276308 
L 76.636087 275.261363 
L 77.196521 272.786657 
L 77.756955 275.091321 
L 78.317389 262.052695 
L 78.877823 262.167363 
L 79.438257 258.631894 
L 79.998691 222.82557 
L 80.559125 264.93398 
L 81.119559 260.130639 
L 81.679993 275.166023 
L 82.240428 236.980111 
L 82.800862 264.518523 
L 83.361296 226.809309 
L 83.92173 257.977472 
L 84.482164 185.678229 
L 85.042598 258.069056 
L 85.603032 93.754189 
L 86.163466 222.251964 
L 86.7239 242.537745 
L 87.284334 270.991608 
L 87.844768 181.125398 
L 88.405202 271.464197 
L 88.965636 253.276223 
L 89.52607 273.864499 
L 90.086504 210.031541 
L 90.646938 250.62111 
L 91.207372 251.675007 
L 91.767806 265.854101 
L 92.32824 160.177198 
L 92.888674 189.19787 
L 93.449108 246.164084 
L 94.009542 260.305847 
L 94.569977 270.555717 
L 95.130411 273.818672 
L 95.690845 197.036606 
L 96.251279 274.10984 
L 96.811713 26.081563 
L 97.372147 252.221635 
L 97.932581 272.771173 
L 98.493015 215.605223 
L 99.053449 196.927386 
L 99.613883 275.188744 
L 100.174317 275.047371 
L 100.734751 247.207704 
L 101.295185 266.546498 
L 101.855619 260.95433 
L 102.416053 240.071065 
L 102.976487 237.226876 
L 103.536921 274.579373 
L 104.097355 270.970992 
L 104.657789 237.01663 
L 105.218223 236.653855 
L 106.339091 270.064004 
L 106.899526 274.487557 
L 107.45996 258.952757 
L 108.020394 274.882784 
L 108.580828 273.790823 
L 109.701696 133.564301 
L 110.26213 273.674388 
L 110.822564 273.288977 
L 111.382998 251.949064 
L 111.943432 272.228687 
L 112.503866 244.73023 
L 113.0643 273.952364 
L 114.185168 265.098643 
L 114.745602 271.580829 
L 115.306036 265.062465 
L 115.86647 275.033684 
L 116.426904 248.71689 
L 116.987338 274.557176 
L 117.547772 275.089667 
L 118.108206 273.537467 
L 118.668641 275.01709 
L 119.229075 178.273947 
L 119.789509 223.58908 
L 120.910377 268.828655 
L 121.470811 273.302908 
L 122.031245 260.329361 
L 122.591679 275.288854 
L 123.152113 263.325087 
L 123.712547 200.821662 
L 124.272981 270.762145 
L 124.833415 275.090991 
L 125.393849 274.396741 
L 126.514717 240.563734 
L 127.075151 27.572187 
L 127.635585 235.950596 
L 128.196019 177.159894 
L 128.756453 264.516115 
L 129.316887 250.991316 
L 129.877321 252.751807 
L 130.437755 273.882025 
L 130.99819 225.57303 
L 131.558624 272.818313 
L 132.119058 265.971407 
L 132.679492 269.470085 
L 133.239926 259.214527 
L 133.80036 274.945861 
L 134.360794 265.17727 
L 134.921228 270.196986 
L 135.481662 219.845557 
L 136.042096 262.220824 
L 136.60253 275.21471 
L 137.162964 260.800312 
L 137.723398 206.717595 
L 138.283832 274.367064 
L 138.844266 218.890444 
L 139.965134 275.043611 
L 140.525568 272.920444 
L 141.086002 113.067494 
L 141.646436 274.933351 
L 142.20687 258.803439 
L 142.767304 275.264986 
L 143.327739 253.582824 
L 143.888173 269.851996 
L 144.448607 274.123701 
L 145.009041 260.622582 
L 145.569475 194.751896 
L 146.129909 274.729773 
L 146.690343 272.259315 
L 147.250777 275.288432 
L 147.811211 269.043808 
L 148.371645 267.911904 
L 148.932079 275.202874 
L 149.492513 275.034174 
L 150.052947 275.260371 
L 150.613381 259.994295 
L 151.173815 274.851198 
L 151.734249 192.027831 
L 152.294683 271.212709 
L 152.855117 270.775242 
L 153.415551 254.872644 
L 153.975985 203.306539 
L 154.536419 170.454453 
L 155.096854 242.20644 
L 155.657288 257.561183 
L 156.217722 264.197687 
L 156.778156 123.452733 
L 157.33859 251.783966 
L 157.899024 270.681139 
L 158.459458 273.190166 
L 159.019892 239.648832 
L 159.580326 275.206001 
L 160.14076 243.164365 
L 160.701194 248.347784 
L 161.261628 217.038159 
L 161.822062 91.239955 
L 162.382496 258.091075 
L 162.94293 245.184755 
L 163.503364 272.670195 
L 164.063798 275.261455 
L 164.624232 273.767127 
L 165.184666 250.413678 
L 165.7451 212.699703 
L 166.305534 274.381541 
L 166.865968 275.293232 
L 167.426403 231.626353 
L 167.986837 273.041653 
L 168.547271 221.922865 
L 169.107705 267.258393 
L 169.668139 256.761674 
L 170.228573 264.688555 
L 170.789007 198.666972 
L 171.349441 274.492845 
L 171.909875 274.565078 
L 172.470309 249.147859 
L 173.030743 142.102422 
L 174.151611 252.499671 
L 174.712045 267.348518 
L 175.272479 274.97034 
L 175.832913 270.264006 
L 176.393347 243.353543 
L 176.953781 258.350563 
L 177.514215 268.490689 
L 178.074649 274.654012 
L 178.635083 270.063136 
L 179.755952 249.804519 
L 180.316386 248.126626 
L 180.87682 273.541278 
L 181.437254 275.129009 
L 181.997688 275.230694 
L 182.558122 271.931997 
L 183.118556 267.246281 
L 183.67899 205.908277 
L 184.239424 275.256306 
L 184.799858 255.287087 
L 185.360292 267.341987 
L 185.920726 269.84423 
L 186.48116 269.716982 
L 187.041594 239.504678 
L 187.602028 275.271882 
L 188.162462 261.152849 
L 188.722896 273.075678 
L 189.28333 274.444131 
L 189.843764 256.087792 
L 190.404198 195.450029 
L 190.964632 270.783491 
L 191.525066 263.265155 
L 192.085501 241.964575 
L 192.645935 269.474363 
L 193.206369 238.49254 
L 193.766803 274.236193 
L 194.327237 264.696685 
L 194.887671 273.913616 
L 195.448105 275.132281 
L 196.008539 231.332315 
L 196.568973 263.528295 
L 197.129407 243.373011 
L 197.689841 66.933184 
L 198.250275 225.162689 
L 198.810709 239.009732 
L 199.931577 274.734855 
L 200.492011 255.074355 
L 201.612879 273.627282 
L 202.173313 272.934674 
L 202.733747 247.726614 
L 203.294181 191.197951 
L 203.854616 241.997503 
L 204.41505 254.533408 
L 204.975484 217.465252 
L 205.535918 271.716855 
L 206.096352 261.173971 
L 206.656786 227.047488 
L 207.21722 274.682731 
L 207.777654 247.233428 
L 208.338088 275.245566 
L 208.898522 271.173527 
L 209.458956 269.797241 
L 210.01939 268.071997 
L 210.579824 244.510276 
L 211.700692 268.829676 
L 212.261126 215.921098 
L 212.82156 260.844199 
L 213.381994 273.05182 
L 213.942428 244.16361 
L 214.502862 242.428785 
L 215.063296 251.217171 
L 216.184165 166.900494 
L 216.744599 247.089573 
L 217.305033 264.582156 
L 217.865467 196.104132 
L 218.425901 272.365576 
L 218.986335 250.660506 
L 219.546769 271.170539 
L 220.107203 261.527226 
L 220.667637 273.792851 
L 221.228071 274.750913 
L 221.788505 274.831235 
L 222.348939 254.8702 
L 222.909373 261.459422 
L 223.469807 256.507937 
L 224.030241 235.881663 
L 224.590675 273.126151 
L 225.151109 275.206813 
L 225.711543 267.719348 
L 226.271977 274.265918 
L 226.832411 275.157032 
L 227.392845 267.848046 
L 227.953279 208.320512 
L 228.513714 275.13865 
L 229.074148 275.195661 
L 229.634582 190.757986 
L 230.195016 272.266077 
L 230.75545 264.828233 
L 231.315884 255.042466 
L 231.876318 273.721518 
L 232.436752 243.402559 
L 232.997186 273.493085 
L 233.55762 219.367225 
L 234.118054 272.10579 
L 234.678488 266.941909 
L 235.238922 270.356763 
L 235.799356 267.488851 
L 236.35979 223.135479 
L 236.920224 271.058981 
L 237.480658 257.096719 
L 238.041092 275.272435 
L 238.601526 272.148154 
L 239.16196 271.824882 
L 239.722394 254.247638 
L 240.282829 171.746103 
L 240.843263 273.156388 
L 241.403697 275.235923 
L 241.964131 274.965196 
L 242.524565 250.685244 
L 243.645433 271.506911 
L 244.205867 271.73594 
L 244.766301 257.324844 
L 245.887169 274.715985 
L 246.447603 217.847525 
L 247.008037 244.309804 
L 247.568471 193.473833 
L 248.128905 209.806792 
L 248.689339 272.398971 
L 249.249773 271.929275 
L 249.810207 261.967542 
L 250.370641 274.730067 
L 250.931075 273.448334 
L 251.491509 236.972157 
L 252.051943 232.324177 
L 252.612378 268.090706 
L 253.172812 205.04401 
L 253.733246 275.252297 
L 254.29368 274.082959 
L 254.854114 270.502868 
L 255.414548 270.415625 
L 255.974982 228.472815 
L 256.535416 257.100929 
L 257.09585 236.644776 
L 257.656284 274.450211 
L 258.216718 266.325987 
L 258.777152 261.830071 
L 259.337586 273.19036 
L 259.89802 275.136031 
L 260.458454 245.385613 
L 261.018888 275.037596 
L 261.579322 269.693917 
L 262.139756 169.424217 
L 262.70019 172.305752 
L 263.260624 233.707218 
L 264.381492 267.674968 
L 264.941927 274.425101 
L 265.502361 211.470504 
L 266.062795 274.72145 
L 266.623229 273.669634 
L 267.183663 271.763558 
L 267.744097 192.027681 
L 268.304531 274.172824 
L 268.864965 275.293812 
L 269.425399 256.571778 
L 269.985833 233.071431 
L 270.546267 275.087055 
L 271.106701 239.973479 
L 271.667135 194.489377 
L 272.227569 266.044158 
L 273.348437 138.320651 
L 273.908871 259.938019 
L 274.469305 185.90967 
L 275.029739 266.053344 
L 275.590173 259.242427 
L 276.150607 233.707111 
L 276.711042 269.151959 
L 277.271476 231.372774 
L 277.83191 275.073269 
L 278.392344 274.812169 
L 278.952778 259.542188 
L 279.513212 227.052426 
L 280.073646 273.743972 
L 280.63408 241.791948 
L 281.194514 267.566136 
L 281.754948 184.707963 
L 282.315382 260.220978 
L 282.875816 271.024652 
L 283.43625 213.241347 
L 284.557118 264.709081 
L 285.117552 185.231041 
L 285.677986 268.987966 
L 286.23842 275.215064 
L 286.798854 256.732472 
L 287.359288 272.19381 
L 287.919722 269.845549 
L 288.480156 192.687149 
L 289.040591 272.70587 
L 289.601025 268.334317 
L 290.161459 254.847274 
L 290.721893 114.302695 
L 291.282327 227.959072 
L 291.842761 231.323684 
L 292.403195 183.770832 
L 292.963629 275.065583 
L 293.524063 201.869662 
L 294.084497 255.799171 
L 294.644931 269.511486 
L 295.205365 257.094872 
L 295.765799 259.860925 
L 296.326233 273.686478 
L 296.886667 205.867584 
L 297.447101 270.829413 
L 298.007535 262.343793 
L 299.128403 227.126755 
L 299.688837 188.165722 
L 300.249271 236.513351 
L 300.809705 258.920206 
L 301.37014 253.746776 
L 301.930574 275.081753 
L 302.491008 180.036685 
L 303.051442 271.262657 
L 303.611876 124.966476 
L 304.17231 254.840226 
L 304.732744 64.910721 
L 305.293178 274.769897 
L 306.414046 160.318967 
L 306.97448 208.394399 
L 307.534914 272.728487 
L 308.095348 156.401897 
L 308.655782 260.757551 
L 309.216216 261.336597 
L 309.77665 92.407818 
L 310.337084 245.428364 
L 310.897518 258.334579 
L 311.457952 190.370375 
L 312.018386 270.896174 
L 312.57882 249.175504 
L 313.139255 264.292901 
L 313.699689 272.867243 
L 314.260123 272.308143 
L 314.820557 205.629945 
L 315.380991 263.939452 
L 315.941425 275.190578 
L 316.501859 268.612785 
L 317.062293 194.148925 
L 317.622727 230.326899 
L 318.183161 224.027648 
L 318.743595 269.92031 
L 319.864463 238.223153 
L 320.424897 251.242339 
L 320.985331 118.866664 
L 321.545765 274.526094 
L 322.106199 275.109116 
L 322.666633 250.09257 
L 323.227067 275.180073 
L 323.787501 187.199811 
L 324.347935 45.509307 
L 324.908369 220.114841 
L 326.029238 273.691768 
L 326.589672 219.170965 
L 327.150106 275.041113 
L 327.71054 275.077935 
L 328.270974 240.843831 
L 328.831408 226.512115 
L 329.391842 269.73307 
L 329.952276 264.896546 
L 330.51271 253.036455 
L 331.073144 270.599527 
L 331.633578 274.777221 
L 332.194012 275.152926 
L 332.754446 238.219536 
L 333.31488 248.816297 
L 333.875314 241.177325 
L 334.435748 268.429094 
L 334.996182 274.878081 
L 335.556616 83.456517 
L 336.11705 267.210909 
L 336.677484 270.809318 
L 337.237918 261.64814 
L 337.798353 265.18888 
L 338.358787 275.266985 
L 338.919221 253.017026 
L 339.479655 203.659555 
L 339.479655 203.659555 
" clip-path="url(#pe4970fa9b2)" style="fill: none; stroke: #4878d0; stroke-width: 1.5; stroke-linecap: round"/>
   </g>
   <g id="line2d_15">
    <path d="M 59.823066 274.362264 
L 60.3835 252.833536 
L 60.943934 250.970274 
L 61.504368 224.440389 
L 62.064802 265.784507 
L 62.625236 264.33572 
L 63.18567 274.67 
L 63.746104 147.548543 
L 64.306538 271.925349 
L 64.866972 247.578098 
L 65.427406 161.031254 
L 65.98784 249.237727 
L 66.548274 170.279471 
L 67.108708 250.107093 
L 67.669142 241.025801 
L 68.79001 216.071899 
L 69.350444 256.872606 
L 69.910878 275.541968 
L 70.471313 267.383305 
L 71.031747 196.997325 
L 71.592181 255.43268 
L 72.152615 248.879161 
L 72.713049 236.763851 
L 73.273483 271.998539 
L 73.833917 147.056529 
L 74.394351 249.1869 
L 74.954785 270.764541 
L 75.515219 272.981059 
L 76.075653 220.027008 
L 76.636087 275.533685 
L 77.196521 273.029625 
L 77.756955 275.361808 
L 78.317389 262.19421 
L 78.877823 262.328037 
L 79.438257 258.741943 
L 79.998691 222.61647 
L 80.559125 265.108751 
L 81.119559 260.258862 
L 81.679993 275.442736 
L 82.240428 236.885368 
L 82.800862 264.694977 
L 83.361296 226.622762 
L 83.92173 258.092188 
L 84.482164 185.102258 
L 85.042598 258.18742 
L 85.603032 92.32258 
L 86.163466 222.037906 
L 86.7239 242.516245 
L 87.284334 271.20812 
L 87.844768 180.514128 
L 88.405202 271.703964 
L 88.965636 253.343665 
L 89.52607 274.157409 
L 90.086504 209.666978 
L 90.646938 250.664793 
L 91.207372 251.739628 
L 91.767806 266.033036 
L 92.32824 159.361026 
L 92.888674 188.673816 
L 93.449108 246.187478 
L 94.009542 260.433541 
L 94.569977 270.772006 
L 95.130411 274.076243 
L 95.690845 196.571946 
L 96.251279 274.391003 
L 96.811713 24.005625 
L 97.372147 252.298638 
L 97.932581 273.022478 
L 98.493015 215.30194 
L 99.053449 196.472389 
L 99.613883 275.479022 
L 100.174317 275.302182 
L 100.734751 247.211402 
L 101.295185 266.736695 
L 101.855619 261.086543 
L 102.416053 240.015911 
L 102.976487 237.137812 
L 103.536921 274.845074 
L 104.097355 271.194991 
L 104.657789 236.926716 
L 105.218223 236.564814 
L 106.339091 270.300026 
L 106.899526 274.750821 
L 107.45996 259.061658 
L 108.020394 275.151912 
L 108.580828 274.043311 
L 109.701696 132.50266 
L 110.26213 273.941942 
L 110.822564 273.554887 
L 111.382998 251.985846 
L 111.943432 272.477178 
L 112.503866 244.707245 
L 113.0643 274.248431 
L 114.185168 265.274427 
L 114.745602 271.815949 
L 115.306036 265.240637 
L 115.86647 275.342181 
L 116.426904 248.714095 
L 116.987338 274.842721 
L 117.547772 275.344575 
L 118.108206 273.790724 
L 118.668641 275.282364 
L 119.229075 177.631482 
L 119.789509 223.392614 
L 120.910377 269.028497 
L 121.470811 273.583897 
L 122.031245 260.447623 
L 122.591679 275.556496 
L 123.152113 263.48265 
L 123.712547 200.391898 
L 124.272981 271.000674 
L 124.833415 275.350173 
L 125.393849 274.657089 
L 126.514717 240.502924 
L 127.075151 25.523219 
L 127.635585 235.874876 
L 128.196019 176.525165 
L 128.756453 264.678828 
L 129.316887 251.029422 
L 129.877321 252.808871 
L 130.437755 274.148292 
L 130.99819 225.369889 
L 131.558624 273.077095 
L 132.119058 266.14531 
L 132.679492 269.720831 
L 133.239926 259.316431 
L 133.80036 275.221812 
L 134.360794 265.355846 
L 134.921228 270.414955 
L 135.481662 219.599497 
L 136.042096 262.369473 
L 136.60253 275.488226 
L 137.162964 260.933301 
L 137.723398 206.349802 
L 138.283832 274.631043 
L 138.844266 218.642443 
L 139.965134 275.305117 
L 140.525568 273.163742 
L 141.086002 111.815858 
L 141.646436 275.230796 
L 142.20687 258.898547 
L 142.767304 275.54645 
L 143.327739 253.643039 
L 143.888173 270.077615 
L 144.448607 274.403183 
L 145.009041 260.75575 
L 145.569475 194.267677 
L 146.129909 274.999557 
L 146.690343 272.503081 
L 147.250777 275.551866 
L 147.811211 269.255358 
L 148.371645 268.119837 
L 148.932079 275.466415 
L 149.492513 275.320921 
L 150.052947 275.523305 
L 150.613381 260.159054 
L 151.173815 275.098522 
L 151.734249 191.535274 
L 152.294683 271.4512 
L 152.855117 270.991705 
L 153.415551 254.956175 
L 153.975985 202.916891 
L 154.536419 169.736655 
L 155.096854 242.172511 
L 155.657288 257.66427 
L 156.217722 264.37273 
L 156.778156 122.308862 
L 157.33859 251.847259 
L 157.899024 270.894365 
L 158.459458 273.495617 
L 159.019892 239.55656 
L 159.580326 275.477909 
L 160.14076 243.132826 
L 160.701194 248.36763 
L 161.261628 216.767682 
L 161.822062 89.786216 
L 162.382496 258.21976 
L 162.94293 245.156275 
L 163.503364 272.931154 
L 164.063798 275.525902 
L 164.624232 274.023108 
L 165.184666 250.490739 
L 165.7451 212.362843 
L 166.305534 274.652324 
L 166.865968 275.555133 
L 167.426403 231.51872 
L 167.986837 273.278196 
L 168.547271 221.696999 
L 169.107705 267.45369 
L 169.668139 256.85484 
L 170.228573 264.870986 
L 170.789007 198.214385 
L 171.349441 274.778936 
L 171.909875 274.812242 
L 172.470309 249.170679 
L 173.030743 141.144084 
L 174.151611 252.547349 
L 174.712045 267.542573 
L 175.272479 275.238581 
L 175.832913 270.485527 
L 176.393347 243.339418 
L 176.953781 258.45891 
L 177.514215 268.69976 
L 178.074649 274.912757 
L 178.635083 270.281794 
L 179.755952 249.878182 
L 180.316386 248.121304 
L 180.87682 273.844441 
L 181.437254 275.417965 
L 181.997688 275.476807 
L 182.558122 272.170482 
L 183.118556 267.438405 
L 183.67899 205.53362 
L 184.239424 275.53523 
L 184.799858 255.36042 
L 185.360292 267.551067 
L 185.920726 270.05837 
L 186.48116 269.933407 
L 187.041594 239.457922 
L 187.602028 275.540661 
L 188.162462 261.309361 
L 188.722896 273.315831 
L 189.28333 274.711809 
L 189.843764 256.174401 
L 190.404198 194.973834 
L 190.964632 271.02089 
L 191.525066 263.412999 
L 192.085501 241.921112 
L 192.645935 269.692131 
L 193.206369 238.456655 
L 193.766803 274.478334 
L 194.327237 264.869823 
L 194.887671 274.167649 
L 195.448105 275.401502 
L 196.008539 231.19788 
L 196.568973 263.710435 
L 197.129407 243.328784 
L 197.689841 65.249965 
L 198.250275 225.002312 
L 198.810709 238.918742 
L 199.931577 275.02197 
L 200.492011 255.137835 
L 201.612879 273.894514 
L 202.173313 273.176567 
L 202.733747 247.750095 
L 203.294181 190.672719 
L 203.854616 241.962084 
L 204.41505 254.623528 
L 204.975484 217.186013 
L 205.535918 271.954516 
L 206.096352 261.32932 
L 206.656786 226.853579 
L 207.21722 274.967607 
L 207.777654 247.227704 
L 208.338088 275.53264 
L 208.898522 271.404853 
L 209.458956 270.009979 
L 210.01939 268.277405 
L 210.579824 244.501001 
L 211.700692 269.036881 
L 212.261126 215.648193 
L 212.82156 260.978888 
L 213.381994 273.294919 
L 213.942428 244.141447 
L 214.502862 242.416116 
L 215.063296 251.26473 
L 216.184165 166.156395 
L 216.744599 247.098057 
L 217.305033 264.747695 
L 217.865467 195.628727 
L 218.425901 272.615398 
L 218.986335 250.692262 
L 219.546769 271.419949 
L 220.107203 261.657616 
L 220.667637 274.047919 
L 221.228071 275.016343 
L 221.788505 275.093858 
L 222.348939 254.949506 
L 222.909373 261.621554 
L 223.469807 256.616345 
L 224.030241 235.782553 
L 224.590675 273.371382 
L 225.151109 275.486769 
L 225.711543 267.9152 
L 226.271977 274.523412 
L 226.832411 275.423165 
L 227.392845 268.046302 
L 227.953279 207.961278 
L 228.513714 275.420866 
L 229.074148 275.46707 
L 229.634582 190.248611 
L 230.195016 272.50523 
L 230.75545 264.993203 
L 231.315884 255.147285 
L 231.876318 273.976312 
L 232.436752 243.365374 
L 232.997186 273.747872 
L 233.55762 219.155498 
L 234.118054 272.332266 
L 234.678488 267.130793 
L 235.238922 270.580932 
L 235.799356 267.682154 
L 236.35979 222.914844 
L 236.920224 271.342935 
L 237.480658 257.171643 
L 238.041092 275.546923 
L 238.601526 272.382925 
L 239.16196 272.071032 
L 239.722394 254.313992 
L 240.282829 171.068664 
L 240.843263 273.406518 
L 241.403697 275.530588 
L 241.964131 275.220417 
L 242.524565 250.729035 
L 243.645433 271.738577 
L 244.205867 271.976905 
L 244.766301 257.464486 
L 245.887169 274.990597 
L 246.447603 217.5739 
L 247.008037 244.293725 
L 247.568471 192.972908 
L 248.128905 209.470199 
L 248.689339 272.642623 
L 249.249773 272.161824 
L 249.810207 262.12636 
L 250.370641 274.999486 
L 250.931075 273.705025 
L 251.491509 236.880723 
L 252.051943 232.206445 
L 252.612378 268.295462 
L 253.172812 204.646527 
L 253.733246 275.53126 
L 254.29368 274.349364 
L 254.854114 270.718774 
L 255.414548 270.650895 
L 255.974982 228.300007 
L 256.535416 257.224872 
L 257.09585 236.541683 
L 257.656284 274.721028 
L 258.216718 266.508909 
L 258.777152 261.970252 
L 259.337586 273.440382 
L 259.89802 275.41626 
L 260.458454 245.369369 
L 261.018888 275.305447 
L 261.579322 269.921935 
L 262.139756 168.692778 
L 262.70019 171.619964 
L 263.260624 233.593249 
L 264.381492 267.874677 
L 264.941927 274.688959 
L 265.502361 211.137685 
L 266.062795 274.995933 
L 266.623229 273.919316 
L 267.183663 272.04671 
L 267.744097 191.49542 
L 268.304531 274.450611 
L 268.864965 275.554226 
L 269.425399 256.679565 
L 269.985833 232.940591 
L 270.546267 275.355941 
L 271.106701 239.927812 
L 271.667135 193.993987 
L 272.227569 266.239064 
L 273.348437 137.354367 
L 273.908871 260.053406 
L 274.469305 185.333815 
L 275.029739 266.242122 
L 275.590173 259.356647 
L 276.150607 233.589532 
L 276.711042 269.364083 
L 277.271476 231.23098 
L 277.83191 275.353894 
L 278.392344 275.091258 
L 278.952778 259.660928 
L 279.513212 226.88247 
L 280.073646 274.000583 
L 280.63408 241.739552 
L 281.194514 267.768375 
L 281.754948 184.131574 
L 282.315382 260.354909 
L 282.875816 271.255005 
L 283.43625 212.923668 
L 284.557118 264.877498 
L 285.117552 184.702045 
L 285.677986 269.184248 
L 286.23842 275.476669 
L 286.798854 256.827364 
L 287.359288 272.43703 
L 287.919722 270.061984 
L 288.480156 192.208198 
L 289.040591 272.945413 
L 289.601025 268.533613 
L 290.161459 254.931636 
L 290.721893 113.063313 
L 291.282327 227.798721 
L 291.842761 231.178223 
L 292.403195 183.182855 
L 292.963629 275.337076 
L 293.524063 201.46 
L 294.084497 255.892109 
L 294.644931 269.725046 
L 295.205365 257.19038 
L 295.765799 259.990133 
L 296.326233 273.938209 
L 296.886667 205.486769 
L 297.447101 271.061658 
L 298.007535 262.492933 
L 299.128403 226.946858 
L 299.688837 187.656822 
L 300.249271 236.408645 
L 300.809705 259.032741 
L 301.37014 253.827688 
L 301.930574 275.34864 
L 302.491008 179.407991 
L 303.051442 271.502887 
L 303.611876 123.834625 
L 304.17231 254.92675 
L 304.732744 63.216248 
L 305.293178 275.047179 
L 306.414046 159.517463 
L 306.97448 208.047486 
L 307.534914 272.983426 
L 308.095348 155.55632 
L 308.655782 260.938979 
L 309.216216 261.454232 
L 309.77665 90.957737 
L 310.337084 245.447939 
L 310.897518 258.429642 
L 311.457952 189.84116 
L 312.018386 271.132065 
L 312.57882 249.193997 
L 313.139255 264.46026 
L 313.699689 273.115258 
L 314.260123 272.547322 
L 314.820557 205.244434 
L 315.380991 264.132358 
L 315.941425 275.444164 
L 316.501859 268.817132 
L 317.062293 193.656305 
L 317.622727 230.192156 
L 318.183161 223.812623 
L 318.743595 270.13964 
L 319.864463 238.115824 
L 320.424897 251.289327 
L 320.985331 117.681998 
L 321.545765 274.795771 
L 322.106199 275.394849 
L 322.666633 250.111664 
L 323.227067 275.474445 
L 323.787501 186.631635 
L 324.347935 43.661899 
L 324.908369 219.86952 
L 326.029238 273.945459 
L 326.589672 218.909304 
L 327.150106 275.322618 
L 327.71054 275.344248 
L 328.270974 240.804031 
L 328.831408 226.328274 
L 329.391842 269.947304 
L 329.952276 265.069442 
L 330.51271 253.105585 
L 331.073144 270.823973 
L 331.633578 275.060395 
L 332.194012 275.409108 
L 332.754446 238.140088 
L 333.31488 248.842787 
L 333.875314 241.150113 
L 334.435748 268.623569 
L 334.996182 275.140537 
L 335.556616 81.937836 
L 336.11705 267.418488 
L 336.677484 271.044647 
L 337.237918 261.77921 
L 337.798353 265.363571 
L 338.358787 275.541007 
L 338.919221 253.087862 
L 339.479655 203.25485 
L 339.479655 203.25485 
" clip-path="url(#pe4970fa9b2)" style="fill: none; stroke: #ee854a; stroke-width: 0.7; stroke-linecap: round"/>
   </g>
   <g id="line2d_16">
    <path d="M 59.823066 219.353972 
L 60.3835 249.551134 
L 60.943934 265.710385 
L 61.504368 274.841099 
L 62.064802 250.760259 
L 62.625236 239.827727 
L 63.18567 282.661143 
L 63.746104 286.000136 
L 64.306538 194.766579 
L 64.866972 285.150338 
L 65.427406 266.995607 
L 65.98784 232.135919 
L 66.548274 268.844051 
L 67.108708 187.107379 
L 67.669142 266.587793 
L 68.229576 268.681608 
L 68.79001 264.423222 
L 69.350444 240.868932 
L 69.910878 271.425086 
L 70.471313 208.830671 
L 71.031747 277.809058 
L 71.592181 243.616681 
L 72.152615 275.982372 
L 72.713049 270.196571 
L 73.273483 253.860808 
L 73.833917 285.567141 
L 74.394351 161.081848 
L 75.515219 248.652426 
L 76.075653 273.549155 
L 76.636087 259.774056 
L 77.196521 280.773517 
L 77.756955 270.440412 
L 78.317389 288.050413 
L 78.877823 234.076025 
L 79.438257 267.539796 
L 79.998691 226.070654 
L 81.119559 257.02629 
L 81.679993 239.429228 
L 82.240428 276.963915 
L 82.800862 246.869018 
L 83.361296 266.883857 
L 83.92173 242.126579 
L 84.482164 275.312555 
L 85.042598 231.580901 
L 85.603032 246.904073 
L 86.163466 194.625223 
L 86.7239 179.234561 
L 87.284334 271.691929 
L 87.844768 265.723472 
L 88.405202 240.99277 
L 88.965636 246.30939 
L 89.52607 138.602539 
L 90.086504 286.868546 
L 90.646938 255.935127 
L 91.207372 209.774709 
L 91.767806 251.328815 
L 92.32824 283.484781 
L 93.449108 150.051301 
L 94.569977 279.916744 
L 95.130411 273.018849 
L 95.690845 275.761749 
L 96.251279 192.180907 
L 96.811713 261.674862 
L 97.372147 160.236028 
L 97.932581 203.6745 
L 98.493015 286.734698 
L 99.053449 239.106781 
L 99.613883 178.652094 
L 100.174317 274.695859 
L 100.734751 284.995783 
L 101.295185 269.532063 
L 101.855619 283.215068 
L 102.416053 260.005075 
L 102.976487 270.840254 
L 103.536921 261.374217 
L 104.097355 287.867291 
L 104.657789 283.779582 
L 105.218223 263.363565 
L 105.778657 247.787815 
L 106.339091 210.467148 
L 106.899526 242.871044 
L 107.45996 287.043945 
L 108.020394 269.606076 
L 108.580828 284.922233 
L 109.141262 219.809826 
L 109.701696 246.974458 
L 110.26213 202.888082 
L 110.822564 193.391084 
L 111.382998 285.438775 
L 111.943432 253.708079 
L 112.503866 286.449504 
L 113.0643 148.24819 
L 113.624734 270.683722 
L 114.185168 268.500444 
L 114.745602 271.916498 
L 115.306036 260.168783 
L 115.86647 131.026239 
L 116.426904 287.803887 
L 116.987338 203.549374 
L 117.547772 287.091691 
L 118.108206 282.488109 
L 118.668641 286.418568 
L 119.229075 287.848621 
L 119.789509 207.15106 
L 120.349943 208.374904 
L 120.910377 273.616763 
L 121.470811 175.387464 
L 122.031245 267.662696 
L 122.591679 278.550239 
L 123.152113 278.080299 
L 123.712547 278.868298 
L 124.272981 231.601072 
L 124.833415 285.318284 
L 125.393849 284.926007 
L 125.954283 250.436826 
L 126.514717 278.92372 
L 127.075151 254.017451 
L 127.635585 156.97295 
L 128.196019 162.500748 
L 128.756453 232.518979 
L 129.316887 267.940179 
L 129.877321 274.422317 
L 130.437755 241.16599 
L 130.99819 282.099237 
L 131.558624 232.972384 
L 132.119058 285.177367 
L 132.679492 161.200188 
L 133.239926 280.356668 
L 133.80036 245.717004 
L 134.360794 250.751899 
L 134.921228 277.665945 
L 135.481662 262.247365 
L 136.042096 258.818452 
L 136.60253 252.750172 
L 137.162964 269.117763 
L 137.723398 252.219781 
L 138.283832 248.075654 
L 138.844266 225.653379 
L 139.4047 221.407849 
L 139.965134 268.238347 
L 140.525568 287.742292 
L 141.086002 278.925231 
L 141.646436 154.595983 
L 142.20687 287.864619 
L 142.767304 240.706586 
L 143.327739 280.420759 
L 143.888173 253.498072 
L 144.448607 197.033992 
L 145.009041 237.095955 
L 145.569475 251.24434 
L 146.129909 238.115719 
L 146.690343 251.487134 
L 147.250777 286.632556 
L 147.811211 280.750808 
L 148.371645 253.82177 
L 148.932079 284.13557 
L 149.492513 216.110213 
L 150.052947 271.453645 
L 150.613381 146.186028 
L 151.173815 276.686593 
L 151.734249 213.659344 
L 152.294683 214.696716 
L 152.855117 284.994247 
L 153.415551 262.79413 
L 153.975985 214.59281 
L 154.536419 252.324941 
L 155.096854 230.558194 
L 155.657288 253.144635 
L 156.217722 233.092938 
L 156.778156 218.147487 
L 157.33859 184.380438 
L 157.899024 276.489841 
L 158.459458 91.574338 
L 159.019892 284.011521 
L 159.580326 266.662356 
L 160.14076 272.258354 
L 160.701194 261.680919 
L 161.261628 245.708915 
L 161.822062 243.395716 
L 162.382496 171.298479 
L 162.94293 279.365941 
L 163.503364 222.231962 
L 164.063798 268.96745 
L 164.624232 272.252448 
L 165.184666 138.961768 
L 165.7451 275.197771 
L 166.305534 237.13352 
L 166.865968 285.578875 
L 167.426403 173.32441 
L 167.986837 264.940865 
L 168.547271 254.409621 
L 169.107705 257.562624 
L 169.668139 276.781193 
L 170.228573 234.585342 
L 170.789007 267.675664 
L 171.349441 184.201149 
L 171.909875 287.603666 
L 172.470309 287.836615 
L 173.030743 206.380442 
L 173.591177 171.238965 
L 174.151611 247.286261 
L 174.712045 265.086081 
L 175.272479 266.237317 
L 175.832913 276.247656 
L 176.393347 223.748949 
L 176.953781 257.297044 
L 177.514215 256.04531 
L 178.074649 284.047383 
L 178.635083 287.699809 
L 179.195517 278.351447 
L 179.755952 132.222314 
L 180.316386 275.148815 
L 180.87682 106.833549 
L 181.437254 129.692858 
L 181.997688 286.930898 
L 182.558122 281.454047 
L 183.118556 286.492446 
L 184.239424 228.841005 
L 184.799858 284.584032 
L 185.360292 232.16252 
L 185.920726 271.09931 
L 186.48116 277.74023 
L 187.041594 212.698335 
L 187.602028 246.271565 
L 188.162462 198.532227 
L 188.722896 269.234194 
L 189.28333 254.228619 
L 189.843764 276.900408 
L 190.404198 264.114187 
L 190.964632 228.58755 
L 191.525066 285.119938 
L 192.085501 281.501607 
L 192.645935 266.950985 
L 193.206369 139.568464 
L 193.766803 268.99386 
L 194.327237 264.515586 
L 194.887671 279.99336 
L 195.448105 275.742472 
L 196.008539 249.1788 
L 196.568973 183.237552 
L 197.129407 281.311568 
L 197.689841 267.660299 
L 198.250275 112.68339 
L 198.810709 263.487906 
L 199.371143 210.184207 
L 199.931577 169.22353 
L 200.492011 283.279365 
L 201.052445 272.477238 
L 201.612879 230.579039 
L 202.173313 275.324462 
L 202.733747 235.14373 
L 203.294181 274.369572 
L 204.41505 206.590391 
L 204.975484 263.783135 
L 205.535918 259.587145 
L 206.096352 208.785209 
L 206.656786 280.983803 
L 207.21722 203.889273 
L 207.777654 284.618315 
L 208.338088 218.397911 
L 209.458956 282.999567 
L 210.01939 268.424461 
L 210.579824 239.954695 
L 211.140258 270.695672 
L 211.700692 278.870461 
L 212.261126 229.243431 
L 212.82156 246.589019 
L 213.381994 280.78138 
L 213.942428 278.501739 
L 214.502862 187.645898 
L 215.063296 219.940962 
L 215.62373 230.052467 
L 216.184165 236.253241 
L 216.744599 234.119316 
L 217.305033 266.893159 
L 217.865467 278.44963 
L 218.425901 243.382333 
L 218.986335 284.774219 
L 219.546769 216.957932 
L 220.107203 283.612123 
L 220.667637 281.161514 
L 221.228071 276.96708 
L 221.788505 287.060894 
L 222.348939 278.302891 
L 222.909373 201.583175 
L 223.469807 191.286701 
L 224.590675 266.404098 
L 225.151109 235.816728 
L 225.711543 268.227175 
L 226.271977 281.569821 
L 226.832411 287.617278 
L 227.392845 288.118125 
L 227.953279 283.56233 
L 228.513714 225.958337 
L 229.074148 245.65073 
L 229.634582 215.753632 
L 230.195016 246.360781 
L 230.75545 285.291753 
L 231.315884 196.317571 
L 232.436752 285.560655 
L 232.997186 271.331638 
L 233.55762 129.901722 
L 234.118054 247.67538 
L 234.678488 272.226562 
L 235.238922 272.066945 
L 235.799356 285.641103 
L 236.35979 283.820605 
L 236.920224 94.05062 
L 237.480658 273.355619 
L 238.041092 257.370801 
L 238.601526 287.029917 
L 239.16196 252.102933 
L 239.722394 285.583668 
L 240.282829 196.944762 
L 240.843263 226.557597 
L 241.403697 169.161212 
L 241.964131 266.353471 
L 242.524565 256.19517 
L 243.645433 280.567447 
L 244.205867 263.606917 
L 244.766301 142.342866 
L 245.326735 262.910878 
L 245.887169 235.817052 
L 246.447603 272.988136 
L 247.008037 252.282922 
L 247.568471 272.012607 
L 248.128905 237.806987 
L 248.689339 248.042832 
L 249.249773 282.948581 
L 249.810207 232.884221 
L 250.931075 246.090054 
L 251.491509 268.500509 
L 252.051943 216.372841 
L 252.612378 235.804664 
L 253.172812 284.542483 
L 253.733246 240.463751 
L 254.29368 234.160734 
L 254.854114 287.621105 
L 255.414548 244.3411 
L 255.974982 272.705043 
L 256.535416 186.643155 
L 257.09585 267.775888 
L 257.656284 238.71745 
L 258.216718 268.989795 
L 258.777152 283.766778 
L 259.337586 279.237839 
L 259.89802 238.5964 
L 260.458454 277.85515 
L 261.018888 272.817413 
L 261.579322 239.667972 
L 262.139756 285.405433 
L 262.70019 231.827897 
L 263.260624 222.261503 
L 263.821058 253.559694 
L 264.381492 259.287111 
L 264.941927 261.148581 
L 265.502361 282.459179 
L 266.062795 238.618461 
L 266.623229 276.202641 
L 267.183663 121.619237 
L 267.744097 274.534578 
L 268.304531 204.266896 
L 268.864965 275.381531 
L 269.425399 231.128254 
L 269.985833 268.863641 
L 270.546267 265.226318 
L 271.106701 218.673593 
L 271.667135 269.304666 
L 272.227569 224.228446 
L 272.788003 275.144449 
L 273.348437 101.805652 
L 273.908871 214.288293 
L 274.469305 269.633279 
L 275.029739 244.096064 
L 275.590173 277.880767 
L 276.150607 266.363427 
L 276.711042 267.700643 
L 277.271476 270.631067 
L 277.83191 226.135061 
L 278.392344 207.99072 
L 278.952778 256.582518 
L 279.513212 222.87336 
L 280.073646 242.1521 
L 280.63408 287.456246 
L 281.194514 261.731843 
L 281.754948 256.496062 
L 282.315382 238.25807 
L 282.875816 255.864819 
L 283.43625 284.545136 
L 283.996684 251.009909 
L 284.557118 267.748382 
L 285.117552 116.8254 
L 285.677986 240.528609 
L 286.23842 285.01707 
L 286.798854 283.736664 
L 287.359288 270.047393 
L 287.919722 281.546532 
L 288.480156 190.472552 
L 289.040591 247.437523 
L 289.601025 281.082793 
L 290.161459 257.111027 
L 290.721893 260.31856 
L 291.282327 202.875189 
L 291.842761 246.360081 
L 292.403195 254.233722 
L 293.524063 229.819895 
L 294.084497 226.393107 
L 294.644931 258.508118 
L 295.205365 280.121226 
L 295.765799 262.648415 
L 296.326233 279.100904 
L 296.886667 275.30785 
L 297.447101 253.715496 
L 298.007535 263.460539 
L 298.567969 269.309083 
L 299.128403 262.643577 
L 299.688837 134.684539 
L 300.249271 236.506472 
L 300.809705 266.233162 
L 301.37014 226.09469 
L 302.491008 282.461624 
L 303.051442 240.694726 
L 303.611876 229.887001 
L 304.17231 208.218364 
L 304.732744 209.580125 
L 305.293178 178.927424 
L 305.853612 287.964389 
L 306.97448 213.441022 
L 307.534914 209.237498 
L 308.095348 244.758586 
L 308.655782 87.300543 
L 309.216216 259.207144 
L 309.77665 279.548306 
L 310.337084 155.574801 
L 310.897518 270.086276 
L 311.457952 279.152977 
L 312.018386 243.474653 
L 312.57882 282.381588 
L 313.139255 274.215679 
L 313.699689 271.70814 
L 314.260123 283.62067 
L 314.820557 285.464736 
L 315.380991 173.68312 
L 315.941425 279.58483 
L 316.501859 288.048851 
L 317.062293 284.92507 
L 317.622727 212.828486 
L 318.183161 254.876405 
L 318.743595 261.222208 
L 319.304029 54.38448 
L 319.864463 269.913567 
L 320.424897 260.077145 
L 320.985331 221.500283 
L 321.545765 208.925452 
L 322.106199 187.118483 
L 322.666633 283.662627 
L 323.227067 191.846844 
L 323.787501 275.938293 
L 324.347935 134.930735 
L 324.908369 174.469373 
L 325.468804 229.292221 
L 326.589672 283.563494 
L 327.150106 226.620759 
L 327.71054 259.286447 
L 328.270974 223.619036 
L 328.831408 234.822347 
L 329.391842 263.450763 
L 329.952276 268.483961 
L 330.51271 244.975172 
L 331.073144 264.46322 
L 331.633578 210.352286 
L 332.194012 287.970045 
L 332.754446 287.09887 
L 333.31488 260.395245 
L 333.875314 189.240105 
L 334.435748 269.392448 
L 334.996182 284.819932 
L 336.11705 191.842847 
L 336.677484 211.961439 
L 337.237918 282.779531 
L 337.798353 279.554197 
L 338.358787 262.618175 
L 338.919221 237.246908 
L 339.479655 264.014328 
L 339.479655 264.014328 
" clip-path="url(#pe4970fa9b2)" style="fill: none; stroke: #6acc64; stroke-width: 1.5; stroke-linecap: round"/>
   </g>
   <g id="line2d_17">
    <path d="M 59.823066 219.378738 
L 60.3835 249.531454 
L 60.943934 265.678343 
L 61.504368 274.794376 
L 62.064802 250.765557 
L 62.625236 239.824618 
L 63.18567 282.599965 
L 63.746104 285.917088 
L 64.306538 194.899107 
L 64.866972 285.084069 
L 65.427406 266.957065 
L 65.98784 232.20782 
L 66.548274 268.807675 
L 67.108708 187.236987 
L 67.669142 266.562101 
L 68.229576 268.649988 
L 68.79001 264.405314 
L 69.350444 240.894159 
L 69.910878 271.384475 
L 70.471313 208.863278 
L 71.031747 277.752158 
L 71.592181 243.648706 
L 72.152615 275.934645 
L 72.713049 270.157309 
L 73.273483 253.854668 
L 73.833917 285.48931 
L 74.394351 161.261278 
L 75.515219 248.638871 
L 76.075653 273.491807 
L 76.636087 259.770012 
L 77.196521 280.705783 
L 77.756955 270.386877 
L 78.317389 287.970885 
L 78.877823 234.079448 
L 79.438257 267.501092 
L 79.998691 226.087734 
L 81.119559 257.000137 
L 81.679993 239.430098 
L 82.240428 276.901934 
L 82.800862 246.871654 
L 83.361296 266.841704 
L 83.92173 242.143139 
L 84.482164 275.261118 
L 85.042598 231.6379 
L 85.603032 246.889307 
L 86.163466 194.794549 
L 86.7239 179.349607 
L 87.284334 271.666116 
L 87.844768 265.674042 
L 88.405202 241.041001 
L 88.965636 246.293804 
L 89.52607 138.751507 
L 90.086504 286.802284 
L 90.646938 255.940523 
L 91.207372 209.822581 
L 91.767806 251.322603 
L 92.32824 283.414539 
L 93.449108 150.22654 
L 94.569977 279.863713 
L 95.130411 272.963119 
L 95.690845 275.696945 
L 96.251279 192.287125 
L 96.811713 261.629564 
L 97.372147 160.497368 
L 97.932581 203.740723 
L 98.493015 286.663004 
L 99.053449 239.129772 
L 99.613883 178.781295 
L 100.174317 274.645123 
L 100.734751 284.919444 
L 101.295185 269.495355 
L 101.855619 283.147894 
L 102.416053 259.971909 
L 102.976487 270.807356 
L 103.536921 261.35728 
L 104.097355 287.789703 
L 104.657789 283.705731 
L 105.218223 263.34076 
L 105.778657 247.790253 
L 106.339091 210.513082 
L 106.899526 242.865368 
L 107.45996 286.968879 
L 108.020394 269.561939 
L 108.580828 284.847926 
L 109.141262 219.823377 
L 109.701696 246.997139 
L 110.26213 203.022735 
L 110.822564 193.453824 
L 111.382998 285.371422 
L 111.943432 253.690965 
L 112.503866 286.374916 
L 113.0643 148.384914 
L 113.624734 270.642277 
L 114.185168 268.452108 
L 114.745602 271.86687 
L 115.306036 260.130956 
L 115.86647 131.177011 
L 116.426904 287.738232 
L 116.987338 203.605197 
L 117.547772 287.021287 
L 118.108206 282.415333 
L 118.668641 286.341761 
L 119.229075 287.763664 
L 119.789509 207.244394 
L 120.349943 208.446834 
L 120.910377 273.581956 
L 121.470811 175.471611 
L 122.031245 267.622723 
L 122.591679 278.49456 
L 123.152113 278.013991 
L 123.712547 278.805502 
L 124.272981 231.648599 
L 124.833415 285.249975 
L 125.393849 284.850002 
L 125.954283 250.409305 
L 126.514717 278.868882 
L 127.075151 253.995766 
L 127.635585 157.237919 
L 128.196019 162.631283 
L 128.756453 232.591884 
L 129.316887 267.89919 
L 129.877321 274.377314 
L 130.437755 241.167303 
L 130.99819 282.030069 
L 131.558624 233.00188 
L 132.119058 285.107346 
L 132.679492 161.304887 
L 133.239926 280.302575 
L 133.80036 245.707195 
L 134.360794 250.727906 
L 134.921228 277.609866 
L 135.481662 262.204667 
L 136.042096 258.816537 
L 136.60253 252.730673 
L 137.162964 269.066677 
L 137.723398 252.197517 
L 138.283832 248.098972 
L 138.844266 225.662743 
L 139.4047 221.462384 
L 139.965134 268.211289 
L 140.525568 287.663991 
L 141.086002 278.850888 
L 141.646436 154.808922 
L 142.20687 287.797047 
L 142.767304 240.703382 
L 143.327739 280.354512 
L 143.888173 253.480596 
L 144.448607 197.088932 
L 145.009041 237.096529 
L 145.569475 251.226231 
L 146.129909 238.160924 
L 146.690343 251.463357 
L 147.250777 286.559428 
L 147.811211 280.680183 
L 148.371645 253.793793 
L 148.932079 284.068518 
L 149.492513 216.131667 
L 150.052947 271.4038 
L 150.613381 146.306929 
L 151.173815 276.646063 
L 151.734249 213.681148 
L 152.294683 214.780448 
L 152.855117 284.92762 
L 153.415551 262.751276 
L 153.975985 214.628058 
L 154.536419 252.343117 
L 155.096854 230.627947 
L 155.657288 253.139399 
L 156.217722 233.104279 
L 156.778156 218.170803 
L 157.33859 184.549609 
L 157.899024 276.450768 
L 158.459458 91.775587 
L 159.019892 283.955973 
L 159.580326 266.635095 
L 160.14076 272.200545 
L 160.701194 261.658305 
L 161.261628 245.705107 
L 161.822062 243.410655 
L 162.382496 171.504559 
L 162.94293 279.318818 
L 163.503364 222.264362 
L 164.063798 268.922018 
L 164.624232 272.195896 
L 165.184666 139.093302 
L 165.7451 275.163151 
L 166.305534 237.166168 
L 166.865968 285.507328 
L 167.426403 173.404065 
L 167.986837 264.932293 
L 168.547271 254.37759 
L 169.107705 257.562203 
L 169.668139 276.723675 
L 170.228573 234.592705 
L 170.789007 267.632141 
L 171.349441 184.31846 
L 171.909875 287.534523 
L 172.470309 287.755355 
L 173.030743 206.425418 
L 173.591177 171.413529 
L 174.151611 247.320598 
L 174.712045 265.056143 
L 175.272479 266.194799 
L 175.832913 276.185736 
L 176.393347 223.761991 
L 176.953781 257.28593 
L 177.514215 256.023452 
L 178.074649 283.979829 
L 178.635083 287.620067 
L 179.195517 278.286976 
L 179.755952 132.371999 
L 180.316386 275.117093 
L 180.87682 107.027832 
L 181.437254 129.85566 
L 181.997688 286.867881 
L 182.558122 281.382585 
L 183.118556 286.416286 
L 184.239424 228.891456 
L 184.799858 284.513186 
L 185.360292 232.173599 
L 185.920726 271.053002 
L 186.48116 277.678967 
L 187.041594 212.727027 
L 187.602028 246.280477 
L 188.162462 198.581661 
L 188.722896 269.198068 
L 189.28333 254.198979 
L 189.843764 276.838423 
L 190.404198 264.076762 
L 190.964632 228.644287 
L 191.525066 285.051622 
L 192.085501 281.436446 
L 192.645935 266.921786 
L 193.206369 139.701841 
L 193.766803 268.978641 
L 194.327237 264.470194 
L 194.887671 279.933084 
L 195.448105 275.680787 
L 196.008539 249.152191 
L 196.568973 183.336614 
L 197.129407 281.256912 
L 197.689841 267.619216 
L 198.250275 112.983896 
L 198.810709 263.49 
L 199.371143 210.238501 
L 199.931577 169.329893 
L 200.492011 283.216746 
L 201.052445 272.431423 
L 201.612879 230.587699 
L 202.173313 275.268459 
L 202.733747 235.139247 
L 203.294181 274.327018 
L 204.41505 206.649883 
L 204.975484 263.755399 
L 205.535918 259.585984 
L 206.096352 208.821064 
L 206.656786 280.927721 
L 207.21722 203.959187 
L 207.777654 284.549924 
L 208.338088 218.434015 
L 209.458956 282.932158 
L 210.01939 268.375122 
L 210.579824 239.947061 
L 211.140258 270.663119 
L 211.700692 278.81619 
L 212.261126 229.247998 
L 212.82156 246.610208 
L 213.381994 280.724231 
L 213.942428 278.435097 
L 214.502862 187.726484 
L 215.063296 219.986613 
L 215.62373 230.072692 
L 216.184165 236.29045 
L 216.744599 234.188181 
L 217.305033 266.865325 
L 217.865467 278.387525 
L 218.425901 243.416335 
L 218.986335 284.703252 
L 219.546769 216.993665 
L 220.107203 283.546788 
L 220.667637 281.099669 
L 221.228071 276.903602 
L 221.788505 286.982947 
L 222.348939 278.235276 
L 222.909373 201.638135 
L 223.469807 191.359545 
L 224.590675 266.384728 
L 225.151109 235.813431 
L 225.711543 268.179417 
L 226.271977 281.505014 
L 226.832411 287.538404 
L 227.392845 288.036996 
L 227.953279 283.489343 
L 228.513714 226.008781 
L 229.074148 245.63633 
L 229.634582 215.775339 
L 230.195016 246.400365 
L 230.75545 285.220517 
L 231.315884 196.372579 
L 232.436752 285.487826 
L 232.997186 271.295109 
L 233.55762 130.044801 
L 234.118054 247.703461 
L 234.678488 272.1739 
L 235.238922 272.015486 
L 235.799356 285.568116 
L 236.35979 283.748464 
L 236.920224 94.278015 
L 237.480658 273.317123 
L 238.041092 257.346589 
L 238.601526 286.953541 
L 239.16196 252.074958 
L 239.722394 285.511197 
L 240.282829 197.001521 
L 240.843263 226.63933 
L 241.403697 169.256268 
L 241.964131 266.315473 
L 242.524565 256.160659 
L 243.645433 280.508541 
L 244.205867 263.563721 
L 244.766301 142.472139 
L 245.326735 262.891522 
L 245.887169 235.818453 
L 246.447603 272.931489 
L 247.008037 252.289564 
L 247.568471 271.973953 
L 248.128905 237.848129 
L 248.689339 248.06558 
L 249.249773 282.880755 
L 249.810207 232.883509 
L 250.931075 246.073864 
L 251.491509 268.450934 
L 252.051943 216.4179 
L 252.612378 235.832263 
L 253.172812 284.473104 
L 253.733246 240.495677 
L 254.29368 234.160994 
L 254.854114 287.546932 
L 255.414548 244.325033 
L 255.974982 272.651211 
L 256.535416 186.736523 
L 257.09585 267.743827 
L 257.656284 238.733261 
L 258.216718 268.941076 
L 258.777152 283.699068 
L 259.337586 279.178476 
L 259.89802 238.587823 
L 260.458454 277.792427 
L 261.018888 272.778374 
L 261.579322 239.657077 
L 262.139756 285.33165 
L 262.70019 231.889704 
L 263.260624 222.343466 
L 263.821058 253.559903 
L 264.381492 259.264881 
L 264.941927 261.113615 
L 265.502361 282.386429 
L 266.062795 238.649065 
L 266.623229 276.143913 
L 267.183663 121.776014 
L 267.744097 274.487953 
L 268.304531 204.359362 
L 268.864965 275.327879 
L 269.425399 231.128377 
L 269.985833 268.825688 
L 270.546267 265.206823 
L 271.106701 218.691676 
L 271.667135 269.276088 
L 272.227569 224.291208 
L 272.788003 275.090417 
L 273.348437 102.033677 
L 273.908871 214.417821 
L 274.469305 269.591468 
L 275.029739 244.136185 
L 275.590173 277.823952 
L 276.150607 266.32259 
L 276.711042 267.677197 
L 277.271476 270.578751 
L 277.83191 226.171792 
L 278.392344 208.029616 
L 278.952778 256.553914 
L 279.513212 222.895708 
L 280.073646 242.173719 
L 280.63408 287.380293 
L 281.194514 261.709447 
L 281.754948 256.463067 
L 282.315382 238.308258 
L 282.875816 255.84407 
L 283.43625 284.472238 
L 283.996684 251.01976 
L 284.557118 267.724225 
L 285.117552 116.991306 
L 285.677986 240.589857 
L 286.23842 284.949436 
L 286.798854 283.661417 
L 287.359288 270.004255 
L 287.919722 281.478485 
L 288.480156 190.529912 
L 289.040591 247.476925 
L 289.601025 281.017298 
L 290.161459 257.078172 
L 290.721893 260.285299 
L 291.282327 203.018593 
L 291.842761 246.375091 
L 292.403195 254.228676 
L 293.524063 229.822593 
L 294.084497 226.451578 
L 294.644931 258.487599 
L 295.205365 280.05746 
L 295.765799 262.615277 
L 296.326233 279.045164 
L 296.886667 275.243597 
L 297.447101 253.728859 
L 298.007535 263.420245 
L 298.567969 269.26416 
L 299.128403 262.617047 
L 299.688837 134.849911 
L 300.249271 236.568111 
L 300.809705 266.212528 
L 301.37014 226.113213 
L 302.491008 282.387562 
L 303.051442 240.742375 
L 303.611876 229.888474 
L 304.17231 208.351795 
L 304.732744 209.621187 
L 305.293178 179.143827 
L 305.853612 287.892113 
L 306.97448 213.540119 
L 307.534914 209.318552 
L 308.095348 244.742822 
L 308.655782 87.583712 
L 309.216216 259.196165 
L 309.77665 279.482394 
L 310.337084 155.798073 
L 310.897518 270.062646 
L 311.457952 279.093279 
L 312.018386 243.512053 
L 312.57882 282.314866 
L 313.139255 274.171238 
L 313.699689 271.658806 
L 314.260123 283.549209 
L 314.820557 285.386525 
L 315.380991 173.808522 
L 315.941425 279.534889 
L 316.501859 287.968658 
L 317.062293 284.848971 
L 317.622727 212.904243 
L 318.183161 254.876474 
L 318.743595 261.215344 
L 319.304029 54.639398 
L 319.864463 269.894821 
L 320.424897 260.060362 
L 320.985331 221.52419 
L 321.545765 209.063607 
L 322.106199 187.189023 
L 322.666633 283.597166 
L 323.227067 191.918786 
L 323.787501 275.88012 
L 324.347935 135.112959 
L 324.908369 174.709403 
L 325.468804 229.340058 
L 326.589672 283.490589 
L 327.150106 226.663309 
L 327.71054 259.25274 
L 328.270974 223.630777 
L 328.831408 234.843088 
L 329.391842 263.441177 
L 329.952276 268.436404 
L 330.51271 244.962883 
L 331.073144 264.43421 
L 331.633578 210.386821 
L 332.194012 287.897575 
L 332.754446 287.017693 
L 333.31488 260.376136 
L 333.875314 189.317228 
L 334.435748 269.369613 
L 334.996182 284.749991 
L 336.11705 192.025469 
L 336.677484 212.003039 
L 337.237918 282.716127 
L 337.798353 279.494212 
L 338.358787 262.580705 
L 338.919221 237.2395 
L 339.479655 263.983443 
L 339.479655 263.983443 
" clip-path="url(#pe4970fa9b2)" style="fill: none; stroke: #d65f5f; stroke-width: 0.7; stroke-linecap: round"/>
   </g>
   <g id="patch_3">
    <path d="M 45.840236 301.32375 
L 45.840236 10.8 
" style="fill: none; stroke: #cccccc; stroke-width: 1.25; stroke-linejoin: miter; stroke-linecap: square"/>
   </g>
   <g id="patch_4">
    <path d="M 353.462484 301.32375 
L 353.462484 10.8 
" style="fill: none; stroke: #cccccc; stroke-width: 1.25; stroke-linejoin: miter; stroke-linecap: square"/>
   </g>
   <g id="patch_5">
    <path d="M 45.840236 301.32375 
L 353.462484 301.32375 
" style="fill: none; stroke: #cccccc; stroke-width: 1.25; stroke-linejoin: miter; stroke-linecap: square"/>
   </g>
   <g id="patch_6">
    <path d="M 45.840236 10.8 
L 353.462484 10.8 
" style="fill: none; stroke: #cccccc; stroke-width: 1.25; stroke-linejoin: miter; stroke-linecap: square"/>
   </g>
   <g id="legend_1">
    <g id="patch_7">
     <path d="M 361.162484 84.72 
L 447.292484 84.72 
Q 449.492484 84.72 449.492484 82.52 
L 449.492484 18.5 
Q 449.492484 16.3 447.292484 16.3 
L 361.162484 16.3 
Q 358.962484 16.3 358.962484 18.5 
L 358.962484 82.52 
Q 358.962484 84.72 361.162484 84.72 
z
" style="fill: #ffffff; opacity: 0.8; stroke: #cccccc; stroke-linejoin: miter"/>
    </g>
    <g id="line2d_18">
     <path d="M 363.362484 25.21 
L 374.362484 25.21 
L 385.362484 25.21 
" style="fill: none; stroke: #4878d0; stroke-width: 1.5; stroke-linecap: round"/>
    </g>
    <g id="text_16">
     <!-- pred_$x_{0}(t)$ -->
     <g style="fill: #262626" transform="translate(394.162484 29.06) scale(0.11 -0.11)">
      <defs>
       <path id="TimesNewRomanPSMT-70" d="M -6 2578 
L 875 2934 
L 994 2934 
L 994 2266 
Q 1216 2644 1439 2795 
Q 1663 2947 1909 2947 
Q 2341 2947 2628 2609 
Q 2981 2197 2981 1534 
Q 2981 794 2556 309 
Q 2206 -88 1675 -88 
Q 1444 -88 1275 -22 
Q 1150 25 994 166 
L 994 -706 
Q 994 -1000 1030 -1079 
Q 1066 -1159 1155 -1206 
Q 1244 -1253 1478 -1253 
L 1478 -1369 
L -22 -1369 
L -22 -1253 
L 56 -1253 
Q 228 -1256 350 -1188 
Q 409 -1153 442 -1076 
Q 475 -1000 475 -688 
L 475 2019 
Q 475 2297 450 2372 
Q 425 2447 370 2484 
Q 316 2522 222 2522 
Q 147 2522 31 2478 
L -6 2578 
z
M 994 2081 
L 994 1013 
Q 994 666 1022 556 
Q 1066 375 1236 237 
Q 1406 100 1666 100 
Q 1978 100 2172 344 
Q 2425 663 2425 1241 
Q 2425 1897 2138 2250 
Q 1938 2494 1663 2494 
Q 1513 2494 1366 2419 
Q 1253 2363 994 2081 
z
" transform="scale(0.015625)"/>
       <path id="TimesNewRomanPSMT-64" d="M 2222 322 
Q 2013 103 1813 7 
Q 1613 -88 1381 -88 
Q 913 -88 563 304 
Q 213 697 213 1313 
Q 213 1928 600 2439 
Q 988 2950 1597 2950 
Q 1975 2950 2222 2709 
L 2222 3238 
Q 2222 3728 2198 3840 
Q 2175 3953 2125 3993 
Q 2075 4034 2000 4034 
Q 1919 4034 1784 3984 
L 1744 4094 
L 2597 4444 
L 2738 4444 
L 2738 1134 
Q 2738 631 2761 520 
Q 2784 409 2836 365 
Q 2888 322 2956 322 
Q 3041 322 3181 375 
L 3216 266 
L 2366 -88 
L 2222 -88 
L 2222 322 
z
M 2222 541 
L 2222 2016 
Q 2203 2228 2109 2403 
Q 2016 2578 1861 2667 
Q 1706 2756 1559 2756 
Q 1284 2756 1069 2509 
Q 784 2184 784 1559 
Q 784 928 1059 592 
Q 1334 256 1672 256 
Q 1956 256 2222 541 
z
" transform="scale(0.015625)"/>
       <path id="TimesNewRomanPSMT-5f" d="M 3256 -1381 
L -53 -1381 
L -53 -1119 
L 3256 -1119 
L 3256 -1381 
z
" transform="scale(0.015625)"/>
       <path id="DejaVuSans-Oblique-78" d="M 3841 3500 
L 2234 1784 
L 3219 0 
L 2559 0 
L 1819 1388 
L 531 0 
L -166 0 
L 1556 1844 
L 641 3500 
L 1300 3500 
L 1972 2234 
L 3144 3500 
L 3841 3500 
z
" transform="scale(0.015625)"/>
       <path id="DejaVuSans-30" d="M 2034 4250 
Q 1547 4250 1301 3770 
Q 1056 3291 1056 2328 
Q 1056 1369 1301 889 
Q 1547 409 2034 409 
Q 2525 409 2770 889 
Q 3016 1369 3016 2328 
Q 3016 3291 2770 3770 
Q 2525 4250 2034 4250 
z
M 2034 4750 
Q 2819 4750 3233 4129 
Q 3647 3509 3647 2328 
Q 3647 1150 3233 529 
Q 2819 -91 2034 -91 
Q 1250 -91 836 529 
Q 422 1150 422 2328 
Q 422 3509 836 4129 
Q 1250 4750 2034 4750 
z
" transform="scale(0.015625)"/>
      </defs>
      <use xlink:href="#TimesNewRomanPSMT-70" transform="translate(0 0.125)"/>
      <use xlink:href="#TimesNewRomanPSMT-72" transform="translate(50 0.125)"/>
      <use xlink:href="#TimesNewRomanPSMT-65" transform="translate(83.300781 0.125)"/>
      <use xlink:href="#TimesNewRomanPSMT-64" transform="translate(127.685547 0.125)"/>
      <use xlink:href="#TimesNewRomanPSMT-5f" transform="translate(177.685547 0.125)"/>
      <use xlink:href="#DejaVuSans-Oblique-78" transform="translate(227.685547 0.125)"/>
      <use xlink:href="#DejaVuSans-30" transform="translate(286.865234 -16.28125) scale(0.7)"/>
      <use xlink:href="#DejaVuSans-28" transform="translate(334.135742 0.125)"/>
      <use xlink:href="#DejaVuSans-Oblique-74" transform="translate(373.149414 0.125)"/>
      <use xlink:href="#DejaVuSans-29" transform="translate(412.358398 0.125)"/>
     </g>
    </g>
    <g id="line2d_19">
     <path d="M 363.362484 41.49 
L 374.362484 41.49 
L 385.362484 41.49 
" style="fill: none; stroke: #ee854a; stroke-width: 0.7; stroke-linecap: round"/>
    </g>
    <g id="text_17">
     <!-- truth_$x_{0}(t)$ -->
     <g style="fill: #262626" transform="translate(394.162484 45.34) scale(0.11 -0.11)">
      <defs>
       <path id="TimesNewRomanPSMT-68" d="M 1041 4444 
L 1041 2350 
Q 1388 2731 1591 2839 
Q 1794 2947 1997 2947 
Q 2241 2947 2416 2812 
Q 2591 2678 2675 2391 
Q 2734 2191 2734 1659 
L 2734 647 
Q 2734 375 2778 275 
Q 2809 200 2884 156 
Q 2959 113 3159 113 
L 3159 0 
L 1753 0 
L 1753 113 
L 1819 113 
Q 2019 113 2097 173 
Q 2175 234 2206 353 
Q 2216 403 2216 647 
L 2216 1659 
Q 2216 2128 2167 2275 
Q 2119 2422 2012 2495 
Q 1906 2569 1756 2569 
Q 1603 2569 1437 2487 
Q 1272 2406 1041 2159 
L 1041 647 
Q 1041 353 1073 281 
Q 1106 209 1195 161 
Q 1284 113 1503 113 
L 1503 0 
L 84 0 
L 84 113 
Q 275 113 384 172 
Q 447 203 484 290 
Q 522 378 522 647 
L 522 3238 
Q 522 3728 498 3840 
Q 475 3953 426 3993 
Q 378 4034 297 4034 
Q 231 4034 84 3984 
L 41 4094 
L 897 4444 
L 1041 4444 
z
" transform="scale(0.015625)"/>
      </defs>
      <use xlink:href="#TimesNewRomanPSMT-74" transform="translate(0 0.125)"/>
      <use xlink:href="#TimesNewRomanPSMT-72" transform="translate(27.783203 0.125)"/>
      <use xlink:href="#TimesNewRomanPSMT-75" transform="translate(61.083984 0.125)"/>
      <use xlink:href="#TimesNewRomanPSMT-74" transform="translate(111.083984 0.125)"/>
      <use xlink:href="#TimesNewRomanPSMT-68" transform="translate(138.867188 0.125)"/>
      <use xlink:href="#TimesNewRomanPSMT-5f" transform="translate(188.867188 0.125)"/>
      <use xlink:href="#DejaVuSans-Oblique-78" transform="translate(238.867188 0.125)"/>
      <use xlink:href="#DejaVuSans-30" transform="translate(298.046875 -16.28125) scale(0.7)"/>
      <use xlink:href="#DejaVuSans-28" transform="translate(345.317383 0.125)"/>
      <use xlink:href="#DejaVuSans-Oblique-74" transform="translate(384.331055 0.125)"/>
      <use xlink:href="#DejaVuSans-29" transform="translate(423.540039 0.125)"/>
     </g>
    </g>
    <g id="line2d_20">
     <path d="M 363.362484 57.77 
L 374.362484 57.77 
L 385.362484 57.77 
" style="fill: none; stroke: #6acc64; stroke-width: 1.5; stroke-linecap: round"/>
    </g>
    <g id="text_18">
     <!-- pred_$x_{1}(t)$ -->
     <g style="fill: #262626" transform="translate(394.162484 61.62) scale(0.11 -0.11)">
      <defs>
       <path id="DejaVuSans-31" d="M 794 531 
L 1825 531 
L 1825 4091 
L 703 3866 
L 703 4441 
L 1819 4666 
L 2450 4666 
L 2450 531 
L 3481 531 
L 3481 0 
L 794 0 
L 794 531 
z
" transform="scale(0.015625)"/>
      </defs>
      <use xlink:href="#TimesNewRomanPSMT-70" transform="translate(0 0.125)"/>
      <use xlink:href="#TimesNewRomanPSMT-72" transform="translate(50 0.125)"/>
      <use xlink:href="#TimesNewRomanPSMT-65" transform="translate(83.300781 0.125)"/>
      <use xlink:href="#TimesNewRomanPSMT-64" transform="translate(127.685547 0.125)"/>
      <use xlink:href="#TimesNewRomanPSMT-5f" transform="translate(177.685547 0.125)"/>
      <use xlink:href="#DejaVuSans-Oblique-78" transform="translate(227.685547 0.125)"/>
      <use xlink:href="#DejaVuSans-31" transform="translate(286.865234 -16.28125) scale(0.7)"/>
      <use xlink:href="#DejaVuSans-28" transform="translate(334.135742 0.125)"/>
      <use xlink:href="#DejaVuSans-Oblique-74" transform="translate(373.149414 0.125)"/>
      <use xlink:href="#DejaVuSans-29" transform="translate(412.358398 0.125)"/>
     </g>
    </g>
    <g id="line2d_21">
     <path d="M 363.362484 74.05 
L 374.362484 74.05 
L 385.362484 74.05 
" style="fill: none; stroke: #d65f5f; stroke-width: 0.7; stroke-linecap: round"/>
    </g>
    <g id="text_19">
     <!-- truth_$x_{1}(t)$ -->
     <g style="fill: #262626" transform="translate(394.162484 77.9) scale(0.11 -0.11)">
      <use xlink:href="#TimesNewRomanPSMT-74" transform="translate(0 0.125)"/>
      <use xlink:href="#TimesNewRomanPSMT-72" transform="translate(27.783203 0.125)"/>
      <use xlink:href="#TimesNewRomanPSMT-75" transform="translate(61.083984 0.125)"/>
      <use xlink:href="#TimesNewRomanPSMT-74" transform="translate(111.083984 0.125)"/>
      <use xlink:href="#TimesNewRomanPSMT-68" transform="translate(138.867188 0.125)"/>
      <use xlink:href="#TimesNewRomanPSMT-5f" transform="translate(188.867188 0.125)"/>
      <use xlink:href="#DejaVuSans-Oblique-78" transform="translate(238.867188 0.125)"/>
      <use xlink:href="#DejaVuSans-31" transform="translate(298.046875 -16.28125) scale(0.7)"/>
      <use xlink:href="#DejaVuSans-28" transform="translate(345.317383 0.125)"/>
      <use xlink:href="#DejaVuSans-Oblique-74" transform="translate(384.331055 0.125)"/>
      <use xlink:href="#DejaVuSans-29" transform="translate(423.540039 0.125)"/>
     </g>
    </g>
   </g>
  </g>
 </g>
 <defs>
  <clipPath id="pe4970fa9b2">
   <rect x="45.840236" y="10.8" width="307.622248" height="290.52375"/>
  </clipPath>
 </defs>
</svg>
